<svg xmlns="http://www.w3.org/2000/svg" xmlns:xlink="http://www.w3.org/1999/xlink" width="82.914" height="70.848" viewBox="0 0 82.914 70.848">
  <defs>
    <clipPath id="clip-path">
      <rect id="Rectangle_502" data-name="Rectangle 502" width="82.914" height="70.848" fill="none" stroke="#707070" stroke-width="3"/>
    </clipPath>
  </defs>
  <g id="Group_1019" data-name="Group 1019" transform="translate(-1198.528 -1034.152)">
    <g id="Group_1018" data-name="Group 1018" transform="translate(1198.528 1034.152)">
      <g id="Group_1007" data-name="Group 1007" transform="translate(0 0)" clip-path="url(#clip-path)">
        <path id="Path_2590" data-name="Path 2590" d="M104.381,111H82.274V88.893h22.108Zm11.207,0h26m-26-11.055h26m-26-11.055h26m-44.8,8.879a3.472,3.472,0,1,1-3.461-3.749A3.613,3.613,0,0,1,96.789,97.77Zm3.749,8.581a1.707,1.707,0,0,0-1.21-1.391l-2.74-.6a12.581,12.581,0,0,1-3.259.947,12.58,12.58,0,0,1-3.259-.947l-2.743.6a1.711,1.711,0,0,0-1.21,1.391l-.6,4.651h15.616ZM92.5,67.014H73.186a2.157,2.157,0,0,0-2.159,2.156v51.689a2.158,2.158,0,0,0,2.159,2.156H149.3a2.158,2.158,0,0,0,2.159-2.156V69.17a2.157,2.157,0,0,0-2.159-2.156H129.048M97.473,63.345V77.033a2.342,2.342,0,0,0,2.343,2.34h.939a2.344,2.344,0,0,0,2.323-2.037l.037-.291a8.2,8.2,0,0,1,16.257,0l.037.291a2.343,2.343,0,0,0,4.666-.3V63.345a1.809,1.809,0,0,0-1.809-1.809H99.284A1.809,1.809,0,0,0,97.473,63.345Zm20.265-1.809v-.39a6.494,6.494,0,0,0-12.988,0v.39" transform="translate(-69.787 -53.411)" fill="none" stroke="#692489" stroke-miterlimit="10" stroke-width="3"/>
      </g>
    </g>
  </g>
</svg>
