<svg xmlns="http://www.w3.org/2000/svg" xmlns:xlink="http://www.w3.org/1999/xlink" width="82.366" height="71.942" viewBox="0 0 82.366 71.942">
  <defs>
    <clipPath id="clip-path">
      <rect id="Rectangle_499" data-name="Rectangle 499" width="82.366" height="71.941" fill="none" stroke="#707070" stroke-width="3"/>
    </clipPath>
  </defs>
  <g id="Group_1017" data-name="Group 1017" transform="translate(-748.737 -976.529)">
    <g id="Group_1016" data-name="Group 1016" transform="translate(748.737 976.529)">
      <g id="Group_1001" data-name="Group 1001" transform="translate(0 0)" clip-path="url(#clip-path)">
        <path id="Path_2586" data-name="Path 2586" d="M100.137,141.271v-4.957a.419.419,0,0,1,.428-.41h23.049a.419.419,0,0,1,.428.41v4.957m5.42,0V134.72a3.69,3.69,0,0,0-3.69-3.69H98.407a3.688,3.688,0,0,0-3.688,3.69v6.551m12.737,34.722h9.267m-6.117-8.565h2.967M115.7,162.8H108.48a1.024,1.024,0,0,0-1.024,1.022v7.224a1.024,1.024,0,0,0,1.024,1.022H115.7a1.022,1.022,0,0,0,1.022-1.022V163.82A1.023,1.023,0,0,0,115.7,162.8Zm-8.245,4.587a231.665,231.665,0,0,1-34.048-3.2,1.41,1.41,0,0,1-1.171-1.389V144.421a3.15,3.15,0,0,1,3.15-3.15h73.4a3.152,3.152,0,0,1,3.153,3.15V162.79a1.41,1.41,0,0,1-1.173,1.389,231.631,231.631,0,0,1-34.048,3.2m32.718-2.983v32.758a3.15,3.15,0,0,1-3.15,3.15h-68.4a3.15,3.15,0,0,1-3.15-3.15V164.4" transform="translate(-70.906 -129.697)" fill="none" stroke="#692489" stroke-linecap="round" stroke-miterlimit="10" stroke-width="3"/>
      </g>
    </g>
  </g>
</svg>
