<svg xmlns="http://www.w3.org/2000/svg" xmlns:xlink="http://www.w3.org/1999/xlink" width="106.932" height="131.071" viewBox="0 0 106.932 131.071">
  <defs>
    <clipPath id="clip-path">
      <path id="Path_2456" data-name="Path 2456" d="M0,88.71H106.932V-42.361H0Z" transform="translate(0 42.361)" fill="none"/>
    </clipPath>
  </defs>
  <g id="Group_911" data-name="Group 911" transform="translate(17 -21.611)">
    <g id="Group_910" data-name="Group 910" transform="translate(-17 21.611)" clip-path="url(#clip-path)">
      <g id="Group_908" data-name="Group 908" transform="translate(1.471 1.626)">
        <path id="Path_2454" data-name="Path 2454" d="M17.106,24.763c-.059-2.729-.2-9.029-.337-11.173C16.76,6.2,18.532-8.805,31.334-8.845c4.074-.015,2.938-2.98,10.8-2.98C66.186-11.837,68.18,5.4,68.18,13.59c-.236,2-.29,8.23-.3,11.2m-25.4,34.815a17.256,17.256,0,0,0,3.123-.248l.469-.077c2.3-.368,4.2-.687,6.106-2.243a38.556,38.556,0,0,0,3.039-2.782,38.16,38.16,0,0,0,6.91-9.252l1.943-5.7a3.675,3.675,0,0,1,.908-1.457c3.666-3.571,6.064-11.668,2-13.707a2.22,2.22,0,0,1-2.988-1.033,13.614,13.614,0,0,1-2-4.852.834.834,0,0,0-.931-.7C45.6,20.048,33.671,11.508,29.839,8.278a1.261,1.261,0,0,0-1.147-.26,1.139,1.139,0,0,0-.9.817,38.88,38.88,0,0,1-1.38,5.625,26.142,26.142,0,0,1-5.431,9.8c-1.313,1.488-3.011-.114-3.011-.114-4.06,2.039-1.667,10.136,2,13.707a3.712,3.712,0,0,1,.911,1.457l1.94,5.7a38.247,38.247,0,0,0,6.91,9.252,38.878,38.878,0,0,0,3.042,2.782c1.9,1.556,3.807,1.875,6.1,2.243l.469.077a17.343,17.343,0,0,0,3.129.248M29.737,54.254a79.133,79.133,0,0,1-1.363,11.928L.9,78.338a10.771,10.771,0,0,0-5.564,6.64c-1.448,4.756-3.708,18.89-4.776,32.176M27.994,66.349c11.276,6.844,17.756,6.656,29.179,0m18.69,48.188M22.068,69.864l16.1,20.944,4.22,23M64.73,69.864,46.968,90.808l-2.958,23m2.437-35.886h-7.99V72.5h7.99ZM44.435,113.07,42,112.925,39.676,79.09H45.77Z" transform="translate(9.444 11.825)" fill="none" stroke="#ff9e1a" stroke-linejoin="round" stroke-width="3.5"/>
      </g>
      <g id="Group_909" data-name="Group 909" transform="translate(66.106 67.716)">
        <path id="Path_2455" data-name="Path 2455" d="M25.353,42.819,25.2,39.827c-1.068-13.255-3.045-24.762-4.5-29.524a10.768,10.768,0,0,0-5.62-6.662L-12.8-8.522A80.471,80.471,0,0,1-14-20.447" transform="translate(13.997 20.447)" fill="none" stroke="#ff9e1a" stroke-linejoin="round" stroke-width="3.5"/>
      </g>
    </g>
  </g>
</svg>
