<svg xmlns="http://www.w3.org/2000/svg" width="46.899" height="48.5" viewBox="0 0 46.899 48.5">
  <g id="Group_1353" data-name="Group 1353" transform="translate(-195.797 -2764)">
    <g id="Group_1291" data-name="Group 1291" transform="translate(0 13)">
      <path id="Path_2512" data-name="Path 2512" d="M848.429,434.064c-.971-.751-22.982,26.081-22.982,26.081l-7.18-8.945c-1.067-1.339-5,4.029-3.974,5.552l2.122,3.161,5.927,8.828.02.032a3.774,3.774,0,0,0,6.3-.085L848.94,437.02A2.231,2.231,0,0,0,848.429,434.064Z" transform="translate(-606.592 2316.951)" fill="#ff9e1a"/>
      <path id="Path_2513" data-name="Path 2513" d="M541.623,522.242a18.161,18.161,0,1,1-6.844-7.849q1.772-2.079,3.288-3.824a23.157,23.157,0,1,0,6.634,6.868Z" transform="translate(-306.173 2246.639)" fill="#823695"/>
    </g>
  </g>
</svg>
