<svg xmlns="http://www.w3.org/2000/svg" xmlns:xlink="http://www.w3.org/1999/xlink" width="71.999" height="99.015" viewBox="0 0 71.999 99.015">
  <defs>
    <clipPath id="clip-path">
      <rect id="Rectangle_496" data-name="Rectangle 496" width="71.999" height="99.015" fill="none" stroke="#707070" stroke-width="3"/>
    </clipPath>
  </defs>
  <g id="Group_1532" data-name="Group 1532" transform="translate(-307.891 -608.024)">
    <g id="Group_998" data-name="Group 998" transform="translate(307.891 608.024)">
      <g id="Group_997" data-name="Group 997" transform="translate(0 0)" clip-path="url(#clip-path)">
        <path id="Path_2582" data-name="Path 2582" d="M343.934,301.761a14.176,14.176,0,1,0-14.174,14.177A14.176,14.176,0,0,0,343.934,301.761ZM294.5,220.99v10.152a1.738,1.738,0,0,0,1.736,1.739h.7a1.738,1.738,0,0,0,1.722-1.513l.027-.215a6.081,6.081,0,0,1,12.059,0l.027.215a1.738,1.738,0,0,0,3.461-.226V220.99a1.342,1.342,0,0,0-1.341-1.341H295.844A1.34,1.34,0,0,0,294.5,220.99Zm-6.4,61.124h32.529M288.1,270.875h32.529M288.1,259.633h32.529M288.1,248.391h32.529m-6.4-23.964h19.843V288.26m-17.821,17.821h-41.6V224.427H294.5" transform="translate(-273.296 -218.287)" fill="none" stroke="#692489" stroke-miterlimit="10" stroke-width="3"/>
      </g>
    </g>
    <path id="Path_2583" data-name="Path 2583" d="M292.6,252.919l5.729,5.107,8.258-10.1" transform="translate(64.553 438.525)" fill="none" stroke="#692489" stroke-linecap="round" stroke-miterlimit="10" stroke-width="3"/>
  </g>
</svg>
