<svg xmlns="http://www.w3.org/2000/svg" xmlns:xlink="http://www.w3.org/1999/xlink" width="86.512" height="70.668" viewBox="0 0 86.512 70.668">
  <defs>
    <clipPath id="clip-path">
      <rect id="Rectangle_501" data-name="Rectangle 501" width="86.512" height="70.668" fill="none" stroke="#707070" stroke-width="3"/>
    </clipPath>
  </defs>
  <g id="Group_1015" data-name="Group 1015" transform="translate(-1086.523 -636.102)">
    <g id="Group_1014" data-name="Group 1014" transform="translate(1086.523 636.102)">
      <g id="Group_1005" data-name="Group 1005" transform="translate(0 0)" clip-path="url(#clip-path)">
        <path id="Path_2589" data-name="Path 2589" d="M324.357,84.621V106.6a2.14,2.14,0,0,1-2.139,2.139H275.209a2.145,2.145,0,0,0-1.515.629l-6.671,6.684V75.865a2.141,2.141,0,0,1,2.139-2.142h24.572m0-21.981v30.74a2.139,2.139,0,0,0,2.139,2.139h47.006a2.133,2.133,0,0,1,1.515.627l6.674,6.686V51.742a2.141,2.141,0,0,0-2.142-2.139H295.873A2.139,2.139,0,0,0,293.734,51.742Zm-15.3,46.752h34.51m-34.51-7.261h34.51m-7.8-16.859h34.51m-34.51-7.264h34.51m0-7.261h-34.51" transform="translate(-265.788 -48.368)" fill="none" stroke="#692489" stroke-linecap="round" stroke-miterlimit="10" stroke-width="3"/>
      </g>
    </g>
  </g>
</svg>
