<svg xmlns="http://www.w3.org/2000/svg" width="138.253" height="119.411" viewBox="0 0 138.253 119.411">
  <g id="Group_1595" data-name="Group 1595" transform="translate(-52.803 -57.872)">
    <path id="Path_2715" data-name="Path 2715" d="M185.541,103.71c-17.049,16.61-43.209,40.2-48.206,40.847-4.23.552-17.208-6.259-23.449-9.526-3.994-2.093-5.562-2.893-6.51-3.15-2.433-.881-6.711-.483-9.214-.139L82.6,98.233c8.441-1.306,24.417-4.611,29.8-1.916,7.655,3.826,23.475,19.6,23.635,19.76a2.343,2.343,0,0,0,.216.19c.873.673,3.384,3.116,3.46,5.421a3.919,3.919,0,0,1-1.609,3.061c-2.99,2.633-6.75.349-7.227.041l-17.811-14.248a2.242,2.242,0,0,0-2.8,3.5l17.883,14.308c.039.03.078.061.119.089a12.1,12.1,0,0,0,6.562,2.04,9.212,9.212,0,0,0,6.237-2.369,8.251,8.251,0,0,0,3.129-6.571,9.934,9.934,0,0,0-1.741-5.042l33.677-17.366c.076-.039.154-.087.227-.132.236-.16,5.824-3.828,9.245-.3,1.955,2.018.407,4.388-.063,5.01M75.334,141.267,58.191,109.275,78.2,99.363l15.681,33.779ZM188.823,95.579c-4.776-4.927-11.734-2.438-14.859-.374l-34.58,17.831c-.1-.089-.2-.169-.269-.225-1.474-1.468-16.642-16.474-24.707-20.507-8.485-4.244-32.651,1.485-35.419,1.981l-.006,0h0a.679.679,0,0,0-.082.024,1.848,1.848,0,0,0-.336.093l-.013.006-.009,0L54.231,106.007a2.243,2.243,0,0,0-1.173,3.131l19.307,36.127a2.238,2.238,0,0,0,2.955.983l22.18-9.866c2.67-.453,6.976-.836,8.374-.277a2.069,2.069,0,0,0,.346.108c.639.2,3.267,1.576,5.588,2.789,10.137,5.311,19.678,10.061,25.1,10.061a8.129,8.129,0,0,0,1-.058c1.557-.2,5.7-.736,29.011-21.732,11.3-10.175,21.752-20.355,21.858-20.457a1.958,1.958,0,0,0,.169-.182c1.68-2.048,3.815-6.993-.125-11.055" transform="translate(0 28.22)" fill="#823695"/>
    <path id="Path_2716" data-name="Path 2716" d="M185.541,103.71c-17.049,16.61-43.209,40.2-48.206,40.847-4.23.552-17.208-6.259-23.449-9.526-3.994-2.093-5.562-2.893-6.51-3.15-2.433-.881-6.711-.483-9.214-.139L82.6,98.233c8.441-1.306,24.417-4.611,29.8-1.916,7.655,3.826,23.475,19.6,23.635,19.76a2.343,2.343,0,0,0,.216.19c.873.673,3.384,3.116,3.46,5.421a3.919,3.919,0,0,1-1.609,3.061c-2.99,2.633-6.75.349-7.227.041l-17.811-14.248a2.242,2.242,0,0,0-2.8,3.5l17.883,14.308c.039.03.078.061.119.089a12.1,12.1,0,0,0,6.562,2.04,9.212,9.212,0,0,0,6.237-2.369,8.251,8.251,0,0,0,3.129-6.571,9.934,9.934,0,0,0-1.741-5.042l33.677-17.366c.076-.039.154-.087.227-.132.236-.16,5.824-3.828,9.245-.3C187.559,100.718,186.011,103.087,185.541,103.71ZM75.334,141.267,58.191,109.275,78.2,99.363l15.681,33.779ZM188.823,95.579c-4.776-4.927-11.734-2.438-14.859-.374l-34.58,17.831c-.1-.089-.2-.169-.269-.225-1.474-1.468-16.642-16.474-24.707-20.507-8.485-4.244-32.651,1.485-35.419,1.981l-.006,0h0a.679.679,0,0,0-.082.024,1.848,1.848,0,0,0-.336.093l-.013.006-.009,0L54.231,106.007a2.243,2.243,0,0,0-1.173,3.131l19.307,36.127a2.238,2.238,0,0,0,2.955.983l22.18-9.866c2.67-.453,6.976-.836,8.374-.277a2.069,2.069,0,0,0,.346.108c.639.2,3.267,1.576,5.588,2.789,10.137,5.311,19.678,10.061,25.1,10.061a8.129,8.129,0,0,0,1-.058c1.557-.2,5.7-.736,29.011-21.732,11.3-10.175,21.752-20.355,21.858-20.457a1.958,1.958,0,0,0,.169-.182C190.627,104.587,192.762,99.642,188.823,95.579Z" transform="translate(0 28.22)" fill="#823695"/>
    <path id="Path_2717" data-name="Path 2717" d="M115.426,64.477a7.457,7.457,0,1,1-7.458,7.458,7.465,7.465,0,0,1,7.458-7.458m0,19.2a11.742,11.742,0,1,0-11.743-11.741,11.754,11.754,0,0,0,11.743,11.741" transform="translate(43.674 1.991)" fill="#823695"/>
    <path id="Path_2718" data-name="Path 2718" d="M115.426,64.477a7.457,7.457,0,1,1-7.458,7.458A7.465,7.465,0,0,1,115.426,64.477Zm0,19.2a11.742,11.742,0,1,0-11.743-11.741A11.754,11.754,0,0,0,115.426,83.676Z" transform="translate(43.674 1.991)" fill="#823695"/>
    <path id="Path_2719" data-name="Path 2719" d="M83.085,64.477a7.457,7.457,0,1,1-7.458,7.458,7.465,7.465,0,0,1,7.458-7.458m0,19.2A11.742,11.742,0,1,0,71.342,71.935,11.755,11.755,0,0,0,83.085,83.676" transform="translate(15.914 1.991)" fill="#823695"/>
    <path id="Path_2720" data-name="Path 2720" d="M83.085,64.477a7.457,7.457,0,1,1-7.458,7.458A7.465,7.465,0,0,1,83.085,64.477Zm0,19.2A11.742,11.742,0,1,0,71.342,71.935,11.755,11.755,0,0,0,83.085,83.676Z" transform="translate(15.914 1.991)" fill="#823695"/>
    <path id="Path_2721" data-name="Path 2721" d="M104.768,75.956a27.228,27.228,0,0,1,2.609,3.475,16.277,16.277,0,0,1,23.4,14.64,2.143,2.143,0,1,0,4.285,0,20.558,20.558,0,0,0-30.293-18.115" transform="translate(44.605 13.419)" fill="#823695"/>
    <path id="Path_2722" data-name="Path 2722" d="M104.768,75.956a27.228,27.228,0,0,1,2.609,3.475,16.277,16.277,0,0,1,23.4,14.64,2.143,2.143,0,1,0,4.285,0,20.558,20.558,0,0,0-30.293-18.115Z" transform="translate(44.605 13.419)" fill="#823695"/>
    <path id="Path_2723" data-name="Path 2723" d="M68.736,96.214a2.142,2.142,0,0,0,2.143-2.143,16.28,16.28,0,0,1,23.4-14.64,27.378,27.378,0,0,1,2.605-3.475A20.558,20.558,0,0,0,66.593,94.072a2.142,2.142,0,0,0,2.143,2.143" transform="translate(11.837 13.419)" fill="#823695"/>
    <path id="Path_2724" data-name="Path 2724" d="M68.736,96.214a2.142,2.142,0,0,0,2.143-2.143,16.28,16.28,0,0,1,23.4-14.64,27.378,27.378,0,0,1,2.605-3.475A20.558,20.558,0,0,0,66.593,94.072,2.142,2.142,0,0,0,68.736,96.214Z" transform="translate(11.837 13.419)" fill="#823695"/>
    <path id="Path_2725" data-name="Path 2725" d="M84.1,97.167a2.337,2.337,0,0,0,2.338-2.338,17.761,17.761,0,0,1,35.523,0,2.338,2.338,0,0,0,4.676,0,22.437,22.437,0,0,0-44.874,0A2.337,2.337,0,0,0,84.1,97.167" transform="translate(24.854 12.466)" fill="#823695"/>
    <path id="Path_2726" data-name="Path 2726" d="M84.1,97.167a2.337,2.337,0,0,0,2.338-2.338,17.761,17.761,0,0,1,35.523,0,2.338,2.338,0,0,0,4.676,0,22.437,22.437,0,0,0-44.874,0A2.337,2.337,0,0,0,84.1,97.167Z" transform="translate(24.854 12.466)" fill="#823695"/>
    <path id="Path_2727" data-name="Path 2727" d="M99.748,62.546a8.135,8.135,0,1,1-8.134,8.134,8.143,8.143,0,0,1,8.134-8.134m0,20.944a12.809,12.809,0,1,0-12.81-12.81,12.824,12.824,0,0,0,12.81,12.81" transform="translate(29.301)" fill="#823695"/>
    <path id="Path_2728" data-name="Path 2728" d="M99.748,62.546a8.135,8.135,0,1,1-8.134,8.134A8.143,8.143,0,0,1,99.748,62.546Zm0,20.944a12.809,12.809,0,1,0-12.81-12.81A12.824,12.824,0,0,0,99.748,83.49Z" transform="translate(29.301)" fill="#823695"/>
  </g>
</svg>
