<svg xmlns="http://www.w3.org/2000/svg" width="79.335" height="68.523" viewBox="0 0 79.335 68.523">
  <g id="Group_1602" data-name="Group 1602" transform="translate(-52.803 -57.872)">
    <path id="Path_2715" data-name="Path 2715" d="M128.973,98.186c-9.783,9.532-24.795,23.068-27.663,23.44-2.427.317-9.875-3.592-13.456-5.466a26.585,26.585,0,0,0-3.736-1.808c-1.4-.505-3.851-.277-5.287-.08L69.9,95.043c4.844-.75,14.011-2.646,17.1-1.1,4.393,2.2,13.471,11.247,13.563,11.339a1.345,1.345,0,0,0,.124.109c.5.386,1.942,1.788,1.986,3.111a2.249,2.249,0,0,1-.924,1.756c-1.716,1.511-3.873.2-4.147.023l-10.22-8.176a1.286,1.286,0,0,0-1.606,2.01l10.262,8.21c.022.017.045.035.068.051a6.945,6.945,0,0,0,3.765,1.171,5.286,5.286,0,0,0,3.579-1.36,4.735,4.735,0,0,0,1.8-3.771,5.7,5.7,0,0,0-1-2.893l19.325-9.966c.044-.022.089-.05.13-.076.135-.092,3.342-2.2,5.305-.173a2.167,2.167,0,0,1-.036,2.875M65.732,119.738,55.895,101.38l11.48-5.688,9,19.384Zm65.124-26.218c-2.741-2.827-6.733-1.4-8.527-.214l-19.844,10.232c-.06-.051-.115-.1-.155-.129-.846-.842-9.55-9.454-14.178-11.768-4.869-2.436-18.737.852-20.325,1.137l0,0h0a.389.389,0,0,0-.047.014,1.061,1.061,0,0,0-.193.053l-.007,0h-.005L53.622,99.5a1.287,1.287,0,0,0-.673,1.8l11.079,20.731a1.284,1.284,0,0,0,1.7.564l12.728-5.662c1.532-.26,4-.48,4.805-.159a1.187,1.187,0,0,0,.2.062c.367.113,1.875.9,3.207,1.6,5.817,3.048,11.292,5.773,14.406,5.773a4.663,4.663,0,0,0,.573-.033c.894-.116,3.269-.422,16.648-12.471,6.484-5.839,12.482-11.68,12.543-11.739a1.125,1.125,0,0,0,.1-.1,4.718,4.718,0,0,0-.071-6.344" transform="translate(0 2.183)" fill="#823695"/>
    <path id="Path_2716" data-name="Path 2716" d="M128.973,98.186c-9.783,9.532-24.795,23.068-27.663,23.44-2.427.317-9.875-3.592-13.456-5.466a26.585,26.585,0,0,0-3.736-1.808c-1.4-.505-3.851-.277-5.287-.08L69.9,95.043c4.844-.75,14.011-2.646,17.1-1.1,4.393,2.2,13.471,11.247,13.563,11.339a1.345,1.345,0,0,0,.124.109c.5.386,1.942,1.788,1.986,3.111a2.249,2.249,0,0,1-.924,1.756c-1.716,1.511-3.873.2-4.147.023l-10.22-8.176a1.286,1.286,0,0,0-1.606,2.01l10.262,8.21c.022.017.045.035.068.051a6.945,6.945,0,0,0,3.765,1.171,5.286,5.286,0,0,0,3.579-1.36,4.735,4.735,0,0,0,1.8-3.771,5.7,5.7,0,0,0-1-2.893l19.325-9.966c.044-.022.089-.05.13-.076.135-.092,3.342-2.2,5.305-.173A2.167,2.167,0,0,1,128.973,98.186ZM65.732,119.738,55.895,101.38l11.48-5.688,9,19.384Zm65.124-26.218c-2.741-2.827-6.733-1.4-8.527-.214l-19.844,10.232c-.06-.051-.115-.1-.155-.129-.846-.842-9.55-9.454-14.178-11.768-4.869-2.436-18.737.852-20.325,1.137l0,0h0a.389.389,0,0,0-.047.014,1.061,1.061,0,0,0-.193.053l-.007,0h-.005L53.622,99.5a1.287,1.287,0,0,0-.673,1.8l11.079,20.731a1.284,1.284,0,0,0,1.7.564l12.728-5.662c1.532-.26,4-.48,4.805-.159a1.187,1.187,0,0,0,.2.062c.367.113,1.875.9,3.207,1.6,5.817,3.048,11.292,5.773,14.406,5.773a4.663,4.663,0,0,0,.573-.033c.894-.116,3.269-.422,16.648-12.471,6.484-5.839,12.482-11.68,12.543-11.739a1.125,1.125,0,0,0,.1-.1A4.718,4.718,0,0,0,130.856,93.521Z" transform="translate(0 2.183)" fill="#823695"/>
    <path id="Path_2717" data-name="Path 2717" d="M110.422,62.651a4.279,4.279,0,1,1-4.279,4.279,4.284,4.284,0,0,1,4.279-4.279m0,11.017a6.738,6.738,0,1,0-6.739-6.738,6.745,6.745,0,0,0,6.739,6.738" transform="translate(3.379 0.154)" fill="#823695"/>
    <path id="Path_2718" data-name="Path 2718" d="M110.422,62.651a4.279,4.279,0,1,1-4.279,4.279A4.284,4.284,0,0,1,110.422,62.651Zm0,11.017a6.738,6.738,0,1,0-6.739-6.738A6.745,6.745,0,0,0,110.422,73.668Z" transform="translate(3.379 0.154)" fill="#823695"/>
    <path id="Path_2719" data-name="Path 2719" d="M78.081,62.651A4.279,4.279,0,1,1,73.8,66.931a4.284,4.284,0,0,1,4.279-4.279m0,11.017a6.738,6.738,0,1,0-6.739-6.738,6.746,6.746,0,0,0,6.739,6.738" transform="translate(1.231 0.154)" fill="#823695"/>
    <path id="Path_2720" data-name="Path 2720" d="M78.081,62.651A4.279,4.279,0,1,1,73.8,66.931,4.284,4.284,0,0,1,78.081,62.651Zm0,11.017a6.738,6.738,0,1,0-6.739-6.738A6.746,6.746,0,0,0,78.081,73.668Z" transform="translate(1.231 0.154)" fill="#823695"/>
    <path id="Path_2721" data-name="Path 2721" d="M104.768,74.912a15.625,15.625,0,0,1,1.5,1.994,9.34,9.34,0,0,1,13.427,8.4,1.23,1.23,0,1,0,2.459,0,11.8,11.8,0,0,0-17.383-10.4" transform="translate(3.451 1.038)" fill="#823695"/>
    <path id="Path_2722" data-name="Path 2722" d="M104.768,74.912a15.625,15.625,0,0,1,1.5,1.994,9.34,9.34,0,0,1,13.427,8.4,1.23,1.23,0,1,0,2.459,0,11.8,11.8,0,0,0-17.383-10.4Z" transform="translate(3.451 1.038)" fill="#823695"/>
    <path id="Path_2723" data-name="Path 2723" d="M67.823,86.536a1.229,1.229,0,0,0,1.23-1.23,9.342,9.342,0,0,1,13.429-8.4,15.711,15.711,0,0,1,1.5-1.994,11.8,11.8,0,0,0-17.383,10.4,1.229,1.229,0,0,0,1.23,1.23" transform="translate(0.916 1.038)" fill="#823695"/>
    <path id="Path_2724" data-name="Path 2724" d="M67.823,86.536a1.229,1.229,0,0,0,1.23-1.23,9.342,9.342,0,0,1,13.429-8.4,15.711,15.711,0,0,1,1.5-1.994,11.8,11.8,0,0,0-17.383,10.4A1.229,1.229,0,0,0,67.823,86.536Z" transform="translate(0.916 1.038)" fill="#823695"/>
    <path id="Path_2725" data-name="Path 2725" d="M83.1,86.61a1.341,1.341,0,0,0,1.342-1.342,10.192,10.192,0,0,1,20.384,0,1.342,1.342,0,0,0,2.683,0,12.875,12.875,0,0,0-25.75,0A1.341,1.341,0,0,0,83.1,86.61" transform="translate(1.923 0.964)" fill="#823695"/>
    <path id="Path_2726" data-name="Path 2726" d="M83.1,86.61a1.341,1.341,0,0,0,1.342-1.342,10.192,10.192,0,0,1,20.384,0,1.342,1.342,0,0,0,2.683,0,12.875,12.875,0,0,0-25.75,0A1.341,1.341,0,0,0,83.1,86.61Z" transform="translate(1.923 0.964)" fill="#823695"/>
    <path id="Path_2727" data-name="Path 2727" d="M94.289,60.554a4.668,4.668,0,1,1-4.668,4.668,4.673,4.673,0,0,1,4.668-4.668m0,12.018a7.35,7.35,0,1,0-7.351-7.351,7.359,7.359,0,0,0,7.351,7.351" transform="translate(2.267)" fill="#823695"/>
    <path id="Path_2728" data-name="Path 2728" d="M94.289,60.554a4.668,4.668,0,1,1-4.668,4.668A4.673,4.673,0,0,1,94.289,60.554Zm0,12.018a7.35,7.35,0,1,0-7.351-7.351A7.359,7.359,0,0,0,94.289,72.572Z" transform="translate(2.267)" fill="#823695"/>
  </g>
</svg>
