<svg xmlns="http://www.w3.org/2000/svg" width="112.022" height="122.556" viewBox="0 0 112.022 122.556">
  <g id="Group_978" data-name="Group 978" transform="translate(-1282.977 -2344.181)">
    <path id="Path_2344" data-name="Path 2344" d="M295.538,153.409l16.57,56.534a6.3,6.3,0,0,0,6.031,4.485h0a6.3,6.3,0,0,0,6.031-8.112L307.4,150.024" transform="translate(1003.41 2250.309)" fill="none" stroke="#823695" stroke-linejoin="round" stroke-width="4"/>
    <path id="Path_2345" data-name="Path 2345" d="M311.764,164.9s3.873,15.458,4.67,18.4c9.794,4.788,37.355,1.942,47.706-5.237C352.6,171.069,340.9,164.527,340.9,164.527s7.916-14.209,8.671-23.985a87.649,87.649,0,0,1-30.119,3.393" transform="translate(1028.86 2235.436)" fill="none" stroke="#823695" stroke-linejoin="round" stroke-width="4"/>
    <path id="Path_2346" data-name="Path 2346" d="M346.967,138.669c-12.221-8.689-49.537-8.641-56.02.236,2.969,10.955,8.412,30,11.792,42.463,19.4-9.542,53.372-.878,55.941-.878Z" transform="translate(996.209 2222.35)" fill="none" stroke="#823695" stroke-linejoin="round" stroke-width="4"/>
    <path id="Path_2347" data-name="Path 2347" d="M290.432,137.562a6.575,6.575,0,1,1,12.506-4.066" transform="translate(994.893 2217.254)" fill="none" stroke="#823695" stroke-linejoin="round" stroke-width="4"/>
  </g>
</svg>
