<svg xmlns="http://www.w3.org/2000/svg" width="129" height="128" viewBox="0 0 129 128">
  <g id="Group_1785" data-name="Group 1785" transform="translate(-1370 -1097)">
    <g id="Ellipse_3" data-name="Ellipse 3" transform="translate(1370 1097)" fill="none" stroke="#ff9e18" stroke-width="4">
      <ellipse cx="64.5" cy="64" rx="64.5" ry="64" stroke="none"/>
      <ellipse cx="64.5" cy="64" rx="62.5" ry="62" fill="none"/>
    </g>
    <g id="Group_1468" data-name="Group 1468" transform="translate(1270.313 931.072)">
      <path id="Path_2671" data-name="Path 2671" d="M213.434,192.156c-6.058.005-9.778,10.663-9.778,18.3,0,6.176,2.447,10.81,6.473,12.454l-.331,9.183-.53,8.533-.953,21.2a4.989,4.989,0,0,0,4.978,5.3h0a4.991,4.991,0,0,0,4.978-5.271l-.947-20.976-.257-8.922-.328-9.042c4.027-1.646,6.475-6.28,6.475-12.453C223.217,202.816,219.5,192.156,213.434,192.156Zm1.342,28.121a1.56,1.56,0,0,0-1.193,1.572l.371,10.2.257,8.936.95,21.027a1.869,1.869,0,1,1-3.73-.025l.953-21.2.531-8.547.375-10.4a1.559,1.559,0,0,0-1.194-1.572c-3.33-.8-5.319-4.471-5.319-9.819,0-7.235,3.486-15.181,6.66-15.184s6.664,7.947,6.664,15.184C220.1,215.8,218.109,219.474,214.776,220.277Z" transform="translate(-32.321 0)" fill="#823695"/>
      <path id="Path_2672" data-name="Path 2672" d="M156.331,194.23a1.559,1.559,0,1,0-3.107.258l1.618,19.464a7.676,7.676,0,0,1-6.221,8.2,1.56,1.56,0,0,0-1.266,1.6l1.678,37.32a1.869,1.869,0,1,1-3.728-.026l1.676-37.294a1.559,1.559,0,0,0-1.266-1.6,7.677,7.677,0,0,1-6.222-8.2l1.618-19.464A1.559,1.559,0,1,0,138,194.23l-1.618,19.464a10.789,10.789,0,0,0,7.423,11.183l-1.619,36a4.987,4.987,0,1,0,9.957.027l-1.62-36.031a10.788,10.788,0,0,0,7.423-11.183Z" transform="translate(0 -0.309)" fill="#823695"/>
      <path id="Path_2673" data-name="Path 2673" d="M160.549,216.156a1.559,1.559,0,0,0,1.559-1.559V193.827a1.559,1.559,0,0,0-3.119,0V214.6A1.559,1.559,0,0,0,160.549,216.156Z" transform="translate(-10.873 -0.054)" fill="#823695"/>
      <path id="Path_2674" data-name="Path 2674" d="M150.9,216.156a1.559,1.559,0,0,0,1.559-1.559V193.827a1.559,1.559,0,1,0-3.119,0V214.6A1.559,1.559,0,0,0,150.9,216.156Z" transform="translate(-6.237 -0.054)" fill="#823695"/>
    </g>
  </g>
</svg>
