<svg xmlns="http://www.w3.org/2000/svg" xmlns:xlink="http://www.w3.org/1999/xlink" width="86.52" height="145.089" viewBox="0 0 86.52 145.089">
  <defs>
    <clipPath id="clip-path">
      <rect id="Rectangle_491" data-name="Rectangle 491" width="86.52" height="145.089" fill="none" stroke="#823695" stroke-width="3"/>
    </clipPath>
  </defs>
  <g id="Group_1011" data-name="Group 1011" transform="translate(-161.824 -207.664)">
    <g id="Group_985" data-name="Group 985" transform="translate(161.824 207.664)" clip-path="url(#clip-path)">
      <path id="Path_2576" data-name="Path 2576" d="M195.25,229.432,177.2,250.87m21.063-21.439,18.056,21.439m12.034-21.439c0,5.075-5.388,9.188-12.034,9.188s-18.056-9.188-18.056-9.188,11.407-9.188,18.056-9.188S228.35,224.357,228.35,229.432Zm-63.189,0c0,5.075,5.388,9.188,12.037,9.188s18.052-9.188,18.052-9.188-11.407-9.188-18.052-9.188S165.161,224.357,165.161,229.432Zm21.063,116.391h9.026m51.152,6.125V333.572H177.2v18.376m57.171-85.761v6.125m-15.048-9.188v6.125m-15.041-9.188h9.026c1.895,0,4.868,1.223,6.015,3.063h9.03c1.895,0,4.868,1.223,6.019,3.063h6.019a6.372,6.372,0,0,1,6.015,6.125V312.13c0,6.2-6.015,11.186-6.015,15.313v6.129m-57.171,0v-9.191c0-2.618-8.527-13.215-10.628-16.564-1.309-2.081-10.435-37.858-10.435-37.858,0-2.963,10.376-6.752,15.2,0l8.874,17.666,3.011-3.063V235.557m0-9.188V214.118a6.071,6.071,0,0,1,6.015-6.125h3.011a6.072,6.072,0,0,1,6.018,6.125v12.251m0,9.188V269.25" transform="translate(-161.018 -206.858)" fill="none" stroke="#823695" stroke-miterlimit="10" stroke-width="3"/>
    </g>
  </g>
</svg>
