<svg xmlns="http://www.w3.org/2000/svg" xmlns:xlink="http://www.w3.org/1999/xlink" width="59.22" height="81.438" viewBox="0 0 59.22 81.438">
  <defs>
    <clipPath id="clip-path">
      <rect id="Rectangle_496" data-name="Rectangle 496" width="59.22" height="81.438" fill="none" stroke="#707070" stroke-width="3"/>
    </clipPath>
  </defs>
  <g id="Group_1366" data-name="Group 1366" transform="translate(-274.16 -219.149)">
    <g id="Group_997" data-name="Group 997" transform="translate(274.16 219.149)" clip-path="url(#clip-path)">
      <path id="Path_2582" data-name="Path 2582" d="M290.981,220.752v8.35a1.429,1.429,0,0,0,1.428,1.43h.574a1.429,1.429,0,0,0,1.417-1.244l.022-.177a5,5,0,0,1,9.919,0l.022.177a1.429,1.429,0,0,0,2.847-.186v-8.35a1.1,1.1,0,0,0-1.1-1.1H292.084A1.1,1.1,0,0,0,290.981,220.752Zm-5.263,50.273h26.755m-26.755-9.244h26.755m-26.755-9.246h26.755m-26.755-9.246h26.755m-5.263-19.71H323.53v67.159m1.022,0H274.66V223.578h16.321" transform="translate(-273.538 -218.529)" fill="none" stroke="#823695" stroke-miterlimit="10" stroke-width="3"/>
    </g>
  </g>
</svg>
