<svg xmlns="http://www.w3.org/2000/svg" width="45.638" height="76" viewBox="0 0 45.638 76">
  <g id="Group_1471" data-name="Group 1471" transform="translate(-668.942 -444.08)">
    <path id="Path_2677" data-name="Path 2677" d="M705.764,519.58H677.758a.945.945,0,0,1-.94-.85l-7.37-73.11a.945.945,0,0,1,.94-1.04h42.746a.945.945,0,0,1,.94,1.04l-7.37,73.11A.945.945,0,0,1,705.764,519.58Zm-27.151-1.89h26.3l7.179-71.219H671.434Z" transform="translate(0 0)" fill="#823695" stroke="#823695" stroke-width="1"/>
    <path id="Path_2678" data-name="Path 2678" d="M800.112,1436.891H770.945a.945.945,0,1,1,0-1.891h29.167a.945.945,0,1,1,0,1.891Z" transform="translate(-93.767 -923.55)" fill="#823695" stroke="#823695" stroke-width="1"/>
    <path id="Path_2679" data-name="Path 2679" d="M716.241,731.218a20.246,20.246,0,0,1-5.007-.577c-6.637-1.687-10.474.075-10.512.093a.945.945,0,0,1-.822-1.7c.178-.086,4.438-2.094,11.8-.223,3.684.936,7.46.427,11.112-.066a28.15,28.15,0,0,1,8.159-.348c5.943,1,7.719.448,7.736.442l-.029.011.7,1.755c-.33.133-2.3.739-8.725-.343a26.917,26.917,0,0,0-7.592.357A50.941,50.941,0,0,1,716.241,731.218Z" transform="translate(-27.902 -264.297)" fill="#823695" stroke="#823695" stroke-width="1"/>
  </g>
</svg>
