<svg xmlns="http://www.w3.org/2000/svg" width="60.791" height="83.481" viewBox="0 0 60.791 83.481">
  <g id="Group_1016" data-name="Group 1016" transform="translate(1.242 1.5)">
    <path id="Path_2515" data-name="Path 2515" d="M356.356,594.973h0a5.83,5.83,0,0,1-3.208-3.184l-.05-.121a2,2,0,0,1,.425-2.173l2.4-2.429a3.5,3.5,0,0,1,4.974,0,3.578,3.578,0,0,1,0,5.024l-2.421,2.444A1.951,1.951,0,0,1,356.356,594.973Zm0-9.14h0a5.835,5.835,0,0,1-3.208-3.187l-.05-.121a2,2,0,0,1,.425-2.173l2.4-2.429a3.5,3.5,0,0,1,4.974,0v0a3.575,3.575,0,0,1,0,5.021l-2.421,2.445A1.957,1.957,0,0,1,356.356,585.833Zm0-9.143h0a5.835,5.835,0,0,1-3.208-3.187l-.05-.121a2,2,0,0,1,.425-2.172l2.4-2.428a3.49,3.49,0,0,1,4.974,0,3.575,3.575,0,0,1,0,5.021l-2.421,2.445A1.954,1.954,0,0,1,356.356,576.69Zm0-9.752h0a5.835,5.835,0,0,1-3.208-3.187l-.05-.121a2,2,0,0,1,.425-2.17l2.4-2.429a3.493,3.493,0,0,1,4.974,0,3.575,3.575,0,0,1,0,5.021l-2.421,2.446A1.954,1.954,0,0,1,356.356,566.939Zm-9.923-21.427-1.221,4.236a3.28,3.28,0,0,1-3.145,2.386H329.827a3.281,3.281,0,0,1-3.147-2.386l-1.222-4.236m6.555,56.928h7.864m15.075-47.065v-3.244a6.586,6.586,0,0,0-6.555-6.619h-24.9a6.588,6.588,0,0,0-6.555,6.619v21.044m11.791,35.885H348.4a6.586,6.586,0,0,0,6.555-6.619v-4.449m-29.83,12.089a23.752,23.752,0,0,0-9.143-19.346l3.151-6.707a5.716,5.716,0,0,0-2.892-7.682,1.906,1.906,0,0,0-2.5,1.014l-5.8,13.621a20.609,20.609,0,0,0,.584,17.393l-4.647,6.858m40.2-6.467a44.22,44.22,0,0,1-5.627,6.3,24.5,24.5,0,0,1-7.437,4.478l-3.748,1.426-3.847,5.677" transform="translate(-303.879 -545.512)" fill="none" stroke="#823695" stroke-miterlimit="10" stroke-width="3"/>
  </g>
</svg>
