<svg xmlns="http://www.w3.org/2000/svg" xmlns:xlink="http://www.w3.org/1999/xlink" width="112.5" height="132.83" viewBox="0 0 112.5 132.83">
  <defs>
    <clipPath id="clip-path">
      <path id="Path_2453" data-name="Path 2453" d="M0,88.681H112.5V-44.149H0Z" transform="translate(0 44.149)" fill="none"/>
    </clipPath>
  </defs>
  <g id="Group_907" data-name="Group 907" transform="translate(0 0)">
    <g id="Group_906" data-name="Group 906" transform="translate(0 0.001)" clip-path="url(#clip-path)">
      <g id="Group_905" data-name="Group 905" transform="translate(1.534 1.542)">
        <path id="Path_2452" data-name="Path 2452" d="M43.556,52.2c.752,3.6,1.206,5.792,3.066,8.063L76.937,72.309a10.914,10.914,0,0,1,6.005,6.6c1.552,4.715,3.665,13.133,4.8,26.26M42.524,2.027c-7.54,10.016-18.019,12.486-32.84,14.667h0c1.9,18.57,5.009,28.486,13.891,36.417a11.459,11.459,0,0,0,6.068,2.813s.2.03.5.081a16.434,16.434,0,0,0,2.891.265c.554,0,1-.021,1.444-.066s.891-.111,1.444-.2c.3-.051.5-.081.5-.081a11.457,11.457,0,0,0,6.071-2.813A33.762,33.762,0,0,0,51.944,39.2c2.118-5.644,3.379-12.558,4.339-21.53C52.335,15.71,48.978,7.9,47.091,2.6m8.873-8.024c17.676,19.9,5.647,40.407,6.189,58.729.09,3.168-4.492,3.752-8.924,4.113M10.03-5.347C-7.534,14.528,4.455,35,3.917,53.3c-.1,3.165,4.489,3.752,8.918,4.113m5.933,3.117L29.322,72.355a6.446,6.446,0,0,0,7.419-.527L46.956,60.4M22.507,52.2c-.752,3.6-1.206,5.792-3.066,8.063L-10.871,72.309a10.918,10.918,0,0,0-6.008,6.6c-1.549,4.715-3.662,13.133-4.8,26.26M13.328,3.465,7.906-11.025a5.758,5.758,0,0,1,1.228-6.011c5.313-5.422,14.1-8.951,23.847-8.951s18.536,3.529,23.847,8.951a5.759,5.759,0,0,1,1.231,6.011L52.636,3.465C37.217.844,27.682.712,13.328,3.465ZM32.981-18.074V-4.541m-6.387-6.767H39.368" transform="translate(21.684 25.987)" fill="none" stroke="#ff9e18" stroke-linejoin="round" stroke-width="3.5"/>
      </g>
    </g>
  </g>
</svg>
