<svg xmlns="http://www.w3.org/2000/svg" width="51.948" height="67.892" viewBox="0 0 51.948 67.892">
  <g id="Group_1601" data-name="Group 1601" transform="translate(-67.968 -60.751)">
    <path id="Path_2729" data-name="Path 2729" d="M118.582,67.8h-4.836V63.326c0-1.188-.887-2.575-3.387-2.575H77.51c-1.665,0-3.386.963-3.386,2.575V67.8H69.3a1.334,1.334,0,0,0-1.334,1.334v7.448A1.334,1.334,0,0,0,69.3,77.913h3.013v48.2c0,1.584,1.716,2.532,3.375,2.532h36.5c2.49,0,3.375-1.364,3.375-2.532v-48.2h3.015a1.334,1.334,0,0,0,1.334-1.334V69.131A1.334,1.334,0,0,0,118.582,67.8ZM112.9,114.38H88.144v2.667H112.9v8.847a2.606,2.606,0,0,1-.707.08H75.69a1.963,1.963,0,0,1-.706-.147V77.913H112.9Zm4.348-39.135H70.635v-4.78H95.391V67.8h-18.6V63.579a1.883,1.883,0,0,1,.718-.161h32.849a2.435,2.435,0,0,1,.72.087V67.8h-5.542v2.667h11.712Z" transform="translate(0 0)" fill="#823695"/>
    <path id="Path_2730" data-name="Path 2730" d="M81.937,95.774H84.6V88.848l9.1,9.1-5.579,5.58,1.885,1.885,5.58-5.579,5.579,5.579,1.887-1.885-5.58-5.58,5.58-5.58-1.887-1.887-5.58,5.58L87.94,88.411h.629c2.7,0,4.732-2.439,4.732-5.677,0-2.747-1.9-5.687-4.732-5.687H81.931v2.667h.006Zm8.7-13.04c0,1.687-.907,3.01-2.065,3.01H84.6V79.714h3.965C89.611,79.714,90.634,81.21,90.634,82.734Z" transform="translate(3.424 3.996)" fill="#823695"/>
  </g>
</svg>
