<svg xmlns="http://www.w3.org/2000/svg" width="134.874" height="134.874" viewBox="0 0 134.874 134.874">
  <g id="Group_1530" data-name="Group 1530" transform="translate(-528.501 -1514.501)">
    <g id="Group_909" data-name="Group 909" transform="translate(461.711 1312.34)" opacity="0.96">
      <g id="Group_908" data-name="Group 908">
        <g id="Group_915" data-name="Group 915">
          <g id="Group_905" data-name="Group 905">
            <path id="Path_2356" data-name="Path 2356" d="M134.226,335.535A65.937,65.937,0,1,0,68.29,269.6v.007a65.937,65.937,0,0,0,65.936,65.931" fill="none" stroke="#ff9e18" stroke-width="3"/>
          </g>
        </g>
      </g>
    </g>
    <g id="Group_1523" data-name="Group 1523" transform="translate(530 1516.001)">
      <g id="Group_1524" data-name="Group 1524">
        <path id="Path_2688" data-name="Path 2688" d="M83.588,50.786V48.647h.069a3.41,3.41,0,0,0,3.4-3.406V34.946a3.414,3.414,0,0,0-3.4-3.407H54.251a3.419,3.419,0,0,0-3.405,3.407v10.3a3.415,3.415,0,0,0,3.408,3.405h.068v2.139a7.481,7.481,0,0,0-6.081,7.369V99.831a4.415,4.415,0,0,0,4.406,4.406H85.265a4.416,4.416,0,0,0,4.4-4.407V58.155a7.48,7.48,0,0,0-6.08-7.369M57.534,48.652H80.381v2H57.534Zm-6.081,9.5a4.314,4.314,0,0,1,4.3-4.3H82.162a4.312,4.312,0,0,1,4.3,4.3v41.68a1.2,1.2,0,0,1-1.194,1.2H52.648a1.2,1.2,0,0,1-1.2-1.2Zm2.606-23.207a.2.2,0,0,1,.2-.2H83.66a.2.2,0,0,1,.195.2V45.241a.2.2,0,0,1-.195.2h-29.4a.2.2,0,0,1-.2-.2Z" transform="translate(-3.085 -2.017)" fill="#692489"/>
        <path id="Path_2689" data-name="Path 2689" d="M69.487,88.843a11.36,11.36,0,1,1,11.36-11.36,11.361,11.361,0,0,1-11.36,11.36Zm0-24.324A12.961,12.961,0,1,0,82.449,77.48,12.963,12.963,0,0,0,69.487,64.519" transform="translate(-3.615 -4.126)" fill="#662784"/>
        <path id="Path_2690" data-name="Path 2690" d="M74.559,79.654a5.134,5.134,0,0,1-.287,1.751,3.769,3.769,0,0,1-2.263,2.307,5.91,5.91,0,0,1-3.906,0A3.755,3.755,0,0,1,65.837,81.4a5.133,5.133,0,0,1-.286-1.751V73.091h2.354v6.474a2.566,2.566,0,0,0,.156.919,2.237,2.237,0,0,0,.445.732,2,2,0,0,0,.689.482,2.116,2.116,0,0,0,.866.175,2.079,2.079,0,0,0,.858-.175,2,2,0,0,0,.676-.482,2.165,2.165,0,0,0,.446-.732,2.63,2.63,0,0,0,.157-.919V73.091h2.352Z" transform="translate(-4.192 -4.674)" fill="#662784"/>
        <path id="Path_2691" data-name="Path 2691" d="M74.559,79.654a5.134,5.134,0,0,1-.287,1.751,3.769,3.769,0,0,1-2.263,2.307,5.91,5.91,0,0,1-3.906,0A3.755,3.755,0,0,1,65.837,81.4a5.133,5.133,0,0,1-.286-1.751V73.091h2.354v6.474a2.566,2.566,0,0,0,.156.919,2.237,2.237,0,0,0,.445.732,2,2,0,0,0,.689.482,2.116,2.116,0,0,0,.866.175,2.079,2.079,0,0,0,.858-.175,2,2,0,0,0,.676-.482,2.165,2.165,0,0,0,.446-.732,2.63,2.63,0,0,0,.157-.919V73.091h2.352Z" transform="translate(-4.192 -4.674)" fill="none" stroke="#662784" stroke-width="0.902"/>
      </g>
    </g>
  </g>
</svg>
