<svg id="Component_4_1" data-name="Component 4 – 1" xmlns="http://www.w3.org/2000/svg" width="1176.386" height="176.774" viewBox="0 0 1176.386 176.774">
  <g id="Group_7" data-name="Group 7" transform="translate(0 63.208)">
    <path id="Path_533" data-name="Path 533" d="M416.569,329.3v63.713H401.1V329.3H375.526V315.633h66.56V329.3Z" transform="translate(-375.526 -314.443)" fill="#003476" fill-rule="evenodd"/>
    <path id="Path_534" data-name="Path 534" d="M444.8,395.081q-19.048,0-30.95-10.3-12.528-10.765-12.526-29.709,0-18.734,12.733-29.654a40.351,40.351,0,0,1,13.665-7.661,54.815,54.815,0,0,1,17.286-2.537,53.046,53.046,0,0,1,15.425,2.148,47.549,47.549,0,0,1,13.2,6.342v15.58q-14.962-10.352-28.622-10.353a37.441,37.441,0,0,0-11.956,1.76,23.8,23.8,0,0,0-8.825,5.124,21.809,21.809,0,0,0-5.462,8.206,30.584,30.584,0,0,0-1.861,11.047,31.194,31.194,0,0,0,1.838,11.076,21.585,21.585,0,0,0,5.407,8.232,23.588,23.588,0,0,0,8.825,5.124,37.766,37.766,0,0,0,12.033,1.76,46,46,0,0,0,8.229-.7,38.412,38.412,0,0,0,7.245-2.044v-15.58H437.034V349.17h38.3v37.215a54.737,54.737,0,0,1-30.537,8.7Z" transform="translate(-327.363 -315.218)" fill="#003476" fill-rule="evenodd"/>
  </g>
  <g id="Group_8" data-name="Group 8" transform="translate(172.168)">
    <path id="Path_535" data-name="Path 535" d="M487.462,417.085l-30.477-18.249.324-71.091,61.345-34.573,61.021,36.518-.363,71.112-61.345,34.573.18-35.584,30.65-17.274.183-35.529-30.489-18.244-30.65,17.274,6.818,34.9Z" transform="translate(-395.603 -293.172)" fill="#003476" fill-rule="evenodd"/>
    <path id="Path_536" data-name="Path 536" d="M480.86,365.941l-4-18.03,4.176-17.552,6.865,31.614Z" transform="translate(-358.493 -223.739)" fill="#002575" fill-rule="evenodd"/>
    <path id="Path_537" data-name="Path 537" d="M527.79,323.519l30.477,18.249-.324,71.09L496.6,447.432l-61.023-36.518.364-71.113,61.344-34.571-.181,35.583-30.649,17.272-.183,35.532L496.76,411.86l30.649-17.274C527.509,370.792,527.673,347.285,527.79,323.519Z" transform="translate(-435.576 -270.658)" fill="#a4c422" fill-rule="evenodd"/>
    <path id="Path_538" data-name="Path 538" d="M461.683,305.23l-.177,35.581L454.642,309.2Z" transform="translate(-399.978 -270.657)" fill="#7eaf00" fill-rule="evenodd"/>
  </g>
  <g id="Group_9" data-name="Group 9" transform="translate(387.47 65.772)">
    <path id="Path_539" data-name="Path 539" d="M510.67,391.979V316.85h31.848a21.384,21.384,0,0,1,9.579,2.167,24.771,24.771,0,0,1,7.566,5.717,26.955,26.955,0,0,1,4.972,8.039,24.23,24.23,0,0,1,1.8,9.049,26.07,26.07,0,0,1-1.694,9.261,25.664,25.664,0,0,1-4.762,7.988,23.39,23.39,0,0,1-7.406,5.608,21.444,21.444,0,0,1-9.524,2.116H525.272v25.185Zm14.6-37.989H542.2a8.365,8.365,0,0,0,6.72-3.28q2.7-3.277,2.7-8.888a14.564,14.564,0,0,0-.849-5.132,12.509,12.509,0,0,0-2.219-3.862,8.863,8.863,0,0,0-3.228-2.383,9.485,9.485,0,0,0-3.759-.791H525.272Z" transform="translate(-510.67 -314.734)" fill="#a4c422"/>
    <path id="Path_540" data-name="Path 540" d="M550.61,380.841a21,21,0,0,1-7.512-1.322,18.082,18.082,0,0,1-6.033-3.7,17.239,17.239,0,0,1-3.968-5.556,16.817,16.817,0,0,1-1.428-6.984,15.4,15.4,0,0,1,1.743-7.245,16.6,16.6,0,0,1,4.871-5.663,24.131,24.131,0,0,1,7.458-3.65,32.5,32.5,0,0,1,9.525-1.325,40.981,40.981,0,0,1,7.251.637,29.577,29.577,0,0,1,6.293,1.8v-3.174q0-5.5-3.122-8.467t-9.258-2.962a24.554,24.554,0,0,0-8.679,1.588,40.272,40.272,0,0,0-8.676,4.656l-4.338-9a40.948,40.948,0,0,1,23.069-7.09q11.956,0,18.57,5.875t6.615,16.982V363.49a4.98,4.98,0,0,0,.794,3.174,3.468,3.468,0,0,0,2.592,1.058v12.062a31.635,31.635,0,0,1-6.245.743,9.455,9.455,0,0,1-6.19-1.8,7.72,7.72,0,0,1-2.7-4.762l-.321-3.068a24.559,24.559,0,0,1-8.991,7.406A25.823,25.823,0,0,1,550.61,380.841Zm4.023-10.37a18.451,18.451,0,0,0,6.827-1.27,12.4,12.4,0,0,0,5.026-3.383,5.1,5.1,0,0,0,2.325-4.023v-6.351a35.006,35.006,0,0,0-5.5-1.534,29.944,29.944,0,0,0-5.714-.582,15.155,15.155,0,0,0-8.994,2.489,7.466,7.466,0,0,0-3.492,6.3,7.579,7.579,0,0,0,2.75,5.978A10,10,0,0,0,554.633,370.471Z" transform="translate(-471.461 -302.538)" fill="#a4c422"/>
    <path id="Path_541" data-name="Path 541" d="M589.949,388.022a63.326,63.326,0,0,1-6.981,2.537,29.37,29.37,0,0,1-8.679,1.27,20.142,20.142,0,0,1-5.554-.74,12.156,12.156,0,0,1-4.55-2.383,11.566,11.566,0,0,1-3.122-4.232,15.241,15.241,0,0,1-1.164-6.3V346.329h-7.3v-10.9h7.3V317.44h14.178v17.991h11.64v10.9h-11.64v27.088q0,2.967,1.534,4.18a5.846,5.846,0,0,0,3.759,1.219,13.01,13.01,0,0,0,4.338-.743q2.116-.736,3.386-1.267Z" transform="translate(-432.39 -313.632)" fill="#a4c422"/>
    <path id="Path_542" data-name="Path 542" d="M568.207,330.187V316.112h14.181v14.075Zm0,63.171V337.911h14.181v55.447Z" transform="translate(-403.243 -316.112)" fill="#a4c422"/>
    <path id="Path_543" data-name="Path 543" d="M605.607,380.841a30.817,30.817,0,0,1-12.062-2.274,27.208,27.208,0,0,1-15.081-15.293,29.235,29.235,0,0,1-2.064-10.9,30.844,30.844,0,0,1,2.013-11.162,27.162,27.162,0,0,1,5.82-9.206,27.811,27.811,0,0,1,9.258-6.3,30.834,30.834,0,0,1,12.223-2.328,30.082,30.082,0,0,1,12.116,2.328,27.943,27.943,0,0,1,9.1,6.245,26.537,26.537,0,0,1,5.714,9.1,30.335,30.335,0,0,1,1.958,10.795c0,.918-.02,1.8-.052,2.644a10.96,10.96,0,0,1-.267,2.119H591.429a16.349,16.349,0,0,0,1.585,5.817,14.233,14.233,0,0,0,7.83,7.09,14.92,14.92,0,0,0,5.292.952,16.352,16.352,0,0,0,7.991-2.064,10.9,10.9,0,0,0,5.129-5.448l12.171,3.386a24.736,24.736,0,0,1-9.788,10.422A30.357,30.357,0,0,1,605.607,380.841ZM620,347.405a14.754,14.754,0,0,0-4.6-10,14.453,14.453,0,0,0-19.631.052,14.678,14.678,0,0,0-3.122,4.338,15.349,15.349,0,0,0-1.428,5.611Z" transform="translate(-387.946 -302.538)" fill="#a4c422"/>
    <path id="Path_544" data-name="Path 544" d="M651.259,379.783H637.079V348.676q0-6.67-2.328-9.737a7.653,7.653,0,0,0-6.454-3.068,12.109,12.109,0,0,0-4.338.846,16.023,16.023,0,0,0-4.18,2.38,19.528,19.528,0,0,0-3.547,3.653,14.4,14.4,0,0,0-2.325,4.656v32.378H599.726V324.337h12.8V334.6a21.01,21.01,0,0,1,8.891-8.254,28.539,28.539,0,0,1,13.12-2.965A16.7,16.7,0,0,1,643,325.289a13.778,13.778,0,0,1,5.081,4.972,20.891,20.891,0,0,1,2.486,6.984,45.8,45.8,0,0,1,.688,7.936Z" transform="translate(-344.394 -302.538)" fill="#a4c422"/>
    <path id="Path_545" data-name="Path 545" d="M657.747,388.022a63.189,63.189,0,0,1-6.984,2.537,29.352,29.352,0,0,1-8.676,1.27,20.137,20.137,0,0,1-5.554-.74,12.158,12.158,0,0,1-4.55-2.383,11.569,11.569,0,0,1-3.122-4.232,15.243,15.243,0,0,1-1.167-6.3V346.329h-7.3v-10.9h7.3V317.44h14.181v17.991h11.641v10.9H641.874v27.088q0,2.967,1.534,4.18a5.84,5.84,0,0,0,3.759,1.219,13.01,13.01,0,0,0,4.338-.743c1.408-.49,2.54-.915,3.386-1.267Z" transform="translate(-305.805 -313.632)" fill="#a4c422"/>
    <path id="Path_546" data-name="Path 546" d="M684.831,336.876a18.352,18.352,0,0,0-2.7-2.013,33.016,33.016,0,0,0-4.762-2.486,41.448,41.448,0,0,0-6.084-2.064,26.708,26.708,0,0,0-6.666-.846q-6.029,0-9,2.222a7.36,7.36,0,0,0-2.962,6.242,6.4,6.4,0,0,0,1.113,3.865,9.542,9.542,0,0,0,3.228,2.7,26.873,26.873,0,0,0,5.341,2.116q3.226.955,7.463,2.013,5.5,1.479,10,3.171a27.143,27.143,0,0,1,7.618,4.235,17.511,17.511,0,0,1,4.817,6.084,20.213,20.213,0,0,1,1.692,8.73,21.791,21.791,0,0,1-2.274,10.319,19.176,19.176,0,0,1-6.139,6.93,26.629,26.629,0,0,1-8.891,3.862,44.73,44.73,0,0,1-10.525,1.219,56.607,56.607,0,0,1-16.721-2.54,51.671,51.671,0,0,1-14.817-7.2l6.457-12.592a20.449,20.449,0,0,0,3.441,2.486,52.274,52.274,0,0,0,5.872,3.071,45.945,45.945,0,0,0,7.515,2.592,33.952,33.952,0,0,0,8.464,1.058q12.063,0,12.065-7.724A6.338,6.338,0,0,0,677,368.2a11.676,11.676,0,0,0-3.917-2.962,37.546,37.546,0,0,0-6.138-2.328q-3.6-1.058-8.039-2.328a68.209,68.209,0,0,1-9.367-3.228,24.553,24.553,0,0,1-6.612-4.126,15.419,15.419,0,0,1-3.968-5.5,19.033,19.033,0,0,1-1.325-7.46,23.352,23.352,0,0,1,2.116-10.158,20.51,20.51,0,0,1,5.875-7.409,26.637,26.637,0,0,1,8.73-4.5,36.031,36.031,0,0,1,10.686-1.534,41.477,41.477,0,0,1,14.6,2.486,54.475,54.475,0,0,1,11.643,5.872Z" transform="translate(-279.346 -315.078)" fill="#003476"/>
    <path id="Path_547" data-name="Path 547" d="M675.9,380.22q-8.571,0-13.014-5.5t-4.447-16.3V323.715h14.184v31.638q0,12.807,9.206,12.8a14.577,14.577,0,0,0,7.988-2.486,17.864,17.864,0,0,0,6.3-7.569V323.715H710.3v39.153a4.979,4.979,0,0,0,.8,3.174,3.468,3.468,0,0,0,2.592,1.058v12.062a29.782,29.782,0,0,1-3.547.528c-.952.072-1.818.106-2.592.106a10.213,10.213,0,0,1-6.19-1.746,6.85,6.85,0,0,1-2.8-4.814l-.318-4.441a23.658,23.658,0,0,1-9.525,8.57A28.669,28.669,0,0,1,675.9,380.22Z" transform="translate(-234.762 -301.916)" fill="#003476"/>
    <path id="Path_548" data-name="Path 548" d="M714.663,380.841a21.827,21.827,0,0,1-11.425-2.91,20.69,20.69,0,0,1-7.618-7.882v32.272H681.439V324.337h12.38v9.522a22.7,22.7,0,0,1,7.936-7.672,22.092,22.092,0,0,1,11.219-2.8,23.759,23.759,0,0,1,10.37,2.277,25.841,25.841,0,0,1,8.2,6.136,28.68,28.68,0,0,1,5.4,9.1,31.335,31.335,0,0,1,1.958,11.058,34.948,34.948,0,0,1-1.8,11.319,28.971,28.971,0,0,1-5.029,9.209,23.43,23.43,0,0,1-7.673,6.136A21.445,21.445,0,0,1,714.663,380.841ZM709.9,368.78a12.722,12.722,0,0,0,5.872-1.376,14.17,14.17,0,0,0,4.6-3.7,17.407,17.407,0,0,0,2.965-5.4,19.413,19.413,0,0,0,1.055-6.348,17.954,17.954,0,0,0-1.161-6.508,16.25,16.25,0,0,0-3.228-5.238,15.02,15.02,0,0,0-4.868-3.492,14.6,14.6,0,0,0-6.087-1.27,13.29,13.29,0,0,0-4.123.688,14.447,14.447,0,0,0-3.916,1.958,17.2,17.2,0,0,0-3.229,2.962,12.336,12.336,0,0,0-2.167,3.7v13.014a18.827,18.827,0,0,0,5.817,7.885A13.313,13.313,0,0,0,709.9,368.78Z" transform="translate(-191.828 -302.538)" fill="#003476"/>
    <path id="Path_549" data-name="Path 549" d="M738.064,380.841a21.831,21.831,0,0,1-11.428-2.91,20.733,20.733,0,0,1-7.618-7.882v32.272H704.837V324.337h12.38v9.522a22.686,22.686,0,0,1,7.939-7.672,22.082,22.082,0,0,1,11.216-2.8,23.742,23.742,0,0,1,10.37,2.277,25.821,25.821,0,0,1,8.2,6.136,28.728,28.728,0,0,1,5.393,9.1,31.335,31.335,0,0,1,1.958,11.058,34.938,34.938,0,0,1-1.8,11.319,28.967,28.967,0,0,1-5.029,9.209,23.394,23.394,0,0,1-7.672,6.136A21.442,21.442,0,0,1,738.064,380.841ZM733.3,368.78a12.731,12.731,0,0,0,5.872-1.376,14.16,14.16,0,0,0,4.6-3.7,17.4,17.4,0,0,0,2.965-5.4,19.41,19.41,0,0,0,1.055-6.348,17.9,17.9,0,0,0-1.161-6.508,16.147,16.147,0,0,0-3.228-5.238,15.008,15.008,0,0,0-4.866-3.492,14.614,14.614,0,0,0-6.087-1.27,13.308,13.308,0,0,0-4.126.688,14.449,14.449,0,0,0-3.916,1.958,17.189,17.189,0,0,0-3.228,2.962,12.329,12.329,0,0,0-2.167,3.7v13.014a18.828,18.828,0,0,0,5.82,7.885A13.306,13.306,0,0,0,733.3,368.78Z" transform="translate(-148.141 -302.538)" fill="#003476"/>
    <path id="Path_550" data-name="Path 550" d="M756.116,380.841a30.454,30.454,0,0,1-12.168-2.328,27.314,27.314,0,0,1-9.152-6.293,27.8,27.8,0,0,1-5.769-9.155,30.847,30.847,0,0,1,0-21.9,27.788,27.788,0,0,1,5.769-9.152,27.328,27.328,0,0,1,9.152-6.3,30.455,30.455,0,0,1,12.168-2.328,30.105,30.105,0,0,1,12.119,2.328,27.507,27.507,0,0,1,9.1,6.3,27.829,27.829,0,0,1,5.768,9.152,30.844,30.844,0,0,1,0,21.9,28.323,28.323,0,0,1-5.714,9.155,26.757,26.757,0,0,1-9.1,6.293A30.467,30.467,0,0,1,756.116,380.841Zm-14.5-28.677a19.269,19.269,0,0,0,1.112,6.72,16.375,16.375,0,0,0,3.068,5.238,13.7,13.7,0,0,0,4.6,3.44,14.031,14.031,0,0,0,11.425,0,13.75,13.75,0,0,0,4.6-3.44,16.315,16.315,0,0,0,3.068-5.29,19.736,19.736,0,0,0,1.112-6.775,19.41,19.41,0,0,0-1.112-6.666,16.284,16.284,0,0,0-3.068-5.29,13.712,13.712,0,0,0-4.6-3.44,13.542,13.542,0,0,0-5.714-1.216,13.016,13.016,0,0,0-5.711,1.27,14.281,14.281,0,0,0-4.6,3.492,16.261,16.261,0,0,0-3.068,5.29A19.406,19.406,0,0,0,741.62,352.165Z" transform="translate(-106.727 -302.538)" fill="#003476"/>
    <path id="Path_551" data-name="Path 551" d="M783.616,336.471a28.014,28.014,0,0,0-11.534,2.486,14.563,14.563,0,0,0-7.3,7.142v33.545H750.6V324.2h13.017v11.85a25.376,25.376,0,0,1,3.489-5.132,26.848,26.848,0,0,1,4.341-3.968,20.188,20.188,0,0,1,4.708-2.592,13,13,0,0,1,4.6-.9h1.749a5.8,5.8,0,0,1,1.109.1Z" transform="translate(-62.694 -302.398)" fill="#003476"/>
    <path id="Path_552" data-name="Path 552" d="M800.8,388.022a63.186,63.186,0,0,1-6.984,2.537,29.366,29.366,0,0,1-8.676,1.27,20.16,20.16,0,0,1-5.557-.74,12.176,12.176,0,0,1-4.55-2.383,11.6,11.6,0,0,1-3.122-4.232,15.289,15.289,0,0,1-1.164-6.3V346.329h-7.3v-10.9h7.3V317.44h14.181v17.991h11.64v10.9h-11.64v27.088q0,2.967,1.534,4.18a5.837,5.837,0,0,0,3.756,1.219,13.012,13.012,0,0,0,4.341-.743c1.408-.49,2.54-.915,3.386-1.267Z" transform="translate(-38.714 -313.632)" fill="#003476"/>
  </g>
  <g id="Group_10" data-name="Group 10" transform="translate(1146.522 69.075)">
    <path id="Path_553" data-name="Path 553" d="M779.682,319.535h-4.266v-2.271h11.216v2.271h-4.266v11.9h-2.684Zm9.665-2.271h4.1l3.819,10.872h.1l3.819-10.872h4.094v14.175H802.6V319.6h-.069L798.4,331.439h-2.167L792.1,319.6h-.066v11.835h-2.686Z" transform="translate(-775.416 -317.264)" fill="#003476"/>
  </g>
</svg>
