<svg xmlns="http://www.w3.org/2000/svg" width="49.312" height="86.536" viewBox="0 0 49.312 86.536">
  <g id="Group_1776" data-name="Group 1776" transform="translate(-163 -2128.683)">
    <g id="Group_1378" data-name="Group 1378" transform="translate(784.883 2106.742)">
      <path id="Path_2654" data-name="Path 2654" d="M-579.809,44.852V42.3h.084a4.057,4.057,0,0,0,4.051-4.054V26a4.06,4.06,0,0,0-4.051-4.054h-35A4.067,4.067,0,0,0-618.782,26V38.252a4.067,4.067,0,0,0,4.055,4.053h.082v2.547a8.907,8.907,0,0,0-7.238,8.773v49.608a5.257,5.257,0,0,0,5.245,5.244h38.827a5.255,5.255,0,0,0,5.24-5.244V53.623a8.9,8.9,0,0,0-7.237-8.771m-31.014-2.542h27.2v2.383h-27.2Zm-7.239,11.315a5.133,5.133,0,0,1,5.116-5.118h31.44a5.134,5.134,0,0,1,5.118,5.118v49.614a1.423,1.423,0,0,1-1.423,1.423h-38.827a1.427,1.427,0,0,1-1.423-1.423ZM-614.96,26a.236.236,0,0,1,.233-.236h35a.234.234,0,0,1,.233.233V38.251a.236.236,0,0,1-.233.235h-35a.238.238,0,0,1-.235-.235Z" fill="#863399"/>
      <path id="Path_2655" data-name="Path 2655" d="M-595.636,93.959a13.523,13.523,0,0,1-13.522-13.524,13.523,13.523,0,0,1,13.524-13.522,13.522,13.522,0,0,1,13.522,13.523A13.524,13.524,0,0,1-595.636,93.959Zm0-28.956a15.427,15.427,0,0,0-15.424,15.431,15.427,15.427,0,0,0,15.43,15.425,15.428,15.428,0,0,0,15.425-15.425A15.43,15.43,0,0,0-595.636,65h0" transform="translate(-1.587 -6.314)" fill="#863399" stroke="#863399" stroke-width="1"/>
      <path id="Path_2656" data-name="Path 2656" d="M-588.559,84.008a6.115,6.115,0,0,1-.342,2.083,4.5,4.5,0,0,1-2.692,2.749,7.042,7.042,0,0,1-4.65,0,4.662,4.662,0,0,1-1.683-1.095,4.61,4.61,0,0,1-1.013-1.654,6.09,6.09,0,0,1-.341-2.083V76.2h2.8V83.9A3.051,3.051,0,0,0-596.293,85a2.611,2.611,0,0,0,.529.867,2.364,2.364,0,0,0,.819.574,2.51,2.51,0,0,0,1.032.208,2.46,2.46,0,0,0,1.022-.208,2.394,2.394,0,0,0,.8-.574,2.542,2.542,0,0,0,.529-.867,3.149,3.149,0,0,0,.189-1.095V76.2h2.8Z" transform="translate(-3.314 -7.956)" fill="#863399" stroke="#863399" stroke-width="1"/>
      <path id="Path_2657" data-name="Path 2657" d="M-588.559,84.008a6.115,6.115,0,0,1-.342,2.083,4.5,4.5,0,0,1-2.692,2.749,7.042,7.042,0,0,1-4.65,0,4.662,4.662,0,0,1-1.683-1.095,4.61,4.61,0,0,1-1.013-1.654,6.09,6.09,0,0,1-.341-2.083V76.2h2.8V83.9A3.051,3.051,0,0,0-596.293,85a2.611,2.611,0,0,0,.529.867,2.364,2.364,0,0,0,.819.574,2.51,2.51,0,0,0,1.032.208,2.46,2.46,0,0,0,1.022-.208,2.394,2.394,0,0,0,.8-.574,2.542,2.542,0,0,0,.529-.867,3.149,3.149,0,0,0,.189-1.095V76.2h2.8Z" transform="translate(-3.314 -7.956)" fill="#863399" stroke="#863399" stroke-width="1"/>
    </g>
  </g>
</svg>
