<svg id="Group_1632" data-name="Group 1632" xmlns="http://www.w3.org/2000/svg" width="82.761" height="82.538" viewBox="0 0 82.761 82.538">
  <rect id="Rectangle_735" data-name="Rectangle 735" width="79.184" height="2.048" transform="translate(1.791 22.923)" fill="#662784"/>
  <g id="Group_1631" data-name="Group 1631">
    <g id="Group_1633" data-name="Group 1633">
      <rect id="Rectangle_736" data-name="Rectangle 736" width="79.184" height="2.048" transform="translate(1.791 22.923)" fill="none" stroke="#863399" stroke-width="2"/>
      <path id="Path_2744" data-name="Path 2744" d="M80.738,6.245H59.749V8.293H79.714v71.2H3.048V8.293H23.014V6.245H2.024A1.024,1.024,0,0,0,1,7.269V80.514a1.025,1.025,0,0,0,1.024,1.024H80.738a1.024,1.024,0,0,0,1.023-1.024V7.269a1.023,1.023,0,0,0-1.023-1.024" fill="#863399"/>
      <path id="Path_2745" data-name="Path 2745" d="M80.738,6.245H59.749V8.293H79.714v71.2H3.048V8.293H23.014V6.245H2.024A1.024,1.024,0,0,0,1,7.269V80.514a1.025,1.025,0,0,0,1.024,1.024H80.738a1.024,1.024,0,0,0,1.023-1.024V7.269A1.023,1.023,0,0,0,80.738,6.245Z" fill="none" stroke="#863399" stroke-width="2"/>
      <rect id="Rectangle_737" data-name="Rectangle 737" width="25.399" height="2.048" transform="translate(28.683 6.245)" fill="#662784"/>
      <rect id="Rectangle_738" data-name="Rectangle 738" width="25.399" height="2.048" transform="translate(28.683 6.245)" fill="none" stroke="#863399" stroke-width="2"/>
      <path id="Path_2746" data-name="Path 2746" d="M24.038,13.478h3.618a1.024,1.024,0,0,0,1.025-1.024V8.29H26.633v3.14H25.062V8.29H23.015v4.164a1.023,1.023,0,0,0,1.023,1.024" fill="#863399"/>
      <path id="Path_2747" data-name="Path 2747" d="M25.062,2.048h1.57v4.2H28.68V1.024A1.025,1.025,0,0,0,27.656,0H24.038a1.024,1.024,0,0,0-1.024,1.024V6.245h2.048Z" fill="#863399"/>
      <rect id="Rectangle_739" data-name="Rectangle 739" width="2.048" height="2.048" transform="translate(23.016 6.245)" fill="#863399"/>
      <rect id="Rectangle_740" data-name="Rectangle 740" width="2.048" height="2.048" transform="translate(26.635 6.245)" fill="#863399"/>
      <path id="Path_2748" data-name="Path 2748" d="M57.7,11.43h-1.57V8.29H54.083v4.164a1.025,1.025,0,0,0,1.024,1.024h3.617a1.024,1.024,0,0,0,1.025-1.024V8.29H57.7Z" fill="#863399"/>
      <path id="Path_2749" data-name="Path 2749" d="M56.13,2.048H57.7v4.2h2.048V1.024A1.025,1.025,0,0,0,58.724,0H55.106a1.024,1.024,0,0,0-1.024,1.024V6.245H56.13Z" fill="#863399"/>
      <rect id="Rectangle_741" data-name="Rectangle 741" width="2.048" height="2.048" transform="translate(57.702 6.245)" fill="#863399"/>
      <rect id="Rectangle_742" data-name="Rectangle 742" width="2.048" height="2.048" transform="translate(54.082 6.245)" fill="#863399"/>
      <path id="Path_2750" data-name="Path 2750" d="M51.493,37.311H40.976l-.111,5.2a5.359,5.359,0,0,1,1.309-.259c.531-.051,1.024-.075,1.5-.075a9.874,9.874,0,0,1,3.524.609,7.688,7.688,0,0,1,2.75,1.754,8.181,8.181,0,0,1,1.789,2.73,10.255,10.255,0,0,1-.075,7.361,8.089,8.089,0,0,1-1.992,2.844,8.936,8.936,0,0,1-3.008,1.79,10.894,10.894,0,0,1-3.727.624A9.335,9.335,0,0,1,37.6,58.42a8,8,0,0,1-3.118-4.5l4.651-1.255a4.326,4.326,0,0,0,1.513,2.213,4.439,4.439,0,0,0,2.767.814,4.868,4.868,0,0,0,1.826-.333A4.224,4.224,0,0,0,47.618,53a4.606,4.606,0,0,0,.333-1.774,5.012,5.012,0,0,0-.5-2.322,4.411,4.411,0,0,0-1.347-1.569,5.727,5.727,0,0,0-1.957-.888,9.6,9.6,0,0,0-2.32-.273,12.461,12.461,0,0,0-2.86.333,11.859,11.859,0,0,0-2.6.922l.258-14.095H51.5Z" fill="#863399"/>
      <path id="Path_2751" data-name="Path 2751" d="M26.462,63.707h1.57l1.548,4.062,1.565-4.062H32.7v5.8h-.982V64.692H31.7l-1.761,4.817H29.22l-1.761-4.817h-.017v4.817h-.98Z" fill="#863399"/>
      <path id="Path_2752" data-name="Path 2752" d="M33.709,66.631a3.36,3.36,0,0,1,.229-1.266,2.839,2.839,0,0,1,.635-.97,2.8,2.8,0,0,1,.967-.619,3.389,3.389,0,0,1,1.232-.216,3.437,3.437,0,0,1,1.247.2,2.725,2.725,0,0,1,.973.61,2.861,2.861,0,0,1,.64.966,3.345,3.345,0,0,1,.229,1.263,3.247,3.247,0,0,1-.229,1.236,2.825,2.825,0,0,1-.64.956,2.912,2.912,0,0,1-.973.626,3.432,3.432,0,0,1-1.247.234,3.369,3.369,0,0,1-1.232-.217,2.766,2.766,0,0,1-1.6-1.57,3.232,3.232,0,0,1-.229-1.233m1.081-.068a2.494,2.494,0,0,0,.144.86,2,2,0,0,0,.405.682,1.881,1.881,0,0,0,.627.451,1.954,1.954,0,0,0,.815.163,1.988,1.988,0,0,0,.819-.163,1.863,1.863,0,0,0,.631-.451,2.02,2.02,0,0,0,.406-.682,2.492,2.492,0,0,0,.142-.86,2.265,2.265,0,0,0-.142-.811,2.044,2.044,0,0,0-.406-.66,1.889,1.889,0,0,0-.631-.443,2.075,2.075,0,0,0-.819-.159,2.035,2.035,0,0,0-.815.159,1.883,1.883,0,0,0-.627.443,2.025,2.025,0,0,0-.405.66,2.238,2.238,0,0,0-.144.813Z" fill="#863399"/>
      <path id="Path_2753" data-name="Path 2753" d="M40.845,63.707H42.21l2.809,4.309h.016V63.707h1.033v5.8H44.756l-2.867-4.448h-.016v4.448H40.845Z" fill="#863399"/>
      <path id="Path_2754" data-name="Path 2754" d="M48.552,64.641H46.778v-.934h4.587v.934H49.59v4.866H48.558Z" fill="#863399"/>
      <path id="Path_2755" data-name="Path 2755" d="M52.066,63.707H53.1v2.31h2.711v-2.31h1.032v5.8H55.809V66.954H53.1v2.555H52.066Z" fill="#863399"/>
      <path id="Path_2756" data-name="Path 2756" d="M29.8,46.609V45.082a6.449,6.449,0,0,1-2.73-.692l.481-1.88a5.663,5.663,0,0,0,2.668.707c.916,0,1.543-.353,1.543-1,0-.614-.515-1-1.7-1.4-1.721-.578-2.894-1.381-2.894-2.941a2.969,2.969,0,0,1,2.717-2.861V33.494h1.574v1.414a5.791,5.791,0,0,1,2.331.531l-.466,1.816a5.32,5.32,0,0,0-2.314-.546c-1.045,0-1.383.45-1.383.9,0,.531.563.868,1.929,1.382,1.912.675,2.684,1.559,2.684,3a3.078,3.078,0,0,1-2.861,2.974v1.639Z" fill="#863399"/>
    </g>
  </g>
</svg>
