<svg xmlns="http://www.w3.org/2000/svg" xmlns:xlink="http://www.w3.org/1999/xlink" width="1435" height="992" viewBox="0 0 1435 992">
  <defs>
    <filter id="Path_3005" x="130" y="819.11" width="288" height="89" filterUnits="userSpaceOnUse">
      <feOffset dy="10" input="SourceAlpha"/>
      <feGaussianBlur stdDeviation="5" result="blur"/>
      <feFlood flood-opacity="0.161"/>
      <feComposite operator="in" in2="blur"/>
      <feComposite in="SourceGraphic"/>
    </filter>
    <filter id="Path_3006" x="426" y="819" width="288" height="89" filterUnits="userSpaceOnUse">
      <feOffset dy="10" input="SourceAlpha"/>
      <feGaussianBlur stdDeviation="5" result="blur-2"/>
      <feFlood flood-opacity="0.161"/>
      <feComposite operator="in" in2="blur-2"/>
      <feComposite in="SourceGraphic"/>
    </filter>
    <filter id="Path_3007" x="722" y="819" width="288" height="89" filterUnits="userSpaceOnUse">
      <feOffset dy="10" input="SourceAlpha"/>
      <feGaussianBlur stdDeviation="5" result="blur-3"/>
      <feFlood flood-opacity="0.161"/>
      <feComposite operator="in" in2="blur-3"/>
      <feComposite in="SourceGraphic"/>
    </filter>
    <filter id="Path_3008" x="1018" y="819" width="288" height="89" filterUnits="userSpaceOnUse">
      <feOffset dy="10" input="SourceAlpha"/>
      <feGaussianBlur stdDeviation="5" result="blur-4"/>
      <feFlood flood-opacity="0.161"/>
      <feComposite operator="in" in2="blur-4"/>
      <feComposite in="SourceGraphic"/>
    </filter>
  </defs>
  <g id="Group_1790" data-name="Group 1790" transform="translate(-234 -3899)">
    <path id="Path_2999" data-name="Path 2999" d="M0,0H1435V992H0Z" transform="translate(234 3899)" fill="#f5f5f6"/>
    <path id="Path_3004" data-name="Path 3004" d="M0,0H91V656H0Z" transform="translate(1578 3933)" fill="#f5f5f6"/>
    <path id="Path_3001" data-name="Path 3001" d="M38.213,30V9.75h2.775V30Zm6.05,0V9.75h1.925l5.75,13.45V9.75h2.35V30h-1.8L46.663,16.175V30Zm18.275.225a5.425,5.425,0,0,1-3.338-.9A4.641,4.641,0,0,1,57.55,26.9a11.69,11.69,0,0,1-.462-3.4V16.35a12.367,12.367,0,0,1,.462-3.575,4.323,4.323,0,0,1,1.65-2.362,5.727,5.727,0,0,1,3.338-.838,5.616,5.616,0,0,1,3.012.7,3.908,3.908,0,0,1,1.6,2,8.918,8.918,0,0,1,.487,3.125V17H64.963V15.575a15.535,15.535,0,0,0-.112-1.988,2.162,2.162,0,0,0-.613-1.337,2.4,2.4,0,0,0-1.675-.475,2.509,2.509,0,0,0-1.75.512,2.5,2.5,0,0,0-.712,1.45,12.953,12.953,0,0,0-.163,2.188V23.95a9.249,9.249,0,0,0,.25,2.412,2.114,2.114,0,0,0,.825,1.263,2.807,2.807,0,0,0,1.55.375,2.236,2.236,0,0,0,1.65-.513,2.44,2.44,0,0,0,.625-1.412,15.46,15.46,0,0,0,.125-2.1v-1.5h2.675v1.5a10.757,10.757,0,0,1-.45,3.262,4.172,4.172,0,0,1-1.55,2.2A5.261,5.261,0,0,1,62.538,30.225ZM70.488,30V9.75h2.775V30Zm6.05,0V9.75h4.4a7.737,7.737,0,0,1,3.563.688A3.945,3.945,0,0,1,86.375,12.5a9.087,9.087,0,0,1,.563,3.425v7.45A10.224,10.224,0,0,1,86.375,27a4.321,4.321,0,0,1-1.825,2.237A6.517,6.517,0,0,1,81.163,30Zm2.825-2.025h1.6a3.217,3.217,0,0,0,2.2-.6,2.729,2.729,0,0,0,.788-1.75,23.848,23.848,0,0,0,.137-2.775V16.275a13.141,13.141,0,0,0-.2-2.55,2.136,2.136,0,0,0-.875-1.425,3.913,3.913,0,0,0-2.125-.45H79.363ZM89.713,30V9.75h7.85v2.1H92.538v6.7h4.075v2H92.538v7.425h5.075V30Zm10.175,0V9.75h1.925l5.75,13.45V9.75h2.35V30h-1.8l-5.825-13.825V30Zm18.275.225a5.425,5.425,0,0,1-3.338-.9,4.641,4.641,0,0,1-1.65-2.425,11.69,11.69,0,0,1-.463-3.4V16.35a12.367,12.367,0,0,1,.463-3.575,4.323,4.323,0,0,1,1.65-2.362,5.727,5.727,0,0,1,3.338-.838,5.616,5.616,0,0,1,3.012.7,3.908,3.908,0,0,1,1.6,2,8.918,8.918,0,0,1,.487,3.125V17h-2.675V15.575a15.535,15.535,0,0,0-.112-1.988,2.162,2.162,0,0,0-.613-1.337,2.4,2.4,0,0,0-1.675-.475,2.509,2.509,0,0,0-1.75.512,2.5,2.5,0,0,0-.713,1.45,12.953,12.953,0,0,0-.162,2.188V23.95a9.249,9.249,0,0,0,.25,2.412,2.114,2.114,0,0,0,.825,1.263,2.807,2.807,0,0,0,1.55.375,2.236,2.236,0,0,0,1.65-.513,2.44,2.44,0,0,0,.625-1.412,15.46,15.46,0,0,0,.125-2.1v-1.5h2.675v1.5a10.757,10.757,0,0,1-.45,3.262,4.172,4.172,0,0,1-1.55,2.2A5.261,5.261,0,0,1,118.163,30.225Zm7.8-.225V9.75h7.85v2.1h-5.025v6.7h4.075v2h-4.075v7.425h5.075V30Zm21.025,4.85a3.8,3.8,0,0,1-2.337-.737,4.766,4.766,0,0,1-1.437-1.962,11.842,11.842,0,0,1-.762-2.85,28.719,28.719,0,0,1-.288-3.425q-.05-1.825-.05-3.65,0-1.85.05-3.662a29.02,29.02,0,0,1,.288-3.425,11.843,11.843,0,0,1,.762-2.863A4.865,4.865,0,0,1,144.65,10.3a3.642,3.642,0,0,1,2.337-.725v1.8a1.527,1.527,0,0,0-1.35.988,8.119,8.119,0,0,0-.675,2.538,32.969,32.969,0,0,0-.238,3.488q-.038,1.912-.038,3.837,0,1.95.038,3.863a32.969,32.969,0,0,0,.238,3.488,7.969,7.969,0,0,0,.675,2.525,1.527,1.527,0,0,0,1.35.975ZM154.963,30l5.575-20.275h2.3L157.288,30Zm-2.4-9.5a3.455,3.455,0,0,1-3-1.275,5.715,5.715,0,0,1-.925-3.425V14.225a5.625,5.625,0,0,1,.9-3.425,3.54,3.54,0,0,1,3.025-1.2,3.616,3.616,0,0,1,3.025,1.15,5.35,5.35,0,0,1,.9,3.35v1.775a5.587,5.587,0,0,1-.913,3.4A3.511,3.511,0,0,1,152.563,20.5Zm0-2.025a1.2,1.2,0,0,0,.963-.362,2.012,2.012,0,0,0,.425-.962,6.914,6.914,0,0,0,.113-1.275V14.1a5.16,5.16,0,0,0-.262-1.75,1.16,1.16,0,0,0-1.238-.725,1.137,1.137,0,0,0-1.225.737,5.513,5.513,0,0,0-.25,1.762V15.9a6.713,6.713,0,0,0,.112,1.262,2,2,0,0,0,.425.95A1.17,1.17,0,0,0,152.563,18.475Zm12.625,11.65a3.435,3.435,0,0,1-2.988-1.263,5.762,5.762,0,0,1-.912-3.437V23.85a5.694,5.694,0,0,1,.887-3.413,3.487,3.487,0,0,1,3.012-1.213,3.591,3.591,0,0,1,3.038,1.163,5.462,5.462,0,0,1,.887,3.363V25.5a5.577,5.577,0,0,1-.912,3.413A3.528,3.528,0,0,1,165.188,30.125Zm0-2.025a1.243,1.243,0,0,0,.975-.363,1.866,1.866,0,0,0,.425-.962,7.6,7.6,0,0,0,.1-1.25v-1.8a5.16,5.16,0,0,0-.262-1.75,1.16,1.16,0,0,0-1.238-.725,1.137,1.137,0,0,0-1.225.737,5.513,5.513,0,0,0-.25,1.763v1.775a6.713,6.713,0,0,0,.113,1.263,2,2,0,0,0,.425.95A1.17,1.17,0,0,0,165.188,28.1Zm5.55,6.75v-1.8a1.542,1.542,0,0,0,1.375-.987,8.119,8.119,0,0,0,.675-2.538,33.054,33.054,0,0,0,.238-3.5q.038-1.925.038-3.85,0-1.95-.038-3.862a32.557,32.557,0,0,0-.238-3.475,7.947,7.947,0,0,0-.675-2.513,1.541,1.541,0,0,0-1.375-.975V9.575a3.727,3.727,0,0,1,2.362.713,4.766,4.766,0,0,1,1.438,1.962,11.844,11.844,0,0,1,.763,2.862,28.957,28.957,0,0,1,.287,3.413q.05,1.8.05,3.65t-.05,3.663a29.4,29.4,0,0,1-.287,3.438,11.846,11.846,0,0,1-.763,2.875,4.766,4.766,0,0,1-1.437,1.962A3.839,3.839,0,0,1,170.738,34.85Z" transform="translate(276 4402) rotate(-90)" fill="#823695"/>
    <path id="Path_3003" data-name="Path 3003" d="M41.588,30.225a5.425,5.425,0,0,1-3.338-.9A4.641,4.641,0,0,1,36.6,26.9a11.69,11.69,0,0,1-.462-3.4V16.35a12.367,12.367,0,0,1,.462-3.575,4.323,4.323,0,0,1,1.65-2.362,5.727,5.727,0,0,1,3.338-.838,5.616,5.616,0,0,1,3.012.7,3.908,3.908,0,0,1,1.6,2,8.918,8.918,0,0,1,.487,3.125V17H44.013V15.575a15.534,15.534,0,0,0-.112-1.988,2.162,2.162,0,0,0-.613-1.337,2.4,2.4,0,0,0-1.675-.475,2.509,2.509,0,0,0-1.75.512,2.5,2.5,0,0,0-.712,1.45,12.953,12.953,0,0,0-.163,2.188V23.95a9.249,9.249,0,0,0,.25,2.412,2.114,2.114,0,0,0,.825,1.263,2.807,2.807,0,0,0,1.55.375,2.236,2.236,0,0,0,1.65-.513,2.44,2.44,0,0,0,.625-1.412,15.461,15.461,0,0,0,.125-2.1v-1.5h2.675v1.5a10.757,10.757,0,0,1-.45,3.262,4.172,4.172,0,0,1-1.55,2.2A5.261,5.261,0,0,1,41.588,30.225ZM52.487,30V22.85L48.112,9.75h2.625l3.1,9.775,3.05-9.775h2.65l-4.35,13.1V30Zm14,.225a5.425,5.425,0,0,1-3.338-.9A4.641,4.641,0,0,1,61.5,26.9a11.69,11.69,0,0,1-.462-3.4V16.35a12.367,12.367,0,0,1,.462-3.575,4.323,4.323,0,0,1,1.65-2.362,5.727,5.727,0,0,1,3.338-.838,5.616,5.616,0,0,1,3.012.7,3.908,3.908,0,0,1,1.6,2,8.918,8.918,0,0,1,.487,3.125V17H68.912V15.575a15.535,15.535,0,0,0-.112-1.988,2.162,2.162,0,0,0-.613-1.337,2.4,2.4,0,0,0-1.675-.475,2.509,2.509,0,0,0-1.75.512,2.5,2.5,0,0,0-.713,1.45,12.953,12.953,0,0,0-.163,2.188V23.95a9.249,9.249,0,0,0,.25,2.412,2.114,2.114,0,0,0,.825,1.263,2.807,2.807,0,0,0,1.55.375,2.236,2.236,0,0,0,1.65-.513,2.44,2.44,0,0,0,.625-1.412,15.46,15.46,0,0,0,.125-2.1v-1.5h2.675v1.5a10.757,10.757,0,0,1-.45,3.262,4.172,4.172,0,0,1-1.55,2.2A5.261,5.261,0,0,1,66.488,30.225Zm7.8-.225V9.75h2.825V27.975h5.175V30Zm9.925,0V9.75h7.85v2.1H87.037v6.7h4.075v2H87.037v7.425h5.075V30Zm15.9,0V9.75h1.925l5.75,13.45V9.75h2.35V30h-1.8l-5.825-13.825V30Zm18.425.225a5.578,5.578,0,0,1-3.375-.875,4.362,4.362,0,0,1-1.6-2.462,14.444,14.444,0,0,1-.425-3.713V9.75h2.7V23.3a14.836,14.836,0,0,0,.175,2.375,3.154,3.154,0,0,0,.762,1.7,2.815,2.815,0,0,0,3.538,0,3.207,3.207,0,0,0,.75-1.7,14.837,14.837,0,0,0,.175-2.375V9.75h2.675V23.175a14.444,14.444,0,0,1-.425,3.713A4.388,4.388,0,0,1,121.9,29.35,5.52,5.52,0,0,1,118.537,30.225Zm8.3-.225.375-20.25h2.775l3.575,16.425,3.6-16.425h2.75L140.287,30h-2.275l-.225-14.7L134.362,30h-1.6l-3.4-14.7L129.137,30Zm16.55,0V9.75h4.65a8.449,8.449,0,0,1,2.387.3,4.191,4.191,0,0,1,1.688.925,3.754,3.754,0,0,1,1,1.587,7.085,7.085,0,0,1,.325,2.263,6.692,6.692,0,0,1-.312,2.163,3.117,3.117,0,0,1-.95,1.438,3.286,3.286,0,0,1-1.637.675,4.37,4.37,0,0,1,1.975.938,3.961,3.961,0,0,1,1.113,1.7,7.57,7.57,0,0,1,.363,2.488,8.822,8.822,0,0,1-.3,2.375,4.742,4.742,0,0,1-.937,1.825,4.232,4.232,0,0,1-1.625,1.163,6.041,6.041,0,0,1-2.337.413Zm2.825-2.025h1.9a2.965,2.965,0,0,0,2.537-.888,5,5,0,0,0,.638-2.862,5.9,5.9,0,0,0-.338-2.138,2.528,2.528,0,0,0-1.075-1.3,3.883,3.883,0,0,0-1.988-.437h-1.675Zm0-9.775h1.675a4.262,4.262,0,0,0,1.875-.337,1.892,1.892,0,0,0,.95-1.088,5.767,5.767,0,0,0,.275-1.95,3.7,3.7,0,0,0-.425-2.025,1.93,1.93,0,0,0-1.325-.787,13.714,13.714,0,0,0-2.35-.163h-.675ZM156.487,30V9.75h7.85v2.1h-5.025v6.7h4.075v2h-4.075v7.425h5.075V30Zm10.175,0V9.75h4.075a8.981,8.981,0,0,1,3.35.538,3.74,3.74,0,0,1,1.962,1.725,6.574,6.574,0,0,1,.638,3.112,8.5,8.5,0,0,1-.25,2.137,4.128,4.128,0,0,1-.8,1.625,3.116,3.116,0,0,1-1.45.962L177.063,30h-2.725l-2.65-9.5h-2.2V30Zm2.825-11.525h1.075a5.325,5.325,0,0,0,1.95-.3,2.01,2.01,0,0,0,1.1-1.025,4.753,4.753,0,0,0,.35-2.025,4.027,4.027,0,0,0-.65-2.563,3.261,3.261,0,0,0-2.575-.787h-1.25Z" transform="translate(845 4589)" fill="#823695"/>
    <g transform="matrix(1, 0, 0, 1, 234, 3899)" filter="url(#Path_3005)">
      <path id="Path_3005-2" data-name="Path 3005" d="M0,0H258V59H0Z" transform="translate(145 824.11)" fill="#babcbf"/>
    </g>
    <path id="Path_3009" data-name="Path 3009" d="M87.4,24V7.8h4.1a8.262,8.262,0,0,1,3.3.53,3.112,3.112,0,0,1,1.66,1.66,7.574,7.574,0,0,1,.48,2.93V18.8a7.793,7.793,0,0,1-.48,2.97,3.147,3.147,0,0,1-1.65,1.69,7.988,7.988,0,0,1-3.27.54Zm3.58-2.48h.56a2.2,2.2,0,0,0,1.18-.24,1.055,1.055,0,0,0,.45-.72,6.674,6.674,0,0,0,.09-1.2V12.3a4.945,4.945,0,0,0-.11-1.16.96.96,0,0,0-.47-.64,2.511,2.511,0,0,0-1.16-.2h-.54ZM99.14,24V7.8h3.58V24Zm5.22,0,3.06-16.2h4.08L114.52,24h-3.3l-.54-3.42H108.3L107.74,24Zm4.26-5.56h1.72l-.86-6.32ZM116,24V7.8h4.46a9.94,9.94,0,0,1,2.84.36,3.445,3.445,0,0,1,1.87,1.29,4.445,4.445,0,0,1,.67,2.63,8.912,8.912,0,0,1-.16,1.78,3.313,3.313,0,0,1-.59,1.35,3.244,3.244,0,0,1-1.23.95L126.08,24h-3.7l-1.78-7.26h-1.02V24Zm3.58-9.32h1a2.177,2.177,0,0,0,1.18-.27,1.432,1.432,0,0,0,.59-.78,3.913,3.913,0,0,0,.17-1.23,2.941,2.941,0,0,0-.38-1.62,1.549,1.549,0,0,0-1.4-.58h-1.16ZM127.92,24V7.8h4.46a9.94,9.94,0,0,1,2.84.36,3.445,3.445,0,0,1,1.87,1.29,4.445,4.445,0,0,1,.67,2.63,8.912,8.912,0,0,1-.16,1.78,3.313,3.313,0,0,1-.59,1.35,3.244,3.244,0,0,1-1.23.95L138,24h-3.7l-1.78-7.26H131.5V24Zm3.58-9.32h1a2.177,2.177,0,0,0,1.18-.27,1.432,1.432,0,0,0,.59-.78,3.914,3.914,0,0,0,.17-1.23,2.941,2.941,0,0,0-.38-1.62,1.549,1.549,0,0,0-1.4-.58H131.5ZM139.9,24V7.8h3.58v6.56h2.5V7.8h3.6V24h-3.6V16.92h-2.5V24Zm12.14,0V7.8h7.28v2.44h-3.7v4.02h2.82v2.48h-2.82v4.84h3.74V24Zm8.16,0,3.06-16.2h4.08L170.36,24h-3.3l-.54-3.42h-2.38L163.58,24Zm4.26-5.56h1.72l-.86-6.32Z" transform="translate(380 4737.11)" fill="#fff"/>
    <g transform="matrix(1, 0, 0, 1, 234, 3899)" filter="url(#Path_3006)">
      <path id="Path_3006-2" data-name="Path 3006" d="M0,0H258V59H0Z" transform="translate(441 824)" fill="#ff9e18"/>
    </g>
    <path id="Path_3010" data-name="Path 3010" d="M97.82,24V7.8h2.52l3.32,7.8V7.8h2.96V24H104.2l-3.32-8.4V24Zm10.44,0,3.06-16.2h4.08L118.42,24h-3.3l-.54-3.42H112.2L111.64,24Zm4.26-5.56h1.72l-.86-6.32Zm12.06,5.8a5.816,5.816,0,0,1-2.91-.61,3.268,3.268,0,0,1-1.47-1.78,8.552,8.552,0,0,1-.42-2.87V7.8h3.54V19.52a6.32,6.32,0,0,0,.08,1,1.646,1.646,0,0,0,.35.82,1.249,1.249,0,0,0,1.67,0,1.63,1.63,0,0,0,.33-.82,7.2,7.2,0,0,0,.07-1V7.8h3.56V18.98a8.37,8.37,0,0,1-.43,2.87,3.325,3.325,0,0,1-1.47,1.78A5.758,5.758,0,0,1,124.58,24.24Zm11.38,0a5.385,5.385,0,0,1-2.54-.54,3.456,3.456,0,0,1-1.54-1.67,7.678,7.678,0,0,1-.58-2.93l3.06-.46a7.3,7.3,0,0,0,.19,1.68,1.862,1.862,0,0,0,.48.92,1.079,1.079,0,0,0,.75.28.714.714,0,0,0,.73-.38,1.937,1.937,0,0,0,.17-.8,2.887,2.887,0,0,0-.48-1.69,7.5,7.5,0,0,0-1.3-1.39l-1.4-1.22a7.807,7.807,0,0,1-1.55-1.77,4.476,4.476,0,0,1-.63-2.45,4,4,0,0,1,1.22-3.15,4.8,4.8,0,0,1,3.32-1.09,4.288,4.288,0,0,1,2.09.44,3.072,3.072,0,0,1,1.2,1.15,4.754,4.754,0,0,1,.56,1.5,9.523,9.523,0,0,1,.17,1.51l-3.08.38a12.3,12.3,0,0,0-.09-1.25,1.719,1.719,0,0,0-.29-.82.8.8,0,0,0-.68-.29.773.773,0,0,0-.73.42,1.735,1.735,0,0,0-.23.84,2.375,2.375,0,0,0,.43,1.47,8.326,8.326,0,0,0,1.13,1.19l1.34,1.18a9.114,9.114,0,0,1,1.79,2.04,5.127,5.127,0,0,1,.73,2.82,4.168,4.168,0,0,1-.52,2.07,3.8,3.8,0,0,1-1.47,1.47A4.479,4.479,0,0,1,135.96,24.24Zm5.66-.24V7.8h7.28v2.44h-3.7v4.02h2.82v2.48H145.2v4.84h3.74V24Zm8.16,0,3.06-16.2h4.08L159.94,24h-3.3l-.54-3.42h-2.38L153.16,24Zm4.26-5.56h1.72l-.86-6.32Z" transform="translate(676 4737.11)" fill="#fff"/>
    <g transform="matrix(1, 0, 0, 1, 234, 3899)" filter="url(#Path_3007)">
      <path id="Path_3007-2" data-name="Path 3007" d="M0,0H258V59H0Z" transform="translate(737 824)" fill="#bf9bcd"/>
    </g>
    <path id="Path_3011" data-name="Path 3011" d="M96.94,24V7.8h7v2.42h-3.42V14.3h2.98v2.5h-2.98V24Zm7.32,0,3.06-16.2h4.08L114.42,24h-3.3l-.54-3.42H108.2L107.64,24Zm4.26-5.56h1.72l-.86-6.32ZM116.66,24V10.46h-2.44V7.8h8.46v2.66h-2.42V24Zm7.46,0V7.8h3.58V24Zm10.22.24a4.449,4.449,0,0,1-2.65-.7,3.777,3.777,0,0,1-1.38-1.97,9.541,9.541,0,0,1-.41-2.93V13.2a9.055,9.055,0,0,1,.44-2.98,3.7,3.7,0,0,1,1.51-1.95,5.324,5.324,0,0,1,2.91-.69,5.634,5.634,0,0,1,2.83.6,3.385,3.385,0,0,1,1.47,1.66,6.437,6.437,0,0,1,.44,2.48v1.04H136V12.04a6.124,6.124,0,0,0-.07-.96,1.322,1.322,0,0,0-.32-.71,1.059,1.059,0,0,0-.81-.27,1.038,1.038,0,0,0-.84.31,1.529,1.529,0,0,0-.33.77,6.376,6.376,0,0,0-.07.96v7.5a4.425,4.425,0,0,0,.11,1.01,1.545,1.545,0,0,0,.4.76,1.123,1.123,0,0,0,.83.29,1.164,1.164,0,0,0,.86-.3,1.637,1.637,0,0,0,.42-.78,4.193,4.193,0,0,0,.12-1.02V17.7h-1.46V15.6h4.68V24h-2.36l-.2-1.34a2.907,2.907,0,0,1-.94,1.13A2.805,2.805,0,0,1,134.34,24.24Zm12.1,0a5.816,5.816,0,0,1-2.91-.61,3.268,3.268,0,0,1-1.47-1.78,8.552,8.552,0,0,1-.42-2.87V7.8h3.54V19.52a6.32,6.32,0,0,0,.08,1,1.646,1.646,0,0,0,.35.82,1.249,1.249,0,0,0,1.67,0,1.631,1.631,0,0,0,.33-.82,7.2,7.2,0,0,0,.07-1V7.8h3.56V18.98a8.37,8.37,0,0,1-.43,2.87,3.325,3.325,0,0,1-1.47,1.78A5.758,5.758,0,0,1,146.44,24.24Zm7.08-.24V7.8h7.28v2.44h-3.7v4.02h2.82v2.48H157.1v4.84h3.74V24Z" transform="translate(972 4737.11)" fill="#fff"/>
    <g transform="matrix(1, 0, 0, 1, 234, 3899)" filter="url(#Path_3008)">
      <path id="Path_3008-2" data-name="Path 3008" d="M0,0H258V59H0Z" transform="translate(1033 824)" fill="#823695"/>
    </g>
    <path id="Path_3012" data-name="Path 3012" d="M73.28,24V7.8H75.8l3.32,7.8V7.8h2.96V24H79.66l-3.32-8.4V24ZM84.5,24V7.8h7.28v2.44h-3.7v4.02H90.9v2.48H88.08v4.84h3.74V24Zm13.62.24a5.816,5.816,0,0,1-2.91-.61,3.268,3.268,0,0,1-1.47-1.78,8.552,8.552,0,0,1-.42-2.87V7.8h3.54V19.52a6.32,6.32,0,0,0,.08,1,1.646,1.646,0,0,0,.35.82,1.249,1.249,0,0,0,1.67,0,1.63,1.63,0,0,0,.33-.82,7.2,7.2,0,0,0,.07-1V7.8h3.56V18.98a8.37,8.37,0,0,1-.43,2.87,3.325,3.325,0,0,1-1.47,1.78A5.758,5.758,0,0,1,98.12,24.24Zm8.54-.24V10.46h-2.44V7.8h8.46v2.66h-2.42V24Zm7.44,0V7.8h4.46a9.94,9.94,0,0,1,2.84.36,3.445,3.445,0,0,1,1.87,1.29,4.445,4.445,0,0,1,.67,2.63,8.912,8.912,0,0,1-.16,1.78,3.313,3.313,0,0,1-.59,1.35,3.244,3.244,0,0,1-1.23.95L124.18,24h-3.7l-1.78-7.26h-1.02V24Zm3.58-9.32h1a2.177,2.177,0,0,0,1.18-.27,1.432,1.432,0,0,0,.59-.78,3.913,3.913,0,0,0,.17-1.23,2.941,2.941,0,0,0-.38-1.62,1.549,1.549,0,0,0-1.4-.58h-1.16Zm12.9,9.56a5.555,5.555,0,0,1-2.88-.64,3.578,3.578,0,0,1-1.52-1.84,7.99,7.99,0,0,1-.46-2.86V12.88a7.889,7.889,0,0,1,.46-2.86,3.536,3.536,0,0,1,1.52-1.81,5.627,5.627,0,0,1,2.88-.63,5.73,5.73,0,0,1,2.91.63,3.524,3.524,0,0,1,1.53,1.81,7.889,7.889,0,0,1,.46,2.86V18.9a7.99,7.99,0,0,1-.46,2.86,3.565,3.565,0,0,1-1.53,1.84A5.657,5.657,0,0,1,130.58,24.24Zm0-2.54a1.071,1.071,0,0,0,.82-.28,1.4,1.4,0,0,0,.34-.72,5.022,5.022,0,0,0,.08-.9V12a4.971,4.971,0,0,0-.08-.91,1.391,1.391,0,0,0-.34-.71,1.071,1.071,0,0,0-.82-.28,1.014,1.014,0,0,0-.78.28,1.391,1.391,0,0,0-.34.71,4.971,4.971,0,0,0-.08.91v7.8a5.719,5.719,0,0,0,.07.9,1.378,1.378,0,0,0,.32.72A1.037,1.037,0,0,0,130.58,21.7Zm7.08,2.3V7.8h5.44a4.7,4.7,0,0,1,2.4.55,3.359,3.359,0,0,1,1.4,1.6,6.34,6.34,0,0,1,.46,2.55,5.446,5.446,0,0,1-.62,2.87,3.223,3.223,0,0,1-1.68,1.37,7.018,7.018,0,0,1-2.38.38h-1.44V24Zm3.58-9.38h1.2a1.73,1.73,0,0,0,1-.24,1.156,1.156,0,0,0,.45-.72,5.6,5.6,0,0,0,.11-1.22,5.85,5.85,0,0,0-.09-1.09,1.238,1.238,0,0,0-.43-.75,1.652,1.652,0,0,0-1.06-.28h-1.18ZM148.92,24V7.8h7.28v2.44h-3.7v4.02h2.82v2.48H152.5v4.84h3.74V24Zm8.94,0V7.8h2.52l3.32,7.8V7.8h2.96V24h-2.42l-3.32-8.4V24Zm11.24,0V7.8h3.58V24Zm5.22,0,3.06-16.2h4.08L184.48,24h-3.3l-.54-3.42h-2.38L177.7,24Zm4.26-5.56h1.72l-.86-6.32Z" transform="translate(1268 4737.11)" fill="#fff"/>
    <path id="Path_3002" data-name="Path 3002" d="M75.228,29,78.9,9.56h4.9L87.42,29H83.46l-.648-4.1H79.956L79.284,29Zm5.112-6.672H82.4l-1.032-7.584ZM89.2,29V9.56h4.92a9.914,9.914,0,0,1,3.96.636,3.734,3.734,0,0,1,1.992,1.992,9.089,9.089,0,0,1,.576,3.516V22.76a9.352,9.352,0,0,1-.576,3.564,3.776,3.776,0,0,1-1.98,2.028A9.586,9.586,0,0,1,94.164,29Zm4.3-2.976h.672a2.639,2.639,0,0,0,1.416-.288,1.266,1.266,0,0,0,.54-.864,8.009,8.009,0,0,0,.108-1.44V14.96a5.934,5.934,0,0,0-.132-1.392,1.152,1.152,0,0,0-.564-.768,3.013,3.013,0,0,0-1.392-.24h-.648ZM105.66,29l-3.5-19.44h3.672l2.088,13.2,1.944-13.2h3.888L110.2,29Zm10.032,0V9.56h8.736v2.928h-4.44v4.824h3.384v2.976h-3.384V26.1h4.488V29Zm10.728,0V9.56h5.352a11.928,11.928,0,0,1,3.408.432,4.134,4.134,0,0,1,2.244,1.548,5.334,5.334,0,0,1,.8,3.156,10.694,10.694,0,0,1-.192,2.136,3.975,3.975,0,0,1-.708,1.62,3.893,3.893,0,0,1-1.476,1.14L138.516,29h-4.44l-2.136-8.712h-1.224V29Zm4.3-11.184h1.2a2.613,2.613,0,0,0,1.416-.324,1.718,1.718,0,0,0,.708-.936,4.7,4.7,0,0,0,.2-1.476,3.529,3.529,0,0,0-.456-1.944,1.859,1.859,0,0,0-1.68-.7h-1.392Zm15.168,11.472a6.462,6.462,0,0,1-3.048-.648,4.148,4.148,0,0,1-1.848-2,9.213,9.213,0,0,1-.7-3.516l3.672-.552a8.758,8.758,0,0,0,.228,2.016,2.234,2.234,0,0,0,.576,1.1,1.3,1.3,0,0,0,.9.336.856.856,0,0,0,.876-.456,2.325,2.325,0,0,0,.2-.96,3.464,3.464,0,0,0-.576-2.028,9,9,0,0,0-1.56-1.668l-1.68-1.464a9.369,9.369,0,0,1-1.86-2.124,5.372,5.372,0,0,1-.756-2.94,4.8,4.8,0,0,1,1.464-3.78A5.762,5.762,0,0,1,145.764,9.3a5.145,5.145,0,0,1,2.508.528,3.686,3.686,0,0,1,1.44,1.38,5.7,5.7,0,0,1,.672,1.8,11.427,11.427,0,0,1,.2,1.812l-3.7.456a14.767,14.767,0,0,0-.108-1.5,2.063,2.063,0,0,0-.348-.984.958.958,0,0,0-.816-.348.928.928,0,0,0-.876.5,2.082,2.082,0,0,0-.276,1.008,2.85,2.85,0,0,0,.516,1.764,9.993,9.993,0,0,0,1.356,1.428l1.608,1.416a10.936,10.936,0,0,1,2.148,2.448,6.153,6.153,0,0,1,.876,3.384,5,5,0,0,1-.624,2.484,4.559,4.559,0,0,1-1.764,1.764A5.374,5.374,0,0,1,145.884,29.288ZM152.676,29V9.56h8.736v2.928h-4.44v4.824h3.384v2.976h-3.384V26.1h4.488V29Zm16.872,0V9.56H174.9a11.928,11.928,0,0,1,3.408.432,4.134,4.134,0,0,1,2.244,1.548,5.334,5.334,0,0,1,.8,3.156,10.694,10.694,0,0,1-.192,2.136,3.975,3.975,0,0,1-.708,1.62,3.893,3.893,0,0,1-1.476,1.14L181.644,29H177.2l-2.136-8.712h-1.224V29Zm4.3-11.184h1.2a2.613,2.613,0,0,0,1.416-.324,1.718,1.718,0,0,0,.708-.936,4.7,4.7,0,0,0,.2-1.476,3.529,3.529,0,0,0-.456-1.944,1.859,1.859,0,0,0-1.68-.7h-1.392ZM183.852,29V9.56h8.736v2.928h-4.44v4.824h3.384v2.976h-3.384V26.1h4.488V29Zm9.792,0,3.672-19.44h4.9L205.836,29h-3.96l-.648-4.1h-2.856L197.7,29Zm5.112-6.672h2.064l-1.032-7.584Zm14.3,6.96a6.541,6.541,0,0,1-3.492-.8,4.331,4.331,0,0,1-1.812-2.256,10.007,10.007,0,0,1-.528-3.42V15.8a10.168,10.168,0,0,1,.528-3.468,4.273,4.273,0,0,1,1.812-2.244A6.62,6.62,0,0,1,213.06,9.3a6.715,6.715,0,0,1,3.372.708,3.908,3.908,0,0,1,1.716,1.98,7.907,7.907,0,0,1,.5,2.928v1.68h-4.2V14.648a9.782,9.782,0,0,0-.06-1.1,1.628,1.628,0,0,0-.348-.876,1.214,1.214,0,0,0-.984-.348,1.274,1.274,0,0,0-1,.36,1.7,1.7,0,0,0-.408.9,7.416,7.416,0,0,0-.084,1.14v9.144a6.068,6.068,0,0,0,.108,1.188,1.642,1.642,0,0,0,.432.864,1.285,1.285,0,0,0,.948.324,1.181,1.181,0,0,0,.96-.348,1.73,1.73,0,0,0,.36-.9,8.715,8.715,0,0,0,.072-1.128v-2.04h4.2V23.5a8.375,8.375,0,0,1-.492,2.964,4.064,4.064,0,0,1-1.7,2.064A6.417,6.417,0,0,1,213.06,29.288Zm9.7-.288V12.752h-2.928V9.56H229.98v3.192h-2.9V29Zm8.952,0V9.56H236V29Zm12.768.288a6.666,6.666,0,0,1-3.456-.768,4.294,4.294,0,0,1-1.824-2.208,9.588,9.588,0,0,1-.552-3.432V15.656a9.467,9.467,0,0,1,.552-3.432,4.244,4.244,0,0,1,1.824-2.172,6.752,6.752,0,0,1,3.456-.756,6.876,6.876,0,0,1,3.492.756,4.228,4.228,0,0,1,1.836,2.172,9.467,9.467,0,0,1,.552,3.432V22.88a9.588,9.588,0,0,1-.552,3.432,4.278,4.278,0,0,1-1.836,2.208A6.788,6.788,0,0,1,244.476,29.288Zm0-3.048a1.285,1.285,0,0,0,.984-.336,1.678,1.678,0,0,0,.408-.864,6.024,6.024,0,0,0,.1-1.08V14.6a5.964,5.964,0,0,0-.1-1.092,1.669,1.669,0,0,0-.408-.852,1.285,1.285,0,0,0-.984-.336,1.217,1.217,0,0,0-.936.336,1.669,1.669,0,0,0-.408.852,5.964,5.964,0,0,0-.1,1.092v9.36a6.864,6.864,0,0,0,.084,1.08,1.654,1.654,0,0,0,.384.864A1.244,1.244,0,0,0,244.476,26.24Zm8.5,2.76V9.56H256l3.984,9.36V9.56h3.552V29h-2.9l-3.984-10.08V29Zm18.624.288a6.462,6.462,0,0,1-3.048-.648,4.147,4.147,0,0,1-1.848-2,9.213,9.213,0,0,1-.7-3.516l3.672-.552a8.76,8.76,0,0,0,.228,2.016,2.234,2.234,0,0,0,.576,1.1,1.3,1.3,0,0,0,.9.336.857.857,0,0,0,.876-.456,2.325,2.325,0,0,0,.2-.96,3.464,3.464,0,0,0-.576-2.028,9,9,0,0,0-1.56-1.668l-1.68-1.464a9.369,9.369,0,0,1-1.86-2.124,5.372,5.372,0,0,1-.756-2.94,4.8,4.8,0,0,1,1.464-3.78A5.762,5.762,0,0,1,271.476,9.3a5.145,5.145,0,0,1,2.508.528,3.686,3.686,0,0,1,1.44,1.38A5.7,5.7,0,0,1,276.1,13a11.425,11.425,0,0,1,.2,1.812l-3.7.456a14.762,14.762,0,0,0-.108-1.5,2.063,2.063,0,0,0-.348-.984.958.958,0,0,0-.816-.348.928.928,0,0,0-.876.5,2.083,2.083,0,0,0-.276,1.008,2.85,2.85,0,0,0,.516,1.764,9.992,9.992,0,0,0,1.356,1.428l1.608,1.416a10.937,10.937,0,0,1,2.148,2.448,6.153,6.153,0,0,1,.876,3.384,5,5,0,0,1-.624,2.484A4.559,4.559,0,0,1,274.3,28.64,5.374,5.374,0,0,1,271.6,29.288ZM290.364,33.3a5.118,5.118,0,0,1-2.64-.624,4.605,4.605,0,0,1-1.692-1.764,9.259,9.259,0,0,1-.948-2.64,21.865,21.865,0,0,1-.408-3.252q-.1-1.752-.1-3.6,0-1.992.1-3.792a22.609,22.609,0,0,1,.408-3.324,8.757,8.757,0,0,1,.948-2.628,4.585,4.585,0,0,1,1.692-1.716,5.2,5.2,0,0,1,2.64-.612V12.08a1.3,1.3,0,0,0-1.1.624,4.943,4.943,0,0,0-.672,1.812,19.918,19.918,0,0,0-.324,2.916q-.084,1.728-.084,3.984,0,2.28.1,3.984a18.242,18.242,0,0,0,.348,2.844,4.662,4.662,0,0,0,.672,1.716,1.273,1.273,0,0,0,1.068.576Zm1.344-4.3L295.38,9.56h4.9L303.9,29h-3.96l-.648-4.1h-2.856l-.672,4.1Zm5.112-6.672h2.064l-1.032-7.584ZM305.676,29V9.56h4.3V26.1h4.464V29Zm10.44,0V9.56h4.3V26.1h4.464V29Zm21.648.288a5.339,5.339,0,0,1-3.18-.84,4.532,4.532,0,0,1-1.656-2.364,11.449,11.449,0,0,1-.492-3.516V16.04a10.865,10.865,0,0,1,.528-3.576,4.435,4.435,0,0,1,1.812-2.34,6.389,6.389,0,0,1,3.492-.828,6.76,6.76,0,0,1,3.4.72,4.062,4.062,0,0,1,1.764,1.992,7.723,7.723,0,0,1,.528,2.976v1.248h-4.2V14.648a7.35,7.35,0,0,0-.084-1.152,1.587,1.587,0,0,0-.384-.852,1.271,1.271,0,0,0-.972-.324,1.245,1.245,0,0,0-1.008.372,1.834,1.834,0,0,0-.4.924,7.652,7.652,0,0,0-.084,1.152v9a5.309,5.309,0,0,0,.132,1.212,1.853,1.853,0,0,0,.48.912,1.348,1.348,0,0,0,1,.348,1.4,1.4,0,0,0,1.032-.36,1.965,1.965,0,0,0,.5-.936,5.033,5.033,0,0,0,.144-1.224V21.44h-1.752V18.92h5.616V29h-2.832l-.24-1.608a3.489,3.489,0,0,1-1.128,1.356A3.366,3.366,0,0,1,337.764,29.288Zm8.9-.288V9.56h5.352a11.928,11.928,0,0,1,3.408.432,4.134,4.134,0,0,1,2.244,1.548,5.334,5.334,0,0,1,.8,3.156,10.7,10.7,0,0,1-.192,2.136,3.975,3.975,0,0,1-.708,1.62,3.893,3.893,0,0,1-1.476,1.14L358.764,29h-4.44l-2.136-8.712h-1.224V29Zm4.3-11.184h1.2a2.613,2.613,0,0,0,1.416-.324,1.719,1.719,0,0,0,.708-.936,4.7,4.7,0,0,0,.2-1.476,3.529,3.529,0,0,0-.456-1.944,1.859,1.859,0,0,0-1.68-.7h-1.392ZM360.132,29,363.8,9.56h4.9L372.324,29h-3.96l-.648-4.1H364.86l-.672,4.1Zm5.112-6.672h2.064l-1.032-7.584ZM374.1,29V9.56h4.92a9.914,9.914,0,0,1,3.96.636,3.734,3.734,0,0,1,1.992,1.992,9.089,9.089,0,0,1,.576,3.516V22.76a9.352,9.352,0,0,1-.576,3.564,3.776,3.776,0,0,1-1.98,2.028,9.586,9.586,0,0,1-3.924.648Zm4.3-2.976h.672a2.639,2.639,0,0,0,1.416-.288,1.266,1.266,0,0,0,.54-.864,8.01,8.01,0,0,0,.108-1.44V14.96A5.935,5.935,0,0,0,381,13.568a1.152,1.152,0,0,0-.564-.768,3.013,3.013,0,0,0-1.392-.24H378.4ZM388.164,29V9.56H396.9v2.928h-4.44v4.824h3.384v2.976H392.46V26.1h4.488V29Zm15.888.288A6.462,6.462,0,0,1,401,28.64a4.147,4.147,0,0,1-1.848-2,9.213,9.213,0,0,1-.7-3.516l3.672-.552a8.76,8.76,0,0,0,.228,2.016,2.234,2.234,0,0,0,.576,1.1,1.3,1.3,0,0,0,.9.336.857.857,0,0,0,.876-.456,2.325,2.325,0,0,0,.2-.96,3.464,3.464,0,0,0-.576-2.028,9,9,0,0,0-1.56-1.668l-1.68-1.464a9.369,9.369,0,0,1-1.86-2.124,5.372,5.372,0,0,1-.756-2.94,4.8,4.8,0,0,1,1.464-3.78A5.762,5.762,0,0,1,403.932,9.3a5.145,5.145,0,0,1,2.508.528,3.686,3.686,0,0,1,1.44,1.38,5.7,5.7,0,0,1,.672,1.8,11.429,11.429,0,0,1,.2,1.812l-3.7.456a14.771,14.771,0,0,0-.108-1.5,2.063,2.063,0,0,0-.348-.984.958.958,0,0,0-.816-.348.928.928,0,0,0-.876.5,2.083,2.083,0,0,0-.276,1.008,2.85,2.85,0,0,0,.516,1.764,9.992,9.992,0,0,0,1.356,1.428l1.608,1.416a10.937,10.937,0,0,1,2.148,2.448,6.153,6.153,0,0,1,.876,3.384,5,5,0,0,1-.624,2.484,4.559,4.559,0,0,1-1.764,1.764A5.374,5.374,0,0,1,404.052,29.288Zm6.192,4.008v-2.76a1.273,1.273,0,0,0,1.068-.576,4.552,4.552,0,0,0,.66-1.728,19.781,19.781,0,0,0,.336-2.856q.1-1.7.1-3.984,0-2.256-.084-3.984a21.288,21.288,0,0,0-.312-2.916,4.843,4.843,0,0,0-.648-1.8,1.293,1.293,0,0,0-1.116-.612V9.344a5.283,5.283,0,0,1,2.64.6,4.472,4.472,0,0,1,1.692,1.716,8.921,8.921,0,0,1,.948,2.628,22.3,22.3,0,0,1,.408,3.312q.1,1.8.1,3.792,0,1.848-.1,3.6a22.169,22.169,0,0,1-.408,3.264,9.085,9.085,0,0,1-.948,2.64,4.72,4.72,0,0,1-1.692,1.764A5.041,5.041,0,0,1,410.244,33.3Z" transform="translate(706 3980)" fill="#863399"/>
    <path id="Path_3049" data-name="Path 3049" d="M-3.612.126A2.718,2.718,0,0,1-5.2-.308,2.568,2.568,0,0,1-6.125-1.5a4.626,4.626,0,0,1-.3-1.722V-8.106a4.752,4.752,0,0,1,.294-1.743,2.446,2.446,0,0,1,.917-1.169,2.812,2.812,0,0,1,1.6-.42,2.778,2.778,0,0,1,1.6.42,2.462,2.462,0,0,1,.91,1.169A4.752,4.752,0,0,1-.812-8.106V-3.22a4.667,4.667,0,0,1-.3,1.736A2.542,2.542,0,0,1-2.03-.3,2.717,2.717,0,0,1-3.612.126Zm0-1.232a1.019,1.019,0,0,0,.805-.308,1.717,1.717,0,0,0,.378-.791,4.7,4.7,0,0,0,.105-1V-8.12a5.17,5.17,0,0,0-.1-1.029,1.574,1.574,0,0,0-.371-.777,1.065,1.065,0,0,0-.819-.294,1.088,1.088,0,0,0-.826.294,1.542,1.542,0,0,0-.378.777,5.169,5.169,0,0,0-.1,1.029v4.914a4.7,4.7,0,0,0,.105,1,1.646,1.646,0,0,0,.392.791A1.046,1.046,0,0,0-3.612-1.106Z" transform="translate(338.058 4542.996)" fill="#464749"/>
    <path id="Path_3056" data-name="Path 3056" d="M-.324,0V-8.04a1.839,1.839,0,0,1-.27.072q-.258.06-.582.12l-.576.108q-.252.048-.264.048v-.972q.2-.048.474-.132A5.849,5.849,0,0,0-.99-9a2.984,2.984,0,0,0,.54-.3,1.9,1.9,0,0,0,.438-.42H.96V0Z" transform="translate(393.358 4573.586)" fill="#464749"/>
    <path id="Path_3057" data-name="Path 3057" d="M-2.772,0V-1.064L.112-5.558q.322-.5.6-.938a4.767,4.767,0,0,0,.448-.917A3.259,3.259,0,0,0,1.33-8.526a2.526,2.526,0,0,0-.252-1.232A.926.926,0,0,0,.2-10.206a1.117,1.117,0,0,0-.826.294,1.569,1.569,0,0,0-.406.77A4.454,4.454,0,0,0-1.148-8.12v.378h-1.5v-.392a5.053,5.053,0,0,1,.273-1.757,2.284,2.284,0,0,1,.882-1.141,2.872,2.872,0,0,1,1.617-.406,2.557,2.557,0,0,1,2.044.777,3.178,3.178,0,0,1,.672,2.149,4.183,4.183,0,0,1-.175,1.274,5.046,5.046,0,0,1-.455,1.022q-.28.476-.616.98l-2.6,3.976H2.576V0Z" transform="translate(465.114 4576.586)" fill="#464749"/>
    <path id="Path_3058" data-name="Path 3058" d="M-.007.126a3.081,3.081,0,0,1-1.54-.35,2.2,2.2,0,0,1-.924-1.008,3.635,3.635,0,0,1-.308-1.554v-.378h1.484q0,.056,0,.119t0,.133A4.1,4.1,0,0,0-1.176-2,1.239,1.239,0,0,0-.8-1.358a1.169,1.169,0,0,0,.791.238,1.177,1.177,0,0,0,.826-.259A1.335,1.335,0,0,0,1.2-2.114a5.452,5.452,0,0,0,.1-1.092A2.89,2.89,0,0,0,.966-4.669,1.335,1.335,0,0,0-.189-5.292a.336.336,0,0,0-.1-.014H-.4V-6.8h.2a1.549,1.549,0,0,0,1.148-.42,1.941,1.941,0,0,0,.35-1.3,2.517,2.517,0,0,0-.259-1.232A1.074,1.074,0,0,0,.007-10.22a1.026,1.026,0,0,0-1.022.511A3.221,3.221,0,0,0-1.295-8.4q0,.056,0,.119t0,.119H-2.779V-8.54a3.577,3.577,0,0,1,.308-1.554,2.206,2.206,0,0,1,.931-.994,3.122,3.122,0,0,1,1.547-.35,3.113,3.113,0,0,1,1.554.35,2.209,2.209,0,0,1,.924,1,3.624,3.624,0,0,1,.308,1.561,2.757,2.757,0,0,1-.441,1.638,2.193,2.193,0,0,1-1.183.84,1.941,1.941,0,0,1,.875.532,2.569,2.569,0,0,1,.553.959,4.228,4.228,0,0,1,.2,1.351,5.011,5.011,0,0,1-.28,1.757,2.342,2.342,0,0,1-.9,1.162A2.869,2.869,0,0,1-.007.126Z" transform="translate(536.845 4576.586)" fill="#464749"/>
    <path id="Path_3059" data-name="Path 3059" d="M.469,0V-3.038h-3.29V-4.606L.133-11.34H1.9v6.972H3.171v1.33H1.9V0ZM-1.379-4.368H.469V-9.52Z" transform="translate(608.577 4576.586)" fill="#464749"/>
    <path id="Path_3060" data-name="Path 3060" d="M.07.112A2.945,2.945,0,0,1-1.554-.28a2.15,2.15,0,0,1-.861-1.134,5.366,5.366,0,0,1-.259-1.764h1.5a5.75,5.75,0,0,0,.084.987,1.612,1.612,0,0,0,.357.8A1.044,1.044,0,0,0,.1-1.078,1.028,1.028,0,0,0,.98-1.435,1.972,1.972,0,0,0,1.316-2.4a12.18,12.18,0,0,0,.07-1.379A8.671,8.671,0,0,0,1.3-5.089a1.535,1.535,0,0,0-.35-.826A1.1,1.1,0,0,0,.112-6.2a1.137,1.137,0,0,0-.784.287,1.818,1.818,0,0,0-.476.651H-2.422V-11.34H2.464v1.5H-1.064l-.1,3.136a1.963,1.963,0,0,1,.693-.462,2.492,2.492,0,0,1,.945-.168A2.209,2.209,0,0,1,1.925-6.9a2.328,2.328,0,0,1,.742,1.19,6.306,6.306,0,0,1,.217,1.736,9.759,9.759,0,0,1-.126,1.617,3.928,3.928,0,0,1-.441,1.3A2.245,2.245,0,0,1,1.456-.2,2.8,2.8,0,0,1,.07.112Z" transform="translate(680.308 4576.586)" fill="#464749"/>
    <path id="Path_3061" data-name="Path 3061" d="M.072.117A2.286,2.286,0,0,1-1.41-.345a2.651,2.651,0,0,1-.839-1.248,5.424,5.424,0,0,1-.266-1.749V-6.89a7.006,7.006,0,0,1,.234-1.872,2.75,2.75,0,0,1,.8-1.352,2.243,2.243,0,0,1,1.554-.507,2.932,2.932,0,0,1,1.385.3,2.06,2.06,0,0,1,.871.871A3.024,3.024,0,0,1,2.645-8.06a.537.537,0,0,0,.007.071.6.6,0,0,1,.006.085h-1.4a2.261,2.261,0,0,0-.247-1.17,1.009,1.009,0,0,0-.936-.4.951.951,0,0,0-.65.24,1.476,1.476,0,0,0-.41.734,4.906,4.906,0,0,0-.137,1.274v1.6a1.525,1.525,0,0,1,.592-.527,2.008,2.008,0,0,1,.943-.2,2.2,2.2,0,0,1,1.365.377,2.032,2.032,0,0,1,.7,1.059,5.531,5.531,0,0,1,.208,1.605,5.444,5.444,0,0,1-.26,1.729A2.611,2.611,0,0,1,1.592-.345,2.35,2.35,0,0,1,.072.117Zm0-1.157A.97.97,0,0,0,.8-1.307a1.517,1.517,0,0,0,.371-.709,3.961,3.961,0,0,0,.11-.962,10.64,10.64,0,0,0-.058-1.157,1.66,1.66,0,0,0-.306-.852A1.007,1.007,0,0,0,.072-5.3a1.266,1.266,0,0,0-.52.1,1.389,1.389,0,0,0-.4.266,1.539,1.539,0,0,0-.273.345v1.573a4.181,4.181,0,0,0,.111.988,1.523,1.523,0,0,0,.371.722A.953.953,0,0,0,.072-1.04Z" transform="translate(752.04 4575.586)" fill="#464749"/>
    <path id="Path_3062" data-name="Path 3062" d="M-1.2,0,.552-8.712h-2.6V-9.72H1.836V-9.1L.036,0Z" transform="translate(823.746 4573.586)" fill="#464749"/>
    <path id="Path_3063" data-name="Path 3063" d="M.007.126A2.936,2.936,0,0,1-1.631-.28,2.267,2.267,0,0,1-2.52-1.435a5.128,5.128,0,0,1-.273-1.757,4.611,4.611,0,0,1,.1-1.008,2.731,2.731,0,0,1,.287-.763,2.493,2.493,0,0,1,.448-.574,3.76,3.76,0,0,1,.567-.441,2.936,2.936,0,0,1-.91-.987,3.073,3.073,0,0,1-.35-1.547,3.95,3.95,0,0,1,.28-1.554A2.118,2.118,0,0,1-1.5-11.081a2.886,2.886,0,0,1,1.5-.357,2.81,2.81,0,0,1,1.491.357,2.141,2.141,0,0,1,.861,1.015,3.95,3.95,0,0,1,.28,1.554A3.116,3.116,0,0,1,2.3-6.958a2.84,2.84,0,0,1-.917.98,3.76,3.76,0,0,1,.567.441,2.493,2.493,0,0,1,.448.574,2.888,2.888,0,0,1,.294.763,4.315,4.315,0,0,1,.105,1.008A5.128,5.128,0,0,1,2.52-1.435,2.28,2.28,0,0,1,1.638-.28,2.9,2.9,0,0,1,.007.126Zm0-1.19a1.171,1.171,0,0,0,.84-.28,1.442,1.442,0,0,0,.4-.756,4.952,4.952,0,0,0,.105-1.064,4.058,4.058,0,0,0-.119-1,1.661,1.661,0,0,0-.413-.77,1.083,1.083,0,0,0-.812-.3,1.122,1.122,0,0,0-.819.294,1.632,1.632,0,0,0-.427.763,3.9,3.9,0,0,0-.126,1.015A4.654,4.654,0,0,0-1.253-2.1a1.457,1.457,0,0,0,.413.756A1.2,1.2,0,0,0,.007-1.064Zm0-5.6a.946.946,0,0,0,.721-.294,1.6,1.6,0,0,0,.343-.721,4.215,4.215,0,0,0,.1-.917,2.577,2.577,0,0,0-.252-1.19.931.931,0,0,0-.91-.49.962.962,0,0,0-.924.49A2.464,2.464,0,0,0-1.183-8.6a4.215,4.215,0,0,0,.1.917,1.524,1.524,0,0,0,.357.721A.994.994,0,0,0,.007-6.664Z" transform="translate(895.502 4576.586)" fill="#464749"/>
    <path id="Path_3064" data-name="Path 3064" d="M-.078.117a2.959,2.959,0,0,1-1.4-.306,2.027,2.027,0,0,1-.877-.89A3.2,3.2,0,0,1-2.665-2.5v-.117h1.391A2.267,2.267,0,0,0-1.027-1.45a1.032,1.032,0,0,0,.962.41.921.921,0,0,0,.65-.24,1.5,1.5,0,0,0,.39-.741,5.156,5.156,0,0,0,.13-1.268v-1.6a1.428,1.428,0,0,1-.579.527,2.039,2.039,0,0,1-.955.2,2.175,2.175,0,0,1-1.365-.384,2.032,2.032,0,0,1-.7-1.066,5.646,5.646,0,0,1-.2-1.592,5.428,5.428,0,0,1,.26-1.736,2.553,2.553,0,0,1,.839-1.228,2.379,2.379,0,0,1,1.514-.455A2.286,2.286,0,0,1,1.4-10.16a2.653,2.653,0,0,1,.839,1.241,5.365,5.365,0,0,1,.266,1.742V-3.64a7.1,7.1,0,0,1-.234,1.872A2.817,2.817,0,0,1,1.482-.4,2.22,2.22,0,0,1-.078.117Zm0-5.33a1.154,1.154,0,0,0,.741-.227,1.761,1.761,0,0,0,.442-.5V-7.5A4.408,4.408,0,0,0,1-8.5a1.476,1.476,0,0,0-.364-.715.953.953,0,0,0-.715-.266A.962.962,0,0,0-.8-9.2a1.529,1.529,0,0,0-.377.708,3.882,3.882,0,0,0-.111.956,10.64,10.64,0,0,0,.059,1.157,1.624,1.624,0,0,0,.312.852A1.01,1.01,0,0,0-.078-5.213Z" transform="translate(967.234 4575.586)" fill="#464749"/>
    <path id="Path_3065" data-name="Path 3065" d="M-4.568,0V-10.72a2.452,2.452,0,0,1-.36.1q-.344.08-.776.16l-.768.144q-.336.064-.352.064v-1.3q.272-.064.632-.176A7.8,7.8,0,0,0-5.456-12a3.979,3.979,0,0,0,.72-.4,2.539,2.539,0,0,0,.584-.56h1.3V0ZM3.176.144a3.106,3.106,0,0,1-1.816-.5A2.934,2.934,0,0,1,.3-1.712,5.287,5.287,0,0,1-.04-3.68V-9.264A5.431,5.431,0,0,1,.3-11.256a2.8,2.8,0,0,1,1.048-1.336,3.214,3.214,0,0,1,1.832-.48A3.175,3.175,0,0,1,5-12.592a2.813,2.813,0,0,1,1.04,1.336,5.431,5.431,0,0,1,.336,1.992V-3.68A5.334,5.334,0,0,1,6.032-1.7,2.9,2.9,0,0,1,4.984-.344,3.106,3.106,0,0,1,3.176.144Zm0-1.408a1.165,1.165,0,0,0,.92-.352,1.962,1.962,0,0,0,.432-.9,5.371,5.371,0,0,0,.12-1.144V-9.28a5.908,5.908,0,0,0-.112-1.176,1.8,1.8,0,0,0-.424-.888,1.217,1.217,0,0,0-.936-.336,1.244,1.244,0,0,0-.944.336,1.763,1.763,0,0,0-.432.888A5.908,5.908,0,0,0,1.688-9.28v5.616a5.371,5.371,0,0,0,.12,1.144,1.881,1.881,0,0,0,.448.9A1.2,1.2,0,0,0,3.176-1.264Z" transform="translate(1038.924 4578.586)" fill="#464749"/>
    <path id="Path_3066" data-name="Path 3066" d="M-3.6,0V-10.72a2.452,2.452,0,0,1-.36.1q-.344.08-.776.16l-.768.144q-.336.064-.352.064v-1.3q.272-.064.632-.176A7.8,7.8,0,0,0-4.488-12a3.979,3.979,0,0,0,.72-.4,2.539,2.539,0,0,0,.584-.56h1.3V0ZM2.736,0V-10.72a2.452,2.452,0,0,1-.36.1q-.344.08-.776.16l-.768.144q-.336.064-.352.064v-1.3q.272-.064.632-.176A7.8,7.8,0,0,0,1.848-12a3.979,3.979,0,0,0,.72-.4,2.539,2.539,0,0,0,.584-.56h1.3V0Z" transform="translate(1110.632 4578.586)" fill="#464749"/>
    <path id="Path_3067" data-name="Path 3067" d="M-3.724,0V-9.38a2.146,2.146,0,0,1-.315.084q-.3.07-.679.14l-.672.126q-.294.056-.308.056v-1.134q.238-.056.553-.154A6.825,6.825,0,0,0-4.5-10.5a3.482,3.482,0,0,0,.63-.35,2.222,2.222,0,0,0,.511-.49h1.134V0ZM0,0V-1.064L2.884-5.558q.322-.5.6-.938a4.767,4.767,0,0,0,.448-.917A3.259,3.259,0,0,0,4.1-8.526,2.526,2.526,0,0,0,3.85-9.758a.926.926,0,0,0-.882-.448,1.117,1.117,0,0,0-.826.294,1.569,1.569,0,0,0-.406.77A4.454,4.454,0,0,0,1.624-8.12v.378H.126v-.392A5.053,5.053,0,0,1,.4-9.891a2.284,2.284,0,0,1,.882-1.141A2.872,2.872,0,0,1,2.9-11.438a2.557,2.557,0,0,1,2.044.777,3.178,3.178,0,0,1,.672,2.149,4.183,4.183,0,0,1-.175,1.274,5.046,5.046,0,0,1-.455,1.022q-.28.476-.616.98L1.764-1.26H5.348V0Z" transform="translate(1182.363 4576.586)" fill="#464749"/>
    <path id="Path_3070" data-name="Path 3070" d="M-3.717,0V-9.38a2.146,2.146,0,0,1-.315.084q-.3.07-.679.14l-.672.126q-.294.056-.308.056v-1.134q.238-.056.553-.154a6.825,6.825,0,0,0,.644-.238,3.482,3.482,0,0,0,.63-.35,2.222,2.222,0,0,0,.511-.49h1.134V0ZM2.765.126a3.081,3.081,0,0,1-1.54-.35A2.2,2.2,0,0,1,.3-1.232,3.635,3.635,0,0,1-.007-2.786v-.378H1.477q0,.056,0,.119t0,.133A4.1,4.1,0,0,0,1.6-2a1.239,1.239,0,0,0,.378.644,1.169,1.169,0,0,0,.791.238,1.177,1.177,0,0,0,.826-.259,1.335,1.335,0,0,0,.378-.735,5.452,5.452,0,0,0,.1-1.092,2.89,2.89,0,0,0-.329-1.463,1.335,1.335,0,0,0-1.155-.623.336.336,0,0,0-.1-.014H2.373V-6.8h.2a1.549,1.549,0,0,0,1.148-.42,1.941,1.941,0,0,0,.35-1.3,2.517,2.517,0,0,0-.259-1.232,1.074,1.074,0,0,0-1.029-.462,1.026,1.026,0,0,0-1.022.511A3.221,3.221,0,0,0,1.477-8.4q0,.056,0,.119t0,.119H-.007V-8.54A3.577,3.577,0,0,1,.3-10.094a2.206,2.206,0,0,1,.931-.994,3.122,3.122,0,0,1,1.547-.35,3.113,3.113,0,0,1,1.554.35,2.209,2.209,0,0,1,.924,1,3.624,3.624,0,0,1,.308,1.561,2.757,2.757,0,0,1-.441,1.638,2.193,2.193,0,0,1-1.183.84,1.941,1.941,0,0,1,.875.532,2.569,2.569,0,0,1,.553.959,4.228,4.228,0,0,1,.2,1.351,5.011,5.011,0,0,1-.28,1.757,2.342,2.342,0,0,1-.9,1.162A2.869,2.869,0,0,1,2.765.126Z" transform="translate(1254.094 4576.586)" fill="#464749"/>
    <path id="Path_3072" data-name="Path 3072" d="M-3.759,0V-9.38a2.146,2.146,0,0,1-.315.084q-.3.07-.679.14l-.672.126q-.294.056-.308.056v-1.134q.238-.056.553-.154a6.825,6.825,0,0,0,.644-.238,3.482,3.482,0,0,0,.63-.35,2.222,2.222,0,0,0,.511-.49h1.134V0Zm7,0V-3.038H-.049V-4.606L2.905-11.34H4.669v6.972H5.943v1.33H4.669V0ZM1.393-4.368H3.241V-9.52Z" transform="translate(1325.826 4576.586)" fill="#464749"/>
    <path id="Path_3074" data-name="Path 3074" d="M-3.71,0V-9.38a2.146,2.146,0,0,1-.315.084q-.3.07-.679.14l-.672.126q-.294.056-.308.056v-1.134q.238-.056.553-.154a6.825,6.825,0,0,0,.644-.238,3.482,3.482,0,0,0,.63-.35,2.222,2.222,0,0,0,.511-.49h1.134V0ZM2.842.112A2.945,2.945,0,0,1,1.218-.28,2.15,2.15,0,0,1,.357-1.414,5.366,5.366,0,0,1,.1-3.178H1.6a5.75,5.75,0,0,0,.084.987,1.612,1.612,0,0,0,.357.8,1.044,1.044,0,0,0,.833.315,1.028,1.028,0,0,0,.882-.357A1.972,1.972,0,0,0,4.088-2.4a12.18,12.18,0,0,0,.07-1.379,8.671,8.671,0,0,0-.084-1.309,1.535,1.535,0,0,0-.35-.826,1.1,1.1,0,0,0-.84-.287,1.137,1.137,0,0,0-.784.287,1.818,1.818,0,0,0-.476.651H.35V-11.34H5.236v1.5H1.708l-.1,3.136A1.963,1.963,0,0,1,2.3-7.168a2.492,2.492,0,0,1,.945-.168A2.209,2.209,0,0,1,4.7-6.9a2.328,2.328,0,0,1,.742,1.19,6.306,6.306,0,0,1,.217,1.736A9.759,9.759,0,0,1,5.53-2.359a3.928,3.928,0,0,1-.441,1.3A2.245,2.245,0,0,1,4.228-.2,2.8,2.8,0,0,1,2.842.112Z" transform="translate(1397.557 4576.586)" fill="#464749"/>
    <path id="Path_3077" data-name="Path 3077" d="M-4.456,0V-10.72a2.452,2.452,0,0,1-.36.1q-.344.08-.776.16l-.768.144q-.336.064-.352.064v-1.3q.272-.064.632-.176A7.8,7.8,0,0,0-5.344-12a3.979,3.979,0,0,0,.72-.4,2.539,2.539,0,0,0,.584-.56h1.3V0ZM3.256.144A2.814,2.814,0,0,1,1.432-.424,3.263,3.263,0,0,1,.4-1.96,6.676,6.676,0,0,1,.072-4.112V-8.48a8.622,8.622,0,0,1,.288-2.3,3.385,3.385,0,0,1,.984-1.664,2.761,2.761,0,0,1,1.912-.624,3.609,3.609,0,0,1,1.7.368,2.535,2.535,0,0,1,1.072,1.072A3.722,3.722,0,0,1,6.424-9.92a.661.661,0,0,0,.008.088.739.739,0,0,1,.008.1H4.712a2.782,2.782,0,0,0-.3-1.44,1.242,1.242,0,0,0-1.152-.5,1.17,1.17,0,0,0-.8.3,1.816,1.816,0,0,0-.5.9A6.038,6.038,0,0,0,1.784-8.9v1.968a1.877,1.877,0,0,1,.728-.648,2.471,2.471,0,0,1,1.16-.248,2.711,2.711,0,0,1,1.68.464,2.5,2.5,0,0,1,.864,1.3A6.808,6.808,0,0,1,6.472-4.08a6.7,6.7,0,0,1-.32,2.128A3.213,3.213,0,0,1,5.128-.424,2.892,2.892,0,0,1,3.256.144Zm0-1.424a1.194,1.194,0,0,0,.9-.328,1.868,1.868,0,0,0,.456-.872,4.875,4.875,0,0,0,.136-1.184,13.1,13.1,0,0,0-.072-1.424A2.043,2.043,0,0,0,4.3-6.136a1.239,1.239,0,0,0-1.04-.392,1.559,1.559,0,0,0-.64.128,1.709,1.709,0,0,0-.5.328,1.894,1.894,0,0,0-.336.424v1.936A5.146,5.146,0,0,0,1.92-2.5a1.875,1.875,0,0,0,.456.888A1.173,1.173,0,0,0,3.256-1.28Z" transform="translate(1469.313 4578.586)" fill="#464749"/>
    <path id="Path_3080" data-name="Path 3080" d="M-3.52,0V-10.72a2.452,2.452,0,0,1-.36.1q-.344.08-.776.16l-.768.144q-.336.064-.352.064v-1.3q.272-.064.632-.176A7.8,7.8,0,0,0-4.408-12a3.979,3.979,0,0,0,.72-.4,2.539,2.539,0,0,0,.584-.56h1.3V0ZM1.568,0,3.9-11.616H.432V-12.96H5.616v.832L3.216,0Z" transform="translate(1541.02 4578.586)" fill="#464749"/>
    <path id="Path_3082" data-name="Path 3082" d="M-4.424,0V-10.72a2.452,2.452,0,0,1-.36.1q-.344.08-.776.16l-.768.144q-.336.064-.352.064v-1.3q.272-.064.632-.176A7.8,7.8,0,0,0-5.312-12a3.979,3.979,0,0,0,.72-.4,2.539,2.539,0,0,0,.584-.56h1.3V0Zm7.6.144A3.355,3.355,0,0,1,1.3-.32,2.591,2.591,0,0,1,.288-1.64,5.86,5.86,0,0,1-.024-3.648,5.27,5.27,0,0,1,.088-4.8a3.121,3.121,0,0,1,.328-.872,2.85,2.85,0,0,1,.512-.656,4.3,4.3,0,0,1,.648-.5A3.356,3.356,0,0,1,.536-7.96a3.512,3.512,0,0,1-.4-1.768A4.514,4.514,0,0,1,.456-11.5a2.42,2.42,0,0,1,1-1.16,3.3,3.3,0,0,1,1.72-.408,3.212,3.212,0,0,1,1.7.408,2.446,2.446,0,0,1,.984,1.16,4.514,4.514,0,0,1,.32,1.776,3.561,3.561,0,0,1-.392,1.776,3.245,3.245,0,0,1-1.048,1.12,4.3,4.3,0,0,1,.648.5,2.85,2.85,0,0,1,.512.656A3.3,3.3,0,0,1,6.24-4.8a4.932,4.932,0,0,1,.12,1.152A5.86,5.86,0,0,1,6.048-1.64,2.606,2.606,0,0,1,5.04-.32,3.315,3.315,0,0,1,3.176.144Zm0-1.36a1.338,1.338,0,0,0,.96-.32A1.648,1.648,0,0,0,4.592-2.4a5.66,5.66,0,0,0,.12-1.216A4.638,4.638,0,0,0,4.576-4.76,1.9,1.9,0,0,0,4.1-5.64a1.237,1.237,0,0,0-.928-.344,1.282,1.282,0,0,0-.936.336,1.866,1.866,0,0,0-.488.872,4.459,4.459,0,0,0-.144,1.16A5.319,5.319,0,0,0,1.736-2.4a1.666,1.666,0,0,0,.472.864A1.368,1.368,0,0,0,3.176-1.216Zm0-6.4A1.081,1.081,0,0,0,4-7.952a1.828,1.828,0,0,0,.392-.824A4.818,4.818,0,0,0,4.5-9.824a2.945,2.945,0,0,0-.288-1.36,1.064,1.064,0,0,0-1.04-.56,1.1,1.1,0,0,0-1.056.56,2.816,2.816,0,0,0-.3,1.36,4.818,4.818,0,0,0,.112,1.048,1.742,1.742,0,0,0,.408.824A1.136,1.136,0,0,0,3.176-7.616Z" transform="translate(1612.776 4578.586)" fill="#464749"/>
    <path id="Path_3033" data-name="Path 3033" d="M-3.495.12A3.155,3.155,0,0,1-5.235-.3a2.3,2.3,0,0,1-.923-1.215,5.749,5.749,0,0,1-.278-1.89H-4.83a6.161,6.161,0,0,0,.09,1.058,1.727,1.727,0,0,0,.383.855,1.118,1.118,0,0,0,.892.337,1.1,1.1,0,0,0,.945-.383,2.113,2.113,0,0,0,.36-1.035A13.05,13.05,0,0,0-2.085-4.05a9.291,9.291,0,0,0-.09-1.4,1.645,1.645,0,0,0-.375-.885,1.174,1.174,0,0,0-.9-.308,1.218,1.218,0,0,0-.84.308,1.948,1.948,0,0,0-.51.7H-6.165v-6.51H-.93v1.605H-4.71l-.1,3.36a2.1,2.1,0,0,1,.742-.495A2.67,2.67,0,0,1-3.06-7.86,2.367,2.367,0,0,1-1.507-7.4a2.5,2.5,0,0,1,.8,1.275A6.757,6.757,0,0,1-.48-4.26,10.456,10.456,0,0,1-.615-2.528a4.209,4.209,0,0,1-.473,1.4A2.4,2.4,0,0,1-2.01-.21,3,3,0,0,1-3.495.12Z" transform="translate(338.058 4445.87)" fill="#464749"/>
    <path id="Path_3022" data-name="Path 3022" d="M-11.13,0V-10.05a2.3,2.3,0,0,1-.338.09q-.323.075-.727.15l-.72.135q-.315.06-.33.06V-10.83q.255-.06.593-.165a7.312,7.312,0,0,0,.69-.255,3.73,3.73,0,0,0,.675-.375,2.38,2.38,0,0,0,.547-.525h1.215V0Zm7.26.135a2.912,2.912,0,0,1-1.7-.465,2.751,2.751,0,0,1-.99-1.275A4.956,4.956,0,0,1-6.885-3.45V-8.685a5.092,5.092,0,0,1,.315-1.868,2.621,2.621,0,0,1,.983-1.253,3.013,3.013,0,0,1,1.717-.45,2.977,2.977,0,0,1,1.71.45,2.637,2.637,0,0,1,.975,1.253A5.092,5.092,0,0,1-.87-8.685V-3.45a5,5,0,0,1-.322,1.86A2.723,2.723,0,0,1-2.175-.323,2.912,2.912,0,0,1-3.87.135Zm0-1.32a1.092,1.092,0,0,0,.862-.33A1.84,1.84,0,0,0-2.6-2.363,5.035,5.035,0,0,0-2.49-3.435V-8.7a5.539,5.539,0,0,0-.105-1.1,1.686,1.686,0,0,0-.4-.833,1.141,1.141,0,0,0-.878-.315,1.166,1.166,0,0,0-.885.315A1.652,1.652,0,0,0-5.16-9.8a5.539,5.539,0,0,0-.1,1.1v5.265a5.035,5.035,0,0,0,.112,1.072,1.763,1.763,0,0,0,.42.848A1.121,1.121,0,0,0-3.87-1.185Z" transform="translate(336.976 4347.743)" fill="#464749"/>
    <path id="Path_3020" data-name="Path 3020" d="M-10.515,0V-10.05a2.3,2.3,0,0,1-.338.09q-.323.075-.727.15l-.72.135q-.315.06-.33.06V-10.83q.255-.06.593-.165a7.312,7.312,0,0,0,.69-.255,3.73,3.73,0,0,0,.675-.375,2.38,2.38,0,0,0,.547-.525H-8.91V0Zm7.02.12A3.155,3.155,0,0,1-5.235-.3a2.3,2.3,0,0,1-.923-1.215,5.749,5.749,0,0,1-.278-1.89H-4.83a6.161,6.161,0,0,0,.09,1.058,1.727,1.727,0,0,0,.383.855,1.118,1.118,0,0,0,.892.337,1.1,1.1,0,0,0,.945-.383,2.113,2.113,0,0,0,.36-1.035A13.05,13.05,0,0,0-2.085-4.05a9.291,9.291,0,0,0-.09-1.4,1.645,1.645,0,0,0-.375-.885,1.174,1.174,0,0,0-.9-.308,1.218,1.218,0,0,0-.84.308,1.948,1.948,0,0,0-.51.7H-6.165v-6.51H-.93v1.605H-4.71l-.1,3.36a2.1,2.1,0,0,1,.742-.495A2.67,2.67,0,0,1-3.06-7.86,2.367,2.367,0,0,1-1.507-7.4a2.5,2.5,0,0,1,.8,1.275A6.757,6.757,0,0,1-.48-4.26,10.456,10.456,0,0,1-.615-2.528a4.209,4.209,0,0,1-.473,1.4A2.4,2.4,0,0,1-2.01-.21,3,3,0,0,1-3.495.12Z" transform="translate(336.952 4249.616)" fill="#464749"/>
    <path id="Path_3018" data-name="Path 3018" d="M-14.31,0V-1.14l3.09-4.815q.345-.54.638-1a5.108,5.108,0,0,0,.48-.983,3.492,3.492,0,0,0,.187-1.193,2.706,2.706,0,0,0-.27-1.32.992.992,0,0,0-.945-.48,1.2,1.2,0,0,0-.885.315,1.681,1.681,0,0,0-.435.825,4.772,4.772,0,0,0-.12,1.1V-8.3h-1.6v-.42a5.414,5.414,0,0,1,.293-1.883,2.447,2.447,0,0,1,.945-1.222,3.077,3.077,0,0,1,1.733-.435,2.74,2.74,0,0,1,2.19.832,3.405,3.405,0,0,1,.72,2.3,4.481,4.481,0,0,1-.188,1.365A5.406,5.406,0,0,1-8.97-6.66q-.3.51-.66,1.05l-2.79,4.26h3.84V0ZM-3.87.135a2.912,2.912,0,0,1-1.7-.465,2.751,2.751,0,0,1-.99-1.275A4.956,4.956,0,0,1-6.885-3.45V-8.685a5.092,5.092,0,0,1,.315-1.868,2.621,2.621,0,0,1,.983-1.253,3.013,3.013,0,0,1,1.717-.45,2.977,2.977,0,0,1,1.71.45,2.637,2.637,0,0,1,.975,1.253A5.092,5.092,0,0,1-.87-8.685V-3.45a5,5,0,0,1-.322,1.86A2.723,2.723,0,0,1-2.175-.323,2.912,2.912,0,0,1-3.87.135Zm0-1.32a1.092,1.092,0,0,0,.862-.33A1.84,1.84,0,0,0-2.6-2.363,5.035,5.035,0,0,0-2.49-3.435V-8.7a5.539,5.539,0,0,0-.105-1.1,1.686,1.686,0,0,0-.4-.833,1.141,1.141,0,0,0-.878-.315,1.166,1.166,0,0,0-.885.315,1.652,1.652,0,0,0-.4.833,5.539,5.539,0,0,0-.105,1.1v5.265a5.035,5.035,0,0,0,.112,1.072,1.763,1.763,0,0,0,.42.848A1.121,1.121,0,0,0-3.87-1.185Z" transform="translate(337 4151.489)" fill="#464749"/>
    <path id="Path_3014" data-name="Path 3014" d="M-13.695,0V-1.14l3.09-4.815q.345-.54.638-1a5.108,5.108,0,0,0,.48-.983A3.492,3.492,0,0,0-9.3-9.135a2.706,2.706,0,0,0-.27-1.32.992.992,0,0,0-.945-.48,1.2,1.2,0,0,0-.885.315,1.681,1.681,0,0,0-.435.825,4.772,4.772,0,0,0-.12,1.1V-8.3h-1.6v-.42a5.414,5.414,0,0,1,.293-1.883,2.447,2.447,0,0,1,.945-1.222,3.077,3.077,0,0,1,1.733-.435,2.74,2.74,0,0,1,2.19.832,3.405,3.405,0,0,1,.72,2.3,4.481,4.481,0,0,1-.188,1.365A5.406,5.406,0,0,1-8.355-6.66q-.3.51-.66,1.05L-11.8-1.35h3.84V0Zm10.2.12A3.155,3.155,0,0,1-5.235-.3a2.3,2.3,0,0,1-.923-1.215,5.749,5.749,0,0,1-.278-1.89H-4.83a6.161,6.161,0,0,0,.09,1.058,1.727,1.727,0,0,0,.383.855,1.118,1.118,0,0,0,.892.337,1.1,1.1,0,0,0,.945-.383,2.113,2.113,0,0,0,.36-1.035A13.05,13.05,0,0,0-2.085-4.05a9.291,9.291,0,0,0-.09-1.4,1.645,1.645,0,0,0-.375-.885,1.174,1.174,0,0,0-.9-.308,1.218,1.218,0,0,0-.84.308,1.948,1.948,0,0,0-.51.7H-6.165v-6.51H-.93v1.605H-4.71l-.105,3.36a2.1,2.1,0,0,1,.743-.495A2.67,2.67,0,0,1-3.06-7.86,2.367,2.367,0,0,1-1.507-7.4a2.5,2.5,0,0,1,.8,1.275A6.757,6.757,0,0,1-.48-4.26,10.456,10.456,0,0,1-.615-2.528a4.209,4.209,0,0,1-.473,1.4A2.4,2.4,0,0,1-2.01-.21,3,3,0,0,1-3.495.12Z" transform="translate(337 4053)" fill="#464749"/>
    <path id="Path_3013" data-name="Path 3013" d="M-11.34.135A3.3,3.3,0,0,1-12.99-.24a2.36,2.36,0,0,1-.99-1.08,3.9,3.9,0,0,1-.33-1.665v-.4h1.59v.27a4.388,4.388,0,0,0,.127.975,1.328,1.328,0,0,0,.4.69,1.253,1.253,0,0,0,.847.255,1.261,1.261,0,0,0,.885-.278,1.431,1.431,0,0,0,.405-.788,5.842,5.842,0,0,0,.1-1.17A3.1,3.1,0,0,0-10.3-5a1.431,1.431,0,0,0-1.238-.667.36.36,0,0,0-.112-.015h-.113V-7.29h.21a1.659,1.659,0,0,0,1.23-.45,2.08,2.08,0,0,0,.375-1.395,2.7,2.7,0,0,0-.278-1.32,1.151,1.151,0,0,0-1.1-.5,1.1,1.1,0,0,0-1.1.548,3.451,3.451,0,0,0-.3,1.4v.255h-1.59V-9.15a3.832,3.832,0,0,1,.33-1.665,2.364,2.364,0,0,1,1-1.065,3.345,3.345,0,0,1,1.658-.375,3.335,3.335,0,0,1,1.665.375,2.367,2.367,0,0,1,.99,1.073,3.883,3.883,0,0,1,.33,1.673A2.954,2.954,0,0,1-8.812-7.38a2.349,2.349,0,0,1-1.267.9,2.079,2.079,0,0,1,.937.57A2.753,2.753,0,0,1-8.55-4.883a4.53,4.53,0,0,1,.21,1.447,5.369,5.369,0,0,1-.3,1.883A2.51,2.51,0,0,1-9.6-.308,3.074,3.074,0,0,1-11.34.135Zm7.47,0a2.912,2.912,0,0,1-1.7-.465,2.751,2.751,0,0,1-.99-1.275A4.956,4.956,0,0,1-6.885-3.45V-8.685a5.092,5.092,0,0,1,.315-1.868,2.621,2.621,0,0,1,.983-1.253,3.013,3.013,0,0,1,1.717-.45,2.977,2.977,0,0,1,1.71.45,2.637,2.637,0,0,1,.975,1.253A5.092,5.092,0,0,1-.87-8.685V-3.45a5,5,0,0,1-.322,1.86A2.723,2.723,0,0,1-2.175-.323,2.912,2.912,0,0,1-3.87.135Zm0-1.32a1.092,1.092,0,0,0,.862-.33A1.84,1.84,0,0,0-2.6-2.363,5.035,5.035,0,0,0-2.49-3.435V-8.7a5.539,5.539,0,0,0-.105-1.1,1.686,1.686,0,0,0-.4-.833,1.141,1.141,0,0,0-.878-.315,1.166,1.166,0,0,0-.885.315,1.652,1.652,0,0,0-.4.833,5.539,5.539,0,0,0-.105,1.1v5.265a5.035,5.035,0,0,0,.112,1.072,1.763,1.763,0,0,0,.42.848A1.121,1.121,0,0,0-3.87-1.185Z" transform="translate(337 3953)" fill="#464749"/>
    <path id="Path_2760" data-name="Path 2760" d="M215.432,257.185H1474.016M215.432,355.851H1474.016M215.432,454.517H1474.016M215.432,553.183H1474.016M215.432,650.176H1474.016" transform="translate(143.1 3787.714)" fill="none" stroke="#d1d0d0" stroke-linejoin="round" stroke-width="1"/>
    <path id="Path_3081" data-name="Path 3081" d="M0,0H10.034V35.118H0Z" transform="translate(1519.947 4500.601)" fill="#afb0b2"/>
    <path id="Path_3078" data-name="Path 3078" d="M0,0H10.034V68.564H0Z" transform="translate(1448.038 4468.826)" fill="#afb0b2"/>
    <path id="Path_3073" data-name="Path 3073" d="M0,0H10.034V31.774H0Z" transform="translate(1376.128 4505.617)" fill="#afb0b2"/>
    <path id="Path_3071" data-name="Path 3071" d="M0,0H10.034V130.44H0Z" transform="translate(1304.219 4406.951)" fill="#afb0b2"/>
    <path id="Path_3068" data-name="Path 3068" d="M0,0H10.034V45.152H0Z" transform="translate(1232.31 4492.239)" fill="#afb0b2"/>
    <path id="Path_3050" data-name="Path 3050" d="M0,0H10.034V125.423H0Z" transform="translate(1160.401 4411.969)" fill="#afb0b2"/>
    <path id="Path_3036" data-name="Path 3036" d="M0,0H10.034V75.254H0Z" transform="translate(1088.492 4462.138)" fill="#afb0b2"/>
    <path id="Path_3034" data-name="Path 3034" d="M0,0H10.034V125.423H0Z" transform="translate(1016.583 4411.969)" fill="#afb0b2"/>
    <path id="Path_3029" data-name="Path 3029" d="M0,0H10.034V128.767H0Z" transform="translate(944.674 4408.624)" fill="#afb0b2"/>
    <path id="Path_3025" data-name="Path 3025" d="M0,0H10.034V205.693H0Z" transform="translate(872.765 4331.697)" fill="#afb0b2"/>
    <path id="Path_3028" data-name="Path 3028" d="M0,0H10.034V165.558H0Z" transform="translate(800.856 4371.833)" fill="#afb0b2"/>
    <path id="Path_3027" data-name="Path 3027" d="M0,0H10.034V180.848H0Z" transform="translate(728.947 4356.543)" fill="#afb0b2"/>
    <path id="Path_3026" data-name="Path 3026" d="M0,0H10.034V187.654H0Z" transform="translate(657.038 4349.737)" fill="#afb0b2"/>
    <path id="Path_3024" data-name="Path 3024" d="M0,0H10.034V194.382H0Z" transform="translate(585.129 4343.009)" fill="#afb0b2"/>
    <path id="Path_3023" data-name="Path 3023" d="M0,0H10.034V198.582H0Z" transform="translate(513.22 4338.809)" fill="#afb0b2"/>
    <path id="Path_3021" data-name="Path 3021" d="M0,0H10.034V228.451H0Z" transform="translate(441.311 4308.941)" fill="#afb0b2"/>
    <path id="Path_3015" data-name="Path 3015" d="M0,0H10.034V531.592H0Z" transform="translate(369.402 4005.799)" fill="#afb0b2"/>
    <path id="Path_3079" data-name="Path 3079" d="M0,0H11.706V68.564H0Z" transform="translate(1460.677 4468.826)" fill="#ff9e1a"/>
    <path id="Path_3075" data-name="Path 3075" d="M0,0H10.034V65.22H0Z" transform="translate(1388.671 4472.172)" fill="#ff9e1a"/>
    <path id="Path_3069" data-name="Path 3069" d="M0,0H10.034V23.412H0Z" transform="translate(1245.501 4513.979)" fill="#ff9e1a"/>
    <path id="Path_3044" data-name="Path 3044" d="M0,0H10.034V38.463H0Z" transform="translate(1101.871 4498.928)" fill="#ff9e1a"/>
    <path id="Path_3045" data-name="Path 3045" d="M0,0H10.034V36.791H0Z" transform="translate(1029.125 4500.601)" fill="#ff9e1a"/>
    <path id="Path_3041" data-name="Path 3041" d="M0,0H10.034V48.5H0Z" transform="translate(957.217 4488.895)" fill="#ff9e1a"/>
    <path id="Path_3051" data-name="Path 3051" d="M0,0H10.034V13.378H0Z" transform="translate(814.235 4524.013)" fill="#ff9e1a"/>
    <path id="Path_3043" data-name="Path 3043" d="M0,0H10.034V43.48H0Z" transform="translate(885.307 4493.911)" fill="#ff9e1a"/>
    <path id="Path_3052" data-name="Path 3052" d="M0,0H10.034V11.706H0Z" transform="translate(741.489 4524.013)" fill="#ff9e1a"/>
    <path id="Path_3042" data-name="Path 3042" d="M0,0H10.034V55.186H0Z" transform="translate(669.58 4482.205)" fill="#ff9e1a"/>
    <path id="Path_3038" data-name="Path 3038" d="M0,0H10.034V56.858H0Z" transform="translate(597.671 4480.533)" fill="#ff9e1a"/>
    <path id="Path_3039" data-name="Path 3039" d="M0,0H10.034V63.548H0Z" transform="translate(525.762 4473.844)" fill="#ff9e1a"/>
    <path id="Path_3030" data-name="Path 3030" d="M0,0H10.034V125.423H0Z" transform="translate(453.853 4411.969)" fill="#ff9e1a"/>
    <path id="Path_3016" data-name="Path 3016" d="M0,0H10.034V531.592H0Z" transform="translate(382.78 4005.799)" fill="#ff9e1a"/>
    <path id="Path_3076" data-name="Path 3076" d="M0,0H10.034V31.774H0Z" transform="translate(1401.213 4505.617)" fill="#bf9bcd"/>
    <path id="Path_3055" data-name="Path 3055" d="M0,0H10.034V61.875H0Z" transform="translate(1185.486 4475.516)" fill="#bf9bcd"/>
    <path id="Path_3037" data-name="Path 3037" d="M0,0H11.706V70.237H0Z" transform="translate(1041.668 4467.154)" fill="#bf9bcd"/>
    <path id="Path_3046" data-name="Path 3046" d="M0,0H11.706V31.774H0Z" transform="translate(969.759 4505.617)" fill="#bf9bcd"/>
    <path id="Path_3047" data-name="Path 3047" d="M0,0H11.706V31.774H0Z" transform="translate(897.85 4505.617)" fill="#bf9bcd"/>
    <path id="Path_3048" data-name="Path 3048" d="M0,0H11.706V26.757H0Z" transform="translate(825.941 4510.635)" fill="#bf9bcd"/>
    <path id="Path_3053" data-name="Path 3053" d="M0,0H11.706V13.378H0Z" transform="translate(754.032 4524.013)" fill="#bf9bcd"/>
    <path id="Path_3040" data-name="Path 3040" d="M0,0H11.706V65.22H0Z" transform="translate(682.123 4472.172)" fill="#bf9bcd"/>
    <path id="Path_3035" data-name="Path 3035" d="M0,0H11.706V96.994H0Z" transform="translate(610.213 4440.397)" fill="#bf9bcd"/>
    <path id="Path_3031" data-name="Path 3031" d="M0,0H11.706V120.406H0Z" transform="translate(538.304 4416.985)" fill="#bf9bcd"/>
    <path id="Path_3032" data-name="Path 3032" d="M0,0H11.706V132.112H0Z" transform="translate(466.396 4405.279)" fill="#bf9bcd"/>
    <path id="Path_3019" data-name="Path 3019" d="M0,0H10.034V416.4H0Z" transform="translate(396.159 4120.988)" fill="#bf9bcd"/>
    <path id="Path_2761" data-name="Path 2761" d="M1036.932,566.249h10.034v21.74h-10.034Zm-71.909,1.672h10.034v20.068H965.023ZM821.2,569.594h10.034v18.4H821.2ZM749.3,556.216h10.034v31.774H749.3Zm-71.909-10.034H687.42v41.808H677.386Zm-71.909,6.689h10.034v35.118H605.477Zm-71.909-11.706H543.6v46.825H533.568Zm-71.909-30.1h10.034v76.926H461.659ZM389.75,497.685h10.034v90.3H389.75Zm-71.909,1.672h10.034v88.632H317.841Zm-71.909,25.085h10.034v63.548H245.932Z" transform="translate(163.605 3949.402)" fill="#823695"/>
    <path id="Path_3017" data-name="Path 3017" d="M0,0H1258.584" transform="translate(358.532 3946.232)" fill="none" stroke="#d1d0d0" stroke-width="1"/>
    <path id="Path_2762" data-name="Path 2762" d="M945.5,568.665v-43.48h10.034v43.48" transform="translate(633.93 3967.891)" fill="#afb0b2"/>
    <path id="Path_3054" data-name="Path 3054" d="M0,0H10.034V20.068H0Z" transform="translate(1172.944 4516.487)" fill="#ff9e1a"/>
    <path id="Path_2763" data-name="Path 2763" d="M788.82,571.354V521.185h10.034v50.169" transform="translate(528.59 3965.201)" fill="#ff9e1a"/>
    <path id="Path_2764" data-name="Path 2764" d="M953.51,568.665v-43.48h11.706v43.48" transform="translate(639.313 3967.891)" fill="#ff9e1a"/>
    <path id="Path_2765" data-name="Path 2765" d="M761.242,567.492V525.685h10.034v41.808" transform="translate(510.05 3968.227)" fill="#692489"/>
    <path id="Path_2766" data-name="Path 2766" d="M846.432,564.458V532.685h10.034v31.774" transform="translate(567.323 3972.933)" fill="#692489"/>
    <g id="Group_1653" data-name="Group 1653" transform="translate(358.532 4536.555)">
      <line id="Line_1064" data-name="Line 1064" x2="1258.584" fill="none" stroke="#d1d0d0" stroke-linejoin="round" stroke-width="1"/>
    </g>
    <path id="Path_2998" data-name="Path 2998" d="M226.46,7.08h3.1V24h-3.1Zm13.416,4.9a3.922,3.922,0,0,1,3.144,1.2,5.442,5.442,0,0,1,1.032,3.624V24h-3V16.968a3.111,3.111,0,0,0-.516-1.992,1.983,1.983,0,0,0-1.62-.624,2.738,2.738,0,0,0-2.076.816,3.029,3.029,0,0,0-.78,2.184V24h-3V12.264h2.928v1.752A4.059,4.059,0,0,1,237.6,12.5,4.839,4.839,0,0,1,239.876,11.976Zm12.7,12.216a6.561,6.561,0,0,1-3.2-.744,5.033,5.033,0,0,1-2.076-2.112,6.758,6.758,0,0,1-.72-3.192,6.7,6.7,0,0,1,.756-3.228,5.3,5.3,0,0,1,2.148-2.172,6.549,6.549,0,0,1,3.216-.768,7.654,7.654,0,0,1,2.436.4,5.132,5.132,0,0,1,1.908,1.068l-.864,2.112a5.7,5.7,0,0,0-1.572-.912,4.637,4.637,0,0,0-1.644-.312,3.074,3.074,0,0,0-2.424.972,4.077,4.077,0,0,0-.864,2.8,4.038,4.038,0,0,0,.864,2.772,3.074,3.074,0,0,0,2.424.972,4.637,4.637,0,0,0,1.644-.312,5.7,5.7,0,0,0,1.572-.912l.864,2.088a5.412,5.412,0,0,1-1.968,1.092A7.913,7.913,0,0,1,252.572,24.192Zm6.48-11.928h3V24h-3ZM262.2,6.816V9.768h-3.312V6.816Zm14.4.264V24H273.62V22.1A3.757,3.757,0,0,1,272.1,23.64a4.6,4.6,0,0,1-2.268.552,4.864,4.864,0,0,1-2.7-.768,5.093,5.093,0,0,1-1.848-2.172,7.506,7.506,0,0,1-.66-3.228,7.268,7.268,0,0,1,.66-3.192,4.845,4.845,0,0,1,4.548-2.856,4.7,4.7,0,0,1,2.256.528,3.663,3.663,0,0,1,1.512,1.488V7.08ZM270.62,21.864a2.668,2.668,0,0,0,2.22-.984,4.428,4.428,0,0,0,.78-2.808,4.376,4.376,0,0,0-.78-2.8,2.655,2.655,0,0,0-2.2-.972,2.732,2.732,0,0,0-2.232.96,4.235,4.235,0,0,0-.792,2.76,4.484,4.484,0,0,0,.792,2.832A2.649,2.649,0,0,0,270.62,21.864Zm19.488-3.192h-7.992A3.649,3.649,0,0,0,283.1,21.1a3.366,3.366,0,0,0,2.4.792,5.659,5.659,0,0,0,3.552-1.248l.864,2.064a6.3,6.3,0,0,1-2.052,1.08,7.882,7.882,0,0,1-2.484.408,6.223,6.223,0,0,1-4.548-1.632,5.958,5.958,0,0,1-1.668-4.464,6.849,6.849,0,0,1,.72-3.192,5.235,5.235,0,0,1,2.028-2.16,5.743,5.743,0,0,1,2.964-.768,4.891,4.891,0,0,1,3.828,1.56,6.189,6.189,0,0,1,1.4,4.3Zm-5.16-4.584a2.546,2.546,0,0,0-1.932.768,3.735,3.735,0,0,0-.9,2.208h5.424a3.422,3.422,0,0,0-.72-2.22A2.375,2.375,0,0,0,284.948,14.088Zm14.544-2.112a3.922,3.922,0,0,1,3.144,1.2,5.442,5.442,0,0,1,1.032,3.624V24h-3V16.968a3.112,3.112,0,0,0-.516-1.992,1.983,1.983,0,0,0-1.62-.624,2.738,2.738,0,0,0-2.076.816,3.029,3.029,0,0,0-.78,2.184V24h-3V12.264H295.6v1.752a4.059,4.059,0,0,1,1.608-1.512A4.839,4.839,0,0,1,299.492,11.976Zm12.7,12.216a6.561,6.561,0,0,1-3.2-.744,5.033,5.033,0,0,1-2.076-2.112,6.757,6.757,0,0,1-.72-3.192,6.7,6.7,0,0,1,.756-3.228,5.3,5.3,0,0,1,2.148-2.172,6.549,6.549,0,0,1,3.216-.768,7.654,7.654,0,0,1,2.436.4,5.132,5.132,0,0,1,1.908,1.068l-.864,2.112a5.7,5.7,0,0,0-1.572-.912,4.637,4.637,0,0,0-1.644-.312,3.074,3.074,0,0,0-2.424.972,4.076,4.076,0,0,0-.864,2.8,4.038,4.038,0,0,0,.864,2.772,3.074,3.074,0,0,0,2.424.972,4.637,4.637,0,0,0,1.644-.312,5.7,5.7,0,0,0,1.572-.912l.864,2.088a5.412,5.412,0,0,1-1.968,1.092A7.913,7.913,0,0,1,312.188,24.192Zm16.776-5.52h-7.992a3.649,3.649,0,0,0,.984,2.424,3.366,3.366,0,0,0,2.4.792,5.659,5.659,0,0,0,3.552-1.248l.864,2.064a6.3,6.3,0,0,1-2.052,1.08,7.882,7.882,0,0,1-2.484.408,6.223,6.223,0,0,1-4.548-1.632A5.958,5.958,0,0,1,318.02,18.1a6.849,6.849,0,0,1,.72-3.192,5.235,5.235,0,0,1,2.028-2.16,5.743,5.743,0,0,1,2.964-.768,4.891,4.891,0,0,1,3.828,1.56,6.189,6.189,0,0,1,1.4,4.3Zm-5.16-4.584a2.546,2.546,0,0,0-1.932.768,3.735,3.735,0,0,0-.9,2.208H326.4a3.422,3.422,0,0,0-.72-2.22A2.375,2.375,0,0,0,323.8,14.088Zm19.7,10.1a6.457,6.457,0,0,1-3.156-.744,5.148,5.148,0,0,1-2.1-2.136,6.772,6.772,0,0,1-.744-3.24,6.7,6.7,0,0,1,.744-3.228,5.166,5.166,0,0,1,2.1-2.124,7.066,7.066,0,0,1,6.312,0,5.09,5.09,0,0,1,2.088,2.124,6.791,6.791,0,0,1,.732,3.228,6.863,6.863,0,0,1-.732,3.24,5.074,5.074,0,0,1-2.088,2.136A6.457,6.457,0,0,1,343.508,24.192Zm-.024-2.328a2.69,2.69,0,0,0,2.232-.96,4.46,4.46,0,0,0,.768-2.832,4.469,4.469,0,0,0-.768-2.82,2.648,2.648,0,0,0-2.208-.972,2.682,2.682,0,0,0-2.22.972,4.419,4.419,0,0,0-.78,2.82,4.46,4.46,0,0,0,.768,2.832A2.662,2.662,0,0,0,343.484,21.864Zm12.336-9.6h3.1V14.52h-3.1V24h-3V14.52h-2.256V12.264h2.256a5.061,5.061,0,0,1,1.308-3.792A6.131,6.131,0,0,1,358.2,7.056l1.176-.072.192,2.232-1.128.048a3.15,3.15,0,0,0-2.016.636,2.389,2.389,0,0,0-.6,1.812ZM378.668,7.08V24h-2.976V22.1a3.757,3.757,0,0,1-1.524,1.536,4.6,4.6,0,0,1-2.268.552,4.864,4.864,0,0,1-2.7-.768,5.093,5.093,0,0,1-1.848-2.172,7.506,7.506,0,0,1-.66-3.228,7.268,7.268,0,0,1,.66-3.192,4.845,4.845,0,0,1,4.548-2.856,4.7,4.7,0,0,1,2.256.528,3.663,3.663,0,0,1,1.512,1.488V7.08Zm-5.976,14.784a2.668,2.668,0,0,0,2.22-.984,4.428,4.428,0,0,0,.78-2.808,4.376,4.376,0,0,0-.78-2.8,2.655,2.655,0,0,0-2.2-.972,2.732,2.732,0,0,0-2.232.96,4.235,4.235,0,0,0-.792,2.76,4.484,4.484,0,0,0,.792,2.832A2.649,2.649,0,0,0,372.692,21.864Zm9.192-9.6h3V24h-3Zm3.144-5.448V9.768h-3.312V6.816Zm8.112,5.16a5,5,0,0,1,3.672,1.2,5.035,5.035,0,0,1,1.2,3.7V24h-2.856V22.2a3.131,3.131,0,0,1-1.284,1.464,3.851,3.851,0,0,1-2.028.528,4.709,4.709,0,0,1-2.136-.48,3.8,3.8,0,0,1-1.512-1.32,3.335,3.335,0,0,1-.552-1.872,2.965,2.965,0,0,1,.66-2.04,3.966,3.966,0,0,1,2.148-1.08,19.561,19.561,0,0,1,4.1-.336h.6v-.552a2.412,2.412,0,0,0-.516-1.728,2.331,2.331,0,0,0-1.716-.528,6.456,6.456,0,0,0-1.956.324,9.891,9.891,0,0,0-2,.9l-.84-2.064a10.288,10.288,0,0,1,5.016-1.44Zm-.7,10.056a2.563,2.563,0,0,0,1.956-.8,2.908,2.908,0,0,0,.756-2.076v-.5h-.432a16.556,16.556,0,0,0-2.5.144,2.423,2.423,0,0,0-1.272.5,1.283,1.283,0,0,0-.384.984,1.646,1.646,0,0,0,.528,1.26A1.894,1.894,0,0,0,392.444,22.032Zm16.464-7.56-1.752.168q-2.976.312-2.976,3.024V24h-3V12.264h2.856v2.064a3.992,3.992,0,0,1,3.768-2.3l.912-.072Zm9.312,0-1.752.168q-2.976.312-2.976,3.024V24h-3V12.264h2.856v2.064a3.992,3.992,0,0,1,3.768-2.3l.912-.072Zm8.4-2.5a3.922,3.922,0,0,1,3.144,1.2A5.442,5.442,0,0,1,430.8,16.8V24h-3V16.968a3.112,3.112,0,0,0-.516-1.992,1.983,1.983,0,0,0-1.62-.624,2.738,2.738,0,0,0-2.076.816,3.029,3.029,0,0,0-.78,2.184V24h-3V7.08h3V13.9a3.929,3.929,0,0,1,1.6-1.428A4.944,4.944,0,0,1,426.62,11.976Zm17.64,6.7h-7.992a3.649,3.649,0,0,0,.984,2.424,3.366,3.366,0,0,0,2.4.792A5.659,5.659,0,0,0,443.2,20.64l.864,2.064a6.3,6.3,0,0,1-2.052,1.08,7.882,7.882,0,0,1-2.484.408,6.223,6.223,0,0,1-4.548-1.632,5.958,5.958,0,0,1-1.668-4.464,6.849,6.849,0,0,1,.72-3.192,5.235,5.235,0,0,1,2.028-2.16,5.743,5.743,0,0,1,2.964-.768,4.891,4.891,0,0,1,3.828,1.56,6.189,6.189,0,0,1,1.4,4.3Zm-5.16-4.584a2.546,2.546,0,0,0-1.932.768,3.735,3.735,0,0,0-.9,2.208h5.424a3.422,3.422,0,0,0-.72-2.22A2.375,2.375,0,0,0,439.1,14.088Zm12.768-2.112a5,5,0,0,1,3.672,1.2,5.035,5.035,0,0,1,1.2,3.7V24h-2.856V22.2a3.131,3.131,0,0,1-1.284,1.464,3.851,3.851,0,0,1-2.028.528,4.709,4.709,0,0,1-2.136-.48,3.8,3.8,0,0,1-1.512-1.32,3.335,3.335,0,0,1-.552-1.872,2.965,2.965,0,0,1,.66-2.04,3.966,3.966,0,0,1,2.148-1.08,19.561,19.561,0,0,1,4.1-.336h.6v-.552a2.412,2.412,0,0,0-.516-1.728,2.331,2.331,0,0,0-1.716-.528,6.456,6.456,0,0,0-1.956.324,9.891,9.891,0,0,0-2,.9l-.84-2.064a10.288,10.288,0,0,1,5.016-1.44Zm-.7,10.056a2.563,2.563,0,0,0,1.956-.8,2.908,2.908,0,0,0,.756-2.076v-.5h-.432a16.556,16.556,0,0,0-2.5.144,2.423,2.423,0,0,0-1.272.5,1.283,1.283,0,0,0-.384.984,1.646,1.646,0,0,0,.528,1.26A1.894,1.894,0,0,0,451.172,22.032ZM463,20.688v2.184a5.76,5.76,0,0,1-.432,2.268,6.626,6.626,0,0,1-1.464,2.052l-1.224-.96A4.5,4.5,0,0,0,461.18,24h-1.536V20.688Zm16.416-8.712a3.922,3.922,0,0,1,3.144,1.2A5.442,5.442,0,0,1,483.6,16.8V24h-3V16.968a3.112,3.112,0,0,0-.516-1.992,1.983,1.983,0,0,0-1.62-.624,2.738,2.738,0,0,0-2.076.816,3.029,3.029,0,0,0-.78,2.184V24h-3V12.264h2.928v1.752A4.059,4.059,0,0,1,477.14,12.5,4.839,4.839,0,0,1,479.42,11.976Zm12.384,0a5,5,0,0,1,3.672,1.2,5.035,5.035,0,0,1,1.2,3.7V24H493.82V22.2a3.131,3.131,0,0,1-1.284,1.464,3.851,3.851,0,0,1-2.028.528,4.709,4.709,0,0,1-2.136-.48,3.8,3.8,0,0,1-1.512-1.32,3.335,3.335,0,0,1-.552-1.872,2.965,2.965,0,0,1,.66-2.04,3.966,3.966,0,0,1,2.148-1.08,19.561,19.561,0,0,1,4.1-.336h.6v-.552a2.412,2.412,0,0,0-.516-1.728,2.331,2.331,0,0,0-1.716-.528,6.456,6.456,0,0,0-1.956.324,9.891,9.891,0,0,0-2,.9l-.84-2.064a10.288,10.288,0,0,1,5.016-1.44Zm-.7,10.056a2.563,2.563,0,0,0,1.956-.8,2.908,2.908,0,0,0,.756-2.076v-.5h-.432a16.556,16.556,0,0,0-2.5.144,2.423,2.423,0,0,0-1.272.5,1.283,1.283,0,0,0-.384.984,1.646,1.646,0,0,0,.528,1.26A1.894,1.894,0,0,0,491.108,22.032Zm19.512-9.768V24h-2.928V22.2a3.823,3.823,0,0,1-1.488,1.476,4.3,4.3,0,0,1-2.112.516q-4.32,0-4.32-4.848v-7.08h3v7.1a2.832,2.832,0,0,0,.5,1.848,1.955,1.955,0,0,0,1.584.6,2.583,2.583,0,0,0,2-.828,3.13,3.13,0,0,0,.756-2.2V12.264Zm7.56,11.928a10.151,10.151,0,0,1-2.868-.384,6.49,6.49,0,0,1-2.22-1.1l.84-2.088a7.092,7.092,0,0,0,4.3,1.368,3,3,0,0,0,1.572-.336,1.068,1.068,0,0,0,.54-.96.972.972,0,0,0-.372-.816,3.83,3.83,0,0,0-1.332-.528l-1.92-.432a4.721,4.721,0,0,1-2.424-1.176,2.905,2.905,0,0,1-.792-2.112,3.125,3.125,0,0,1,.612-1.908,3.953,3.953,0,0,1,1.7-1.284,6.53,6.53,0,0,1,2.532-.456,7.649,7.649,0,0,1,2.412.384,6.692,6.692,0,0,1,2.052,1.08l-.84,2.04a6.2,6.2,0,0,0-3.648-1.32,2.8,2.8,0,0,0-1.536.36,1.139,1.139,0,0,0-.552,1.008,1.017,1.017,0,0,0,.348.792,2.468,2.468,0,0,0,1.116.48l1.992.456a5.069,5.069,0,0,1,2.568,1.212,2.961,2.961,0,0,1,.816,2.172,3.041,3.041,0,0,1-1.32,2.592A5.962,5.962,0,0,1,518.18,24.192Zm17.736-5.52h-7.992a3.649,3.649,0,0,0,.984,2.424,3.366,3.366,0,0,0,2.4.792,5.659,5.659,0,0,0,3.552-1.248l.864,2.064a6.3,6.3,0,0,1-2.052,1.08,7.882,7.882,0,0,1-2.484.408,6.223,6.223,0,0,1-4.548-1.632,5.958,5.958,0,0,1-1.668-4.464,6.848,6.848,0,0,1,.72-3.192,5.235,5.235,0,0,1,2.028-2.16,5.744,5.744,0,0,1,2.964-.768,4.891,4.891,0,0,1,3.828,1.56,6.189,6.189,0,0,1,1.4,4.3Zm-5.16-4.584a2.546,2.546,0,0,0-1.932.768,3.735,3.735,0,0,0-.9,2.208h5.424a3.422,3.422,0,0,0-.72-2.22A2.375,2.375,0,0,0,530.756,14.088Zm12.768-2.112a5,5,0,0,1,3.672,1.2,5.035,5.035,0,0,1,1.2,3.7V24H545.54V22.2a3.131,3.131,0,0,1-1.284,1.464,3.851,3.851,0,0,1-2.028.528,4.709,4.709,0,0,1-2.136-.48,3.8,3.8,0,0,1-1.512-1.32,3.335,3.335,0,0,1-.552-1.872,2.965,2.965,0,0,1,.66-2.04,3.966,3.966,0,0,1,2.148-1.08,19.561,19.561,0,0,1,4.1-.336h.6v-.552a2.412,2.412,0,0,0-.516-1.728,2.331,2.331,0,0,0-1.716-.528,6.456,6.456,0,0,0-1.956.324,9.892,9.892,0,0,0-2,.9l-.84-2.064a10.288,10.288,0,0,1,5.016-1.44Zm-.7,10.056a2.563,2.563,0,0,0,1.956-.8,2.908,2.908,0,0,0,.756-2.076v-.5h-.432a16.556,16.556,0,0,0-2.5.144,2.423,2.423,0,0,0-1.272.5,1.283,1.283,0,0,0-.384.984,1.646,1.646,0,0,0,.528,1.26A1.894,1.894,0,0,0,542.828,22.032Zm11.832-1.344v2.184a5.759,5.759,0,0,1-.432,2.268,6.627,6.627,0,0,1-1.464,2.052l-1.224-.96a4.5,4.5,0,0,0,1.3-2.232H551.3V20.688Zm13.416-8.424h3.1V14.52h-3.1V24h-3V14.52H562.82V12.264h2.256a5.061,5.061,0,0,1,1.308-3.792,6.13,6.13,0,0,1,4.068-1.416l1.176-.072.192,2.232-1.128.048a3.15,3.15,0,0,0-2.016.636,2.389,2.389,0,0,0-.6,1.812Zm9.816-.288a5,5,0,0,1,3.672,1.2,5.035,5.035,0,0,1,1.2,3.7V24h-2.856V22.2a3.131,3.131,0,0,1-1.284,1.464,3.851,3.851,0,0,1-2.028.528,4.709,4.709,0,0,1-2.136-.48,3.8,3.8,0,0,1-1.512-1.32,3.335,3.335,0,0,1-.552-1.872,2.965,2.965,0,0,1,.66-2.04A3.966,3.966,0,0,1,575.2,17.4a19.561,19.561,0,0,1,4.1-.336h.6v-.552a2.412,2.412,0,0,0-.516-1.728,2.331,2.331,0,0,0-1.716-.528,6.456,6.456,0,0,0-1.956.324,9.892,9.892,0,0,0-2,.9l-.84-2.064a10.288,10.288,0,0,1,5.016-1.44Zm-.7,10.056a2.563,2.563,0,0,0,1.956-.8,2.908,2.908,0,0,0,.756-2.076v-.5h-.432a16.556,16.556,0,0,0-2.5.144,2.423,2.423,0,0,0-1.272.5,1.283,1.283,0,0,0-.384.984,1.646,1.646,0,0,0,.528,1.26A1.894,1.894,0,0,0,577.2,22.032Zm14.736-.1a8.909,8.909,0,0,0,1.1-.072l-.144,2.232q-.72.072-1.32.072a5.074,5.074,0,0,1-3.648-1.14,4.524,4.524,0,0,1-1.176-3.4V14.52h-2.256V12.264h2.256V8.76h3v3.5h3.1V14.52h-3.1v5.064Q589.748,21.936,591.932,21.936Zm2.976-9.672h3V24h-3Zm3.144-5.448V9.768H594.74V6.816Zm14.5,5.448V22.92a5.425,5.425,0,0,1-1.524,4.176,6.392,6.392,0,0,1-4.5,1.416,10.91,10.91,0,0,1-2.952-.4A8.339,8.339,0,0,1,601.1,27l.84-2.112a8.611,8.611,0,0,0,4.512,1.32q3.12,0,3.12-3.072V21.6a3.665,3.665,0,0,1-1.536,1.524,4.8,4.8,0,0,1-2.3.54,5.087,5.087,0,0,1-2.724-.732,5.03,5.03,0,0,1-1.86-2.052,6.629,6.629,0,0,1-.672-3.048,6.8,6.8,0,0,1,.66-3.06A4.907,4.907,0,0,1,603,12.708a5.148,5.148,0,0,1,2.736-.732,4.8,4.8,0,0,1,2.3.54,3.665,3.665,0,0,1,1.536,1.524V12.264Zm-6.024,9.072a2.8,2.8,0,0,0,2.244-.936,3.813,3.813,0,0,0,.8-2.568,3.851,3.851,0,0,0-.8-2.592,3.143,3.143,0,0,0-4.476,0,3.814,3.814,0,0,0-.816,2.592,3.785,3.785,0,0,0,.816,2.556A2.791,2.791,0,0,0,606.524,21.336Zm20.016-9.072V24h-2.928V22.2a3.823,3.823,0,0,1-1.488,1.476,4.3,4.3,0,0,1-2.112.516q-4.32,0-4.32-4.848v-7.08h3v7.1a2.832,2.832,0,0,0,.5,1.848,1.955,1.955,0,0,0,1.584.6,2.583,2.583,0,0,0,2-.828,3.131,3.131,0,0,0,.756-2.2V12.264Zm13.536,6.408h-7.992a3.649,3.649,0,0,0,.984,2.424,3.366,3.366,0,0,0,2.4.792,5.659,5.659,0,0,0,3.552-1.248l.864,2.064a6.3,6.3,0,0,1-2.052,1.08,7.882,7.882,0,0,1-2.484.408A6.223,6.223,0,0,1,630.8,22.56a5.958,5.958,0,0,1-1.668-4.464,6.848,6.848,0,0,1,.72-3.192,5.235,5.235,0,0,1,2.028-2.16,5.744,5.744,0,0,1,2.964-.768,4.891,4.891,0,0,1,3.828,1.56,6.189,6.189,0,0,1,1.4,4.3Zm-5.16-4.584a2.546,2.546,0,0,0-1.932.768,3.735,3.735,0,0,0-.9,2.208h5.424a3.422,3.422,0,0,0-.72-2.22A2.375,2.375,0,0,0,634.916,14.088Zm10.824,6.6v2.184a5.759,5.759,0,0,1-.432,2.268,6.627,6.627,0,0,1-1.464,2.052l-1.224-.96a4.5,4.5,0,0,0,1.3-2.232H642.38V20.688Zm14.64-8.712a5,5,0,0,1,3.672,1.2,5.035,5.035,0,0,1,1.2,3.7V24H662.4V22.2a3.131,3.131,0,0,1-1.284,1.464,3.851,3.851,0,0,1-2.028.528,4.709,4.709,0,0,1-2.136-.48,3.8,3.8,0,0,1-1.512-1.32,3.335,3.335,0,0,1-.552-1.872,2.965,2.965,0,0,1,.66-2.04,3.966,3.966,0,0,1,2.148-1.08,19.561,19.561,0,0,1,4.1-.336h.6v-.552a2.412,2.412,0,0,0-.516-1.728,2.331,2.331,0,0,0-1.716-.528,6.456,6.456,0,0,0-1.956.324,9.892,9.892,0,0,0-2,.9l-.84-2.064a10.288,10.288,0,0,1,5.016-1.44Zm-.7,10.056a2.563,2.563,0,0,0,1.956-.8,2.908,2.908,0,0,0,.756-2.076v-.5h-.432a16.556,16.556,0,0,0-2.5.144,2.423,2.423,0,0,0-1.272.5,1.283,1.283,0,0,0-.384.984,1.646,1.646,0,0,0,.528,1.26A1.894,1.894,0,0,0,659.684,22.032Zm15.552-10.056a3.922,3.922,0,0,1,3.144,1.2,5.442,5.442,0,0,1,1.032,3.624V24h-3V16.968a3.112,3.112,0,0,0-.516-1.992,1.983,1.983,0,0,0-1.62-.624,2.738,2.738,0,0,0-2.076.816,3.029,3.029,0,0,0-.78,2.184V24h-3V12.264h2.928v1.752a4.059,4.059,0,0,1,1.608-1.512A4.839,4.839,0,0,1,675.236,11.976Zm18.672-4.9V24h-2.976V22.1a3.757,3.757,0,0,1-1.524,1.536,4.6,4.6,0,0,1-2.268.552,4.864,4.864,0,0,1-2.7-.768,5.093,5.093,0,0,1-1.848-2.172,7.506,7.506,0,0,1-.66-3.228,7.268,7.268,0,0,1,.66-3.192,4.845,4.845,0,0,1,4.548-2.856,4.7,4.7,0,0,1,2.256.528,3.663,3.663,0,0,1,1.512,1.488V7.08Zm-5.976,14.784a2.668,2.668,0,0,0,2.22-.984,4.428,4.428,0,0,0,.78-2.808,4.376,4.376,0,0,0-.78-2.8,2.656,2.656,0,0,0-2.2-.972,2.732,2.732,0,0,0-2.232.96,4.235,4.235,0,0,0-.792,2.76,4.484,4.484,0,0,0,.792,2.832A2.649,2.649,0,0,0,687.932,21.864Zm22.632-9.888a3.922,3.922,0,0,1,3.144,1.2A5.442,5.442,0,0,1,714.74,16.8V24h-3V16.968a3.112,3.112,0,0,0-.516-1.992,1.983,1.983,0,0,0-1.62-.624,2.738,2.738,0,0,0-2.076.816,3.029,3.029,0,0,0-.78,2.184V24h-3V12.264h2.928v1.752a4.059,4.059,0,0,1,1.608-1.512A4.839,4.839,0,0,1,710.564,11.976Zm17.64,6.7h-7.992A3.649,3.649,0,0,0,721.2,21.1a3.366,3.366,0,0,0,2.4.792,5.659,5.659,0,0,0,3.552-1.248l.864,2.064a6.3,6.3,0,0,1-2.052,1.08,7.882,7.882,0,0,1-2.484.408,6.223,6.223,0,0,1-4.548-1.632A5.958,5.958,0,0,1,717.26,18.1a6.848,6.848,0,0,1,.72-3.192,5.235,5.235,0,0,1,2.028-2.16,5.744,5.744,0,0,1,2.964-.768,4.891,4.891,0,0,1,3.828,1.56,6.189,6.189,0,0,1,1.4,4.3Zm-5.16-4.584a2.546,2.546,0,0,0-1.932.768,3.735,3.735,0,0,0-.9,2.208h5.424a3.422,3.422,0,0,0-.72-2.22A2.375,2.375,0,0,0,723.044,14.088Zm18.5-1.824V24H738.62V22.2a3.823,3.823,0,0,1-1.488,1.476,4.3,4.3,0,0,1-2.112.516q-4.32,0-4.32-4.848v-7.08h3v7.1a2.832,2.832,0,0,0,.5,1.848,1.955,1.955,0,0,0,1.584.6,2.583,2.583,0,0,0,2-.828,3.131,3.131,0,0,0,.756-2.2V12.264Zm9.24,9.672a8.909,8.909,0,0,0,1.1-.072l-.144,2.232q-.72.072-1.32.072a5.074,5.074,0,0,1-3.648-1.14,4.524,4.524,0,0,1-1.176-3.4V14.52h-2.256V12.264H745.6V8.76h3v3.5h3.1V14.52h-3.1v5.064Q748.6,21.936,750.788,21.936Zm10.7-7.464-1.752.168q-2.976.312-2.976,3.024V24h-3V12.264h2.856v2.064a3.992,3.992,0,0,1,3.768-2.3l.912-.072Zm6.7,9.72a6.457,6.457,0,0,1-3.156-.744,5.148,5.148,0,0,1-2.1-2.136,6.772,6.772,0,0,1-.744-3.24,6.7,6.7,0,0,1,.744-3.228,5.166,5.166,0,0,1,2.1-2.124,7.066,7.066,0,0,1,6.312,0,5.09,5.09,0,0,1,2.088,2.124,6.791,6.791,0,0,1,.732,3.228,6.863,6.863,0,0,1-.732,3.24,5.074,5.074,0,0,1-2.088,2.136A6.457,6.457,0,0,1,768.188,24.192Zm-.024-2.328a2.69,2.69,0,0,0,2.232-.96,4.46,4.46,0,0,0,.768-2.832,4.469,4.469,0,0,0-.768-2.82,2.648,2.648,0,0,0-2.208-.972,2.682,2.682,0,0,0-2.22.972,4.419,4.419,0,0,0-.78,2.82,4.46,4.46,0,0,0,.768,2.832A2.662,2.662,0,0,0,768.164,21.864ZM783.5,11.976a4.864,4.864,0,0,1,2.7.768,5.093,5.093,0,0,1,1.848,2.172,7.506,7.506,0,0,1,.66,3.228,7.268,7.268,0,0,1-.66,3.192,4.845,4.845,0,0,1-4.548,2.856,4.645,4.645,0,0,1-2.232-.528,3.7,3.7,0,0,1-1.512-1.464v6.12h-3V12.264h2.952V14.04a3.682,3.682,0,0,1,1.524-1.524A4.682,4.682,0,0,1,783.5,11.976Zm-.792,9.888a2.69,2.69,0,0,0,2.208-.972,4.243,4.243,0,0,0,.792-2.748,4.484,4.484,0,0,0-.792-2.832,2.959,2.959,0,0,0-4.428-.024,4.428,4.428,0,0,0-.78,2.808,4.385,4.385,0,0,0,.78,2.784A2.668,2.668,0,0,0,782.708,21.864ZM801.6,18.672H793.6a3.649,3.649,0,0,0,.984,2.424,3.366,3.366,0,0,0,2.4.792,5.659,5.659,0,0,0,3.552-1.248L801.4,22.7a6.3,6.3,0,0,1-2.052,1.08,7.882,7.882,0,0,1-2.484.408,6.223,6.223,0,0,1-4.548-1.632,5.958,5.958,0,0,1-1.668-4.464,6.848,6.848,0,0,1,.72-3.192,5.235,5.235,0,0,1,2.028-2.16,5.744,5.744,0,0,1,2.964-.768,4.891,4.891,0,0,1,3.828,1.56,6.189,6.189,0,0,1,1.4,4.3Zm-5.16-4.584a2.546,2.546,0,0,0-1.932.768,3.735,3.735,0,0,0-.9,2.208h5.424a3.422,3.422,0,0,0-.72-2.22A2.375,2.375,0,0,0,796.436,14.088Zm14.544-2.112a3.922,3.922,0,0,1,3.144,1.2,5.442,5.442,0,0,1,1.032,3.624V24h-3V16.968a3.112,3.112,0,0,0-.516-1.992,1.983,1.983,0,0,0-1.62-.624,2.738,2.738,0,0,0-2.076.816,3.029,3.029,0,0,0-.78,2.184V24h-3V12.264h2.928v1.752A4.059,4.059,0,0,1,808.7,12.5,4.839,4.839,0,0,1,810.98,11.976Zm7.344.288h3V24h-3Zm3.144-5.448V9.768h-3.312V6.816Zm8.112,5.16a5,5,0,0,1,3.672,1.2,5.035,5.035,0,0,1,1.2,3.7V24H831.6V22.2a3.131,3.131,0,0,1-1.284,1.464,3.851,3.851,0,0,1-2.028.528,4.709,4.709,0,0,1-2.136-.48,3.8,3.8,0,0,1-1.512-1.32,3.335,3.335,0,0,1-.552-1.872,2.965,2.965,0,0,1,.66-2.04,3.966,3.966,0,0,1,2.148-1.08,19.561,19.561,0,0,1,4.1-.336h.6v-.552a2.412,2.412,0,0,0-.516-1.728,2.331,2.331,0,0,0-1.716-.528,6.456,6.456,0,0,0-1.956.324,9.892,9.892,0,0,0-2,.9l-.84-2.064a10.288,10.288,0,0,1,5.016-1.44Zm-.7,10.056a2.563,2.563,0,0,0,1.956-.8,2.908,2.908,0,0,0,.756-2.076v-.5h-.432a16.556,16.556,0,0,0-2.5.144,2.423,2.423,0,0,0-1.272.5,1.283,1.283,0,0,0-.384.984,1.646,1.646,0,0,0,.528,1.26A1.894,1.894,0,0,0,828.884,22.032Zm20.712,2.16a6.457,6.457,0,0,1-3.156-.744,5.148,5.148,0,0,1-2.1-2.136,6.772,6.772,0,0,1-.744-3.24,6.7,6.7,0,0,1,.744-3.228,5.166,5.166,0,0,1,2.1-2.124,7.066,7.066,0,0,1,6.312,0,5.09,5.09,0,0,1,2.088,2.124,6.791,6.791,0,0,1,.732,3.228,6.863,6.863,0,0,1-.732,3.24,5.074,5.074,0,0,1-2.088,2.136A6.457,6.457,0,0,1,849.6,24.192Zm-.024-2.328a2.69,2.69,0,0,0,2.232-.96,4.46,4.46,0,0,0,.768-2.832,4.469,4.469,0,0,0-.768-2.82,2.648,2.648,0,0,0-2.208-.972,2.682,2.682,0,0,0-2.22.972,4.419,4.419,0,0,0-.78,2.82,4.46,4.46,0,0,0,.768,2.832A2.662,2.662,0,0,0,849.572,21.864Zm19.584-9.576L864.02,24H861.4l-5.088-11.712h3.168l3.312,8.28,3.408-8.28Zm11.664,6.384h-7.992a3.649,3.649,0,0,0,.984,2.424,3.366,3.366,0,0,0,2.4.792,5.659,5.659,0,0,0,3.552-1.248l.864,2.064a6.3,6.3,0,0,1-2.052,1.08,7.882,7.882,0,0,1-2.484.408,6.223,6.223,0,0,1-4.548-1.632,5.958,5.958,0,0,1-1.668-4.464,6.848,6.848,0,0,1,.72-3.192,5.235,5.235,0,0,1,2.028-2.16,5.744,5.744,0,0,1,2.964-.768,4.891,4.891,0,0,1,3.828,1.56,6.189,6.189,0,0,1,1.4,4.3Zm-5.16-4.584a2.546,2.546,0,0,0-1.932.768,3.735,3.735,0,0,0-.9,2.208h5.424a3.422,3.422,0,0,0-.72-2.22A2.375,2.375,0,0,0,875.66,14.088Zm15.456.384-1.752.168q-2.976.312-2.976,3.024V24h-3V12.264h2.856v2.064a3.992,3.992,0,0,1,3.768-2.3l.912-.072ZM910.94,21.5V24H900.5V21.5h3.672v-10.9l-2.9,1.752L900.044,10.1,905.06,7.08h2.208V21.5Zm11.784-6.192a4.1,4.1,0,0,1,2.292,1.488,4.3,4.3,0,0,1,.8,2.64,4.12,4.12,0,0,1-1.68,3.492,9.233,9.233,0,0,1-9.312,0,4.12,4.12,0,0,1-1.68-3.492,4.3,4.3,0,0,1,.816-2.652,4.021,4.021,0,0,1,2.3-1.476,4.166,4.166,0,0,1-1.992-1.5,4.034,4.034,0,0,1-.72-2.388,3.989,3.989,0,0,1,1.584-3.336,8.32,8.32,0,0,1,8.688,0,3.989,3.989,0,0,1,1.584,3.336,4.129,4.129,0,0,1-.72,2.424A3.876,3.876,0,0,1,922.724,15.312Zm-3.24-6.024q-3,0-3,2.448a2.294,2.294,0,0,0,.756,1.86,4.277,4.277,0,0,0,4.488,0,2.294,2.294,0,0,0,.756-1.86Q922.484,9.288,919.484,9.288Zm0,12.48q3.432,0,3.432-2.568t-3.432-2.568q-3.432,0-3.432,2.568T919.484,21.768Zm20.856,2.424a6.561,6.561,0,0,1-3.2-.744,5.033,5.033,0,0,1-2.076-2.112,6.757,6.757,0,0,1-.72-3.192,6.7,6.7,0,0,1,.756-3.228,5.3,5.3,0,0,1,2.148-2.172,6.549,6.549,0,0,1,3.216-.768,7.654,7.654,0,0,1,2.436.4A5.131,5.131,0,0,1,944.8,13.44l-.864,2.112a5.7,5.7,0,0,0-1.572-.912,4.637,4.637,0,0,0-1.644-.312,3.074,3.074,0,0,0-2.424.972,4.077,4.077,0,0,0-.864,2.8,4.038,4.038,0,0,0,.864,2.772,3.074,3.074,0,0,0,2.424.972,4.637,4.637,0,0,0,1.644-.312,5.7,5.7,0,0,0,1.572-.912L944.8,22.7a5.412,5.412,0,0,1-1.968,1.092A7.913,7.913,0,0,1,940.34,24.192ZM958,12.288,950.948,28.32h-3.024l2.136-4.776-4.9-11.256h3.168l3.312,8.28,3.408-8.28Zm6.72,11.9a6.561,6.561,0,0,1-3.2-.744,5.033,5.033,0,0,1-2.076-2.112,6.757,6.757,0,0,1-.72-3.192,6.7,6.7,0,0,1,.756-3.228,5.3,5.3,0,0,1,2.148-2.172,6.549,6.549,0,0,1,3.216-.768,7.654,7.654,0,0,1,2.436.4,5.131,5.131,0,0,1,1.908,1.068l-.864,2.112a5.7,5.7,0,0,0-1.572-.912,4.637,4.637,0,0,0-1.644-.312,3.074,3.074,0,0,0-2.424.972,4.077,4.077,0,0,0-.864,2.8,4.038,4.038,0,0,0,.864,2.772,3.074,3.074,0,0,0,2.424.972,4.637,4.637,0,0,0,1.644-.312,5.7,5.7,0,0,0,1.572-.912l.864,2.088A5.412,5.412,0,0,1,967.22,23.8,7.913,7.913,0,0,1,964.724,24.192ZM971.2,7.08h3V24h-3Zm16.512,11.592h-7.992a3.649,3.649,0,0,0,.984,2.424,3.366,3.366,0,0,0,2.4.792,5.659,5.659,0,0,0,3.552-1.248l.864,2.064a6.3,6.3,0,0,1-2.052,1.08,7.882,7.882,0,0,1-2.484.408,6.223,6.223,0,0,1-4.548-1.632,5.958,5.958,0,0,1-1.668-4.464,6.848,6.848,0,0,1,.72-3.192,5.235,5.235,0,0,1,2.028-2.16,5.744,5.744,0,0,1,2.964-.768,4.891,4.891,0,0,1,3.828,1.56,6.189,6.189,0,0,1,1.4,4.3Zm-5.16-4.584a2.546,2.546,0,0,0-1.932.768,3.735,3.735,0,0,0-.9,2.208h5.424a3.422,3.422,0,0,0-.72-2.22A2.375,2.375,0,0,0,982.556,14.088Zm12.048,10.1a10.151,10.151,0,0,1-2.868-.384,6.49,6.49,0,0,1-2.22-1.1l.84-2.088a7.092,7.092,0,0,0,4.3,1.368,3,3,0,0,0,1.572-.336,1.068,1.068,0,0,0,.54-.96.972.972,0,0,0-.372-.816,3.83,3.83,0,0,0-1.332-.528l-1.92-.432a4.721,4.721,0,0,1-2.424-1.176,2.905,2.905,0,0,1-.792-2.112,3.125,3.125,0,0,1,.612-1.908,3.953,3.953,0,0,1,1.7-1.284,6.53,6.53,0,0,1,2.532-.456,7.649,7.649,0,0,1,2.412.384,6.692,6.692,0,0,1,2.052,1.08l-.84,2.04a6.2,6.2,0,0,0-3.648-1.32,2.8,2.8,0,0,0-1.536.36,1.139,1.139,0,0,0-.552,1.008,1.017,1.017,0,0,0,.348.792,2.468,2.468,0,0,0,1.116.48l1.992.456a5.069,5.069,0,0,1,2.568,1.212,2.961,2.961,0,0,1,.816,2.172,3.041,3.041,0,0,1-1.32,2.592A5.962,5.962,0,0,1,994.6,24.192Z" transform="translate(338 4657)" fill="#505257"/>
  </g>
</svg>
