<svg xmlns="http://www.w3.org/2000/svg" width="103.358" height="73.059" viewBox="0 0 103.358 73.059">
  <g id="Group_1684" data-name="Group 1684" transform="translate(-52.079 -62.894)">
    <path id="Path_2796" data-name="Path 2796" d="M55.571,76.112h5.042v46.126a1.685,1.685,0,0,0,1.672,1.645h31.4a8.659,8.659,0,0,1,6.457,3.048,1.627,1.627,0,0,0,1.3.64h4.649a1.8,1.8,0,0,0,1.291-.64,8.208,8.208,0,0,1,6.333-3.048h31.518a1.7,1.7,0,0,0,1.685-1.645V76.112h5.042v52.851H113.712a3.391,3.391,0,0,0-2.459,1.271l-.392.385a1.464,1.464,0,0,0-.383,1.016v1.016H96.913v-1.016a1.43,1.43,0,0,0-.392-1.016l-.259-.385a3.415,3.415,0,0,0-2.582-1.271H55.571Zm8.4-9.916H93.68a8.318,8.318,0,0,1,8.4,8.26v49.56a11.4,11.4,0,0,0-8.4-3.434H63.969Zm49.742,0h29.711v54.386H113.712a11.358,11.358,0,0,0-8.276,3.434V74.456A8.291,8.291,0,0,1,113.712,66.2ZM53.762,132.4H93.556v1.91a1.693,1.693,0,0,0,1.674,1.645h17.056a1.694,1.694,0,0,0,1.683-1.645V132.4h39.794a1.7,1.7,0,0,0,1.674-1.656V74.456a1.723,1.723,0,0,0-1.674-1.778h-6.849V64.539a1.7,1.7,0,0,0-1.685-1.645H113.712a11.608,11.608,0,0,0-9.948,5.587A11.682,11.682,0,0,0,93.68,62.894h-31.4a1.685,1.685,0,0,0-1.672,1.645v8.139h-6.85a1.724,1.724,0,0,0-1.683,1.778v56.286A1.7,1.7,0,0,0,53.762,132.4Z" transform="translate(0 0)" fill="#823695" fill-rule="evenodd"/>
    <path id="Path_2797" data-name="Path 2797" d="M97.325,79.67h23.394a1.777,1.777,0,0,0,0-3.552H97.325a1.785,1.785,0,0,0,0,3.552" transform="translate(15.172 4.597)" fill="#823695" fill-rule="evenodd"/>
    <path id="Path_2798" data-name="Path 2798" d="M97.325,88.928h23.394a1.742,1.742,0,0,0,1.724-1.84,1.71,1.71,0,0,0-1.724-1.713H97.325a1.688,1.688,0,0,0-1.605,1.713,1.725,1.725,0,0,0,1.605,1.84" transform="translate(15.172 7.816)" fill="#823695" fill-rule="evenodd"/>
    <path id="Path_2799" data-name="Path 2799" d="M97.325,98.185h23.394a1.742,1.742,0,0,0,1.724-1.84,1.711,1.711,0,0,0-1.724-1.713H97.325a1.689,1.689,0,0,0-1.605,1.713,1.725,1.725,0,0,0,1.605,1.84" transform="translate(15.172 11.034)" fill="#823695" fill-rule="evenodd"/>
    <path id="Path_2800" data-name="Path 2800" d="M66.908,79.67H90.3a1.777,1.777,0,0,0,0-3.552h-23.4a1.785,1.785,0,0,0,0,3.552" transform="translate(4.597 4.597)" fill="#823695" fill-rule="evenodd"/>
    <path id="Path_2801" data-name="Path 2801" d="M66.908,88.928H90.3a1.742,1.742,0,0,0,1.722-1.84A1.71,1.71,0,0,0,90.3,85.376h-23.4A1.7,1.7,0,0,0,65.3,87.089a1.732,1.732,0,0,0,1.605,1.84" transform="translate(4.597 7.816)" fill="#823695" fill-rule="evenodd"/>
    <path id="Path_2802" data-name="Path 2802" d="M66.908,98.185H90.3a1.742,1.742,0,0,0,1.722-1.84A1.71,1.71,0,0,0,90.3,94.633h-23.4A1.7,1.7,0,0,0,65.3,96.346a1.732,1.732,0,0,0,1.605,1.84" transform="translate(4.597 11.034)" fill="#823695" fill-rule="evenodd"/>
  </g>
</svg>
