<svg xmlns="http://www.w3.org/2000/svg" viewBox="0 0 417.6 417.6">
  <defs/>
  <path fill="#561d60" d="M381.17 251.74c0 23.78-3.59 45.68-10.75 65.68-7.18 20.02-17.84 37.38-32 52.1-14.15 14.72-31.8 26.24-52.93 34.54-21.15 8.3-45.5 12.45-73.04 12.45-27.94 0-52.48-4.16-73.61-12.45-21.14-8.3-38.79-19.82-52.94-34.54s-24.83-32.08-32-52.1c-7.17-20-10.75-41.9-10.75-65.68V5.44h88.33v242.9c0 12.46 1.98 23.98 5.94 34.55a82.4 82.4 0 0016.7 27.46 75.65 75.65 0 0025.77 18.12c10 4.34 20.85 6.5 32.56 6.5 11.69 0 22.45-2.16 32.27-6.5a76.54 76.54 0 0025.48-18.12 82.58 82.58 0 0016.7-27.46c3.97-10.57 5.95-22.09 5.95-34.54V5.45h88.32v246.3z"/>
  <path fill="#561d60" d="M36.15 6.44L48.7.09h83l-1 242.49zM285.9 6.07L298.45.2h83l-1 248z"/>
  <path fill="#813795" d="M374.17 252.74c0 23.78-3.59 45.68-10.75 65.68-7.18 20.02-17.84 37.38-32 52.1-14.15 14.72-31.8 26.24-52.93 34.54-21.15 8.3-45.5 12.45-73.04 12.45-27.94 0-52.48-4.16-73.61-12.45-21.14-8.3-38.79-19.82-52.94-34.54s-24.83-32.08-32-52.1c-7.17-20-10.75-41.9-10.75-65.68V6.44h88.33v242.9c0 12.46 1.98 23.98 5.94 34.55a82.4 82.4 0 0016.7 27.46 75.65 75.65 0 0025.77 18.12c10 4.34 20.85 6.5 32.56 6.5 11.69 0 22.45-2.16 32.27-6.5a76.54 76.54 0 0025.48-18.12 82.58 82.58 0 0016.7-27.46c3.97-10.57 5.95-22.09 5.95-34.54V6.45h88.32v246.3z"/>
  <path fill="#561d60" d="M36.15 6.44L48.7.09h83l-7.22 6.35zM285.9 6.44L298.45.09h83l-7.22 6.35z" opacity=".64"/>
</svg>