<svg xmlns="http://www.w3.org/2000/svg" width="104" height="80.826" viewBox="0 0 104 89.826">
  <g id="Group_1683" data-name="Group 1683" transform="translate(-52.803 -57.872)">
    <path id="Path_2782" data-name="Path 2782" d="M152.654,100.5c-12.825,12.495-32.5,30.24-36.263,30.727-3.182.415-12.945-4.708-17.639-7.166a34.848,34.848,0,0,0-4.9-2.37c-1.83-.663-5.048-.363-6.931-.1L75.218,96.379c6.349-.983,18.368-3.468,22.417-1.441,5.758,2.878,17.659,14.744,17.779,14.864a1.766,1.766,0,0,0,.162.143c.657.506,2.546,2.344,2.6,4.078a2.948,2.948,0,0,1-1.211,2.3c-2.249,1.981-5.077.263-5.437.031l-13.4-10.718a1.686,1.686,0,0,0-2.105,2.635l13.452,10.763c.029.022.059.046.089.067a9.1,9.1,0,0,0,4.936,1.535,6.93,6.93,0,0,0,4.691-1.782,6.207,6.207,0,0,0,2.354-4.943,7.473,7.473,0,0,0-1.31-3.793l25.334-13.064c.057-.029.116-.066.171-.1.178-.12,4.381-2.88,6.955-.226,1.471,1.518.306,3.3-.048,3.769m-82.9,28.252-12.9-24.066L71.9,97.229l11.8,25.41Zm85.371-34.368c-3.593-3.706-8.827-1.834-11.178-.281l-26.013,13.413c-.078-.067-.151-.127-.2-.169-1.109-1.1-12.519-12.393-18.586-15.426-6.383-3.193-24.562,1.117-26.643,1.49l0,0h0a.513.513,0,0,0-.062.018,1.392,1.392,0,0,0-.253.07l-.01,0h-.007l-18.285,8.72a1.688,1.688,0,0,0-.882,2.356l14.523,27.176a1.683,1.683,0,0,0,2.223.74l16.684-7.422c2.009-.341,5.248-.629,6.3-.208a1.555,1.555,0,0,0,.26.081c.481.148,2.458,1.185,4.2,2.1,7.626,4,14.8,7.568,18.885,7.568a6.113,6.113,0,0,0,.751-.043c1.171-.152,4.285-.554,21.823-16.348,8.5-7.654,16.363-15.312,16.443-15.389a1.476,1.476,0,0,0,.127-.137c1.264-1.541,2.87-5.26-.094-8.316" transform="translate(0 13.083)" fill="#823695"/>
    <path id="Path_2783" data-name="Path 2783" d="M152.654,100.5c-12.825,12.495-32.5,30.24-36.263,30.727-3.182.415-12.945-4.708-17.639-7.166a34.848,34.848,0,0,0-4.9-2.37c-1.83-.663-5.048-.363-6.931-.1L75.218,96.379c6.349-.983,18.368-3.468,22.417-1.441,5.758,2.878,17.659,14.744,17.779,14.864a1.766,1.766,0,0,0,.162.143c.657.506,2.546,2.344,2.6,4.078a2.948,2.948,0,0,1-1.211,2.3c-2.249,1.981-5.077.263-5.437.031l-13.4-10.718a1.686,1.686,0,0,0-2.105,2.635l13.452,10.763c.029.022.059.046.089.067a9.1,9.1,0,0,0,4.936,1.535,6.93,6.93,0,0,0,4.691-1.782,6.207,6.207,0,0,0,2.354-4.943,7.473,7.473,0,0,0-1.31-3.793l25.334-13.064c.057-.029.116-.066.171-.1.178-.12,4.381-2.88,6.955-.226C154.172,98.248,153.008,100.03,152.654,100.5Zm-82.9,28.252-12.9-24.066L71.9,97.229l11.8,25.41Zm85.371-34.368c-3.593-3.706-8.827-1.834-11.178-.281l-26.013,13.413c-.078-.067-.151-.127-.2-.169-1.109-1.1-12.519-12.393-18.586-15.426-6.383-3.193-24.562,1.117-26.643,1.49l0,0h0a.513.513,0,0,0-.062.018,1.392,1.392,0,0,0-.253.07l-.01,0h-.007l-18.285,8.72a1.688,1.688,0,0,0-.882,2.356l14.523,27.176a1.683,1.683,0,0,0,2.223.74l16.684-7.422c2.009-.341,5.248-.629,6.3-.208a1.555,1.555,0,0,0,.26.081c.481.148,2.458,1.185,4.2,2.1,7.626,4,14.8,7.568,18.885,7.568a6.113,6.113,0,0,0,.751-.043c1.171-.152,4.285-.554,21.823-16.348,8.5-7.654,16.363-15.312,16.443-15.389a1.476,1.476,0,0,0,.127-.137C156.48,101.158,158.087,97.438,155.123,94.382Z" transform="translate(0 13.083)" fill="#823695"/>
    <path id="Path_2784" data-name="Path 2784" d="M112.517,63.416a5.609,5.609,0,1,1-5.61,5.61,5.616,5.616,0,0,1,5.61-5.61m0,14.442a8.833,8.833,0,1,0-8.834-8.832,8.842,8.842,0,0,0,8.834,8.832" transform="translate(20.248 0.923)" fill="#823695"/>
    <path id="Path_2785" data-name="Path 2785" d="M112.517,63.416a5.609,5.609,0,1,1-5.61,5.61A5.616,5.616,0,0,1,112.517,63.416Zm0,14.442a8.833,8.833,0,1,0-8.834-8.832A8.842,8.842,0,0,0,112.517,77.858Z" transform="translate(20.248 0.923)" fill="#823695"/>
    <path id="Path_2786" data-name="Path 2786" d="M80.176,63.416a5.609,5.609,0,1,1-5.61,5.61,5.616,5.616,0,0,1,5.61-5.61m0,14.442a8.833,8.833,0,1,0-8.834-8.832,8.843,8.843,0,0,0,8.834,8.832" transform="translate(7.378 0.923)" fill="#823695"/>
    <path id="Path_2787" data-name="Path 2787" d="M80.176,63.416a5.609,5.609,0,1,1-5.61,5.61A5.616,5.616,0,0,1,80.176,63.416Zm0,14.442a8.833,8.833,0,1,0-8.834-8.832A8.843,8.843,0,0,0,80.176,77.858Z" transform="translate(7.378 0.923)" fill="#823695"/>
    <path id="Path_2788" data-name="Path 2788" d="M104.768,75.349a20.483,20.483,0,0,1,1.963,2.614,12.244,12.244,0,0,1,17.6,11.013,1.612,1.612,0,0,0,3.224,0,15.465,15.465,0,0,0-22.788-13.627" transform="translate(20.679 6.221)" fill="#823695"/>
    <path id="Path_2789" data-name="Path 2789" d="M104.768,75.349a20.483,20.483,0,0,1,1.963,2.614,12.244,12.244,0,0,1,17.6,11.013,1.612,1.612,0,0,0,3.224,0,15.465,15.465,0,0,0-22.788-13.627Z" transform="translate(20.679 6.221)" fill="#823695"/>
    <path id="Path_2790" data-name="Path 2790" d="M68.2,90.588a1.611,1.611,0,0,0,1.612-1.612,12.246,12.246,0,0,1,17.6-11.013,20.594,20.594,0,0,1,1.96-2.614A15.465,15.465,0,0,0,66.593,88.976,1.611,1.611,0,0,0,68.2,90.588" transform="translate(5.488 6.221)" fill="#823695"/>
    <path id="Path_2791" data-name="Path 2791" d="M68.2,90.588a1.611,1.611,0,0,0,1.612-1.612,12.246,12.246,0,0,1,17.6-11.013,20.594,20.594,0,0,1,1.96-2.614A15.465,15.465,0,0,0,66.593,88.976,1.611,1.611,0,0,0,68.2,90.588Z" transform="translate(5.488 6.221)" fill="#823695"/>
    <path id="Path_2792" data-name="Path 2792" d="M83.517,91.03a1.758,1.758,0,0,0,1.759-1.759,13.361,13.361,0,0,1,26.722,0,1.759,1.759,0,0,0,3.517,0,16.878,16.878,0,0,0-33.756,0,1.758,1.758,0,0,0,1.759,1.759" transform="translate(11.523 5.779)" fill="#823695"/>
    <path id="Path_2793" data-name="Path 2793" d="M83.517,91.03a1.758,1.758,0,0,0,1.759-1.759,13.361,13.361,0,0,1,26.722,0,1.759,1.759,0,0,0,3.517,0,16.878,16.878,0,0,0-33.756,0A1.758,1.758,0,0,0,83.517,91.03Z" transform="translate(11.523 5.779)" fill="#823695"/>
    <path id="Path_2794" data-name="Path 2794" d="M96.574,61.388a6.12,6.12,0,1,1-6.119,6.119,6.126,6.126,0,0,1,6.119-6.119m0,15.755a9.635,9.635,0,1,0-9.636-9.636,9.647,9.647,0,0,0,9.636,9.636" transform="translate(13.584)" fill="#823695"/>
    <path id="Path_2795" data-name="Path 2795" d="M96.574,61.388a6.12,6.12,0,1,1-6.119,6.119A6.126,6.126,0,0,1,96.574,61.388Zm0,15.755a9.635,9.635,0,1,0-9.636-9.636A9.647,9.647,0,0,0,96.574,77.143Z" transform="translate(13.584)" fill="#823695"/>
  </g>
</svg>
