<svg xmlns="http://www.w3.org/2000/svg" width="1274.751" height="512.94" viewBox="0 0 1274.751 512.94">
  <g id="Group_1796" data-name="Group 1796" transform="translate(-315.32 -1609.831)">
    <path id="Path_3272" data-name="Path 3272" d="M-114.38,0l.672-22.68h1.512l4.788,20.468,4.872-20.468h1.568L-100.324,0h-1.316l-.56-19.012L-106.82,0h-1.12L-112.5-18.984-113.064,0Zm19.824.252A3.193,3.193,0,0,1-96.264-.2,3.055,3.055,0,0,1-97.4-1.442,3.99,3.99,0,0,1-97.8-3.276a5.536,5.536,0,0,1,.266-1.806,3.673,3.673,0,0,1,.966-1.442,10.268,10.268,0,0,1,2-1.414q1.3-.742,3.374-1.722v-1.148a13.829,13.829,0,0,0-.21-2.744,2.325,2.325,0,0,0-.7-1.372,2.071,2.071,0,0,0-1.33-.392,3.431,3.431,0,0,0-1.232.224,1.9,1.9,0,0,0-.966.882,3.988,3.988,0,0,0-.378,1.946v.42h-1.456A5.348,5.348,0,0,1-96.53-15.3a3.877,3.877,0,0,1,3.15-1.134,3.108,3.108,0,0,1,2.856,1.288,8.116,8.116,0,0,1,.812,4.172v8.148q0,.224.014.854t.028,1.218A7.106,7.106,0,0,0-89.628,0h-1.288q-.056-.588-.14-1.232t-.112-.924a3.762,3.762,0,0,1-1.26,1.708A3.354,3.354,0,0,1-94.556.252Zm.364-1.232a2.482,2.482,0,0,0,1.26-.322,3.9,3.9,0,0,0,1.008-.84A4.924,4.924,0,0,0-91.2-3.248v-5.32q-1.484.784-2.478,1.344A9.4,9.4,0,0,0-95.242-6.16a2.981,2.981,0,0,0-.826,1.134A4.112,4.112,0,0,0-96.32-3.5a2.425,2.425,0,0,0,.672,1.988A2.3,2.3,0,0,0-94.192-.98ZM-88.06,0l3.948-8.428-3.7-7.756H-86.3l3.024,6.412,3-6.412h1.54l-3.836,7.9L-78.68,0h-1.4l-3.3-6.888L-86.6,0Zm11.4,0V-16.184h1.512V0Zm0-18.312v-2.576h1.512v2.576ZM-71.96,0V-16.184h1.4v1.708a5.8,5.8,0,0,1,1.764-1.47,4.317,4.317,0,0,1,2.044-.518,2.822,2.822,0,0,1,1.526.448,2.556,2.556,0,0,1,.994,1.708,6.069,6.069,0,0,1,1.82-1.6,4.318,4.318,0,0,1,2.128-.56A2.844,2.844,0,0,1-59-16.156a2.31,2.31,0,0,1,1.008,1.106A5.225,5.225,0,0,1-57.6-12.8V0h-1.428V-12.824a3.028,3.028,0,0,0-.5-2.072,1.676,1.676,0,0,0-1.232-.5,3.363,3.363,0,0,0-1.736.518A6.76,6.76,0,0,0-64.12-13.5a2.722,2.722,0,0,1,.042.322q.014.182.014.378V0h-1.428V-12.824A3.028,3.028,0,0,0-66-14.9a1.676,1.676,0,0,0-1.232-.5,3.32,3.32,0,0,0-1.708.518,7.062,7.062,0,0,0-1.624,1.358V0Zm19.488.252a2.451,2.451,0,0,1-1.3-.35,2.364,2.364,0,0,1-.91-1.12,5.228,5.228,0,0,1-.336-2.058V-16.184h1.484v12.74a3.187,3.187,0,0,0,.462,2.016A1.566,1.566,0,0,0-51.828-.9a3.238,3.238,0,0,0,1.736-.546,6.847,6.847,0,0,0,1.6-1.414V-16.184h1.456V0H-48.5V-1.9A6.382,6.382,0,0,1-50.3-.336,4.284,4.284,0,0,1-52.472.252ZM-44.184,0V-16.184h1.4v1.708a5.8,5.8,0,0,1,1.764-1.47,4.318,4.318,0,0,1,2.044-.518,2.821,2.821,0,0,1,1.526.448,2.556,2.556,0,0,1,.994,1.708,6.069,6.069,0,0,1,1.82-1.6,4.318,4.318,0,0,1,2.128-.56,2.844,2.844,0,0,1,1.288.308,2.31,2.31,0,0,1,1.008,1.106A5.225,5.225,0,0,1-29.82-12.8V0h-1.428V-12.824a3.028,3.028,0,0,0-.5-2.072,1.676,1.676,0,0,0-1.232-.5,3.363,3.363,0,0,0-1.736.518A6.76,6.76,0,0,0-36.344-13.5a2.722,2.722,0,0,1,.042.322q.014.182.014.378V0h-1.428V-12.824a3.028,3.028,0,0,0-.5-2.072,1.676,1.676,0,0,0-1.232-.5,3.32,3.32,0,0,0-1.708.518,7.062,7.062,0,0,0-1.624,1.358V0Zm22.008,5.32v-21.5h1.484v1.372a5.748,5.748,0,0,1,1.232-1.106,3.242,3.242,0,0,1,1.876-.518,3.32,3.32,0,0,1,1.834.462,3.087,3.087,0,0,1,1.12,1.344,7.19,7.19,0,0,1,.56,2.114,22.255,22.255,0,0,1,.154,2.744v3.108a17.52,17.52,0,0,1-.35,3.808A4.491,4.491,0,0,1-15.442-.532a3.181,3.181,0,0,1-2.282.784A2.97,2.97,0,0,1-19.5-.28a6.5,6.5,0,0,1-1.19-1.064V5.32ZM-17.892-.9a1.991,1.991,0,0,0,1.554-.6A3.574,3.574,0,0,0-15.6-3.374a21.924,21.924,0,0,0,.2-3.234V-9.772a22.086,22.086,0,0,0-.182-3.15,3.325,3.325,0,0,0-.714-1.792,2.072,2.072,0,0,0-1.6-.574,2.736,2.736,0,0,0-1.624.518,7.944,7.944,0,0,0-1.176.994V-2.352a5,5,0,0,0,1.2,1.008A2.987,2.987,0,0,0-17.892-.9ZM-7.532.252A4.456,4.456,0,0,1-9.744-.266a3.322,3.322,0,0,1-1.414-1.876,11.826,11.826,0,0,1-.49-3.85V-10.3a11.351,11.351,0,0,1,.5-3.864A3.148,3.148,0,0,1-9.7-15.96a4.8,4.8,0,0,1,2.2-.476,3.916,3.916,0,0,1,2.38.644,3.555,3.555,0,0,1,1.232,2.058A15.5,15.5,0,0,1-3.528-10v1.54h-6.636V-5.88A13.408,13.408,0,0,0-9.9-2.856a2.652,2.652,0,0,0,.854,1.54,2.426,2.426,0,0,0,1.512.448,3.7,3.7,0,0,0,1.176-.2,1.793,1.793,0,0,0,.98-.924,4.99,4.99,0,0,0,.392-2.268v-1.2h1.456V-4.4a5.979,5.979,0,0,1-.854,3.36A3.5,3.5,0,0,1-7.532.252Zm-2.632-9.6h5.18v-1.26a17.559,17.559,0,0,0-.154-2.506,2.961,2.961,0,0,0-.686-1.624,2.191,2.191,0,0,0-1.68-.574,2.767,2.767,0,0,0-1.5.378,2.274,2.274,0,0,0-.882,1.4,11.856,11.856,0,0,0-.28,2.954ZM-.9,0V-16.184H.588V-14a4.7,4.7,0,0,1,1.806-1.778,4.342,4.342,0,0,1,2.03-.574H4.55a.491.491,0,0,1,.154.028v1.54a.8.8,0,0,0-.294-.07q-.182-.014-.322-.014a3.8,3.8,0,0,0-2,.532,4.476,4.476,0,0,0-1.5,1.54V0ZM10.136.252A3.7,3.7,0,0,1,7.448-.6,4.177,4.177,0,0,1,6.314-2.884a17.5,17.5,0,0,1-.266-3.192V-9.884a16.165,16.165,0,0,1,.364-3.822,3.507,3.507,0,0,1,1.26-2.086,4.153,4.153,0,0,1,2.464-.644,3.983,3.983,0,0,1,2.534.686A3.286,3.286,0,0,1,13.8-13.874a11.7,11.7,0,0,1,.28,2.674v.644h-1.4V-11.2a9.258,9.258,0,0,0-.266-2.534,2.086,2.086,0,0,0-.826-1.232,2.712,2.712,0,0,0-1.456-.35,2.353,2.353,0,0,0-1.652.518,2.866,2.866,0,0,0-.756,1.666,19.137,19.137,0,0,0-.2,3.08v4.2A10.17,10.17,0,0,0,8.05-2.044,2.071,2.071,0,0,0,10.164-.868,2.434,2.434,0,0,0,11.8-1.344a2.425,2.425,0,0,0,.714-1.484,16.391,16.391,0,0,0,.168-2.6v-.616h1.4v.588a15.246,15.246,0,0,1-.252,2.912A3.581,3.581,0,0,1,12.74-.5,3.806,3.806,0,0,1,10.136.252ZM20.3.252a4.456,4.456,0,0,1-2.212-.518,3.322,3.322,0,0,1-1.414-1.876,11.826,11.826,0,0,1-.49-3.85V-10.3a11.351,11.351,0,0,1,.5-3.864A3.148,3.148,0,0,1,18.13-15.96a4.8,4.8,0,0,1,2.2-.476,3.916,3.916,0,0,1,2.38.644,3.555,3.555,0,0,1,1.232,2.058A15.5,15.5,0,0,1,24.3-10v1.54H17.668V-5.88a13.408,13.408,0,0,0,.266,3.024,2.652,2.652,0,0,0,.854,1.54A2.426,2.426,0,0,0,20.3-.868a3.7,3.7,0,0,0,1.176-.2,1.793,1.793,0,0,0,.98-.924,4.99,4.99,0,0,0,.392-2.268v-1.2H24.3V-4.4a5.979,5.979,0,0,1-.854,3.36A3.5,3.5,0,0,1,20.3.252Zm-2.632-9.6h5.18v-1.26a17.559,17.559,0,0,0-.154-2.506,2.961,2.961,0,0,0-.686-1.624,2.191,2.191,0,0,0-1.68-.574,2.767,2.767,0,0,0-1.5.378,2.274,2.274,0,0,0-.882,1.4,11.856,11.856,0,0,0-.28,2.954ZM26.74,0V-16.184h1.484v1.736A6.226,6.226,0,0,1,29.96-15.89a4.247,4.247,0,0,1,2.1-.546,2.451,2.451,0,0,1,1.3.35,2.364,2.364,0,0,1,.91,1.12,5.228,5.228,0,0,1,.336,2.058V0H33.124V-12.74a3.187,3.187,0,0,0-.462-2.016,1.566,1.566,0,0,0-1.246-.532,3.192,3.192,0,0,0-1.638.49,6.666,6.666,0,0,0-1.554,1.3V0ZM40.88.168A2.654,2.654,0,0,1,39.2-.28a2.061,2.061,0,0,1-.728-1.2A7.9,7.9,0,0,1,38.3-3.192V-15.2H36.176v-.98H38.3v-5.18h1.484v5.18h2.744v.98H39.788V-3.388A4.745,4.745,0,0,0,40.04-1.54q.252.532,1.148.532a4.67,4.67,0,0,0,.6-.042q.322-.042.6-.1V0a5.311,5.311,0,0,1-.756.126Q41.216.168,40.88.168ZM53.032.252A3.7,3.7,0,0,1,50.344-.6,4.177,4.177,0,0,1,49.21-2.884a17.5,17.5,0,0,1-.266-3.192V-9.884a16.165,16.165,0,0,1,.364-3.822,3.507,3.507,0,0,1,1.26-2.086,4.153,4.153,0,0,1,2.464-.644,3.983,3.983,0,0,1,2.534.686A3.286,3.286,0,0,1,56.7-13.874a11.7,11.7,0,0,1,.28,2.674v.644h-1.4V-11.2a9.258,9.258,0,0,0-.266-2.534,2.086,2.086,0,0,0-.826-1.232,2.712,2.712,0,0,0-1.456-.35,2.353,2.353,0,0,0-1.652.518,2.866,2.866,0,0,0-.756,1.666,19.137,19.137,0,0,0-.2,3.08v4.2a10.17,10.17,0,0,0,.518,3.808A2.071,2.071,0,0,0,53.06-.868,2.434,2.434,0,0,0,54.7-1.344a2.425,2.425,0,0,0,.714-1.484,16.391,16.391,0,0,0,.168-2.6v-.616h1.4v.588a15.245,15.245,0,0,1-.252,2.912A3.581,3.581,0,0,1,55.636-.5,3.806,3.806,0,0,1,53.032.252ZM59.388,0V-22.68h1.484v8.2A6.389,6.389,0,0,1,62.636-15.9a4.334,4.334,0,0,1,2.1-.532,2.451,2.451,0,0,1,1.3.35,2.364,2.364,0,0,1,.91,1.12,5.228,5.228,0,0,1,.336,2.058V0H65.772V-12.74a3.265,3.265,0,0,0-.448-2.016,1.525,1.525,0,0,0-1.232-.532,3.265,3.265,0,0,0-1.652.49,6.539,6.539,0,0,0-1.568,1.3V0ZM72.716.252A3.193,3.193,0,0,1,71.008-.2a3.055,3.055,0,0,1-1.134-1.246,3.99,3.99,0,0,1-.406-1.834,5.536,5.536,0,0,1,.266-1.806A3.673,3.673,0,0,1,70.7-6.524a10.268,10.268,0,0,1,2-1.414Q74-8.68,76.076-9.66v-1.148a13.829,13.829,0,0,0-.21-2.744,2.325,2.325,0,0,0-.7-1.372,2.071,2.071,0,0,0-1.33-.392,3.431,3.431,0,0,0-1.232.224,1.9,1.9,0,0,0-.966.882,3.988,3.988,0,0,0-.378,1.946v.42H69.8a5.348,5.348,0,0,1,.938-3.458,3.877,3.877,0,0,1,3.15-1.134,3.108,3.108,0,0,1,2.856,1.288,8.116,8.116,0,0,1,.812,4.172v8.148q0,.224.014.854T77.6-.756A7.106,7.106,0,0,0,77.644,0H76.356q-.056-.588-.14-1.232T76.1-2.156a3.762,3.762,0,0,1-1.26,1.708A3.354,3.354,0,0,1,72.716.252ZM73.08-.98A2.482,2.482,0,0,0,74.34-1.3a3.9,3.9,0,0,0,1.008-.84,4.924,4.924,0,0,0,.728-1.106v-5.32q-1.484.784-2.478,1.344A9.4,9.4,0,0,0,72.03-6.16,2.981,2.981,0,0,0,71.2-5.026,4.112,4.112,0,0,0,70.952-3.5a2.425,2.425,0,0,0,.672,1.988A2.3,2.3,0,0,0,73.08-.98ZM80.248,0V-16.184h1.484v1.736a6.226,6.226,0,0,1,1.736-1.442,4.247,4.247,0,0,1,2.1-.546,2.451,2.451,0,0,1,1.3.35,2.364,2.364,0,0,1,.91,1.12,5.228,5.228,0,0,1,.336,2.058V0H86.632V-12.74a3.187,3.187,0,0,0-.462-2.016,1.566,1.566,0,0,0-1.246-.532,3.192,3.192,0,0,0-1.638.49,6.666,6.666,0,0,0-1.554,1.3V0ZM94.892,5.488a11.422,11.422,0,0,1-2.856-.308,3.631,3.631,0,0,1-1.778-.952,2.248,2.248,0,0,1-.6-1.6,2.937,2.937,0,0,1,.434-1.554A5.486,5.486,0,0,1,91.182-.21a6.946,6.946,0,0,1,1.358-.938,3.807,3.807,0,0,1-1.5-.686A1.4,1.4,0,0,1,90.58-2.94a2.284,2.284,0,0,1,.56-1.47A11.214,11.214,0,0,1,92.6-5.852,4.485,4.485,0,0,1,90.93-8.036a8.478,8.478,0,0,1-.462-2.828,7.623,7.623,0,0,1,.462-2.618A4.9,4.9,0,0,1,92.386-15.6a3.876,3.876,0,0,1,2.59-.84,3.566,3.566,0,0,1,2.31.672A5.1,5.1,0,0,1,98.56-14.28a4.315,4.315,0,0,1,.9-1.106,3.544,3.544,0,0,1,1.288-.8l.392-.14.42,1.12a4.507,4.507,0,0,0-.98.364,5.712,5.712,0,0,0-.924.574,3.764,3.764,0,0,0-.7.686,6.727,6.727,0,0,1,.378,1.386,8.09,8.09,0,0,1,.154,1.358,8.74,8.74,0,0,1-.448,2.884,4.286,4.286,0,0,1-1.428,2.044,4.1,4.1,0,0,1-2.576.756,5.555,5.555,0,0,1-.938-.084,4.74,4.74,0,0,1-.8-.2,12.045,12.045,0,0,0-.98,1.106,1.82,1.82,0,0,0-.448,1.106.764.764,0,0,0,.322.672,2.819,2.819,0,0,0,1.022.364l2.632.476A7.481,7.481,0,0,1,98.966-.5,2.816,2.816,0,0,1,100.1,1.9a2.935,2.935,0,0,1-.728,2.058,4.19,4.19,0,0,1-1.9,1.162A8.678,8.678,0,0,1,94.892,5.488Zm0-1.2a6.345,6.345,0,0,0,2.8-.56A1.87,1.87,0,0,0,98.84,1.932,2.143,2.143,0,0,0,98.574.868a2.222,2.222,0,0,0-1.022-.84,8.858,8.858,0,0,0-2.268-.616L93.52-.9a12.25,12.25,0,0,0-1.078.728,5.09,5.09,0,0,0-1.05,1.05,2.26,2.26,0,0,0-.448,1.386,1.6,1.6,0,0,0,1.022,1.54A7.137,7.137,0,0,0,94.892,4.284Zm.14-10.528a2.69,2.69,0,0,0,1.652-.462,2.861,2.861,0,0,0,.924-1.176,5.484,5.484,0,0,0,.406-1.512,12.126,12.126,0,0,0,.1-1.47,8.808,8.808,0,0,0-.126-1.414,5.392,5.392,0,0,0-.462-1.47,3.053,3.053,0,0,0-.938-1.148A2.585,2.585,0,0,0,95-15.344a2.536,2.536,0,0,0-1.6.476,3.308,3.308,0,0,0-.966,1.2,5.5,5.5,0,0,0-.476,1.484,8.15,8.15,0,0,0-.126,1.316,10.466,10.466,0,0,0,.112,1.442A5.419,5.419,0,0,0,92.4-7.9a3.016,3.016,0,0,0,.966,1.19A2.753,2.753,0,0,0,95.032-6.244Zm11.032,6.5a4.456,4.456,0,0,1-2.212-.518,3.322,3.322,0,0,1-1.414-1.876,11.826,11.826,0,0,1-.49-3.85V-10.3a11.351,11.351,0,0,1,.5-3.864,3.148,3.148,0,0,1,1.442-1.792,4.8,4.8,0,0,1,2.2-.476,3.916,3.916,0,0,1,2.38.644,3.555,3.555,0,0,1,1.232,2.058A15.5,15.5,0,0,1,110.068-10v1.54h-6.636V-5.88a13.409,13.409,0,0,0,.266,3.024,2.652,2.652,0,0,0,.854,1.54,2.426,2.426,0,0,0,1.512.448,3.7,3.7,0,0,0,1.176-.2,1.793,1.793,0,0,0,.98-.924,4.99,4.99,0,0,0,.392-2.268v-1.2h1.456V-4.4a5.979,5.979,0,0,1-.854,3.36A3.5,3.5,0,0,1,106.064.252Zm-2.632-9.6h5.18v-1.26a17.559,17.559,0,0,0-.154-2.506,2.961,2.961,0,0,0-.686-1.624,2.191,2.191,0,0,0-1.68-.574,2.767,2.767,0,0,0-1.5.378,2.274,2.274,0,0,0-.882,1.4,11.856,11.856,0,0,0-.28,2.954ZM-96.95,34V18.852h-2.184V17.816h2.184V15.632A10.213,10.213,0,0,1-96.8,13.77a2.23,2.23,0,0,1,.714-1.316,2.637,2.637,0,0,1,1.764-.49,7.1,7.1,0,0,1,.756.042,3.465,3.465,0,0,1,.728.154v1.12a3.808,3.808,0,0,0-.6-.126,4.49,4.49,0,0,0-.574-.042q-.952,0-1.2.588a5.215,5.215,0,0,0-.252,1.9v2.212h2.716v1.036h-2.716V34Zm5.936,0V17.816h1.484V20a4.7,4.7,0,0,1,1.806-1.778,4.342,4.342,0,0,1,2.03-.574h.126a.491.491,0,0,1,.154.028v1.54a.8.8,0,0,0-.294-.07q-.182-.014-.322-.014a3.8,3.8,0,0,0-2,.532,4.476,4.476,0,0,0-1.5,1.54V34Zm11,.252a3.9,3.9,0,0,1-2.478-.7A3.715,3.715,0,0,1-83.72,31.48a13.942,13.942,0,0,1-.35-3.388V23.724a13.942,13.942,0,0,1,.35-3.388,3.715,3.715,0,0,1,1.232-2.072,3.9,3.9,0,0,1,2.478-.7,3.946,3.946,0,0,1,2.506.7,3.708,3.708,0,0,1,1.232,2.058,13.906,13.906,0,0,1,.35,3.4v4.368a13.942,13.942,0,0,1-.35,3.388A3.715,3.715,0,0,1-77.5,33.552,3.946,3.946,0,0,1-80.01,34.252Zm0-1.12a2.265,2.265,0,0,0,1.736-.6,3.08,3.08,0,0,0,.714-1.722,19.846,19.846,0,0,0,.154-2.66v-4.48a19.774,19.774,0,0,0-.154-2.674,3.063,3.063,0,0,0-.714-1.708,2.265,2.265,0,0,0-1.736-.6,2.218,2.218,0,0,0-1.722.6,3.123,3.123,0,0,0-.7,1.708,19.774,19.774,0,0,0-.154,2.674v4.48a19.844,19.844,0,0,0,.154,2.66,3.141,3.141,0,0,0,.7,1.722A2.218,2.218,0,0,0-80.01,33.132ZM-73.4,34V17.816H-72v1.708a5.8,5.8,0,0,1,1.764-1.47,4.317,4.317,0,0,1,2.044-.518,2.822,2.822,0,0,1,1.526.448,2.556,2.556,0,0,1,.994,1.708,6.069,6.069,0,0,1,1.82-1.6,4.318,4.318,0,0,1,2.128-.56,2.844,2.844,0,0,1,1.288.308A2.31,2.31,0,0,1-59.43,18.95a5.225,5.225,0,0,1,.392,2.254V34h-1.428V21.176a3.028,3.028,0,0,0-.5-2.072,1.676,1.676,0,0,0-1.232-.5,3.363,3.363,0,0,0-1.736.518A6.76,6.76,0,0,0-65.562,20.5a2.721,2.721,0,0,1,.042.322q.014.182.014.378V34h-1.428V21.176a3.028,3.028,0,0,0-.5-2.072,1.676,1.676,0,0,0-1.232-.5,3.32,3.32,0,0,0-1.708.518A7.062,7.062,0,0,0-72,20.476V34Zm26.46.252a2.97,2.97,0,0,1-1.778-.532,6.5,6.5,0,0,1-1.19-1.064V34h-1.484V11.32h1.484v7.868a5.061,5.061,0,0,1,1.218-1.106,3.309,3.309,0,0,1,1.89-.518,3.32,3.32,0,0,1,1.834.462,3.087,3.087,0,0,1,1.12,1.344,7.19,7.19,0,0,1,.56,2.114,22.256,22.256,0,0,1,.154,2.744v3.108a17.52,17.52,0,0,1-.35,3.808,4.491,4.491,0,0,1-1.176,2.324A3.181,3.181,0,0,1-46.942,34.252Zm-.2-1.148a1.982,1.982,0,0,0,1.568-.6,3.654,3.654,0,0,0,.728-1.876,21.925,21.925,0,0,0,.2-3.234V24.228a22.086,22.086,0,0,0-.182-3.15,3.4,3.4,0,0,0-.7-1.792,2.026,2.026,0,0,0-1.582-.574,2.736,2.736,0,0,0-1.624.518,7.944,7.944,0,0,0-1.176.994V31.648a5.106,5.106,0,0,0,1.19,1.008A2.917,2.917,0,0,0-47.138,33.1Zm9.212,1.148a3.193,3.193,0,0,1-1.708-.448,3.055,3.055,0,0,1-1.134-1.246,3.99,3.99,0,0,1-.406-1.834,5.536,5.536,0,0,1,.266-1.806,3.673,3.673,0,0,1,.966-1.442,10.268,10.268,0,0,1,2-1.414q1.3-.742,3.374-1.722V23.192a13.829,13.829,0,0,0-.21-2.744,2.325,2.325,0,0,0-.7-1.372,2.071,2.071,0,0,0-1.33-.392,3.431,3.431,0,0,0-1.232.224A1.9,1.9,0,0,0-39,19.79a3.988,3.988,0,0,0-.378,1.946v.42h-1.456A5.348,5.348,0,0,1-39.9,18.7a3.877,3.877,0,0,1,3.15-1.134,3.108,3.108,0,0,1,2.856,1.288,8.116,8.116,0,0,1,.812,4.172v8.148q0,.224.014.854t.028,1.218A7.107,7.107,0,0,0-33,34h-1.288q-.056-.588-.14-1.232t-.112-.924a3.762,3.762,0,0,1-1.26,1.708A3.354,3.354,0,0,1-37.926,34.252Zm.364-1.232A2.482,2.482,0,0,0-36.3,32.7a3.9,3.9,0,0,0,1.008-.84,4.924,4.924,0,0,0,.728-1.106v-5.32q-1.484.784-2.478,1.344a9.4,9.4,0,0,0-1.568,1.064,2.981,2.981,0,0,0-.826,1.134A4.112,4.112,0,0,0-39.69,30.5a2.425,2.425,0,0,0,.672,1.988A2.3,2.3,0,0,0-37.562,33.02Zm10.836,1.232a3.863,3.863,0,0,1-3.024-1.246,5.544,5.544,0,0,1-1.288-3.374l1.26-.364a4.976,4.976,0,0,0,.938,2.954,2.738,2.738,0,0,0,2.17.91,2.544,2.544,0,0,0,1.9-.686,2.665,2.665,0,0,0,.672-1.946,3.467,3.467,0,0,0-.574-1.806,8.509,8.509,0,0,0-1.806-1.974l-1.876-1.6a8.423,8.423,0,0,1-1.764-1.974,4.1,4.1,0,0,1-.56-2.142,3.538,3.538,0,0,1,.462-1.876,3.05,3.05,0,0,1,1.288-1.162,4.3,4.3,0,0,1,1.918-.406,3.232,3.232,0,0,1,2.716,1.148,5.126,5.126,0,0,1,.952,3.08l-1.092.336a5.551,5.551,0,0,0-.35-2.016,2.273,2.273,0,0,0-.868-1.092,2.381,2.381,0,0,0-1.274-.336,2.608,2.608,0,0,0-1.722.546,1.972,1.972,0,0,0-.658,1.61,3.264,3.264,0,0,0,.35,1.554,6.179,6.179,0,0,0,1.3,1.526l1.932,1.708a18.553,18.553,0,0,1,1.4,1.316A6.459,6.459,0,0,1-23.212,28.5a4.431,4.431,0,0,1,.434,2.03,3.858,3.858,0,0,1-.49,2A3.291,3.291,0,0,1-24.64,33.8,4.553,4.553,0,0,1-26.726,34.252Zm9.744,0a4.456,4.456,0,0,1-2.212-.518,3.322,3.322,0,0,1-1.414-1.876,11.826,11.826,0,0,1-.49-3.85V23.7a11.351,11.351,0,0,1,.5-3.864,3.148,3.148,0,0,1,1.442-1.792,4.8,4.8,0,0,1,2.2-.476,3.916,3.916,0,0,1,2.38.644,3.555,3.555,0,0,1,1.232,2.058A15.5,15.5,0,0,1-12.978,24v1.54h-6.636V28.12a13.408,13.408,0,0,0,.266,3.024,2.652,2.652,0,0,0,.854,1.54,2.426,2.426,0,0,0,1.512.448,3.7,3.7,0,0,0,1.176-.2,1.793,1.793,0,0,0,.98-.924,4.99,4.99,0,0,0,.392-2.268v-1.2h1.456V29.6a5.979,5.979,0,0,1-.854,3.36A3.5,3.5,0,0,1-16.982,34.252Zm-2.632-9.6h5.18v-1.26a17.56,17.56,0,0,0-.154-2.506,2.961,2.961,0,0,0-.686-1.624,2.191,2.191,0,0,0-1.68-.574,2.767,2.767,0,0,0-1.5.378,2.274,2.274,0,0,0-.882,1.4,11.856,11.856,0,0,0-.28,2.954ZM-10.262,34V11.32h1.484V34Zm4.788,0V17.816h1.512V34Zm0-18.312V13.112h1.512v2.576ZM-.77,34V17.816H.714v1.736A6.226,6.226,0,0,1,2.45,18.11a4.247,4.247,0,0,1,2.1-.546,2.451,2.451,0,0,1,1.3.35,2.364,2.364,0,0,1,.91,1.12A5.228,5.228,0,0,1,7.1,21.092V34H5.614V21.26a3.187,3.187,0,0,0-.462-2.016,1.566,1.566,0,0,0-1.246-.532,3.192,3.192,0,0,0-1.638.49A6.666,6.666,0,0,0,.714,20.5V34Zm14.392.252a4.456,4.456,0,0,1-2.212-.518A3.322,3.322,0,0,1,10,31.858a11.826,11.826,0,0,1-.49-3.85V23.7a11.351,11.351,0,0,1,.5-3.864,3.148,3.148,0,0,1,1.442-1.792,4.8,4.8,0,0,1,2.2-.476,3.916,3.916,0,0,1,2.38.644,3.555,3.555,0,0,1,1.232,2.058A15.5,15.5,0,0,1,17.626,24v1.54H10.99V28.12a13.408,13.408,0,0,0,.266,3.024,2.652,2.652,0,0,0,.854,1.54,2.426,2.426,0,0,0,1.512.448,3.7,3.7,0,0,0,1.176-.2,1.793,1.793,0,0,0,.98-.924,4.99,4.99,0,0,0,.392-2.268v-1.2h1.456V29.6a5.979,5.979,0,0,1-.854,3.36A3.5,3.5,0,0,1,13.622,34.252Zm-2.632-9.6h5.18v-1.26a17.559,17.559,0,0,0-.154-2.506,2.961,2.961,0,0,0-.686-1.624,2.191,2.191,0,0,0-1.68-.574,2.767,2.767,0,0,0-1.5.378,2.274,2.274,0,0,0-.882,1.4,11.856,11.856,0,0,0-.28,2.954ZM30.03,34.28a5.477,5.477,0,0,1-2.954-.728,4.61,4.61,0,0,1-1.764-2.044A9.16,9.16,0,0,1,24.57,28.4l1.316-.42a13.035,13.035,0,0,0,.6,2.632,3.687,3.687,0,0,0,1.246,1.778,3.8,3.8,0,0,0,2.324.63,3.9,3.9,0,0,0,2.646-.84,3.542,3.542,0,0,0,.966-2.8,4.816,4.816,0,0,0-.77-2.674,15.466,15.466,0,0,0-2.17-2.562l-4.144-4.116A7.493,7.493,0,0,1,25.074,17.9a5.3,5.3,0,0,1-.476-2.184,4.316,4.316,0,0,1,1.386-3.444,5.289,5.289,0,0,1,3.6-1.2,6.817,6.817,0,0,1,2.072.294,4.08,4.08,0,0,1,1.61.952,4.468,4.468,0,0,1,1.078,1.75,10.139,10.139,0,0,1,.5,2.688l-1.288.308a9.041,9.041,0,0,0-.532-2.66,3.192,3.192,0,0,0-1.232-1.582A4.023,4.023,0,0,0,29.61,12.3a4.146,4.146,0,0,0-2.576.784A2.957,2.957,0,0,0,26,15.6a4.2,4.2,0,0,0,.35,1.68,5.973,5.973,0,0,0,1.3,1.764l4.088,4.032A17.026,17.026,0,0,1,34.1,25.95,6.007,6.007,0,0,1,35.1,29.3a5.532,5.532,0,0,1-.644,2.814,3.954,3.954,0,0,1-1.792,1.638A6.194,6.194,0,0,1,30.03,34.28ZM37.786,34V11.32h5.32a5.684,5.684,0,0,1,3.192.77,4.07,4.07,0,0,1,1.61,2.086,9.017,9.017,0,0,1,.462,3,8.976,8.976,0,0,1-.462,2.884A4.576,4.576,0,0,1,46.3,22.3a5.138,5.138,0,0,1-3.164.868H39.3V34ZM39.3,21.988h3.5a4.72,4.72,0,0,0,2.254-.476,2.929,2.929,0,0,0,1.316-1.526,7.512,7.512,0,0,0,.434-2.814,8.2,8.2,0,0,0-.392-2.842A2.464,2.464,0,0,0,45.15,12.9a5.553,5.553,0,0,0-2.324-.406H39.3ZM51,34V11.32h4.956a6.16,6.16,0,0,1,3.528.868A4.557,4.557,0,0,1,61.25,14.54a10.229,10.229,0,0,1,.5,3.3v9.408a11,11,0,0,1-.5,3.458,4.7,4.7,0,0,1-1.722,2.408A5.77,5.77,0,0,1,56.1,34Zm1.512-1.2h3.5a4.081,4.081,0,0,0,2.744-.784,3.72,3.72,0,0,0,1.176-2.086,13.523,13.523,0,0,0,.28-2.842V17.956a10.865,10.865,0,0,0-.336-2.87,3.288,3.288,0,0,0-1.26-1.876,4.55,4.55,0,0,0-2.66-.658H52.514Zm22.008,5.32a3.515,3.515,0,0,1-2.072-.826,4.656,4.656,0,0,1-1.26-1.918,12.894,12.894,0,0,1-.658-2.842A34.379,34.379,0,0,1,70.28,28.9q-.042-1.988-.042-4.228,0-2.268.042-4.284a35.512,35.512,0,0,1,.252-3.682,13.177,13.177,0,0,1,.658-2.884,4.427,4.427,0,0,1,1.26-1.9,3.341,3.341,0,0,1,2.072-.742v1.092a2.183,2.183,0,0,0-1.652,1.134,7.439,7.439,0,0,0-.84,2.66,29.962,29.962,0,0,0-.294,3.864q-.042,2.2-.042,4.746t.042,4.746a29.6,29.6,0,0,0,.294,3.85,7.625,7.625,0,0,0,.826,2.646,2.16,2.16,0,0,0,1.666,1.134ZM79.394,34,87.15,11.04h1.344L80.794,34Zm-.308-11.676a2.379,2.379,0,0,1-2.254-1.092,5.426,5.426,0,0,1-.63-2.744V14.512a5.087,5.087,0,0,1,.644-2.716,2.426,2.426,0,0,1,2.24-1.036,2.362,2.362,0,0,1,2.2,1.036,5.116,5.116,0,0,1,.63,2.688v4.032a5.446,5.446,0,0,1-.616,2.73A2.327,2.327,0,0,1,79.086,22.324Zm0-1.176a1.192,1.192,0,0,0,.882-.322,1.859,1.859,0,0,0,.462-.9,5.786,5.786,0,0,0,.14-1.358V14.456a4.367,4.367,0,0,0-.322-1.834,1.172,1.172,0,0,0-1.162-.686,1.191,1.191,0,0,0-1.19.7,4.386,4.386,0,0,0-.322,1.82v4.116a5.786,5.786,0,0,0,.14,1.358,1.8,1.8,0,0,0,.476.9A1.241,1.241,0,0,0,79.086,21.148ZM88.8,34.168a2.355,2.355,0,0,1-2.24-1.078,5.446,5.446,0,0,1-.616-2.73V26.384a5.177,5.177,0,0,1,.63-2.716,2.907,2.907,0,0,1,4.438-.014,5.012,5.012,0,0,1,.644,2.7v4.032a5.366,5.366,0,0,1-.616,2.716A2.365,2.365,0,0,1,88.8,34.168Zm0-1.148a1.192,1.192,0,0,0,.882-.322,1.859,1.859,0,0,0,.462-.9,5.787,5.787,0,0,0,.14-1.358V26.328a4.367,4.367,0,0,0-.322-1.834,1.172,1.172,0,0,0-1.162-.686,1.194,1.194,0,0,0-1.19.686,4.367,4.367,0,0,0-.322,1.834v4.116a5.786,5.786,0,0,0,.14,1.358,1.8,1.8,0,0,0,.476.9A1.241,1.241,0,0,0,88.8,33.02Zm4.536,5.1V37.052a2.183,2.183,0,0,0,1.652-1.134,7.439,7.439,0,0,0,.84-2.66,29.962,29.962,0,0,0,.294-3.864q.042-2.2.042-4.746T96.124,19.9a29.6,29.6,0,0,0-.294-3.85,7.419,7.419,0,0,0-.84-2.646,2.183,2.183,0,0,0-1.652-1.134V11.18a3.341,3.341,0,0,1,2.072.742,4.533,4.533,0,0,1,1.274,1.9,12.612,12.612,0,0,1,.672,2.87,35.045,35.045,0,0,1,.252,3.668q.042,2.016.042,4.284,0,2.24-.042,4.228a34.842,34.842,0,0,1-.252,3.64,12.364,12.364,0,0,1-.672,2.856A4.772,4.772,0,0,1,95.41,37.29,3.515,3.515,0,0,1,93.338,38.116Z" transform="translate(338 1850.91) rotate(-90)" fill="#823695"/>
    <path id="Path_567" data-name="Path 567" d="M358.985,100.681h6.367V551.893h-6.367" transform="translate(91.613 1522.068)" fill="none" stroke="#63666b" stroke-linejoin="round" stroke-width="0.68"/>
    <path id="Path_568" data-name="Path 568" d="M358.985,100.681h6.367V551.893" transform="translate(91.613 1522.068)" fill="none" stroke="#63666b" stroke-linejoin="round" stroke-width="0.68"/>
    <path id="Path_3273" data-name="Path 3273" d="M0,0H6.367" transform="translate(450.596 1667.281)" fill="none" stroke="#63666b" stroke-width="0.68"/>
    <path id="Path_3274" data-name="Path 3274" d="M0,0H6.367" transform="translate(450.596 1713.256)" fill="none" stroke="#63666b" stroke-width="0.68"/>
    <path id="Path_3275" data-name="Path 3275" d="M0,0H6.367" transform="translate(450.596 1757.881)" fill="none" stroke="#63666b" stroke-width="0.68"/>
    <path id="Path_3276" data-name="Path 3276" d="M0,0H6.367" transform="translate(450.596 1802.286)" fill="none" stroke="#63666b" stroke-width="0.68"/>
    <path id="Path_3277" data-name="Path 3277" d="M0,0H6.367" transform="translate(450.596 1845.397)" fill="none" stroke="#63666b" stroke-width="0.68"/>
    <path id="Path_3278" data-name="Path 3278" d="M0,0H6.367" transform="translate(450.596 1892.226)" fill="none" stroke="#63666b" stroke-width="0.68"/>
    <path id="Path_3291" data-name="Path 3291" d="M0,0H6.367" transform="translate(450.596 1936.65)" fill="none" stroke="#63666b" stroke-width="0.68"/>
    <path id="Path_3300" data-name="Path 3300" d="M0,0H6.367" transform="translate(450.596 1981.075)" fill="none" stroke="#63666b" stroke-width="0.68"/>
    <path id="Path_3305" data-name="Path 3305" d="M0,0H6.367" transform="translate(450.596 2025.499)" fill="none" stroke="#63666b" stroke-width="0.68"/>
    <path id="Path_3279" data-name="Path 3279" d="M0,0H7.568V179.1H0Z" transform="translate(490.34 1666.891)" fill="#823695"/>
    <path id="Path_3295" data-name="Path 3295" d="M0,0H7.568V140.637H0Z" transform="translate(530.477 1704.407)" fill="#823695"/>
    <path id="Path_3296" data-name="Path 3296" d="M0,0H7.568V115.4H0Z" transform="translate(540.513 1729.822)" fill="#823695"/>
    <path id="Path_3299" data-name="Path 3299" d="M0,0H7.568V40.252H0Z" transform="translate(559.464 1804.855)" fill="#823695"/>
    <path id="Path_3301" data-name="Path 3301" d="M0,0H7.568V39.382H0Z" transform="translate(569.5 1806.066)" fill="#823695"/>
    <path id="Path_3308" data-name="Path 3308" d="M0,0H7.568V5.31H0Z" transform="translate(619.669 1839.951)" fill="#823695"/>
    <path id="Path_3317" data-name="Path 3317" d="M0,0H7.568V46.366H0Z" transform="translate(728.649 1844.792)" fill="#823695"/>
    <path id="Path_3325" data-name="Path 3325" d="M0,0H7.568V65.734H0Z" transform="translate(807.233 1844.792)" fill="#823695"/>
    <path id="Path_3331" data-name="Path 3331" d="M0,0H7.568V70.463H0Z" transform="translate(856.347 1844.792)" fill="#823695"/>
    <path id="Path_3334" data-name="Path 3334" d="M0,0H7.568V78.609H0Z" transform="translate(895.641 1844.792)" fill="#823695"/>
    <path id="Path_3343" data-name="Path 3343" d="M0,0H7.568V95.3H0Z" transform="translate(984.047 1844.792)" fill="#823695"/>
    <path id="Path_3346" data-name="Path 3346" d="M0,0H7.568V96.459H0Z" transform="translate(993.871 1844.792)" fill="#823695"/>
    <path id="Path_3347" data-name="Path 3347" d="M0,0H7.568V99.783H0Z" transform="translate(1013.518 1844.792)" fill="#823695"/>
    <path id="Path_3349" data-name="Path 3349" d="M0,0H7.568V103.285H0Z" transform="translate(1033.164 1844.792)" fill="#823695"/>
    <path id="Path_3353" data-name="Path 3353" d="M0,0H7.568V112.613H0Z" transform="translate(1072.457 1844.792)" fill="#823695"/>
    <path id="Path_3357" data-name="Path 3357" d="M0,0H7.568V115.135H0Z" transform="translate(1121.57 1844.792)" fill="#823695"/>
    <path id="Path_3358" data-name="Path 3358" d="M0,0H7.568V115.6H0Z" transform="translate(1131.396 1844.792)" fill="#823695"/>
    <path id="Path_3359" data-name="Path 3359" d="M0,0H7.568V125.465H0Z" transform="translate(1160.865 1844.792)" fill="#823695"/>
    <path id="Path_3364" data-name="Path 3364" d="M0,0H7.568V131.289H0Z" transform="translate(1180.508 1844.792)" fill="#823695"/>
    <path id="Path_3376" data-name="Path 3376" d="M0,0H7.568V142.579H0Z" transform="translate(1288.563 1844.792)" fill="#823695"/>
    <path id="Path_3378" data-name="Path 3378" d="M0,0H7.568V152.111H0Z" transform="translate(1308.207 1844.792)" fill="#823695"/>
    <path id="Path_3381" data-name="Path 3381" d="M0,0H7.568V157.659H0Z" transform="translate(1347.502 1844.792)" fill="#823695"/>
    <path id="Path_3384" data-name="Path 3384" d="M0,0H7.568V161.472H0Z" transform="translate(1367.149 1844.792)" fill="#823695"/>
    <path id="Path_3385" data-name="Path 3385" d="M0,0H7.568V162.06H0Z" transform="translate(1376.969 1844.792)" fill="#823695"/>
    <path id="Path_3386" data-name="Path 3386" d="M0,0H7.568V163.106H0Z" transform="translate(1386.795 1844.792)" fill="#823695"/>
    <path id="Path_3389" data-name="Path 3389" d="M0,0H7.568V166.719H0Z" transform="translate(1416.262 1844.792)" fill="#823695"/>
    <path id="Path_3399" data-name="Path 3399" d="M0,0H7.568V209.093H0Z" transform="translate(1514.492 1844.792)" fill="#823695"/>
    <path id="Path_3400" data-name="Path 3400" d="M0,0H7.568V214.311H0Z" transform="translate(1524.317 1844.792)" fill="#823695"/>
    <path id="Path_3401" data-name="Path 3401" d="M0,0H7.568V227.148H0Z" transform="translate(1534.14 1844.792)" fill="#823695"/>
    <path id="Path_3280" data-name="Path 3280" d="M0,0H7.568V194.93H0Z" transform="translate(470.274 1649.948)" fill="#823695"/>
    <path id="Path_3281" data-name="Path 3281" d="M0,0H7.568V158H0Z" transform="translate(500.376 1687.465)" fill="#823695"/>
    <path id="Path_3292" data-name="Path 3292" d="M0,0H7.568V149.588H0Z" transform="translate(510.409 1695.936)" fill="#823695"/>
    <path id="Path_3302" data-name="Path 3302" d="M0,0H7.568V36.883H0Z" transform="translate(579.532 1808.486)" fill="#823695"/>
    <path id="Path_3306" data-name="Path 3306" d="M0,0H7.568V22.938H0Z" transform="translate(599.6 1823.009)" fill="#823695"/>
    <path id="Path_3307" data-name="Path 3307" d="M0,0H7.568V20.036H0Z" transform="translate(609.636 1825.429)" fill="#823695"/>
    <path id="Path_3309" data-name="Path 3309" d="M0,0H7.568V3.325H0Z" transform="translate(649.896 1844.792)" fill="#823695"/>
    <path id="Path_3311" data-name="Path 3311" d="M0,0H7.568V4.686H0Z" transform="translate(659.889 1844.792)" fill="#823695"/>
    <path id="Path_3312" data-name="Path 3312" d="M0,0H7.568V9.014H0Z" transform="translate(669.709 1844.792)" fill="#823695"/>
    <path id="Path_3314" data-name="Path 3314" d="M0,0H7.568V27.088H0Z" transform="translate(689.357 1844.792)" fill="#823695"/>
    <path id="Path_3315" data-name="Path 3315" d="M0,0H7.568V27.846H0Z" transform="translate(699.178 1844.792)" fill="#823695"/>
    <path id="Path_3318" data-name="Path 3318" d="M0,0H7.568V42.082H0Z" transform="translate(718.824 1844.792)" fill="#823695"/>
    <path id="Path_3319" data-name="Path 3319" d="M0,0H7.568V46.389H0Z" transform="translate(738.473 1844.792)" fill="#823695"/>
    <path id="Path_3320" data-name="Path 3320" d="M0,0H7.568V46.567H0Z" transform="translate(748.296 1844.792)" fill="#823695"/>
    <path id="Path_3321" data-name="Path 3321" d="M0,0H7.568V49.735H0Z" transform="translate(758.115 1844.792)" fill="#823695"/>
    <path id="Path_3323" data-name="Path 3323" d="M0,0H7.568V51.1H0Z" transform="translate(777.762 1844.792)" fill="#823695"/>
    <path id="Path_3327" data-name="Path 3327" d="M0,0H7.568V65.844H0Z" transform="translate(817.058 1844.792)" fill="#823695"/>
    <path id="Path_3328" data-name="Path 3328" d="M0,0H7.568V67.407H0Z" transform="translate(836.701 1844.792)" fill="#823695"/>
    <path id="Path_3332" data-name="Path 3332" d="M0,0H7.568V70.664H0Z" transform="translate(866.172 1844.792)" fill="#823695"/>
    <path id="Path_3333" data-name="Path 3333" d="M0,0H7.568V71.333H0Z" transform="translate(875.995 1844.792)" fill="#823695"/>
    <path id="Path_3335" data-name="Path 3335" d="M0,0H7.568V74.9H0Z" transform="translate(885.818 1844.792)" fill="#823695"/>
    <path id="Path_3336" data-name="Path 3336" d="M0,0H7.568V79.635H0Z" transform="translate(905.464 1844.792)" fill="#823695"/>
    <path id="Path_3338" data-name="Path 3338" d="M0,0H7.568V84.767H0Z" transform="translate(925.109 1844.792)" fill="#823695"/>
    <path id="Path_3340" data-name="Path 3340" d="M0,0H7.568V88.649H0Z" transform="translate(954.58 1844.792)" fill="#823695"/>
    <path id="Path_3344" data-name="Path 3344" d="M0,0H7.568V91.171H0Z" transform="translate(964.402 1844.792)" fill="#823695"/>
    <path id="Path_3345" data-name="Path 3345" d="M0,0H7.568V92.174H0Z" transform="translate(974.224 1844.792)" fill="#823695"/>
    <path id="Path_3350" data-name="Path 3350" d="M0,0H7.568V100.5H0Z" transform="translate(1023.342 1844.792)" fill="#823695"/>
    <path id="Path_3351" data-name="Path 3351" d="M0,0H7.568V104H0Z" transform="translate(1042.986 1844.792)" fill="#823695"/>
    <path id="Path_3352" data-name="Path 3352" d="M0,0H7.568V106.32H0Z" transform="translate(1052.811 1844.792)" fill="#823695"/>
    <path id="Path_3354" data-name="Path 3354" d="M0,0H7.568V108.93H0Z" transform="translate(1062.631 1844.792)" fill="#823695"/>
    <path id="Path_3355" data-name="Path 3355" d="M0,0H7.568V113.705H0Z" transform="translate(1082.275 1844.792)" fill="#823695"/>
    <path id="Path_3356" data-name="Path 3356" d="M0,0H7.568V113.906H0Z" transform="translate(1092.103 1844.792)" fill="#823695"/>
    <path id="Path_3360" data-name="Path 3360" d="M0,0H7.568V114.041H0Z" transform="translate(1101.924 1844.792)" fill="#823695"/>
    <path id="Path_3361" data-name="Path 3361" d="M0,0H7.568V120.6H0Z" transform="translate(1141.217 1844.792)" fill="#823695"/>
    <path id="Path_3365" data-name="Path 3365" d="M0,0H7.568V127.606H0Z" transform="translate(1170.687 1844.792)" fill="#823695"/>
    <path id="Path_3366" data-name="Path 3366" d="M0,0H7.568V134.881H0Z" transform="translate(1190.333 1844.792)" fill="#823695"/>
    <path id="Path_3367" data-name="Path 3367" d="M0,0H7.568V135.461H0Z" transform="translate(1209.979 1844.792)" fill="#823695"/>
    <path id="Path_3368" data-name="Path 3368" d="M0,0H7.568V136.331H0Z" transform="translate(1219.803 1844.792)" fill="#823695"/>
    <path id="Path_3370" data-name="Path 3370" d="M0,0H7.568V139.857H0Z" transform="translate(1239.447 1844.792)" fill="#823695"/>
    <path id="Path_3373" data-name="Path 3373" d="M0,0H7.568V141.241H0Z" transform="translate(1268.918 1844.792)" fill="#823695"/>
    <path id="Path_3380" data-name="Path 3380" d="M0,0H7.568V154.29H0Z" transform="translate(1327.857 1844.792)" fill="#823695"/>
    <path id="Path_3382" data-name="Path 3382" d="M0,0H7.568V156.483H0Z" transform="translate(1337.678 1844.792)" fill="#823695"/>
    <path id="Path_3387" data-name="Path 3387" d="M0,0H7.568V164.066H0Z" transform="translate(1396.615 1844.792)" fill="#823695"/>
    <path id="Path_3388" data-name="Path 3388" d="M0,0H7.568V166H0Z" transform="translate(1406.44 1844.792)" fill="#823695"/>
    <path id="Path_3390" data-name="Path 3390" d="M0,0H7.568V170.36H0Z" transform="translate(1426.085 1844.792)" fill="#823695"/>
    <path id="Path_3391" data-name="Path 3391" d="M0,0H7.568V173.241H0Z" transform="translate(1435.913 1844.792)" fill="#823695"/>
    <path id="Path_3392" data-name="Path 3392" d="M0,0H7.568V174.173H0Z" transform="translate(1445.731 1844.792)" fill="#823695"/>
    <path id="Path_3393" data-name="Path 3393" d="M0,0H7.568V176.739H0Z" transform="translate(1455.557 1844.792)" fill="#823695"/>
    <path id="Path_3395" data-name="Path 3395" d="M0,0H7.568V178.258H0Z" transform="translate(1475.202 1844.792)" fill="#823695"/>
    <path id="Path_3396" data-name="Path 3396" d="M0,0H7.568V186.73H0Z" transform="translate(1485.024 1844.792)" fill="#823695"/>
    <path id="Path_3402" data-name="Path 3402" d="M0,0H7.568V227.148H0Z" transform="translate(1543.965 1844.792)" fill="#823695"/>
    <path id="Path_3403" data-name="Path 3403" d="M0,0H7.568V227.148H0Z" transform="translate(1553.788 1844.792)" fill="#823695"/>
    <path id="Path_3404" data-name="Path 3404" d="M0,0H7.568V227.148H0Z" transform="translate(1563.609 1844.792)" fill="#823695"/>
    <path id="Path_3282" data-name="Path 3282" d="M0,0H7.568V187.118H0Z" transform="translate(480.308 1658.419)" fill="#823695"/>
    <path id="Path_3293" data-name="Path 3293" d="M0,0H7.568V144.513H0Z" transform="translate(520.442 1700.777)" fill="#823695"/>
    <path id="Path_3297" data-name="Path 3297" d="M0,0H7.568V41.926H0Z" transform="translate(550.546 1803.645)" fill="#823695"/>
    <path id="Path_3304" data-name="Path 3304" d="M0,0H7.568V27.757H0Z" transform="translate(589.567 1818.168)" fill="#823695"/>
    <path id="Path_3313" data-name="Path 3313" d="M0,0H7.568V19.457H0Z" transform="translate(679.533 1844.792)" fill="#823695"/>
    <path id="Path_3316" data-name="Path 3316" d="M0,0H7.568V33.759H0Z" transform="translate(709.002 1844.792)" fill="#823695"/>
    <path id="Path_3322" data-name="Path 3322" d="M0,0H7.568V50.761H0Z" transform="translate(767.94 1844.792)" fill="#823695"/>
    <path id="Path_3324" data-name="Path 3324" d="M0,0H7.568V53.283H0Z" transform="translate(787.587 1844.792)" fill="#823695"/>
    <path id="Path_3326" data-name="Path 3326" d="M0,0H7.568V53.327H0Z" transform="translate(797.412 1844.792)" fill="#823695"/>
    <path id="Path_3329" data-name="Path 3329" d="M0,0H7.568V67.206H0Z" transform="translate(826.88 1844.792)" fill="#823695"/>
    <path id="Path_3330" data-name="Path 3330" d="M0,0H7.568V67.519H0Z" transform="translate(846.524 1844.792)" fill="#823695"/>
    <path id="Path_3339" data-name="Path 3339" d="M0,0H7.568V81.308H0Z" transform="translate(915.288 1844.792)" fill="#823695"/>
    <path id="Path_3341" data-name="Path 3341" d="M0,0H7.568V85.3H0Z" transform="translate(934.935 1844.792)" fill="#823695"/>
    <path id="Path_3342" data-name="Path 3342" d="M0,0H7.568V85.414H0Z" transform="translate(944.754 1844.792)" fill="#823695"/>
    <path id="Path_3348" data-name="Path 3348" d="M0,0H7.568V96.748H0Z" transform="translate(1003.695 1844.792)" fill="#823695"/>
    <path id="Path_3362" data-name="Path 3362" d="M0,0H7.568V114.442H0Z" transform="translate(1111.748 1844.792)" fill="#823695"/>
    <path id="Path_3363" data-name="Path 3363" d="M0,0H7.568V124.483H0Z" transform="translate(1151.04 1844.792)" fill="#823695"/>
    <path id="Path_3369" data-name="Path 3369" d="M0,0H7.568V135.26H0Z" transform="translate(1200.154 1844.792)" fill="#823695"/>
    <path id="Path_3371" data-name="Path 3371" d="M0,0H7.568V137.87H0Z" transform="translate(1229.627 1844.792)" fill="#823695"/>
    <path id="Path_3372" data-name="Path 3372" d="M0,0H7.568V139.857H0Z" transform="translate(1249.271 1844.792)" fill="#823695"/>
    <path id="Path_3374" data-name="Path 3374" d="M0,0H7.568V139.879H0Z" transform="translate(1259.094 1844.792)" fill="#823695"/>
    <path id="Path_3375" data-name="Path 3375" d="M0,0H7.568V141.91H0Z" transform="translate(1278.738 1844.792)" fill="#823695"/>
    <path id="Path_3377" data-name="Path 3377" d="M0,0H7.568V145.545H0Z" transform="translate(1298.387 1844.792)" fill="#823695"/>
    <path id="Path_3379" data-name="Path 3379" d="M0,0H7.568V152.727H0Z" transform="translate(1318.033 1844.792)" fill="#823695"/>
    <path id="Path_3383" data-name="Path 3383" d="M0,0H7.568V159.938H0Z" transform="translate(1357.324 1844.792)" fill="#823695"/>
    <path id="Path_3394" data-name="Path 3394" d="M0,0H7.568V177.327H0Z" transform="translate(1465.38 1844.792)" fill="#823695"/>
    <path id="Path_3397" data-name="Path 3397" d="M0,0H7.568V187.433H0Z" transform="translate(1494.848 1844.792)" fill="#823695"/>
    <path id="Path_3398" data-name="Path 3398" d="M0,0H7.568V192.336H0Z" transform="translate(1504.672 1844.792)" fill="#823695"/>
    <path id="Path_3405" data-name="Path 3405" d="M0,0H7.568V227.148H0Z" transform="translate(1573.436 1844.792)" fill="#823695"/>
    <path id="Path_3283" data-name="Path 3283" d="M0,0H1133.107" transform="translate(456.965 1845.397)" fill="none" stroke="#63666b" stroke-width="0.68"/>
    <path id="Path_3284" data-name="Path 3284" d="M6.01,0H4.648V-10.285a3.151,3.151,0,0,1-.461.361,7.51,7.51,0,0,1-.681.4q-.378.2-.8.374a5.791,5.791,0,0,1-.818.274v-1.378a7.914,7.914,0,0,0,.95-.336q.5-.212.988-.473t.917-.548a7.282,7.282,0,0,0,.747-.56H6.01ZM17.631-6a11.693,11.693,0,0,1-.27,2.648,6.17,6.17,0,0,1-.78,1.947A3.512,3.512,0,0,1,15.327-.2a3.431,3.431,0,0,1-1.689.411,3.2,3.2,0,0,1-1.6-.394,3.349,3.349,0,0,1-1.183-1.15,5.827,5.827,0,0,1-.73-1.855,11.472,11.472,0,0,1-.249-2.519,12.985,12.985,0,0,1,.261-2.756,6.3,6.3,0,0,1,.768-2,3.417,3.417,0,0,1,1.258-1.22,3.531,3.531,0,0,1,1.722-.411Q17.631-12.1,17.631-6Zm-1.395.133q0-5.08-2.416-5.08-2.548,0-2.548,5.171,0,4.823,2.5,4.823Q16.236-.955,16.236-5.869ZM26.795-6a11.693,11.693,0,0,1-.27,2.648,6.17,6.17,0,0,1-.78,1.947A3.512,3.512,0,0,1,24.491-.2,3.431,3.431,0,0,1,22.8.208a3.2,3.2,0,0,1-1.6-.394,3.349,3.349,0,0,1-1.183-1.15,5.827,5.827,0,0,1-.73-1.855,11.472,11.472,0,0,1-.249-2.519A12.985,12.985,0,0,1,19.3-8.467a6.3,6.3,0,0,1,.768-2,3.417,3.417,0,0,1,1.258-1.22,3.531,3.531,0,0,1,1.722-.411Q26.795-12.1,26.795-6ZM25.4-5.869q0-5.08-2.416-5.08-2.548,0-2.548,5.171,0,4.823,2.5,4.823Q25.4-.955,25.4-5.869Z" transform="translate(416.952 1622)" fill="#63666b"/>
    <path id="Path_3285" data-name="Path 3285" d="M7.056-11.9v7.861H8.583V-2.8H7.056V0H5.711V-2.8H.116V-3.976q.78-.88,1.577-1.88t1.523-2.03Q3.943-8.915,4.561-9.94A18.776,18.776,0,0,0,5.6-11.9Zm-5.4,7.861H5.711V-9.87Q5.088-8.782,4.532-7.927T3.474-6.375q-.5.7-.959,1.262T1.652-4.042ZM17.631-6a11.693,11.693,0,0,1-.27,2.648,6.17,6.17,0,0,1-.78,1.947A3.512,3.512,0,0,1,15.327-.2a3.431,3.431,0,0,1-1.689.411,3.2,3.2,0,0,1-1.6-.394,3.349,3.349,0,0,1-1.183-1.15,5.827,5.827,0,0,1-.73-1.855,11.472,11.472,0,0,1-.249-2.519,12.985,12.985,0,0,1,.261-2.756,6.3,6.3,0,0,1,.768-2,3.417,3.417,0,0,1,1.258-1.22,3.531,3.531,0,0,1,1.722-.411Q17.631-12.1,17.631-6Zm-1.395.133q0-5.08-2.416-5.08-2.548,0-2.548,5.171,0,4.823,2.5,4.823Q16.236-.955,16.236-5.869Z" transform="translate(424.214 1762.381)" fill="#63666b"/>
    <path id="Path_3286" data-name="Path 3286" d="M6.408-8.782a2.461,2.461,0,0,0-.17-.955,1.891,1.891,0,0,0-.465-.677,1.9,1.9,0,0,0-.693-.4,2.714,2.714,0,0,0-.863-.133,2.855,2.855,0,0,0-.78.108,3.793,3.793,0,0,0-.743.3,4.57,4.57,0,0,0-.7.457A5.037,5.037,0,0,0,1.37-9.5v-1.461a4.07,4.07,0,0,1,1.282-.851A4.515,4.515,0,0,1,4.383-12.1a4.178,4.178,0,0,1,1.353.212,3.1,3.1,0,0,1,1.079.618,2.859,2.859,0,0,1,.718,1A3.388,3.388,0,0,1,7.794-8.9,4.7,4.7,0,0,1,7.633-7.62a3.953,3.953,0,0,1-.49,1.079,5.207,5.207,0,0,1-.826.971,11.7,11.7,0,0,1-1.17.946q-.838.6-1.382,1.021A6.11,6.11,0,0,0,2.9-2.81a2.3,2.3,0,0,0-.448.739,2.582,2.582,0,0,0-.129.851H8.251V0H.9V-.589a4.911,4.911,0,0,1,.166-1.345,3.492,3.492,0,0,1,.548-1.1,6.127,6.127,0,0,1,1-1.046q.618-.523,1.515-1.179a9.577,9.577,0,0,0,1.083-.888A4.618,4.618,0,0,0,5.918-7,3.041,3.041,0,0,0,6.3-7.857,3.7,3.7,0,0,0,6.408-8.782ZM17.631-6a11.693,11.693,0,0,1-.27,2.648,6.17,6.17,0,0,1-.78,1.947A3.512,3.512,0,0,1,15.327-.2a3.431,3.431,0,0,1-1.689.411,3.2,3.2,0,0,1-1.6-.394,3.349,3.349,0,0,1-1.183-1.15,5.827,5.827,0,0,1-.73-1.855,11.472,11.472,0,0,1-.249-2.519,12.985,12.985,0,0,1,.261-2.756,6.3,6.3,0,0,1,.768-2,3.417,3.417,0,0,1,1.258-1.22,3.531,3.531,0,0,1,1.722-.411Q17.631-12.1,17.631-6Zm-1.395.133q0-5.08-2.416-5.08-2.548,0-2.548,5.171,0,4.823,2.5,4.823Q16.236-.955,16.236-5.869Z" transform="translate(424.214 1805.276)" fill="#63666b"/>
    <path id="Path_3287" data-name="Path 3287" d="M8.467-6A11.693,11.693,0,0,1,8.2-3.354a6.17,6.17,0,0,1-.78,1.947A3.512,3.512,0,0,1,6.163-.2,3.431,3.431,0,0,1,4.474.208a3.2,3.2,0,0,1-1.6-.394,3.349,3.349,0,0,1-1.183-1.15,5.827,5.827,0,0,1-.73-1.855A11.472,11.472,0,0,1,.714-5.711,12.985,12.985,0,0,1,.975-8.467a6.3,6.3,0,0,1,.768-2A3.417,3.417,0,0,1,3-11.692,3.531,3.531,0,0,1,4.723-12.1Q8.467-12.1,8.467-6Zm-1.395.133q0-5.08-2.416-5.08-2.548,0-2.548,5.171,0,4.823,2.5,4.823Q7.072-.955,7.072-5.869Z" transform="translate(432.685 1847.236)" fill="#63666b"/>
    <path id="Path_3288" data-name="Path 3288" d="M.747-3.32A3.167,3.167,0,0,1,.9-4.271a3.443,3.443,0,0,1,.427-.892,3.538,3.538,0,0,1,.689-.755,3.285,3.285,0,0,1,.934-.54A3.529,3.529,0,0,1,1.718-7.566a2.62,2.62,0,0,1-.457-1.5,2.89,2.89,0,0,1,.253-1.212,2.919,2.919,0,0,1,.7-.963,3.242,3.242,0,0,1,1.063-.635A3.783,3.783,0,0,1,4.607-12.1a3.746,3.746,0,0,1,1.336.232,3.3,3.3,0,0,1,1.063.639,2.869,2.869,0,0,1,.7.963,2.911,2.911,0,0,1,.249,1.2,2.62,2.62,0,0,1-.457,1.5A3.573,3.573,0,0,1,6.284-6.458a3.255,3.255,0,0,1,.921.54,3.59,3.59,0,0,1,.685.755,3.443,3.443,0,0,1,.427.892,3.167,3.167,0,0,1,.149.95,3.535,3.535,0,0,1-.282,1.428A3.19,3.19,0,0,1,7.392-.784a3.66,3.66,0,0,1-1.22.718A4.561,4.561,0,0,1,4.607.191,4.5,4.5,0,0,1,3.055-.066a3.716,3.716,0,0,1-1.22-.718,3.212,3.212,0,0,1-.8-1.108A3.491,3.491,0,0,1,.747-3.32Zm1.478-.116a2.812,2.812,0,0,0,.17,1,2.165,2.165,0,0,0,.481.764,2.1,2.1,0,0,0,.755.486,2.729,2.729,0,0,0,.984.17,2.591,2.591,0,0,0,.963-.174,2.244,2.244,0,0,0,.76-.49,2.2,2.2,0,0,0,.5-.764,2.671,2.671,0,0,0,.178-1,2.545,2.545,0,0,0-.17-.934,2.338,2.338,0,0,0-.486-.768A2.281,2.281,0,0,0,5.6-5.661a2.457,2.457,0,0,0-.988-.191,2.484,2.484,0,0,0-.95.178,2.274,2.274,0,0,0-.755.5,2.307,2.307,0,0,0-.5.764A2.541,2.541,0,0,0,2.225-3.437Zm.423-5.52a1.983,1.983,0,0,0,.154.784,1.977,1.977,0,0,0,.423.631,1.989,1.989,0,0,0,.627.423,1.912,1.912,0,0,0,.764.154,1.9,1.9,0,0,0,.768-.158A1.984,1.984,0,0,0,6.01-7.55a2.072,2.072,0,0,0,.423-.631,1.918,1.918,0,0,0,.158-.776,2.035,2.035,0,0,0-.154-.8,1.95,1.95,0,0,0-.419-.631,1.962,1.962,0,0,0-.627-.419,1.962,1.962,0,0,0-.776-.154,1.98,1.98,0,0,0-.8.158,1.935,1.935,0,0,0-.623.427,1.869,1.869,0,0,0-.4.635A2.146,2.146,0,0,0,2.648-8.957ZM17.631-6a11.693,11.693,0,0,1-.27,2.648,6.17,6.17,0,0,1-.78,1.947A3.512,3.512,0,0,1,15.327-.2a3.431,3.431,0,0,1-1.689.411,3.2,3.2,0,0,1-1.6-.394,3.349,3.349,0,0,1-1.183-1.15,5.827,5.827,0,0,1-.73-1.855,11.472,11.472,0,0,1-.249-2.519,12.985,12.985,0,0,1,.261-2.756,6.3,6.3,0,0,1,.768-2,3.417,3.417,0,0,1,1.258-1.22,3.531,3.531,0,0,1,1.722-.411Q17.631-12.1,17.631-6Zm-1.395.133q0-5.08-2.416-5.08-2.548,0-2.548,5.171,0,4.823,2.5,4.823Q16.236-.955,16.236-5.869Z" transform="translate(424.214 1669.439)" fill="#63666b"/>
    <path id="Path_3289" data-name="Path 3289" d="M8.483-3.777a4.409,4.409,0,0,1-.282,1.6,3.851,3.851,0,0,1-.78,1.262,3.486,3.486,0,0,1-1.187.826A3.759,3.759,0,0,1,4.74.208,3.4,3.4,0,0,1,3.134-.166a3.4,3.4,0,0,1-1.2-1.075,5.156,5.156,0,0,1-.751-1.714A9.286,9.286,0,0,1,.921-5.238a10.727,10.727,0,0,1,.344-2.818,6.846,6.846,0,0,1,.979-2.167,4.515,4.515,0,0,1,1.531-1.39,4.1,4.1,0,0,1,2-.49,4.818,4.818,0,0,1,1.976.34v1.287a4.2,4.2,0,0,0-1.942-.473,2.894,2.894,0,0,0-1.436.357,3.3,3.3,0,0,0-1.1,1.009,4.919,4.919,0,0,0-.7,1.573,7.981,7.981,0,0,0-.245,2.05h.033A2.858,2.858,0,0,1,5.08-7.446a3.573,3.573,0,0,1,1.407.266,3.038,3.038,0,0,1,1.071.751,3.382,3.382,0,0,1,.685,1.158A4.408,4.408,0,0,1,8.483-3.777ZM7.089-3.6a3.7,3.7,0,0,0-.158-1.121,2.431,2.431,0,0,0-.452-.847,1.951,1.951,0,0,0-.726-.535,2.444,2.444,0,0,0-.979-.187,2.293,2.293,0,0,0-.938.191,2.336,2.336,0,0,0-.747.519,2.4,2.4,0,0,0-.494.764,2.418,2.418,0,0,0-.178.926,3.692,3.692,0,0,0,.174,1.15,2.97,2.97,0,0,0,.49.934,2.329,2.329,0,0,0,.751.627A2.052,2.052,0,0,0,4.8-.955a2.215,2.215,0,0,0,.938-.2,2.093,2.093,0,0,0,.722-.544,2.517,2.517,0,0,0,.465-.834A3.306,3.306,0,0,0,7.089-3.6ZM17.631-6a11.693,11.693,0,0,1-.27,2.648,6.17,6.17,0,0,1-.78,1.947A3.512,3.512,0,0,1,15.327-.2a3.431,3.431,0,0,1-1.689.411,3.2,3.2,0,0,1-1.6-.394,3.349,3.349,0,0,1-1.183-1.15,5.827,5.827,0,0,1-.73-1.855,11.472,11.472,0,0,1-.249-2.519,12.985,12.985,0,0,1,.261-2.756,6.3,6.3,0,0,1,.768-2,3.417,3.417,0,0,1,1.258-1.22,3.531,3.531,0,0,1,1.722-.411Q17.631-12.1,17.631-6Zm-1.395.133q0-5.08-2.416-5.08-2.548,0-2.548,5.171,0,4.823,2.5,4.823Q16.236-.955,16.236-5.869Z" transform="translate(424.214 1715.698)" fill="#63666b"/>
    <path id="Path_3290" data-name="Path 3290" d="M5.728-4.2H1.2V-5.271H5.728Zm7.479-4.582a2.461,2.461,0,0,0-.17-.955,1.891,1.891,0,0,0-.465-.677,1.9,1.9,0,0,0-.693-.4,2.714,2.714,0,0,0-.863-.133,2.855,2.855,0,0,0-.78.108,3.793,3.793,0,0,0-.743.3,4.57,4.57,0,0,0-.7.457,5.037,5.037,0,0,0-.627.589v-1.461a4.07,4.07,0,0,1,1.282-.851,4.515,4.515,0,0,1,1.731-.295,4.178,4.178,0,0,1,1.353.212,3.1,3.1,0,0,1,1.079.618,2.859,2.859,0,0,1,.718,1,3.388,3.388,0,0,1,.261,1.37,4.7,4.7,0,0,1-.162,1.278,3.953,3.953,0,0,1-.49,1.079,5.207,5.207,0,0,1-.826.971,11.7,11.7,0,0,1-1.17.946q-.838.6-1.382,1.021A6.11,6.11,0,0,0,9.7-2.81a2.3,2.3,0,0,0-.448.739,2.582,2.582,0,0,0-.129.851h5.927V0H7.7V-.589a4.911,4.911,0,0,1,.166-1.345,3.492,3.492,0,0,1,.548-1.1,6.127,6.127,0,0,1,1-1.046q.618-.523,1.515-1.179a9.577,9.577,0,0,0,1.083-.888,4.618,4.618,0,0,0,.7-.847,3.041,3.041,0,0,0,.378-.859A3.7,3.7,0,0,0,13.207-8.782ZM24.429-6a11.693,11.693,0,0,1-.27,2.648,6.17,6.17,0,0,1-.78,1.947A3.512,3.512,0,0,1,22.126-.2a3.431,3.431,0,0,1-1.689.411,3.2,3.2,0,0,1-1.6-.394,3.349,3.349,0,0,1-1.183-1.15,5.827,5.827,0,0,1-.73-1.855,11.472,11.472,0,0,1-.249-2.519,12.985,12.985,0,0,1,.261-2.756,6.3,6.3,0,0,1,.768-2,3.417,3.417,0,0,1,1.258-1.22,3.531,3.531,0,0,1,1.722-.411Q24.429-12.1,24.429-6Zm-1.395.133q0-5.08-2.416-5.08-2.548,0-2.548,5.171,0,4.823,2.5,4.823Q23.035-.955,23.035-5.869Z" transform="translate(420.583 1894.832)" fill="#63666b"/>
    <path id="Path_3294" data-name="Path 3294" d="M5.728-4.2H1.2V-5.271H5.728Zm8.126-7.7v7.861h1.527V-2.8H13.854V0H12.509V-2.8H6.915V-3.976q.78-.88,1.577-1.88t1.523-2.03q.726-1.029,1.345-2.054A18.776,18.776,0,0,0,12.4-11.9ZM8.45-4.042h4.059V-9.87q-.623,1.087-1.179,1.942T10.272-6.375q-.5.7-.959,1.262T8.45-4.042ZM24.429-6a11.693,11.693,0,0,1-.27,2.648,6.17,6.17,0,0,1-.78,1.947A3.512,3.512,0,0,1,22.126-.2a3.431,3.431,0,0,1-1.689.411,3.2,3.2,0,0,1-1.6-.394,3.349,3.349,0,0,1-1.183-1.15,5.827,5.827,0,0,1-.73-1.855,11.472,11.472,0,0,1-.249-2.519,12.985,12.985,0,0,1,.261-2.756,6.3,6.3,0,0,1,.768-2,3.417,3.417,0,0,1,1.258-1.22,3.531,3.531,0,0,1,1.722-.411Q24.429-12.1,24.429-6Zm-1.395.133q0-5.08-2.416-5.08-2.548,0-2.548,5.171,0,4.823,2.5,4.823Q23.035-.955,23.035-5.869Z" transform="translate(420.583 1939.61)" fill="#63666b"/>
    <path id="Path_3298" data-name="Path 3298" d="M5.728-4.2H1.2V-5.271H5.728Zm9.554.423A4.409,4.409,0,0,1,15-2.175a3.851,3.851,0,0,1-.78,1.262,3.486,3.486,0,0,1-1.187.826,3.759,3.759,0,0,1-1.494.295A3.4,3.4,0,0,1,9.932-.166a3.4,3.4,0,0,1-1.2-1.075,5.156,5.156,0,0,1-.751-1.714A9.286,9.286,0,0,1,7.72-5.238a10.727,10.727,0,0,1,.344-2.818,6.846,6.846,0,0,1,.979-2.167,4.515,4.515,0,0,1,1.531-1.39,4.1,4.1,0,0,1,2-.49,4.818,4.818,0,0,1,1.976.34v1.287a4.2,4.2,0,0,0-1.942-.473,2.894,2.894,0,0,0-1.436.357,3.3,3.3,0,0,0-1.1,1.009,4.919,4.919,0,0,0-.7,1.573,7.981,7.981,0,0,0-.245,2.05h.033a2.858,2.858,0,0,1,2.714-1.486,3.573,3.573,0,0,1,1.407.266,3.038,3.038,0,0,1,1.071.751,3.382,3.382,0,0,1,.685,1.158A4.408,4.408,0,0,1,15.282-3.777ZM13.887-3.6a3.7,3.7,0,0,0-.158-1.121,2.431,2.431,0,0,0-.452-.847,1.951,1.951,0,0,0-.726-.535,2.444,2.444,0,0,0-.979-.187,2.293,2.293,0,0,0-.938.191,2.336,2.336,0,0,0-.747.519,2.4,2.4,0,0,0-.494.764,2.418,2.418,0,0,0-.178.926,3.692,3.692,0,0,0,.174,1.15,2.97,2.97,0,0,0,.49.934,2.329,2.329,0,0,0,.751.627,2.052,2.052,0,0,0,.967.228,2.215,2.215,0,0,0,.938-.2,2.093,2.093,0,0,0,.722-.544,2.517,2.517,0,0,0,.465-.834A3.306,3.306,0,0,0,13.887-3.6ZM24.429-6a11.693,11.693,0,0,1-.27,2.648,6.17,6.17,0,0,1-.78,1.947A3.512,3.512,0,0,1,22.126-.2a3.431,3.431,0,0,1-1.689.411,3.2,3.2,0,0,1-1.6-.394,3.349,3.349,0,0,1-1.183-1.15,5.827,5.827,0,0,1-.73-1.855,11.472,11.472,0,0,1-.249-2.519,12.985,12.985,0,0,1,.261-2.756,6.3,6.3,0,0,1,.768-2,3.417,3.417,0,0,1,1.258-1.22,3.531,3.531,0,0,1,1.722-.411Q24.429-12.1,24.429-6Zm-1.395.133q0-5.08-2.416-5.08-2.548,0-2.548,5.171,0,4.823,2.5,4.823Q23.035-.955,23.035-5.869Z" transform="translate(420.583 1984.388)" fill="#63666b"/>
    <path id="Path_3303" data-name="Path 3303" d="M5.728-4.2H1.2V-5.271H5.728Zm1.818.88a3.167,3.167,0,0,1,.149-.95,3.443,3.443,0,0,1,.427-.892,3.538,3.538,0,0,1,.689-.755,3.285,3.285,0,0,1,.934-.54A3.529,3.529,0,0,1,8.517-7.566a2.62,2.62,0,0,1-.457-1.5,2.89,2.89,0,0,1,.253-1.212,2.919,2.919,0,0,1,.7-.963,3.242,3.242,0,0,1,1.063-.635,3.783,3.783,0,0,1,1.328-.228,3.746,3.746,0,0,1,1.336.232,3.3,3.3,0,0,1,1.063.639,2.869,2.869,0,0,1,.7.963,2.911,2.911,0,0,1,.249,1.2,2.62,2.62,0,0,1-.457,1.5,3.573,3.573,0,0,1-1.212,1.108,3.255,3.255,0,0,1,.921.54,3.59,3.59,0,0,1,.685.755,3.443,3.443,0,0,1,.427.892,3.167,3.167,0,0,1,.149.95,3.535,3.535,0,0,1-.282,1.428A3.19,3.19,0,0,1,14.19-.784a3.66,3.66,0,0,1-1.22.718,4.561,4.561,0,0,1-1.565.257A4.5,4.5,0,0,1,9.853-.066a3.716,3.716,0,0,1-1.22-.718,3.212,3.212,0,0,1-.8-1.108A3.491,3.491,0,0,1,7.545-3.32Zm1.478-.116a2.812,2.812,0,0,0,.17,1,2.165,2.165,0,0,0,.481.764,2.1,2.1,0,0,0,.755.486,2.729,2.729,0,0,0,.984.17,2.591,2.591,0,0,0,.963-.174,2.244,2.244,0,0,0,.76-.49,2.2,2.2,0,0,0,.5-.764,2.671,2.671,0,0,0,.178-1,2.545,2.545,0,0,0-.17-.934,2.338,2.338,0,0,0-.486-.768,2.281,2.281,0,0,0-.755-.523,2.457,2.457,0,0,0-.988-.191,2.484,2.484,0,0,0-.95.178,2.274,2.274,0,0,0-.755.5,2.307,2.307,0,0,0-.5.764A2.541,2.541,0,0,0,9.023-3.437Zm.423-5.52a1.983,1.983,0,0,0,.154.784,1.977,1.977,0,0,0,.423.631,1.989,1.989,0,0,0,.627.423,1.912,1.912,0,0,0,.764.154,1.9,1.9,0,0,0,.768-.158,1.984,1.984,0,0,0,.627-.427,2.072,2.072,0,0,0,.423-.631,1.918,1.918,0,0,0,.158-.776,2.035,2.035,0,0,0-.154-.8,1.95,1.95,0,0,0-.419-.631,1.962,1.962,0,0,0-.627-.419,1.962,1.962,0,0,0-.776-.154,1.98,1.98,0,0,0-.8.158,1.935,1.935,0,0,0-.623.427,1.869,1.869,0,0,0-.4.635A2.146,2.146,0,0,0,9.446-8.957ZM24.429-6a11.693,11.693,0,0,1-.27,2.648,6.17,6.17,0,0,1-.78,1.947A3.512,3.512,0,0,1,22.126-.2a3.431,3.431,0,0,1-1.689.411,3.2,3.2,0,0,1-1.6-.394,3.349,3.349,0,0,1-1.183-1.15,5.827,5.827,0,0,1-.73-1.855,11.472,11.472,0,0,1-.249-2.519,12.985,12.985,0,0,1,.261-2.756,6.3,6.3,0,0,1,.768-2,3.417,3.417,0,0,1,1.258-1.22,3.531,3.531,0,0,1,1.722-.411Q24.429-12.1,24.429-6Zm-1.395.133q0-5.08-2.416-5.08-2.548,0-2.548,5.171,0,4.823,2.5,4.823Q23.035-.955,23.035-5.869Z" transform="translate(420.583 2026.745)" fill="#63666b"/>
    <path id="Path_3310" data-name="Path 3310" d="M5.728-4.2H1.2V-5.271H5.728ZM12.808,0H11.447V-10.285a3.151,3.151,0,0,1-.461.361,7.509,7.509,0,0,1-.681.4q-.378.2-.8.374a5.791,5.791,0,0,1-.818.274v-1.378a7.914,7.914,0,0,0,.95-.336q.5-.212.988-.473t.917-.548a7.282,7.282,0,0,0,.747-.56h.515ZM24.429-6a11.693,11.693,0,0,1-.27,2.648,6.17,6.17,0,0,1-.78,1.947A3.512,3.512,0,0,1,22.126-.2a3.431,3.431,0,0,1-1.689.411,3.2,3.2,0,0,1-1.6-.394,3.349,3.349,0,0,1-1.183-1.15,5.827,5.827,0,0,1-.73-1.855,11.472,11.472,0,0,1-.249-2.519,12.985,12.985,0,0,1,.261-2.756,6.3,6.3,0,0,1,.768-2,3.417,3.417,0,0,1,1.258-1.22,3.531,3.531,0,0,1,1.722-.411Q24.429-12.1,24.429-6Zm-1.395.133q0-5.08-2.416-5.08-2.548,0-2.548,5.171,0,4.823,2.5,4.823Q23.035-.955,23.035-5.869ZM33.593-6a11.693,11.693,0,0,1-.27,2.648,6.17,6.17,0,0,1-.78,1.947A3.512,3.512,0,0,1,31.29-.2,3.431,3.431,0,0,1,29.6.208,3.2,3.2,0,0,1,28-.187a3.349,3.349,0,0,1-1.183-1.15,5.827,5.827,0,0,1-.73-1.855,11.472,11.472,0,0,1-.249-2.519A12.985,12.985,0,0,1,26.1-8.467a6.3,6.3,0,0,1,.768-2,3.417,3.417,0,0,1,1.258-1.22A3.531,3.531,0,0,1,29.85-12.1Q33.593-12.1,33.593-6ZM32.2-5.869q0-5.08-2.416-5.08-2.548,0-2.548,5.171,0,4.823,2.5,4.823Q32.2-.955,32.2-5.869Z" transform="translate(413.32 2075.429)" fill="#63666b"/>
    <path id="Path_3337" data-name="Path 3337" d="M9.97,32V10.13H15.1a5.481,5.481,0,0,1,3.078.743,3.924,3.924,0,0,1,1.552,2.012,8.7,8.7,0,0,1,.445,2.889,8.656,8.656,0,0,1-.445,2.781,4.413,4.413,0,0,1-1.552,2.16,4.954,4.954,0,0,1-3.051.837h-3.7V32Zm1.458-11.583H14.8a4.551,4.551,0,0,0,2.174-.459,2.824,2.824,0,0,0,1.269-1.472,7.243,7.243,0,0,0,.419-2.714,7.909,7.909,0,0,0-.378-2.74,2.376,2.376,0,0,0-1.215-1.377,5.354,5.354,0,0,0-2.241-.391h-3.4ZM20.392,32l4.59-21.87h1.7L31.3,32H29.815l-1.134-6.048h-5.67L21.85,32Zm2.835-7.128h5.265l-2.646-12.96ZM35.7,32V11.318H31.327V10.13h10.1v1.188H37.159V32Zm7.965,0V10.13h1.458V32Zm5.157,0V10.13h7.56v1.188H50.308v8.775H55.3v1.134H50.308v9.612h6.156V32ZM59.11,32V10.13h1.161L67.7,28.6V10.13h1.3V32H67.831L60.406,13.5V32Zm16.443,0V11.318H71.179V10.13h10.1v1.188H77.011V32Zm12.312.27a5.281,5.281,0,0,1-2.849-.7,4.446,4.446,0,0,1-1.7-1.971,8.833,8.833,0,0,1-.715-3l1.269-.405a12.57,12.57,0,0,0,.58,2.538,3.555,3.555,0,0,0,1.2,1.715,3.663,3.663,0,0,0,2.241.608,3.757,3.757,0,0,0,2.551-.81,3.415,3.415,0,0,0,.931-2.7,4.644,4.644,0,0,0-.742-2.579A14.914,14.914,0,0,0,88.54,22.5l-4-3.969a7.225,7.225,0,0,1-1.458-2.052,5.107,5.107,0,0,1-.459-2.106,4.162,4.162,0,0,1,1.336-3.321,5.1,5.1,0,0,1,3.47-1.161,6.573,6.573,0,0,1,2,.283,3.935,3.935,0,0,1,1.552.918,4.308,4.308,0,0,1,1.039,1.688,9.777,9.777,0,0,1,.486,2.592l-1.242.3a8.718,8.718,0,0,0-.513-2.565,3.078,3.078,0,0,0-1.188-1.525,3.879,3.879,0,0,0-2.106-.5,4,4,0,0,0-2.484.756,2.851,2.851,0,0,0-1,2.43,4.053,4.053,0,0,0,.338,1.62,5.759,5.759,0,0,0,1.256,1.7l3.942,3.888a16.418,16.418,0,0,1,2.282,2.767,5.792,5.792,0,0,1,.959,3.227,5.334,5.334,0,0,1-.621,2.713,3.813,3.813,0,0,1-1.728,1.58A5.973,5.973,0,0,1,87.865,32.27Z" transform="translate(909 2090.501)" fill="#823695"/>
  </g>
</svg>
