<svg xmlns="http://www.w3.org/2000/svg" width="952.846" height="512.552" viewBox="0 0 952.846 512.552">
  <g id="Group_1795" data-name="Group 1795" transform="translate(-725.447 -530.668)">
    <path id="Path_3226" data-name="Path 3226" d="M0,0H220.73V259.475H0Z" transform="translate(899 750.654)" fill="#823695"/>
    <path id="Path_565" data-name="Path 565" d="M94.728,1790.211v0Z" transform="translate(1079.826 -766.675)" fill="#464749"/>
    <path id="Path_3231" data-name="Path 3231" d="M10.836.462A8.655,8.655,0,0,1,5.691-.861,6.833,6.833,0,0,1,3.15-4.473,17.4,17.4,0,0,1,2.436-9.66V-24.528a15.916,15.916,0,0,1,.756-5.124,6.734,6.734,0,0,1,2.583-3.486,8.813,8.813,0,0,1,5.061-1.26,8.813,8.813,0,0,1,5.061,1.26,6.734,6.734,0,0,1,2.583,3.486,15.916,15.916,0,0,1,.756,5.124v14.91a17.193,17.193,0,0,1-.714,5.166A6.833,6.833,0,0,1,15.981-.861,8.655,8.655,0,0,1,10.836.462Zm0-1.89A6.294,6.294,0,0,0,14.6-2.394,4.93,4.93,0,0,0,16.422-5.1a14.646,14.646,0,0,0,.5-4.053V-24.864a14.42,14.42,0,0,0-.5-4.032,4.864,4.864,0,0,0-1.806-2.667,6.383,6.383,0,0,0-3.78-.945,6.4,6.4,0,0,0-3.759.945A4.823,4.823,0,0,0,5.25-28.9a14.42,14.42,0,0,0-.5,4.032V-9.156A14.646,14.646,0,0,0,5.25-5.1,4.93,4.93,0,0,0,7.077-2.394,6.294,6.294,0,0,0,10.836-1.428ZM24.486,0V-34.02h8.232a8.147,8.147,0,0,1,4.641,1.113,5.647,5.647,0,0,1,2.226,3.024,14,14,0,0,1,.609,4.263,15.956,15.956,0,0,1-.4,3.612,6.486,6.486,0,0,1-1.47,2.919A5.153,5.153,0,0,1,35.2-17.556L40.656,0H38.388L33.1-17.136H26.754V0Zm2.268-18.9h5.88a5.633,5.633,0,0,0,3.318-.819,4.229,4.229,0,0,0,1.575-2.331,12.826,12.826,0,0,0,.441-3.57A9.209,9.209,0,0,0,36.9-30.534q-1.071-1.68-4.305-1.68H26.754ZM45.486,0V-34.02h8.232a8.147,8.147,0,0,1,4.641,1.113,5.647,5.647,0,0,1,2.226,3.024,14,14,0,0,1,.609,4.263,15.956,15.956,0,0,1-.4,3.612,6.486,6.486,0,0,1-1.47,2.919A5.153,5.153,0,0,1,56.2-17.556L61.656,0H59.388L54.1-17.136H47.754V0Zm2.268-18.9h5.88a5.633,5.633,0,0,0,3.318-.819,4.229,4.229,0,0,0,1.575-2.331,12.826,12.826,0,0,0,.441-3.57A9.209,9.209,0,0,0,57.9-30.534q-1.071-1.68-4.305-1.68H47.754Zm19.782-1.764-1.428-.924,3.864-5.04-5.418-2.184.588-1.47,5.25,2.52-.252-6.216h1.806l-.336,6.216,5.166-2.52.588,1.47-5.376,2.184L75.852-21.5l-1.428.84L70.98-26.04ZM98.406,0V-10.458h-10.5V-12.6L98.028-34.02h2.6v21.5h3.948v2.058h-3.948V0ZM90.258-12.516h8.148V-30.744ZM115.92.462a7.574,7.574,0,0,1-4.137-1.008,5.773,5.773,0,0,1-2.289-2.793,11.337,11.337,0,0,1-.714-4.221v-.63h2.1v.672a10.539,10.539,0,0,0,.546,3.36,4.043,4.043,0,0,0,1.617,2.1,5.246,5.246,0,0,0,2.877.714A6.131,6.131,0,0,0,118.776-2a4.519,4.519,0,0,0,1.995-2.331,12.062,12.062,0,0,0,.735-4.7,11.261,11.261,0,0,0-1.218-5.565,4.534,4.534,0,0,0-4.242-2.2h-.966v-1.974h.966q2.982,0,4.221-1.743t1.239-5.523a9,9,0,0,0-1.113-4.7q-1.113-1.848-3.969-1.848a5.534,5.534,0,0,0-4.116,1.407q-1.386,1.407-1.428,4.767v.5h-2.1v-.546a11.211,11.211,0,0,1,.714-4.179,5.511,5.511,0,0,1,2.394-2.772,8.838,8.838,0,0,1,4.494-.987,7.4,7.4,0,0,1,4.242,1.113,6.557,6.557,0,0,1,2.415,3,11.064,11.064,0,0,1,.777,4.242,10.366,10.366,0,0,1-1.386,5.88,5.463,5.463,0,0,1-3.444,2.436,5.4,5.4,0,0,1,2.2,1.176,6.96,6.96,0,0,1,1.869,2.73,12.467,12.467,0,0,1,.756,4.746,14.2,14.2,0,0,1-.8,4.935A6.969,6.969,0,0,1,120.5-.756,7.774,7.774,0,0,1,115.92.462Z" transform="translate(939 622.016)" fill="#823695"/>
    <path id="Path_3232" data-name="Path 3232" d="M-87.224,3.087a2.637,2.637,0,0,1-1.554-.619,3.492,3.492,0,0,1-.945-1.439A9.67,9.67,0,0,1-90.216-1.1a25.787,25.787,0,0,1-.189-2.72q-.032-1.491-.032-3.171,0-1.7.032-3.213a26.636,26.636,0,0,1,.189-2.761,9.883,9.883,0,0,1,.493-2.163,3.321,3.321,0,0,1,.945-1.428,2.505,2.505,0,0,1,1.554-.557v.819a1.637,1.637,0,0,0-1.239.851,5.579,5.579,0,0,0-.63,1.995,22.472,22.472,0,0,0-.221,2.9q-.031,1.648-.031,3.559t.031,3.559a22.2,22.2,0,0,0,.221,2.888,5.719,5.719,0,0,0,.619,1.985,1.62,1.62,0,0,0,1.249.85ZM-85.817,0V-12.138H-84.7v1.3a4.67,4.67,0,0,1,1.3-1.082,3.185,3.185,0,0,1,1.575-.409,1.838,1.838,0,0,1,.976.262,1.773,1.773,0,0,1,.683.84,3.921,3.921,0,0,1,.252,1.543V0h-1.113V-9.555a2.391,2.391,0,0,0-.347-1.512,1.175,1.175,0,0,0-.934-.4,2.394,2.394,0,0,0-1.229.367,5,5,0,0,0-1.166.976V0Zm7.6-9.471V-10.4h6.153v.924Zm0,3.423v-.945h6.153v.945Zm11.8,6.237A3.871,3.871,0,0,1-68.46-.294a2.8,2.8,0,0,1-1.155-1.46,6.866,6.866,0,0,1-.368-2.4h1.092a6.4,6.4,0,0,0,.252,1.964,2.057,2.057,0,0,0,.819,1.134,2.66,2.66,0,0,0,1.47.368,2.39,2.39,0,0,0,1.575-.473,2.662,2.662,0,0,0,.808-1.47,11.246,11.246,0,0,0,.242-2.572,10.659,10.659,0,0,0-.283-2.783,2.429,2.429,0,0,0-.861-1.4,2.471,2.471,0,0,0-1.439-.4,2.71,2.71,0,0,0-1.26.315A3.155,3.155,0,0,0-68.7-8.358h-.9V-17.01h6.174l-.021.966H-68.66L-68.7-9.429a3.268,3.268,0,0,1,1.008-.861,3.317,3.317,0,0,1,1.68-.378,2.973,2.973,0,0,1,1.942.609,3.51,3.51,0,0,1,1.092,1.8,10.69,10.69,0,0,1,.347,2.95,11.916,11.916,0,0,1-.22,2.447,4.721,4.721,0,0,1-.693,1.722A2.9,2.9,0,0,1-64.722-.137,4,4,0,0,1-66.413.189Zm9.954.042A3.931,3.931,0,0,1-58.874-.42a3.362,3.362,0,0,1-1.2-1.785,9.1,9.1,0,0,1-.336-2.583v-7.434a8.468,8.468,0,0,1,.357-2.583,3.4,3.4,0,0,1,1.229-1.753,3.909,3.909,0,0,1,2.362-.641,3.948,3.948,0,0,1,2.383.641,3.4,3.4,0,0,1,1.229,1.753,8.468,8.468,0,0,1,.357,2.583v7.434a9.1,9.1,0,0,1-.336,2.583,3.362,3.362,0,0,1-1.2,1.785A3.971,3.971,0,0,1-56.459.231Zm0-.861a2.558,2.558,0,0,0,1.7-.515A2.769,2.769,0,0,0-53.9-2.552,7.553,7.553,0,0,0-53.645-4.6V-12.39a7.553,7.553,0,0,0-.252-2.048,2.709,2.709,0,0,0-.861-1.4,2.6,2.6,0,0,0-1.7-.5,2.559,2.559,0,0,0-1.68.5,2.769,2.769,0,0,0-.871,1.4,7.268,7.268,0,0,0-.263,2.048V-4.6a7.268,7.268,0,0,0,.263,2.048,2.832,2.832,0,0,0,.871,1.407A2.523,2.523,0,0,0-56.459-.63Zm6.7.987-.294-.483a1.866,1.866,0,0,0,.724-.693,2.345,2.345,0,0,0,.158-.966h-.714V-3.822h1.323v1.785a3.748,3.748,0,0,1-.241,1.5A1.931,1.931,0,0,1-49.76.357ZM-49.886-9.2v-2.184h1.239V-9.2ZM-38.714.231a4.54,4.54,0,0,1-2.079-.42A2.644,2.644,0,0,1-42.011-1.47a5.088,5.088,0,0,1-.4-2.142V-3.99h1.071a4.191,4.191,0,0,0,.588,2.583,2.54,2.54,0,0,0,2.058.714,2.725,2.725,0,0,0,1.344-.315,2.077,2.077,0,0,0,.882-1.113,6.338,6.338,0,0,0,.315-2.247V-7.959a4.235,4.235,0,0,1-1.04.588,4.7,4.7,0,0,1-1.858.315,4.21,4.21,0,0,1-2.184-.483,2.717,2.717,0,0,1-1.145-1.617,10.958,10.958,0,0,1-.346-3.087,7.906,7.906,0,0,1,.4-2.678,3.339,3.339,0,0,1,1.271-1.69,4,4,0,0,1,2.278-.588,3.63,3.63,0,0,1,2.163.588,3.342,3.342,0,0,1,1.2,1.732,9.265,9.265,0,0,1,.378,2.866V-4.6a8.121,8.121,0,0,1-.368,2.583,3.277,3.277,0,0,1-1.165,1.67A3.58,3.58,0,0,1-38.714.231Zm-.084-8.19a4.063,4.063,0,0,0,1.649-.294,4.559,4.559,0,0,0,1-.567v-3.171a8.987,8.987,0,0,0-.294-2.6,2.27,2.27,0,0,0-.872-1.292,2.672,2.672,0,0,0-1.459-.368,3.02,3.02,0,0,0-1.512.357,2.235,2.235,0,0,0-.955,1.207,6.676,6.676,0,0,0-.326,2.32,14.027,14.027,0,0,0,.189,2.583,2.138,2.138,0,0,0,.788,1.4A3.074,3.074,0,0,0-38.8-7.959ZM-28.97.189a3.871,3.871,0,0,1-2.048-.483,2.8,2.8,0,0,1-1.155-1.46,6.866,6.866,0,0,1-.368-2.4h1.092A6.4,6.4,0,0,0-31.2-2.194a2.057,2.057,0,0,0,.819,1.134,2.66,2.66,0,0,0,1.47.368,2.39,2.39,0,0,0,1.575-.473,2.662,2.662,0,0,0,.808-1.47,11.246,11.246,0,0,0,.242-2.572,10.659,10.659,0,0,0-.284-2.783,2.429,2.429,0,0,0-.861-1.4,2.471,2.471,0,0,0-1.438-.4,2.71,2.71,0,0,0-1.26.315,3.155,3.155,0,0,0-1.134,1.113h-.9V-17.01h6.174l-.021.966h-5.208l-.042,6.615a3.268,3.268,0,0,1,1.008-.861,3.317,3.317,0,0,1,1.68-.378,2.973,2.973,0,0,1,1.943.609,3.51,3.51,0,0,1,1.092,1.8,10.69,10.69,0,0,1,.347,2.95,11.916,11.916,0,0,1-.22,2.447A4.72,4.72,0,0,1-26.1-1.145,2.9,2.9,0,0,1-27.279-.137,4,4,0,0,1-28.97.189ZM-21.158,0l5.817-17.22h1.008L-20.108,0Zm-.231-8.757a1.784,1.784,0,0,1-1.691-.819,4.07,4.07,0,0,1-.472-2.058v-2.982a3.815,3.815,0,0,1,.483-2.037,1.819,1.819,0,0,1,1.68-.777,1.771,1.771,0,0,1,1.649.777,3.837,3.837,0,0,1,.472,2.016v3.024a4.085,4.085,0,0,1-.462,2.047A1.745,1.745,0,0,1-21.389-8.757Zm0-.882a.894.894,0,0,0,.662-.241,1.394,1.394,0,0,0,.346-.672,4.34,4.34,0,0,0,.105-1.019v-3.087a3.275,3.275,0,0,0-.242-1.376.879.879,0,0,0-.872-.514.893.893,0,0,0-.892.525,3.289,3.289,0,0,0-.242,1.365v3.087a4.34,4.34,0,0,0,.105,1.019,1.347,1.347,0,0,0,.357.672A.931.931,0,0,0-21.389-9.639ZM-14.1.126a1.766,1.766,0,0,1-1.68-.809,4.084,4.084,0,0,1-.462-2.048V-5.712a3.883,3.883,0,0,1,.472-2.037,1.793,1.793,0,0,1,1.67-.777,1.806,1.806,0,0,1,1.659.766,3.759,3.759,0,0,1,.483,2.027v3.024a4.025,4.025,0,0,1-.462,2.037A1.774,1.774,0,0,1-14.1.126Zm0-.861a.894.894,0,0,0,.661-.242,1.394,1.394,0,0,0,.346-.672,4.34,4.34,0,0,0,.105-1.018V-5.754A3.275,3.275,0,0,0-13.23-7.13a.879.879,0,0,0-.872-.515.9.9,0,0,0-.892.515,3.275,3.275,0,0,0-.241,1.376v3.087a4.34,4.34,0,0,0,.1,1.018,1.347,1.347,0,0,0,.357.672A.931.931,0,0,0-14.1-.735ZM-2.636.231A4.124,4.124,0,0,1-5.208-.462,3.513,3.513,0,0,1-6.437-2.321a9.267,9.267,0,0,1-.336-2.572v-7.224a8.779,8.779,0,0,1,.357-2.615,3.438,3.438,0,0,1,1.26-1.806,4.2,4.2,0,0,1,2.52-.662A4.014,4.014,0,0,1-.3-16.611a3.185,3.185,0,0,1,1.2,1.669,8.087,8.087,0,0,1,.357,2.531v.861H.157v-.861A7.993,7.993,0,0,0-.074-14.48a2.363,2.363,0,0,0-.84-1.312,2.8,2.8,0,0,0-1.722-.462,3,3,0,0,0-1.869.5,2.5,2.5,0,0,0-.882,1.407,8.525,8.525,0,0,0-.231,2.1v7.518a8,8,0,0,0,.252,2.153,2.491,2.491,0,0,0,.9,1.375,3.016,3.016,0,0,0,1.827.483A2.749,2.749,0,0,0-.893-1.2a2.424,2.424,0,0,0,.83-1.355,8.313,8.313,0,0,0,.22-2.026V-5.607H1.249v.84A9.1,9.1,0,0,1,.913-2.184,3.355,3.355,0,0,1-.263-.41,3.843,3.843,0,0,1-2.636.231ZM3.433,0V-17.01H4.567V0ZM7.171,2.247l-.294-.483A2.145,2.145,0,0,0,7.591,1a2.44,2.44,0,0,0,.168-1H7V-2.205H8.347V-.231A3.685,3.685,0,0,1,8.1,1.281,2.324,2.324,0,0,1,7.171,2.247ZM17.524.231a3.787,3.787,0,0,1-2.069-.5,2.886,2.886,0,0,1-1.145-1.4,5.669,5.669,0,0,1-.357-2.111V-4.1H15q0,.021,0,.158t0,.179a5.27,5.27,0,0,0,.273,1.68,2.022,2.022,0,0,0,.808,1.05,2.623,2.623,0,0,0,1.439.357A3.065,3.065,0,0,0,18.952-1a2.26,2.26,0,0,0,1-1.166,6.031,6.031,0,0,0,.368-2.352A5.63,5.63,0,0,0,19.708-7.3a2.267,2.267,0,0,0-2.121-1.1H17.1v-.987h.483a2.411,2.411,0,0,0,2.111-.872,4.837,4.837,0,0,0,.619-2.761,4.5,4.5,0,0,0-.556-2.352,2.124,2.124,0,0,0-1.985-.924,2.767,2.767,0,0,0-2.058.7A3.4,3.4,0,0,0,15-13.209q0,.021,0,.115t0,.137h-1.05v-.273a5.605,5.605,0,0,1,.357-2.089,2.756,2.756,0,0,1,1.2-1.386,4.419,4.419,0,0,1,2.247-.493,3.7,3.7,0,0,1,2.121.557,3.278,3.278,0,0,1,1.208,1.5,5.532,5.532,0,0,1,.389,2.121,5.183,5.183,0,0,1-.693,2.94,2.732,2.732,0,0,1-1.722,1.218,2.7,2.7,0,0,1,1.1.588,3.48,3.48,0,0,1,.934,1.365,6.234,6.234,0,0,1,.378,2.373,7.1,7.1,0,0,1-.4,2.468,3.485,3.485,0,0,1-1.26,1.691A3.887,3.887,0,0,1,17.524.231Zm9.744,0a3.787,3.787,0,0,1-2.069-.5,2.886,2.886,0,0,1-1.145-1.4A5.669,5.669,0,0,1,23.7-3.78V-4.1h1.05v.336a5.27,5.27,0,0,0,.273,1.68,2.022,2.022,0,0,0,.809,1.05,2.623,2.623,0,0,0,1.439.357A3.065,3.065,0,0,0,28.7-1a2.26,2.26,0,0,0,1-1.166,6.031,6.031,0,0,0,.368-2.352A5.63,5.63,0,0,0,29.452-7.3a2.267,2.267,0,0,0-2.121-1.1h-.483v-.987h.483a2.411,2.411,0,0,0,2.111-.872,4.837,4.837,0,0,0,.619-2.761,4.5,4.5,0,0,0-.556-2.352A2.124,2.124,0,0,0,27.52-16.3a2.767,2.767,0,0,0-2.058.7,3.4,3.4,0,0,0-.714,2.383v.252H23.7v-.273a5.605,5.605,0,0,1,.357-2.089,2.756,2.756,0,0,1,1.2-1.386A4.419,4.419,0,0,1,27.5-17.2a3.7,3.7,0,0,1,2.121.557,3.278,3.278,0,0,1,1.208,1.5,5.532,5.532,0,0,1,.389,2.121,5.183,5.183,0,0,1-.693,2.94A2.732,2.732,0,0,1,28.8-8.862a2.7,2.7,0,0,1,1.1.588,3.48,3.48,0,0,1,.934,1.365,6.234,6.234,0,0,1,.378,2.373,7.1,7.1,0,0,1-.4,2.468,3.485,3.485,0,0,1-1.26,1.691A3.887,3.887,0,0,1,27.268.231ZM33.4,0V-2.184h1.239V0Zm7.14.231a3.679,3.679,0,0,1-2.174-.588A3.372,3.372,0,0,1,37.149-2.1a9.052,9.052,0,0,1-.389-2.856v-7.413a7.694,7.694,0,0,1,.389-2.593,3.318,3.318,0,0,1,1.218-1.659,3.689,3.689,0,0,1,2.153-.578,4.408,4.408,0,0,1,2.058.42,2.629,2.629,0,0,1,1.187,1.26,5.118,5.118,0,0,1,.389,2.142v.4H43.081a4.191,4.191,0,0,0-.588-2.583,2.312,2.312,0,0,0-1.89-.714,2.991,2.991,0,0,0-1.375.315,2.229,2.229,0,0,0-.987,1.113,5.511,5.511,0,0,0-.368,2.247v3.591A7.217,7.217,0,0,1,39.081-9.6a4.509,4.509,0,0,1,1.69-.315,4.269,4.269,0,0,1,2.194.483A2.657,2.657,0,0,1,44.11-7.823a11.164,11.164,0,0,1,.336,3.077,8.2,8.2,0,0,1-.388,2.688,3.325,3.325,0,0,1-1.239,1.7A3.94,3.94,0,0,1,40.54.231Zm0-.945a3.179,3.179,0,0,0,1.512-.326,2.113,2.113,0,0,0,.934-1.176A6.908,6.908,0,0,0,43.312-4.6a13.306,13.306,0,0,0-.2-2.583,2.2,2.2,0,0,0-.788-1.4,3.022,3.022,0,0,0-1.785-.431,3.806,3.806,0,0,0-1.029.147,6.774,6.774,0,0,0-.966.347,3.953,3.953,0,0,0-.672.367v3.171a8.711,8.711,0,0,0,.3,2.594,2.275,2.275,0,0,0,.9,1.3A2.738,2.738,0,0,0,40.54-.714ZM46.085-6.7v-.924h4.326V-6.7ZM55.808.189A3.871,3.871,0,0,1,53.76-.294a2.8,2.8,0,0,1-1.155-1.46,6.866,6.866,0,0,1-.368-2.4H53.33a6.4,6.4,0,0,0,.252,1.964A2.057,2.057,0,0,0,54.4-1.061a2.66,2.66,0,0,0,1.47.368,2.39,2.39,0,0,0,1.575-.473,2.662,2.662,0,0,0,.808-1.47A11.246,11.246,0,0,0,58.5-5.208a10.659,10.659,0,0,0-.284-2.783,2.429,2.429,0,0,0-.861-1.4,2.471,2.471,0,0,0-1.438-.4,2.71,2.71,0,0,0-1.26.315,3.155,3.155,0,0,0-1.134,1.113h-.9V-17.01H58.79l-.021.966H53.561l-.042,6.615a3.268,3.268,0,0,1,1.008-.861,3.317,3.317,0,0,1,1.68-.378,2.973,2.973,0,0,1,1.943.609,3.51,3.51,0,0,1,1.092,1.8,10.69,10.69,0,0,1,.347,2.95,11.916,11.916,0,0,1-.22,2.447,4.721,4.721,0,0,1-.693,1.722A2.9,2.9,0,0,1,57.5-.137,4,4,0,0,1,55.808.189ZM61.478,0V-.84L66.2-8.022q.525-.8.987-1.564a8.156,8.156,0,0,0,.745-1.607,5.89,5.89,0,0,0,.284-1.89,3.679,3.679,0,0,0-.661-2.331,2.3,2.3,0,0,0-1.922-.84,3.008,3.008,0,0,0-1.838.483,2.454,2.454,0,0,0-.882,1.344,7.882,7.882,0,0,0-.262,1.974v.273H61.562v-.336a7.027,7.027,0,0,1,.42-2.615,3.042,3.042,0,0,1,1.313-1.554,4.565,4.565,0,0,1,2.3-.514,3.428,3.428,0,0,1,2.793,1.134,4.779,4.779,0,0,1,.945,3.15,5.669,5.669,0,0,1-.315,1.9,10.089,10.089,0,0,1-.8,1.722q-.483.83-1.008,1.628L62.759-.945H69V0Zm10.08,0V-2.184H72.8V0Zm3.024,0V-.84l4.725-7.182q.525-.8.987-1.564a8.156,8.156,0,0,0,.745-1.607,5.89,5.89,0,0,0,.284-1.89,3.679,3.679,0,0,0-.661-2.331,2.3,2.3,0,0,0-1.922-.84,3.008,3.008,0,0,0-1.838.483,2.454,2.454,0,0,0-.882,1.344,7.882,7.882,0,0,0-.263,1.974v.273H74.666v-.336a7.027,7.027,0,0,1,.42-2.615A3.042,3.042,0,0,1,76.4-16.685a4.565,4.565,0,0,1,2.3-.514,3.428,3.428,0,0,1,2.793,1.134,4.779,4.779,0,0,1,.945,3.15,5.669,5.669,0,0,1-.315,1.9,10.089,10.089,0,0,1-.8,1.722q-.483.83-1.008,1.628L75.863-.945H82.1V0Zm9.345,3.087v-.8a1.637,1.637,0,0,0,1.239-.85,5.579,5.579,0,0,0,.63-2,22.472,22.472,0,0,0,.221-2.9q.032-1.648.032-3.56t-.032-3.56a22.2,22.2,0,0,0-.221-2.887,5.565,5.565,0,0,0-.63-1.984,1.637,1.637,0,0,0-1.239-.851v-.819a2.505,2.505,0,0,1,1.554.557,3.4,3.4,0,0,1,.955,1.428,9.459,9.459,0,0,1,.5,2.153,26.284,26.284,0,0,1,.189,2.751q.032,1.512.032,3.213,0,1.68-.032,3.171a26.132,26.132,0,0,1-.189,2.73,9.273,9.273,0,0,1-.5,2.142,3.579,3.579,0,0,1-.955,1.439A2.637,2.637,0,0,1,83.927,3.087Z" transform="translate(1009 654.089)" fill="#823695"/>
    <path id="Path_3246" data-name="Path 3246" d="M2.25,0V-24.3h5.7a6.09,6.09,0,0,1,3.42.825A4.36,4.36,0,0,1,13.1-21.24a9.661,9.661,0,0,1,.495,3.21,9.617,9.617,0,0,1-.495,3.09,4.9,4.9,0,0,1-1.725,2.4,5.5,5.5,0,0,1-3.39.93H3.87V0ZM3.87-12.87H7.62a5.057,5.057,0,0,0,2.415-.51,3.138,3.138,0,0,0,1.41-1.635,8.048,8.048,0,0,0,.465-3.015,8.788,8.788,0,0,0-.42-3.045,2.64,2.64,0,0,0-1.35-1.53,5.949,5.949,0,0,0-2.49-.435H3.87ZM17.01,0V-24.3h5.88a5.819,5.819,0,0,1,3.315.8,4.034,4.034,0,0,1,1.59,2.16A10,10,0,0,1,28.23-18.3a11.4,11.4,0,0,1-.285,2.58,4.633,4.633,0,0,1-1.05,2.085,3.681,3.681,0,0,1-2.235,1.1L28.56,0H26.94L23.16-12.24H18.63V0Zm1.62-13.5h4.2a4.023,4.023,0,0,0,2.37-.585,3.02,3.02,0,0,0,1.125-1.665,9.161,9.161,0,0,0,.315-2.55,6.578,6.578,0,0,0-.765-3.51q-.765-1.2-3.075-1.2H18.63ZM42.81.33a5.41,5.41,0,0,1-2.955-.72,4.123,4.123,0,0,1-1.635-2A8.1,8.1,0,0,1,37.71-5.4v-.45h1.5v.48a7.528,7.528,0,0,0,.39,2.4,2.888,2.888,0,0,0,1.155,1.5,3.747,3.747,0,0,0,2.055.51,4.379,4.379,0,0,0,2.04-.465A3.228,3.228,0,0,0,46.275-3.09,8.616,8.616,0,0,0,46.8-6.45a8.044,8.044,0,0,0-.87-3.975A3.238,3.238,0,0,0,42.9-12h-.69v-1.41h.69a3.444,3.444,0,0,0,3.015-1.245A6.91,6.91,0,0,0,46.8-18.6a6.428,6.428,0,0,0-.8-3.36,3.034,3.034,0,0,0-2.835-1.32,3.953,3.953,0,0,0-2.94,1.005,4.852,4.852,0,0,0-1.02,3.4v.36h-1.5v-.39a8.008,8.008,0,0,1,.51-2.985,3.937,3.937,0,0,1,1.71-1.98,6.313,6.313,0,0,1,3.21-.7,5.288,5.288,0,0,1,3.03.8,4.684,4.684,0,0,1,1.725,2.145,7.9,7.9,0,0,1,.555,3.03,7.4,7.4,0,0,1-.99,4.2A3.9,3.9,0,0,1,45-12.66a3.861,3.861,0,0,1,1.575.84A4.971,4.971,0,0,1,47.91-9.87a8.9,8.9,0,0,1,.54,3.39,10.142,10.142,0,0,1-.57,3.525A4.978,4.978,0,0,1,46.08-.54,5.553,5.553,0,0,1,42.81.33Zm15.3,0a6.486,6.486,0,0,1-2.97-.6A3.778,3.778,0,0,1,53.4-2.1a7.269,7.269,0,0,1-.57-3.06V-5.7h1.53a5.987,5.987,0,0,0,.84,3.69A3.629,3.629,0,0,0,58.14-.99a3.893,3.893,0,0,0,1.92-.45,2.968,2.968,0,0,0,1.26-1.59,9.054,9.054,0,0,0,.45-3.21v-5.13a6.049,6.049,0,0,1-1.485.84,6.707,6.707,0,0,1-2.655.45,6.014,6.014,0,0,1-3.12-.69,3.881,3.881,0,0,1-1.635-2.31,15.654,15.654,0,0,1-.495-4.41,11.294,11.294,0,0,1,.57-3.825,4.769,4.769,0,0,1,1.815-2.415,5.717,5.717,0,0,1,3.255-.84,5.186,5.186,0,0,1,3.09.84,4.774,4.774,0,0,1,1.71,2.475,13.235,13.235,0,0,1,.54,4.1V-6.57a11.6,11.6,0,0,1-.525,3.69A4.681,4.681,0,0,1,61.17-.5,5.115,5.115,0,0,1,58.11.33Zm-.12-11.7a5.8,5.8,0,0,0,2.355-.42,6.513,6.513,0,0,0,1.425-.81v-4.53a12.838,12.838,0,0,0-.42-3.72A3.243,3.243,0,0,0,60.1-22.7a3.817,3.817,0,0,0-2.085-.525,4.314,4.314,0,0,0-2.16.51,3.193,3.193,0,0,0-1.365,1.725,9.537,9.537,0,0,0-.465,3.315,20.039,20.039,0,0,0,.27,3.69,3.054,3.054,0,0,0,1.125,1.995A4.391,4.391,0,0,0,57.99-11.37ZM73.428,2.646A2.26,2.26,0,0,1,72.1,2.115a2.993,2.993,0,0,1-.81-1.233,8.289,8.289,0,0,1-.423-1.827A22.1,22.1,0,0,1,70.7-3.276q-.027-1.278-.027-2.718,0-1.458.027-2.754a22.827,22.827,0,0,1,.162-2.367,8.471,8.471,0,0,1,.423-1.854,2.846,2.846,0,0,1,.81-1.224,2.148,2.148,0,0,1,1.332-.477v.7a1.4,1.4,0,0,0-1.062.729,4.782,4.782,0,0,0-.54,1.71,19.262,19.262,0,0,0-.189,2.484q-.027,1.413-.027,3.051t.027,3.051a19.027,19.027,0,0,0,.189,2.475,4.9,4.9,0,0,0,.531,1.7,1.389,1.389,0,0,0,1.071.729ZM75.138,0V-10.4h.954v1.116a4,4,0,0,1,1.116-.927,2.73,2.73,0,0,1,1.35-.351,1.575,1.575,0,0,1,.837.225,1.52,1.52,0,0,1,.585.72A3.361,3.361,0,0,1,80.2-8.3V0h-.954V-8.19a2.049,2.049,0,0,0-.3-1.3,1.007,1.007,0,0,0-.8-.342,2.052,2.052,0,0,0-1.053.315,4.285,4.285,0,0,0-1,.837V0Zm7.02-8.118V-8.91h5.274v.792Zm0,2.934v-.81h5.274v.81ZM93.966,0V-4.482h-4.5V-5.4L93.8-14.58H94.92v9.216h1.692v.882H94.92V0ZM90.474-5.364h3.492v-7.812ZM101.958.2a3.153,3.153,0,0,1-1.863-.5A2.891,2.891,0,0,1,99.051-1.8a7.759,7.759,0,0,1-.333-2.448V-10.6a6.6,6.6,0,0,1,.333-2.223,2.844,2.844,0,0,1,1.044-1.422,3.162,3.162,0,0,1,1.845-.5,3.778,3.778,0,0,1,1.764.36,2.253,2.253,0,0,1,1.017,1.08,4.387,4.387,0,0,1,.333,1.836v.342h-.918a3.592,3.592,0,0,0-.5-2.214,1.981,1.981,0,0,0-1.62-.612,2.563,2.563,0,0,0-1.179.27,1.91,1.91,0,0,0-.846.954,4.724,4.724,0,0,0-.315,1.926v3.078a6.186,6.186,0,0,1,1.035-.5,3.865,3.865,0,0,1,1.449-.27,3.659,3.659,0,0,1,1.881.414,2.277,2.277,0,0,1,.981,1.377,9.569,9.569,0,0,1,.288,2.637,7.026,7.026,0,0,1-.333,2.3,2.85,2.85,0,0,1-1.062,1.458A3.377,3.377,0,0,1,101.958.2Zm0-.81a2.725,2.725,0,0,0,1.3-.279,1.811,1.811,0,0,0,.8-1.008,5.921,5.921,0,0,0,.279-2.043,11.405,11.405,0,0,0-.171-2.214,1.883,1.883,0,0,0-.675-1.2,2.591,2.591,0,0,0-1.53-.369,3.262,3.262,0,0,0-.882.126,5.806,5.806,0,0,0-.828.3,3.388,3.388,0,0,0-.576.315v2.718a7.466,7.466,0,0,0,.261,2.223,1.95,1.95,0,0,0,.774,1.116A2.347,2.347,0,0,0,101.958-.612Zm5.112,3.258V1.962a1.4,1.4,0,0,0,1.062-.729,4.782,4.782,0,0,0,.54-1.71,19.262,19.262,0,0,0,.189-2.484q.027-1.413.027-3.051t-.027-3.051a19.027,19.027,0,0,0-.189-2.475,4.77,4.77,0,0,0-.54-1.7,1.4,1.4,0,0,0-1.062-.729v-.7a2.148,2.148,0,0,1,1.332.477,2.914,2.914,0,0,1,.819,1.224,8.108,8.108,0,0,1,.432,1.845,22.527,22.527,0,0,1,.162,2.358q.027,1.3.027,2.754,0,1.44-.027,2.718a22.4,22.4,0,0,1-.162,2.34,7.949,7.949,0,0,1-.432,1.836,3.068,3.068,0,0,1-.819,1.233A2.26,2.26,0,0,1,107.07,2.646Z" transform="translate(950 870)" fill="#fff"/>
    <path id="Path_3234" data-name="Path 3234" d="M1.875,0V-20.25h4.75a5.075,5.075,0,0,1,2.85.688A3.634,3.634,0,0,1,10.913-17.7a8.051,8.051,0,0,1,.412,2.675,8.014,8.014,0,0,1-.412,2.575,4.086,4.086,0,0,1-1.438,2,4.587,4.587,0,0,1-2.825.775H3.225V0Zm1.35-10.725H6.35a4.214,4.214,0,0,0,2.012-.425,2.615,2.615,0,0,0,1.175-1.363,6.707,6.707,0,0,0,.387-2.512,7.323,7.323,0,0,0-.35-2.538A2.2,2.2,0,0,0,8.45-18.838,4.958,4.958,0,0,0,6.375-19.2H3.225ZM13.65,0V-20.25h7v1.1H15.025v8.125H19.65v1.05H15.025v8.9h5.7V0Zm9.525,0V-20.25h4.9a4.849,4.849,0,0,1,2.762.663,3.361,3.361,0,0,1,1.325,1.8,8.332,8.332,0,0,1,.363,2.538,9.5,9.5,0,0,1-.238,2.15,3.861,3.861,0,0,1-.875,1.738,3.067,3.067,0,0,1-1.862.912L32.8,0H31.45L28.3-10.2H24.525V0Zm1.35-11.25h3.5A3.353,3.353,0,0,0,30-11.738a2.517,2.517,0,0,0,.938-1.387A7.634,7.634,0,0,0,31.2-15.25a5.482,5.482,0,0,0-.638-2.925,2.823,2.823,0,0,0-2.562-1H24.525ZM40.05.275A4.91,4.91,0,0,1,36.987-.55a4.182,4.182,0,0,1-1.463-2.213,11.032,11.032,0,0,1-.4-3.062v-8.6a10.452,10.452,0,0,1,.425-3.113,4.092,4.092,0,0,1,1.5-2.15,5,5,0,0,1,3-.788,4.779,4.779,0,0,1,2.775.7,3.792,3.792,0,0,1,1.425,1.987,9.627,9.627,0,0,1,.425,3.012v1.025h-1.3v-1.025a9.515,9.515,0,0,0-.275-2.463,2.813,2.813,0,0,0-1-1.562,3.333,3.333,0,0,0-2.05-.55,3.573,3.573,0,0,0-2.225.6,2.972,2.972,0,0,0-1.05,1.675,10.148,10.148,0,0,0-.275,2.5v8.95a9.528,9.528,0,0,0,.3,2.563,2.966,2.966,0,0,0,1.075,1.637A3.591,3.591,0,0,0,40.05-.85a3.272,3.272,0,0,0,2.075-.575,2.886,2.886,0,0,0,.987-1.613,9.9,9.9,0,0,0,.263-2.413V-6.675h1.3v1a10.83,10.83,0,0,1-.4,3.075,3.993,3.993,0,0,1-1.4,2.113A4.575,4.575,0,0,1,40.05.275ZM47.425,0V-20.25h7v1.1H48.8v8.125h4.625v1.05H48.8v8.9h5.7V0ZM56.95,0V-20.25h1.075L64.9-3.15v-17.1h1.2V0H65.025L58.15-17.125V0ZM72.175,0V-19.15h-4.05v-1.1h9.35v1.1h-3.95V0ZM77.5,0l4.25-20.25h1.575L87.6,0H86.225l-1.05-5.6h-5.25L78.85,0Zm2.625-6.6H85l-2.45-12ZM94.375.275A4.88,4.88,0,0,1,91.4-.512,4.083,4.083,0,0,1,89.938-2.7a11.236,11.236,0,0,1-.413-3.175v-8.6a10.716,10.716,0,0,1,.413-3.125,3.9,3.9,0,0,1,1.487-2.112,5.169,5.169,0,0,1,3.025-.763,4.84,4.84,0,0,1,2.787.7,3.831,3.831,0,0,1,1.45,2,9.668,9.668,0,0,1,.438,3.075v.7h-1.3v-.775a8.975,8.975,0,0,0-.3-2.512A2.808,2.808,0,0,0,96.5-18.825a3.451,3.451,0,0,0-2.05-.525,3.565,3.565,0,0,0-2.25.612,2.978,2.978,0,0,0-1.037,1.7,10.771,10.771,0,0,0-.263,2.512V-5.7a9.7,9.7,0,0,0,.3,2.563A3.1,3.1,0,0,0,92.275-1.45a3.526,3.526,0,0,0,2.2.6,3.327,3.327,0,0,0,2.088-.575,2.994,2.994,0,0,0,1.025-1.65,9.953,9.953,0,0,0,.288-2.55V-8.6H94.65V-9.65h4.5V0h-.875l-.2-2.275A3.781,3.781,0,0,1,96.837-.412,3.868,3.868,0,0,1,94.375.275ZM102.35,0V-20.25h7v1.1h-5.625v8.125h4.625v1.05h-4.625v8.9h5.7V0Z" transform="translate(745.922 841.744) rotate(-90)" fill="#823695"/>
    <path id="Path_3227" data-name="Path 3227" d="M0,0H220.73V27.19H0Z" transform="translate(899 725.371)" fill="rgba(99,102,107,0.4)"/>
    <path id="Path_3243" data-name="Path 3243" d="M7.65.33A5.892,5.892,0,0,1,3.975-.66,5.019,5.019,0,0,1,2.22-3.315,13.238,13.238,0,0,1,1.74-6.99V-17.31a12.542,12.542,0,0,1,.51-3.735,4.911,4.911,0,0,1,1.8-2.58,6,6,0,0,1,3.6-.945,5.735,5.735,0,0,1,3.33.84,4.55,4.55,0,0,1,1.71,2.385,11.552,11.552,0,0,1,.51,3.615v1.23H11.64v-1.23a11.418,11.418,0,0,0-.33-2.955,3.376,3.376,0,0,0-1.2-1.875,4,4,0,0,0-2.46-.66,4.287,4.287,0,0,0-2.67.72,3.567,3.567,0,0,0-1.26,2.01,12.178,12.178,0,0,0-.33,3V-6.75a11.433,11.433,0,0,0,.36,3.075A3.559,3.559,0,0,0,5.04-1.71a4.309,4.309,0,0,0,2.61.69,3.927,3.927,0,0,0,2.49-.69,3.463,3.463,0,0,0,1.185-1.935,11.876,11.876,0,0,0,.315-2.9V-8.01H13.2v1.2a13,13,0,0,1-.48,3.69A4.792,4.792,0,0,1,11.04-.585,5.49,5.49,0,0,1,7.65.33ZM16.74,0V-24.3h5.88a5.819,5.819,0,0,1,3.315.8,4.034,4.034,0,0,1,1.59,2.16A10,10,0,0,1,27.96-18.3a11.4,11.4,0,0,1-.285,2.58,4.633,4.633,0,0,1-1.05,2.085,3.681,3.681,0,0,1-2.235,1.1L28.29,0H26.67L22.89-12.24H18.36V0Zm1.62-13.5h4.2a4.023,4.023,0,0,0,2.37-.585,3.02,3.02,0,0,0,1.125-1.665,9.161,9.161,0,0,0,.315-2.55,6.578,6.578,0,0,0-.765-3.51q-.765-1.2-3.075-1.2H18.36ZM42.54.33a5.41,5.41,0,0,1-2.955-.72,4.123,4.123,0,0,1-1.635-2A8.1,8.1,0,0,1,37.44-5.4v-.45h1.5v.48a7.528,7.528,0,0,0,.39,2.4,2.888,2.888,0,0,0,1.155,1.5,3.747,3.747,0,0,0,2.055.51,4.379,4.379,0,0,0,2.04-.465A3.228,3.228,0,0,0,46.005-3.09a8.616,8.616,0,0,0,.525-3.36,8.044,8.044,0,0,0-.87-3.975A3.238,3.238,0,0,0,42.63-12h-.69v-1.41h.69a3.444,3.444,0,0,0,3.015-1.245A6.91,6.91,0,0,0,46.53-18.6a6.428,6.428,0,0,0-.8-3.36A3.034,3.034,0,0,0,42.9-23.28a3.953,3.953,0,0,0-2.94,1.005,4.852,4.852,0,0,0-1.02,3.4v.36h-1.5v-.39a8.008,8.008,0,0,1,.51-2.985,3.937,3.937,0,0,1,1.71-1.98,6.313,6.313,0,0,1,3.21-.7,5.288,5.288,0,0,1,3.03.8,4.684,4.684,0,0,1,1.725,2.145,7.9,7.9,0,0,1,.555,3.03,7.4,7.4,0,0,1-.99,4.2,3.9,3.9,0,0,1-2.46,1.74,3.861,3.861,0,0,1,1.575.84A4.971,4.971,0,0,1,47.64-9.87a8.9,8.9,0,0,1,.54,3.39,10.142,10.142,0,0,1-.57,3.525A4.978,4.978,0,0,1,45.81-.54,5.553,5.553,0,0,1,42.54.33ZM59.094,2.646a2.26,2.26,0,0,1-1.332-.531,2.993,2.993,0,0,1-.81-1.233,8.288,8.288,0,0,1-.423-1.827,22.1,22.1,0,0,1-.162-2.331q-.027-1.278-.027-2.718,0-1.458.027-2.754a22.829,22.829,0,0,1,.162-2.367,8.471,8.471,0,0,1,.423-1.854,2.846,2.846,0,0,1,.81-1.224,2.148,2.148,0,0,1,1.332-.477v.7a1.4,1.4,0,0,0-1.062.729,4.782,4.782,0,0,0-.54,1.71A19.262,19.262,0,0,0,57.3-9.045q-.027,1.413-.027,3.051T57.3-2.943a19.027,19.027,0,0,0,.189,2.475,4.9,4.9,0,0,0,.531,1.7,1.389,1.389,0,0,0,1.071.729ZM60.678,0V-10.4h.954v1.116a4,4,0,0,1,1.116-.927,2.73,2.73,0,0,1,1.35-.351,1.575,1.575,0,0,1,.837.225,1.52,1.52,0,0,1,.585.72A3.361,3.361,0,0,1,65.736-8.3V0h-.954V-8.19a2.049,2.049,0,0,0-.3-1.3,1.007,1.007,0,0,0-.8-.342,2.052,2.052,0,0,0-1.053.315,4.285,4.285,0,0,0-1,.837V0Zm6.894-8.118V-8.91h5.274v.792Zm0,2.934v-.81h5.274v.81ZM79.254,0V-4.482h-4.5V-5.4l4.338-9.18h1.116v9.216H81.9v.882H80.208V0ZM75.762-5.364h3.492v-7.812Zm7.416,8.01V1.962a1.4,1.4,0,0,0,1.062-.729,4.782,4.782,0,0,0,.54-1.71,19.262,19.262,0,0,0,.189-2.484Q85-4.374,85-6.012t-.027-3.051a19.027,19.027,0,0,0-.189-2.475,4.77,4.77,0,0,0-.54-1.7,1.4,1.4,0,0,0-1.062-.729v-.7a2.148,2.148,0,0,1,1.332.477,2.914,2.914,0,0,1,.819,1.224,8.108,8.108,0,0,1,.432,1.845,22.527,22.527,0,0,1,.162,2.358q.027,1.3.027,2.754,0,1.44-.027,2.718a22.4,22.4,0,0,1-.162,2.34A7.949,7.949,0,0,1,85.329.882a3.068,3.068,0,0,1-.819,1.233A2.26,2.26,0,0,1,83.178,2.646Z" transform="translate(961 711.819)" fill="#63666b"/>
    <path id="Path_3252" data-name="Path 3252" d="M0,0V12.515" transform="translate(1197.953 1009.378)" fill="none" stroke="#63666b" stroke-width="0.679"/>
    <path id="Path_2588" data-name="Path 2588" d="M0,0H384.3" transform="translate(813.7 1009.648)" fill="none" stroke="#63666b" stroke-width="0.679"/>
    <path id="Path_565-2" data-name="Path 565" d="M94.728,1790.221v0Z" transform="translate(1079.629 -767.303)" fill="#464749"/>
    <path id="Path_3239" data-name="Path 3239" d="M7.57-3.422a3.771,3.771,0,0,1-.281,1.484A3.245,3.245,0,0,1,6.488-.8a3.586,3.586,0,0,1-1.254.734A4.9,4.9,0,0,1,3.6.2a4.511,4.511,0,0,1-2.32-.469V-1.633A4.266,4.266,0,0,0,3.617-.9a3.161,3.161,0,0,0,1.1-.18,2.439,2.439,0,0,0,.832-.5,2.141,2.141,0,0,0,.527-.773,2.618,2.618,0,0,0,.184-.992,2.125,2.125,0,0,0-.734-1.715A3.221,3.221,0,0,0,3.391-5.68q-.227,0-.477.008t-.5.02q-.25.012-.488.027t-.434.039L1.875-11.2h5.18v1.156H2.984L2.758-6.758q.25-.016.531-.027t.5-.012a5.028,5.028,0,0,1,1.594.234,3.377,3.377,0,0,1,1.191.668,2.8,2.8,0,0,1,.742,1.063A3.737,3.737,0,0,1,7.57-3.422Zm9.023-2.227a11.005,11.005,0,0,1-.254,2.492,5.807,5.807,0,0,1-.734,1.832,3.305,3.305,0,0,1-1.18,1.133A3.23,3.23,0,0,1,12.836.2a3.016,3.016,0,0,1-1.5-.371,3.152,3.152,0,0,1-1.113-1.082A5.484,5.484,0,0,1,9.531-3,10.8,10.8,0,0,1,9.3-5.375a12.222,12.222,0,0,1,.246-2.594,5.933,5.933,0,0,1,.723-1.887A3.216,3.216,0,0,1,11.449-11a3.323,3.323,0,0,1,1.621-.387Q16.594-11.391,16.594-5.648Zm-1.312.125q0-4.781-2.273-4.781-2.4,0-2.4,4.867Q10.609-.9,12.961-.9,15.281-.9,15.281-5.523Z" transform="translate(784.803 680.85)" fill="#63666b"/>
    <path id="Path_3241" data-name="Path 3241" d="M6.641-11.2v7.4H8.078v1.172H6.641V0H5.375V-2.633H.109V-3.742q.734-.828,1.484-1.77t1.434-1.91q.684-.969,1.266-1.934a17.671,17.671,0,0,0,.98-1.848ZM1.555-3.8h3.82V-9.289Q4.789-8.266,4.266-7.461T3.27-6q-.473.656-.9,1.188T1.555-3.8ZM16.594-5.648a11.005,11.005,0,0,1-.254,2.492,5.807,5.807,0,0,1-.734,1.832,3.305,3.305,0,0,1-1.18,1.133A3.23,3.23,0,0,1,12.836.2a3.016,3.016,0,0,1-1.5-.371,3.152,3.152,0,0,1-1.113-1.082A5.484,5.484,0,0,1,9.531-3,10.8,10.8,0,0,1,9.3-5.375a12.222,12.222,0,0,1,.246-2.594,5.933,5.933,0,0,1,.723-1.887A3.216,3.216,0,0,1,11.449-11a3.323,3.323,0,0,1,1.621-.387Q16.594-11.391,16.594-5.648Zm-1.312.125q0-4.781-2.273-4.781-2.4,0-2.4,4.867Q10.609-.9,12.961-.9,15.281-.9,15.281-5.523Z" transform="translate(784.803 747.789)" fill="#63666b"/>
    <path id="Path_3244" data-name="Path 3244" d="M7.445-3.172A3.266,3.266,0,0,1,7.16-1.793a3.045,3.045,0,0,1-.8,1.063,3.714,3.714,0,0,1-1.246.684A5.04,5.04,0,0,1,3.508.2,4.654,4.654,0,0,1,.961-.414V-1.789A4.081,4.081,0,0,0,3.555-.9a3.525,3.525,0,0,0,1.059-.148,2.374,2.374,0,0,0,.813-.43,1.909,1.909,0,0,0,.523-.68,2.123,2.123,0,0,0,.184-.9q0-2.2-3.125-2.2h-.93V-6.336h.883q2.766,0,2.766-2.062,0-1.906-2.109-1.906a3.592,3.592,0,0,0-2.227.8V-10.75a4.868,4.868,0,0,1,2.547-.641,3.913,3.913,0,0,1,1.273.2,2.918,2.918,0,0,1,.977.547,2.423,2.423,0,0,1,.629.844,2.6,2.6,0,0,1,.223,1.086A2.735,2.735,0,0,1,4.8-5.875v.031a3.534,3.534,0,0,1,1.055.277,2.814,2.814,0,0,1,.836.559,2.49,2.49,0,0,1,.551.809A2.582,2.582,0,0,1,7.445-3.172Zm9.148-2.477a11.005,11.005,0,0,1-.254,2.492,5.807,5.807,0,0,1-.734,1.832,3.305,3.305,0,0,1-1.18,1.133A3.23,3.23,0,0,1,12.836.2a3.016,3.016,0,0,1-1.5-.371,3.152,3.152,0,0,1-1.113-1.082A5.484,5.484,0,0,1,9.531-3,10.8,10.8,0,0,1,9.3-5.375a12.222,12.222,0,0,1,.246-2.594,5.933,5.933,0,0,1,.723-1.887A3.216,3.216,0,0,1,11.449-11a3.323,3.323,0,0,1,1.621-.387Q16.594-11.391,16.594-5.648Zm-1.312.125q0-4.781-2.273-4.781-2.4,0-2.4,4.867Q10.609-.9,12.961-.9,15.281-.9,15.281-5.523Z" transform="translate(784.803 814.725)" fill="#63666b"/>
    <path id="Path_3247" data-name="Path 3247" d="M6.031-8.266a2.316,2.316,0,0,0-.16-.9A1.78,1.78,0,0,0,5.434-9.8a1.793,1.793,0,0,0-.652-.379,2.555,2.555,0,0,0-.812-.125,2.688,2.688,0,0,0-.734.1,3.57,3.57,0,0,0-.7.281,4.3,4.3,0,0,0-.656.43,4.74,4.74,0,0,0-.59.555v-1.375a3.831,3.831,0,0,1,1.207-.8,4.25,4.25,0,0,1,1.629-.277,3.932,3.932,0,0,1,1.273.2,2.92,2.92,0,0,1,1.016.582,2.691,2.691,0,0,1,.676.945,3.188,3.188,0,0,1,.246,1.289,4.42,4.42,0,0,1-.152,1.2,3.721,3.721,0,0,1-.461,1.016,4.9,4.9,0,0,1-.777.914,11.011,11.011,0,0,1-1.1.891q-.789.563-1.3.961a5.75,5.75,0,0,0-.812.746,2.165,2.165,0,0,0-.422.7,2.43,2.43,0,0,0-.121.8H7.766V0H.852V-.555A4.622,4.622,0,0,1,1.008-1.82a3.286,3.286,0,0,1,.516-1.039,5.767,5.767,0,0,1,.941-.984q.582-.492,1.426-1.109a9.014,9.014,0,0,0,1.02-.836,4.346,4.346,0,0,0,.66-.8,2.862,2.862,0,0,0,.355-.809A3.486,3.486,0,0,0,6.031-8.266ZM16.594-5.648a11.005,11.005,0,0,1-.254,2.492,5.807,5.807,0,0,1-.734,1.832,3.305,3.305,0,0,1-1.18,1.133A3.23,3.23,0,0,1,12.836.2a3.016,3.016,0,0,1-1.5-.371,3.152,3.152,0,0,1-1.113-1.082A5.484,5.484,0,0,1,9.531-3,10.8,10.8,0,0,1,9.3-5.375a12.222,12.222,0,0,1,.246-2.594,5.933,5.933,0,0,1,.723-1.887A3.216,3.216,0,0,1,11.449-11a3.323,3.323,0,0,1,1.621-.387Q16.594-11.391,16.594-5.648Zm-1.312.125q0-4.781-2.273-4.781-2.4,0-2.4,4.867Q10.609-.9,12.961-.9,15.281-.9,15.281-5.523Z" transform="translate(784.803 881.664)" fill="#63666b"/>
    <path id="Path_3249" data-name="Path 3249" d="M5.656,0H4.375V-9.68a2.966,2.966,0,0,1-.434.34,7.068,7.068,0,0,1-.641.379q-.355.188-.75.352a5.451,5.451,0,0,1-.77.258v-1.3a7.448,7.448,0,0,0,.895-.316q.473-.2.93-.445t.863-.516a6.854,6.854,0,0,0,.7-.527h.484ZM16.594-5.648a11.005,11.005,0,0,1-.254,2.492,5.807,5.807,0,0,1-.734,1.832,3.305,3.305,0,0,1-1.18,1.133A3.23,3.23,0,0,1,12.836.2a3.016,3.016,0,0,1-1.5-.371,3.152,3.152,0,0,1-1.113-1.082A5.484,5.484,0,0,1,9.531-3,10.8,10.8,0,0,1,9.3-5.375a12.222,12.222,0,0,1,.246-2.594,5.933,5.933,0,0,1,.723-1.887A3.216,3.216,0,0,1,11.449-11a3.323,3.323,0,0,1,1.621-.387Q16.594-11.391,16.594-5.648Zm-1.312.125q0-4.781-2.273-4.781-2.4,0-2.4,4.867Q10.609-.9,12.961-.9,15.281-.9,15.281-5.523Z" transform="translate(784.803 948.599)" fill="#63666b"/>
    <path id="Path_3251" data-name="Path 3251" d="M7.969-5.648a11.005,11.005,0,0,1-.254,2.492A5.807,5.807,0,0,1,6.98-1.324,3.305,3.305,0,0,1,5.8-.191,3.23,3.23,0,0,1,4.211.2a3.016,3.016,0,0,1-1.5-.371A3.152,3.152,0,0,1,1.594-1.258,5.484,5.484,0,0,1,.906-3,10.8,10.8,0,0,1,.672-5.375,12.222,12.222,0,0,1,.918-7.969a5.933,5.933,0,0,1,.723-1.887A3.216,3.216,0,0,1,2.824-11a3.323,3.323,0,0,1,1.621-.387Q7.969-11.391,7.969-5.648Zm-1.312.125q0-4.781-2.273-4.781-2.4,0-2.4,4.867Q1.984-.9,4.336-.9,6.656-.9,6.656-5.523Z" transform="translate(793.708 1012.854)" fill="#63666b"/>
    <path id="Path_3235" data-name="Path 3235" d="M7.891-10.461q-.258.445-.621,1.109T6.5-7.859q-.406.828-.828,1.781T4.883-4.109q-.367,1.016-.645,2.059A15.315,15.315,0,0,0,3.836,0H2.461a15.579,15.579,0,0,1,.434-2.043q.293-1.043.664-2.047t.785-1.934q.414-.93.8-1.711t.715-1.379q.324-.6.52-.934H.766V-11.2H7.891Zm8.7,4.813a11.005,11.005,0,0,1-.254,2.492,5.807,5.807,0,0,1-.734,1.832,3.305,3.305,0,0,1-1.18,1.133A3.23,3.23,0,0,1,12.836.2a3.016,3.016,0,0,1-1.5-.371,3.152,3.152,0,0,1-1.113-1.082A5.484,5.484,0,0,1,9.531-3,10.8,10.8,0,0,1,9.3-5.375a12.222,12.222,0,0,1,.246-2.594,5.933,5.933,0,0,1,.723-1.887A3.216,3.216,0,0,1,11.449-11a3.323,3.323,0,0,1,1.621-.387Q16.594-11.391,16.594-5.648Zm-1.312.125q0-4.781-2.273-4.781-2.4,0-2.4,4.867Q10.609-.9,12.961-.9,15.281-.9,15.281-5.523Z" transform="translate(784.803 542.059)" fill="#63666b"/>
    <path id="Path_3237" data-name="Path 3237" d="M7.984-3.555a4.15,4.15,0,0,1-.266,1.508A3.624,3.624,0,0,1,6.984-.859a3.281,3.281,0,0,1-1.117.777A3.538,3.538,0,0,1,4.461.2,3.2,3.2,0,0,1,2.949-.156,3.2,3.2,0,0,1,1.816-1.168a4.853,4.853,0,0,1-.707-1.613A8.74,8.74,0,0,1,.867-4.93a10.1,10.1,0,0,1,.324-2.652,6.444,6.444,0,0,1,.922-2.039A4.25,4.25,0,0,1,3.555-10.93a3.862,3.862,0,0,1,1.883-.461,4.535,4.535,0,0,1,1.859.32v1.211A3.949,3.949,0,0,0,5.469-10.3a2.724,2.724,0,0,0-1.352.336,3.1,3.1,0,0,0-1.031.949,4.63,4.63,0,0,0-.66,1.48,7.511,7.511,0,0,0-.23,1.93h.031a2.69,2.69,0,0,1,2.555-1.4,3.363,3.363,0,0,1,1.324.25,2.859,2.859,0,0,1,1.008.707,3.183,3.183,0,0,1,.645,1.09A4.148,4.148,0,0,1,7.984-3.555Zm-1.312.164a3.486,3.486,0,0,0-.148-1.055,2.288,2.288,0,0,0-.426-.8,1.836,1.836,0,0,0-.684-.5,2.3,2.3,0,0,0-.922-.176,2.158,2.158,0,0,0-.883.18,2.2,2.2,0,0,0-.7.488,2.262,2.262,0,0,0-.465.719,2.276,2.276,0,0,0-.168.871,3.475,3.475,0,0,0,.164,1.082A2.8,2.8,0,0,0,2.9-1.7a2.192,2.192,0,0,0,.707.59,1.931,1.931,0,0,0,.91.215A2.084,2.084,0,0,0,5.4-1.082a1.97,1.97,0,0,0,.68-.512,2.369,2.369,0,0,0,.438-.785A3.112,3.112,0,0,0,6.672-3.391Zm9.922-2.258a11.005,11.005,0,0,1-.254,2.492,5.807,5.807,0,0,1-.734,1.832,3.305,3.305,0,0,1-1.18,1.133A3.23,3.23,0,0,1,12.836.2a3.016,3.016,0,0,1-1.5-.371,3.152,3.152,0,0,1-1.113-1.082A5.484,5.484,0,0,1,9.531-3,10.8,10.8,0,0,1,9.3-5.375a12.222,12.222,0,0,1,.246-2.594,5.933,5.933,0,0,1,.723-1.887A3.216,3.216,0,0,1,11.449-11a3.323,3.323,0,0,1,1.621-.387Q16.594-11.391,16.594-5.648Zm-1.312.125q0-4.781-2.273-4.781-2.4,0-2.4,4.867Q10.609-.9,12.961-.9,15.281-.9,15.281-5.523Z" transform="translate(784.803 608.998)" fill="#63666b"/>
    <path id="Path_3248" data-name="Path 3248" d="M0,0H9.817" transform="translate(816 878.979)" fill="none" stroke="#63666b" stroke-width="0.679"/>
    <path id="Path_3250" data-name="Path 3250" d="M0,0H9.817" transform="translate(816 943.711)" fill="none" stroke="#63666b" stroke-width="0.679"/>
    <path id="Path_3242" data-name="Path 3242" d="M0,0H9.817" transform="translate(816 742.385)" fill="none" stroke="#63666b" stroke-width="0.679"/>
    <path id="Path_3245" data-name="Path 3245" d="M0,0H9.817" transform="translate(816 809.031)" fill="none" stroke="#63666b" stroke-width="0.679"/>
    <path id="Path_3236" data-name="Path 3236" d="M0,0H9.817" transform="translate(816 535.767)" fill="none" stroke="#63666b" stroke-width="0.679"/>
    <path id="Path_3238" data-name="Path 3238" d="M0,0H9.817" transform="translate(816 601.366)" fill="none" stroke="#63666b" stroke-width="0.679"/>
    <path id="Path_3240" data-name="Path 3240" d="M0,0H9.817" transform="translate(816 674.198)" fill="none" stroke="#63666b" stroke-width="0.679"/>
    <path id="Path_3233" data-name="Path 3233" d="M0,484.056V0" transform="translate(825.5 535.769)" fill="none" stroke="#63666b" stroke-width="0.679"/>
    <path id="Path_3229" data-name="Path 3229" d="M.576,0l3.06-14.58H4.77L7.848,0h-.99L6.1-4.032H2.322L1.548,0Zm1.89-4.752h3.51l-1.764-8.64ZM12.024.162A2.38,2.38,0,0,1,10.3-.387a2.685,2.685,0,0,1-.729-1.467A11.253,11.253,0,0,1,9.4-3.906V-6.354A10.392,10.392,0,0,1,9.63-8.811a2.255,2.255,0,0,1,.81-1.341,2.67,2.67,0,0,1,1.584-.414,2.561,2.561,0,0,1,1.629.441,2.113,2.113,0,0,1,.729,1.206,7.524,7.524,0,0,1,.18,1.719v.414h-.9V-7.2a5.952,5.952,0,0,0-.171-1.629,1.341,1.341,0,0,0-.531-.792,1.744,1.744,0,0,0-.936-.225,1.513,1.513,0,0,0-1.062.333,1.842,1.842,0,0,0-.486,1.071,12.3,12.3,0,0,0-.126,1.98v2.7a6.538,6.538,0,0,0,.333,2.448,1.331,1.331,0,0,0,1.359.756A1.565,1.565,0,0,0,13.1-.864a1.559,1.559,0,0,0,.459-.954,10.537,10.537,0,0,0,.108-1.674v-.4h.9v.378A9.8,9.8,0,0,1,14.4-1.638a2.3,2.3,0,0,1-.7,1.314A2.447,2.447,0,0,1,12.024.162ZM16.434,0V-14.58h.954v5.274a4.107,4.107,0,0,1,1.134-.918,2.786,2.786,0,0,1,1.35-.342,1.575,1.575,0,0,1,.837.225,1.52,1.52,0,0,1,.585.72A3.361,3.361,0,0,1,21.51-8.3V0h-.972V-8.19a2.1,2.1,0,0,0-.288-1.3.98.98,0,0,0-.792-.342,2.1,2.1,0,0,0-1.062.315,4.2,4.2,0,0,0-1.008.837V0ZM23.67,0V-10.4h.972V0Zm0-11.772v-1.656h.972v1.656ZM29.466.162a2.864,2.864,0,0,1-1.422-.333,2.135,2.135,0,0,1-.909-1.206,7.6,7.6,0,0,1-.315-2.475V-6.624a7.3,7.3,0,0,1,.324-2.484,2.023,2.023,0,0,1,.927-1.152,3.084,3.084,0,0,1,1.413-.306,2.518,2.518,0,0,1,1.53.414,2.285,2.285,0,0,1,.792,1.323,9.966,9.966,0,0,1,.234,2.4v.99H27.774V-3.78a8.62,8.62,0,0,0,.171,1.944,1.7,1.7,0,0,0,.549.99,1.559,1.559,0,0,0,.972.288,2.378,2.378,0,0,0,.756-.126,1.153,1.153,0,0,0,.63-.594A3.208,3.208,0,0,0,31.1-2.736V-3.51h.936v.684a3.844,3.844,0,0,1-.549,2.16A2.253,2.253,0,0,1,29.466.162ZM27.774-6.012H31.1v-.81A11.288,11.288,0,0,0,31-8.433a1.9,1.9,0,0,0-.441-1.044,1.409,1.409,0,0,0-1.08-.369,1.779,1.779,0,0,0-.963.243,1.462,1.462,0,0,0-.567.9,7.622,7.622,0,0,0-.18,1.9ZM35.712,0,33.318-10.4h.972l1.944,9.2,1.908-9.2h.918L36.774,0Zm7.344.162a2.864,2.864,0,0,1-1.422-.333,2.135,2.135,0,0,1-.909-1.206,7.6,7.6,0,0,1-.315-2.475V-6.624a7.3,7.3,0,0,1,.324-2.484,2.023,2.023,0,0,1,.927-1.152,3.084,3.084,0,0,1,1.413-.306,2.517,2.517,0,0,1,1.53.414A2.285,2.285,0,0,1,45.4-8.829a9.966,9.966,0,0,1,.234,2.4v.99H41.364V-3.78a8.62,8.62,0,0,0,.171,1.944,1.7,1.7,0,0,0,.549.99,1.559,1.559,0,0,0,.972.288,2.378,2.378,0,0,0,.756-.126,1.153,1.153,0,0,0,.63-.594,3.208,3.208,0,0,0,.252-1.458V-3.51h.936v.684a3.844,3.844,0,0,1-.549,2.16A2.253,2.253,0,0,1,43.056.162ZM41.364-6.012h3.33v-.81a11.288,11.288,0,0,0-.1-1.611,1.9,1.9,0,0,0-.441-1.044,1.409,1.409,0,0,0-1.08-.369,1.779,1.779,0,0,0-.963.243,1.462,1.462,0,0,0-.567.9,7.622,7.622,0,0,0-.18,1.9ZM49.86.162a1.968,1.968,0,0,1-1.9-1.035,7.7,7.7,0,0,1-.549-3.393V-6.12a12.722,12.722,0,0,1,.2-2.457,2.768,2.768,0,0,1,.72-1.485,2.038,2.038,0,0,1,1.476-.5,2.073,2.073,0,0,1,1.134.3,3.043,3.043,0,0,1,.756.657V-14.58h.954V0H51.7V-.792a3.519,3.519,0,0,1-.747.648A1.917,1.917,0,0,1,49.86.162Zm.126-.738a1.81,1.81,0,0,0,.963-.27,3.316,3.316,0,0,0,.747-.612v-7.47a5.332,5.332,0,0,0-.729-.594,1.711,1.711,0,0,0-1-.306,1.241,1.241,0,0,0-1.3.828,8.279,8.279,0,0,0-.306,2.646v2.16A12.818,12.818,0,0,0,48.5-2.133a2.266,2.266,0,0,0,.486,1.179A1.3,1.3,0,0,0,49.986-.576ZM61.74.2a3.709,3.709,0,0,1-2.205-.567,2.928,2.928,0,0,1-1.089-1.548A7.458,7.458,0,0,1,58.14-4.14v-6.372a6.821,6.821,0,0,1,.324-2.2A2.886,2.886,0,0,1,59.571-14.2a3.777,3.777,0,0,1,2.169-.54,3.777,3.777,0,0,1,2.169.54,2.886,2.886,0,0,1,1.107,1.494,6.821,6.821,0,0,1,.324,2.2v6.39a7.368,7.368,0,0,1-.306,2.214A2.929,2.929,0,0,1,63.945-.369,3.709,3.709,0,0,1,61.74.2Zm0-.81a2.7,2.7,0,0,0,1.611-.414,2.113,2.113,0,0,0,.783-1.161,6.277,6.277,0,0,0,.216-1.737v-6.732a6.18,6.18,0,0,0-.216-1.728,2.085,2.085,0,0,0-.774-1.143,2.736,2.736,0,0,0-1.62-.405,2.743,2.743,0,0,0-1.611.405,2.067,2.067,0,0,0-.783,1.143,6.18,6.18,0,0,0-.216,1.728v6.732a6.277,6.277,0,0,0,.216,1.737,2.113,2.113,0,0,0,.783,1.161A2.7,2.7,0,0,0,61.74-.612ZM67.788,0V-14.58h3.528A3.491,3.491,0,0,1,73.3-14.1a2.42,2.42,0,0,1,.954,1.3,6,6,0,0,1,.261,1.827,6.839,6.839,0,0,1-.171,1.548,2.78,2.78,0,0,1-.63,1.251,2.209,2.209,0,0,1-1.341.657L74.718,0h-.972L71.478-7.344H68.76V0Zm.972-8.1h2.52A2.414,2.414,0,0,0,72.7-8.451a1.812,1.812,0,0,0,.675-1,5.5,5.5,0,0,0,.189-1.53,3.947,3.947,0,0,0-.459-2.106,2.033,2.033,0,0,0-1.845-.72h-2.5ZM77.022,0V-14.58H80.55a3.491,3.491,0,0,1,1.989.477,2.42,2.42,0,0,1,.954,1.3,6,6,0,0,1,.261,1.827,6.839,6.839,0,0,1-.171,1.548,2.78,2.78,0,0,1-.63,1.251,2.209,2.209,0,0,1-1.341.657L83.952,0H82.98L80.712-7.344H77.994V0Zm.972-8.1h2.52a2.414,2.414,0,0,0,1.422-.351,1.812,1.812,0,0,0,.675-1,5.5,5.5,0,0,0,.189-1.53,3.947,3.947,0,0,0-.459-2.106,2.033,2.033,0,0,0-1.845-.72h-2.5Z" transform="translate(963 1043.022)" fill="#63666b"/>
    <path id="Path_3222" data-name="Path 3222" d="M0,0H220.73V246.389H0Z" transform="translate(1367 763.74)" fill="#823695"/>
    <path id="Path_3269" data-name="Path 3269" d="M7.11.3A5.868,5.868,0,0,1,3.945-.48a4.94,4.94,0,0,1-1.89-2.19A9.814,9.814,0,0,1,1.26-6l1.41-.45a13.966,13.966,0,0,0,.645,2.82A3.95,3.95,0,0,0,4.65-1.725a4.07,4.07,0,0,0,2.49.675,4.175,4.175,0,0,0,2.835-.9,3.8,3.8,0,0,0,1.035-3,5.16,5.16,0,0,0-.825-2.865A16.571,16.571,0,0,0,7.86-10.56L3.42-14.97A8.028,8.028,0,0,1,1.8-17.25a5.675,5.675,0,0,1-.51-2.34,4.624,4.624,0,0,1,1.485-3.69A5.667,5.667,0,0,1,6.63-24.57a7.3,7.3,0,0,1,2.22.315,4.372,4.372,0,0,1,1.725,1.02A4.787,4.787,0,0,1,11.73-21.36a10.864,10.864,0,0,1,.54,2.88l-1.38.33A9.686,9.686,0,0,0,10.32-21,3.42,3.42,0,0,0,9-22.7a4.31,4.31,0,0,0-2.34-.555,4.442,4.442,0,0,0-2.76.84,3.168,3.168,0,0,0-1.11,2.7,4.5,4.5,0,0,0,.375,1.8,6.4,6.4,0,0,0,1.4,1.89L8.94-11.7a18.242,18.242,0,0,1,2.535,3.075A6.436,6.436,0,0,1,12.54-5.04a5.927,5.927,0,0,1-.69,3.015A4.237,4.237,0,0,1,9.93-.27,6.637,6.637,0,0,1,7.11.3ZM15.87,0V-24.3h5.31a6.6,6.6,0,0,1,3.78.93,4.882,4.882,0,0,1,1.89,2.52,10.96,10.96,0,0,1,.54,3.54V-7.23a11.788,11.788,0,0,1-.54,3.705,5.041,5.041,0,0,1-1.845,2.58A6.182,6.182,0,0,1,21.33,0Zm1.62-1.29h3.75a4.372,4.372,0,0,0,2.94-.84,3.986,3.986,0,0,0,1.26-2.235,14.488,14.488,0,0,0,.3-3.045v-9.78a11.641,11.641,0,0,0-.36-3.075,3.523,3.523,0,0,0-1.35-2.01,4.875,4.875,0,0,0-2.85-.705H17.49ZM41.94.33a5.41,5.41,0,0,1-2.955-.72,4.123,4.123,0,0,1-1.635-2A8.1,8.1,0,0,1,36.84-5.4v-.45h1.5v.48a7.528,7.528,0,0,0,.39,2.4,2.888,2.888,0,0,0,1.155,1.5,3.747,3.747,0,0,0,2.055.51,4.379,4.379,0,0,0,2.04-.465A3.228,3.228,0,0,0,45.4-3.09a8.616,8.616,0,0,0,.525-3.36,8.044,8.044,0,0,0-.87-3.975A3.238,3.238,0,0,0,42.03-12h-.69v-1.41h.69a3.444,3.444,0,0,0,3.015-1.245A6.91,6.91,0,0,0,45.93-18.6a6.428,6.428,0,0,0-.8-3.36A3.034,3.034,0,0,0,42.3-23.28a3.953,3.953,0,0,0-2.94,1.005,4.852,4.852,0,0,0-1.02,3.4v.36h-1.5v-.39a8.008,8.008,0,0,1,.51-2.985,3.937,3.937,0,0,1,1.71-1.98,6.313,6.313,0,0,1,3.21-.7,5.288,5.288,0,0,1,3.03.8,4.684,4.684,0,0,1,1.725,2.145,7.9,7.9,0,0,1,.555,3.03,7.4,7.4,0,0,1-.99,4.2,3.9,3.9,0,0,1-2.46,1.74,3.861,3.861,0,0,1,1.575.84A4.971,4.971,0,0,1,47.04-9.87a8.9,8.9,0,0,1,.54,3.39,10.142,10.142,0,0,1-.57,3.525A4.978,4.978,0,0,1,45.21-.54,5.553,5.553,0,0,1,41.94.33ZM53.52,0l4.95-22.98H50.61V-24.3h9.51v.81L55.08,0ZM67.7,1.911a1.632,1.632,0,0,1-.962-.383,2.162,2.162,0,0,1-.585-.891,5.986,5.986,0,0,1-.306-1.32,15.963,15.963,0,0,1-.117-1.684q-.02-.923-.02-1.963t.02-1.989a16.489,16.489,0,0,1,.117-1.709,6.118,6.118,0,0,1,.306-1.339,2.056,2.056,0,0,1,.585-.884A1.551,1.551,0,0,1,67.7-10.6v.507a1.014,1.014,0,0,0-.767.526,3.454,3.454,0,0,0-.39,1.235,13.91,13.91,0,0,0-.137,1.794q-.02,1.021-.02,2.2t.02,2.2a13.74,13.74,0,0,0,.137,1.788A3.54,3.54,0,0,0,66.929.891a1,1,0,0,0,.773.526ZM68.938,0V-7.514h.689v.806a2.891,2.891,0,0,1,.806-.67,1.972,1.972,0,0,1,.975-.253,1.138,1.138,0,0,1,.6.162,1.1,1.1,0,0,1,.423.52,2.427,2.427,0,0,1,.156.955V0H71.9V-5.915a1.48,1.48,0,0,0-.215-.936.727.727,0,0,0-.578-.247,1.482,1.482,0,0,0-.761.227,3.1,3.1,0,0,0-.721.6V0Zm5.07-5.863v-.572h3.809v.572Zm0,2.119v-.585h3.809v.585ZM82.536,0V-3.237h-3.25V-3.9l3.133-6.63h.806v6.656h1.222v.637H83.225V0ZM80.014-3.874h2.522V-9.516ZM88.152.143a2.344,2.344,0,0,1-1.281-.312,1.787,1.787,0,0,1-.708-.865,3.509,3.509,0,0,1-.221-1.307v-.195h.65v.208a3.262,3.262,0,0,0,.169,1.04,1.252,1.252,0,0,0,.5.65,1.624,1.624,0,0,0,.891.221,1.9,1.9,0,0,0,.884-.2,1.4,1.4,0,0,0,.618-.722A3.734,3.734,0,0,0,89.881-2.8,3.486,3.486,0,0,0,89.5-4.518,1.4,1.4,0,0,0,88.191-5.2h-.3v-.611h.3a1.493,1.493,0,0,0,1.306-.54,2.994,2.994,0,0,0,.383-1.709,2.786,2.786,0,0,0-.344-1.456,1.315,1.315,0,0,0-1.229-.572,1.713,1.713,0,0,0-1.274.436,2.1,2.1,0,0,0-.442,1.476v.156h-.65V-8.19a3.47,3.47,0,0,1,.221-1.293,1.706,1.706,0,0,1,.741-.858,2.736,2.736,0,0,1,1.391-.306,2.291,2.291,0,0,1,1.313.345,2.03,2.03,0,0,1,.747.929A3.425,3.425,0,0,1,90.6-8.06a3.208,3.208,0,0,1-.429,1.82,1.691,1.691,0,0,1-1.066.754,1.673,1.673,0,0,1,.683.364,2.154,2.154,0,0,1,.578.845A3.859,3.859,0,0,1,90.6-2.808a4.395,4.395,0,0,1-.247,1.528,2.157,2.157,0,0,1-.78,1.047A2.406,2.406,0,0,1,88.152.143Zm3.705,1.768V1.417a1.014,1.014,0,0,0,.767-.526,3.454,3.454,0,0,0,.39-1.235,13.91,13.91,0,0,0,.137-1.794q.02-1.02.02-2.2t-.02-2.2a13.74,13.74,0,0,0-.137-1.787,3.445,3.445,0,0,0-.39-1.229,1.014,1.014,0,0,0-.767-.526V-10.6a1.551,1.551,0,0,1,.962.345,2.1,2.1,0,0,1,.591.884,5.856,5.856,0,0,1,.312,1.333,16.273,16.273,0,0,1,.117,1.7q.02.936.02,1.989t-.02,1.963a16.178,16.178,0,0,1-.117,1.69A5.741,5.741,0,0,1,93.41.637a2.215,2.215,0,0,1-.591.891A1.632,1.632,0,0,1,91.857,1.911Z" transform="translate(1430 870)" fill="#fff"/>
    <path id="Path_3223" data-name="Path 3223" d="M.576,0l3.06-14.58H4.77L7.848,0h-.99L6.1-4.032H2.322L1.548,0Zm1.89-4.752h3.51l-1.764-8.64ZM12.024.162A2.38,2.38,0,0,1,10.3-.387a2.685,2.685,0,0,1-.729-1.467A11.253,11.253,0,0,1,9.4-3.906V-6.354A10.392,10.392,0,0,1,9.63-8.811a2.255,2.255,0,0,1,.81-1.341,2.67,2.67,0,0,1,1.584-.414,2.561,2.561,0,0,1,1.629.441,2.113,2.113,0,0,1,.729,1.206,7.524,7.524,0,0,1,.18,1.719v.414h-.9V-7.2a5.952,5.952,0,0,0-.171-1.629,1.341,1.341,0,0,0-.531-.792,1.744,1.744,0,0,0-.936-.225,1.513,1.513,0,0,0-1.062.333,1.842,1.842,0,0,0-.486,1.071,12.3,12.3,0,0,0-.126,1.98v2.7a6.538,6.538,0,0,0,.333,2.448,1.331,1.331,0,0,0,1.359.756A1.565,1.565,0,0,0,13.1-.864a1.559,1.559,0,0,0,.459-.954,10.537,10.537,0,0,0,.108-1.674v-.4h.9v.378A9.8,9.8,0,0,1,14.4-1.638a2.3,2.3,0,0,1-.7,1.314A2.447,2.447,0,0,1,12.024.162ZM16.416,0V-14.58h.954v5.274a4.107,4.107,0,0,1,1.134-.918,2.786,2.786,0,0,1,1.35-.342,1.575,1.575,0,0,1,.837.225,1.52,1.52,0,0,1,.585.72A3.361,3.361,0,0,1,21.492-8.3V0H20.52V-8.19a2.1,2.1,0,0,0-.288-1.3.98.98,0,0,0-.792-.342,2.1,2.1,0,0,0-1.062.315,4.2,4.2,0,0,0-1.008.837V0Zm7.236,0V-10.4h.972V0Zm0-11.772v-1.656h.972v1.656ZM29.448.162a2.864,2.864,0,0,1-1.422-.333,2.135,2.135,0,0,1-.909-1.206A7.6,7.6,0,0,1,26.8-3.852V-6.624a7.3,7.3,0,0,1,.324-2.484,2.023,2.023,0,0,1,.927-1.152,3.084,3.084,0,0,1,1.413-.306,2.517,2.517,0,0,1,1.53.414,2.285,2.285,0,0,1,.792,1.323,9.966,9.966,0,0,1,.234,2.4v.99H27.756V-3.78a8.62,8.62,0,0,0,.171,1.944,1.7,1.7,0,0,0,.549.99,1.559,1.559,0,0,0,.972.288A2.378,2.378,0,0,0,30.2-.684a1.153,1.153,0,0,0,.63-.594,3.208,3.208,0,0,0,.252-1.458V-3.51h.936v.684a3.844,3.844,0,0,1-.549,2.16A2.253,2.253,0,0,1,29.448.162ZM27.756-6.012h3.33v-.81a11.288,11.288,0,0,0-.1-1.611,1.9,1.9,0,0,0-.441-1.044,1.409,1.409,0,0,0-1.08-.369A1.779,1.779,0,0,0,28.5-9.6a1.462,1.462,0,0,0-.567.9,7.622,7.622,0,0,0-.18,1.9ZM35.712,0,33.318-10.4h.972l1.944,9.2,1.908-9.2h.918L36.774,0Zm7.344.162a2.864,2.864,0,0,1-1.422-.333,2.135,2.135,0,0,1-.909-1.206,7.6,7.6,0,0,1-.315-2.475V-6.624a7.3,7.3,0,0,1,.324-2.484,2.023,2.023,0,0,1,.927-1.152,3.084,3.084,0,0,1,1.413-.306,2.517,2.517,0,0,1,1.53.414A2.285,2.285,0,0,1,45.4-8.829a9.966,9.966,0,0,1,.234,2.4v.99H41.364V-3.78a8.62,8.62,0,0,0,.171,1.944,1.7,1.7,0,0,0,.549.99,1.559,1.559,0,0,0,.972.288,2.378,2.378,0,0,0,.756-.126,1.153,1.153,0,0,0,.63-.594,3.208,3.208,0,0,0,.252-1.458V-3.51h.936v.684a3.844,3.844,0,0,1-.549,2.16A2.253,2.253,0,0,1,43.056.162ZM41.364-6.012h3.33v-.81a11.288,11.288,0,0,0-.1-1.611,1.9,1.9,0,0,0-.441-1.044,1.409,1.409,0,0,0-1.08-.369,1.779,1.779,0,0,0-.963.243,1.462,1.462,0,0,0-.567.9,7.622,7.622,0,0,0-.18,1.9ZM49.86.162a1.968,1.968,0,0,1-1.9-1.035,7.7,7.7,0,0,1-.549-3.393V-6.12a12.722,12.722,0,0,1,.2-2.457,2.768,2.768,0,0,1,.72-1.485,2.038,2.038,0,0,1,1.476-.5,2.073,2.073,0,0,1,1.134.3,3.043,3.043,0,0,1,.756.657V-14.58h.954V0H51.7V-.792a3.519,3.519,0,0,1-.747.648A1.917,1.917,0,0,1,49.86.162Zm.126-.738a1.81,1.81,0,0,0,.963-.27,3.316,3.316,0,0,0,.747-.612v-7.47a5.332,5.332,0,0,0-.729-.594,1.711,1.711,0,0,0-1-.306,1.241,1.241,0,0,0-1.3.828,8.279,8.279,0,0,0-.306,2.646v2.16A12.818,12.818,0,0,0,48.5-2.133a2.266,2.266,0,0,0,.486,1.179A1.3,1.3,0,0,0,49.986-.576ZM61.362.18a3.521,3.521,0,0,1-1.9-.468A2.964,2.964,0,0,1,58.329-1.6a5.889,5.889,0,0,1-.477-2l.846-.27a8.379,8.379,0,0,0,.387,1.692,2.37,2.37,0,0,0,.8,1.143,2.442,2.442,0,0,0,1.494.4,2.5,2.5,0,0,0,1.7-.54,2.277,2.277,0,0,0,.621-1.8,3.1,3.1,0,0,0-.495-1.719,9.942,9.942,0,0,0-1.4-1.647L59.148-8.982a4.817,4.817,0,0,1-.972-1.368,3.4,3.4,0,0,1-.306-1.4,2.774,2.774,0,0,1,.891-2.214,3.4,3.4,0,0,1,2.313-.774,4.382,4.382,0,0,1,1.332.189,2.623,2.623,0,0,1,1.035.612,2.872,2.872,0,0,1,.693,1.125,6.518,6.518,0,0,1,.324,1.728l-.828.2a5.812,5.812,0,0,0-.342-1.71,2.052,2.052,0,0,0-.792-1.017,2.586,2.586,0,0,0-1.4-.333,2.665,2.665,0,0,0-1.656.5,1.9,1.9,0,0,0-.666,1.62,2.7,2.7,0,0,0,.225,1.08,3.84,3.84,0,0,0,.837,1.134L62.46-7.02a10.945,10.945,0,0,1,1.521,1.845,3.861,3.861,0,0,1,.639,2.151,3.556,3.556,0,0,1-.414,1.809A2.542,2.542,0,0,1,63.054-.162,3.982,3.982,0,0,1,61.362.18ZM66.8,0V-14.58h3.186a3.96,3.96,0,0,1,2.268.558,2.929,2.929,0,0,1,1.134,1.512,6.576,6.576,0,0,1,.324,2.124v6.048a7.073,7.073,0,0,1-.324,2.223A3.024,3.024,0,0,1,72.279-.567,3.709,3.709,0,0,1,70.074,0Zm.972-.774h2.25a2.623,2.623,0,0,0,1.764-.5,2.392,2.392,0,0,0,.756-1.341,8.693,8.693,0,0,0,.18-1.827v-5.868a6.985,6.985,0,0,0-.216-1.845,2.114,2.114,0,0,0-.81-1.206,2.925,2.925,0,0,0-1.71-.423H67.77Z" transform="translate(1436 1042.798)" fill="#63666b"/>
    <path id="Path_3253" data-name="Path 3253" d="M7.57-3.422a3.771,3.771,0,0,1-.281,1.484A3.245,3.245,0,0,1,6.488-.8a3.586,3.586,0,0,1-1.254.734A4.9,4.9,0,0,1,3.6.2a4.511,4.511,0,0,1-2.32-.469V-1.633A4.266,4.266,0,0,0,3.617-.9a3.161,3.161,0,0,0,1.1-.18,2.439,2.439,0,0,0,.832-.5,2.141,2.141,0,0,0,.527-.773,2.618,2.618,0,0,0,.184-.992,2.125,2.125,0,0,0-.734-1.715A3.221,3.221,0,0,0,3.391-5.68q-.227,0-.477.008t-.5.02q-.25.012-.488.027t-.434.039L1.875-11.2h5.18v1.156H2.984L2.758-6.758q.25-.016.531-.027t.5-.012a5.028,5.028,0,0,1,1.594.234,3.377,3.377,0,0,1,1.191.668,2.8,2.8,0,0,1,.742,1.063A3.737,3.737,0,0,1,7.57-3.422Zm9.023-2.227a11.005,11.005,0,0,1-.254,2.492,5.807,5.807,0,0,1-.734,1.832,3.305,3.305,0,0,1-1.18,1.133A3.23,3.23,0,0,1,12.836.2a3.016,3.016,0,0,1-1.5-.371,3.152,3.152,0,0,1-1.113-1.082A5.484,5.484,0,0,1,9.531-3,10.8,10.8,0,0,1,9.3-5.375a12.222,12.222,0,0,1,.246-2.594,5.933,5.933,0,0,1,.723-1.887A3.216,3.216,0,0,1,11.449-11a3.323,3.323,0,0,1,1.621-.387Q16.594-11.391,16.594-5.648Zm-1.312.125q0-4.781-2.273-4.781-2.4,0-2.4,4.867Q10.609-.9,12.961-.9,15.281-.9,15.281-5.523Z" transform="translate(1244.268 680.85)" fill="#63666b"/>
    <path id="Path_3254" data-name="Path 3254" d="M6.641-11.2v7.4H8.078v1.172H6.641V0H5.375V-2.633H.109V-3.742q.734-.828,1.484-1.77t1.434-1.91q.684-.969,1.266-1.934a17.671,17.671,0,0,0,.98-1.848ZM1.555-3.8h3.82V-9.289Q4.789-8.266,4.266-7.461T3.27-6q-.473.656-.9,1.188T1.555-3.8ZM16.594-5.648a11.005,11.005,0,0,1-.254,2.492,5.807,5.807,0,0,1-.734,1.832,3.305,3.305,0,0,1-1.18,1.133A3.23,3.23,0,0,1,12.836.2a3.016,3.016,0,0,1-1.5-.371,3.152,3.152,0,0,1-1.113-1.082A5.484,5.484,0,0,1,9.531-3,10.8,10.8,0,0,1,9.3-5.375a12.222,12.222,0,0,1,.246-2.594,5.933,5.933,0,0,1,.723-1.887A3.216,3.216,0,0,1,11.449-11a3.323,3.323,0,0,1,1.621-.387Q16.594-11.391,16.594-5.648Zm-1.312.125q0-4.781-2.273-4.781-2.4,0-2.4,4.867Q10.609-.9,12.961-.9,15.281-.9,15.281-5.523Z" transform="translate(1244.268 747.789)" fill="#63666b"/>
    <path id="Path_3255" data-name="Path 3255" d="M7.445-3.172A3.266,3.266,0,0,1,7.16-1.793a3.045,3.045,0,0,1-.8,1.063,3.714,3.714,0,0,1-1.246.684A5.04,5.04,0,0,1,3.508.2,4.654,4.654,0,0,1,.961-.414V-1.789A4.081,4.081,0,0,0,3.555-.9a3.525,3.525,0,0,0,1.059-.148,2.374,2.374,0,0,0,.813-.43,1.909,1.909,0,0,0,.523-.68,2.123,2.123,0,0,0,.184-.9q0-2.2-3.125-2.2h-.93V-6.336h.883q2.766,0,2.766-2.062,0-1.906-2.109-1.906a3.592,3.592,0,0,0-2.227.8V-10.75a4.868,4.868,0,0,1,2.547-.641,3.913,3.913,0,0,1,1.273.2,2.918,2.918,0,0,1,.977.547,2.423,2.423,0,0,1,.629.844,2.6,2.6,0,0,1,.223,1.086A2.735,2.735,0,0,1,4.8-5.875v.031a3.534,3.534,0,0,1,1.055.277,2.814,2.814,0,0,1,.836.559,2.49,2.49,0,0,1,.551.809A2.582,2.582,0,0,1,7.445-3.172Zm9.148-2.477a11.005,11.005,0,0,1-.254,2.492,5.807,5.807,0,0,1-.734,1.832,3.305,3.305,0,0,1-1.18,1.133A3.23,3.23,0,0,1,12.836.2a3.016,3.016,0,0,1-1.5-.371,3.152,3.152,0,0,1-1.113-1.082A5.484,5.484,0,0,1,9.531-3,10.8,10.8,0,0,1,9.3-5.375a12.222,12.222,0,0,1,.246-2.594,5.933,5.933,0,0,1,.723-1.887A3.216,3.216,0,0,1,11.449-11a3.323,3.323,0,0,1,1.621-.387Q16.594-11.391,16.594-5.648Zm-1.312.125q0-4.781-2.273-4.781-2.4,0-2.4,4.867Q10.609-.9,12.961-.9,15.281-.9,15.281-5.523Z" transform="translate(1244.268 814.725)" fill="#63666b"/>
    <path id="Path_3256" data-name="Path 3256" d="M6.031-8.266a2.316,2.316,0,0,0-.16-.9A1.78,1.78,0,0,0,5.434-9.8a1.793,1.793,0,0,0-.652-.379,2.555,2.555,0,0,0-.812-.125,2.688,2.688,0,0,0-.734.1,3.57,3.57,0,0,0-.7.281,4.3,4.3,0,0,0-.656.43,4.74,4.74,0,0,0-.59.555v-1.375a3.831,3.831,0,0,1,1.207-.8,4.25,4.25,0,0,1,1.629-.277,3.932,3.932,0,0,1,1.273.2,2.92,2.92,0,0,1,1.016.582,2.691,2.691,0,0,1,.676.945,3.188,3.188,0,0,1,.246,1.289,4.42,4.42,0,0,1-.152,1.2,3.721,3.721,0,0,1-.461,1.016,4.9,4.9,0,0,1-.777.914,11.011,11.011,0,0,1-1.1.891q-.789.563-1.3.961a5.75,5.75,0,0,0-.812.746,2.165,2.165,0,0,0-.422.7,2.43,2.43,0,0,0-.121.8H7.766V0H.852V-.555A4.622,4.622,0,0,1,1.008-1.82a3.286,3.286,0,0,1,.516-1.039,5.767,5.767,0,0,1,.941-.984q.582-.492,1.426-1.109a9.014,9.014,0,0,0,1.02-.836,4.346,4.346,0,0,0,.66-.8,2.862,2.862,0,0,0,.355-.809A3.486,3.486,0,0,0,6.031-8.266ZM16.594-5.648a11.005,11.005,0,0,1-.254,2.492,5.807,5.807,0,0,1-.734,1.832,3.305,3.305,0,0,1-1.18,1.133A3.23,3.23,0,0,1,12.836.2a3.016,3.016,0,0,1-1.5-.371,3.152,3.152,0,0,1-1.113-1.082A5.484,5.484,0,0,1,9.531-3,10.8,10.8,0,0,1,9.3-5.375a12.222,12.222,0,0,1,.246-2.594,5.933,5.933,0,0,1,.723-1.887A3.216,3.216,0,0,1,11.449-11a3.323,3.323,0,0,1,1.621-.387Q16.594-11.391,16.594-5.648Zm-1.312.125q0-4.781-2.273-4.781-2.4,0-2.4,4.867Q10.609-.9,12.961-.9,15.281-.9,15.281-5.523Z" transform="translate(1244.268 881.664)" fill="#63666b"/>
    <path id="Path_3257" data-name="Path 3257" d="M5.656,0H4.375V-9.68a2.966,2.966,0,0,1-.434.34,7.068,7.068,0,0,1-.641.379q-.355.188-.75.352a5.451,5.451,0,0,1-.77.258v-1.3a7.448,7.448,0,0,0,.895-.316q.473-.2.93-.445t.863-.516a6.854,6.854,0,0,0,.7-.527h.484ZM16.594-5.648a11.005,11.005,0,0,1-.254,2.492,5.807,5.807,0,0,1-.734,1.832,3.305,3.305,0,0,1-1.18,1.133A3.23,3.23,0,0,1,12.836.2a3.016,3.016,0,0,1-1.5-.371,3.152,3.152,0,0,1-1.113-1.082A5.484,5.484,0,0,1,9.531-3,10.8,10.8,0,0,1,9.3-5.375a12.222,12.222,0,0,1,.246-2.594,5.933,5.933,0,0,1,.723-1.887A3.216,3.216,0,0,1,11.449-11a3.323,3.323,0,0,1,1.621-.387Q16.594-11.391,16.594-5.648Zm-1.312.125q0-4.781-2.273-4.781-2.4,0-2.4,4.867Q10.609-.9,12.961-.9,15.281-.9,15.281-5.523Z" transform="translate(1244.268 948.599)" fill="#63666b"/>
    <path id="Path_3258" data-name="Path 3258" d="M7.969-5.648a11.005,11.005,0,0,1-.254,2.492A5.807,5.807,0,0,1,6.98-1.324,3.305,3.305,0,0,1,5.8-.191,3.23,3.23,0,0,1,4.211.2a3.016,3.016,0,0,1-1.5-.371A3.152,3.152,0,0,1,1.594-1.258,5.484,5.484,0,0,1,.906-3,10.8,10.8,0,0,1,.672-5.375,12.222,12.222,0,0,1,.918-7.969a5.933,5.933,0,0,1,.723-1.887A3.216,3.216,0,0,1,2.824-11a3.323,3.323,0,0,1,1.621-.387Q7.969-11.391,7.969-5.648Zm-1.312.125q0-4.781-2.273-4.781-2.4,0-2.4,4.867Q1.984-.9,4.336-.9,6.656-.9,6.656-5.523Z" transform="translate(1253.173 1012.854)" fill="#63666b"/>
    <path id="Path_3259" data-name="Path 3259" d="M7.891-10.461q-.258.445-.621,1.109T6.5-7.859q-.406.828-.828,1.781T4.883-4.109q-.367,1.016-.645,2.059A15.315,15.315,0,0,0,3.836,0H2.461a15.579,15.579,0,0,1,.434-2.043q.293-1.043.664-2.047t.785-1.934q.414-.93.8-1.711t.715-1.379q.324-.6.52-.934H.766V-11.2H7.891Zm8.7,4.813a11.005,11.005,0,0,1-.254,2.492,5.807,5.807,0,0,1-.734,1.832,3.305,3.305,0,0,1-1.18,1.133A3.23,3.23,0,0,1,12.836.2a3.016,3.016,0,0,1-1.5-.371,3.152,3.152,0,0,1-1.113-1.082A5.484,5.484,0,0,1,9.531-3,10.8,10.8,0,0,1,9.3-5.375a12.222,12.222,0,0,1,.246-2.594,5.933,5.933,0,0,1,.723-1.887A3.216,3.216,0,0,1,11.449-11a3.323,3.323,0,0,1,1.621-.387Q16.594-11.391,16.594-5.648Zm-1.312.125q0-4.781-2.273-4.781-2.4,0-2.4,4.867Q10.609-.9,12.961-.9,15.281-.9,15.281-5.523Z" transform="translate(1244.268 542.059)" fill="#63666b"/>
    <path id="Path_3260" data-name="Path 3260" d="M7.984-3.555a4.15,4.15,0,0,1-.266,1.508A3.624,3.624,0,0,1,6.984-.859a3.281,3.281,0,0,1-1.117.777A3.538,3.538,0,0,1,4.461.2,3.2,3.2,0,0,1,2.949-.156,3.2,3.2,0,0,1,1.816-1.168a4.853,4.853,0,0,1-.707-1.613A8.74,8.74,0,0,1,.867-4.93a10.1,10.1,0,0,1,.324-2.652,6.444,6.444,0,0,1,.922-2.039A4.25,4.25,0,0,1,3.555-10.93a3.862,3.862,0,0,1,1.883-.461,4.535,4.535,0,0,1,1.859.32v1.211A3.949,3.949,0,0,0,5.469-10.3a2.724,2.724,0,0,0-1.352.336,3.1,3.1,0,0,0-1.031.949,4.63,4.63,0,0,0-.66,1.48,7.511,7.511,0,0,0-.23,1.93h.031a2.69,2.69,0,0,1,2.555-1.4,3.363,3.363,0,0,1,1.324.25,2.859,2.859,0,0,1,1.008.707,3.183,3.183,0,0,1,.645,1.09A4.148,4.148,0,0,1,7.984-3.555Zm-1.312.164a3.486,3.486,0,0,0-.148-1.055,2.288,2.288,0,0,0-.426-.8,1.836,1.836,0,0,0-.684-.5,2.3,2.3,0,0,0-.922-.176,2.158,2.158,0,0,0-.883.18,2.2,2.2,0,0,0-.7.488,2.262,2.262,0,0,0-.465.719,2.276,2.276,0,0,0-.168.871,3.475,3.475,0,0,0,.164,1.082A2.8,2.8,0,0,0,2.9-1.7a2.192,2.192,0,0,0,.707.59,1.931,1.931,0,0,0,.91.215A2.084,2.084,0,0,0,5.4-1.082a1.97,1.97,0,0,0,.68-.512,2.369,2.369,0,0,0,.438-.785A3.112,3.112,0,0,0,6.672-3.391Zm9.922-2.258a11.005,11.005,0,0,1-.254,2.492,5.807,5.807,0,0,1-.734,1.832,3.305,3.305,0,0,1-1.18,1.133A3.23,3.23,0,0,1,12.836.2a3.016,3.016,0,0,1-1.5-.371,3.152,3.152,0,0,1-1.113-1.082A5.484,5.484,0,0,1,9.531-3,10.8,10.8,0,0,1,9.3-5.375a12.222,12.222,0,0,1,.246-2.594,5.933,5.933,0,0,1,.723-1.887A3.216,3.216,0,0,1,11.449-11a3.323,3.323,0,0,1,1.621-.387Q16.594-11.391,16.594-5.648Zm-1.312.125q0-4.781-2.273-4.781-2.4,0-2.4,4.867Q10.609-.9,12.961-.9,15.281-.9,15.281-5.523Z" transform="translate(1244.268 608.998)" fill="#63666b"/>
    <path id="Path_3261" data-name="Path 3261" d="M0,0H9.817" transform="translate(1276 878.979)" fill="none" stroke="#63666b" stroke-width="0.679"/>
    <path id="Path_3262" data-name="Path 3262" d="M0,0H9.817" transform="translate(1276 943.711)" fill="none" stroke="#63666b" stroke-width="0.679"/>
    <path id="Path_3263" data-name="Path 3263" d="M0,0H9.817" transform="translate(1276 742.385)" fill="none" stroke="#63666b" stroke-width="0.679"/>
    <path id="Path_3264" data-name="Path 3264" d="M0,0H9.817" transform="translate(1276 809.031)" fill="none" stroke="#63666b" stroke-width="0.679"/>
    <path id="Path_3265" data-name="Path 3265" d="M0,0H9.817" transform="translate(1276 535.767)" fill="none" stroke="#63666b" stroke-width="0.679"/>
    <path id="Path_3266" data-name="Path 3266" d="M0,0H9.817" transform="translate(1276 601.366)" fill="none" stroke="#63666b" stroke-width="0.679"/>
    <path id="Path_3267" data-name="Path 3267" d="M0,0H9.817" transform="translate(1276 674.198)" fill="none" stroke="#63666b" stroke-width="0.679"/>
    <path id="Path_3225" data-name="Path 3225" d="M0,484.056V0" transform="translate(1285.5 535.769)" fill="none" stroke="#63666b" stroke-width="0.679"/>
    <path id="Path_3271" data-name="Path 3271" d="M0,0V12.515" transform="translate(1677.953 1009.378)" fill="none" stroke="#63666b" stroke-width="0.679"/>
    <path id="Path_2588-2" data-name="Path 2588" d="M0,0H402.309" transform="translate(1275.691 1009.648)" fill="none" stroke="#63666b" stroke-width="0.679"/>
    <path id="Path_3268" data-name="Path 3268" d="M5.04-14.04q-.64,1.02-1.13,1.98a15.013,15.013,0,0,0-.83,1.95,12.291,12.291,0,0,0-.51,2.05,14.552,14.552,0,0,0-.17,2.3,14.173,14.173,0,0,0,.17,2.28,12.889,12.889,0,0,0,.49,2,13.708,13.708,0,0,0,.8,1.9q.48.94,1.1,1.98L3.9,3.2A15.074,15.074,0,0,1,1.82-1a15.571,15.571,0,0,1-.74-4.76,15.578,15.578,0,0,1,.73-4.66,14.509,14.509,0,0,1,2.17-4.3ZM18.46-2.24a5.486,5.486,0,0,1-.89,1.02,5.628,5.628,0,0,1-1.21.83,6.9,6.9,0,0,1-1.47.55,6.782,6.782,0,0,1-1.67.2A7.571,7.571,0,0,1,10.29-.2,7.137,7.137,0,0,1,7.95-1.75,7.111,7.111,0,0,1,6.4-4.1a7.752,7.752,0,0,1-.56-2.98,7.752,7.752,0,0,1,.56-2.98,7.111,7.111,0,0,1,1.55-2.35,7.137,7.137,0,0,1,2.34-1.55,7.571,7.571,0,0,1,2.93-.56,7.157,7.157,0,0,1,2.64.52,5.324,5.324,0,0,1,2.26,1.72l-1.26.94a3.431,3.431,0,0,0-.6-.68,4.367,4.367,0,0,0-.87-.6,5.4,5.4,0,0,0-1.05-.42,4.06,4.06,0,0,0-1.12-.16,5.742,5.742,0,0,0-2.44.5,5.539,5.539,0,0,0-1.83,1.34A5.9,5.9,0,0,0,7.8-9.41a6.82,6.82,0,0,0-.4,2.33,6.82,6.82,0,0,0,.4,2.33A5.9,5.9,0,0,0,8.95-2.8a5.539,5.539,0,0,0,1.83,1.34,5.742,5.742,0,0,0,2.44.5,6.193,6.193,0,0,0,1.11-.1,4.61,4.61,0,0,0,1.08-.34,4.079,4.079,0,0,0,1-.65,4.824,4.824,0,0,0,.87-1.03ZM22.08-7.9h2.56a5.759,5.759,0,0,0,1.63-.2,3.028,3.028,0,0,0,1.07-.53,1.934,1.934,0,0,0,.58-.78,2.588,2.588,0,0,0,.18-.97,2.534,2.534,0,0,0-.18-.95,2.01,2.01,0,0,0-.58-.79,2.821,2.821,0,0,0-1.07-.53,6.046,6.046,0,0,0-1.63-.19H22.08Zm0,7.9H20.64V-14.16H25a5.552,5.552,0,0,1,3.41.94,3.326,3.326,0,0,1,1.25,2.84,3.539,3.539,0,0,1-.93,2.49,3.994,3.994,0,0,1-2.69,1.17L30.12,0H28.36L24.48-6.58h-2.4ZM36.92-6.66h4.5v1.2h-4.5v4.5h-1.2v-4.5h-4.5v-1.2h4.5v-4.5h1.2Zm8.7-1.24h2.32a5.759,5.759,0,0,0,1.63-.2,3.028,3.028,0,0,0,1.07-.53,1.934,1.934,0,0,0,.58-.78,2.588,2.588,0,0,0,.18-.97,2.534,2.534,0,0,0-.18-.95,2.01,2.01,0,0,0-.58-.79,2.821,2.821,0,0,0-1.07-.53,6.046,6.046,0,0,0-1.63-.19H45.62Zm-1.44-6.26H48.3a5.552,5.552,0,0,1,3.41.94,3.326,3.326,0,0,1,1.25,2.84,3.354,3.354,0,0,1-1.25,2.85,5.51,5.51,0,0,1-3.41.95H45.62V0H44.18ZM56.72-7.9h2.56a5.759,5.759,0,0,0,1.63-.2,3.028,3.028,0,0,0,1.07-.53,1.934,1.934,0,0,0,.58-.78,2.588,2.588,0,0,0,.18-.97,2.534,2.534,0,0,0-.18-.95,2.01,2.01,0,0,0-.58-.79,2.821,2.821,0,0,0-1.07-.53,6.046,6.046,0,0,0-1.63-.19H56.72Zm0,7.9H55.28V-14.16h4.36a5.552,5.552,0,0,1,3.41.94,3.326,3.326,0,0,1,1.25,2.84,3.539,3.539,0,0,1-.93,2.49,3.994,3.994,0,0,1-2.69,1.17L64.76,0H63L59.12-6.58h-2.4ZM71.56-6.66h4.5v1.2h-4.5v4.5h-1.2v-4.5h-4.5v-1.2h4.5v-4.5h1.2ZM85.2-11.82a3.107,3.107,0,0,0-2.74-1.38,4.091,4.091,0,0,0-1.1.15,3.029,3.029,0,0,0-.97.46,2.3,2.3,0,0,0-.69.8,2.419,2.419,0,0,0-.26,1.15,1.993,1.993,0,0,0,.54,1.49,4.273,4.273,0,0,0,1.34.87,14.871,14.871,0,0,0,1.75.61,8.035,8.035,0,0,1,1.75.72,4.172,4.172,0,0,1,1.34,1.19,3.363,3.363,0,0,1,.54,2.02,3.623,3.623,0,0,1-.41,1.73A3.978,3.978,0,0,1,85.21-.72a5.069,5.069,0,0,1-1.5.8,5.2,5.2,0,0,1-1.67.28,6.33,6.33,0,0,1-2.47-.49,4.7,4.7,0,0,1-1.99-1.61l1.32-.94a3.433,3.433,0,0,0,1.276,1.25,3.814,3.814,0,0,0,1.934.47,3.558,3.558,0,0,0,1.077-.17,3.1,3.1,0,0,0,.967-.5,2.764,2.764,0,0,0,.708-.81,2.148,2.148,0,0,0,.279-1.1,2.26,2.26,0,0,0-.31-1.23,2.673,2.673,0,0,0-.82-.82,5.186,5.186,0,0,0-1.16-.55q-.65-.22-1.34-.44t-1.34-.5a4.625,4.625,0,0,1-1.16-.71,3.18,3.18,0,0,1-.82-1.08,3.781,3.781,0,0,1-.31-1.63,3.849,3.849,0,0,1,.39-1.78,3.692,3.692,0,0,1,1.04-1.26,4.425,4.425,0,0,1,1.47-.74,5.95,5.95,0,0,1,1.68-.24,5.985,5.985,0,0,1,2.18.38,4.7,4.7,0,0,1,1.82,1.34Zm5.54,10.5h2.8a7.353,7.353,0,0,0,2.81-.49,5.814,5.814,0,0,0,1.98-1.3A5.181,5.181,0,0,0,99.5-4.95a6.106,6.106,0,0,0,.38-2.13,6.106,6.106,0,0,0-.38-2.13,5.181,5.181,0,0,0-1.17-1.84,5.814,5.814,0,0,0-1.98-1.3,7.353,7.353,0,0,0-2.81-.49h-2.8ZM89.3-14.16H94a8.4,8.4,0,0,1,2.65.44,7.31,7.31,0,0,1,2.4,1.33,6.742,6.742,0,0,1,1.73,2.22,6.868,6.868,0,0,1,.66,3.09,6.852,6.852,0,0,1-.66,3.1,6.771,6.771,0,0,1-1.73,2.21,7.309,7.309,0,0,1-2.4,1.33A8.4,8.4,0,0,1,94,0H89.3ZM102.24,2.52q.64-1.02,1.13-1.98a15.013,15.013,0,0,0,.83-1.95,12.291,12.291,0,0,0,.51-2.05,14.552,14.552,0,0,0,.17-2.3,14.173,14.173,0,0,0-.17-2.28,12.889,12.889,0,0,0-.49-2,13.708,13.708,0,0,0-.8-1.9q-.48-.94-1.1-1.98l1.06-.8a15.074,15.074,0,0,1,2.08,4.2,15.571,15.571,0,0,1,.74,4.76,15.578,15.578,0,0,1-.73,4.66,14.509,14.509,0,0,1-2.17,4.3Zm16.82-7.68v1.2h-10.2v-1.2Zm0-3v1.2h-10.2v-1.2Z" transform="translate(1389 706.336)" fill="#505257"/>
    <path id="Path_3270" data-name="Path 3270" d="M1.18-10.5a3.736,3.736,0,0,1,.37-1.71,3.475,3.475,0,0,1,1.02-1.22,4.481,4.481,0,0,1,1.51-.73,6.819,6.819,0,0,1,1.84-.24,6.819,6.819,0,0,1,1.84.24,4.371,4.371,0,0,1,1.5.73,3.622,3.622,0,0,1,1.02,1.22,3.654,3.654,0,0,1,.38,1.71,3.154,3.154,0,0,1-.63,1.98A3.369,3.369,0,0,1,8.26-7.36v.04a3.5,3.5,0,0,1,1.96,1.23,3.533,3.533,0,0,1,.68,2.21,3.812,3.812,0,0,1-.41,1.8A3.75,3.75,0,0,1,9.39-.79,4.967,4.967,0,0,1,7.8-.02,6.74,6.74,0,0,1,5.92.24,6.74,6.74,0,0,1,4.04-.02,4.967,4.967,0,0,1,2.45-.79a3.75,3.75,0,0,1-1.1-1.29,3.812,3.812,0,0,1-.41-1.8,3.533,3.533,0,0,1,.68-2.21A3.5,3.5,0,0,1,3.58-7.32v-.04A3.369,3.369,0,0,1,1.81-8.52,3.154,3.154,0,0,1,1.18-10.5Zm3,.42a1.493,1.493,0,0,0,.48,1.12,1.745,1.745,0,0,0,1.26.46,1.745,1.745,0,0,0,1.26-.46,1.493,1.493,0,0,0,.48-1.12,1.471,1.471,0,0,0-.48-1.1,1.745,1.745,0,0,0-1.26-.46,1.745,1.745,0,0,0-1.26.46A1.471,1.471,0,0,0,4.18-10.08ZM3.94-4.3a1.685,1.685,0,0,0,.54,1.26,1.989,1.989,0,0,0,1.44.52,1.989,1.989,0,0,0,1.44-.52A1.685,1.685,0,0,0,7.9-4.3a1.707,1.707,0,0,0-.54-1.28A1.989,1.989,0,0,0,5.92-6.1a1.989,1.989,0,0,0-1.44.52A1.707,1.707,0,0,0,3.94-4.3ZM12.5-7.08a14.675,14.675,0,0,1,.23-2.56A7.5,7.5,0,0,1,13.55-12a4.883,4.883,0,0,1,1.61-1.73,4.648,4.648,0,0,1,2.6-.67,4.648,4.648,0,0,1,2.6.67A4.883,4.883,0,0,1,21.97-12a7.5,7.5,0,0,1,.82,2.36,14.675,14.675,0,0,1,.23,2.56,14.675,14.675,0,0,1-.23,2.56,7.5,7.5,0,0,1-.82,2.36A4.883,4.883,0,0,1,20.36-.43a4.648,4.648,0,0,1-2.6.67,4.648,4.648,0,0,1-2.6-.67,4.883,4.883,0,0,1-1.61-1.73,7.5,7.5,0,0,1-.82-2.36A14.675,14.675,0,0,1,12.5-7.08Zm3,0q0,.56.05,1.34a6.549,6.549,0,0,0,.27,1.5,3.186,3.186,0,0,0,.67,1.22,1.621,1.621,0,0,0,1.27.5,1.627,1.627,0,0,0,1.26-.5,3.117,3.117,0,0,0,.68-1.22,6.549,6.549,0,0,0,.27-1.5q.05-.78.05-1.34t-.05-1.34a6.549,6.549,0,0,0-.27-1.5,3.117,3.117,0,0,0-.68-1.22,1.627,1.627,0,0,0-1.26-.5,1.621,1.621,0,0,0-1.27.5,3.186,3.186,0,0,0-.67,1.22,6.549,6.549,0,0,0-.27,1.5Q15.5-7.64,15.5-7.08ZM33.84-3.74a3.852,3.852,0,0,1,.31-1.54,4.088,4.088,0,0,1,.84-1.26,3.883,3.883,0,0,1,1.25-.85,3.852,3.852,0,0,1,1.54-.31,3.852,3.852,0,0,1,1.54.31,3.883,3.883,0,0,1,1.25.85,4.088,4.088,0,0,1,.84,1.26,3.852,3.852,0,0,1,.31,1.54,3.924,3.924,0,0,1-.31,1.55,4.056,4.056,0,0,1-.84,1.27,3.883,3.883,0,0,1-1.25.85,3.852,3.852,0,0,1-1.54.31,3.852,3.852,0,0,1-1.54-.31,3.883,3.883,0,0,1-1.25-.85,4.056,4.056,0,0,1-.84-1.27A3.924,3.924,0,0,1,33.84-3.74Zm5.84,0a1.869,1.869,0,0,0-.55-1.36,1.819,1.819,0,0,0-1.35-.56,1.819,1.819,0,0,0-1.35.56,1.869,1.869,0,0,0-.55,1.36,1.893,1.893,0,0,0,.55,1.38,1.819,1.819,0,0,0,1.35.56,1.819,1.819,0,0,0,1.35-.56A1.893,1.893,0,0,0,39.68-3.74Zm-15.9-6.7a3.852,3.852,0,0,1,.31-1.54,4.088,4.088,0,0,1,.84-1.26,3.883,3.883,0,0,1,1.25-.85,3.852,3.852,0,0,1,1.54-.31,3.852,3.852,0,0,1,1.54.31,3.883,3.883,0,0,1,1.25.85,4.088,4.088,0,0,1,.84,1.26,3.852,3.852,0,0,1,.31,1.54,3.852,3.852,0,0,1-.31,1.54,4.088,4.088,0,0,1-.84,1.26,3.883,3.883,0,0,1-1.25.85,3.852,3.852,0,0,1-1.54.31,3.852,3.852,0,0,1-1.54-.31,3.883,3.883,0,0,1-1.25-.85,4.088,4.088,0,0,1-.84-1.26A3.852,3.852,0,0,1,23.78-10.44Zm5.84,0a1.869,1.869,0,0,0-.55-1.36,1.819,1.819,0,0,0-1.35-.56,1.819,1.819,0,0,0-1.35.56,1.869,1.869,0,0,0-.55,1.36,1.869,1.869,0,0,0,.55,1.36,1.819,1.819,0,0,0,1.35.56,1.819,1.819,0,0,0,1.35-.56A1.869,1.869,0,0,0,29.62-10.44Zm6.36-4.36,1.68.94L29.4.64,27.88-.22Z" transform="translate(1509.845 706.336)" fill="#505257"/>
    <path id="Path_3230" data-name="Path 3230" d="M1.95,0V-21.06h4.6a5.72,5.72,0,0,1,3.276.806,4.231,4.231,0,0,1,1.638,2.184A9.5,9.5,0,0,1,11.934-15v8.736a10.216,10.216,0,0,1-.468,3.211,4.368,4.368,0,0,1-1.6,2.236A5.358,5.358,0,0,1,6.682,0Zm1.4-1.118H6.6a3.789,3.789,0,0,0,2.548-.728,3.455,3.455,0,0,0,1.092-1.937,12.557,12.557,0,0,0,.26-2.639V-14.9a10.089,10.089,0,0,0-.312-2.665,3.053,3.053,0,0,0-1.17-1.742,4.225,4.225,0,0,0-2.47-.611h-3.2ZM15.21,0V-21.06h1.4V0ZM24.6.26a5.086,5.086,0,0,1-2.743-.676,4.281,4.281,0,0,1-1.638-1.9A8.506,8.506,0,0,1,19.526-5.2l1.222-.39a12.1,12.1,0,0,0,.559,2.444A3.424,3.424,0,0,0,22.464-1.5a3.527,3.527,0,0,0,2.158.585,3.618,3.618,0,0,0,2.457-.78,3.289,3.289,0,0,0,.9-2.6,4.472,4.472,0,0,0-.715-2.483,14.361,14.361,0,0,0-2.015-2.379L21.4-12.974a6.957,6.957,0,0,1-1.4-1.976,4.918,4.918,0,0,1-.442-2.028,4.008,4.008,0,0,1,1.287-3.2,4.911,4.911,0,0,1,3.341-1.118,6.33,6.33,0,0,1,1.924.273,3.789,3.789,0,0,1,1.5.884,4.148,4.148,0,0,1,1,1.625,9.415,9.415,0,0,1,.468,2.5l-1.2.286a8.4,8.4,0,0,0-.494-2.47,2.964,2.964,0,0,0-1.144-1.469,3.736,3.736,0,0,0-2.028-.481,3.85,3.85,0,0,0-2.392.728,2.746,2.746,0,0,0-.962,2.34,3.9,3.9,0,0,0,.325,1.56,5.546,5.546,0,0,0,1.209,1.638l3.8,3.744a15.81,15.81,0,0,1,2.2,2.665A5.578,5.578,0,0,1,29.3-4.368a5.137,5.137,0,0,1-.6,2.613A3.672,3.672,0,0,1,27.04-.234,5.752,5.752,0,0,1,24.6.26ZM32.162,0V-21.06h7.28v1.144h-5.85v8.45H38.4v1.092h-4.81v9.256H39.52V0Zm9.724,0,4.42-21.06h1.638L52.39,0H50.96L49.868-5.824h-5.46L43.29,0Zm2.73-6.864h5.07l-2.548-12.48ZM59.358.26a5.086,5.086,0,0,1-2.743-.676,4.281,4.281,0,0,1-1.638-1.9A8.506,8.506,0,0,1,54.288-5.2l1.222-.39a12.1,12.1,0,0,0,.559,2.444A3.424,3.424,0,0,0,57.226-1.5a3.527,3.527,0,0,0,2.158.585,3.618,3.618,0,0,0,2.457-.78,3.289,3.289,0,0,0,.9-2.6,4.472,4.472,0,0,0-.715-2.483,14.361,14.361,0,0,0-2.015-2.379L56.16-12.974a6.957,6.957,0,0,1-1.4-1.976,4.918,4.918,0,0,1-.442-2.028,4.008,4.008,0,0,1,1.287-3.2,4.911,4.911,0,0,1,3.341-1.118,6.33,6.33,0,0,1,1.924.273,3.789,3.789,0,0,1,1.495.884,4.148,4.148,0,0,1,1,1.625,9.415,9.415,0,0,1,.468,2.5l-1.2.286a8.4,8.4,0,0,0-.494-2.47A2.964,2.964,0,0,0,61-19.669a3.736,3.736,0,0,0-2.028-.481,3.85,3.85,0,0,0-2.392.728,2.746,2.746,0,0,0-.962,2.34,3.9,3.9,0,0,0,.325,1.56,5.546,5.546,0,0,0,1.209,1.638l3.8,3.744a15.81,15.81,0,0,1,2.2,2.665,5.578,5.578,0,0,1,.923,3.107,5.137,5.137,0,0,1-.6,2.613A3.672,3.672,0,0,1,61.8-.234,5.752,5.752,0,0,1,59.358.26ZM66.924,0V-21.06H74.2v1.144h-5.85v8.45h4.81v1.092h-4.81v9.256h5.928V0ZM86.762.286a5.106,5.106,0,0,1-3.185-.858,4.35,4.35,0,0,1-1.521-2.3,11.473,11.473,0,0,1-.416-3.185V-15a10.87,10.87,0,0,1,.442-3.237,4.256,4.256,0,0,1,1.56-2.236,5.2,5.2,0,0,1,3.12-.819,4.97,4.97,0,0,1,2.886.728A3.943,3.943,0,0,1,91.13-18.5a10.012,10.012,0,0,1,.442,3.133V-14.3H90.22v-1.066a9.9,9.9,0,0,0-.286-2.561,2.926,2.926,0,0,0-1.04-1.625,3.466,3.466,0,0,0-2.132-.572,3.716,3.716,0,0,0-2.314.624,3.091,3.091,0,0,0-1.092,1.742,10.554,10.554,0,0,0-.286,2.6V-5.85a9.909,9.909,0,0,0,.312,2.665,3.085,3.085,0,0,0,1.118,1.7,3.735,3.735,0,0,0,2.262.6,3.4,3.4,0,0,0,2.158-.6,3,3,0,0,0,1.027-1.677,10.292,10.292,0,0,0,.273-2.509V-6.942h1.352V-5.9a11.264,11.264,0,0,1-.416,3.2A4.153,4.153,0,0,1,89.7-.507,4.758,4.758,0,0,1,86.762.286Zm12.792,0a5.358,5.358,0,0,1-3.185-.819A4.23,4.23,0,0,1,94.8-2.769a10.773,10.773,0,0,1-.442-3.211v-9.2a9.853,9.853,0,0,1,.468-3.172,4.169,4.169,0,0,1,1.6-2.158,5.456,5.456,0,0,1,3.133-.78,5.456,5.456,0,0,1,3.133.78,4.169,4.169,0,0,1,1.6,2.158,9.853,9.853,0,0,1,.468,3.172v9.23a10.643,10.643,0,0,1-.442,3.2,4.23,4.23,0,0,1-1.573,2.223A5.358,5.358,0,0,1,99.554.286Zm0-1.17a3.9,3.9,0,0,0,2.327-.6,3.052,3.052,0,0,0,1.131-1.677,9.067,9.067,0,0,0,.312-2.509v-9.724a8.927,8.927,0,0,0-.312-2.5,3.011,3.011,0,0,0-1.118-1.651,3.951,3.951,0,0,0-2.34-.585,3.962,3.962,0,0,0-2.327.585A2.986,2.986,0,0,0,96.1-17.888a8.926,8.926,0,0,0-.312,2.5v9.724A9.067,9.067,0,0,0,96.1-3.159a3.052,3.052,0,0,0,1.131,1.677A3.9,3.9,0,0,0,99.554-.884ZM108.082,0V-21.06H109.2l7.15,17.784V-21.06H117.6V0H116.48l-7.15-17.81V0Zm16.354,0V-19.916h-4.212V-21.06h9.724v1.144H125.84V0ZM132.6,0V-21.06h5.1a5.043,5.043,0,0,1,2.873.689,3.5,3.5,0,0,1,1.378,1.872,8.666,8.666,0,0,1,.377,2.639,9.878,9.878,0,0,1-.247,2.236,4.015,4.015,0,0,1-.91,1.807,3.19,3.19,0,0,1-1.937.949L142.61,0h-1.4L137.93-10.608H134V0ZM134-11.7h3.64a3.487,3.487,0,0,0,2.054-.507,2.618,2.618,0,0,0,.975-1.443,7.94,7.94,0,0,0,.273-2.21,5.7,5.7,0,0,0-.663-3.042,2.936,2.936,0,0,0-2.665-1.04H134ZM150.462.286a5.358,5.358,0,0,1-3.185-.819A4.23,4.23,0,0,1,145.7-2.769a10.773,10.773,0,0,1-.442-3.211v-9.2a9.853,9.853,0,0,1,.468-3.172,4.169,4.169,0,0,1,1.6-2.158,5.456,5.456,0,0,1,3.133-.78,5.456,5.456,0,0,1,3.133.78,4.169,4.169,0,0,1,1.6,2.158,9.853,9.853,0,0,1,.468,3.172v9.23a10.643,10.643,0,0,1-.442,3.2,4.23,4.23,0,0,1-1.573,2.223A5.358,5.358,0,0,1,150.462.286Zm0-1.17a3.9,3.9,0,0,0,2.327-.6,3.052,3.052,0,0,0,1.131-1.677,9.067,9.067,0,0,0,.312-2.509v-9.724a8.927,8.927,0,0,0-.312-2.5,3.011,3.011,0,0,0-1.118-1.651,3.951,3.951,0,0,0-2.34-.585,3.962,3.962,0,0,0-2.327.585A2.986,2.986,0,0,0,147-17.888a8.927,8.927,0,0,0-.312,2.5v9.724A9.067,9.067,0,0,0,147-3.159a3.052,3.052,0,0,0,1.131,1.677A3.9,3.9,0,0,0,150.462-.884ZM158.99,0V-21.06h1.4V-1.118h6.37V0ZM173.6,0V-21.06h5.1a5.043,5.043,0,0,1,2.873.689,3.5,3.5,0,0,1,1.378,1.872,8.666,8.666,0,0,1,.377,2.639,9.878,9.878,0,0,1-.247,2.236,4.015,4.015,0,0,1-.91,1.807,3.19,3.19,0,0,1-1.937.949L183.612,0h-1.4l-3.276-10.608h-3.926V0Zm1.4-11.7h3.64a3.487,3.487,0,0,0,2.054-.507,2.618,2.618,0,0,0,.975-1.443,7.94,7.94,0,0,0,.273-2.21,5.7,5.7,0,0,0-.663-3.042,2.936,2.936,0,0,0-2.665-1.04h-3.614ZM186.134,0l4.42-21.06h1.638L196.638,0h-1.43l-1.092-5.824h-5.46L187.538,0Zm2.73-6.864h5.07l-2.548-12.48ZM200.226,0V-19.916h-4.212V-21.06h9.724v1.144H201.63V0Zm8.138,0V-21.06h7.28v1.144h-5.85v8.45h4.81v1.092h-4.81v9.256h5.928V0Z" transform="translate(1366 684.357)" fill="#823695"/>
    <path id="Path_3228" data-name="Path 3228" d="M0,0H277.754V82.237H0Z" transform="translate(1340.5 641.379)" fill="none" stroke="#ff9e18" stroke-width="2"/>
  </g>
</svg>
