<svg xmlns="http://www.w3.org/2000/svg" xmlns:xlink="http://www.w3.org/1999/xlink" width="949" height="210" viewBox="0 0 949 210">
  <defs>
    <clipPath id="clip-path">
      <rect id="Rectangle_911" data-name="Rectangle 911" width="949" height="210" transform="translate(750 581)" fill="#fff"/>
    </clipPath>
    <clipPath id="clip-path-2">
      <rect id="Rectangle_747" data-name="Rectangle 747" width="1088.247" height="194.248" fill="none"/>
    </clipPath>
    <clipPath id="clip-path-3">
      <path id="Path_2815" data-name="Path 2815" d="M0,0H1088.247V194.248H0Z" fill="#823695"/>
    </clipPath>
  </defs>
  <g id="Mask_Group_7" data-name="Mask Group 7" transform="translate(-750 -581)" clip-path="url(#clip-path)">
    <g id="Group_1788" data-name="Group 1788">
      <g id="Group_1642" data-name="Group 1642" transform="translate(671 571.169)">
        <path id="Path_2762" data-name="Path 2762" d="M337.679,476.063H1425.926V281.815H337.679Z" transform="translate(-266.926 -281.815)" fill="none"/>
        <path id="Path_2811" data-name="Path 2811" d="M.7,0l3.74-17.82H5.83L9.592,0H8.382L7.458-4.928H2.838L1.892,0Zm2.31-5.808H7.3L5.148-16.368ZM15.774.22a4.3,4.3,0,0,1-2.321-.572,3.622,3.622,0,0,1-1.386-1.606A7.2,7.2,0,0,1,11.484-4.4l1.034-.33a10.242,10.242,0,0,0,.473,2.068,2.9,2.9,0,0,0,.979,1.4,2.984,2.984,0,0,0,1.826.5,3.062,3.062,0,0,0,2.079-.66,2.783,2.783,0,0,0,.759-2.2,3.784,3.784,0,0,0-.6-2.1,12.152,12.152,0,0,0-1.7-2.013l-3.256-3.234A5.887,5.887,0,0,1,11.88-12.65a4.161,4.161,0,0,1-.374-1.716,3.391,3.391,0,0,1,1.089-2.706,4.156,4.156,0,0,1,2.827-.946,5.356,5.356,0,0,1,1.628.231,3.206,3.206,0,0,1,1.265.748,3.51,3.51,0,0,1,.847,1.375,7.967,7.967,0,0,1,.4,2.112l-1.012.242a7.1,7.1,0,0,0-.418-2.09,2.508,2.508,0,0,0-.968-1.243,3.161,3.161,0,0,0-1.716-.407,3.258,3.258,0,0,0-2.024.616,2.323,2.323,0,0,0-.814,1.98,3.3,3.3,0,0,0,.275,1.32A4.693,4.693,0,0,0,13.9-11.748L17.116-8.58a13.377,13.377,0,0,1,1.859,2.255A4.719,4.719,0,0,1,19.756-3.7a4.346,4.346,0,0,1-.506,2.211A3.107,3.107,0,0,1,17.842-.2,4.867,4.867,0,0,1,15.774.22ZM24.97,0V-16.852H21.406v-.968h8.228v.968H26.158V0ZM35.486,0V-17.82h1.188V0ZM40,0V-17.82h.946l6.05,15.048V-17.82h1.056V0H47.1l-6.05-15.07V0ZM55.44.242a4.321,4.321,0,0,1-2.695-.726,3.681,3.681,0,0,1-1.287-1.947,9.708,9.708,0,0,1-.352-2.7v-7.568a9.2,9.2,0,0,1,.374-2.739,3.6,3.6,0,0,1,1.32-1.892,4.4,4.4,0,0,1,2.64-.693,4.205,4.205,0,0,1,2.442.616,3.337,3.337,0,0,1,1.254,1.749A8.472,8.472,0,0,1,59.51-13v.9H58.366V-13a8.373,8.373,0,0,0-.242-2.167,2.475,2.475,0,0,0-.88-1.375,2.933,2.933,0,0,0-1.8-.484,3.144,3.144,0,0,0-1.958.528,2.615,2.615,0,0,0-.924,1.474,8.93,8.93,0,0,0-.242,2.2V-4.95A8.384,8.384,0,0,0,52.58-2.7a2.61,2.61,0,0,0,.946,1.441,3.16,3.16,0,0,0,1.914.506,2.88,2.88,0,0,0,1.826-.506,2.54,2.54,0,0,0,.869-1.419A8.709,8.709,0,0,0,58.366-4.8V-5.874H59.51v.88a9.531,9.531,0,0,1-.352,2.706A3.514,3.514,0,0,1,57.926-.429,4.026,4.026,0,0,1,55.44.242ZM62.392,0V-17.82H66.7a4.267,4.267,0,0,1,2.431.583A2.958,2.958,0,0,1,70.3-15.653a7.332,7.332,0,0,1,.319,2.233,8.358,8.358,0,0,1-.209,1.892A3.4,3.4,0,0,1,69.641-10,2.7,2.7,0,0,1,68-9.2L70.862,0H69.674L66.9-8.976H63.58V0ZM63.58-9.9h3.08a2.95,2.95,0,0,0,1.738-.429,2.215,2.215,0,0,0,.825-1.221,6.718,6.718,0,0,0,.231-1.87,4.824,4.824,0,0,0-.561-2.574,2.485,2.485,0,0,0-2.255-.88H63.58ZM73.744,0V-17.82H79.9v.968h-4.95V-9.7h4.07v.924h-4.07V-.946H79.97V0Zm8.492,0,3.74-17.82h1.386L91.124,0h-1.21L88.99-4.928H84.37L83.424,0Zm2.31-5.808h4.29L86.68-16.368ZM97.306.22a4.3,4.3,0,0,1-2.321-.572A3.622,3.622,0,0,1,93.6-1.958,7.2,7.2,0,0,1,93.016-4.4l1.034-.33a10.242,10.242,0,0,0,.473,2.068,2.9,2.9,0,0,0,.979,1.4,2.984,2.984,0,0,0,1.826.5,3.062,3.062,0,0,0,2.079-.66,2.783,2.783,0,0,0,.759-2.2,3.784,3.784,0,0,0-.6-2.1,12.152,12.152,0,0,0-1.705-2.013L94.6-10.978a5.887,5.887,0,0,1-1.188-1.672,4.161,4.161,0,0,1-.374-1.716,3.391,3.391,0,0,1,1.089-2.706,4.156,4.156,0,0,1,2.827-.946,5.356,5.356,0,0,1,1.628.231,3.206,3.206,0,0,1,1.265.748,3.51,3.51,0,0,1,.847,1.375,7.967,7.967,0,0,1,.4,2.112l-1.012.242a7.1,7.1,0,0,0-.418-2.09,2.508,2.508,0,0,0-.968-1.243,3.161,3.161,0,0,0-1.716-.407,3.258,3.258,0,0,0-2.024.616,2.323,2.323,0,0,0-.814,1.98,3.3,3.3,0,0,0,.275,1.32,4.693,4.693,0,0,0,1.023,1.386L98.648-8.58a13.378,13.378,0,0,1,1.859,2.255,4.719,4.719,0,0,1,.781,2.629,4.346,4.346,0,0,1-.506,2.211A3.107,3.107,0,0,1,99.374-.2,4.867,4.867,0,0,1,97.306.22Zm6.71-.22V-17.82h6.16v.968h-4.95V-9.7h4.07v.924h-4.07V-.946h5.016V0Zm8.976,0V-17.82h3.894a4.84,4.84,0,0,1,2.772.682,3.58,3.58,0,0,1,1.386,1.848,8.037,8.037,0,0,1,.4,2.6V-5.3a8.645,8.645,0,0,1-.4,2.717,3.7,3.7,0,0,1-1.353,1.892A4.534,4.534,0,0,1,117,0Zm1.188-.946h2.75a3.206,3.206,0,0,0,2.156-.616A2.923,2.923,0,0,0,120.01-3.2a10.625,10.625,0,0,0,.22-2.233v-7.172a8.537,8.537,0,0,0-.264-2.255,2.583,2.583,0,0,0-.99-1.474,3.575,3.575,0,0,0-2.09-.517H114.18Z" transform="translate(306.982 173.045)" fill="#505257"/>
        <path id="Path_2814" data-name="Path 2814" d="M2.449,0,7.44-21.824H.651V-25.11H11.656v2.635L6.6,0ZM22.506,0l7.347-25.11h2.821L25.358,0ZM19.5-11.315a4.882,4.882,0,0,1-4.123-1.612,7.449,7.449,0,0,1-1.24-4.619V-19.1a7.285,7.285,0,0,1,1.209-4.588Q16.554-25.2,19.5-25.2t4.169,1.472a7.013,7.013,0,0,1,1.225,4.542v1.7a7.31,7.31,0,0,1-1.24,4.588Q22.413-11.315,19.5-11.315Zm0-2.852a1.47,1.47,0,0,0,1.178-.434,2.426,2.426,0,0,0,.5-1.224,11.578,11.578,0,0,0,.124-1.782v-1.457a8.073,8.073,0,0,0-.279-2.4q-.279-.852-1.519-.852-1.209,0-1.488.852a8.073,8.073,0,0,0-.279,2.4v1.488a11.274,11.274,0,0,0,.124,1.767,2.408,2.408,0,0,0,.5,1.209A1.429,1.429,0,0,0,19.5-14.167ZM35.65.093q-2.883,0-4.108-1.612a7.578,7.578,0,0,1-1.224-4.65V-7.688a7.425,7.425,0,0,1,1.194-4.6q1.193-1.534,4.139-1.534,2.976,0,4.185,1.488a7.146,7.146,0,0,1,1.209,4.557v1.674A7.368,7.368,0,0,1,39.8-1.488Q38.564.093,35.65.093Zm0-2.883a1.52,1.52,0,0,0,1.193-.434,2.238,2.238,0,0,0,.5-1.209A12.856,12.856,0,0,0,37.448-6.2V-7.688a8.073,8.073,0,0,0-.279-2.4q-.279-.853-1.519-.853-1.209,0-1.488.868a8.1,8.1,0,0,0-.279,2.387V-6.2a11.2,11.2,0,0,0,.124,1.782,2.39,2.39,0,0,0,.5,1.194A1.429,1.429,0,0,0,35.65-2.79Z" transform="translate(357.551 48.192)" fill="#823695"/>
        <rect id="Rectangle_745" data-name="Rectangle 745" width="133.919" height="79.166" transform="translate(310.346 62.833)" fill="#ff9e18"/>
        <path id="Path_2812" data-name="Path 2812" d="M5.355.231A4.124,4.124,0,0,1,2.783-.462,3.513,3.513,0,0,1,1.554-2.321a9.267,9.267,0,0,1-.336-2.572v-7.224a8.779,8.779,0,0,1,.357-2.615,3.438,3.438,0,0,1,1.26-1.806,4.2,4.2,0,0,1,2.52-.662,4.014,4.014,0,0,1,2.331.588,3.185,3.185,0,0,1,1.2,1.669,8.087,8.087,0,0,1,.357,2.531v.861H8.148v-.861a7.993,7.993,0,0,0-.231-2.069,2.363,2.363,0,0,0-.84-1.312,2.8,2.8,0,0,0-1.722-.462,3,3,0,0,0-1.869.5A2.5,2.5,0,0,0,2.6-14.343a8.525,8.525,0,0,0-.231,2.1v7.518a8,8,0,0,0,.252,2.153,2.491,2.491,0,0,0,.9,1.375,3.016,3.016,0,0,0,1.827.483A2.749,2.749,0,0,0,7.1-1.2a2.424,2.424,0,0,0,.83-1.355,8.313,8.313,0,0,0,.22-2.026V-5.607H9.24v.84A9.1,9.1,0,0,1,8.9-2.184,3.355,3.355,0,0,1,7.728-.41,3.843,3.843,0,0,1,5.355.231Zm10.416,0A4.328,4.328,0,0,1,13.2-.431a3.416,3.416,0,0,1-1.271-1.806,8.7,8.7,0,0,1-.357-2.593v-7.434a7.958,7.958,0,0,1,.378-2.562,3.367,3.367,0,0,1,1.292-1.743,4.407,4.407,0,0,1,2.531-.63,4.407,4.407,0,0,1,2.531.63,3.367,3.367,0,0,1,1.292,1.743,7.958,7.958,0,0,1,.378,2.562v7.455a8.6,8.6,0,0,1-.357,2.583,3.417,3.417,0,0,1-1.271,1.8A4.328,4.328,0,0,1,15.771.231Zm0-.945a3.147,3.147,0,0,0,1.88-.483,2.465,2.465,0,0,0,.913-1.355,7.323,7.323,0,0,0,.252-2.026v-7.854a7.21,7.21,0,0,0-.252-2.016,2.432,2.432,0,0,0-.9-1.333,3.191,3.191,0,0,0-1.89-.473,3.2,3.2,0,0,0-1.88.473,2.412,2.412,0,0,0-.913,1.333,7.21,7.21,0,0,0-.252,2.016v7.854a7.323,7.323,0,0,0,.252,2.026A2.465,2.465,0,0,0,13.891-1.2,3.147,3.147,0,0,0,15.771-.714ZM22.743,0V-17.01h1.134V-.9h5.145V0Zm8.043,0V-17.01H31.92V0Zm6.72,0V-16.086H34.1v-.924h7.854v.924H38.64V0Zm6.636,0V-17.01h1.134V0Zm7.665.21a4.108,4.108,0,0,1-2.215-.546,3.458,3.458,0,0,1-1.323-1.533A6.87,6.87,0,0,1,47.712-4.2l.987-.315a9.776,9.776,0,0,0,.451,1.974,2.765,2.765,0,0,0,.935,1.334,2.849,2.849,0,0,0,1.743.472,2.922,2.922,0,0,0,1.985-.63,2.656,2.656,0,0,0,.724-2.1,3.612,3.612,0,0,0-.577-2.006,11.6,11.6,0,0,0-1.628-1.922l-3.108-3.087a5.619,5.619,0,0,1-1.134-1.6,3.972,3.972,0,0,1-.357-1.638,3.237,3.237,0,0,1,1.04-2.583,3.967,3.967,0,0,1,2.7-.9,5.113,5.113,0,0,1,1.554.221,3.06,3.06,0,0,1,1.208.714,3.351,3.351,0,0,1,.809,1.312,7.6,7.6,0,0,1,.378,2.016l-.966.231a6.781,6.781,0,0,0-.4-2,2.394,2.394,0,0,0-.924-1.187,3.017,3.017,0,0,0-1.638-.389,3.11,3.11,0,0,0-1.932.588,2.218,2.218,0,0,0-.777,1.89,3.152,3.152,0,0,0,.263,1.26,4.48,4.48,0,0,0,.977,1.323L53.088-8.19a12.769,12.769,0,0,1,1.775,2.153,4.5,4.5,0,0,1,.745,2.51,4.149,4.149,0,0,1-.483,2.111A2.966,2.966,0,0,1,53.781-.189,4.646,4.646,0,0,1,51.807.21Z" transform="translate(177.063 172.045)" fill="#505257"/>
        <path id="Path_2813" data-name="Path 2813" d="M1.312,0V-3.136l6.4-9.888q.7-1.088,1.328-2.08a11.266,11.266,0,0,0,1.024-2.064,6.679,6.679,0,0,0,.4-2.352,3.976,3.976,0,0,0-.512-2.208,1.786,1.786,0,0,0-1.6-.768,2.163,2.163,0,0,0-1.6.576,3,3,0,0,0-.784,1.5,9.374,9.374,0,0,0-.208,2.048v1.088H1.408v-1.152A10.984,10.984,0,0,1,2.1-22.48a5.689,5.689,0,0,1,2.192-2.736,7.035,7.035,0,0,1,3.936-.992,6.489,6.489,0,0,1,4.992,1.792,7.056,7.056,0,0,1,1.664,4.992,8.825,8.825,0,0,1-.448,2.9,12.292,12.292,0,0,1-1.184,2.48q-.736,1.184-1.6,2.432L6.336-3.552h7.872V0Zm24.9,0,7.584-25.92H36.7L29.152,0ZM23.1-11.68q-2.976,0-4.256-1.664a7.69,7.69,0,0,1-1.28-4.768v-1.6a7.52,7.52,0,0,1,1.248-4.736q1.248-1.568,4.288-1.568t4.3,1.52a7.239,7.239,0,0,1,1.264,4.688v1.76a7.546,7.546,0,0,1-1.28,4.736Q26.112-11.68,23.1-11.68Zm0-2.944a1.518,1.518,0,0,0,1.216-.448,2.5,2.5,0,0,0,.512-1.264,11.952,11.952,0,0,0,.128-1.84v-1.5a8.334,8.334,0,0,0-.288-2.48q-.288-.88-1.568-.88-1.248,0-1.536.88a8.334,8.334,0,0,0-.288,2.48v1.536a11.638,11.638,0,0,0,.128,1.824,2.485,2.485,0,0,0,.512,1.248A1.475,1.475,0,0,0,23.1-14.624ZM39.776.1Q36.8.1,35.536-1.568a7.822,7.822,0,0,1-1.264-4.8V-7.936A7.665,7.665,0,0,1,35.5-12.688q1.232-1.584,4.272-1.584,3.072,0,4.32,1.536a7.377,7.377,0,0,1,1.248,4.7V-6.3a7.606,7.606,0,0,1-1.28,4.768Q42.784.1,39.776.1Zm0-2.976a1.569,1.569,0,0,0,1.232-.448,2.31,2.31,0,0,0,.512-1.248A13.272,13.272,0,0,0,41.632-6.4V-7.936a8.334,8.334,0,0,0-.288-2.48q-.288-.88-1.568-.88-1.248,0-1.536.9a8.361,8.361,0,0,0-.288,2.464V-6.4a11.565,11.565,0,0,0,.128,1.84,2.467,2.467,0,0,0,.512,1.232A1.475,1.475,0,0,0,39.776-2.88Z" transform="translate(185.063 105.616)" fill="#823695"/>
        <rect id="Rectangle_746" data-name="Rectangle 746" width="133.919" height="22.619" transform="translate(143.09 118.836)" fill="#ff9e18"/>
        <g id="Group_1643" data-name="Group 1643" transform="translate(70.753 0)">
          <g id="Group_1642-2" data-name="Group 1642" clip-path="url(#clip-path-2)">
            <line id="Line_823" data-name="Line 823" x2="906.31" transform="translate(24.427 142.285)" fill="none" stroke="#505257" stroke-width="0.25"/>
          </g>
        </g>
        <path id="Path_2809" data-name="Path 2809" d="M1.575,0V-17.01h3.99a4.263,4.263,0,0,1,2.394.578,3.052,3.052,0,0,1,1.207,1.565,6.762,6.762,0,0,1,.347,2.247,6.732,6.732,0,0,1-.347,2.163,3.432,3.432,0,0,1-1.207,1.68,3.853,3.853,0,0,1-2.373.651H2.709V0ZM2.709-9.009H5.334a3.54,3.54,0,0,0,1.691-.357,2.2,2.2,0,0,0,.987-1.145,5.634,5.634,0,0,0,.325-2.11,6.152,6.152,0,0,0-.294-2.132A1.848,1.848,0,0,0,7.1-15.824a4.164,4.164,0,0,0-1.743-.3H2.709ZM12.39,0V-17.01h.9L19.068-2.646V-17.01h1.008V0h-.9L13.4-14.385V0ZM23.436,0V-17.01h5.88v.924H24.591v6.825h3.885v.882H24.591V-.9h4.788V0ZM36.309.231a5.02,5.02,0,0,1-2.583-.557,2.982,2.982,0,0,1-1.291-1.512,5.958,5.958,0,0,1-.368-2.153V-17.01H33.2V-3.969a5,5,0,0,0,.263,1.67,2.185,2.185,0,0,0,.945,1.166,3.626,3.626,0,0,0,1.9.42,3.416,3.416,0,0,0,1.838-.43,2.4,2.4,0,0,0,.977-1.166,4.435,4.435,0,0,0,.294-1.659V-17.01H40.53V-3.99a5.539,5.539,0,0,1-.4,2.153A3.164,3.164,0,0,1,38.819-.326,4.815,4.815,0,0,1,36.309.231ZM43.491,0l.5-17.01h1.134L48.72-1.659,52.374-17.01H53.55L54.033,0h-.987l-.42-14.259L49.161,0h-.84L44.9-14.238,44.478,0Zm17.64.231a4.328,4.328,0,0,1-2.572-.662,3.416,3.416,0,0,1-1.271-1.806,8.7,8.7,0,0,1-.357-2.593v-7.434a7.958,7.958,0,0,1,.378-2.562A3.367,3.367,0,0,1,58.6-16.569a4.407,4.407,0,0,1,2.53-.63,4.407,4.407,0,0,1,2.531.63,3.367,3.367,0,0,1,1.291,1.743,7.958,7.958,0,0,1,.378,2.562v7.455a8.6,8.6,0,0,1-.357,2.583A3.417,3.417,0,0,1,63.7-.431,4.328,4.328,0,0,1,61.131.231Zm0-.945A3.147,3.147,0,0,0,63.01-1.2a2.465,2.465,0,0,0,.913-1.355,7.323,7.323,0,0,0,.252-2.026v-7.854a7.21,7.21,0,0,0-.252-2.016,2.432,2.432,0,0,0-.9-1.333,3.191,3.191,0,0,0-1.89-.473,3.2,3.2,0,0,0-1.879.473,2.412,2.412,0,0,0-.914,1.333,7.21,7.21,0,0,0-.252,2.016v7.854a7.323,7.323,0,0,0,.252,2.026A2.465,2.465,0,0,0,59.251-1.2,3.147,3.147,0,0,0,61.131-.714ZM68.5,0V-17.01h.9L75.18-2.646V-17.01h1.008V0h-.9L69.51-14.385V0ZM79.527,0V-17.01h1.134V0Zm7.14,0V-16.086h-3.4v-.924h7.854v.924H87.8V0Zm7.056,0V-17.01h1.134V0Zm8.064.21a4.108,4.108,0,0,1-2.215-.546,3.458,3.458,0,0,1-1.323-1.533A6.87,6.87,0,0,1,97.692-4.2l.987-.315a9.776,9.776,0,0,0,.451,1.974,2.765,2.765,0,0,0,.934,1.334,2.849,2.849,0,0,0,1.743.472,2.922,2.922,0,0,0,1.984-.63,2.656,2.656,0,0,0,.725-2.1,3.612,3.612,0,0,0-.577-2.006,11.6,11.6,0,0,0-1.628-1.922L99.2-10.479a5.619,5.619,0,0,1-1.134-1.6,3.972,3.972,0,0,1-.357-1.638A3.237,3.237,0,0,1,98.752-16.3a3.967,3.967,0,0,1,2.7-.9,5.113,5.113,0,0,1,1.554.221,3.06,3.06,0,0,1,1.208.714,3.351,3.351,0,0,1,.808,1.312,7.6,7.6,0,0,1,.378,2.016l-.966.231a6.78,6.78,0,0,0-.4-2,2.394,2.394,0,0,0-.924-1.187,3.017,3.017,0,0,0-1.638-.389,3.11,3.11,0,0,0-1.932.588,2.218,2.218,0,0,0-.777,1.89,3.152,3.152,0,0,0,.262,1.26A4.479,4.479,0,0,0,100-11.214l3.066,3.024a12.77,12.77,0,0,1,1.774,2.153,4.5,4.5,0,0,1,.745,2.51,4.149,4.149,0,0,1-.483,2.111,2.966,2.966,0,0,1-1.344,1.229A4.646,4.646,0,0,1,101.787.21Z" transform="translate(653.735 172.045)" fill="#505257"/>
        <path id="Path_2806" data-name="Path 2806" d="M10.168-2.139.93-8.649v-3.627l9.238-6.51v3.875L4.03-10.447l6.138,4.433ZM16.027,0V-20.367a7.077,7.077,0,0,1-.729.279q-.543.186-1.194.356t-1.193.325a7.267,7.267,0,0,0-.76.248v-3.193q.434-.155,1.085-.434t1.38-.635a10.943,10.943,0,0,0,1.364-.791,5.377,5.377,0,0,0,1.039-.9h3.286V0ZM32.364,0l7.347-25.11h2.821L35.216,0ZM29.357-11.315a4.882,4.882,0,0,1-4.123-1.612,7.449,7.449,0,0,1-1.24-4.619V-19.1A7.285,7.285,0,0,1,25.2-23.684Q26.412-25.2,29.357-25.2t4.17,1.472a7.013,7.013,0,0,1,1.224,4.542v1.7a7.31,7.31,0,0,1-1.24,4.588Q32.271-11.315,29.357-11.315Zm0-2.852a1.47,1.47,0,0,0,1.178-.434,2.426,2.426,0,0,0,.5-1.224,11.578,11.578,0,0,0,.124-1.782v-1.457a8.073,8.073,0,0,0-.279-2.4q-.279-.852-1.519-.852-1.209,0-1.488.852a8.073,8.073,0,0,0-.279,2.4v1.488a11.274,11.274,0,0,0,.124,1.767,2.408,2.408,0,0,0,.5,1.209A1.429,1.429,0,0,0,29.357-14.167ZM45.508.093q-2.883,0-4.108-1.612a7.578,7.578,0,0,1-1.224-4.65V-7.688a7.426,7.426,0,0,1,1.193-4.6q1.193-1.534,4.139-1.534,2.976,0,4.185,1.488A7.146,7.146,0,0,1,50.9-7.781v1.674a7.368,7.368,0,0,1-1.24,4.619Q48.422.093,45.508.093Zm0-2.883A1.52,1.52,0,0,0,46.7-3.224a2.238,2.238,0,0,0,.5-1.209A12.857,12.857,0,0,0,47.306-6.2V-7.688a8.073,8.073,0,0,0-.279-2.4q-.279-.853-1.519-.853-1.209,0-1.488.868a8.1,8.1,0,0,0-.279,2.387V-6.2a11.2,11.2,0,0,0,.124,1.782,2.39,2.39,0,0,0,.5,1.194A1.429,1.429,0,0,0,45.508-2.79Z" transform="translate(683.876 114.407)" fill="#823695"/>
        <rect id="Rectangle_748" data-name="Rectangle 748" width="133.919" height="11.304" transform="translate(645.764 130.298)" fill="#ff9e18"/>
        <rect id="Rectangle_749" data-name="Rectangle 749" width="133.919" height="11.304" transform="translate(818.71 130.298)" fill="#ff9e18"/>
        <path id="Path_2807" data-name="Path 2807" d="M10.168-2.139.93-8.649v-3.627l9.238-6.51v3.875L4.03-10.447l6.138,4.433ZM16.027,0V-20.367a7.077,7.077,0,0,1-.729.279q-.543.186-1.194.356t-1.193.325a7.267,7.267,0,0,0-.76.248v-3.193q.434-.155,1.085-.434t1.38-.635a10.943,10.943,0,0,0,1.364-.791,5.377,5.377,0,0,0,1.039-.9h3.286V0ZM32.364,0l7.347-25.11h2.821L35.216,0ZM29.357-11.315a4.882,4.882,0,0,1-4.123-1.612,7.449,7.449,0,0,1-1.24-4.619V-19.1A7.285,7.285,0,0,1,25.2-23.684Q26.412-25.2,29.357-25.2t4.17,1.472a7.013,7.013,0,0,1,1.224,4.542v1.7a7.31,7.31,0,0,1-1.24,4.588Q32.271-11.315,29.357-11.315Zm0-2.852a1.47,1.47,0,0,0,1.178-.434,2.426,2.426,0,0,0,.5-1.224,11.578,11.578,0,0,0,.124-1.782v-1.457a8.073,8.073,0,0,0-.279-2.4q-.279-.852-1.519-.852-1.209,0-1.488.852a8.073,8.073,0,0,0-.279,2.4v1.488a11.274,11.274,0,0,0,.124,1.767,2.408,2.408,0,0,0,.5,1.209A1.429,1.429,0,0,0,29.357-14.167ZM45.508.093q-2.883,0-4.108-1.612a7.578,7.578,0,0,1-1.224-4.65V-7.688a7.426,7.426,0,0,1,1.193-4.6q1.193-1.534,4.139-1.534,2.976,0,4.185,1.488A7.146,7.146,0,0,1,50.9-7.781v1.674a7.368,7.368,0,0,1-1.24,4.619Q48.422.093,45.508.093Zm0-2.883A1.52,1.52,0,0,0,46.7-3.224a2.238,2.238,0,0,0,.5-1.209A12.857,12.857,0,0,0,47.306-6.2V-7.688a8.073,8.073,0,0,0-.279-2.4q-.279-.853-1.519-.853-1.209,0-1.488.868a8.1,8.1,0,0,0-.279,2.387V-6.2a11.2,11.2,0,0,0,.124,1.782,2.39,2.39,0,0,0,.5,1.194A1.429,1.429,0,0,0,45.508-2.79Z" transform="translate(859.141 114.407)" fill="#823695"/>
        <path id="Path_2808" data-name="Path 2808" d="M-47.432,0V-17.82h6.16v.968h-4.95V-9.7h4.07v.924h-4.07V-.946h5.016V0Zm7.942,0,3.916-9.24-3.894-8.58h1.1l3.5,7.612,3.41-7.612h1.188l-4.07,8.756L-30.184,0H-31.35l-3.674-8.008L-38.3,0Zm11.506,0V-17.82h6.138v.946H-26.8V-9.7h4.268v.924H-26.8V0ZM-15.4.242a4.534,4.534,0,0,1-2.695-.693,3.579,3.579,0,0,1-1.331-1.892A9.115,9.115,0,0,1-19.8-5.06v-7.788a8.337,8.337,0,0,1,.4-2.684,3.527,3.527,0,0,1,1.353-1.826,4.616,4.616,0,0,1,2.651-.66,4.616,4.616,0,0,1,2.651.66A3.527,3.527,0,0,1-11.4-15.532a8.337,8.337,0,0,1,.4,2.684v7.81a9.006,9.006,0,0,1-.374,2.706A3.579,3.579,0,0,1-12.7-.451,4.534,4.534,0,0,1-15.4.242Zm0-.99a3.3,3.3,0,0,0,1.969-.506,2.582,2.582,0,0,0,.957-1.419A7.672,7.672,0,0,0-12.21-4.8v-8.228a7.553,7.553,0,0,0-.264-2.112,2.548,2.548,0,0,0-.946-1.4,3.343,3.343,0,0,0-1.98-.5,3.352,3.352,0,0,0-1.969.5,2.527,2.527,0,0,0-.957,1.4,7.553,7.553,0,0,0-.264,2.112V-4.8a7.672,7.672,0,0,0,.264,2.123,2.582,2.582,0,0,0,.957,1.419A3.3,3.3,0,0,0-15.4-.748ZM-8.1,0V-17.82h1.188V-.946h5.39V0ZM.33,0V-17.82H1.518V0Zm3.7,0,3.74-17.82H9.152L12.914,0H11.7L10.78-4.928H6.16L5.214,0Zm2.31-5.808h4.29L8.47-16.368ZM16.1,0V-16.852H12.54v-.968h8.228v.968H17.292V0Zm6.952,0V-17.82h1.188V0Zm7.766,0L26.51-17.82H27.7l3.7,15.73,3.454-15.73h1.166L31.944,0ZM38.3,0V-17.82h6.16v.968h-4.95V-9.7h4.07v.924h-4.07V-.946h5.016V0ZM-44.275,25V7.18h3.894a4.84,4.84,0,0,1,2.772.682A3.58,3.58,0,0,1-36.223,9.71a8.037,8.037,0,0,1,.4,2.6V19.7a8.645,8.645,0,0,1-.4,2.717,3.7,3.7,0,0,1-1.353,1.892,4.534,4.534,0,0,1-2.7.693Zm1.188-.946h2.75a3.206,3.206,0,0,0,2.156-.616,2.923,2.923,0,0,0,.924-1.639,10.625,10.625,0,0,0,.22-2.233V12.394a8.537,8.537,0,0,0-.264-2.255,2.583,2.583,0,0,0-.99-1.474,3.575,3.575,0,0,0-2.09-.517h-2.706Zm10.12.946V7.18h6.16v.968h-4.95V15.3h4.07v.924h-4.07v7.832h5.016V25Zm8.756,0V7.18H-19.9a4.267,4.267,0,0,1,2.431.583A2.958,2.958,0,0,1-16.3,9.347a7.332,7.332,0,0,1,.319,2.233,8.358,8.358,0,0,1-.209,1.892A3.4,3.4,0,0,1-16.962,15a2.7,2.7,0,0,1-1.639.8l2.86,9.2h-1.188L-19.7,16.024h-3.322V25Zm1.188-9.9h3.08a2.95,2.95,0,0,0,1.738-.429,2.215,2.215,0,0,0,.825-1.221,6.718,6.718,0,0,0,.231-1.87,4.824,4.824,0,0,0-.561-2.574,2.485,2.485,0,0,0-2.255-.88h-3.058Zm9.768,9.9.528-17.82h1.188l3.762,16.082L-3.949,7.18h1.232L-2.211,25H-3.245l-.44-14.938L-7.315,25H-8.2l-3.586-14.916L-12.221,25Zm13.4,0L3.883,7.18H5.269L9.031,25H7.821L6.9,20.072H2.277L1.331,25Zm2.31-5.808h4.29L4.587,8.632ZM12.221,25V8.148H8.657V7.18h8.228v.968H13.409V25Zm6.952,0V7.18h1.188V25Zm7.04,0V8.148H22.649V7.18h8.228v.968H27.4V25Zm6.952,0V7.18h1.188V25Zm8.03.22a4.3,4.3,0,0,1-2.321-.572,3.622,3.622,0,0,1-1.386-1.606A7.2,7.2,0,0,1,36.9,20.6l1.034-.33a10.241,10.241,0,0,0,.473,2.068,2.9,2.9,0,0,0,.979,1.4,2.984,2.984,0,0,0,1.826.495,3.062,3.062,0,0,0,2.079-.66,2.783,2.783,0,0,0,.759-2.2,3.784,3.784,0,0,0-.6-2.1,12.152,12.152,0,0,0-1.705-2.013l-3.256-3.234A5.887,5.887,0,0,1,37.3,12.35a4.161,4.161,0,0,1-.374-1.716,3.391,3.391,0,0,1,1.089-2.706,4.156,4.156,0,0,1,2.827-.946,5.356,5.356,0,0,1,1.628.231,3.206,3.206,0,0,1,1.265.748,3.51,3.51,0,0,1,.847,1.375,7.967,7.967,0,0,1,.4,2.112l-1.012.242a7.1,7.1,0,0,0-.418-2.09,2.508,2.508,0,0,0-.968-1.243,3.161,3.161,0,0,0-1.716-.407,3.258,3.258,0,0,0-2.024.616,2.323,2.323,0,0,0-.814,1.98,3.3,3.3,0,0,0,.275,1.32,4.693,4.693,0,0,0,1.023,1.386l3.212,3.168A13.378,13.378,0,0,1,44.4,18.675a4.719,4.719,0,0,1,.781,2.629,4.346,4.346,0,0,1-.506,2.211A3.107,3.107,0,0,1,43.263,24.8,4.867,4.867,0,0,1,41.195,25.22Z" transform="translate(885.872 172.462)" fill="#505257"/>
        <rect id="Rectangle_750" data-name="Rectangle 750" width="133.919" height="90.475" transform="translate(478.205 51.525)" fill="#ff9e18"/>
        <path id="Path_2810" data-name="Path 2810" d="M.672,0l3.57-17.01H5.565L9.156,0H8L7.119-4.7H2.709L1.806,0ZM2.877-5.544h4.1L4.914-15.624ZM11.8,0V-17.01h1.134V-.9h5.145V0Zm7.917,0V-16.086h-3.4v-.924h7.854v.924H20.853V0ZM29.757,0V-17.01h1.134V0Zm4.3,0V-17.01h.9L40.74-2.646V-17.01h1.008V0h-.9L35.07-14.385V0ZM48.8.231a4.124,4.124,0,0,1-2.572-.693A3.513,3.513,0,0,1,45-2.321a9.266,9.266,0,0,1-.336-2.572v-7.224a8.779,8.779,0,0,1,.357-2.615,3.438,3.438,0,0,1,1.26-1.806A4.2,4.2,0,0,1,48.8-17.2a4.014,4.014,0,0,1,2.331.588,3.185,3.185,0,0,1,1.2,1.669,8.087,8.087,0,0,1,.357,2.531v.861H51.6v-.861a7.992,7.992,0,0,0-.231-2.069,2.363,2.363,0,0,0-.84-1.312,2.8,2.8,0,0,0-1.722-.462,3,3,0,0,0-1.869.5,2.5,2.5,0,0,0-.882,1.407,8.525,8.525,0,0,0-.231,2.1v7.518a8,8,0,0,0,.252,2.153,2.491,2.491,0,0,0,.9,1.375A3.016,3.016,0,0,0,48.8-.714,2.749,2.749,0,0,0,50.547-1.2a2.424,2.424,0,0,0,.83-1.355A8.313,8.313,0,0,0,51.6-4.578V-5.607h1.092v.84a9.1,9.1,0,0,1-.336,2.583A3.355,3.355,0,0,1,51.177-.41,3.843,3.843,0,0,1,48.8.231ZM55.44,0V-17.01h4.116a4.073,4.073,0,0,1,2.32.557,2.824,2.824,0,0,1,1.113,1.512,7,7,0,0,1,.3,2.132,7.978,7.978,0,0,1-.2,1.806,3.243,3.243,0,0,1-.735,1.46,2.577,2.577,0,0,1-1.564.767L63.525,0H62.391L59.745-8.568H56.574V0Zm1.134-9.45h2.94a2.816,2.816,0,0,0,1.659-.41,2.114,2.114,0,0,0,.788-1.165,6.413,6.413,0,0,0,.221-1.785,4.6,4.6,0,0,0-.535-2.457,2.372,2.372,0,0,0-2.153-.84H56.574ZM66.276,0V-17.01h5.88v.924H67.431v6.825h3.885v.882H67.431V-.9h4.788V0Zm8.085,0,3.57-17.01h1.323L82.845,0H81.69l-.882-4.7H76.4L75.5,0Zm2.205-5.544h4.1L78.6-15.624ZM88.746.21a4.108,4.108,0,0,1-2.215-.546,3.458,3.458,0,0,1-1.323-1.533A6.87,6.87,0,0,1,84.651-4.2l.987-.315a9.776,9.776,0,0,0,.451,1.974,2.765,2.765,0,0,0,.934,1.334,2.849,2.849,0,0,0,1.743.472,2.922,2.922,0,0,0,1.984-.63,2.656,2.656,0,0,0,.725-2.1A3.612,3.612,0,0,0,90.9-5.471a11.6,11.6,0,0,0-1.628-1.922l-3.108-3.087a5.619,5.619,0,0,1-1.134-1.6,3.972,3.972,0,0,1-.357-1.638A3.237,3.237,0,0,1,85.712-16.3a3.967,3.967,0,0,1,2.7-.9,5.113,5.113,0,0,1,1.554.221,3.06,3.06,0,0,1,1.208.714,3.351,3.351,0,0,1,.808,1.312,7.6,7.6,0,0,1,.378,2.016l-.966.231a6.78,6.78,0,0,0-.4-2,2.394,2.394,0,0,0-.924-1.187,3.017,3.017,0,0,0-1.638-.389,3.11,3.11,0,0,0-1.932.588,2.218,2.218,0,0,0-.777,1.89,3.152,3.152,0,0,0,.262,1.26,4.479,4.479,0,0,0,.977,1.323L90.027-8.19A12.77,12.77,0,0,1,91.8-6.038a4.5,4.5,0,0,1,.745,2.51,4.149,4.149,0,0,1-.483,2.111A2.966,2.966,0,0,1,90.72-.189,4.646,4.646,0,0,1,88.746.21ZM95.151,0V-17.01h5.88v.924H96.306v6.825h3.885v.882H96.306V-.9h4.788V0Zm8.568,0V-17.01h3.717a4.62,4.62,0,0,1,2.646.651,3.418,3.418,0,0,1,1.323,1.764,7.672,7.672,0,0,1,.378,2.478v7.056a8.252,8.252,0,0,1-.378,2.594,3.528,3.528,0,0,1-1.292,1.806A4.328,4.328,0,0,1,107.541,0Zm1.134-.9h2.625a3.061,3.061,0,0,0,2.058-.588,2.79,2.79,0,0,0,.882-1.564,10.142,10.142,0,0,0,.21-2.132v-6.846a8.149,8.149,0,0,0-.252-2.153,2.466,2.466,0,0,0-.945-1.407,3.413,3.413,0,0,0-2-.494h-2.583Z" transform="translate(483 172.045)" fill="#505257"/>
        <g id="Group_1645" data-name="Group 1645" transform="translate(0 0)">
          <g id="Mask_Group_8" data-name="Mask Group 8" clip-path="url(#clip-path-3)">
            <path id="Path_2816" data-name="Path 2816" d="M8.16.352A7.1,7.1,0,0,1,4.192-.64,5.414,5.414,0,0,1,2.048-3.408a12.106,12.106,0,0,1-.64-4.112,9.6,9.6,0,0,1,.208-2.064A6.906,6.906,0,0,1,2.224-11.3a5.734,5.734,0,0,1,.976-1.36,5.128,5.128,0,0,1,1.312-.976,6.481,6.481,0,0,1-1.936-2.192A7.371,7.371,0,0,1,1.76-19.36a8.984,8.984,0,0,1,.688-3.664,4.952,4.952,0,0,1,2.128-2.368,7.183,7.183,0,0,1,3.584-.816,6.963,6.963,0,0,1,3.584.832,5.1,5.1,0,0,1,2.1,2.368A8.547,8.547,0,0,1,14.5-19.36a7.612,7.612,0,0,1-.784,3.552,6.224,6.224,0,0,1-1.9,2.176,5.128,5.128,0,0,1,1.312.976A5.735,5.735,0,0,1,14.1-11.3,6.906,6.906,0,0,1,14.7-9.584a9.6,9.6,0,0,1,.208,2.064,11.38,11.38,0,0,1-.624,4.112A5.528,5.528,0,0,1,12.144-.64,7.084,7.084,0,0,1,8.16.352Zm0-3.36a1.935,1.935,0,0,0,1.584-.64,3.332,3.332,0,0,0,.688-1.616,12.344,12.344,0,0,0,.16-2,9.656,9.656,0,0,0-.16-2.1,3.6,3.6,0,0,0-.72-1.648,1.9,1.9,0,0,0-1.552-.64,1.858,1.858,0,0,0-1.52.64A3.717,3.717,0,0,0,5.9-9.376,10.278,10.278,0,0,0,5.7-7.264a11.518,11.518,0,0,0,.176,2.016,3.273,3.273,0,0,0,.72,1.616A1.968,1.968,0,0,0,8.16-3.008Zm0-12.384a1.692,1.692,0,0,0,1.264-.56,3.125,3.125,0,0,0,.656-1.456,10.483,10.483,0,0,0,.192-2.112,5.219,5.219,0,0,0-.48-2.4,1.688,1.688,0,0,0-1.632-.928,1.764,1.764,0,0,0-1.648.928,4.745,4.745,0,0,0-.528,2.368,9.926,9.926,0,0,0,.208,2.128,3.157,3.157,0,0,0,.688,1.472A1.746,1.746,0,0,0,8.16-15.392ZM26.24,0l7.584-25.92h2.912L29.184,0Zm-3.1-11.68q-2.976,0-4.256-1.664a7.69,7.69,0,0,1-1.28-4.768v-1.6a7.52,7.52,0,0,1,1.248-4.736q1.248-1.568,4.288-1.568t4.3,1.52A7.239,7.239,0,0,1,28.7-19.808v1.76a7.546,7.546,0,0,1-1.28,4.736Q26.144-11.68,23.136-11.68Zm0-2.944a1.518,1.518,0,0,0,1.216-.448,2.5,2.5,0,0,0,.512-1.264,11.952,11.952,0,0,0,.128-1.84v-1.5a8.334,8.334,0,0,0-.288-2.48q-.288-.88-1.568-.88-1.248,0-1.536.88a8.334,8.334,0,0,0-.288,2.48v1.536a11.638,11.638,0,0,0,.128,1.824,2.485,2.485,0,0,0,.512,1.248A1.475,1.475,0,0,0,23.136-14.624ZM39.808.1q-2.976,0-4.24-1.664a7.822,7.822,0,0,1-1.264-4.8V-7.936a7.665,7.665,0,0,1,1.232-4.752q1.232-1.584,4.272-1.584,3.072,0,4.32,1.536a7.377,7.377,0,0,1,1.248,4.7V-6.3A7.606,7.606,0,0,1,44.1-1.536Q42.816.1,39.808.1Zm0-2.976a1.569,1.569,0,0,0,1.232-.448,2.31,2.31,0,0,0,.512-1.248A13.271,13.271,0,0,0,41.664-6.4V-7.936a8.334,8.334,0,0,0-.288-2.48q-.288-.88-1.568-.88-1.248,0-1.536.9a8.361,8.361,0,0,0-.288,2.464V-6.4a11.565,11.565,0,0,0,.128,1.84,2.467,2.467,0,0,0,.512,1.232A1.475,1.475,0,0,0,39.808-2.88Z" transform="translate(520.163 37.759)" fill="#823695"/>
          </g>
        </g>
      </g>
    </g>
  </g>
</svg>
