<svg xmlns="http://www.w3.org/2000/svg" width="59.169" height="77.329" viewBox="0 0 59.169 77.329">
  <g id="Group_1682" data-name="Group 1682" transform="translate(-67.968 -60.751)">
    <path id="Path_2780" data-name="Path 2780" d="M125.618,68.777h-5.509V63.684c0-1.353-1.01-2.933-3.858-2.933H78.836c-1.9,0-3.856,1.1-3.856,2.933v5.093H69.487A1.519,1.519,0,0,0,67.968,70.3v8.483A1.519,1.519,0,0,0,69.487,80.3h3.432v54.9c0,1.8,1.954,2.883,3.844,2.883H118.34c2.837,0,3.844-1.553,3.844-2.883V80.3h3.434a1.519,1.519,0,0,0,1.519-1.519V70.3A1.519,1.519,0,0,0,125.618,68.777Zm-6.472,53.057h-28.2v3.038h28.2v10.077a2.968,2.968,0,0,1-.806.091H76.763a2.236,2.236,0,0,1-.8-.167V80.3h43.187ZM124.1,77.26H71.006V71.815H99.2V68.777H78.018V63.972a2.144,2.144,0,0,1,.818-.183h37.415a2.774,2.774,0,0,1,.82.1v4.889h-6.313v3.038H124.1Z" transform="translate(0 0)" fill="#823695"/>
    <path id="Path_2781" data-name="Path 2781" d="M81.938,98.377h3.038V90.488l10.365,10.365-6.354,6.355,2.147,2.147L97.49,103l6.354,6.354,2.149-2.147-6.355-6.355,6.355-6.355-2.149-2.149L97.488,98.7,88.776,89.99h.716c3.073,0,5.39-2.778,5.39-6.466,0-3.129-2.166-6.477-5.39-6.477H81.931v3.038h.007Zm9.905-14.852c0,1.922-1.033,3.428-2.352,3.428H84.976V80.085h4.516C90.679,80.085,91.844,81.788,91.844,83.524Z" transform="translate(5.841 6.817)" fill="#823695"/>
  </g>
</svg>
