<svg xmlns="http://www.w3.org/2000/svg" xmlns:xlink="http://www.w3.org/1999/xlink" width="375" height="1923" viewBox="0 0 375 1923">
  <defs>
    <clipPath id="clip-path">
      <rect id="Rectangle_912" data-name="Rectangle 912" width="375" height="1923" transform="translate(0 3797)" fill="#fff" stroke="#707070" stroke-width="1"/>
    </clipPath>
  </defs>
  <g id="Mask_Group_9" data-name="Mask Group 9" transform="translate(0 -3797)" clip-path="url(#clip-path)">
    <g id="Group_1797" data-name="Group 1797">
      <path id="Path_3407" data-name="Path 3407" d="M0,0H414V539H0Z" transform="translate(-19.5 3731.109)" fill="rgba(189,190,192,0.06)"/>
      <path id="Path_2578" data-name="Path 2578" d="M65.353,39.093H321.9m-256.546,71H321.9m-256.546,72H321.9m-256.546,71H321.9m-256.546,71H321.9" transform="translate(4.179 3810.517)" fill="none" stroke="#d1d0d0" stroke-linejoin="round" stroke-width="0.75"/>
      <path id="Path_3448" data-name="Path 3448" d="M0,0H256.969" transform="translate(69.531 4206.609)" fill="none" stroke="#d1d0d0" stroke-width="0.75"/>
      <path id="Path_3449" data-name="Path 3449" d="M2.5-5.886a1.165,1.165,0,0,0-.824.279,1.757,1.757,0,0,0-.455.693,3.371,3.371,0,0,0-.194.882q-.041.468-.04.846t.04.846a3.371,3.371,0,0,0,.194.882,1.757,1.757,0,0,0,.455.693A1.165,1.165,0,0,0,2.5-.486a1.165,1.165,0,0,0,.823-.279,1.757,1.757,0,0,0,.455-.693,3.371,3.371,0,0,0,.193-.882q.04-.468.04-.846t-.04-.846a3.371,3.371,0,0,0-.193-.882,1.757,1.757,0,0,0-.455-.693A1.165,1.165,0,0,0,2.5-5.886Zm0-.594a1.807,1.807,0,0,1,1.107.315,2.14,2.14,0,0,1,.657.8A3.584,3.584,0,0,1,4.581-4.3a8.05,8.05,0,0,1,.081,1.112,8.05,8.05,0,0,1-.081,1.112,3.584,3.584,0,0,1-.315,1.067,2.14,2.14,0,0,1-.657.8A1.807,1.807,0,0,1,2.5.108,1.807,1.807,0,0,1,1.395-.207a2.14,2.14,0,0,1-.657-.8A3.584,3.584,0,0,1,.423-2.075,8.05,8.05,0,0,1,.342-3.186,8.05,8.05,0,0,1,.423-4.3,3.584,3.584,0,0,1,.738-5.364a2.14,2.14,0,0,1,.657-.8A1.807,1.807,0,0,1,2.5-6.48Z" transform="translate(55.505 4209.109)" fill="#474747"/>
      <path id="Path_3450" data-name="Path 3450" d="M4.185-5.778h-2.6L1.539-3.861a2.11,2.11,0,0,1,.423-.117,2.624,2.624,0,0,1,.432-.036,2.119,2.119,0,0,1,.819.153,1.865,1.865,0,0,1,.634.428,1.965,1.965,0,0,1,.414.648,2.185,2.185,0,0,1,.148.814,2.136,2.136,0,0,1-.162.842,1.942,1.942,0,0,1-.45.657,2.059,2.059,0,0,1-.68.428,2.316,2.316,0,0,1-.85.153A2.1,2.1,0,0,1,1.179-.18a1.876,1.876,0,0,1-.747-.846l.648-.279a1.472,1.472,0,0,0,.5.6,1.288,1.288,0,0,0,.744.221A1.409,1.409,0,0,0,2.892-.6a1.478,1.478,0,0,0,.453-.3,1.392,1.392,0,0,0,.3-.45,1.4,1.4,0,0,0,.112-.558,1.567,1.567,0,0,0-.117-.612A1.449,1.449,0,0,0,3.321-3a1.4,1.4,0,0,0-.495-.311A1.781,1.781,0,0,0,2.2-3.42a2.509,2.509,0,0,0-.68.095,3.236,3.236,0,0,0-.643.256l.063-3.3H4.185Z" transform="translate(55.505 4138.109)" fill="#474747"/>
      <path id="Path_3451" data-name="Path 3451" d="M3.132,0H2.484V-5.562L1.341-4.554.936-5.04l1.62-1.332h.576ZM7.506-5.886a1.165,1.165,0,0,0-.824.279,1.757,1.757,0,0,0-.455.693,3.371,3.371,0,0,0-.194.882q-.04.468-.04.846t.04.846a3.371,3.371,0,0,0,.194.882,1.757,1.757,0,0,0,.455.693,1.165,1.165,0,0,0,.824.279A1.165,1.165,0,0,0,8.33-.765a1.757,1.757,0,0,0,.455-.693,3.371,3.371,0,0,0,.193-.882q.04-.468.04-.846t-.04-.846a3.371,3.371,0,0,0-.193-.882,1.757,1.757,0,0,0-.455-.693A1.165,1.165,0,0,0,7.506-5.886Zm0-.594a1.807,1.807,0,0,1,1.107.315,2.14,2.14,0,0,1,.657.8A3.584,3.584,0,0,1,9.585-4.3a8.05,8.05,0,0,1,.081,1.112,8.05,8.05,0,0,1-.081,1.112A3.584,3.584,0,0,1,9.27-1.008a2.14,2.14,0,0,1-.657.8A1.807,1.807,0,0,1,7.506.108,1.807,1.807,0,0,1,6.4-.207a2.14,2.14,0,0,1-.657-.8,3.584,3.584,0,0,1-.315-1.067,8.05,8.05,0,0,1-.081-1.112A8.05,8.05,0,0,1,5.427-4.3a3.584,3.584,0,0,1,.315-1.067,2.14,2.14,0,0,1,.657-.8A1.807,1.807,0,0,1,7.506-6.48Z" transform="translate(50.5 4066.109)" fill="#474747"/>
      <path id="Path_3452" data-name="Path 3452" d="M3.132,0H2.484V-5.562L1.341-4.554.936-5.04l1.62-1.332h.576ZM9.189-5.778h-2.6L6.543-3.861a2.11,2.11,0,0,1,.423-.117A2.624,2.624,0,0,1,7.4-4.014a2.119,2.119,0,0,1,.819.153,1.865,1.865,0,0,1,.634.428,1.965,1.965,0,0,1,.414.648,2.185,2.185,0,0,1,.148.814,2.136,2.136,0,0,1-.162.842,1.942,1.942,0,0,1-.45.657,2.059,2.059,0,0,1-.68.428,2.316,2.316,0,0,1-.85.153A2.1,2.1,0,0,1,6.183-.18a1.876,1.876,0,0,1-.747-.846l.648-.279a1.472,1.472,0,0,0,.5.6,1.288,1.288,0,0,0,.744.221A1.409,1.409,0,0,0,7.9-.6a1.478,1.478,0,0,0,.453-.3,1.392,1.392,0,0,0,.3-.45,1.4,1.4,0,0,0,.112-.558,1.567,1.567,0,0,0-.117-.612A1.449,1.449,0,0,0,8.325-3a1.4,1.4,0,0,0-.495-.311A1.781,1.781,0,0,0,7.2-3.42a2.509,2.509,0,0,0-.68.095,3.236,3.236,0,0,0-.643.256l.063-3.3H9.189Z" transform="translate(50.5 3995.109)" fill="#474747"/>
      <path id="Path_3453" data-name="Path 3453" d="M4.482,0H.432V-.747L2.97-3.33q.144-.144.288-.306a2.862,2.862,0,0,0,.261-.342,1.855,1.855,0,0,0,.189-.378A1.2,1.2,0,0,0,3.78-4.77a1.115,1.115,0,0,0-.094-.468.99.99,0,0,0-.266-.351,1.215,1.215,0,0,0-.4-.22,1.472,1.472,0,0,0-.477-.077,1.3,1.3,0,0,0-.828.27,1.225,1.225,0,0,0-.441.729L.594-4.959a1.784,1.784,0,0,1,.653-1.116A1.975,1.975,0,0,1,2.5-6.48a2.55,2.55,0,0,1,.733.1,1.842,1.842,0,0,1,.612.311,1.516,1.516,0,0,1,.423.517,1.581,1.581,0,0,1,.157.724,1.943,1.943,0,0,1-.112.675,2.738,2.738,0,0,1-.293.576,3.886,3.886,0,0,1-.41.513q-.23.243-.473.477L1.134-.594H4.482ZM7.506-5.886a1.165,1.165,0,0,0-.824.279,1.757,1.757,0,0,0-.455.693,3.371,3.371,0,0,0-.194.882q-.04.468-.04.846t.04.846a3.371,3.371,0,0,0,.194.882,1.757,1.757,0,0,0,.455.693,1.165,1.165,0,0,0,.824.279A1.165,1.165,0,0,0,8.33-.765a1.757,1.757,0,0,0,.455-.693,3.371,3.371,0,0,0,.193-.882q.04-.468.04-.846t-.04-.846a3.371,3.371,0,0,0-.193-.882,1.757,1.757,0,0,0-.455-.693A1.165,1.165,0,0,0,7.506-5.886Zm0-.594a1.807,1.807,0,0,1,1.107.315,2.14,2.14,0,0,1,.657.8A3.584,3.584,0,0,1,9.585-4.3a8.05,8.05,0,0,1,.081,1.112,8.05,8.05,0,0,1-.081,1.112A3.584,3.584,0,0,1,9.27-1.008a2.14,2.14,0,0,1-.657.8A1.807,1.807,0,0,1,7.506.108,1.807,1.807,0,0,1,6.4-.207a2.14,2.14,0,0,1-.657-.8,3.584,3.584,0,0,1-.315-1.067,8.05,8.05,0,0,1-.081-1.112A8.05,8.05,0,0,1,5.427-4.3a3.584,3.584,0,0,1,.315-1.067,2.14,2.14,0,0,1,.657-.8A1.807,1.807,0,0,1,7.506-6.48Z" transform="translate(50.5 3924.109)" fill="#474747"/>
      <path id="Path_3454" data-name="Path 3454" d="M4.482,0H.432V-.747L2.97-3.33q.144-.144.288-.306a2.862,2.862,0,0,0,.261-.342,1.855,1.855,0,0,0,.189-.378A1.2,1.2,0,0,0,3.78-4.77a1.115,1.115,0,0,0-.094-.468.99.99,0,0,0-.266-.351,1.215,1.215,0,0,0-.4-.22,1.472,1.472,0,0,0-.477-.077,1.3,1.3,0,0,0-.828.27,1.225,1.225,0,0,0-.441.729L.594-4.959a1.784,1.784,0,0,1,.653-1.116A1.975,1.975,0,0,1,2.5-6.48a2.55,2.55,0,0,1,.733.1,1.842,1.842,0,0,1,.612.311,1.516,1.516,0,0,1,.423.517,1.581,1.581,0,0,1,.157.724,1.943,1.943,0,0,1-.112.675,2.738,2.738,0,0,1-.293.576,3.886,3.886,0,0,1-.41.513q-.23.243-.473.477L1.134-.594H4.482ZM9.189-5.778h-2.6L6.543-3.861a2.11,2.11,0,0,1,.423-.117A2.624,2.624,0,0,1,7.4-4.014a2.119,2.119,0,0,1,.819.153,1.865,1.865,0,0,1,.634.428,1.965,1.965,0,0,1,.414.648,2.185,2.185,0,0,1,.148.814,2.136,2.136,0,0,1-.162.842,1.942,1.942,0,0,1-.45.657,2.059,2.059,0,0,1-.68.428,2.316,2.316,0,0,1-.85.153A2.1,2.1,0,0,1,6.183-.18a1.876,1.876,0,0,1-.747-.846l.648-.279a1.472,1.472,0,0,0,.5.6,1.288,1.288,0,0,0,.744.221A1.409,1.409,0,0,0,7.9-.6a1.478,1.478,0,0,0,.453-.3,1.392,1.392,0,0,0,.3-.45,1.4,1.4,0,0,0,.112-.558,1.567,1.567,0,0,0-.117-.612A1.449,1.449,0,0,0,8.325-3a1.4,1.4,0,0,0-.495-.311A1.781,1.781,0,0,0,7.2-3.42a2.509,2.509,0,0,0-.68.095,3.236,3.236,0,0,0-.643.256l.063-3.3H9.189Z" transform="translate(50.5 3852.109)" fill="#474747"/>
      <g id="Group_1662" data-name="Group 1662" transform="translate(19.655 3680.843)">
        <rect id="Rectangle_806" data-name="Rectangle 806" width="10.513" height="21" transform="translate(281.464 505.037)" fill="#9fa1a4"/>
        <rect id="Rectangle_807" data-name="Rectangle 807" width="10.513" height="41" transform="translate(267.019 485.037)" fill="#9fa1a4"/>
        <rect id="Rectangle_808" data-name="Rectangle 808" width="10.513" height="19" transform="translate(252.574 507.037)" fill="#9fa1a4"/>
        <rect id="Rectangle_809" data-name="Rectangle 809" width="10.513" height="78" transform="translate(238.129 448.037)" fill="#9fa1a4"/>
        <rect id="Rectangle_810" data-name="Rectangle 810" width="10.513" height="27" transform="translate(223.684 499.037)" fill="#9fa1a4"/>
        <rect id="Rectangle_811" data-name="Rectangle 811" width="10.513" height="75" transform="translate(209.239 451.037)" fill="#9fa1a4"/>
        <rect id="Rectangle_812" data-name="Rectangle 812" width="10.513" height="45" transform="translate(194.794 481.037)" fill="#9fa1a4"/>
        <rect id="Rectangle_813" data-name="Rectangle 813" width="10.513" height="75" transform="translate(180.349 451.037)" fill="#9fa1a4"/>
        <rect id="Rectangle_814" data-name="Rectangle 814" width="10.513" height="77" transform="translate(165.904 449.037)" fill="#9fa1a4"/>
        <rect id="Rectangle_815" data-name="Rectangle 815" width="10.513" height="123" transform="translate(151.46 403.037)" fill="#9fa1a4"/>
        <rect id="Rectangle_816" data-name="Rectangle 816" width="10.513" height="99" transform="translate(137.015 427.037)" fill="#9fa1a4"/>
        <rect id="Rectangle_817" data-name="Rectangle 817" width="10.513" height="108.143" transform="translate(122.57 417.894)" fill="#9fa1a4"/>
        <rect id="Rectangle_818" data-name="Rectangle 818" width="10.513" height="112.213" transform="translate(108.125 413.824)" fill="#9fa1a4"/>
        <rect id="Rectangle_819" data-name="Rectangle 819" width="10.513" height="116.236" transform="translate(93.68 409.801)" fill="#9fa1a4"/>
        <rect id="Rectangle_820" data-name="Rectangle 820" width="10.513" height="118.748" transform="translate(79.235 407.289)" fill="#9fa1a4"/>
        <rect id="Rectangle_821" data-name="Rectangle 821" width="10.513" height="136.608" transform="translate(64.79 389.429)" fill="#9fa1a4"/>
        <rect id="Rectangle_822" data-name="Rectangle 822" width="10.513" height="317.88" transform="translate(50.345 208.157)" fill="#9fa1a4"/>
        <path id="Path_2767" data-name="Path 2767" d="M295.909,526.037v-26h10.513v26" fill="#9fa1a4"/>
      </g>
      <path id="Path_3408" data-name="Path 3408" d="M79.749,21V6.42h3.168a5.57,5.57,0,0,1,2.565.495A2.841,2.841,0,0,1,86.832,8.4a6.543,6.543,0,0,1,.4,2.466V16.23a7.362,7.362,0,0,1-.4,2.61,3.112,3.112,0,0,1-1.314,1.611A4.692,4.692,0,0,1,83.079,21Zm2.034-1.458h1.152a2.316,2.316,0,0,0,1.584-.432,1.965,1.965,0,0,0,.567-1.26,17.17,17.17,0,0,0,.1-2V11.118a9.461,9.461,0,0,0-.144-1.836,1.538,1.538,0,0,0-.63-1.026,2.818,2.818,0,0,0-1.53-.324h-1.1ZM89.343,21V6.42h2V21Zm3.564,0L96,6.42h1.962L101.079,21H99.153l-.666-3.672h-2.97L94.815,21Zm2.88-5.13h2.43L96.993,9.3ZM102.555,21V6.42h2.934a6.466,6.466,0,0,1,2.412.387,2.693,2.693,0,0,1,1.413,1.242,4.733,4.733,0,0,1,.459,2.241,6.121,6.121,0,0,1-.18,1.539,2.972,2.972,0,0,1-.576,1.17,2.243,2.243,0,0,1-1.044.693L110.043,21h-1.962l-1.908-6.84h-1.584V21Zm2.034-8.3h.774a3.834,3.834,0,0,0,1.4-.216,1.447,1.447,0,0,0,.792-.738,3.422,3.422,0,0,0,.252-1.458,2.9,2.9,0,0,0-.468-1.845,2.348,2.348,0,0,0-1.854-.567h-.9ZM111.9,21V6.42h2.934a6.466,6.466,0,0,1,2.412.387,2.693,2.693,0,0,1,1.413,1.242,4.733,4.733,0,0,1,.459,2.241,6.121,6.121,0,0,1-.18,1.539,2.972,2.972,0,0,1-.576,1.17,2.243,2.243,0,0,1-1.044.693L119.385,21h-1.962l-1.908-6.84h-1.584V21Zm2.034-8.3h.774a3.834,3.834,0,0,0,1.4-.216,1.447,1.447,0,0,0,.792-.738,3.422,3.422,0,0,0,.252-1.458,2.9,2.9,0,0,0-.468-1.845,2.348,2.348,0,0,0-1.854-.567h-.9Zm7.308,8.3V6.42h2.034v6.3h3.744V6.42h2.034V21h-2.034V14.178h-3.744V21Zm10.1,0V6.42h5.652V7.932h-3.618v4.824h2.934V14.2h-2.934v5.346h3.654V21Zm6.534,0,3.1-14.58h1.962L146.043,21h-1.926l-.666-3.672h-2.97l-.7,3.672Zm2.88-5.13h2.43L141.957,9.3Z" transform="translate(75 3808.109)" fill="#636569"/>
      <path id="Path_3437" data-name="Path 3437" d="M0,0H376V484H0Z" transform="translate(-0.5 5236.109)" fill="rgba(130,54,149,0.12)"/>
      <path id="Path_2729" data-name="Path 2729" d="M0,0H377V484H0Z" transform="translate(-0.5 4270.109)" fill="rgba(250,136,13,0.1)"/>
      <path id="Path_3433" data-name="Path 3433" d="M0,0H376V484H0Z" transform="translate(-0.5 4753.109)" fill="rgba(232,223,237,0.35)"/>
      <path id="Path_3410" data-name="Path 3410" d="M96.453,21.162a3.906,3.906,0,0,1-2.4-.648,3.341,3.341,0,0,1-1.188-1.746,8.417,8.417,0,0,1-.333-2.448V11.172A8.9,8.9,0,0,1,92.862,8.6,3.113,3.113,0,0,1,94.05,6.9a4.123,4.123,0,0,1,2.4-.6,4.044,4.044,0,0,1,2.169.5,2.814,2.814,0,0,1,1.152,1.44,6.421,6.421,0,0,1,.351,2.25V11.64H98.2V10.614a11.186,11.186,0,0,0-.081-1.431,1.557,1.557,0,0,0-.441-.963,1.724,1.724,0,0,0-1.206-.342,1.807,1.807,0,0,0-1.26.369A1.8,1.8,0,0,0,94.7,9.291a9.326,9.326,0,0,0-.117,1.575v5.778a6.659,6.659,0,0,0,.18,1.737,1.522,1.522,0,0,0,.594.909,2.021,2.021,0,0,0,1.116.27,1.61,1.61,0,0,0,1.188-.369,1.757,1.757,0,0,0,.45-1.017,11.132,11.132,0,0,0,.09-1.512v-1.08h1.926v1.08a7.745,7.745,0,0,1-.324,2.349,3,3,0,0,1-1.116,1.584A3.788,3.788,0,0,1,96.453,21.162ZM104.3,21V15.852l-3.15-9.432h1.89l2.232,7.038,2.2-7.038h1.908l-3.132,9.432V21Zm10.08.162a3.906,3.906,0,0,1-2.4-.648,3.341,3.341,0,0,1-1.188-1.746,8.417,8.417,0,0,1-.333-2.448V11.172A8.9,8.9,0,0,1,110.79,8.6a3.113,3.113,0,0,1,1.188-1.7,4.123,4.123,0,0,1,2.4-.6,4.044,4.044,0,0,1,2.169.5,2.814,2.814,0,0,1,1.152,1.44,6.421,6.421,0,0,1,.351,2.25V11.64h-1.926V10.614a11.186,11.186,0,0,0-.081-1.431,1.557,1.557,0,0,0-.441-.963,1.724,1.724,0,0,0-1.206-.342,1.807,1.807,0,0,0-1.26.369,1.8,1.8,0,0,0-.513,1.044,9.326,9.326,0,0,0-.117,1.575v5.778a6.659,6.659,0,0,0,.18,1.737,1.522,1.522,0,0,0,.594.909,2.021,2.021,0,0,0,1.116.27,1.61,1.61,0,0,0,1.188-.369,1.757,1.757,0,0,0,.45-1.017,11.132,11.132,0,0,0,.09-1.512v-1.08h1.926v1.08a7.745,7.745,0,0,1-.324,2.349,3,3,0,0,1-1.116,1.584A3.788,3.788,0,0,1,114.381,21.162ZM120,21V6.42h2.034V19.542h3.726V21Zm7.146,0V6.42h5.652V7.932h-3.618v4.824h2.934V14.2h-2.934v5.346h3.654V21Z" transform="translate(75 4227.109)" fill="#823695"/>
      <path id="Path_3432" data-name="Path 3432" d="M96.453,21.162a3.906,3.906,0,0,1-2.4-.648,3.341,3.341,0,0,1-1.188-1.746,8.417,8.417,0,0,1-.333-2.448V11.172A8.9,8.9,0,0,1,92.862,8.6,3.113,3.113,0,0,1,94.05,6.9a4.123,4.123,0,0,1,2.4-.6,4.044,4.044,0,0,1,2.169.5,2.814,2.814,0,0,1,1.152,1.44,6.421,6.421,0,0,1,.351,2.25V11.64H98.2V10.614a11.186,11.186,0,0,0-.081-1.431,1.557,1.557,0,0,0-.441-.963,1.724,1.724,0,0,0-1.206-.342,1.807,1.807,0,0,0-1.26.369A1.8,1.8,0,0,0,94.7,9.291a9.326,9.326,0,0,0-.117,1.575v5.778a6.659,6.659,0,0,0,.18,1.737,1.522,1.522,0,0,0,.594.909,2.021,2.021,0,0,0,1.116.27,1.61,1.61,0,0,0,1.188-.369,1.757,1.757,0,0,0,.45-1.017,11.132,11.132,0,0,0,.09-1.512v-1.08h1.926v1.08a7.745,7.745,0,0,1-.324,2.349,3,3,0,0,1-1.116,1.584A3.788,3.788,0,0,1,96.453,21.162ZM104.3,21V15.852l-3.15-9.432h1.89l2.232,7.038,2.2-7.038h1.908l-3.132,9.432V21Zm10.08.162a3.906,3.906,0,0,1-2.4-.648,3.341,3.341,0,0,1-1.188-1.746,8.417,8.417,0,0,1-.333-2.448V11.172A8.9,8.9,0,0,1,110.79,8.6a3.113,3.113,0,0,1,1.188-1.7,4.123,4.123,0,0,1,2.4-.6,4.044,4.044,0,0,1,2.169.5,2.814,2.814,0,0,1,1.152,1.44,6.421,6.421,0,0,1,.351,2.25V11.64h-1.926V10.614a11.186,11.186,0,0,0-.081-1.431,1.557,1.557,0,0,0-.441-.963,1.724,1.724,0,0,0-1.206-.342,1.807,1.807,0,0,0-1.26.369,1.8,1.8,0,0,0-.513,1.044,9.326,9.326,0,0,0-.117,1.575v5.778a6.659,6.659,0,0,0,.18,1.737,1.522,1.522,0,0,0,.594.909,2.021,2.021,0,0,0,1.116.27,1.61,1.61,0,0,0,1.188-.369,1.757,1.757,0,0,0,.45-1.017,11.132,11.132,0,0,0,.09-1.512v-1.08h1.926v1.08a7.745,7.745,0,0,1-.324,2.349,3,3,0,0,1-1.116,1.584A3.788,3.788,0,0,1,114.381,21.162ZM120,21V6.42h2.034V19.542h3.726V21Zm7.146,0V6.42h5.652V7.932h-3.618v4.824h2.934V14.2h-2.934v5.346h3.654V21Z" transform="translate(75 4707.109)" fill="#823695"/>
      <path id="Path_3436" data-name="Path 3436" d="M96.453,21.162a3.906,3.906,0,0,1-2.4-.648,3.341,3.341,0,0,1-1.188-1.746,8.417,8.417,0,0,1-.333-2.448V11.172A8.9,8.9,0,0,1,92.862,8.6,3.113,3.113,0,0,1,94.05,6.9a4.123,4.123,0,0,1,2.4-.6,4.044,4.044,0,0,1,2.169.5,2.814,2.814,0,0,1,1.152,1.44,6.421,6.421,0,0,1,.351,2.25V11.64H98.2V10.614a11.186,11.186,0,0,0-.081-1.431,1.557,1.557,0,0,0-.441-.963,1.724,1.724,0,0,0-1.206-.342,1.807,1.807,0,0,0-1.26.369A1.8,1.8,0,0,0,94.7,9.291a9.326,9.326,0,0,0-.117,1.575v5.778a6.659,6.659,0,0,0,.18,1.737,1.522,1.522,0,0,0,.594.909,2.021,2.021,0,0,0,1.116.27,1.61,1.61,0,0,0,1.188-.369,1.757,1.757,0,0,0,.45-1.017,11.132,11.132,0,0,0,.09-1.512v-1.08h1.926v1.08a7.745,7.745,0,0,1-.324,2.349,3,3,0,0,1-1.116,1.584A3.788,3.788,0,0,1,96.453,21.162ZM104.3,21V15.852l-3.15-9.432h1.89l2.232,7.038,2.2-7.038h1.908l-3.132,9.432V21Zm10.08.162a3.906,3.906,0,0,1-2.4-.648,3.341,3.341,0,0,1-1.188-1.746,8.417,8.417,0,0,1-.333-2.448V11.172A8.9,8.9,0,0,1,110.79,8.6a3.113,3.113,0,0,1,1.188-1.7,4.123,4.123,0,0,1,2.4-.6,4.044,4.044,0,0,1,2.169.5,2.814,2.814,0,0,1,1.152,1.44,6.421,6.421,0,0,1,.351,2.25V11.64h-1.926V10.614a11.186,11.186,0,0,0-.081-1.431,1.557,1.557,0,0,0-.441-.963,1.724,1.724,0,0,0-1.206-.342,1.807,1.807,0,0,0-1.26.369,1.8,1.8,0,0,0-.513,1.044,9.326,9.326,0,0,0-.117,1.575v5.778a6.659,6.659,0,0,0,.18,1.737,1.522,1.522,0,0,0,.594.909,2.021,2.021,0,0,0,1.116.27,1.61,1.61,0,0,0,1.188-.369,1.757,1.757,0,0,0,.45-1.017,11.132,11.132,0,0,0,.09-1.512v-1.08h1.926v1.08a7.745,7.745,0,0,1-.324,2.349,3,3,0,0,1-1.116,1.584A3.788,3.788,0,0,1,114.381,21.162ZM120,21V6.42h2.034V19.542h3.726V21Zm7.146,0V6.42h5.652V7.932h-3.618v4.824h2.934V14.2h-2.934v5.346h3.654V21Z" transform="translate(75 5183.109)" fill="#823695"/>
      <path id="Path_3447" data-name="Path 3447" d="M96.453,21.162a3.906,3.906,0,0,1-2.4-.648,3.341,3.341,0,0,1-1.188-1.746,8.417,8.417,0,0,1-.333-2.448V11.172A8.9,8.9,0,0,1,92.862,8.6,3.113,3.113,0,0,1,94.05,6.9a4.123,4.123,0,0,1,2.4-.6,4.044,4.044,0,0,1,2.169.5,2.814,2.814,0,0,1,1.152,1.44,6.421,6.421,0,0,1,.351,2.25V11.64H98.2V10.614a11.186,11.186,0,0,0-.081-1.431,1.557,1.557,0,0,0-.441-.963,1.724,1.724,0,0,0-1.206-.342,1.807,1.807,0,0,0-1.26.369A1.8,1.8,0,0,0,94.7,9.291a9.326,9.326,0,0,0-.117,1.575v5.778a6.659,6.659,0,0,0,.18,1.737,1.522,1.522,0,0,0,.594.909,2.021,2.021,0,0,0,1.116.27,1.61,1.61,0,0,0,1.188-.369,1.757,1.757,0,0,0,.45-1.017,11.132,11.132,0,0,0,.09-1.512v-1.08h1.926v1.08a7.745,7.745,0,0,1-.324,2.349,3,3,0,0,1-1.116,1.584A3.788,3.788,0,0,1,96.453,21.162ZM104.3,21V15.852l-3.15-9.432h1.89l2.232,7.038,2.2-7.038h1.908l-3.132,9.432V21Zm10.08.162a3.906,3.906,0,0,1-2.4-.648,3.341,3.341,0,0,1-1.188-1.746,8.417,8.417,0,0,1-.333-2.448V11.172A8.9,8.9,0,0,1,110.79,8.6a3.113,3.113,0,0,1,1.188-1.7,4.123,4.123,0,0,1,2.4-.6,4.044,4.044,0,0,1,2.169.5,2.814,2.814,0,0,1,1.152,1.44,6.421,6.421,0,0,1,.351,2.25V11.64h-1.926V10.614a11.186,11.186,0,0,0-.081-1.431,1.557,1.557,0,0,0-.441-.963,1.724,1.724,0,0,0-1.206-.342,1.807,1.807,0,0,0-1.26.369,1.8,1.8,0,0,0-.513,1.044,9.326,9.326,0,0,0-.117,1.575v5.778a6.659,6.659,0,0,0,.18,1.737,1.522,1.522,0,0,0,.594.909,2.021,2.021,0,0,0,1.116.27,1.61,1.61,0,0,0,1.188-.369,1.757,1.757,0,0,0,.45-1.017,11.132,11.132,0,0,0,.09-1.512v-1.08h1.926v1.08a7.745,7.745,0,0,1-.324,2.349,3,3,0,0,1-1.116,1.584A3.788,3.788,0,0,1,114.381,21.162ZM120,21V6.42h2.034V19.542h3.726V21Zm7.146,0V6.42h5.652V7.932h-3.618v4.824h2.934V14.2h-2.934v5.346h3.654V21Z" transform="translate(75 5678.109)" fill="#823695"/>
      <path id="Path_3411" data-name="Path 3411" d="M87.219,21V6.42H88.6l4.14,9.684V6.42h1.692V21h-1.3l-4.194-9.954V21Zm8.712,0,3.1-14.58h1.962L104.1,21h-1.926l-.666-3.672h-2.97L97.839,21Zm2.88-5.13h2.43L100.017,9.3Zm10.53,5.292a4.016,4.016,0,0,1-2.43-.63,3.141,3.141,0,0,1-1.152-1.773,10.4,10.4,0,0,1-.306-2.673V6.42H107.4v9.756a10.682,10.682,0,0,0,.126,1.71,2.271,2.271,0,0,0,.549,1.224,2.027,2.027,0,0,0,2.547,0,2.309,2.309,0,0,0,.54-1.224,10.681,10.681,0,0,0,.126-1.71V6.42h1.926v9.666a10.4,10.4,0,0,1-.306,2.673,3.159,3.159,0,0,1-1.143,1.773A3.974,3.974,0,0,1,109.341,21.162Zm9.45,0a3.8,3.8,0,0,1-2.1-.54,3.4,3.4,0,0,1-1.269-1.494,6.192,6.192,0,0,1-.5-2.214l1.8-.486a8.089,8.089,0,0,0,.243,1.494,2.674,2.674,0,0,0,.621,1.179,1.576,1.576,0,0,0,1.206.459,1.545,1.545,0,0,0,1.2-.441,1.811,1.811,0,0,0,.405-1.269,2.6,2.6,0,0,0-.45-1.593,8.373,8.373,0,0,0-1.134-1.215l-2.448-2.16A4.118,4.118,0,0,1,115.3,11.5a4.424,4.424,0,0,1-.342-1.845,3.283,3.283,0,0,1,.918-2.484,3.46,3.46,0,0,1,2.5-.882,4.692,4.692,0,0,1,1.521.225,2.667,2.667,0,0,1,1.1.693,3.4,3.4,0,0,1,.7,1.179,6.662,6.662,0,0,1,.351,1.665l-1.728.468A7.168,7.168,0,0,0,120.1,9.2a1.97,1.97,0,0,0-.567-.972,1.665,1.665,0,0,0-1.161-.369,1.635,1.635,0,0,0-1.179.4,1.582,1.582,0,0,0-.423,1.2,2.367,2.367,0,0,0,.225,1.1,3.219,3.219,0,0,0,.729.882l2.466,2.16a7.7,7.7,0,0,1,1.458,1.719,4.344,4.344,0,0,1,.63,2.367,3.677,3.677,0,0,1-.45,1.863,3.035,3.035,0,0,1-1.233,1.2A3.813,3.813,0,0,1,118.791,21.162ZM123.867,21V6.42h5.652V7.932H125.9v4.824h2.934V14.2H125.9v5.346h3.654V21Zm6.534,0,3.1-14.58h1.962L138.573,21h-1.926l-.666-3.672h-2.97l-.7,3.672Zm2.88-5.13h2.43L134.487,9.3Z" transform="translate(75 4299.109)" fill="#e68709"/>
      <path id="Path_3434" data-name="Path 3434" d="M86.823,21V6.42h5.634V7.878h-3.6v4.86h2.79v1.44h-2.79V21Zm5.922,0,3.1-14.58H97.8L100.917,21H98.991l-.666-3.672h-2.97L94.653,21Zm2.88-5.13h2.43L96.831,9.3ZM103.419,21V7.932h-2.466V6.42h6.894V7.932h-2.394V21Zm5.94,0V6.42h2V21Zm7.83.18A3.689,3.689,0,0,1,115,20.595a3.277,3.277,0,0,1-1.188-1.7,8.593,8.593,0,0,1-.369-2.682V11.334a9.706,9.706,0,0,1,.333-2.727,3.073,3.073,0,0,1,1.188-1.719,4.135,4.135,0,0,1,2.385-.594,4.579,4.579,0,0,1,2.205.459,2.674,2.674,0,0,1,1.215,1.4,6.473,6.473,0,0,1,.378,2.385v.54h-1.908v-.45a7.854,7.854,0,0,0-.126-1.557,1.46,1.46,0,0,0-.513-.9,2,2,0,0,0-1.215-.3,1.764,1.764,0,0,0-1.305.414,1.94,1.94,0,0,0-.5,1.125,11.774,11.774,0,0,0-.1,1.611v5.4a8.377,8.377,0,0,0,.153,1.746,1.751,1.751,0,0,0,.585,1.044,1.93,1.93,0,0,0,1.224.342,1.8,1.8,0,0,0,1.224-.378,2,2,0,0,0,.594-1.116,8.748,8.748,0,0,0,.162-1.836V15.222h-1.854v-1.44h3.69V21h-1.278l-.2-1.674a3.06,3.06,0,0,1-.9,1.332A2.526,2.526,0,0,1,117.189,21.18Zm9.918-.018a4.016,4.016,0,0,1-2.43-.63,3.141,3.141,0,0,1-1.152-1.773,10.4,10.4,0,0,1-.306-2.673V6.42h1.944v9.756a10.682,10.682,0,0,0,.126,1.71,2.271,2.271,0,0,0,.549,1.224,2.027,2.027,0,0,0,2.547,0,2.309,2.309,0,0,0,.54-1.224,10.682,10.682,0,0,0,.126-1.71V6.42h1.926v9.666a10.4,10.4,0,0,1-.306,2.673,3.159,3.159,0,0,1-1.143,1.773A3.974,3.974,0,0,1,127.107,21.162ZM133.119,21V6.42h5.652V7.932h-3.618v4.824h2.934V14.2h-2.934v5.346h3.654V21Z" transform="translate(75 4781.109)" fill="#823695"/>
      <path id="Path_3438" data-name="Path 3438" d="M67.7,21V6.42h1.386l4.14,9.684V6.42h1.692V21h-1.3l-4.194-9.954V21Zm9.5,0V6.42h5.652V7.932H79.236v4.824H82.17V14.2H79.236v5.346H82.89V21Zm11.088.162a4.016,4.016,0,0,1-2.43-.63,3.141,3.141,0,0,1-1.152-1.773,10.4,10.4,0,0,1-.306-2.673V6.42h1.944v9.756a10.682,10.682,0,0,0,.126,1.71,2.271,2.271,0,0,0,.549,1.224,2.027,2.027,0,0,0,2.547,0,2.309,2.309,0,0,0,.54-1.224,10.681,10.681,0,0,0,.126-1.71V6.42H92.16v9.666a10.4,10.4,0,0,1-.306,2.673,3.159,3.159,0,0,1-1.143,1.773A3.974,3.974,0,0,1,88.29,21.162ZM95.9,21V7.932H93.438V6.42h6.894V7.932H97.938V21Zm5.832,0V6.42h2.934a6.466,6.466,0,0,1,2.412.387A2.693,2.693,0,0,1,108.5,8.049a4.733,4.733,0,0,1,.459,2.241,6.121,6.121,0,0,1-.18,1.539A2.972,2.972,0,0,1,108.2,13a2.243,2.243,0,0,1-1.044.693L109.224,21h-1.962l-1.908-6.84H103.77V21Zm2.034-8.3h.774a3.834,3.834,0,0,0,1.4-.216,1.447,1.447,0,0,0,.792-.738,3.422,3.422,0,0,0,.252-1.458,2.9,2.9,0,0,0-.468-1.845,2.348,2.348,0,0,0-1.854-.567h-.9Zm11.034,8.46a4.26,4.26,0,0,1-2.358-.576,3.153,3.153,0,0,1-1.26-1.647,7.546,7.546,0,0,1-.378-2.511V10.9a7.076,7.076,0,0,1,.387-2.475,3.084,3.084,0,0,1,1.26-1.584,4.377,4.377,0,0,1,2.349-.549,4.273,4.273,0,0,1,2.34.558A3.148,3.148,0,0,1,118.4,8.436a7,7,0,0,1,.387,2.466v5.544a7.248,7.248,0,0,1-.387,2.484,3.282,3.282,0,0,1-1.251,1.647A4.118,4.118,0,0,1,114.8,21.162Zm0-1.6a1.921,1.921,0,0,0,1.224-.333,1.647,1.647,0,0,0,.558-.936,6.134,6.134,0,0,0,.144-1.413v-6.39a5.9,5.9,0,0,0-.144-1.395,1.552,1.552,0,0,0-.558-.9,2,2,0,0,0-1.224-.315,2.043,2.043,0,0,0-1.233.315,1.534,1.534,0,0,0-.567.9,5.9,5.9,0,0,0-.144,1.395v6.39A6.134,6.134,0,0,0,113,18.291a1.627,1.627,0,0,0,.567.936A1.961,1.961,0,0,0,114.8,19.56ZM120.78,21V6.42H124.4a4,4,0,0,1,2.1.477,2.762,2.762,0,0,1,1.143,1.377,5.869,5.869,0,0,1,.36,2.178,4.584,4.584,0,0,1-.4,2,2.936,2.936,0,0,1-1.2,1.3,3.9,3.9,0,0,1-1.98.459h-1.6V21Zm2.034-8.244h.936a3.9,3.9,0,0,0,1.386-.2,1.259,1.259,0,0,0,.72-.693,3.592,3.592,0,0,0,.216-1.395,6.41,6.41,0,0,0-.153-1.6,1.12,1.12,0,0,0-.639-.774,3.948,3.948,0,0,0-1.512-.216h-.954ZM129.42,21V6.42h5.652V7.932h-3.618v4.824h2.934V14.2h-2.934v5.346h3.654V21Zm7.326,0V6.42h1.386l4.14,9.684V6.42h1.692V21h-1.3l-4.194-9.954V21Zm9.612,0V6.42h2V21Zm3.564,0,3.1-14.58h1.962L158.094,21h-1.926l-.666-3.672h-2.97L151.83,21Zm2.88-5.13h2.43L154.008,9.3Z" transform="translate(75 5258.109)" fill="#823695"/>
      <path id="Path_2579" data-name="Path 2579" d="M76.4,39.093h262.39m-262.39,71h262.39m-262.39,72h262.39m-262.39,71h262.39m-262.39,71h262.39" transform="translate(-0.101 4301.517)" fill="none" stroke="#d1d0d0" stroke-linejoin="round" stroke-width="0.75"/>
      <path id="Path_3430" data-name="Path 3430" d="M0,0H262.2" transform="translate(76.299 4697.609)" fill="none" stroke="#d1d0d0" stroke-width="0.75"/>
      <path id="Path_3431" data-name="Path 3431" d="M2.5-5.886a1.165,1.165,0,0,0-.824.279,1.757,1.757,0,0,0-.455.693,3.371,3.371,0,0,0-.194.882q-.041.468-.04.846t.04.846a3.371,3.371,0,0,0,.194.882,1.757,1.757,0,0,0,.455.693A1.165,1.165,0,0,0,2.5-.486a1.165,1.165,0,0,0,.823-.279,1.757,1.757,0,0,0,.455-.693,3.371,3.371,0,0,0,.193-.882q.04-.468.04-.846t-.04-.846a3.371,3.371,0,0,0-.193-.882,1.757,1.757,0,0,0-.455-.693A1.165,1.165,0,0,0,2.5-5.886Zm0-.594a1.807,1.807,0,0,1,1.107.315,2.14,2.14,0,0,1,.657.8A3.584,3.584,0,0,1,4.581-4.3a8.05,8.05,0,0,1,.081,1.112,8.05,8.05,0,0,1-.081,1.112,3.584,3.584,0,0,1-.315,1.067,2.14,2.14,0,0,1-.657.8A1.807,1.807,0,0,1,2.5.108,1.807,1.807,0,0,1,1.395-.207a2.14,2.14,0,0,1-.657-.8A3.584,3.584,0,0,1,.423-2.075,8.05,8.05,0,0,1,.342-3.186,8.05,8.05,0,0,1,.423-4.3,3.584,3.584,0,0,1,.738-5.364a2.14,2.14,0,0,1,.657-.8A1.807,1.807,0,0,1,2.5-6.48Z" transform="translate(62.272 4700.109)" fill="#474747"/>
      <path id="Path_3429" data-name="Path 3429" d="M4.185-5.778h-2.6L1.539-3.861a2.11,2.11,0,0,1,.423-.117,2.624,2.624,0,0,1,.432-.036,2.119,2.119,0,0,1,.819.153,1.865,1.865,0,0,1,.634.428,1.965,1.965,0,0,1,.414.648,2.185,2.185,0,0,1,.148.814,2.136,2.136,0,0,1-.162.842,1.942,1.942,0,0,1-.45.657,2.059,2.059,0,0,1-.68.428,2.316,2.316,0,0,1-.85.153A2.1,2.1,0,0,1,1.179-.18a1.876,1.876,0,0,1-.747-.846l.648-.279a1.472,1.472,0,0,0,.5.6,1.288,1.288,0,0,0,.744.221A1.409,1.409,0,0,0,2.892-.6a1.478,1.478,0,0,0,.453-.3,1.392,1.392,0,0,0,.3-.45,1.4,1.4,0,0,0,.112-.558,1.567,1.567,0,0,0-.117-.612A1.449,1.449,0,0,0,3.321-3a1.4,1.4,0,0,0-.495-.311A1.781,1.781,0,0,0,2.2-3.42a2.509,2.509,0,0,0-.68.095,3.236,3.236,0,0,0-.643.256l.063-3.3H4.185Z" transform="translate(62.272 4629.109)" fill="#474747"/>
      <path id="Path_3428" data-name="Path 3428" d="M3.132,0H2.484V-5.562L1.341-4.554.936-5.04l1.62-1.332h.576ZM7.506-5.886a1.165,1.165,0,0,0-.824.279,1.757,1.757,0,0,0-.455.693,3.371,3.371,0,0,0-.194.882q-.04.468-.04.846t.04.846a3.371,3.371,0,0,0,.194.882,1.757,1.757,0,0,0,.455.693,1.165,1.165,0,0,0,.824.279A1.165,1.165,0,0,0,8.33-.765a1.757,1.757,0,0,0,.455-.693,3.371,3.371,0,0,0,.193-.882q.04-.468.04-.846t-.04-.846a3.371,3.371,0,0,0-.193-.882,1.757,1.757,0,0,0-.455-.693A1.165,1.165,0,0,0,7.506-5.886Zm0-.594a1.807,1.807,0,0,1,1.107.315,2.14,2.14,0,0,1,.657.8A3.584,3.584,0,0,1,9.585-4.3a8.05,8.05,0,0,1,.081,1.112,8.05,8.05,0,0,1-.081,1.112A3.584,3.584,0,0,1,9.27-1.008a2.14,2.14,0,0,1-.657.8A1.807,1.807,0,0,1,7.506.108,1.807,1.807,0,0,1,6.4-.207a2.14,2.14,0,0,1-.657-.8,3.584,3.584,0,0,1-.315-1.067,8.05,8.05,0,0,1-.081-1.112A8.05,8.05,0,0,1,5.427-4.3a3.584,3.584,0,0,1,.315-1.067,2.14,2.14,0,0,1,.657-.8A1.807,1.807,0,0,1,7.506-6.48Z" transform="translate(57.268 4557.109)" fill="#474747"/>
      <path id="Path_3427" data-name="Path 3427" d="M3.132,0H2.484V-5.562L1.341-4.554.936-5.04l1.62-1.332h.576ZM9.189-5.778h-2.6L6.543-3.861a2.11,2.11,0,0,1,.423-.117A2.624,2.624,0,0,1,7.4-4.014a2.119,2.119,0,0,1,.819.153,1.865,1.865,0,0,1,.634.428,1.965,1.965,0,0,1,.414.648,2.185,2.185,0,0,1,.148.814,2.136,2.136,0,0,1-.162.842,1.942,1.942,0,0,1-.45.657,2.059,2.059,0,0,1-.68.428,2.316,2.316,0,0,1-.85.153A2.1,2.1,0,0,1,6.183-.18a1.876,1.876,0,0,1-.747-.846l.648-.279a1.472,1.472,0,0,0,.5.6,1.288,1.288,0,0,0,.744.221A1.409,1.409,0,0,0,7.9-.6a1.478,1.478,0,0,0,.453-.3,1.392,1.392,0,0,0,.3-.45,1.4,1.4,0,0,0,.112-.558,1.567,1.567,0,0,0-.117-.612A1.449,1.449,0,0,0,8.325-3a1.4,1.4,0,0,0-.495-.311A1.781,1.781,0,0,0,7.2-3.42a2.509,2.509,0,0,0-.68.095,3.236,3.236,0,0,0-.643.256l.063-3.3H9.189Z" transform="translate(57.268 4486.109)" fill="#474747"/>
      <path id="Path_3425" data-name="Path 3425" d="M4.482,0H.432V-.747L2.97-3.33q.144-.144.288-.306a2.862,2.862,0,0,0,.261-.342,1.855,1.855,0,0,0,.189-.378A1.2,1.2,0,0,0,3.78-4.77a1.115,1.115,0,0,0-.094-.468.99.99,0,0,0-.266-.351,1.215,1.215,0,0,0-.4-.22,1.472,1.472,0,0,0-.477-.077,1.3,1.3,0,0,0-.828.27,1.225,1.225,0,0,0-.441.729L.594-4.959a1.784,1.784,0,0,1,.653-1.116A1.975,1.975,0,0,1,2.5-6.48a2.55,2.55,0,0,1,.733.1,1.842,1.842,0,0,1,.612.311,1.516,1.516,0,0,1,.423.517,1.581,1.581,0,0,1,.157.724,1.943,1.943,0,0,1-.112.675,2.738,2.738,0,0,1-.293.576,3.886,3.886,0,0,1-.41.513q-.23.243-.473.477L1.134-.594H4.482ZM7.506-5.886a1.165,1.165,0,0,0-.824.279,1.757,1.757,0,0,0-.455.693,3.371,3.371,0,0,0-.194.882q-.04.468-.04.846t.04.846a3.371,3.371,0,0,0,.194.882,1.757,1.757,0,0,0,.455.693,1.165,1.165,0,0,0,.824.279A1.165,1.165,0,0,0,8.33-.765a1.757,1.757,0,0,0,.455-.693,3.371,3.371,0,0,0,.193-.882q.04-.468.04-.846t-.04-.846a3.371,3.371,0,0,0-.193-.882,1.757,1.757,0,0,0-.455-.693A1.165,1.165,0,0,0,7.506-5.886Zm0-.594a1.807,1.807,0,0,1,1.107.315,2.14,2.14,0,0,1,.657.8A3.584,3.584,0,0,1,9.585-4.3a8.05,8.05,0,0,1,.081,1.112,8.05,8.05,0,0,1-.081,1.112A3.584,3.584,0,0,1,9.27-1.008a2.14,2.14,0,0,1-.657.8A1.807,1.807,0,0,1,7.506.108,1.807,1.807,0,0,1,6.4-.207a2.14,2.14,0,0,1-.657-.8,3.584,3.584,0,0,1-.315-1.067,8.05,8.05,0,0,1-.081-1.112A8.05,8.05,0,0,1,5.427-4.3a3.584,3.584,0,0,1,.315-1.067,2.14,2.14,0,0,1,.657-.8A1.807,1.807,0,0,1,7.506-6.48Z" transform="translate(57.268 4415.109)" fill="#474747"/>
      <path id="Path_3412" data-name="Path 3412" d="M4.482,0H.432V-.747L2.97-3.33q.144-.144.288-.306a2.862,2.862,0,0,0,.261-.342,1.855,1.855,0,0,0,.189-.378A1.2,1.2,0,0,0,3.78-4.77a1.115,1.115,0,0,0-.094-.468.99.99,0,0,0-.266-.351,1.215,1.215,0,0,0-.4-.22,1.472,1.472,0,0,0-.477-.077,1.3,1.3,0,0,0-.828.27,1.225,1.225,0,0,0-.441.729L.594-4.959a1.784,1.784,0,0,1,.653-1.116A1.975,1.975,0,0,1,2.5-6.48a2.55,2.55,0,0,1,.733.1,1.842,1.842,0,0,1,.612.311,1.516,1.516,0,0,1,.423.517,1.581,1.581,0,0,1,.157.724,1.943,1.943,0,0,1-.112.675,2.738,2.738,0,0,1-.293.576,3.886,3.886,0,0,1-.41.513q-.23.243-.473.477L1.134-.594H4.482ZM9.189-5.778h-2.6L6.543-3.861a2.11,2.11,0,0,1,.423-.117A2.624,2.624,0,0,1,7.4-4.014a2.119,2.119,0,0,1,.819.153,1.865,1.865,0,0,1,.634.428,1.965,1.965,0,0,1,.414.648,2.185,2.185,0,0,1,.148.814,2.136,2.136,0,0,1-.162.842,1.942,1.942,0,0,1-.45.657,2.059,2.059,0,0,1-.68.428,2.316,2.316,0,0,1-.85.153A2.1,2.1,0,0,1,6.183-.18a1.876,1.876,0,0,1-.747-.846l.648-.279a1.472,1.472,0,0,0,.5.6,1.288,1.288,0,0,0,.744.221A1.409,1.409,0,0,0,7.9-.6a1.478,1.478,0,0,0,.453-.3,1.392,1.392,0,0,0,.3-.45,1.4,1.4,0,0,0,.112-.558,1.567,1.567,0,0,0-.117-.612A1.449,1.449,0,0,0,8.325-3a1.4,1.4,0,0,0-.495-.311A1.781,1.781,0,0,0,7.2-3.42a2.509,2.509,0,0,0-.68.095,3.236,3.236,0,0,0-.643.256l.063-3.3H9.189Z" transform="translate(57.268 4343.109)" fill="#474747"/>
      <path id="Path_3413" data-name="Path 3413" d="M0,0H260V381H0Z" transform="translate(75.732 4340.609)" fill="none"/>
      <path id="Path_3414" data-name="Path 3414" d="M0,0H271V388H0Z" transform="translate(75.732 4340.609)" fill="none"/>
      <path id="Path_3415" data-name="Path 3415" d="M0,0H274V388H0Z" transform="translate(75.732 4340.609)" fill="none"/>
      <path id="Path_3416" data-name="Path 3416" d="M0,0H274V385H0Z" transform="translate(75.732 4340.609)" fill="none"/>
      <path id="Path_3417" data-name="Path 3417" d="M0,0H268V385H0Z" transform="translate(75.732 4340.609)" fill="none"/>
      <path id="Path_3418" data-name="Path 3418" d="M0,0H277V385H0Z" transform="translate(75.732 4340.609)" fill="none"/>
      <path id="Path_3419" data-name="Path 3419" d="M0,0H271V385H0Z" transform="translate(75.732 4340.609)" fill="none"/>
      <path id="Path_3420" data-name="Path 3420" d="M0,0H268V367H0Z" transform="translate(75.732 4340.609)" fill="none"/>
      <path id="Path_3421" data-name="Path 3421" d="M0,0H271V363H0Z" transform="translate(75.732 4340.609)" fill="none"/>
      <path id="Path_3422" data-name="Path 3422" d="M0,0H265V360H0Z" transform="translate(75.732 4340.609)" fill="none"/>
      <path id="Path_3423" data-name="Path 3423" d="M0,0H283V388H0Z" transform="translate(75.732 4340.609)" fill="none"/>
      <path id="Path_3424" data-name="Path 3424" d="M0,0H265V363H0Z" transform="translate(75.732 4340.609)" fill="none"/>
      <path id="Path_2580" data-name="Path 2580" d="M83.879,39.093h241m-241,71h241m-241,72h241m-241,71h241m-241,71h241" transform="translate(-7.348 4779.517)" fill="none" stroke="#d1d0d0" stroke-linejoin="round" stroke-width="0.75"/>
      <path id="Path_3470" data-name="Path 3470" d="M0,0H241" transform="translate(76.531 5175.609)" fill="none" stroke="#d1d0d0" stroke-width="0.75"/>
      <path id="Path_3471" data-name="Path 3471" d="M2.5-5.886a1.165,1.165,0,0,0-.824.279,1.757,1.757,0,0,0-.455.693,3.371,3.371,0,0,0-.194.882q-.041.468-.04.846t.04.846a3.371,3.371,0,0,0,.194.882,1.757,1.757,0,0,0,.455.693A1.165,1.165,0,0,0,2.5-.486a1.165,1.165,0,0,0,.823-.279,1.757,1.757,0,0,0,.455-.693,3.371,3.371,0,0,0,.193-.882q.04-.468.04-.846t-.04-.846a3.371,3.371,0,0,0-.193-.882,1.757,1.757,0,0,0-.455-.693A1.165,1.165,0,0,0,2.5-5.886Zm0-.594a1.807,1.807,0,0,1,1.107.315,2.14,2.14,0,0,1,.657.8A3.584,3.584,0,0,1,4.581-4.3a8.05,8.05,0,0,1,.081,1.112,8.05,8.05,0,0,1-.081,1.112,3.584,3.584,0,0,1-.315,1.067,2.14,2.14,0,0,1-.657.8A1.807,1.807,0,0,1,2.5.108,1.807,1.807,0,0,1,1.395-.207a2.14,2.14,0,0,1-.657-.8A3.584,3.584,0,0,1,.423-2.075,8.05,8.05,0,0,1,.342-3.186,8.05,8.05,0,0,1,.423-4.3,3.584,3.584,0,0,1,.738-5.364a2.14,2.14,0,0,1,.657-.8A1.807,1.807,0,0,1,2.5-6.48Z" transform="translate(62.505 5178.109)" fill="#474747"/>
      <path id="Path_3472" data-name="Path 3472" d="M4.185-5.778h-2.6L1.539-3.861a2.11,2.11,0,0,1,.423-.117,2.624,2.624,0,0,1,.432-.036,2.119,2.119,0,0,1,.819.153,1.865,1.865,0,0,1,.634.428,1.965,1.965,0,0,1,.414.648,2.185,2.185,0,0,1,.148.814,2.136,2.136,0,0,1-.162.842,1.942,1.942,0,0,1-.45.657,2.059,2.059,0,0,1-.68.428,2.316,2.316,0,0,1-.85.153A2.1,2.1,0,0,1,1.179-.18a1.876,1.876,0,0,1-.747-.846l.648-.279a1.472,1.472,0,0,0,.5.6,1.288,1.288,0,0,0,.744.221A1.409,1.409,0,0,0,2.892-.6a1.478,1.478,0,0,0,.453-.3,1.392,1.392,0,0,0,.3-.45,1.4,1.4,0,0,0,.112-.558,1.567,1.567,0,0,0-.117-.612A1.449,1.449,0,0,0,3.321-3a1.4,1.4,0,0,0-.495-.311A1.781,1.781,0,0,0,2.2-3.42a2.509,2.509,0,0,0-.68.095,3.236,3.236,0,0,0-.643.256l.063-3.3H4.185Z" transform="translate(62.505 5107.109)" fill="#474747"/>
      <path id="Path_3473" data-name="Path 3473" d="M3.132,0H2.484V-5.562L1.341-4.554.936-5.04l1.62-1.332h.576ZM7.506-5.886a1.165,1.165,0,0,0-.824.279,1.757,1.757,0,0,0-.455.693,3.371,3.371,0,0,0-.194.882q-.04.468-.04.846t.04.846a3.371,3.371,0,0,0,.194.882,1.757,1.757,0,0,0,.455.693,1.165,1.165,0,0,0,.824.279A1.165,1.165,0,0,0,8.33-.765a1.757,1.757,0,0,0,.455-.693,3.371,3.371,0,0,0,.193-.882q.04-.468.04-.846t-.04-.846a3.371,3.371,0,0,0-.193-.882,1.757,1.757,0,0,0-.455-.693A1.165,1.165,0,0,0,7.506-5.886Zm0-.594a1.807,1.807,0,0,1,1.107.315,2.14,2.14,0,0,1,.657.8A3.584,3.584,0,0,1,9.585-4.3a8.05,8.05,0,0,1,.081,1.112,8.05,8.05,0,0,1-.081,1.112A3.584,3.584,0,0,1,9.27-1.008a2.14,2.14,0,0,1-.657.8A1.807,1.807,0,0,1,7.506.108,1.807,1.807,0,0,1,6.4-.207a2.14,2.14,0,0,1-.657-.8,3.584,3.584,0,0,1-.315-1.067,8.05,8.05,0,0,1-.081-1.112A8.05,8.05,0,0,1,5.427-4.3a3.584,3.584,0,0,1,.315-1.067,2.14,2.14,0,0,1,.657-.8A1.807,1.807,0,0,1,7.506-6.48Z" transform="translate(57.5 5035.109)" fill="#474747"/>
      <path id="Path_3474" data-name="Path 3474" d="M3.132,0H2.484V-5.562L1.341-4.554.936-5.04l1.62-1.332h.576ZM9.189-5.778h-2.6L6.543-3.861a2.11,2.11,0,0,1,.423-.117A2.624,2.624,0,0,1,7.4-4.014a2.119,2.119,0,0,1,.819.153,1.865,1.865,0,0,1,.634.428,1.965,1.965,0,0,1,.414.648,2.185,2.185,0,0,1,.148.814,2.136,2.136,0,0,1-.162.842,1.942,1.942,0,0,1-.45.657,2.059,2.059,0,0,1-.68.428,2.316,2.316,0,0,1-.85.153A2.1,2.1,0,0,1,6.183-.18a1.876,1.876,0,0,1-.747-.846l.648-.279a1.472,1.472,0,0,0,.5.6,1.288,1.288,0,0,0,.744.221A1.409,1.409,0,0,0,7.9-.6a1.478,1.478,0,0,0,.453-.3,1.392,1.392,0,0,0,.3-.45,1.4,1.4,0,0,0,.112-.558,1.567,1.567,0,0,0-.117-.612A1.449,1.449,0,0,0,8.325-3a1.4,1.4,0,0,0-.495-.311A1.781,1.781,0,0,0,7.2-3.42a2.509,2.509,0,0,0-.68.095,3.236,3.236,0,0,0-.643.256l.063-3.3H9.189Z" transform="translate(57.5 4964.109)" fill="#474747"/>
      <path id="Path_3475" data-name="Path 3475" d="M4.482,0H.432V-.747L2.97-3.33q.144-.144.288-.306a2.862,2.862,0,0,0,.261-.342,1.855,1.855,0,0,0,.189-.378A1.2,1.2,0,0,0,3.78-4.77a1.115,1.115,0,0,0-.094-.468.99.99,0,0,0-.266-.351,1.215,1.215,0,0,0-.4-.22,1.472,1.472,0,0,0-.477-.077,1.3,1.3,0,0,0-.828.27,1.225,1.225,0,0,0-.441.729L.594-4.959a1.784,1.784,0,0,1,.653-1.116A1.975,1.975,0,0,1,2.5-6.48a2.55,2.55,0,0,1,.733.1,1.842,1.842,0,0,1,.612.311,1.516,1.516,0,0,1,.423.517,1.581,1.581,0,0,1,.157.724,1.943,1.943,0,0,1-.112.675,2.738,2.738,0,0,1-.293.576,3.886,3.886,0,0,1-.41.513q-.23.243-.473.477L1.134-.594H4.482ZM7.506-5.886a1.165,1.165,0,0,0-.824.279,1.757,1.757,0,0,0-.455.693,3.371,3.371,0,0,0-.194.882q-.04.468-.04.846t.04.846a3.371,3.371,0,0,0,.194.882,1.757,1.757,0,0,0,.455.693,1.165,1.165,0,0,0,.824.279A1.165,1.165,0,0,0,8.33-.765a1.757,1.757,0,0,0,.455-.693,3.371,3.371,0,0,0,.193-.882q.04-.468.04-.846t-.04-.846a3.371,3.371,0,0,0-.193-.882,1.757,1.757,0,0,0-.455-.693A1.165,1.165,0,0,0,7.506-5.886Zm0-.594a1.807,1.807,0,0,1,1.107.315,2.14,2.14,0,0,1,.657.8A3.584,3.584,0,0,1,9.585-4.3a8.05,8.05,0,0,1,.081,1.112,8.05,8.05,0,0,1-.081,1.112A3.584,3.584,0,0,1,9.27-1.008a2.14,2.14,0,0,1-.657.8A1.807,1.807,0,0,1,7.506.108,1.807,1.807,0,0,1,6.4-.207a2.14,2.14,0,0,1-.657-.8,3.584,3.584,0,0,1-.315-1.067,8.05,8.05,0,0,1-.081-1.112A8.05,8.05,0,0,1,5.427-4.3a3.584,3.584,0,0,1,.315-1.067,2.14,2.14,0,0,1,.657-.8A1.807,1.807,0,0,1,7.506-6.48Z" transform="translate(57.5 4893.109)" fill="#474747"/>
      <path id="Path_3476" data-name="Path 3476" d="M4.482,0H.432V-.747L2.97-3.33q.144-.144.288-.306a2.862,2.862,0,0,0,.261-.342,1.855,1.855,0,0,0,.189-.378A1.2,1.2,0,0,0,3.78-4.77a1.115,1.115,0,0,0-.094-.468.99.99,0,0,0-.266-.351,1.215,1.215,0,0,0-.4-.22,1.472,1.472,0,0,0-.477-.077,1.3,1.3,0,0,0-.828.27,1.225,1.225,0,0,0-.441.729L.594-4.959a1.784,1.784,0,0,1,.653-1.116A1.975,1.975,0,0,1,2.5-6.48a2.55,2.55,0,0,1,.733.1,1.842,1.842,0,0,1,.612.311,1.516,1.516,0,0,1,.423.517,1.581,1.581,0,0,1,.157.724,1.943,1.943,0,0,1-.112.675,2.738,2.738,0,0,1-.293.576,3.886,3.886,0,0,1-.41.513q-.23.243-.473.477L1.134-.594H4.482ZM9.189-5.778h-2.6L6.543-3.861a2.11,2.11,0,0,1,.423-.117A2.624,2.624,0,0,1,7.4-4.014a2.119,2.119,0,0,1,.819.153,1.865,1.865,0,0,1,.634.428,1.965,1.965,0,0,1,.414.648,2.185,2.185,0,0,1,.148.814,2.136,2.136,0,0,1-.162.842,1.942,1.942,0,0,1-.45.657,2.059,2.059,0,0,1-.68.428,2.316,2.316,0,0,1-.85.153A2.1,2.1,0,0,1,6.183-.18a1.876,1.876,0,0,1-.747-.846l.648-.279a1.472,1.472,0,0,0,.5.6,1.288,1.288,0,0,0,.744.221A1.409,1.409,0,0,0,7.9-.6a1.478,1.478,0,0,0,.453-.3,1.392,1.392,0,0,0,.3-.45,1.4,1.4,0,0,0,.112-.558,1.567,1.567,0,0,0-.117-.612A1.449,1.449,0,0,0,8.325-3a1.4,1.4,0,0,0-.495-.311A1.781,1.781,0,0,0,7.2-3.42a2.509,2.509,0,0,0-.68.095,3.236,3.236,0,0,0-.643.256l.063-3.3H9.189Z" transform="translate(57.5 4821.109)" fill="#474747"/>
      <path id="Path_3477" data-name="Path 3477" d="M0,0H10V171H0Z" transform="translate(89.036 5004.109)" fill="#ab88bd"/>
      <path id="Path_3478" data-name="Path 3478" d="M0,0H10V92H0Z" transform="translate(101.036 5083.109)" fill="#ab88bd"/>
      <path id="Path_3479" data-name="Path 3479" d="M0,0H9V50H0Z" transform="translate(114.036 5125.109)" fill="#ab88bd"/>
      <path id="Path_3480" data-name="Path 3480" d="M0,0H10V48H0Z" transform="translate(126.036 5127.109)" fill="#ab88bd"/>
      <path id="Path_3481" data-name="Path 3481" d="M0,0H10V18H0Z" transform="translate(138.036 5157.109)" fill="#ab88bd"/>
      <path id="Path_3482" data-name="Path 3482" d="M0,0H9V14H0Z" transform="translate(151.036 5161.109)" fill="#ab88bd"/>
      <path id="Path_3483" data-name="Path 3483" d="M0,0H10V15H0Z" transform="translate(163.036 5160.109)" fill="#ab88bd"/>
      <path id="Path_3484" data-name="Path 3484" d="M0,0H10V27H0Z" transform="translate(175.036 5148.109)" fill="#ab88bd"/>
      <path id="Path_3485" data-name="Path 3485" d="M0,0H9V35H0Z" transform="translate(188.036 5140.109)" fill="#ab88bd"/>
      <path id="Path_3486" data-name="Path 3486" d="M0,0H10V28H0Z" transform="translate(200.036 5147.109)" fill="#ab88bd"/>
      <path id="Path_3487" data-name="Path 3487" d="M0,0H10V11H0Z" transform="translate(212.036 5164.109)" fill="#ab88bd"/>
      <path id="Path_3488" data-name="Path 3488" d="M0,0H10V13H0Z" transform="translate(225.036 5162.109)" fill="#ab88bd"/>
      <path id="Path_3489" data-name="Path 3489" d="M0,0H10V30H0Z" transform="translate(262.036 5145.109)" fill="#ab88bd"/>
      <path id="Path_2581" data-name="Path 2581" d="M83.879,39.093h241m-241,71h241m-241,72h241m-241,71h241m-241,71h241" transform="translate(-7.348 5269.517)" fill="none" stroke="#d1d0d0" stroke-linejoin="round" stroke-width="0.75"/>
      <path id="Path_3446" data-name="Path 3446" d="M0,0H241" transform="translate(76.531 5665.609)" fill="none" stroke="#d1d0d0" stroke-width="0.75"/>
      <path id="Path_3445" data-name="Path 3445" d="M2.5-5.886a1.165,1.165,0,0,0-.824.279,1.757,1.757,0,0,0-.455.693,3.371,3.371,0,0,0-.194.882q-.041.468-.04.846t.04.846a3.371,3.371,0,0,0,.194.882,1.757,1.757,0,0,0,.455.693A1.165,1.165,0,0,0,2.5-.486a1.165,1.165,0,0,0,.823-.279,1.757,1.757,0,0,0,.455-.693,3.371,3.371,0,0,0,.193-.882q.04-.468.04-.846t-.04-.846a3.371,3.371,0,0,0-.193-.882,1.757,1.757,0,0,0-.455-.693A1.165,1.165,0,0,0,2.5-5.886Zm0-.594a1.807,1.807,0,0,1,1.107.315,2.14,2.14,0,0,1,.657.8A3.584,3.584,0,0,1,4.581-4.3a8.05,8.05,0,0,1,.081,1.112,8.05,8.05,0,0,1-.081,1.112,3.584,3.584,0,0,1-.315,1.067,2.14,2.14,0,0,1-.657.8A1.807,1.807,0,0,1,2.5.108,1.807,1.807,0,0,1,1.395-.207a2.14,2.14,0,0,1-.657-.8A3.584,3.584,0,0,1,.423-2.075,8.05,8.05,0,0,1,.342-3.186,8.05,8.05,0,0,1,.423-4.3,3.584,3.584,0,0,1,.738-5.364a2.14,2.14,0,0,1,.657-.8A1.807,1.807,0,0,1,2.5-6.48Z" transform="translate(62.505 5668.109)" fill="#474747"/>
      <path id="Path_3444" data-name="Path 3444" d="M4.185-5.778h-2.6L1.539-3.861a2.11,2.11,0,0,1,.423-.117,2.624,2.624,0,0,1,.432-.036,2.119,2.119,0,0,1,.819.153,1.865,1.865,0,0,1,.634.428,1.965,1.965,0,0,1,.414.648,2.185,2.185,0,0,1,.148.814,2.136,2.136,0,0,1-.162.842,1.942,1.942,0,0,1-.45.657,2.059,2.059,0,0,1-.68.428,2.316,2.316,0,0,1-.85.153A2.1,2.1,0,0,1,1.179-.18a1.876,1.876,0,0,1-.747-.846l.648-.279a1.472,1.472,0,0,0,.5.6,1.288,1.288,0,0,0,.744.221A1.409,1.409,0,0,0,2.892-.6a1.478,1.478,0,0,0,.453-.3,1.392,1.392,0,0,0,.3-.45,1.4,1.4,0,0,0,.112-.558,1.567,1.567,0,0,0-.117-.612A1.449,1.449,0,0,0,3.321-3a1.4,1.4,0,0,0-.495-.311A1.781,1.781,0,0,0,2.2-3.42a2.509,2.509,0,0,0-.68.095,3.236,3.236,0,0,0-.643.256l.063-3.3H4.185Z" transform="translate(62.505 5597.109)" fill="#474747"/>
      <path id="Path_3443" data-name="Path 3443" d="M3.132,0H2.484V-5.562L1.341-4.554.936-5.04l1.62-1.332h.576ZM7.506-5.886a1.165,1.165,0,0,0-.824.279,1.757,1.757,0,0,0-.455.693,3.371,3.371,0,0,0-.194.882q-.04.468-.04.846t.04.846a3.371,3.371,0,0,0,.194.882,1.757,1.757,0,0,0,.455.693,1.165,1.165,0,0,0,.824.279A1.165,1.165,0,0,0,8.33-.765a1.757,1.757,0,0,0,.455-.693,3.371,3.371,0,0,0,.193-.882q.04-.468.04-.846t-.04-.846a3.371,3.371,0,0,0-.193-.882,1.757,1.757,0,0,0-.455-.693A1.165,1.165,0,0,0,7.506-5.886Zm0-.594a1.807,1.807,0,0,1,1.107.315,2.14,2.14,0,0,1,.657.8A3.584,3.584,0,0,1,9.585-4.3a8.05,8.05,0,0,1,.081,1.112,8.05,8.05,0,0,1-.081,1.112A3.584,3.584,0,0,1,9.27-1.008a2.14,2.14,0,0,1-.657.8A1.807,1.807,0,0,1,7.506.108,1.807,1.807,0,0,1,6.4-.207a2.14,2.14,0,0,1-.657-.8,3.584,3.584,0,0,1-.315-1.067,8.05,8.05,0,0,1-.081-1.112A8.05,8.05,0,0,1,5.427-4.3a3.584,3.584,0,0,1,.315-1.067,2.14,2.14,0,0,1,.657-.8A1.807,1.807,0,0,1,7.506-6.48Z" transform="translate(57.5 5525.109)" fill="#474747"/>
      <path id="Path_3440" data-name="Path 3440" d="M3.132,0H2.484V-5.562L1.341-4.554.936-5.04l1.62-1.332h.576ZM9.189-5.778h-2.6L6.543-3.861a2.11,2.11,0,0,1,.423-.117A2.624,2.624,0,0,1,7.4-4.014a2.119,2.119,0,0,1,.819.153,1.865,1.865,0,0,1,.634.428,1.965,1.965,0,0,1,.414.648,2.185,2.185,0,0,1,.148.814,2.136,2.136,0,0,1-.162.842,1.942,1.942,0,0,1-.45.657,2.059,2.059,0,0,1-.68.428,2.316,2.316,0,0,1-.85.153A2.1,2.1,0,0,1,6.183-.18a1.876,1.876,0,0,1-.747-.846l.648-.279a1.472,1.472,0,0,0,.5.6,1.288,1.288,0,0,0,.744.221A1.409,1.409,0,0,0,7.9-.6a1.478,1.478,0,0,0,.453-.3,1.392,1.392,0,0,0,.3-.45,1.4,1.4,0,0,0,.112-.558,1.567,1.567,0,0,0-.117-.612A1.449,1.449,0,0,0,8.325-3a1.4,1.4,0,0,0-.495-.311A1.781,1.781,0,0,0,7.2-3.42a2.509,2.509,0,0,0-.68.095,3.236,3.236,0,0,0-.643.256l.063-3.3H9.189Z" transform="translate(57.5 5454.109)" fill="#474747"/>
      <path id="Path_3441" data-name="Path 3441" d="M4.482,0H.432V-.747L2.97-3.33q.144-.144.288-.306a2.862,2.862,0,0,0,.261-.342,1.855,1.855,0,0,0,.189-.378A1.2,1.2,0,0,0,3.78-4.77a1.115,1.115,0,0,0-.094-.468.99.99,0,0,0-.266-.351,1.215,1.215,0,0,0-.4-.22,1.472,1.472,0,0,0-.477-.077,1.3,1.3,0,0,0-.828.27,1.225,1.225,0,0,0-.441.729L.594-4.959a1.784,1.784,0,0,1,.653-1.116A1.975,1.975,0,0,1,2.5-6.48a2.55,2.55,0,0,1,.733.1,1.842,1.842,0,0,1,.612.311,1.516,1.516,0,0,1,.423.517,1.581,1.581,0,0,1,.157.724,1.943,1.943,0,0,1-.112.675,2.738,2.738,0,0,1-.293.576,3.886,3.886,0,0,1-.41.513q-.23.243-.473.477L1.134-.594H4.482ZM7.506-5.886a1.165,1.165,0,0,0-.824.279,1.757,1.757,0,0,0-.455.693,3.371,3.371,0,0,0-.194.882q-.04.468-.04.846t.04.846a3.371,3.371,0,0,0,.194.882,1.757,1.757,0,0,0,.455.693,1.165,1.165,0,0,0,.824.279A1.165,1.165,0,0,0,8.33-.765a1.757,1.757,0,0,0,.455-.693,3.371,3.371,0,0,0,.193-.882q.04-.468.04-.846t-.04-.846a3.371,3.371,0,0,0-.193-.882,1.757,1.757,0,0,0-.455-.693A1.165,1.165,0,0,0,7.506-5.886Zm0-.594a1.807,1.807,0,0,1,1.107.315,2.14,2.14,0,0,1,.657.8A3.584,3.584,0,0,1,9.585-4.3a8.05,8.05,0,0,1,.081,1.112,8.05,8.05,0,0,1-.081,1.112A3.584,3.584,0,0,1,9.27-1.008a2.14,2.14,0,0,1-.657.8A1.807,1.807,0,0,1,7.506.108,1.807,1.807,0,0,1,6.4-.207a2.14,2.14,0,0,1-.657-.8,3.584,3.584,0,0,1-.315-1.067,8.05,8.05,0,0,1-.081-1.112A8.05,8.05,0,0,1,5.427-4.3a3.584,3.584,0,0,1,.315-1.067,2.14,2.14,0,0,1,.657-.8A1.807,1.807,0,0,1,7.506-6.48Z" transform="translate(57.5 5383.109)" fill="#474747"/>
      <path id="Path_3439" data-name="Path 3439" d="M4.482,0H.432V-.747L2.97-3.33q.144-.144.288-.306a2.862,2.862,0,0,0,.261-.342,1.855,1.855,0,0,0,.189-.378A1.2,1.2,0,0,0,3.78-4.77a1.115,1.115,0,0,0-.094-.468.99.99,0,0,0-.266-.351,1.215,1.215,0,0,0-.4-.22,1.472,1.472,0,0,0-.477-.077,1.3,1.3,0,0,0-.828.27,1.225,1.225,0,0,0-.441.729L.594-4.959a1.784,1.784,0,0,1,.653-1.116A1.975,1.975,0,0,1,2.5-6.48a2.55,2.55,0,0,1,.733.1,1.842,1.842,0,0,1,.612.311,1.516,1.516,0,0,1,.423.517,1.581,1.581,0,0,1,.157.724,1.943,1.943,0,0,1-.112.675,2.738,2.738,0,0,1-.293.576,3.886,3.886,0,0,1-.41.513q-.23.243-.473.477L1.134-.594H4.482ZM9.189-5.778h-2.6L6.543-3.861a2.11,2.11,0,0,1,.423-.117A2.624,2.624,0,0,1,7.4-4.014a2.119,2.119,0,0,1,.819.153,1.865,1.865,0,0,1,.634.428,1.965,1.965,0,0,1,.414.648,2.185,2.185,0,0,1,.148.814,2.136,2.136,0,0,1-.162.842,1.942,1.942,0,0,1-.45.657,2.059,2.059,0,0,1-.68.428,2.316,2.316,0,0,1-.85.153A2.1,2.1,0,0,1,6.183-.18a1.876,1.876,0,0,1-.747-.846l.648-.279a1.472,1.472,0,0,0,.5.6,1.288,1.288,0,0,0,.744.221A1.409,1.409,0,0,0,7.9-.6a1.478,1.478,0,0,0,.453-.3,1.392,1.392,0,0,0,.3-.45,1.4,1.4,0,0,0,.112-.558,1.567,1.567,0,0,0-.117-.612A1.449,1.449,0,0,0,8.325-3a1.4,1.4,0,0,0-.495-.311A1.781,1.781,0,0,0,7.2-3.42a2.509,2.509,0,0,0-.68.095,3.236,3.236,0,0,0-.643.256l.063-3.3H9.189Z" transform="translate(57.5 5311.109)" fill="#474747"/>
      <path id="Path_3409" data-name="Path 3409" d="M63.333,21V6.42h2V21Zm4.356,0V6.42h1.386l4.14,9.684V6.42h1.692V21h-1.3l-4.194-9.954V21Zm13.158.162a3.906,3.906,0,0,1-2.4-.648,3.341,3.341,0,0,1-1.188-1.746,8.417,8.417,0,0,1-.333-2.448V11.172A8.9,8.9,0,0,1,77.256,8.6a3.113,3.113,0,0,1,1.188-1.7,4.123,4.123,0,0,1,2.4-.6,4.044,4.044,0,0,1,2.169.5,2.814,2.814,0,0,1,1.152,1.44,6.421,6.421,0,0,1,.351,2.25V11.64H82.593V10.614a11.186,11.186,0,0,0-.081-1.431,1.557,1.557,0,0,0-.441-.963,1.724,1.724,0,0,0-1.206-.342,1.807,1.807,0,0,0-1.26.369,1.8,1.8,0,0,0-.513,1.044,9.326,9.326,0,0,0-.117,1.575v5.778a6.659,6.659,0,0,0,.18,1.737,1.522,1.522,0,0,0,.594.909,2.021,2.021,0,0,0,1.116.27,1.61,1.61,0,0,0,1.188-.369,1.757,1.757,0,0,0,.45-1.017,11.132,11.132,0,0,0,.09-1.512v-1.08h1.926v1.08a7.745,7.745,0,0,1-.324,2.349,3,3,0,0,1-1.116,1.584A3.788,3.788,0,0,1,80.847,21.162ZM86.571,21V6.42h2V21Zm4.356,0V6.42H94.1a5.57,5.57,0,0,1,2.565.495A2.841,2.841,0,0,1,98.01,8.4a6.543,6.543,0,0,1,.4,2.466V16.23a7.362,7.362,0,0,1-.4,2.61A3.112,3.112,0,0,1,96.7,20.451,4.692,4.692,0,0,1,94.257,21Zm2.034-1.458h1.152A2.316,2.316,0,0,0,95.7,19.11a1.965,1.965,0,0,0,.567-1.26,17.17,17.17,0,0,0,.1-2V11.118a9.461,9.461,0,0,0-.144-1.836,1.538,1.538,0,0,0-.63-1.026,2.818,2.818,0,0,0-1.53-.324h-1.1ZM100.413,21V6.42h5.652V7.932h-3.618v4.824h2.934V14.2h-2.934v5.346H106.1V21Zm7.326,0V6.42h1.386l4.14,9.684V6.42h1.692V21h-1.3l-4.194-9.954V21Zm13.158.162a3.906,3.906,0,0,1-2.4-.648,3.341,3.341,0,0,1-1.188-1.746,8.417,8.417,0,0,1-.333-2.448V11.172a8.9,8.9,0,0,1,.333-2.574,3.113,3.113,0,0,1,1.188-1.7,4.123,4.123,0,0,1,2.4-.6,4.044,4.044,0,0,1,2.169.5,2.814,2.814,0,0,1,1.152,1.44,6.421,6.421,0,0,1,.351,2.25V11.64h-1.926V10.614a11.186,11.186,0,0,0-.081-1.431,1.557,1.557,0,0,0-.441-.963,1.724,1.724,0,0,0-1.206-.342,1.807,1.807,0,0,0-1.26.369,1.8,1.8,0,0,0-.513,1.044,9.326,9.326,0,0,0-.117,1.575v5.778a6.659,6.659,0,0,0,.18,1.737,1.522,1.522,0,0,0,.594.909,2.021,2.021,0,0,0,1.116.27,1.61,1.61,0,0,0,1.188-.369,1.757,1.757,0,0,0,.45-1.017,11.132,11.132,0,0,0,.09-1.512v-1.08h1.926v1.08a7.745,7.745,0,0,1-.324,2.349,3,3,0,0,1-1.116,1.584A3.788,3.788,0,0,1,120.9,21.162ZM126.513,21V6.42h5.652V7.932h-3.618v4.824h2.934V14.2h-2.934v5.346H132.2V21Zm15.138,3.492a2.735,2.735,0,0,1-1.683-.531,3.431,3.431,0,0,1-1.035-1.413,8.527,8.527,0,0,1-.549-2.052,20.679,20.679,0,0,1-.207-2.466q-.036-1.314-.036-2.628,0-1.332.036-2.637a20.9,20.9,0,0,1,.207-2.466,8.527,8.527,0,0,1,.549-2.061,3.5,3.5,0,0,1,1.035-1.422,2.622,2.622,0,0,1,1.683-.522v1.3a1.1,1.1,0,0,0-.972.711,5.845,5.845,0,0,0-.486,1.827,23.735,23.735,0,0,0-.171,2.511q-.027,1.377-.027,2.763,0,1.4.027,2.781a23.735,23.735,0,0,0,.171,2.511,5.737,5.737,0,0,0,.486,1.818,1.1,1.1,0,0,0,.972.7ZM147.393,21l4.014-14.6h1.656l-4,14.6Zm-1.728-6.84a2.487,2.487,0,0,1-2.16-.918,4.115,4.115,0,0,1-.666-2.466V9.642a4.05,4.05,0,0,1,.648-2.466,2.549,2.549,0,0,1,2.178-.864,2.6,2.6,0,0,1,2.178.828,3.852,3.852,0,0,1,.648,2.412V10.83a4.023,4.023,0,0,1-.657,2.448A2.528,2.528,0,0,1,145.665,14.16Zm0-1.458a.866.866,0,0,0,.693-.261,1.448,1.448,0,0,0,.306-.693,4.978,4.978,0,0,0,.081-.918V9.552a3.715,3.715,0,0,0-.189-1.26.836.836,0,0,0-.891-.522.818.818,0,0,0-.882.531,3.969,3.969,0,0,0-.18,1.269v1.278a4.833,4.833,0,0,0,.081.909,1.441,1.441,0,0,0,.306.684A.843.843,0,0,0,145.665,12.7Zm9.09,8.388a2.473,2.473,0,0,1-2.151-.909,4.148,4.148,0,0,1-.657-2.475V16.572a4.1,4.1,0,0,1,.639-2.457,2.511,2.511,0,0,1,2.169-.873,2.586,2.586,0,0,1,2.187.837,3.933,3.933,0,0,1,.639,2.421v1.26a4.016,4.016,0,0,1-.657,2.457A2.54,2.54,0,0,1,154.755,21.09Zm0-1.458a.9.9,0,0,0,.7-.261,1.343,1.343,0,0,0,.306-.693,5.47,5.47,0,0,0,.072-.9v-1.3a3.715,3.715,0,0,0-.189-1.26.836.836,0,0,0-.891-.522.818.818,0,0,0-.882.531,3.969,3.969,0,0,0-.18,1.269v1.278a4.833,4.833,0,0,0,.081.909,1.441,1.441,0,0,0,.306.684A.843.843,0,0,0,154.755,19.632Zm4,4.86V23.2a1.11,1.11,0,0,0,.99-.711,5.845,5.845,0,0,0,.486-1.827,23.806,23.806,0,0,0,.171-2.52q.027-1.386.027-2.772,0-1.4-.027-2.781a23.448,23.448,0,0,0-.171-2.5,5.721,5.721,0,0,0-.486-1.809,1.11,1.11,0,0,0-.99-.7V6.294a2.684,2.684,0,0,1,1.7.513,3.431,3.431,0,0,1,1.035,1.413,8.527,8.527,0,0,1,.549,2.061,20.847,20.847,0,0,1,.207,2.457q.036,1.3.036,2.628T162.243,18a21.163,21.163,0,0,1-.207,2.475,8.529,8.529,0,0,1-.549,2.07,3.431,3.431,0,0,1-1.035,1.413A2.765,2.765,0,0,1,158.751,24.492Z" transform="translate(15 4122.109) rotate(-90)" fill="#823695"/>
      <path id="Path_3426" data-name="Path 3426" d="M63.333,21V6.42h2V21Zm4.356,0V6.42h1.386l4.14,9.684V6.42h1.692V21h-1.3l-4.194-9.954V21Zm13.158.162a3.906,3.906,0,0,1-2.4-.648,3.341,3.341,0,0,1-1.188-1.746,8.417,8.417,0,0,1-.333-2.448V11.172A8.9,8.9,0,0,1,77.256,8.6a3.113,3.113,0,0,1,1.188-1.7,4.123,4.123,0,0,1,2.4-.6,4.044,4.044,0,0,1,2.169.5,2.814,2.814,0,0,1,1.152,1.44,6.421,6.421,0,0,1,.351,2.25V11.64H82.593V10.614a11.186,11.186,0,0,0-.081-1.431,1.557,1.557,0,0,0-.441-.963,1.724,1.724,0,0,0-1.206-.342,1.807,1.807,0,0,0-1.26.369,1.8,1.8,0,0,0-.513,1.044,9.326,9.326,0,0,0-.117,1.575v5.778a6.659,6.659,0,0,0,.18,1.737,1.522,1.522,0,0,0,.594.909,2.021,2.021,0,0,0,1.116.27,1.61,1.61,0,0,0,1.188-.369,1.757,1.757,0,0,0,.45-1.017,11.132,11.132,0,0,0,.09-1.512v-1.08h1.926v1.08a7.745,7.745,0,0,1-.324,2.349,3,3,0,0,1-1.116,1.584A3.788,3.788,0,0,1,80.847,21.162ZM86.571,21V6.42h2V21Zm4.356,0V6.42H94.1a5.57,5.57,0,0,1,2.565.495A2.841,2.841,0,0,1,98.01,8.4a6.543,6.543,0,0,1,.4,2.466V16.23a7.362,7.362,0,0,1-.4,2.61A3.112,3.112,0,0,1,96.7,20.451,4.692,4.692,0,0,1,94.257,21Zm2.034-1.458h1.152A2.316,2.316,0,0,0,95.7,19.11a1.965,1.965,0,0,0,.567-1.26,17.17,17.17,0,0,0,.1-2V11.118a9.461,9.461,0,0,0-.144-1.836,1.538,1.538,0,0,0-.63-1.026,2.818,2.818,0,0,0-1.53-.324h-1.1ZM100.413,21V6.42h5.652V7.932h-3.618v4.824h2.934V14.2h-2.934v5.346H106.1V21Zm7.326,0V6.42h1.386l4.14,9.684V6.42h1.692V21h-1.3l-4.194-9.954V21Zm13.158.162a3.906,3.906,0,0,1-2.4-.648,3.341,3.341,0,0,1-1.188-1.746,8.417,8.417,0,0,1-.333-2.448V11.172a8.9,8.9,0,0,1,.333-2.574,3.113,3.113,0,0,1,1.188-1.7,4.123,4.123,0,0,1,2.4-.6,4.044,4.044,0,0,1,2.169.5,2.814,2.814,0,0,1,1.152,1.44,6.421,6.421,0,0,1,.351,2.25V11.64h-1.926V10.614a11.186,11.186,0,0,0-.081-1.431,1.557,1.557,0,0,0-.441-.963,1.724,1.724,0,0,0-1.206-.342,1.807,1.807,0,0,0-1.26.369,1.8,1.8,0,0,0-.513,1.044,9.326,9.326,0,0,0-.117,1.575v5.778a6.659,6.659,0,0,0,.18,1.737,1.522,1.522,0,0,0,.594.909,2.021,2.021,0,0,0,1.116.27,1.61,1.61,0,0,0,1.188-.369,1.757,1.757,0,0,0,.45-1.017,11.132,11.132,0,0,0,.09-1.512v-1.08h1.926v1.08a7.745,7.745,0,0,1-.324,2.349,3,3,0,0,1-1.116,1.584A3.788,3.788,0,0,1,120.9,21.162ZM126.513,21V6.42h5.652V7.932h-3.618v4.824h2.934V14.2h-2.934v5.346H132.2V21Zm15.138,3.492a2.735,2.735,0,0,1-1.683-.531,3.431,3.431,0,0,1-1.035-1.413,8.527,8.527,0,0,1-.549-2.052,20.679,20.679,0,0,1-.207-2.466q-.036-1.314-.036-2.628,0-1.332.036-2.637a20.9,20.9,0,0,1,.207-2.466,8.527,8.527,0,0,1,.549-2.061,3.5,3.5,0,0,1,1.035-1.422,2.622,2.622,0,0,1,1.683-.522v1.3a1.1,1.1,0,0,0-.972.711,5.845,5.845,0,0,0-.486,1.827,23.735,23.735,0,0,0-.171,2.511q-.027,1.377-.027,2.763,0,1.4.027,2.781a23.735,23.735,0,0,0,.171,2.511,5.737,5.737,0,0,0,.486,1.818,1.1,1.1,0,0,0,.972.7ZM147.393,21l4.014-14.6h1.656l-4,14.6Zm-1.728-6.84a2.487,2.487,0,0,1-2.16-.918,4.115,4.115,0,0,1-.666-2.466V9.642a4.05,4.05,0,0,1,.648-2.466,2.549,2.549,0,0,1,2.178-.864,2.6,2.6,0,0,1,2.178.828,3.852,3.852,0,0,1,.648,2.412V10.83a4.023,4.023,0,0,1-.657,2.448A2.528,2.528,0,0,1,145.665,14.16Zm0-1.458a.866.866,0,0,0,.693-.261,1.448,1.448,0,0,0,.306-.693,4.978,4.978,0,0,0,.081-.918V9.552a3.715,3.715,0,0,0-.189-1.26.836.836,0,0,0-.891-.522.818.818,0,0,0-.882.531,3.969,3.969,0,0,0-.18,1.269v1.278a4.833,4.833,0,0,0,.081.909,1.441,1.441,0,0,0,.306.684A.843.843,0,0,0,145.665,12.7Zm9.09,8.388a2.473,2.473,0,0,1-2.151-.909,4.148,4.148,0,0,1-.657-2.475V16.572a4.1,4.1,0,0,1,.639-2.457,2.511,2.511,0,0,1,2.169-.873,2.586,2.586,0,0,1,2.187.837,3.933,3.933,0,0,1,.639,2.421v1.26a4.016,4.016,0,0,1-.657,2.457A2.54,2.54,0,0,1,154.755,21.09Zm0-1.458a.9.9,0,0,0,.7-.261,1.343,1.343,0,0,0,.306-.693,5.47,5.47,0,0,0,.072-.9v-1.3a3.715,3.715,0,0,0-.189-1.26.836.836,0,0,0-.891-.522.818.818,0,0,0-.882.531,3.969,3.969,0,0,0-.18,1.269v1.278a4.833,4.833,0,0,0,.081.909,1.441,1.441,0,0,0,.306.684A.843.843,0,0,0,154.755,19.632Zm4,4.86V23.2a1.11,1.11,0,0,0,.99-.711,5.845,5.845,0,0,0,.486-1.827,23.806,23.806,0,0,0,.171-2.52q.027-1.386.027-2.772,0-1.4-.027-2.781a23.448,23.448,0,0,0-.171-2.5,5.721,5.721,0,0,0-.486-1.809,1.11,1.11,0,0,0-.99-.7V6.294a2.684,2.684,0,0,1,1.7.513,3.431,3.431,0,0,1,1.035,1.413,8.527,8.527,0,0,1,.549,2.061,20.847,20.847,0,0,1,.207,2.457q.036,1.3.036,2.628T162.243,18a21.163,21.163,0,0,1-.207,2.475,8.529,8.529,0,0,1-.549,2.07,3.431,3.431,0,0,1-1.035,1.413A2.765,2.765,0,0,1,158.751,24.492Z" transform="translate(15 4631.109) rotate(-90)" fill="#823695"/>
      <path id="Path_3435" data-name="Path 3435" d="M63.333,21V6.42h2V21Zm4.356,0V6.42h1.386l4.14,9.684V6.42h1.692V21h-1.3l-4.194-9.954V21Zm13.158.162a3.906,3.906,0,0,1-2.4-.648,3.341,3.341,0,0,1-1.188-1.746,8.417,8.417,0,0,1-.333-2.448V11.172A8.9,8.9,0,0,1,77.256,8.6a3.113,3.113,0,0,1,1.188-1.7,4.123,4.123,0,0,1,2.4-.6,4.044,4.044,0,0,1,2.169.5,2.814,2.814,0,0,1,1.152,1.44,6.421,6.421,0,0,1,.351,2.25V11.64H82.593V10.614a11.186,11.186,0,0,0-.081-1.431,1.557,1.557,0,0,0-.441-.963,1.724,1.724,0,0,0-1.206-.342,1.807,1.807,0,0,0-1.26.369,1.8,1.8,0,0,0-.513,1.044,9.326,9.326,0,0,0-.117,1.575v5.778a6.659,6.659,0,0,0,.18,1.737,1.522,1.522,0,0,0,.594.909,2.021,2.021,0,0,0,1.116.27,1.61,1.61,0,0,0,1.188-.369,1.757,1.757,0,0,0,.45-1.017,11.132,11.132,0,0,0,.09-1.512v-1.08h1.926v1.08a7.745,7.745,0,0,1-.324,2.349,3,3,0,0,1-1.116,1.584A3.788,3.788,0,0,1,80.847,21.162ZM86.571,21V6.42h2V21Zm4.356,0V6.42H94.1a5.57,5.57,0,0,1,2.565.495A2.841,2.841,0,0,1,98.01,8.4a6.543,6.543,0,0,1,.4,2.466V16.23a7.362,7.362,0,0,1-.4,2.61A3.112,3.112,0,0,1,96.7,20.451,4.692,4.692,0,0,1,94.257,21Zm2.034-1.458h1.152A2.316,2.316,0,0,0,95.7,19.11a1.965,1.965,0,0,0,.567-1.26,17.17,17.17,0,0,0,.1-2V11.118a9.461,9.461,0,0,0-.144-1.836,1.538,1.538,0,0,0-.63-1.026,2.818,2.818,0,0,0-1.53-.324h-1.1ZM100.413,21V6.42h5.652V7.932h-3.618v4.824h2.934V14.2h-2.934v5.346H106.1V21Zm7.326,0V6.42h1.386l4.14,9.684V6.42h1.692V21h-1.3l-4.194-9.954V21Zm13.158.162a3.906,3.906,0,0,1-2.4-.648,3.341,3.341,0,0,1-1.188-1.746,8.417,8.417,0,0,1-.333-2.448V11.172a8.9,8.9,0,0,1,.333-2.574,3.113,3.113,0,0,1,1.188-1.7,4.123,4.123,0,0,1,2.4-.6,4.044,4.044,0,0,1,2.169.5,2.814,2.814,0,0,1,1.152,1.44,6.421,6.421,0,0,1,.351,2.25V11.64h-1.926V10.614a11.186,11.186,0,0,0-.081-1.431,1.557,1.557,0,0,0-.441-.963,1.724,1.724,0,0,0-1.206-.342,1.807,1.807,0,0,0-1.26.369,1.8,1.8,0,0,0-.513,1.044,9.326,9.326,0,0,0-.117,1.575v5.778a6.659,6.659,0,0,0,.18,1.737,1.522,1.522,0,0,0,.594.909,2.021,2.021,0,0,0,1.116.27,1.61,1.61,0,0,0,1.188-.369,1.757,1.757,0,0,0,.45-1.017,11.132,11.132,0,0,0,.09-1.512v-1.08h1.926v1.08a7.745,7.745,0,0,1-.324,2.349,3,3,0,0,1-1.116,1.584A3.788,3.788,0,0,1,120.9,21.162ZM126.513,21V6.42h5.652V7.932h-3.618v4.824h2.934V14.2h-2.934v5.346H132.2V21Zm15.138,3.492a2.735,2.735,0,0,1-1.683-.531,3.431,3.431,0,0,1-1.035-1.413,8.527,8.527,0,0,1-.549-2.052,20.679,20.679,0,0,1-.207-2.466q-.036-1.314-.036-2.628,0-1.332.036-2.637a20.9,20.9,0,0,1,.207-2.466,8.527,8.527,0,0,1,.549-2.061,3.5,3.5,0,0,1,1.035-1.422,2.622,2.622,0,0,1,1.683-.522v1.3a1.1,1.1,0,0,0-.972.711,5.845,5.845,0,0,0-.486,1.827,23.735,23.735,0,0,0-.171,2.511q-.027,1.377-.027,2.763,0,1.4.027,2.781a23.735,23.735,0,0,0,.171,2.511,5.737,5.737,0,0,0,.486,1.818,1.1,1.1,0,0,0,.972.7ZM147.393,21l4.014-14.6h1.656l-4,14.6Zm-1.728-6.84a2.487,2.487,0,0,1-2.16-.918,4.115,4.115,0,0,1-.666-2.466V9.642a4.05,4.05,0,0,1,.648-2.466,2.549,2.549,0,0,1,2.178-.864,2.6,2.6,0,0,1,2.178.828,3.852,3.852,0,0,1,.648,2.412V10.83a4.023,4.023,0,0,1-.657,2.448A2.528,2.528,0,0,1,145.665,14.16Zm0-1.458a.866.866,0,0,0,.693-.261,1.448,1.448,0,0,0,.306-.693,4.978,4.978,0,0,0,.081-.918V9.552a3.715,3.715,0,0,0-.189-1.26.836.836,0,0,0-.891-.522.818.818,0,0,0-.882.531,3.969,3.969,0,0,0-.18,1.269v1.278a4.833,4.833,0,0,0,.081.909,1.441,1.441,0,0,0,.306.684A.843.843,0,0,0,145.665,12.7Zm9.09,8.388a2.473,2.473,0,0,1-2.151-.909,4.148,4.148,0,0,1-.657-2.475V16.572a4.1,4.1,0,0,1,.639-2.457,2.511,2.511,0,0,1,2.169-.873,2.586,2.586,0,0,1,2.187.837,3.933,3.933,0,0,1,.639,2.421v1.26a4.016,4.016,0,0,1-.657,2.457A2.54,2.54,0,0,1,154.755,21.09Zm0-1.458a.9.9,0,0,0,.7-.261,1.343,1.343,0,0,0,.306-.693,5.47,5.47,0,0,0,.072-.9v-1.3a3.715,3.715,0,0,0-.189-1.26.836.836,0,0,0-.891-.522.818.818,0,0,0-.882.531,3.969,3.969,0,0,0-.18,1.269v1.278a4.833,4.833,0,0,0,.081.909,1.441,1.441,0,0,0,.306.684A.843.843,0,0,0,154.755,19.632Zm4,4.86V23.2a1.11,1.11,0,0,0,.99-.711,5.845,5.845,0,0,0,.486-1.827,23.806,23.806,0,0,0,.171-2.52q.027-1.386.027-2.772,0-1.4-.027-2.781a23.448,23.448,0,0,0-.171-2.5,5.721,5.721,0,0,0-.486-1.809,1.11,1.11,0,0,0-.99-.7V6.294a2.684,2.684,0,0,1,1.7.513,3.431,3.431,0,0,1,1.035,1.413,8.527,8.527,0,0,1,.549,2.061,20.847,20.847,0,0,1,.207,2.457q.036,1.3.036,2.628T162.243,18a21.163,21.163,0,0,1-.207,2.475,8.529,8.529,0,0,1-.549,2.07,3.431,3.431,0,0,1-1.035,1.413A2.765,2.765,0,0,1,158.751,24.492Z" transform="translate(15 5104.109) rotate(-90)" fill="#823695"/>
      <path id="Path_3442" data-name="Path 3442" d="M63.333,21V6.42h2V21Zm4.356,0V6.42h1.386l4.14,9.684V6.42h1.692V21h-1.3l-4.194-9.954V21Zm13.158.162a3.906,3.906,0,0,1-2.4-.648,3.341,3.341,0,0,1-1.188-1.746,8.417,8.417,0,0,1-.333-2.448V11.172A8.9,8.9,0,0,1,77.256,8.6a3.113,3.113,0,0,1,1.188-1.7,4.123,4.123,0,0,1,2.4-.6,4.044,4.044,0,0,1,2.169.5,2.814,2.814,0,0,1,1.152,1.44,6.421,6.421,0,0,1,.351,2.25V11.64H82.593V10.614a11.186,11.186,0,0,0-.081-1.431,1.557,1.557,0,0,0-.441-.963,1.724,1.724,0,0,0-1.206-.342,1.807,1.807,0,0,0-1.26.369,1.8,1.8,0,0,0-.513,1.044,9.326,9.326,0,0,0-.117,1.575v5.778a6.659,6.659,0,0,0,.18,1.737,1.522,1.522,0,0,0,.594.909,2.021,2.021,0,0,0,1.116.27,1.61,1.61,0,0,0,1.188-.369,1.757,1.757,0,0,0,.45-1.017,11.132,11.132,0,0,0,.09-1.512v-1.08h1.926v1.08a7.745,7.745,0,0,1-.324,2.349,3,3,0,0,1-1.116,1.584A3.788,3.788,0,0,1,80.847,21.162ZM86.571,21V6.42h2V21Zm4.356,0V6.42H94.1a5.57,5.57,0,0,1,2.565.495A2.841,2.841,0,0,1,98.01,8.4a6.543,6.543,0,0,1,.4,2.466V16.23a7.362,7.362,0,0,1-.4,2.61A3.112,3.112,0,0,1,96.7,20.451,4.692,4.692,0,0,1,94.257,21Zm2.034-1.458h1.152A2.316,2.316,0,0,0,95.7,19.11a1.965,1.965,0,0,0,.567-1.26,17.17,17.17,0,0,0,.1-2V11.118a9.461,9.461,0,0,0-.144-1.836,1.538,1.538,0,0,0-.63-1.026,2.818,2.818,0,0,0-1.53-.324h-1.1ZM100.413,21V6.42h5.652V7.932h-3.618v4.824h2.934V14.2h-2.934v5.346H106.1V21Zm7.326,0V6.42h1.386l4.14,9.684V6.42h1.692V21h-1.3l-4.194-9.954V21Zm13.158.162a3.906,3.906,0,0,1-2.4-.648,3.341,3.341,0,0,1-1.188-1.746,8.417,8.417,0,0,1-.333-2.448V11.172a8.9,8.9,0,0,1,.333-2.574,3.113,3.113,0,0,1,1.188-1.7,4.123,4.123,0,0,1,2.4-.6,4.044,4.044,0,0,1,2.169.5,2.814,2.814,0,0,1,1.152,1.44,6.421,6.421,0,0,1,.351,2.25V11.64h-1.926V10.614a11.186,11.186,0,0,0-.081-1.431,1.557,1.557,0,0,0-.441-.963,1.724,1.724,0,0,0-1.206-.342,1.807,1.807,0,0,0-1.26.369,1.8,1.8,0,0,0-.513,1.044,9.326,9.326,0,0,0-.117,1.575v5.778a6.659,6.659,0,0,0,.18,1.737,1.522,1.522,0,0,0,.594.909,2.021,2.021,0,0,0,1.116.27,1.61,1.61,0,0,0,1.188-.369,1.757,1.757,0,0,0,.45-1.017,11.132,11.132,0,0,0,.09-1.512v-1.08h1.926v1.08a7.745,7.745,0,0,1-.324,2.349,3,3,0,0,1-1.116,1.584A3.788,3.788,0,0,1,120.9,21.162ZM126.513,21V6.42h5.652V7.932h-3.618v4.824h2.934V14.2h-2.934v5.346H132.2V21Zm15.138,3.492a2.735,2.735,0,0,1-1.683-.531,3.431,3.431,0,0,1-1.035-1.413,8.527,8.527,0,0,1-.549-2.052,20.679,20.679,0,0,1-.207-2.466q-.036-1.314-.036-2.628,0-1.332.036-2.637a20.9,20.9,0,0,1,.207-2.466,8.527,8.527,0,0,1,.549-2.061,3.5,3.5,0,0,1,1.035-1.422,2.622,2.622,0,0,1,1.683-.522v1.3a1.1,1.1,0,0,0-.972.711,5.845,5.845,0,0,0-.486,1.827,23.735,23.735,0,0,0-.171,2.511q-.027,1.377-.027,2.763,0,1.4.027,2.781a23.735,23.735,0,0,0,.171,2.511,5.737,5.737,0,0,0,.486,1.818,1.1,1.1,0,0,0,.972.7ZM147.393,21l4.014-14.6h1.656l-4,14.6Zm-1.728-6.84a2.487,2.487,0,0,1-2.16-.918,4.115,4.115,0,0,1-.666-2.466V9.642a4.05,4.05,0,0,1,.648-2.466,2.549,2.549,0,0,1,2.178-.864,2.6,2.6,0,0,1,2.178.828,3.852,3.852,0,0,1,.648,2.412V10.83a4.023,4.023,0,0,1-.657,2.448A2.528,2.528,0,0,1,145.665,14.16Zm0-1.458a.866.866,0,0,0,.693-.261,1.448,1.448,0,0,0,.306-.693,4.978,4.978,0,0,0,.081-.918V9.552a3.715,3.715,0,0,0-.189-1.26.836.836,0,0,0-.891-.522.818.818,0,0,0-.882.531,3.969,3.969,0,0,0-.18,1.269v1.278a4.833,4.833,0,0,0,.081.909,1.441,1.441,0,0,0,.306.684A.843.843,0,0,0,145.665,12.7Zm9.09,8.388a2.473,2.473,0,0,1-2.151-.909,4.148,4.148,0,0,1-.657-2.475V16.572a4.1,4.1,0,0,1,.639-2.457,2.511,2.511,0,0,1,2.169-.873,2.586,2.586,0,0,1,2.187.837,3.933,3.933,0,0,1,.639,2.421v1.26a4.016,4.016,0,0,1-.657,2.457A2.54,2.54,0,0,1,154.755,21.09Zm0-1.458a.9.9,0,0,0,.7-.261,1.343,1.343,0,0,0,.306-.693,5.47,5.47,0,0,0,.072-.9v-1.3a3.715,3.715,0,0,0-.189-1.26.836.836,0,0,0-.891-.522.818.818,0,0,0-.882.531,3.969,3.969,0,0,0-.18,1.269v1.278a4.833,4.833,0,0,0,.081.909,1.441,1.441,0,0,0,.306.684A.843.843,0,0,0,154.755,19.632Zm4,4.86V23.2a1.11,1.11,0,0,0,.99-.711,5.845,5.845,0,0,0,.486-1.827,23.806,23.806,0,0,0,.171-2.52q.027-1.386.027-2.772,0-1.4-.027-2.781a23.448,23.448,0,0,0-.171-2.5,5.721,5.721,0,0,0-.486-1.809,1.11,1.11,0,0,0-.99-.7V6.294a2.684,2.684,0,0,1,1.7.513,3.431,3.431,0,0,1,1.035,1.413,8.527,8.527,0,0,1,.549,2.061,20.847,20.847,0,0,1,.207,2.457q.036,1.3.036,2.628T162.243,18a21.163,21.163,0,0,1-.207,2.475,8.529,8.529,0,0,1-.549,2.07,3.431,3.431,0,0,1-1.035,1.413A2.765,2.765,0,0,1,158.751,24.492Z" transform="translate(15 5602.109) rotate(-90)" fill="#823695"/>
      <g id="Group_1663" data-name="Group 1663" transform="translate(-339.201 4171.347)">
        <line id="Line_1066" data-name="Line 1066" x2="265.425" transform="translate(415.201 526.037)" fill="none" stroke="#d1d0d0" stroke-linejoin="round" stroke-width="1"/>
      </g>
      <path id="Path_3455" data-name="Path 3455" d="M0,0H11.391V41H0Z" transform="translate(301.784 4656.88)" fill="#ff9e1a"/>
      <path id="Path_3456" data-name="Path 3456" d="M0,0H9.763V39H0Z" transform="translate(286.915 4658.88)" fill="#ff9e1a"/>
      <path id="Path_3457" data-name="Path 3457" d="M0,0H9.763V14H0Z" transform="translate(257.175 4683.88)" fill="#ff9e1a"/>
      <path id="Path_3458" data-name="Path 3458" d="M0,0H9.763V23H0Z" transform="translate(227.436 4674.88)" fill="#ff9e1a"/>
      <path id="Path_3459" data-name="Path 3459" d="M0,0H9.763V22H0Z" transform="translate(212.565 4675.88)" fill="#ff9e1a"/>
      <path id="Path_3460" data-name="Path 3460" d="M0,0H9.763V29H0Z" transform="translate(197.695 4668.88)" fill="#ff9e1a"/>
      <path id="Path_3461" data-name="Path 3461" d="M0,0H9.763V8H0Z" transform="translate(167.956 4689.88)" fill="#ff9e1a"/>
      <path id="Path_3462" data-name="Path 3462" d="M0,0H9.763V26H0Z" transform="translate(182.825 4671.88)" fill="#ff9e1a"/>
      <path id="Path_3463" data-name="Path 3463" d="M0,0H9.763V7H0Z" transform="translate(153.086 4690.88)" fill="#ff9e1a"/>
      <path id="Path_3464" data-name="Path 3464" d="M0,0H9.763V33H0Z" transform="translate(138.216 4664.88)" fill="#ff9e1a"/>
      <path id="Path_3465" data-name="Path 3465" d="M0,0H9.763V34H0Z" transform="translate(123.346 4663.88)" fill="#ff9e1a"/>
      <path id="Path_3466" data-name="Path 3466" d="M0,0H9.763V38H0Z" transform="translate(108.477 4659.88)" fill="#ff9e1a"/>
      <path id="Path_3467" data-name="Path 3467" d="M0,0H9.763V75H0Z" transform="translate(93.606 4622.88)" fill="#ff9e1a"/>
      <path id="Path_3468" data-name="Path 3468" d="M0,0H9.763V317.88H0Z" transform="translate(78.736 4380)" fill="#ff9e1a"/>
      <path id="Path_3469" data-name="Path 3469" d="M0,0H9.763V12H0Z" transform="translate(242.305 4685.88)" fill="#ff9e1a"/>
      <path id="Path_2768" data-name="Path 2768" d="M611.246,526.533v-30h9.763v30" transform="translate(-339.201 4171.347)" fill="#ff9e1a"/>
      <path id="Path_2769" data-name="Path 2769" d="M669.236,526.533v-26h11.391v26" transform="translate(-339.201 4171.347)" fill="#ff9e1a"/>
      <path id="Path_3490" data-name="Path 3490" d="M0,0H9.8V13H0Z" transform="translate(242.06 5652)" fill="#823695"/>
      <path id="Path_3491" data-name="Path 3491" d="M0,0H9.8V12H0Z" transform="translate(226.71 5653)" fill="#823695"/>
      <path id="Path_3492" data-name="Path 3492" d="M0,0H9.8V11H0Z" transform="translate(195.374 5654)" fill="#823695"/>
      <path id="Path_3493" data-name="Path 3493" d="M0,0H9.8V19H0Z" transform="translate(181.966 5646)" fill="#823695"/>
      <path id="Path_3494" data-name="Path 3494" d="M0,0H9.8V25H0Z" transform="translate(166.776 5640)" fill="#823695"/>
      <path id="Path_3495" data-name="Path 3495" d="M0,0H9.8V21H0Z" transform="translate(150.114 5644)" fill="#823695"/>
      <path id="Path_3496" data-name="Path 3496" d="M0,0H9.8V28H0Z" transform="translate(136.638 5637)" fill="#823695"/>
      <path id="Path_3497" data-name="Path 3497" d="M0,0H9.8V46H0Z" transform="translate(121.668 5619)" fill="#823695"/>
      <path id="Path_3498" data-name="Path 3498" d="M0,0H9.8V54H0Z" transform="translate(106.479 5611)" fill="#823695"/>
      <path id="Path_3499" data-name="Path 3499" d="M0,0H9.8V53H0Z" transform="translate(91.349 5612)" fill="#823695"/>
      <path id="Path_3500" data-name="Path 3500" d="M0,0H9.8V38H0Z" transform="translate(77.999 5627)" fill="#823695"/>
      <path id="Path_2770" data-name="Path 2770" d="M1399.224,524.663v-25h9.8v25" transform="translate(-1142.336 5140.337)" fill="#823695"/>
      <path id="Path_2771" data-name="Path 2771" d="M1428.766,524.663v-19h9.8v19" transform="translate(-1142.336 5140.337)" fill="#823695"/>
    </g>
  </g>
</svg>
