<svg xmlns="http://www.w3.org/2000/svg" width="262.585" height="567.887" viewBox="0 0 262.585 567.887">
  <g id="Group_1785" data-name="Group 1785" transform="translate(-58 -2808)">
    <g id="Group_1197" data-name="Group 1197" transform="translate(0.703 -2146.208)">
      <path id="Path_1402" data-name="Path 1402" d="M791.352,422.546a6.871,6.871,0,0,1-3.756-.916,5.152,5.152,0,0,1-2.015-2.656,12.431,12.431,0,0,1-.412-6.32,6.409,6.409,0,0,1,.664-1.763,4.816,4.816,0,0,1,1.031-1.305,9.169,9.169,0,0,1,1.282-1.008,6.87,6.87,0,0,1-2.084-2.29,7.052,7.052,0,0,1-.8-3.527,9.4,9.4,0,0,1,.641-3.572,4.741,4.741,0,0,1,2.015-2.29,6.527,6.527,0,0,1,3.435-.825,6.32,6.32,0,0,1,3.412.825,4.579,4.579,0,0,1,1.969,2.29,8.973,8.973,0,0,1,.641,3.572,7.1,7.1,0,0,1-.779,3.549,6.527,6.527,0,0,1-2.084,2.29,9.147,9.147,0,0,1,1.282,1.008,5.9,5.9,0,0,1,1.03,1.305,6.4,6.4,0,0,1,.664,1.763,9.722,9.722,0,0,1,.252,2.29,11.84,11.84,0,0,1-.618,4.031,5.315,5.315,0,0,1-2.038,2.656,6.618,6.618,0,0,1-3.732.893Zm0-2.725a2.611,2.611,0,0,0,1.924-.641,3.114,3.114,0,0,0,.916-1.717,11.455,11.455,0,0,0,.252-2.45,9.165,9.165,0,0,0-.275-2.29,3.781,3.781,0,0,0-.961-1.763,2.429,2.429,0,0,0-1.855-.687,2.657,2.657,0,0,0-1.878.664,3.779,3.779,0,0,0-.962,1.763,8.311,8.311,0,0,0-.3,2.29,11.439,11.439,0,0,0,.252,2.45,3.32,3.32,0,0,0,.962,1.717,2.679,2.679,0,0,0,1.923.664Zm0-12.824a2.107,2.107,0,0,0,1.649-.664,3.708,3.708,0,0,0,.8-1.649,10.609,10.609,0,0,0,.229-2.107,5.838,5.838,0,0,0-.6-2.725,2.129,2.129,0,0,0-2.084-1.122,2.291,2.291,0,0,0-2.107,1.122,5.564,5.564,0,0,0-.618,2.725,10.619,10.619,0,0,0,.229,2.107,3.506,3.506,0,0,0,.824,1.649A2.29,2.29,0,0,0,791.352,407Z" transform="translate(-634.643 4695.192)" fill="#853694"/>
      <path id="Path_1403" data-name="Path 1403" d="M791.69,422.3v-2.45l6.6-10.282,1.374-2.153a11.211,11.211,0,0,0,1.031-2.107,7.81,7.81,0,0,0,.389-2.542,5.748,5.748,0,0,0-.572-2.817,2.107,2.107,0,0,0-2.015-1.031,2.542,2.542,0,0,0-1.9.687,3.526,3.526,0,0,0-.916,1.763,9.373,9.373,0,0,0-.252,2.29v.87h-3.435v-.916a11.608,11.608,0,0,1,.618-4.007A5.264,5.264,0,0,1,794.621,397a6.458,6.458,0,0,1,3.71-.939,5.839,5.839,0,0,1,4.58,1.786,7.212,7.212,0,0,1,1.557,4.923,9.268,9.268,0,0,1-.412,2.908,11.954,11.954,0,0,1-1.054,2.29c-.412.733-.893,1.488-1.4,2.29l-5.977,9.16h8.221V422.3Z" transform="translate(-625.936 4695.163)" fill="#853694"/>
      <path id="Path_1404" data-name="Path 1404" d="M798.42,409.664V405.84h3.435v3.824Z" transform="translate(-617.254 4707.799)" fill="#853694"/>
      <path id="Path_1405" data-name="Path 1405" d="M801.1,422.235v-2.45l6.641-10.167,1.374-2.153a11.212,11.212,0,0,0,1.031-2.107,7.81,7.81,0,0,0,.389-2.542,5.75,5.75,0,0,0-.572-2.817,2.107,2.107,0,0,0-2.015-1.03,2.541,2.541,0,0,0-1.9.687,3.548,3.548,0,0,0-.939,1.763,10.556,10.556,0,0,0-.252,2.29v.87H801.42v-.916a11.587,11.587,0,0,1,.641-4.008,5.13,5.13,0,0,1,2.015-2.611,6.367,6.367,0,0,1,3.71-.939,5.84,5.84,0,0,1,4.58,1.786,7.215,7.215,0,0,1,1.534,4.924,10.055,10.055,0,0,1-.389,2.908,11.921,11.921,0,0,1-1.054,2.29c-.412.733-.893,1.488-1.4,2.29l-5.977,9.16h8.221v2.885Z" transform="translate(-613.797 4695.229)" fill="#853694"/>
      <path id="Path_1406" data-name="Path 1406" d="M812.906,410.085a4.374,4.374,0,0,1-3.847-1.649,7.186,7.186,0,0,1-1.191-4.374v-2.038a7.213,7.213,0,0,1,1.145-4.374,5.709,5.709,0,0,1,7.763-.069,6.869,6.869,0,0,1,1.168,4.282v2.29a7.006,7.006,0,0,1-1.191,4.351A4.581,4.581,0,0,1,812.906,410.085Zm0-2.611a1.535,1.535,0,0,0,1.237-.458,2.565,2.565,0,0,0,.527-1.237,7.4,7.4,0,0,0,.16-1.626v-2.29a6.5,6.5,0,0,0-.343-2.29,1.489,1.489,0,0,0-1.58-.916,1.466,1.466,0,0,0-1.58.939,7.308,7.308,0,0,0-.32,2.29v2.29a7.409,7.409,0,0,0,.16,1.626,2.589,2.589,0,0,0,.527,1.214,1.488,1.488,0,0,0,1.214.458Zm3.069,14.793,7.145-26.014h2.954l-7.122,26.014Zm13.121.16a4.58,4.58,0,0,1-3.847-1.626,7.376,7.376,0,0,1-1.168-4.4v-2.038a7.3,7.3,0,0,1,1.145-4.374,5.708,5.708,0,0,1,7.763-.069,7.1,7.1,0,0,1,1.145,4.328v2.29a7.145,7.145,0,0,1-1.168,4.374,4.581,4.581,0,0,1-3.87,1.511Zm0-2.611a1.534,1.534,0,0,0,1.237-.458,2.288,2.288,0,0,0,.55-1.237,9.176,9.176,0,0,0,.137-1.6v-2.29a6.5,6.5,0,0,0-.344-2.29,1.489,1.489,0,0,0-1.58-.916,1.465,1.465,0,0,0-1.58.939,7.305,7.305,0,0,0-.32,2.29v2.29a7.393,7.393,0,0,0,.16,1.626,2.675,2.675,0,0,0,.527,1.214,1.511,1.511,0,0,0,1.214.435Z" transform="translate(-605.085 4695.195)" fill="#853694"/>
    </g>
    <g id="Group_1198" data-name="Group 1198" transform="translate(2 2409.133)">
      <path id="Path_2529" data-name="Path 2529" d="M878.468,337.38V367.4a101.331,101.331,0,1,1-93.706,59.127l-27.342-12.5A131.284,131.284,0,1,0,878.468,337.38" transform="translate(-689.508 61.487)" fill="#863399"/>
      <path id="Path_2530" data-name="Path 2530" d="M867.625,337.38A131.239,131.239,0,0,0,751.34,411.026l27.342,12.5c.435-.893.87-1.763,1.328-2.634l.687-1.214c.5-.939,1.054-1.855,1.58-2.771l.664-1.1c.733-1.191,1.489-2.29,2.29-3.549l.618-.893c.618-.893,1.26-1.809,1.924-2.679l.847-1.145c.71-.939,1.466-1.9,2.29-2.817l.458-.6c.893-1.076,1.832-2.13,2.771-3.183l.893-.985c.733-.779,1.466-1.557,2.29-2.29l.87-.893c1.008-.985,2.015-1.969,3.068-2.931l.664-.6c.87-.756,1.74-1.534,2.634-2.29l1.053-.87c.916-.756,1.855-1.466,2.794-2.29l.641-.481c1.145-.87,2.29-1.672,3.481-2.5l1.031-.664c.916-.618,1.832-1.214,2.771-1.786l1.054-.664c1.236-.733,2.473-1.443,3.733-2.13l.6-.321c1.1-.6,2.29-1.145,3.32-1.695l1.191-.573c1.053-.5,2.153-1.008,3.229-1.466l.824-.366c1.328-.572,2.679-1.1,4.053-1.6l1.076-.389c1.076-.366,2.152-.756,3.252-1.1l1.191-.366c1.42-.435,2.84-.847,4.259-1.214h.366c1.328-.344,2.679-.641,4.03-.939l1.259-.252c1.191-.229,2.29-.458,3.572-.641l.962-.16c1.489-.229,3-.412,4.58-.573h1.076q1.832-.16,3.641-.275h4.282Z" transform="translate(-681.985 61.487)" fill="#bdbec0"/>
    </g>
    <g id="Group_1199" data-name="Group 1199" transform="translate(-311.117 -1842.89)">
      <path id="Path_1390" data-name="Path 1390" d="M1009.646,337.4a131.192,131.192,0,0,0-108.59,200.991l25.075-16.579a101.1,101.1,0,0,1,83.515-154.367Z" transform="translate(-510.814 4619.513)" fill="#bdbec0"/>
      <path id="Path_1391" data-name="Path 1391" d="M1000.7,337.39v30a101.24,101.24,0,1,1-85.05,157.23L890.46,541.2A130.941,130.941,0,1,0,1000.585,337.39" transform="translate(-498.525 4619.5)" fill="#863399"/>
    </g>
    <g id="Group_1200" data-name="Group 1200" transform="translate(1.809 2418)">
      <path id="Path_1407" data-name="Path 1407" d="M928.319,422.522a5.678,5.678,0,0,1-3.664-1.122,6.48,6.48,0,0,1-2.061-3.091A13.371,13.371,0,0,1,921.93,414v-8.748a17.143,17.143,0,0,1,.6-4.58,6.482,6.482,0,0,1,1.969-3.32,5.427,5.427,0,0,1,3.824-1.26,7.378,7.378,0,0,1,3.412.733,5.13,5.13,0,0,1,2.152,2.153,7.466,7.466,0,0,1,.778,3.435.47.47,0,0,0,0,.16v.229H931.25a5.813,5.813,0,0,0-.6-2.908,2.565,2.565,0,0,0-2.29-.985,2.29,2.29,0,0,0-1.6.6,3.618,3.618,0,0,0-1.008,1.809,11.89,11.89,0,0,0-.344,3.137v3.962a3.55,3.55,0,0,1,1.466-1.305,4.742,4.742,0,0,1,2.29-.5,5.405,5.405,0,0,1,3.366.939,4.946,4.946,0,0,1,1.74,2.611,13.568,13.568,0,0,1,.5,3.962,13.189,13.189,0,0,1-.641,4.259,6.322,6.322,0,0,1-2.038,3.069,5.817,5.817,0,0,1-3.778,1.076Zm0-2.839a2.29,2.29,0,0,0,1.786-.664,3.731,3.731,0,0,0,.917-1.74,9.855,9.855,0,0,0,.274-2.29,27.1,27.1,0,0,0-.137-2.84,3.985,3.985,0,0,0-.756-2.107,2.473,2.473,0,0,0-2.084-.779,2.908,2.908,0,0,0-1.283.252,3.775,3.775,0,0,0-1.008.641,5.368,5.368,0,0,0-.664.847V414.9a10.089,10.089,0,0,0,.275,2.427,3.691,3.691,0,0,0,.916,1.786A2.289,2.289,0,0,0,928.319,419.683Z" transform="translate(-773.739 431.215)" fill="#853694"/>
      <path id="Path_1408" data-name="Path 1408" d="M935.119,422.429a6.871,6.871,0,0,1-3.733-.893,4.876,4.876,0,0,1-1.969-2.61,12.366,12.366,0,0,1-.6-4.03h3.435a14.893,14.893,0,0,0,.183,2.29,3.78,3.78,0,0,0,.824,1.809,2.855,2.855,0,0,0,3.916-.092,4.58,4.58,0,0,0,.779-2.29,26.5,26.5,0,0,0,.16-3.16,21.858,21.858,0,0,0-.183-3,3.735,3.735,0,0,0-.8-1.9,2.542,2.542,0,0,0-1.924-.641,2.655,2.655,0,0,0-1.809.641,4.189,4.189,0,0,0-1.076,1.488h-2.931v-13.9h11.289v3.435H932.6l-.229,7.168a4.354,4.354,0,0,1,1.6-1.053,5.725,5.725,0,0,1,2.153-.389,5.176,5.176,0,0,1,3.32.985,5.356,5.356,0,0,1,1.694,2.748,13.875,13.875,0,0,1,.5,3.962,21,21,0,0,1-.3,3.71,8.77,8.77,0,0,1-1.008,2.977,4.945,4.945,0,0,1-1.969,1.969,6.275,6.275,0,0,1-3.252.779Z" transform="translate(-764.853 431.286)" fill="#853694"/>
      <path id="Path_1409" data-name="Path 1409" d="M935.5,409.664V405.84h3.435v3.824Z" transform="translate(-756.234 443.799)" fill="#853694"/>
      <path id="Path_1410" data-name="Path 1410" d="M944.569,422.546a7.19,7.19,0,0,1-3.435-.756,4.878,4.878,0,0,1-2.175-2.176,8.086,8.086,0,0,1-.779-3.5v-.3h3.435a5.634,5.634,0,0,0,.618,2.885,2.564,2.564,0,0,0,2.29,1.008,2.289,2.289,0,0,0,1.58-.6,3.753,3.753,0,0,0,.985-1.832,13.137,13.137,0,0,0,.3-3.114V410.2a3.159,3.159,0,0,1-1.42,1.305,4.854,4.854,0,0,1-2.29.5,5.358,5.358,0,0,1-3.366-.962,5.059,5.059,0,0,1-1.717-2.611,14.492,14.492,0,0,1-.481-3.939,13.233,13.233,0,0,1,.641-4.282,6.182,6.182,0,0,1,2.061-3.023,5.793,5.793,0,0,1,3.733-1.122,5.566,5.566,0,0,1,3.664,1.145,6.458,6.458,0,0,1,2.061,3.046,13.362,13.362,0,0,1,.664,4.305v8.725a17.219,17.219,0,0,1-.6,4.58,6.869,6.869,0,0,1-1.946,3.389A5.45,5.45,0,0,1,944.569,422.546Zm0-13.144a2.908,2.908,0,0,0,1.832-.55,4.576,4.576,0,0,0,1.076-1.236v-3.847a10.2,10.2,0,0,0-.252-2.45,3.48,3.48,0,0,0-.893-1.763,2.679,2.679,0,0,0-3.549,0,3.734,3.734,0,0,0-.916,1.741,9.387,9.387,0,0,0-.275,2.29,27.166,27.166,0,0,0,.137,2.84,3.984,3.984,0,0,0,.778,2.107,2.45,2.45,0,0,0,2.061.87Z" transform="translate(-752.868 430.933)" fill="#853694"/>
      <path id="Path_1411" data-name="Path 1411" d="M950.076,410.085a4.42,4.42,0,0,1-3.847-1.649,7.189,7.189,0,0,1-1.191-4.374v-2.038a7.052,7.052,0,0,1,1.168-4.374,5.68,5.68,0,0,1,7.74-.069,6.871,6.871,0,0,1,1.168,4.282v2.29a7.168,7.168,0,0,1-1.168,4.351A4.58,4.58,0,0,1,950.076,410.085Zm0-2.611a1.535,1.535,0,0,0,1.237-.458,2.584,2.584,0,0,0,.55-1.236,9.149,9.149,0,0,0,.137-1.626v-2.29a6.511,6.511,0,0,0-.344-2.29,1.809,1.809,0,0,0-3.16,0,7.31,7.31,0,0,0-.321,2.29v2.29a9.167,9.167,0,0,0,.16,1.626,2.588,2.588,0,0,0,.527,1.214A1.512,1.512,0,0,0,950.076,407.475Zm3.069,14.793,7.168-26.014h2.977l-7.1,26.014Zm13.122.16a4.419,4.419,0,0,1-3.824-1.626,7.372,7.372,0,0,1-1.168-4.4v-2.038a7.3,7.3,0,0,1,1.122-4.374,5.708,5.708,0,0,1,7.763-.069,7.1,7.1,0,0,1,1.145,4.328v2.29a7.146,7.146,0,0,1-1.168,4.374,4.58,4.58,0,0,1-3.87,1.512Zm0-2.611a1.6,1.6,0,0,0,1.26-.458,2.29,2.29,0,0,0,.526-1.237,9.152,9.152,0,0,0,.138-1.6v-2.29a6.513,6.513,0,0,0-.344-2.29,1.466,1.466,0,0,0-1.58-.916,1.489,1.489,0,0,0-1.58.939,7.308,7.308,0,0,0-.321,2.29v2.29a7.382,7.382,0,0,0,.16,1.626,2.476,2.476,0,0,0,.55,1.214,1.421,1.421,0,0,0,1.191.435Z" transform="translate(-743.949 431.195)" fill="#853694"/>
    </g>
    <path id="Path_2858" data-name="Path 2858" d="M3.5.154A2.453,2.453,0,0,1,2.051-.238,2.248,2.248,0,0,1,1.239-1.4,6.034,6.034,0,0,1,.98-3.3V-8.246a5.13,5.13,0,0,1,.259-1.729,2.212,2.212,0,0,1,.812-1.106,2.459,2.459,0,0,1,1.435-.385,2.939,2.939,0,0,1,1.372.28,1.752,1.752,0,0,1,.791.84,3.412,3.412,0,0,1,.259,1.428q0,.014,0,.133t0,.133H5.194A2.794,2.794,0,0,0,4.8-10.374a1.541,1.541,0,0,0-1.26-.476,1.994,1.994,0,0,0-.917.21,1.486,1.486,0,0,0-.658.742,3.674,3.674,0,0,0-.245,1.5v2.394A4.811,4.811,0,0,1,2.527-6.4a3.006,3.006,0,0,1,1.127-.21,2.846,2.846,0,0,1,1.463.322A1.771,1.771,0,0,1,5.88-5.215,7.443,7.443,0,0,1,6.1-3.164a5.465,5.465,0,0,1-.259,1.792A2.217,2.217,0,0,1,5.019-.238,2.627,2.627,0,0,1,3.5.154Zm0-.63A2.119,2.119,0,0,0,4.508-.693a1.409,1.409,0,0,0,.623-.784,4.605,4.605,0,0,0,.217-1.589,8.871,8.871,0,0,0-.133-1.722,1.465,1.465,0,0,0-.525-.931A2.015,2.015,0,0,0,3.5-6.006a2.537,2.537,0,0,0-.686.1,4.516,4.516,0,0,0-.644.231,2.635,2.635,0,0,0-.448.245v2.114a5.807,5.807,0,0,0,.2,1.729,1.517,1.517,0,0,0,.6.868A1.826,1.826,0,0,0,3.5-.476Zm4.1-3.99v-.616h2.884v.616ZM11.928,0V-8.092h.7v.854a2.9,2.9,0,0,1,.882-.735,2.159,2.159,0,0,1,1.022-.259,1.411,1.411,0,0,1,.763.224,1.278,1.278,0,0,1,.5.854,3.034,3.034,0,0,1,.91-.8,2.159,2.159,0,0,1,1.064-.28,1.422,1.422,0,0,1,.644.154,1.155,1.155,0,0,1,.5.553,2.613,2.613,0,0,1,.2,1.127V0H18.4V-6.412a1.514,1.514,0,0,0-.252-1.036.838.838,0,0,0-.616-.252,1.681,1.681,0,0,0-.868.259,3.38,3.38,0,0,0-.812.693,1.361,1.361,0,0,1,.021.161q.007.091.007.189V0h-.714V-6.412a1.514,1.514,0,0,0-.252-1.036.838.838,0,0,0-.616-.252,1.66,1.66,0,0,0-.854.259,3.531,3.531,0,0,0-.812.679V0Zm10.71.126A1.948,1.948,0,0,1,21.4-.224a1.857,1.857,0,0,1-.616-1.036,6.971,6.971,0,0,1-.175-1.694V-5.138a6.971,6.971,0,0,1,.175-1.694A1.857,1.857,0,0,1,21.4-7.868a1.948,1.948,0,0,1,1.239-.35,1.973,1.973,0,0,1,1.253.35,1.854,1.854,0,0,1,.616,1.029,6.953,6.953,0,0,1,.175,1.7v2.184a6.971,6.971,0,0,1-.175,1.694,1.857,1.857,0,0,1-.616,1.036A1.973,1.973,0,0,1,22.638.126Zm0-.56a1.132,1.132,0,0,0,.868-.3,1.54,1.54,0,0,0,.357-.861,9.922,9.922,0,0,0,.077-1.33v-2.24A9.887,9.887,0,0,0,23.863-6.5a1.531,1.531,0,0,0-.357-.854,1.132,1.132,0,0,0-.868-.3,1.109,1.109,0,0,0-.861.3,1.562,1.562,0,0,0-.35.854,9.887,9.887,0,0,0-.077,1.337v2.24a9.922,9.922,0,0,0,.077,1.33,1.571,1.571,0,0,0,.35.861A1.109,1.109,0,0,0,22.638-.434Zm3.6.434V-8.092h.742v.868a3.113,3.113,0,0,1,.868-.721,2.123,2.123,0,0,1,1.05-.273,1.225,1.225,0,0,1,.651.175,1.182,1.182,0,0,1,.455.56,2.614,2.614,0,0,1,.168,1.029V0h-.742V-6.37A1.594,1.594,0,0,0,29.2-7.378a.783.783,0,0,0-.623-.266,1.6,1.6,0,0,0-.819.245,3.333,3.333,0,0,0-.777.651V0ZM33.6.084a1.327,1.327,0,0,1-.84-.224,1.031,1.031,0,0,1-.364-.6,3.952,3.952,0,0,1-.084-.854V-7.6H31.248v-.49h1.064v-2.59h.742v2.59h1.372v.49H33.054v5.908a2.373,2.373,0,0,0,.126.924q.126.266.574.266a2.335,2.335,0,0,0,.3-.021q.161-.021.3-.049V0a2.655,2.655,0,0,1-.378.063Q33.768.084,33.6.084ZM35.616,0V-11.34h.742v4.1a3.194,3.194,0,0,1,.882-.714,2.167,2.167,0,0,1,1.05-.266,1.225,1.225,0,0,1,.651.175,1.182,1.182,0,0,1,.455.56,2.614,2.614,0,0,1,.168,1.029V0h-.756V-6.37a1.632,1.632,0,0,0-.224-1.008.762.762,0,0,0-.616-.266,1.633,1.633,0,0,0-.826.245,3.27,3.27,0,0,0-.784.651V0Zm8.61,0V-11.34H46.7a3.08,3.08,0,0,1,1.764.434A2.278,2.278,0,0,1,49.35-9.73,5.115,5.115,0,0,1,49.6-8.078v4.7a5.5,5.5,0,0,1-.252,1.729,2.352,2.352,0,0,1-.861,1.2A2.885,2.885,0,0,1,46.774,0Zm.756-.6h1.75A2.04,2.04,0,0,0,48.1-.994a1.86,1.86,0,0,0,.588-1.043,6.761,6.761,0,0,0,.14-1.421V-8.022a5.433,5.433,0,0,0-.168-1.435,1.644,1.644,0,0,0-.63-.938,2.275,2.275,0,0,0-1.33-.329H44.982Zm9.156.756a2.885,2.885,0,0,1-1.715-.441,2.278,2.278,0,0,1-.847-1.2,5.8,5.8,0,0,1-.238-1.729V-8.176a5.305,5.305,0,0,1,.252-1.708,2.245,2.245,0,0,1,.861-1.162,2.938,2.938,0,0,1,1.687-.42,2.938,2.938,0,0,1,1.687.42,2.245,2.245,0,0,1,.861,1.162,5.306,5.306,0,0,1,.252,1.708v4.97A5.731,5.731,0,0,1,56.7-1.484a2.278,2.278,0,0,1-.847,1.2A2.885,2.885,0,0,1,54.138.154Zm0-.63A2.1,2.1,0,0,0,55.391-.8,1.643,1.643,0,0,0,56-1.7a4.882,4.882,0,0,0,.168-1.351V-8.288A4.807,4.807,0,0,0,56-9.632a1.621,1.621,0,0,0-.6-.889,2.128,2.128,0,0,0-1.26-.315,2.133,2.133,0,0,0-1.253.315,1.608,1.608,0,0,0-.609.889,4.807,4.807,0,0,0-.168,1.344v5.236A4.882,4.882,0,0,0,52.276-1.7a1.643,1.643,0,0,0,.609.9A2.1,2.1,0,0,0,54.138-.476ZM58.912,0V-11.34h2.744a2.716,2.716,0,0,1,1.547.371,1.882,1.882,0,0,1,.742,1.008,4.666,4.666,0,0,1,.2,1.421,5.319,5.319,0,0,1-.133,1.2,2.162,2.162,0,0,1-.49.973,1.718,1.718,0,0,1-1.043.511L64.3,0h-.756L61.782-5.712H59.668V0Zm.756-6.3h1.96a1.878,1.878,0,0,0,1.106-.273,1.41,1.41,0,0,0,.525-.777,4.275,4.275,0,0,0,.147-1.19,3.07,3.07,0,0,0-.357-1.638,1.581,1.581,0,0,0-1.435-.56H59.668ZM68.74,0V-8.092h.742V-7a2.352,2.352,0,0,1,.9-.889A2.171,2.171,0,0,1,71.4-8.176h.063a.245.245,0,0,1,.077.014v.77a.4.4,0,0,0-.147-.035q-.091-.007-.161-.007a1.9,1.9,0,0,0-1,.266,2.238,2.238,0,0,0-.749.77V0Zm5.278.126A1.6,1.6,0,0,1,73.164-.1,1.527,1.527,0,0,1,72.6-.721a2,2,0,0,1-.2-.917,2.768,2.768,0,0,1,.133-.9,1.836,1.836,0,0,1,.483-.721,5.134,5.134,0,0,1,1-.707q.651-.371,1.687-.861V-5.4a6.915,6.915,0,0,0-.1-1.372,1.162,1.162,0,0,0-.35-.686,1.035,1.035,0,0,0-.665-.2,1.716,1.716,0,0,0-.616.112.952.952,0,0,0-.483.441,1.994,1.994,0,0,0-.189.973v.21h-.728a2.674,2.674,0,0,1,.469-1.729,1.939,1.939,0,0,1,1.575-.567,1.554,1.554,0,0,1,1.428.644,4.058,4.058,0,0,1,.406,2.086v4.074q0,.112.007.427t.014.609A3.555,3.555,0,0,0,76.482,0h-.644q-.028-.294-.07-.616t-.056-.462a1.881,1.881,0,0,1-.63.854A1.677,1.677,0,0,1,74.018.126ZM74.2-.49a1.241,1.241,0,0,0,.63-.161,1.95,1.95,0,0,0,.5-.42,2.462,2.462,0,0,0,.364-.553v-2.66q-.742.392-1.239.672a4.7,4.7,0,0,0-.784.532,1.491,1.491,0,0,0-.413.567,2.056,2.056,0,0,0-.126.763,1.213,1.213,0,0,0,.336.994A1.149,1.149,0,0,0,74.2-.49Zm5.628.574a1.327,1.327,0,0,1-.84-.224,1.031,1.031,0,0,1-.364-.6A3.952,3.952,0,0,1,78.54-1.6V-7.6H77.476v-.49H78.54v-2.59h.742v2.59h1.372v.49H79.282v5.908a2.373,2.373,0,0,0,.126.924q.126.266.574.266a2.335,2.335,0,0,0,.3-.021q.161-.021.3-.049V0a2.655,2.655,0,0,1-.378.063Q80,.084,79.828.084Zm3.92.042a2.228,2.228,0,0,1-1.106-.259,1.661,1.661,0,0,1-.707-.938A5.913,5.913,0,0,1,81.69-3V-5.152a5.675,5.675,0,0,1,.252-1.932,1.574,1.574,0,0,1,.721-.9,2.4,2.4,0,0,1,1.1-.238,1.958,1.958,0,0,1,1.19.322,1.777,1.777,0,0,1,.616,1.029A7.752,7.752,0,0,1,85.75-5v.77H82.432V-2.94a6.7,6.7,0,0,0,.133,1.512,1.326,1.326,0,0,0,.427.77,1.213,1.213,0,0,0,.756.224,1.85,1.85,0,0,0,.588-.1.9.9,0,0,0,.49-.462,2.5,2.5,0,0,0,.2-1.134v-.6h.728V-2.2a2.99,2.99,0,0,1-.427,1.68A1.752,1.752,0,0,1,83.748.126Zm-1.316-4.8h2.59v-.63a8.78,8.78,0,0,0-.077-1.253,1.48,1.48,0,0,0-.343-.812,1.1,1.1,0,0,0-.84-.287,1.383,1.383,0,0,0-.749.189,1.137,1.137,0,0,0-.441.7,5.928,5.928,0,0,0-.14,1.477Zm5.633-.251a1.012,1.012,0,0,1-.608-.18,1.359,1.359,0,0,1-.4-.47,2.677,2.677,0,0,1-.237-.617L87.15-6.3a2.172,2.172,0,0,0,.188.5,1.184,1.184,0,0,0,.306.38.666.666,0,0,0,.429.147.765.765,0,0,0,.539-.188.67.67,0,0,0,.212-.5.749.749,0,0,0-.033-.261,1.325,1.325,0,0,0-.188-.351,4.432,4.432,0,0,0-.49-.555l-.906-.833a1.631,1.631,0,0,1-.335-.416.918.918,0,0,1-.114-.441.8.8,0,0,1,.233-.6,1.407,1.407,0,0,1,.51-.323,3.277,3.277,0,0,1-.384-.441.859.859,0,0,1-.171-.514.974.974,0,0,1,.131-.506.938.938,0,0,1,.376-.351,1.234,1.234,0,0,1,.588-.131.88.88,0,0,1,.568.18,1.383,1.383,0,0,1,.363.445,3.191,3.191,0,0,1,.22.527l-.343.106a3.047,3.047,0,0,0-.159-.392,1.229,1.229,0,0,0-.261-.363.564.564,0,0,0-.4-.151.7.7,0,0,0-.47.163.618.618,0,0,0-.192.5.635.635,0,0,0,.078.29,1.431,1.431,0,0,0,.2.294q.127.143.274.282l.841.7a2.336,2.336,0,0,1,.478.551,1.141,1.141,0,0,1,.143.7.825.825,0,0,1-.225.555,1.813,1.813,0,0,1-.437.318q.163.2.323.421a.945.945,0,0,1,.167.535.977.977,0,0,1-.31.8A1.2,1.2,0,0,1,88.065-4.927Zm.4-2.287a1.457,1.457,0,0,0,.347-.241.636.636,0,0,0,.208-.4.8.8,0,0,0-.1-.506,1.99,1.99,0,0,0-.433-.49L87.746-9.5a.932.932,0,0,0-.416.241.588.588,0,0,0-.163.429.625.625,0,0,0,.078.294,1.4,1.4,0,0,0,.225.3Z" transform="translate(143 2930.715)" fill="#63666b"/>
    <path id="Path_2859" data-name="Path 2859" d="M2.324,0V-10.318a1.442,1.442,0,0,1-.35.343A3.032,3.032,0,0,1,1.5-9.7q-.252.119-.469.2A3.062,3.062,0,0,1,.7-9.38v-.644a2.963,2.963,0,0,0,.413-.168,3.021,3.021,0,0,0,.469-.287,4.472,4.472,0,0,0,.462-.392,2.864,2.864,0,0,0,.392-.469H3.08V0ZM5.768,0V-.56l3.15-4.788q.35-.532.658-1.043a5.437,5.437,0,0,0,.5-1.071,3.927,3.927,0,0,0,.189-1.26,2.453,2.453,0,0,0-.441-1.554,1.533,1.533,0,0,0-1.281-.56,2.005,2.005,0,0,0-1.225.322,1.636,1.636,0,0,0-.588.9A5.255,5.255,0,0,0,6.552-8.3v.182H5.824v-.224a4.685,4.685,0,0,1,.28-1.743,2.028,2.028,0,0,1,.875-1.036,3.044,3.044,0,0,1,1.533-.343,2.285,2.285,0,0,1,1.862.756A3.186,3.186,0,0,1,11-8.61a3.779,3.779,0,0,1-.21,1.267A6.726,6.726,0,0,1,10.262-6.2Q9.94-5.642,9.59-5.11L6.622-.63H10.78V0Zm6.748-4.466v-.616H15.4v.616ZM16.842,0V-8.092h.7v.854a2.9,2.9,0,0,1,.882-.735,2.159,2.159,0,0,1,1.022-.259,1.411,1.411,0,0,1,.763.224,1.278,1.278,0,0,1,.5.854,3.034,3.034,0,0,1,.91-.8,2.159,2.159,0,0,1,1.064-.28,1.422,1.422,0,0,1,.644.154,1.155,1.155,0,0,1,.5.553,2.613,2.613,0,0,1,.2,1.127V0H23.31V-6.412a1.514,1.514,0,0,0-.252-1.036.838.838,0,0,0-.616-.252,1.681,1.681,0,0,0-.868.259,3.38,3.38,0,0,0-.812.693,1.361,1.361,0,0,1,.021.161q.007.091.007.189V0h-.714V-6.412a1.514,1.514,0,0,0-.252-1.036.838.838,0,0,0-.616-.252,1.66,1.66,0,0,0-.854.259,3.531,3.531,0,0,0-.812.679V0Zm10.71.126a1.948,1.948,0,0,1-1.239-.35A1.857,1.857,0,0,1,25.7-1.26a6.971,6.971,0,0,1-.175-1.694V-5.138A6.971,6.971,0,0,1,25.7-6.832a1.857,1.857,0,0,1,.616-1.036,1.948,1.948,0,0,1,1.239-.35,1.973,1.973,0,0,1,1.253.35,1.854,1.854,0,0,1,.616,1.029,6.953,6.953,0,0,1,.175,1.7v2.184a6.971,6.971,0,0,1-.175,1.694,1.857,1.857,0,0,1-.616,1.036A1.973,1.973,0,0,1,27.552.126Zm0-.56a1.132,1.132,0,0,0,.868-.3,1.54,1.54,0,0,0,.357-.861,9.922,9.922,0,0,0,.077-1.33v-2.24A9.887,9.887,0,0,0,28.777-6.5a1.531,1.531,0,0,0-.357-.854,1.132,1.132,0,0,0-.868-.3,1.109,1.109,0,0,0-.861.3,1.562,1.562,0,0,0-.35.854,9.887,9.887,0,0,0-.077,1.337v2.24a9.922,9.922,0,0,0,.077,1.33,1.571,1.571,0,0,0,.35.861A1.109,1.109,0,0,0,27.552-.434ZM31.15,0V-8.092h.742v.868a3.113,3.113,0,0,1,.868-.721,2.123,2.123,0,0,1,1.05-.273,1.225,1.225,0,0,1,.651.175,1.182,1.182,0,0,1,.455.56,2.614,2.614,0,0,1,.168,1.029V0h-.742V-6.37a1.594,1.594,0,0,0-.231-1.008.783.783,0,0,0-.623-.266,1.6,1.6,0,0,0-.819.245,3.333,3.333,0,0,0-.777.651V0Zm7.364.084a1.327,1.327,0,0,1-.84-.224,1.031,1.031,0,0,1-.364-.6,3.952,3.952,0,0,1-.084-.854V-7.6H36.162v-.49h1.064v-2.59h.742v2.59H39.34v.49H37.968v5.908a2.372,2.372,0,0,0,.126.924q.126.266.574.266a2.335,2.335,0,0,0,.3-.021q.161-.021.3-.049V0a2.655,2.655,0,0,1-.378.063Q38.682.084,38.514.084ZM40.53,0V-11.34h.742v4.1a3.194,3.194,0,0,1,.882-.714,2.167,2.167,0,0,1,1.05-.266,1.225,1.225,0,0,1,.651.175,1.182,1.182,0,0,1,.455.56,2.614,2.614,0,0,1,.168,1.029V0h-.756V-6.37A1.632,1.632,0,0,0,43.5-7.378a.762.762,0,0,0-.616-.266,1.633,1.633,0,0,0-.826.245,3.27,3.27,0,0,0-.784.651V0Zm8.61,0V-11.34h2.478a3.08,3.08,0,0,1,1.764.434,2.278,2.278,0,0,1,.882,1.176,5.115,5.115,0,0,1,.252,1.652v4.7a5.5,5.5,0,0,1-.252,1.729,2.352,2.352,0,0,1-.861,1.2A2.885,2.885,0,0,1,51.688,0ZM49.9-.6h1.75a2.04,2.04,0,0,0,1.372-.392,1.86,1.86,0,0,0,.588-1.043,6.761,6.761,0,0,0,.14-1.421V-8.022a5.433,5.433,0,0,0-.168-1.435,1.644,1.644,0,0,0-.63-.938,2.275,2.275,0,0,0-1.33-.329H49.9Zm9.156.756a2.885,2.885,0,0,1-1.715-.441,2.278,2.278,0,0,1-.847-1.2,5.8,5.8,0,0,1-.238-1.729V-8.176A5.305,5.305,0,0,1,56.5-9.884a2.245,2.245,0,0,1,.861-1.162,2.938,2.938,0,0,1,1.687-.42,2.938,2.938,0,0,1,1.687.42A2.245,2.245,0,0,1,61.6-9.884a5.306,5.306,0,0,1,.252,1.708v4.97a5.731,5.731,0,0,1-.238,1.722,2.278,2.278,0,0,1-.847,1.2A2.885,2.885,0,0,1,59.052.154Zm0-.63A2.1,2.1,0,0,0,60.305-.8a1.643,1.643,0,0,0,.609-.9,4.882,4.882,0,0,0,.168-1.351V-8.288a4.807,4.807,0,0,0-.168-1.344,1.621,1.621,0,0,0-.6-.889,2.128,2.128,0,0,0-1.26-.315,2.133,2.133,0,0,0-1.253.315,1.608,1.608,0,0,0-.609.889,4.807,4.807,0,0,0-.168,1.344v5.236A4.882,4.882,0,0,0,57.19-1.7a1.643,1.643,0,0,0,.609.9A2.1,2.1,0,0,0,59.052-.476ZM63.826,0V-11.34H66.57a2.716,2.716,0,0,1,1.547.371,1.882,1.882,0,0,1,.742,1.008,4.666,4.666,0,0,1,.2,1.421,5.319,5.319,0,0,1-.133,1.2,2.162,2.162,0,0,1-.49.973,1.718,1.718,0,0,1-1.043.511L69.216,0H68.46L66.7-5.712H64.582V0Zm.756-6.3h1.96a1.878,1.878,0,0,0,1.106-.273,1.41,1.41,0,0,0,.525-.777,4.275,4.275,0,0,0,.147-1.19,3.07,3.07,0,0,0-.357-1.638,1.581,1.581,0,0,0-1.435-.56H64.582ZM73.654,0V-8.092H74.4V-7a2.352,2.352,0,0,1,.9-.889,2.171,2.171,0,0,1,1.015-.287h.063a.245.245,0,0,1,.077.014v.77a.4.4,0,0,0-.147-.035q-.091-.007-.161-.007a1.9,1.9,0,0,0-1,.266,2.238,2.238,0,0,0-.749.77V0Zm5.278.126A1.6,1.6,0,0,1,78.078-.1a1.527,1.527,0,0,1-.567-.623,2,2,0,0,1-.2-.917,2.768,2.768,0,0,1,.133-.9,1.836,1.836,0,0,1,.483-.721,5.134,5.134,0,0,1,1-.707q.651-.371,1.687-.861V-5.4a6.915,6.915,0,0,0-.1-1.372,1.162,1.162,0,0,0-.35-.686,1.035,1.035,0,0,0-.665-.2,1.716,1.716,0,0,0-.616.112.952.952,0,0,0-.483.441,1.994,1.994,0,0,0-.189.973v.21h-.728a2.674,2.674,0,0,1,.469-1.729,1.939,1.939,0,0,1,1.575-.567,1.554,1.554,0,0,1,1.428.644,4.058,4.058,0,0,1,.406,2.086v4.074q0,.112.007.427t.014.609A3.555,3.555,0,0,0,81.4,0h-.644q-.028-.294-.07-.616t-.056-.462A1.881,1.881,0,0,1,80-.224,1.677,1.677,0,0,1,78.932.126Zm.182-.616a1.241,1.241,0,0,0,.63-.161,1.95,1.95,0,0,0,.5-.42,2.462,2.462,0,0,0,.364-.553v-2.66q-.742.392-1.239.672a4.7,4.7,0,0,0-.784.532,1.491,1.491,0,0,0-.413.567,2.056,2.056,0,0,0-.126.763,1.213,1.213,0,0,0,.336.994A1.149,1.149,0,0,0,79.114-.49Zm5.628.574A1.327,1.327,0,0,1,83.9-.14a1.031,1.031,0,0,1-.364-.6,3.952,3.952,0,0,1-.084-.854V-7.6H82.39v-.49h1.064v-2.59H84.2v2.59h1.372v.49H84.2v5.908a2.373,2.373,0,0,0,.126.924q.126.266.574.266a2.335,2.335,0,0,0,.3-.021q.161-.021.3-.049V0a2.655,2.655,0,0,1-.378.063Q84.91.084,84.742.084Zm3.92.042a2.228,2.228,0,0,1-1.106-.259,1.661,1.661,0,0,1-.707-.938A5.913,5.913,0,0,1,86.6-3V-5.152a5.675,5.675,0,0,1,.252-1.932,1.574,1.574,0,0,1,.721-.9,2.4,2.4,0,0,1,1.1-.238,1.958,1.958,0,0,1,1.19.322,1.777,1.777,0,0,1,.616,1.029A7.752,7.752,0,0,1,90.664-5v.77H87.346V-2.94a6.7,6.7,0,0,0,.133,1.512,1.326,1.326,0,0,0,.427.77,1.213,1.213,0,0,0,.756.224,1.85,1.85,0,0,0,.588-.1.9.9,0,0,0,.49-.462,2.5,2.5,0,0,0,.2-1.134v-.6h.728V-2.2a2.99,2.99,0,0,1-.427,1.68A1.752,1.752,0,0,1,88.662.126Zm-1.316-4.8h2.59v-.63a8.78,8.78,0,0,0-.077-1.253,1.48,1.48,0,0,0-.343-.812,1.1,1.1,0,0,0-.84-.287,1.383,1.383,0,0,0-.749.189,1.137,1.137,0,0,0-.441.7,5.928,5.928,0,0,0-.14,1.477Zm5.633-.251a1.012,1.012,0,0,1-.608-.18,1.359,1.359,0,0,1-.4-.47,2.677,2.677,0,0,1-.237-.617l.335-.106a2.172,2.172,0,0,0,.188.5,1.184,1.184,0,0,0,.306.38.666.666,0,0,0,.429.147.765.765,0,0,0,.539-.188.67.67,0,0,0,.212-.5.749.749,0,0,0-.033-.261,1.325,1.325,0,0,0-.188-.351,4.432,4.432,0,0,0-.49-.555l-.906-.833a1.631,1.631,0,0,1-.335-.416.918.918,0,0,1-.114-.441.8.8,0,0,1,.233-.6,1.407,1.407,0,0,1,.51-.323,3.277,3.277,0,0,1-.384-.441.859.859,0,0,1-.171-.514.974.974,0,0,1,.131-.506.938.938,0,0,1,.376-.351,1.234,1.234,0,0,1,.588-.131.88.88,0,0,1,.568.18,1.383,1.383,0,0,1,.363.445,3.191,3.191,0,0,1,.22.527l-.343.106a3.047,3.047,0,0,0-.159-.392,1.229,1.229,0,0,0-.261-.363.564.564,0,0,0-.4-.151.7.7,0,0,0-.47.163.618.618,0,0,0-.192.5.635.635,0,0,0,.078.29,1.431,1.431,0,0,0,.2.294q.127.143.274.282l.841.7a2.336,2.336,0,0,1,.478.551,1.141,1.141,0,0,1,.143.7.825.825,0,0,1-.225.555,1.813,1.813,0,0,1-.437.318q.163.2.323.421a.945.945,0,0,1,.167.535.977.977,0,0,1-.31.8A1.2,1.2,0,0,1,92.979-4.927Zm.4-2.287a1.457,1.457,0,0,0,.347-.241.636.636,0,0,0,.208-.4.8.8,0,0,0-.1-.506,1.99,1.99,0,0,0-.433-.49L92.66-9.5a.932.932,0,0,0-.416.241.588.588,0,0,0-.163.429.625.625,0,0,0,.078.294,1.4,1.4,0,0,0,.225.3Z" transform="translate(140 3231.715)" fill="#63666b"/>
  </g>
</svg>
