<svg xmlns="http://www.w3.org/2000/svg" width="307.42" height="695.754" viewBox="0 0 307.42 695.754">
  <g id="Group_1783" data-name="Group 1783" transform="translate(-25.896 -604.506)">
    <path id="Path_2806" data-name="Path 2806" d="M1.2,0V-12.96H4.24a3.248,3.248,0,0,1,1.824.44,2.326,2.326,0,0,1,.92,1.192,5.152,5.152,0,0,1,.264,1.712,5.129,5.129,0,0,1-.264,1.648,2.615,2.615,0,0,1-.92,1.28,2.936,2.936,0,0,1-1.808.5H2.064V0Zm.864-6.864h2a2.7,2.7,0,0,0,1.288-.272A1.674,1.674,0,0,0,6.1-8.008a4.292,4.292,0,0,0,.248-1.608,4.687,4.687,0,0,0-.224-1.624,1.408,1.408,0,0,0-.72-.816,3.173,3.173,0,0,0-1.328-.232H2.064ZM9.056,0V-12.96h4.48v.7h-3.6v5.2H12.9v.672H9.936v5.7h3.648V0Zm6.3,0V-12.96H18.5a3.1,3.1,0,0,1,1.768.424,2.151,2.151,0,0,1,.848,1.152,5.333,5.333,0,0,1,.232,1.624,6.079,6.079,0,0,1-.152,1.376,2.471,2.471,0,0,1-.56,1.112,1.963,1.963,0,0,1-1.192.584L21.52,0h-.864L18.64-6.528H16.224V0Zm.864-7.2h2.24a2.146,2.146,0,0,0,1.264-.312,1.611,1.611,0,0,0,.6-.888A4.886,4.886,0,0,0,20.5-9.76a3.508,3.508,0,0,0-.408-1.872,1.807,1.807,0,0,0-1.64-.64H16.224ZM26.3.176a3.142,3.142,0,0,1-1.96-.528,2.677,2.677,0,0,1-.936-1.416,7.06,7.06,0,0,1-.256-1.96v-5.5a6.689,6.689,0,0,1,.272-1.992,2.619,2.619,0,0,1,.96-1.376,3.2,3.2,0,0,1,1.92-.5,3.058,3.058,0,0,1,1.776.448,2.427,2.427,0,0,1,.912,1.272,6.161,6.161,0,0,1,.272,1.928V-8.8h-.832v-.656a6.09,6.09,0,0,0-.176-1.576,1.8,1.8,0,0,0-.64-1,2.133,2.133,0,0,0-1.312-.352A2.286,2.286,0,0,0,24.88-12a1.9,1.9,0,0,0-.672,1.072,6.5,6.5,0,0,0-.176,1.6V-3.6a6.1,6.1,0,0,0,.192,1.64,1.9,1.9,0,0,0,.688,1.048A2.3,2.3,0,0,0,26.3-.544a2.094,2.094,0,0,0,1.328-.368,1.847,1.847,0,0,0,.632-1.032,6.334,6.334,0,0,0,.168-1.544v-.784h.832v.64a6.931,6.931,0,0,1-.256,1.968,2.556,2.556,0,0,1-.9,1.352A2.928,2.928,0,0,1,26.3.176ZM31.136,0V-12.96h4.48v.7h-3.6v5.2h2.96v.672h-2.96v5.7h3.648V0Zm6.32,0V-12.96h.688l4.4,10.944V-12.96h.768V0h-.688l-4.4-10.96V0ZM47.52,0V-12.256H44.928v-.7h5.984v.7H48.384V0Zm3.04,0,2.72-12.96h1.008L57.024,0h-.88l-.672-3.584h-3.36L51.424,0Zm1.68-4.224h3.12L53.792-11.9Zm9.248,4.4a3.123,3.123,0,0,1-1.9-.5,2.613,2.613,0,0,1-.936-1.4,7.191,7.191,0,0,1-.264-2.032v-5.5a6.858,6.858,0,0,1,.264-2,2.5,2.5,0,0,1,.952-1.352,3.308,3.308,0,0,1,1.936-.488,3.1,3.1,0,0,1,1.784.448,2.452,2.452,0,0,1,.928,1.28,6.187,6.187,0,0,1,.28,1.968v.448H63.7v-.5a5.744,5.744,0,0,0-.192-1.608,1.8,1.8,0,0,0-.656-.984,2.209,2.209,0,0,0-1.312-.336,2.282,2.282,0,0,0-1.44.392,1.906,1.906,0,0,0-.664,1.088A6.893,6.893,0,0,0,59.264-9.3v5.648a6.209,6.209,0,0,0,.192,1.64,1.984,1.984,0,0,0,.688,1.08,2.257,2.257,0,0,0,1.408.384,2.129,2.129,0,0,0,1.336-.368,1.916,1.916,0,0,0,.656-1.056A6.37,6.37,0,0,0,63.728-3.6V-5.5H61.664v-.672h2.88V0h-.56l-.128-1.456a2.42,2.42,0,0,1-.792,1.192A2.475,2.475,0,0,1,61.488.176ZM66.672,0V-12.96h4.48v.7h-3.6v5.2h2.96v.672h-2.96v5.7H71.2V0Z" transform="translate(39 776.367) rotate(-90)" fill="#823695"/>
    <path id="Path_2814" data-name="Path 2814" d="M.448,0l2.38-11.34H3.71L6.1,0h-.77L4.746-3.136H1.806L1.2,0Zm1.47-3.7h2.73l-1.372-6.72ZM9.352.126A1.851,1.851,0,0,1,8.008-.3a2.088,2.088,0,0,1-.567-1.141,8.752,8.752,0,0,1-.133-1.6v-1.9A8.083,8.083,0,0,1,7.49-6.853,1.754,1.754,0,0,1,8.12-7.9a2.077,2.077,0,0,1,1.232-.322,1.992,1.992,0,0,1,1.267.343,1.643,1.643,0,0,1,.567.938,5.852,5.852,0,0,1,.14,1.337v.322h-.7V-5.6a4.629,4.629,0,0,0-.133-1.267,1.043,1.043,0,0,0-.413-.616,1.356,1.356,0,0,0-.728-.175,1.177,1.177,0,0,0-.826.259,1.433,1.433,0,0,0-.378.833,9.568,9.568,0,0,0-.1,1.54v2.1a5.085,5.085,0,0,0,.259,1.9,1.035,1.035,0,0,0,1.057.588,1.217,1.217,0,0,0,.819-.238,1.212,1.212,0,0,0,.357-.742,8.2,8.2,0,0,0,.084-1.3v-.308h.7v.294A7.623,7.623,0,0,1,11.2-1.274a1.79,1.79,0,0,1-.546,1.022A1.9,1.9,0,0,1,9.352.126ZM12.782,0V-11.34h.742v4.1a3.194,3.194,0,0,1,.882-.714,2.167,2.167,0,0,1,1.05-.266,1.225,1.225,0,0,1,.651.175,1.182,1.182,0,0,1,.455.56,2.614,2.614,0,0,1,.168,1.029V0h-.756V-6.37a1.632,1.632,0,0,0-.224-1.008.762.762,0,0,0-.616-.266,1.633,1.633,0,0,0-.826.245,3.27,3.27,0,0,0-.784.651V0ZM18.41,0V-8.092h.756V0Zm0-9.156v-1.288h.756v1.288ZM22.918.126a2.228,2.228,0,0,1-1.106-.259,1.661,1.661,0,0,1-.707-.938A5.913,5.913,0,0,1,20.86-3V-5.152a5.676,5.676,0,0,1,.252-1.932,1.574,1.574,0,0,1,.721-.9,2.4,2.4,0,0,1,1.1-.238,1.958,1.958,0,0,1,1.19.322,1.777,1.777,0,0,1,.616,1.029A7.752,7.752,0,0,1,24.92-5v.77H21.6V-2.94a6.7,6.7,0,0,0,.133,1.512,1.326,1.326,0,0,0,.427.77,1.213,1.213,0,0,0,.756.224,1.85,1.85,0,0,0,.588-.1A.9.9,0,0,0,24-.994a2.5,2.5,0,0,0,.2-1.134v-.6h.728V-2.2a2.99,2.99,0,0,1-.427,1.68A1.752,1.752,0,0,1,22.918.126ZM21.6-4.676h2.59v-.63a8.78,8.78,0,0,0-.077-1.253,1.48,1.48,0,0,0-.343-.812,1.1,1.1,0,0,0-.84-.287,1.383,1.383,0,0,0-.749.189,1.137,1.137,0,0,0-.441.7,5.928,5.928,0,0,0-.14,1.477ZM27.776,0,25.914-8.092h.756L28.182-.938l1.484-7.154h.714L28.6,0Zm5.712.126a2.228,2.228,0,0,1-1.106-.259,1.661,1.661,0,0,1-.707-.938A5.913,5.913,0,0,1,31.43-3V-5.152a5.676,5.676,0,0,1,.252-1.932,1.574,1.574,0,0,1,.721-.9,2.4,2.4,0,0,1,1.1-.238,1.958,1.958,0,0,1,1.19.322,1.777,1.777,0,0,1,.616,1.029A7.752,7.752,0,0,1,35.49-5v.77H32.172V-2.94a6.7,6.7,0,0,0,.133,1.512,1.326,1.326,0,0,0,.427.77,1.213,1.213,0,0,0,.756.224,1.85,1.85,0,0,0,.588-.1.9.9,0,0,0,.49-.462,2.5,2.5,0,0,0,.2-1.134v-.6h.728V-2.2a2.99,2.99,0,0,1-.427,1.68A1.752,1.752,0,0,1,33.488.126Zm-1.316-4.8h2.59v-.63a8.779,8.779,0,0,0-.077-1.253,1.48,1.48,0,0,0-.343-.812,1.1,1.1,0,0,0-.84-.287,1.383,1.383,0,0,0-.749.189,1.137,1.137,0,0,0-.441.7,5.928,5.928,0,0,0-.14,1.477ZM38.78.126A1.531,1.531,0,0,1,37.3-.679a5.986,5.986,0,0,1-.427-2.639V-4.76a9.9,9.9,0,0,1,.154-1.911,2.153,2.153,0,0,1,.56-1.155,1.585,1.585,0,0,1,1.148-.392,1.613,1.613,0,0,1,.882.231,2.367,2.367,0,0,1,.588.511V-11.34h.742V0h-.742V-.616a2.737,2.737,0,0,1-.581.5A1.491,1.491,0,0,1,38.78.126Zm.1-.574a1.408,1.408,0,0,0,.749-.21,2.579,2.579,0,0,0,.581-.476v-5.81a4.147,4.147,0,0,0-.567-.462,1.33,1.33,0,0,0-.777-.238A.965.965,0,0,0,37.856-7a6.439,6.439,0,0,0-.238,2.058v1.68a9.969,9.969,0,0,0,.1,1.6,1.763,1.763,0,0,0,.378.917A1.008,1.008,0,0,0,38.878-.448Zm9.142.6A2.885,2.885,0,0,1,46.3-.287a2.278,2.278,0,0,1-.847-1.2A5.8,5.8,0,0,1,45.22-3.22V-8.176a5.305,5.305,0,0,1,.252-1.708,2.245,2.245,0,0,1,.861-1.162,2.938,2.938,0,0,1,1.687-.42,2.938,2.938,0,0,1,1.687.42,2.245,2.245,0,0,1,.861,1.162,5.306,5.306,0,0,1,.252,1.708v4.97a5.731,5.731,0,0,1-.238,1.722,2.278,2.278,0,0,1-.847,1.2A2.885,2.885,0,0,1,48.02.154Zm0-.63A2.1,2.1,0,0,0,49.273-.8a1.643,1.643,0,0,0,.609-.9,4.882,4.882,0,0,0,.168-1.351V-8.288a4.807,4.807,0,0,0-.168-1.344,1.621,1.621,0,0,0-.6-.889,2.128,2.128,0,0,0-1.26-.315,2.133,2.133,0,0,0-1.253.315,1.608,1.608,0,0,0-.609.889,4.807,4.807,0,0,0-.168,1.344v5.236A4.882,4.882,0,0,0,46.158-1.7a1.643,1.643,0,0,0,.609.9A2.1,2.1,0,0,0,48.02-.476Zm4.7.476V-11.34h2.744a2.716,2.716,0,0,1,1.547.371,1.882,1.882,0,0,1,.742,1.008,4.666,4.666,0,0,1,.2,1.421,5.319,5.319,0,0,1-.133,1.2,2.162,2.162,0,0,1-.49.973,1.718,1.718,0,0,1-1.043.511L58.114,0h-.756L55.594-5.712H53.48V0Zm.756-6.3h1.96a1.878,1.878,0,0,0,1.106-.273,1.41,1.41,0,0,0,.525-.777,4.275,4.275,0,0,0,.147-1.19,3.07,3.07,0,0,0-.357-1.638,1.581,1.581,0,0,0-1.435-.56H53.48ZM59.906,0V-11.34H62.65a2.716,2.716,0,0,1,1.547.371,1.882,1.882,0,0,1,.742,1.008,4.666,4.666,0,0,1,.2,1.421,5.319,5.319,0,0,1-.133,1.2,2.162,2.162,0,0,1-.49.973,1.718,1.718,0,0,1-1.043.511L65.3,0H64.54L62.776-5.712H60.662V0Zm.756-6.3h1.96a1.878,1.878,0,0,0,1.106-.273,1.41,1.41,0,0,0,.525-.777A4.275,4.275,0,0,0,64.4-8.54a3.07,3.07,0,0,0-.357-1.638,1.581,1.581,0,0,0-1.435-.56H60.662Z" transform="translate(175.808 897.109)" fill="#63666b"/>
    <path id="Path_2809" data-name="Path 2809" d="M0,0H155V122.7H0Z" transform="translate(132.808 750.129)" fill="#823695"/>
    <path id="Path_2849" data-name="Path 2849" d="M0,0V6.968" transform="translate(332.977 872.756)" fill="none" stroke="#63666b" stroke-width="0.679"/>
    <path id="Path_2588" data-name="Path 2588" d="M0,0H254.261" transform="translate(78.741 872.906)" fill="none" stroke="#63666b" stroke-width="0.679"/>
    <path id="Path_565" data-name="Path 565" d="M94.728,1784.34v0Z" transform="translate(238.249 -904.046)" fill="#464749"/>
    <path id="Path_2843" data-name="Path 2843" d="M2.43.08A2.1,2.1,0,0,1,1.27-.2a1.536,1.536,0,0,1-.615-.81A3.833,3.833,0,0,1,.47-2.27H1.54a4.107,4.107,0,0,0,.06.705A1.151,1.151,0,0,0,1.855-1,.745.745,0,0,0,2.45-.77a.735.735,0,0,0,.63-.255,1.409,1.409,0,0,0,.24-.69A8.7,8.7,0,0,0,3.37-2.7a6.194,6.194,0,0,0-.06-.935,1.1,1.1,0,0,0-.25-.59.783.783,0,0,0-.6-.2.812.812,0,0,0-.56.2,1.3,1.3,0,0,0-.34.465H.65V-8.1H4.14v1.07H1.62L1.55-4.79a1.4,1.4,0,0,1,.5-.33,1.78,1.78,0,0,1,.675-.12,1.578,1.578,0,0,1,1.035.31,1.663,1.663,0,0,1,.53.85A4.5,4.5,0,0,1,4.44-2.84a6.97,6.97,0,0,1-.09,1.155,2.806,2.806,0,0,1-.315.93A1.6,1.6,0,0,1,3.42-.14,2,2,0,0,1,2.43.08ZM7.35.09A1.941,1.941,0,0,1,6.215-.22a1.834,1.834,0,0,1-.66-.85A3.3,3.3,0,0,1,5.34-2.3V-5.79a3.394,3.394,0,0,1,.21-1.245A1.747,1.747,0,0,1,6.2-7.87a2.009,2.009,0,0,1,1.145-.3,1.984,1.984,0,0,1,1.14.3,1.758,1.758,0,0,1,.65.835A3.394,3.394,0,0,1,9.35-5.79V-2.3a3.333,3.333,0,0,1-.215,1.24,1.815,1.815,0,0,1-.655.845A1.941,1.941,0,0,1,7.35.09Zm0-.88a.728.728,0,0,0,.575-.22,1.226,1.226,0,0,0,.27-.565A3.357,3.357,0,0,0,8.27-2.29V-5.8a3.692,3.692,0,0,0-.07-.735,1.124,1.124,0,0,0-.265-.555A.76.76,0,0,0,7.35-7.3a.777.777,0,0,0-.59.21,1.1,1.1,0,0,0-.27.555,3.693,3.693,0,0,0-.07.735v3.51a3.357,3.357,0,0,0,.075.715,1.175,1.175,0,0,0,.28.565A.747.747,0,0,0,7.35-.79Z" transform="translate(64.653 689.945)" fill="#63666b"/>
    <path id="Path_2844" data-name="Path 2844" d="M2.75,0V-2.17H.4V-3.29L2.51-8.1H3.77v4.98h.91v.95H3.77V0ZM1.43-3.12H2.75V-6.8ZM7.42.09A1.941,1.941,0,0,1,6.285-.22a1.834,1.834,0,0,1-.66-.85A3.3,3.3,0,0,1,5.41-2.3V-5.79a3.394,3.394,0,0,1,.21-1.245,1.747,1.747,0,0,1,.655-.835,2.009,2.009,0,0,1,1.145-.3,1.984,1.984,0,0,1,1.14.3,1.758,1.758,0,0,1,.65.835A3.394,3.394,0,0,1,9.42-5.79V-2.3A3.333,3.333,0,0,1,9.2-1.06a1.815,1.815,0,0,1-.655.845A1.941,1.941,0,0,1,7.42.09Zm0-.88a.728.728,0,0,0,.575-.22,1.226,1.226,0,0,0,.27-.565A3.357,3.357,0,0,0,8.34-2.29V-5.8a3.693,3.693,0,0,0-.07-.735,1.124,1.124,0,0,0-.265-.555A.76.76,0,0,0,7.42-7.3a.777.777,0,0,0-.59.21,1.1,1.1,0,0,0-.27.555,3.693,3.693,0,0,0-.07.735v3.51a3.357,3.357,0,0,0,.075.715,1.175,1.175,0,0,0,.28.565A.747.747,0,0,0,7.42-.79Z" transform="translate(64.653 727.213)" fill="#63666b"/>
    <path id="Path_2845" data-name="Path 2845" d="M2.38.09a2.2,2.2,0,0,1-1.1-.25A1.573,1.573,0,0,1,.62-.88,2.6,2.6,0,0,1,.4-1.99v-.27H1.46q0,.04,0,.085t0,.1a2.925,2.925,0,0,0,.085.65.885.885,0,0,0,.27.46A.835.835,0,0,0,2.38-.8a.84.84,0,0,0,.59-.185.954.954,0,0,0,.27-.525,3.9,3.9,0,0,0,.07-.78,2.064,2.064,0,0,0-.235-1.045A.954.954,0,0,0,2.25-3.78a.24.24,0,0,0-.075-.01H2.1V-4.86h.14a1.106,1.106,0,0,0,.82-.3,1.386,1.386,0,0,0,.25-.93,1.8,1.8,0,0,0-.185-.88A.767.767,0,0,0,2.39-7.3a.733.733,0,0,0-.73.365A2.3,2.3,0,0,0,1.46-6q0,.04,0,.085t0,.085H.4V-6.1A2.555,2.555,0,0,1,.62-7.21a1.576,1.576,0,0,1,.665-.71A2.23,2.23,0,0,1,2.39-8.17a2.224,2.224,0,0,1,1.11.25,1.578,1.578,0,0,1,.66.715A2.588,2.588,0,0,1,4.38-6.09a1.969,1.969,0,0,1-.315,1.17,1.566,1.566,0,0,1-.845.6,1.386,1.386,0,0,1,.625.38,1.835,1.835,0,0,1,.395.685,3.02,3.02,0,0,1,.14.965,3.579,3.579,0,0,1-.2,1.255,1.673,1.673,0,0,1-.64.83A2.049,2.049,0,0,1,2.38.09Zm4.98,0A1.941,1.941,0,0,1,6.225-.22a1.834,1.834,0,0,1-.66-.85A3.3,3.3,0,0,1,5.35-2.3V-5.79a3.394,3.394,0,0,1,.21-1.245,1.747,1.747,0,0,1,.655-.835,2.009,2.009,0,0,1,1.145-.3,1.984,1.984,0,0,1,1.14.3,1.758,1.758,0,0,1,.65.835A3.394,3.394,0,0,1,9.36-5.79V-2.3a3.333,3.333,0,0,1-.215,1.24,1.815,1.815,0,0,1-.655.845A1.941,1.941,0,0,1,7.36.09Zm0-.88a.728.728,0,0,0,.575-.22,1.226,1.226,0,0,0,.27-.565A3.357,3.357,0,0,0,8.28-2.29V-5.8a3.692,3.692,0,0,0-.07-.735,1.124,1.124,0,0,0-.265-.555A.76.76,0,0,0,7.36-7.3a.777.777,0,0,0-.59.21,1.1,1.1,0,0,0-.27.555,3.693,3.693,0,0,0-.07.735v3.51a3.357,3.357,0,0,0,.075.715,1.175,1.175,0,0,0,.28.565A.747.747,0,0,0,7.36-.79Z" transform="translate(64.653 764.478)" fill="#63666b"/>
    <path id="Path_2846" data-name="Path 2846" d="M.41,0V-.76L2.47-3.97q.23-.36.425-.67a3.405,3.405,0,0,0,.32-.655,2.328,2.328,0,0,0,.125-.8,1.8,1.8,0,0,0-.18-.88.661.661,0,0,0-.63-.32.8.8,0,0,0-.59.21,1.121,1.121,0,0,0-.29.55,3.182,3.182,0,0,0-.08.73v.27H.5v-.28A3.61,3.61,0,0,1,.7-7.065a1.632,1.632,0,0,1,.63-.815A2.051,2.051,0,0,1,2.48-8.17a1.827,1.827,0,0,1,1.46.555A2.27,2.27,0,0,1,4.42-6.08a2.988,2.988,0,0,1-.125.91,3.6,3.6,0,0,1-.325.73q-.2.34-.44.7L1.67-.9H4.23V0ZM7.37.09A1.941,1.941,0,0,1,6.235-.22a1.834,1.834,0,0,1-.66-.85A3.3,3.3,0,0,1,5.36-2.3V-5.79a3.394,3.394,0,0,1,.21-1.245,1.747,1.747,0,0,1,.655-.835,2.009,2.009,0,0,1,1.145-.3,1.984,1.984,0,0,1,1.14.3,1.758,1.758,0,0,1,.65.835A3.394,3.394,0,0,1,9.37-5.79V-2.3a3.333,3.333,0,0,1-.215,1.24A1.815,1.815,0,0,1,8.5-.215,1.941,1.941,0,0,1,7.37.09Zm0-.88a.728.728,0,0,0,.575-.22,1.226,1.226,0,0,0,.27-.565A3.357,3.357,0,0,0,8.29-2.29V-5.8a3.692,3.692,0,0,0-.07-.735,1.124,1.124,0,0,0-.265-.555A.76.76,0,0,0,7.37-7.3a.777.777,0,0,0-.59.21,1.1,1.1,0,0,0-.27.555,3.693,3.693,0,0,0-.07.735v3.51a3.357,3.357,0,0,0,.075.715,1.175,1.175,0,0,0,.28.565A.747.747,0,0,0,7.37-.79Z" transform="translate(64.653 801.745)" fill="#63666b"/>
    <path id="Path_2847" data-name="Path 2847" d="M1.71,0V-6.7a1.533,1.533,0,0,1-.225.06q-.215.05-.485.1l-.48.09q-.21.04-.22.04v-.81q.17-.04.4-.11a4.875,4.875,0,0,0,.46-.17,2.487,2.487,0,0,0,.45-.25A1.587,1.587,0,0,0,1.97-8.1h.81V0ZM6.55.09A1.941,1.941,0,0,1,5.415-.22a1.834,1.834,0,0,1-.66-.85A3.3,3.3,0,0,1,4.54-2.3V-5.79a3.394,3.394,0,0,1,.21-1.245A1.747,1.747,0,0,1,5.4-7.87a2.009,2.009,0,0,1,1.145-.3,1.984,1.984,0,0,1,1.14.3,1.758,1.758,0,0,1,.65.835A3.394,3.394,0,0,1,8.55-5.79V-2.3a3.333,3.333,0,0,1-.215,1.24,1.815,1.815,0,0,1-.655.845A1.941,1.941,0,0,1,6.55.09Zm0-.88a.728.728,0,0,0,.575-.22,1.227,1.227,0,0,0,.27-.565A3.357,3.357,0,0,0,7.47-2.29V-5.8a3.692,3.692,0,0,0-.07-.735,1.124,1.124,0,0,0-.265-.555A.76.76,0,0,0,6.55-7.3a.777.777,0,0,0-.59.21,1.1,1.1,0,0,0-.27.555,3.693,3.693,0,0,0-.07.735v3.51a3.357,3.357,0,0,0,.075.715,1.175,1.175,0,0,0,.28.565A.747.747,0,0,0,6.55-.79Z" transform="translate(64.653 839.01)" fill="#63666b"/>
    <path id="Path_2848" data-name="Path 2848" d="M2.59.09A1.941,1.941,0,0,1,1.455-.22,1.834,1.834,0,0,1,.8-1.07,3.3,3.3,0,0,1,.58-2.3V-5.79A3.394,3.394,0,0,1,.79-7.035a1.747,1.747,0,0,1,.655-.835,2.009,2.009,0,0,1,1.145-.3,1.984,1.984,0,0,1,1.14.3,1.758,1.758,0,0,1,.65.835A3.394,3.394,0,0,1,4.59-5.79V-2.3a3.333,3.333,0,0,1-.215,1.24,1.815,1.815,0,0,1-.655.845A1.941,1.941,0,0,1,2.59.09Zm0-.88a.728.728,0,0,0,.575-.22,1.226,1.226,0,0,0,.27-.565A3.357,3.357,0,0,0,3.51-2.29V-5.8a3.692,3.692,0,0,0-.07-.735,1.124,1.124,0,0,0-.265-.555A.76.76,0,0,0,2.59-7.3.777.777,0,0,0,2-7.09a1.1,1.1,0,0,0-.27.555,3.693,3.693,0,0,0-.07.735v3.51a3.357,3.357,0,0,0,.075.715,1.175,1.175,0,0,0,.28.565A.747.747,0,0,0,2.59-.79Z" transform="translate(69.611 875.339)" fill="#63666b"/>
    <path id="Path_2833" data-name="Path 2833" d="M.93,0,2.39-7.26H.22V-8.1H3.46v.52L1.96,0ZM6.45.09A1.941,1.941,0,0,1,5.315-.22a1.834,1.834,0,0,1-.66-.85A3.3,3.3,0,0,1,4.44-2.3V-5.79a3.394,3.394,0,0,1,.21-1.245A1.747,1.747,0,0,1,5.3-7.87a2.009,2.009,0,0,1,1.145-.3,1.984,1.984,0,0,1,1.14.3,1.758,1.758,0,0,1,.65.835A3.394,3.394,0,0,1,8.45-5.79V-2.3a3.333,3.333,0,0,1-.215,1.24,1.815,1.815,0,0,1-.655.845A1.941,1.941,0,0,1,6.45.09Zm0-.88a.728.728,0,0,0,.575-.22,1.226,1.226,0,0,0,.27-.565A3.357,3.357,0,0,0,7.37-2.29V-5.8a3.693,3.693,0,0,0-.07-.735,1.124,1.124,0,0,0-.265-.555A.76.76,0,0,0,6.45-7.3a.777.777,0,0,0-.59.21,1.1,1.1,0,0,0-.27.555,3.693,3.693,0,0,0-.07.735v3.51a3.357,3.357,0,0,0,.075.715,1.175,1.175,0,0,0,.28.565A.747.747,0,0,0,6.45-.79Z" transform="translate(64.653 612.676)" fill="#63666b"/>
    <path id="Path_2834" data-name="Path 2834" d="M2.57.09A1.759,1.759,0,0,1,1.43-.265a2.039,2.039,0,0,1-.645-.96A4.172,4.172,0,0,1,.58-2.57V-5.3A5.389,5.389,0,0,1,.76-6.74a2.116,2.116,0,0,1,.615-1.04A1.726,1.726,0,0,1,2.57-8.17a2.256,2.256,0,0,1,1.065.23,1.585,1.585,0,0,1,.67.67A2.326,2.326,0,0,1,4.55-6.2a.413.413,0,0,0,.005.055.462.462,0,0,1,.005.065H3.48a1.739,1.739,0,0,0-.19-.9.776.776,0,0,0-.72-.31.731.731,0,0,0-.5.185,1.135,1.135,0,0,0-.315.565,3.774,3.774,0,0,0-.105.98v1.23a1.173,1.173,0,0,1,.455-.4A1.544,1.544,0,0,1,2.83-4.89a1.694,1.694,0,0,1,1.05.29,1.563,1.563,0,0,1,.54.815A4.255,4.255,0,0,1,4.58-2.55a4.187,4.187,0,0,1-.2,1.33,2.008,2.008,0,0,1-.64.955A1.808,1.808,0,0,1,2.57.09Zm0-.89A.746.746,0,0,0,3.13-1a1.167,1.167,0,0,0,.285-.545A3.047,3.047,0,0,0,3.5-2.29a8.185,8.185,0,0,0-.045-.89,1.277,1.277,0,0,0-.235-.655.775.775,0,0,0-.65-.245.974.974,0,0,0-.4.08,1.068,1.068,0,0,0-.31.2,1.184,1.184,0,0,0-.21.265v1.21a3.216,3.216,0,0,0,.085.76A1.172,1.172,0,0,0,2.02-1,.733.733,0,0,0,2.57-.8ZM7.62.09A1.941,1.941,0,0,1,6.485-.22a1.834,1.834,0,0,1-.66-.85A3.3,3.3,0,0,1,5.61-2.3V-5.79a3.394,3.394,0,0,1,.21-1.245,1.747,1.747,0,0,1,.655-.835,2.009,2.009,0,0,1,1.145-.3,1.984,1.984,0,0,1,1.14.3,1.758,1.758,0,0,1,.65.835A3.394,3.394,0,0,1,9.62-5.79V-2.3a3.333,3.333,0,0,1-.215,1.24,1.815,1.815,0,0,1-.655.845A1.941,1.941,0,0,1,7.62.09Zm0-.88a.728.728,0,0,0,.575-.22,1.226,1.226,0,0,0,.27-.565A3.357,3.357,0,0,0,8.54-2.29V-5.8a3.692,3.692,0,0,0-.07-.735A1.124,1.124,0,0,0,8.2-7.09.76.76,0,0,0,7.62-7.3a.777.777,0,0,0-.59.21,1.1,1.1,0,0,0-.27.555,3.693,3.693,0,0,0-.07.735v3.51a3.357,3.357,0,0,0,.075.715,1.175,1.175,0,0,0,.28.565A.747.747,0,0,0,7.62-.79Z" transform="translate(64.653 649.943)" fill="#63666b"/>
    <path id="Path_2835" data-name="Path 2835" d="M0,0H5.465" transform="translate(80.085 800.157)" fill="none" stroke="#63666b" stroke-width="0.679"/>
    <path id="Path_2836" data-name="Path 2836" d="M0,0H5.465" transform="translate(80.085 836.196)" fill="none" stroke="#63666b" stroke-width="0.679"/>
    <path id="Path_2837" data-name="Path 2837" d="M0,0H5.465" transform="translate(80.085 724.111)" fill="none" stroke="#63666b" stroke-width="0.679"/>
    <path id="Path_2838" data-name="Path 2838" d="M0,0H5.465" transform="translate(80.085 761.215)" fill="none" stroke="#63666b" stroke-width="0.679"/>
    <path id="Path_2839" data-name="Path 2839" d="M0,0H5.465" transform="translate(80.085 609.08)" fill="none" stroke="#63666b" stroke-width="0.679"/>
    <path id="Path_2840" data-name="Path 2840" d="M0,0H5.465" transform="translate(80.085 645.602)" fill="none" stroke="#63666b" stroke-width="0.679"/>
    <path id="Path_2841" data-name="Path 2841" d="M0,0H5.465" transform="translate(80.085 686.149)" fill="none" stroke="#63666b" stroke-width="0.679"/>
    <path id="Path_2842" data-name="Path 2842" d="M0,269.49V0" transform="translate(85.481 609.082)" fill="none" stroke="#63666b" stroke-width="0.679"/>
    <path id="Path_2815" data-name="Path 2815" d="M1.04,0l.384-12.96h.864l2.736,11.7,2.784-11.7h.9L9.072,0H8.32L8-10.864,5.36,0H4.72L2.112-10.848,1.792,0ZM11.088,0V-12.96h4.48v.7h-3.6v5.2h2.96v.672h-2.96v5.7h3.648V0Zm6.32,0V-12.96H20.24a3.52,3.52,0,0,1,2.016.5,2.6,2.6,0,0,1,1.008,1.344,5.845,5.845,0,0,1,.288,1.888v5.376a6.287,6.287,0,0,1-.288,1.976A2.688,2.688,0,0,1,22.28-.5a3.3,3.3,0,0,1-1.96.5Zm.864-.688h2a2.332,2.332,0,0,0,1.568-.448,2.126,2.126,0,0,0,.672-1.192,7.727,7.727,0,0,0,.16-1.624V-9.168a6.209,6.209,0,0,0-.192-1.64,1.879,1.879,0,0,0-.72-1.072,2.6,2.6,0,0,0-1.52-.376H18.272Zm7.3.688V-12.96h.864V0Zm2.64,0,2.72-12.96h1.008L34.672,0h-.88L33.12-3.584H29.76L29.072,0Zm1.68-4.224h3.12L31.44-11.9ZM36.48,0V-12.96h.688l4.4,10.944V-12.96h.768V0h-.688l-4.4-10.96V0ZM47.744,0V-12.96h4.464v.688h-3.6v5.216h3.1v.672h-3.1V0Zm9.088.176a3.3,3.3,0,0,1-1.96-.5A2.6,2.6,0,0,1,53.9-1.7a6.629,6.629,0,0,1-.272-1.976V-9.344A6.063,6.063,0,0,1,53.92-11.3a2.565,2.565,0,0,1,.984-1.328,3.357,3.357,0,0,1,1.928-.48,3.357,3.357,0,0,1,1.928.48,2.565,2.565,0,0,1,.984,1.328,6.063,6.063,0,0,1,.288,1.952v5.68A6.55,6.55,0,0,1,59.76-1.7a2.6,2.6,0,0,1-.968,1.368A3.3,3.3,0,0,1,56.832.176Zm0-.72a2.4,2.4,0,0,0,1.432-.368,1.878,1.878,0,0,0,.7-1.032,5.58,5.58,0,0,0,.192-1.544V-9.472a5.493,5.493,0,0,0-.192-1.536,1.853,1.853,0,0,0-.688-1.016,2.432,2.432,0,0,0-1.44-.36,2.438,2.438,0,0,0-1.432.36,1.837,1.837,0,0,0-.7,1.016,5.493,5.493,0,0,0-.192,1.536v5.984A5.579,5.579,0,0,0,54.7-1.944a1.878,1.878,0,0,0,.7,1.032A2.4,2.4,0,0,0,56.832-.544ZM62.08,0V-12.96h.864V-.688h3.92V0Zm6.1,0V-12.96h.864V-.688h3.92V0Zm8.912.176a3.3,3.3,0,0,1-1.96-.5A2.6,2.6,0,0,1,74.16-1.7a6.629,6.629,0,0,1-.272-1.976V-9.344a6.063,6.063,0,0,1,.288-1.952,2.565,2.565,0,0,1,.984-1.328,3.357,3.357,0,0,1,1.928-.48,3.357,3.357,0,0,1,1.928.48A2.565,2.565,0,0,1,80-11.3a6.063,6.063,0,0,1,.288,1.952v5.68A6.55,6.55,0,0,1,80.016-1.7a2.6,2.6,0,0,1-.968,1.368A3.3,3.3,0,0,1,77.088.176Zm0-.72A2.4,2.4,0,0,0,78.52-.912a1.878,1.878,0,0,0,.7-1.032,5.58,5.58,0,0,0,.192-1.544V-9.472a5.493,5.493,0,0,0-.192-1.536,1.853,1.853,0,0,0-.688-1.016,2.432,2.432,0,0,0-1.44-.36,2.438,2.438,0,0,0-1.432.36,1.837,1.837,0,0,0-.7,1.016,5.493,5.493,0,0,0-.192,1.536v5.984a5.58,5.58,0,0,0,.192,1.544,1.878,1.878,0,0,0,.7,1.032A2.4,2.4,0,0,0,77.088-.544ZM83.872,0,81.616-12.96h.768l1.9,11.248,2.08-10.96H87.2l2.144,10.96L91.072-12.96h.752L89.728,0h-.736L86.784-11.344,84.624,0ZM92.5-5.1v-.7h3.3v.7Zm8.1,5.28a3.825,3.825,0,0,1-1.968-.424A2.272,2.272,0,0,1,97.64-1.4a4.54,4.54,0,0,1-.28-1.64v-9.92h.864v9.936a3.812,3.812,0,0,0,.2,1.272,1.665,1.665,0,0,0,.72.888,2.763,2.763,0,0,0,1.448.32,2.6,2.6,0,0,0,1.4-.328,1.832,1.832,0,0,0,.744-.888,3.379,3.379,0,0,0,.224-1.264V-12.96h.848v9.92a4.22,4.22,0,0,1-.3,1.64,2.411,2.411,0,0,1-1,1.152A3.669,3.669,0,0,1,100.592.176ZM105.9,0V-12.96h3.04a3.248,3.248,0,0,1,1.824.44,2.326,2.326,0,0,1,.92,1.192,5.152,5.152,0,0,1,.264,1.712,5.129,5.129,0,0,1-.264,1.648,2.615,2.615,0,0,1-.92,1.28,2.936,2.936,0,0,1-1.808.5h-2.192V0Zm.864-6.864h2a2.7,2.7,0,0,0,1.288-.272,1.674,1.674,0,0,0,.752-.872,4.292,4.292,0,0,0,.248-1.608,4.687,4.687,0,0,0-.224-1.624,1.408,1.408,0,0,0-.72-.816,3.173,3.173,0,0,0-1.328-.232h-2.016ZM119.616.176a3.3,3.3,0,0,1-1.96-.5,2.6,2.6,0,0,1-.968-1.376,6.629,6.629,0,0,1-.272-1.976V-9.344A6.063,6.063,0,0,1,116.7-11.3a2.565,2.565,0,0,1,.984-1.328,3.357,3.357,0,0,1,1.928-.48,3.357,3.357,0,0,1,1.928.48,2.565,2.565,0,0,1,.984,1.328,6.063,6.063,0,0,1,.288,1.952v5.68a6.55,6.55,0,0,1-.272,1.968,2.6,2.6,0,0,1-.968,1.368A3.3,3.3,0,0,1,119.616.176Zm0-.72a2.4,2.4,0,0,0,1.432-.368,1.878,1.878,0,0,0,.7-1.032,5.58,5.58,0,0,0,.192-1.544V-9.472a5.493,5.493,0,0,0-.192-1.536,1.853,1.853,0,0,0-.688-1.016,2.432,2.432,0,0,0-1.44-.36,2.438,2.438,0,0,0-1.432.36,1.837,1.837,0,0,0-.7,1.016,5.493,5.493,0,0,0-.192,1.536v5.984a5.58,5.58,0,0,0,.192,1.544,1.878,1.878,0,0,0,.7,1.032A2.4,2.4,0,0,0,119.616-.544ZM124.864,0V-12.96h4.464v.688h-3.6v5.216h3.1v.672h-3.1V0Zm8.816,0V-.64l3.6-5.472q.4-.608.752-1.192a6.214,6.214,0,0,0,.568-1.224,4.488,4.488,0,0,0,.216-1.44,2.8,2.8,0,0,0-.5-1.776,1.752,1.752,0,0,0-1.464-.64,2.292,2.292,0,0,0-1.4.368,1.87,1.87,0,0,0-.672,1.024,6.005,6.005,0,0,0-.2,1.5v.208h-.832v-.256a5.354,5.354,0,0,1,.32-1.992,2.318,2.318,0,0,1,1-1.184,3.478,3.478,0,0,1,1.752-.392,2.612,2.612,0,0,1,2.128.864,3.641,3.641,0,0,1,.72,2.4,4.319,4.319,0,0,1-.24,1.448,7.687,7.687,0,0,1-.608,1.312q-.368.632-.768,1.24L134.656-.72h4.752V0Zm11.088.176a3,3,0,0,1-1.84-.5,2.561,2.561,0,0,1-.912-1.36,6.931,6.931,0,0,1-.256-1.968V-9.312a6.452,6.452,0,0,1,.272-1.968,2.587,2.587,0,0,1,.936-1.336,2.978,2.978,0,0,1,1.8-.488,3.008,3.008,0,0,1,1.816.488,2.587,2.587,0,0,1,.936,1.336,6.452,6.452,0,0,1,.272,1.968v5.664a6.931,6.931,0,0,1-.256,1.968,2.561,2.561,0,0,1-.912,1.36A3.025,3.025,0,0,1,144.768.176Zm0-.656a1.949,1.949,0,0,0,1.3-.392,2.11,2.11,0,0,0,.656-1.072,5.754,5.754,0,0,0,.192-1.56V-9.44A5.754,5.754,0,0,0,146.72-11a2.064,2.064,0,0,0-.656-1.064,1.977,1.977,0,0,0-1.3-.384,1.95,1.95,0,0,0-1.28.384A2.11,2.11,0,0,0,142.824-11a5.537,5.537,0,0,0-.2,1.56V-3.5a5.537,5.537,0,0,0,.2,1.56,2.157,2.157,0,0,0,.664,1.072A1.923,1.923,0,0,0,144.768-.48Zm5.008.48V-1.664h.944V0Zm5.7.176A2.885,2.885,0,0,1,153.9-.208a2.2,2.2,0,0,1-.872-1.064,4.319,4.319,0,0,1-.272-1.608v-.24h.8v.256a4.015,4.015,0,0,0,.208,1.28,1.54,1.54,0,0,0,.616.8,2,2,0,0,0,1.1.272A2.335,2.335,0,0,0,156.56-.76a1.722,1.722,0,0,0,.76-.888,4.6,4.6,0,0,0,.28-1.792,4.29,4.29,0,0,0-.464-2.12,1.727,1.727,0,0,0-1.616-.84h-.368v-.752h.368a1.837,1.837,0,0,0,1.608-.664,3.685,3.685,0,0,0,.472-2.1,3.428,3.428,0,0,0-.424-1.792,1.618,1.618,0,0,0-1.512-.7,2.108,2.108,0,0,0-1.568.536,2.588,2.588,0,0,0-.544,1.816v.192h-.8v-.208a4.271,4.271,0,0,1,.272-1.592,2.1,2.1,0,0,1,.912-1.056,3.367,3.367,0,0,1,1.712-.376,2.82,2.82,0,0,1,1.616.424,2.5,2.5,0,0,1,.92,1.144,4.215,4.215,0,0,1,.3,1.616,3.949,3.949,0,0,1-.528,2.24,2.081,2.081,0,0,1-1.312.928,2.059,2.059,0,0,1,.84.448,2.651,2.651,0,0,1,.712,1.04,4.749,4.749,0,0,1,.288,1.808,5.409,5.409,0,0,1-.3,1.88,2.655,2.655,0,0,1-.96,1.288A2.962,2.962,0,0,1,155.472.176ZM163.488,0l.384-12.96h.864l2.736,11.7,2.784-11.7h.9L171.52,0h-.752l-.32-10.864L167.808,0h-.64L164.56-10.848,164.24,0Zm13.056.176a3.3,3.3,0,0,1-1.96-.5,2.6,2.6,0,0,1-.968-1.376,6.629,6.629,0,0,1-.272-1.976V-9.344a6.063,6.063,0,0,1,.288-1.952,2.565,2.565,0,0,1,.984-1.328,3.357,3.357,0,0,1,1.928-.48,3.357,3.357,0,0,1,1.928.48,2.565,2.565,0,0,1,.984,1.328,6.063,6.063,0,0,1,.288,1.952v5.68a6.55,6.55,0,0,1-.272,1.968A2.6,2.6,0,0,1,178.5-.328,3.3,3.3,0,0,1,176.544.176Zm0-.72a2.4,2.4,0,0,0,1.432-.368,1.878,1.878,0,0,0,.7-1.032,5.579,5.579,0,0,0,.192-1.544V-9.472a5.493,5.493,0,0,0-.192-1.536,1.853,1.853,0,0,0-.688-1.016,2.432,2.432,0,0,0-1.44-.36,2.438,2.438,0,0,0-1.432.36,1.838,1.838,0,0,0-.7,1.016,5.493,5.493,0,0,0-.192,1.536v5.984a5.579,5.579,0,0,0,.192,1.544,1.878,1.878,0,0,0,.7,1.032A2.4,2.4,0,0,0,176.544-.544ZM181.792,0V-12.96h.688l4.4,10.944V-12.96h.768V0h-.688l-4.4-10.96V0Zm10.064,0V-12.256h-2.592v-.7h5.984v.7H192.72V0Zm5.024,0V-12.96h.88v5.84H202.3v-5.84h.864V0H202.3V-6.448H197.76V0ZM208.1.16a3.13,3.13,0,0,1-1.688-.416A2.634,2.634,0,0,1,205.4-1.424a5.234,5.234,0,0,1-.424-1.776l.752-.24a7.447,7.447,0,0,0,.344,1.5,2.107,2.107,0,0,0,.712,1.016,2.171,2.171,0,0,0,1.328.36,2.227,2.227,0,0,0,1.512-.48,2.024,2.024,0,0,0,.552-1.6,2.752,2.752,0,0,0-.44-1.528,8.838,8.838,0,0,0-1.24-1.464l-2.368-2.352a4.281,4.281,0,0,1-.864-1.216,3.026,3.026,0,0,1-.272-1.248,2.466,2.466,0,0,1,.792-1.968,3.022,3.022,0,0,1,2.056-.688,3.9,3.9,0,0,1,1.184.168,2.332,2.332,0,0,1,.92.544,2.553,2.553,0,0,1,.616,1,5.794,5.794,0,0,1,.288,1.536l-.736.176a5.166,5.166,0,0,0-.3-1.52,1.824,1.824,0,0,0-.7-.9,2.3,2.3,0,0,0-1.248-.3,2.369,2.369,0,0,0-1.472.448,1.69,1.69,0,0,0-.592,1.44,2.4,2.4,0,0,0,.2.96,3.413,3.413,0,0,0,.744,1.008l2.336,2.3a9.729,9.729,0,0,1,1.352,1.64,3.432,3.432,0,0,1,.568,1.912,3.161,3.161,0,0,1-.368,1.608,2.26,2.26,0,0,1-1.024.936A3.54,3.54,0,0,1,208.1.16Z" transform="translate(100.551 930.907)" fill="#823695"/>
    <path id="Path_2810" data-name="Path 2810" d="M5.16.22A4.122,4.122,0,0,1,2.71-.41,3.254,3.254,0,0,1,1.5-2.13,8.286,8.286,0,0,1,1.16-4.6v-7.08a7.579,7.579,0,0,1,.36-2.44,3.207,3.207,0,0,1,1.23-1.66,4.2,4.2,0,0,1,2.41-.6,4.2,4.2,0,0,1,2.41.6A3.207,3.207,0,0,1,8.8-14.12a7.579,7.579,0,0,1,.36,2.44v7.1a8.187,8.187,0,0,1-.34,2.46A3.254,3.254,0,0,1,7.61-.41,4.122,4.122,0,0,1,5.16.22Zm0-.9a3,3,0,0,0,1.79-.46,2.348,2.348,0,0,0,.87-1.29,6.974,6.974,0,0,0,.24-1.93v-7.48a6.867,6.867,0,0,0-.24-1.92,2.316,2.316,0,0,0-.86-1.27,3.04,3.04,0,0,0-1.8-.45,3.048,3.048,0,0,0-1.79.45,2.3,2.3,0,0,0-.87,1.27,6.866,6.866,0,0,0-.24,1.92v7.48A6.974,6.974,0,0,0,2.5-2.43a2.348,2.348,0,0,0,.87,1.29A3,3,0,0,0,5.16-.68Zm6.5.68V-16.2h3.92a3.879,3.879,0,0,1,2.21.53,2.689,2.689,0,0,1,1.06,1.44,6.666,6.666,0,0,1,.29,2.03,7.6,7.6,0,0,1-.19,1.72,3.089,3.089,0,0,1-.7,1.39,2.454,2.454,0,0,1-1.49.73L19.36,0H18.28L15.76-8.16H12.74V0Zm1.08-9h2.8a2.682,2.682,0,0,0,1.58-.39,2.014,2.014,0,0,0,.75-1.11,6.107,6.107,0,0,0,.21-1.7,4.385,4.385,0,0,0-.51-2.34,2.259,2.259,0,0,0-2.05-.8H12.74ZM21.7,0V-16.2h3.92a3.879,3.879,0,0,1,2.21.53,2.689,2.689,0,0,1,1.06,1.44,6.666,6.666,0,0,1,.29,2.03,7.6,7.6,0,0,1-.19,1.72,3.089,3.089,0,0,1-.7,1.39,2.454,2.454,0,0,1-1.49.73L29.4,0H28.32L25.8-8.16H22.78V0Zm1.08-9h2.8a2.682,2.682,0,0,0,1.58-.39,2.014,2.014,0,0,0,.75-1.11,6.107,6.107,0,0,0,.21-1.7,4.385,4.385,0,0,0-.51-2.34,2.259,2.259,0,0,0-2.05-.8H22.78Zm9.58-.84-.68-.44,1.84-2.4-2.58-1.04.28-.7,2.5,1.2-.12-2.96h.86l-.16,2.96,2.46-1.2.28.7-2.56,1.04,1.84,2.44-.68.4L34-12.4ZM47.38,0V-4.98h-5V-6L47.2-16.2h1.24V-5.96h1.88v.98H48.44V0ZM43.5-5.96h3.88v-8.68ZM56.54.22a4.324,4.324,0,0,1-1.98-.4A2.518,2.518,0,0,1,53.4-1.4a4.846,4.846,0,0,1-.38-2.04V-3.8h1.02a3.991,3.991,0,0,0,.56,2.46,2.419,2.419,0,0,0,1.96.68,2.6,2.6,0,0,0,1.28-.3,1.979,1.979,0,0,0,.84-1.06,6.036,6.036,0,0,0,.3-2.14V-7.58a4.033,4.033,0,0,1-.99.56,4.472,4.472,0,0,1-1.77.3,4.009,4.009,0,0,1-2.08-.46,2.587,2.587,0,0,1-1.09-1.54,10.436,10.436,0,0,1-.33-2.94,7.529,7.529,0,0,1,.38-2.55,3.18,3.18,0,0,1,1.21-1.61,3.811,3.811,0,0,1,2.17-.56,3.457,3.457,0,0,1,2.06.56,3.183,3.183,0,0,1,1.14,1.65,8.823,8.823,0,0,1,.36,2.73v7.06a7.734,7.734,0,0,1-.35,2.46A3.12,3.12,0,0,1,58.58-.33,3.41,3.41,0,0,1,56.54.22Zm-.08-7.8a3.87,3.87,0,0,0,1.57-.28,4.342,4.342,0,0,0,.95-.54v-3.02a8.559,8.559,0,0,0-.28-2.48,2.162,2.162,0,0,0-.83-1.23,2.544,2.544,0,0,0-1.39-.35,2.876,2.876,0,0,0-1.44.34,2.128,2.128,0,0,0-.91,1.15,6.358,6.358,0,0,0-.31,2.21A13.359,13.359,0,0,0,54-9.32a2.036,2.036,0,0,0,.75,1.33A2.928,2.928,0,0,0,56.46-7.58Z" transform="translate(172.645 653.505)" fill="#823695"/>
    <path id="Path_2812" data-name="Path 2812" transform="translate(251.294 634.875)" fill="#692489"/>
    <path id="Path_2807" data-name="Path 2807" d="M3.29,2.058a1.758,1.758,0,0,1-1.036-.413,2.328,2.328,0,0,1-.63-.959A6.447,6.447,0,0,1,1.3-.735a17.19,17.19,0,0,1-.126-1.813q-.021-.994-.021-2.114T1.169-6.8A17.756,17.756,0,0,1,1.3-8.645a6.588,6.588,0,0,1,.329-1.442,2.214,2.214,0,0,1,.63-.952A1.67,1.67,0,0,1,3.29-11.41v.546a1.091,1.091,0,0,0-.826.567,3.72,3.72,0,0,0-.42,1.33A14.981,14.981,0,0,0,1.9-7.035q-.021,1.1-.021,2.373T1.9-2.289A14.8,14.8,0,0,0,2.044-.364,3.812,3.812,0,0,0,2.457.959a1.08,1.08,0,0,0,.833.567ZM4.228,0V-8.092H4.97v.868a3.113,3.113,0,0,1,.868-.721,2.123,2.123,0,0,1,1.05-.273,1.225,1.225,0,0,1,.651.175,1.182,1.182,0,0,1,.455.56,2.614,2.614,0,0,1,.168,1.029V0H7.42V-6.37a1.594,1.594,0,0,0-.231-1.008.783.783,0,0,0-.623-.266,1.6,1.6,0,0,0-.819.245,3.333,3.333,0,0,0-.777.651V0ZM9.3-6.314V-6.93h4.1v.616Zm0,2.282v-.63h4.1v.63ZM17.136.154a2.525,2.525,0,0,1-1.379-.336,1.924,1.924,0,0,1-.763-.931,3.779,3.779,0,0,1-.238-1.407v-.21h.7v.224a3.513,3.513,0,0,0,.182,1.12,1.348,1.348,0,0,0,.539.7,1.749,1.749,0,0,0,.959.238,2.044,2.044,0,0,0,.952-.217,1.506,1.506,0,0,0,.665-.777A4.021,4.021,0,0,0,19-3.01a3.754,3.754,0,0,0-.406-1.855A1.511,1.511,0,0,0,17.178-5.6h-.322v-.658h.322a1.607,1.607,0,0,0,1.407-.581A3.225,3.225,0,0,0,19-8.68a3,3,0,0,0-.371-1.568,1.416,1.416,0,0,0-1.323-.616,1.845,1.845,0,0,0-1.372.469,2.264,2.264,0,0,0-.476,1.589v.168h-.7V-8.82a3.737,3.737,0,0,1,.238-1.393,1.837,1.837,0,0,1,.8-.924,2.946,2.946,0,0,1,1.5-.329A2.468,2.468,0,0,1,18.7-11.1a2.186,2.186,0,0,1,.8,1,3.688,3.688,0,0,1,.259,1.414,3.455,3.455,0,0,1-.462,1.96,1.821,1.821,0,0,1-1.148.812,1.8,1.8,0,0,1,.735.392,2.32,2.32,0,0,1,.623.91,4.156,4.156,0,0,1,.252,1.582A4.733,4.733,0,0,1,19.5-1.379a2.323,2.323,0,0,1-.84,1.127A2.591,2.591,0,0,1,17.136.154ZM24.99,0V-3.486h-3.5V-4.2l3.374-7.14h.868v7.168h1.316v.686H25.732V0ZM22.274-4.172H24.99v-6.076Zm6.5,4.41-.2-.322a1.244,1.244,0,0,0,.483-.462,1.564,1.564,0,0,0,.105-.644h-.476V-2.548h.882v1.19a2.5,2.5,0,0,1-.161,1A1.287,1.287,0,0,1,28.77.238Zm-.084-6.37V-7.588h.826v1.456ZM36.722.154a3.027,3.027,0,0,1-1.386-.28,1.763,1.763,0,0,1-.812-.854,3.392,3.392,0,0,1-.266-1.428V-2.66h.714a2.794,2.794,0,0,0,.392,1.722,1.694,1.694,0,0,0,1.372.476,1.817,1.817,0,0,0,.9-.21,1.385,1.385,0,0,0,.588-.742,4.225,4.225,0,0,0,.21-1.5V-5.306a2.823,2.823,0,0,1-.693.392A3.13,3.13,0,0,1,36.5-4.7a2.806,2.806,0,0,1-1.456-.322A1.811,1.811,0,0,1,34.279-6.1a7.305,7.305,0,0,1-.231-2.058,5.27,5.27,0,0,1,.266-1.785,2.226,2.226,0,0,1,.847-1.127,2.668,2.668,0,0,1,1.519-.392,2.42,2.42,0,0,1,1.442.392,2.228,2.228,0,0,1,.8,1.155,6.176,6.176,0,0,1,.252,1.911v4.942a5.414,5.414,0,0,1-.245,1.722A2.184,2.184,0,0,1,38.15-.231,2.387,2.387,0,0,1,36.722.154Zm-.056-5.46a2.709,2.709,0,0,0,1.1-.2,3.039,3.039,0,0,0,.665-.378V-7.994a5.991,5.991,0,0,0-.2-1.736,1.514,1.514,0,0,0-.581-.861,1.781,1.781,0,0,0-.973-.245,2.013,2.013,0,0,0-1.008.238,1.49,1.49,0,0,0-.637.805,4.451,4.451,0,0,0-.217,1.547,9.352,9.352,0,0,0,.126,1.722,1.425,1.425,0,0,0,.525.931A2.049,2.049,0,0,0,36.666-5.306ZM43.456.126A2.581,2.581,0,0,1,42.091-.2a1.868,1.868,0,0,1-.77-.973,4.578,4.578,0,0,1-.245-1.6H41.8a4.27,4.27,0,0,0,.168,1.309,1.372,1.372,0,0,0,.546.756,1.773,1.773,0,0,0,.98.245,1.593,1.593,0,0,0,1.05-.315,1.774,1.774,0,0,0,.539-.98,7.5,7.5,0,0,0,.161-1.715,7.106,7.106,0,0,0-.189-1.855,1.619,1.619,0,0,0-.574-.931,1.648,1.648,0,0,0-.959-.266,1.807,1.807,0,0,0-.84.21,2.1,2.1,0,0,0-.756.742h-.6V-11.34h4.116l-.014.644H41.958l-.028,4.41A2.179,2.179,0,0,1,42.6-6.86a2.211,2.211,0,0,1,1.12-.252,1.982,1.982,0,0,1,1.3.406,2.34,2.34,0,0,1,.728,1.2,7.127,7.127,0,0,1,.231,1.967,7.944,7.944,0,0,1-.147,1.631,3.147,3.147,0,0,1-.462,1.148,1.932,1.932,0,0,1-.784.672A2.668,2.668,0,0,1,43.456.126ZM48.93,0l3.878-11.48h.672L49.63,0Zm-.154-5.838a1.189,1.189,0,0,1-1.127-.546,2.713,2.713,0,0,1-.315-1.372V-9.744a2.543,2.543,0,0,1,.322-1.358,1.213,1.213,0,0,1,1.12-.518,1.181,1.181,0,0,1,1.1.518,2.558,2.558,0,0,1,.315,1.344v2.016a2.723,2.723,0,0,1-.308,1.365A1.164,1.164,0,0,1,48.776-5.838Zm0-.588a.6.6,0,0,0,.441-.161.929.929,0,0,0,.231-.448,2.893,2.893,0,0,0,.07-.679V-9.772a2.183,2.183,0,0,0-.161-.917.586.586,0,0,0-.581-.343.6.6,0,0,0-.595.35,2.193,2.193,0,0,0-.161.91v2.058a2.893,2.893,0,0,0,.07.679.9.9,0,0,0,.238.448A.62.62,0,0,0,48.776-6.426ZM53.634.084a1.178,1.178,0,0,1-1.12-.539,2.723,2.723,0,0,1-.308-1.365V-3.808a2.588,2.588,0,0,1,.315-1.358,1.2,1.2,0,0,1,1.113-.518,1.2,1.2,0,0,1,1.106.511,2.506,2.506,0,0,1,.322,1.351v2.016a2.683,2.683,0,0,1-.308,1.358A1.182,1.182,0,0,1,53.634.084Zm0-.574a.6.6,0,0,0,.441-.161.929.929,0,0,0,.231-.448,2.893,2.893,0,0,0,.07-.679V-3.836a2.184,2.184,0,0,0-.161-.917.586.586,0,0,0-.581-.343.6.6,0,0,0-.6.343,2.183,2.183,0,0,0-.161.917v2.058a2.893,2.893,0,0,0,.07.679.9.9,0,0,0,.238.448A.62.62,0,0,0,53.634-.49Zm8.232.644a2.75,2.75,0,0,1-1.715-.462,2.342,2.342,0,0,1-.819-1.239,6.178,6.178,0,0,1-.224-1.715V-8.078a5.853,5.853,0,0,1,.238-1.743,2.292,2.292,0,0,1,.84-1.2,2.8,2.8,0,0,1,1.68-.441,2.676,2.676,0,0,1,1.554.392,2.123,2.123,0,0,1,.8,1.113,5.391,5.391,0,0,1,.238,1.687V-7.7h-.728v-.574a5.328,5.328,0,0,0-.154-1.379,1.575,1.575,0,0,0-.56-.875,1.867,1.867,0,0,0-1.148-.308,2,2,0,0,0-1.246.336,1.664,1.664,0,0,0-.588.938,5.683,5.683,0,0,0-.154,1.4V-3.15a5.336,5.336,0,0,0,.168,1.435,1.661,1.661,0,0,0,.6.917,2.011,2.011,0,0,0,1.218.322A1.832,1.832,0,0,0,63.028-.8a1.616,1.616,0,0,0,.553-.9,5.542,5.542,0,0,0,.147-1.351v-.686h.728v.56a6.065,6.065,0,0,1-.224,1.722,2.236,2.236,0,0,1-.784,1.183A2.562,2.562,0,0,1,61.866.154ZM66.094,0V-11.34h.756V0Zm2.744,1.5-.2-.322a1.43,1.43,0,0,0,.476-.511A1.627,1.627,0,0,0,69.23,0h-.5V-1.47h.9V-.154A2.457,2.457,0,0,1,69.454.854,1.549,1.549,0,0,1,68.838,1.5ZM76.328.154a2.525,2.525,0,0,1-1.379-.336,1.924,1.924,0,0,1-.763-.931,3.779,3.779,0,0,1-.238-1.407v-.21h.7v.224a3.513,3.513,0,0,0,.182,1.12,1.348,1.348,0,0,0,.539.7,1.749,1.749,0,0,0,.959.238,2.044,2.044,0,0,0,.952-.217,1.506,1.506,0,0,0,.665-.777A4.021,4.021,0,0,0,78.19-3.01a3.754,3.754,0,0,0-.406-1.855A1.511,1.511,0,0,0,76.37-5.6h-.322v-.658h.322a1.607,1.607,0,0,0,1.407-.581A3.225,3.225,0,0,0,78.19-8.68a3,3,0,0,0-.371-1.568,1.416,1.416,0,0,0-1.323-.616,1.845,1.845,0,0,0-1.372.469,2.264,2.264,0,0,0-.476,1.589v.168h-.7V-8.82a3.737,3.737,0,0,1,.238-1.393,1.837,1.837,0,0,1,.8-.924,2.946,2.946,0,0,1,1.5-.329A2.468,2.468,0,0,1,77.9-11.1a2.186,2.186,0,0,1,.805,1A3.688,3.688,0,0,1,78.96-8.68,3.455,3.455,0,0,1,78.5-6.72a1.821,1.821,0,0,1-1.148.812,1.8,1.8,0,0,1,.735.392,2.32,2.32,0,0,1,.623.91,4.156,4.156,0,0,1,.252,1.582,4.733,4.733,0,0,1-.266,1.645,2.323,2.323,0,0,1-.84,1.127A2.591,2.591,0,0,1,76.328.154ZM81.746,0l2.31-10.724H80.388v-.616h4.438v.378L82.474,0Zm4.032,0V-1.456H86.6V0ZM90.9.154a2.621,2.621,0,0,1-1.61-.434,2.241,2.241,0,0,1-.8-1.19,6.065,6.065,0,0,1-.224-1.722V-8.148a5.645,5.645,0,0,1,.238-1.722,2.263,2.263,0,0,1,.819-1.169,2.606,2.606,0,0,1,1.575-.427,2.632,2.632,0,0,1,1.589.427A2.263,2.263,0,0,1,93.31-9.87a5.645,5.645,0,0,1,.238,1.722v4.956a6.065,6.065,0,0,1-.224,1.722,2.241,2.241,0,0,1-.8,1.19A2.647,2.647,0,0,1,90.9.154Zm0-.574a1.705,1.705,0,0,0,1.134-.343A1.846,1.846,0,0,0,92.61-1.7a5.035,5.035,0,0,0,.168-1.365V-8.26a5.035,5.035,0,0,0-.168-1.365,1.806,1.806,0,0,0-.574-.931,1.73,1.73,0,0,0-1.134-.336,1.706,1.706,0,0,0-1.12.336,1.846,1.846,0,0,0-.581.931,4.845,4.845,0,0,0-.175,1.365v5.194A4.845,4.845,0,0,0,89.2-1.7a1.888,1.888,0,0,0,.581.938A1.682,1.682,0,0,0,90.9-.42ZM95-4.466v-.616h2.884v.616ZM101.85.154A2.453,2.453,0,0,1,100.4-.238,2.248,2.248,0,0,1,99.589-1.4a6.035,6.035,0,0,1-.259-1.9V-8.246a5.13,5.13,0,0,1,.259-1.729,2.212,2.212,0,0,1,.812-1.106,2.459,2.459,0,0,1,1.435-.385,2.939,2.939,0,0,1,1.372.28,1.752,1.752,0,0,1,.791.84,3.412,3.412,0,0,1,.259,1.428v.266h-.714a2.794,2.794,0,0,0-.392-1.722,1.541,1.541,0,0,0-1.26-.476,1.994,1.994,0,0,0-.917.21,1.486,1.486,0,0,0-.658.742,3.674,3.674,0,0,0-.245,1.5v2.394a4.811,4.811,0,0,1,.805-.392A3.006,3.006,0,0,1,102-6.608a2.846,2.846,0,0,1,1.463.322,1.771,1.771,0,0,1,.763,1.071,7.443,7.443,0,0,1,.224,2.051,5.465,5.465,0,0,1-.259,1.792,2.217,2.217,0,0,1-.826,1.134A2.627,2.627,0,0,1,101.85.154Zm0-.63a2.119,2.119,0,0,0,1.008-.217,1.409,1.409,0,0,0,.623-.784,4.605,4.605,0,0,0,.217-1.589,8.871,8.871,0,0,0-.133-1.722,1.465,1.465,0,0,0-.525-.931,2.015,2.015,0,0,0-1.19-.287,2.537,2.537,0,0,0-.686.1,4.516,4.516,0,0,0-.644.231,2.635,2.635,0,0,0-.448.245v2.114a5.807,5.807,0,0,0,.2,1.729,1.517,1.517,0,0,0,.6.868A1.826,1.826,0,0,0,101.85-.476ZM107.73,0V-10.318a1.442,1.442,0,0,1-.35.343,3.032,3.032,0,0,1-.476.28q-.252.119-.469.2a3.062,3.062,0,0,1-.329.112v-.644a2.963,2.963,0,0,0,.413-.168,3.021,3.021,0,0,0,.469-.287,4.472,4.472,0,0,0,.462-.392,2.864,2.864,0,0,0,.392-.469h.644V0ZM110.8,0V-1.456h.826V0Zm5,.154a2.453,2.453,0,0,1-1.449-.392,2.248,2.248,0,0,1-.812-1.162,6.035,6.035,0,0,1-.259-1.9V-8.246a5.13,5.13,0,0,1,.259-1.729,2.212,2.212,0,0,1,.812-1.106,2.459,2.459,0,0,1,1.435-.385,2.939,2.939,0,0,1,1.372.28,1.752,1.752,0,0,1,.791.84,3.412,3.412,0,0,1,.259,1.428v.266h-.714a2.794,2.794,0,0,0-.392-1.722,1.541,1.541,0,0,0-1.26-.476,1.994,1.994,0,0,0-.917.21,1.486,1.486,0,0,0-.658.742,3.674,3.674,0,0,0-.245,1.5v2.394a4.811,4.811,0,0,1,.805-.392,3.006,3.006,0,0,1,1.127-.21,2.846,2.846,0,0,1,1.463.322,1.771,1.771,0,0,1,.763,1.071,7.443,7.443,0,0,1,.224,2.051,5.465,5.465,0,0,1-.259,1.792,2.217,2.217,0,0,1-.826,1.134A2.627,2.627,0,0,1,115.794.154Zm0-.63A2.119,2.119,0,0,0,116.8-.693a1.409,1.409,0,0,0,.623-.784,4.605,4.605,0,0,0,.217-1.589,8.871,8.871,0,0,0-.133-1.722,1.465,1.465,0,0,0-.525-.931,2.015,2.015,0,0,0-1.19-.287,2.537,2.537,0,0,0-.686.1,4.516,4.516,0,0,0-.644.231,2.635,2.635,0,0,0-.448.245v2.114a5.807,5.807,0,0,0,.2,1.729,1.517,1.517,0,0,0,.6.868A1.826,1.826,0,0,0,115.794-.476Zm3.836,2.534V1.526a1.091,1.091,0,0,0,.826-.567,3.72,3.72,0,0,0,.42-1.33,14.981,14.981,0,0,0,.147-1.932q.021-1.1.021-2.373t-.021-2.373a14.8,14.8,0,0,0-.147-1.925,3.71,3.71,0,0,0-.42-1.323,1.091,1.091,0,0,0-.826-.567v-.546a1.67,1.67,0,0,1,1.036.371,2.267,2.267,0,0,1,.637.952,6.306,6.306,0,0,1,.336,1.435,17.523,17.523,0,0,1,.126,1.834q.021,1.008.021,2.142t-.021,2.114a17.421,17.421,0,0,1-.126,1.82A6.182,6.182,0,0,1,121.3.686a2.386,2.386,0,0,1-.637.959A1.758,1.758,0,0,1,119.63,2.058Z" transform="translate(141.472 674.749)" fill="#823695"/>
    <path id="Path_2813" data-name="Path 2813" d="M1.2,0V-12.96H4.24a3.248,3.248,0,0,1,1.824.44,2.326,2.326,0,0,1,.92,1.192,5.152,5.152,0,0,1,.264,1.712,5.129,5.129,0,0,1-.264,1.648,2.615,2.615,0,0,1-.92,1.28,2.936,2.936,0,0,1-1.808.5H2.064V0Zm.864-6.864h2a2.7,2.7,0,0,0,1.288-.272A1.674,1.674,0,0,0,6.1-8.008a4.292,4.292,0,0,0,.248-1.608,4.687,4.687,0,0,0-.224-1.624,1.408,1.408,0,0,0-.72-.816,3.173,3.173,0,0,0-1.328-.232H2.064ZM9.072,0V-12.96h3.136a3.1,3.1,0,0,1,1.768.424,2.151,2.151,0,0,1,.848,1.152,5.333,5.333,0,0,1,.232,1.624A6.079,6.079,0,0,1,14.9-8.384a2.471,2.471,0,0,1-.56,1.112,1.963,1.963,0,0,1-1.192.584L15.232,0h-.864L12.352-6.528H9.936V0Zm.864-7.2h2.24a2.146,2.146,0,0,0,1.264-.312,1.611,1.611,0,0,0,.6-.888,4.886,4.886,0,0,0,.168-1.36,3.508,3.508,0,0,0-.408-1.872,1.807,1.807,0,0,0-1.64-.64H9.936ZM22.832.176a2.885,2.885,0,0,1-1.576-.384,2.2,2.2,0,0,1-.872-1.064,4.319,4.319,0,0,1-.272-1.608v-.24h.8v.256a4.015,4.015,0,0,0,.208,1.28,1.54,1.54,0,0,0,.616.8,2,2,0,0,0,1.1.272A2.336,2.336,0,0,0,23.92-.76a1.722,1.722,0,0,0,.76-.888,4.6,4.6,0,0,0,.28-1.792A4.29,4.29,0,0,0,24.5-5.56,1.727,1.727,0,0,0,22.88-6.4h-.368v-.752h.368a1.837,1.837,0,0,0,1.608-.664,3.685,3.685,0,0,0,.472-2.1,3.428,3.428,0,0,0-.424-1.792,1.618,1.618,0,0,0-1.512-.7,2.108,2.108,0,0,0-1.568.536,2.588,2.588,0,0,0-.544,1.816v.192h-.8v-.208a4.271,4.271,0,0,1,.272-1.592,2.1,2.1,0,0,1,.912-1.056,3.367,3.367,0,0,1,1.712-.376,2.82,2.82,0,0,1,1.616.424,2.5,2.5,0,0,1,.92,1.144,4.215,4.215,0,0,1,.3,1.616,3.949,3.949,0,0,1-.528,2.24A2.081,2.081,0,0,1,24-6.752a2.059,2.059,0,0,1,.84.448,2.651,2.651,0,0,1,.712,1.04,4.75,4.75,0,0,1,.288,1.808,5.409,5.409,0,0,1-.3,1.88,2.655,2.655,0,0,1-.96,1.288A2.962,2.962,0,0,1,22.832.176Zm7.872,0a2.885,2.885,0,0,1-1.576-.384,2.2,2.2,0,0,1-.872-1.064,4.319,4.319,0,0,1-.272-1.608v-.24h.8v.256a4.015,4.015,0,0,0,.208,1.28,1.54,1.54,0,0,0,.616.8,2,2,0,0,0,1.1.272A2.336,2.336,0,0,0,31.792-.76a1.722,1.722,0,0,0,.76-.888,4.6,4.6,0,0,0,.28-1.792,4.29,4.29,0,0,0-.464-2.12,1.727,1.727,0,0,0-1.616-.84h-.368v-.752h.368a1.837,1.837,0,0,0,1.608-.664,3.685,3.685,0,0,0,.472-2.1,3.428,3.428,0,0,0-.424-1.792,1.618,1.618,0,0,0-1.512-.7,2.108,2.108,0,0,0-1.568.536,2.588,2.588,0,0,0-.544,1.816v.192h-.8v-.208a4.271,4.271,0,0,1,.272-1.592,2.1,2.1,0,0,1,.912-1.056A3.367,3.367,0,0,1,30.88-13.1a2.82,2.82,0,0,1,1.616.424,2.5,2.5,0,0,1,.92,1.144,4.215,4.215,0,0,1,.3,1.616,3.949,3.949,0,0,1-.528,2.24,2.081,2.081,0,0,1-1.312.928,2.059,2.059,0,0,1,.84.448,2.651,2.651,0,0,1,.712,1.04,4.75,4.75,0,0,1,.288,1.808,5.409,5.409,0,0,1-.3,1.88,2.655,2.655,0,0,1-.96,1.288A2.962,2.962,0,0,1,30.7.176Zm9.432,1.735a1.632,1.632,0,0,1-.962-.383,2.162,2.162,0,0,1-.585-.891,5.986,5.986,0,0,1-.306-1.32,15.962,15.962,0,0,1-.117-1.684q-.02-.923-.019-1.963t.019-1.989a16.488,16.488,0,0,1,.117-1.709,6.118,6.118,0,0,1,.306-1.339,2.056,2.056,0,0,1,.585-.884,1.551,1.551,0,0,1,.962-.345v.507a1.014,1.014,0,0,0-.767.526,3.454,3.454,0,0,0-.39,1.235,13.911,13.911,0,0,0-.136,1.794q-.02,1.021-.02,2.2t.02,2.2a13.741,13.741,0,0,0,.136,1.788A3.54,3.54,0,0,0,39.363.891a1,1,0,0,0,.773.526ZM41.28,0V-7.514h.689v.806a2.891,2.891,0,0,1,.806-.67,1.972,1.972,0,0,1,.975-.253,1.138,1.138,0,0,1,.6.162,1.1,1.1,0,0,1,.423.52,2.427,2.427,0,0,1,.156.955V0h-.689V-5.915a1.48,1.48,0,0,0-.215-.936.727.727,0,0,0-.579-.247,1.482,1.482,0,0,0-.76.227,3.1,3.1,0,0,0-.722.6V0Zm4.979-5.863v-.572h3.809v.572Zm0,2.119v-.585h3.809v.585ZM51.42,0V-.52l2.925-4.446q.325-.494.611-.968a5.049,5.049,0,0,0,.462-.995,3.646,3.646,0,0,0,.175-1.17,2.277,2.277,0,0,0-.41-1.443,1.424,1.424,0,0,0-1.189-.52,1.862,1.862,0,0,0-1.138.3,1.519,1.519,0,0,0-.546.832,4.879,4.879,0,0,0-.162,1.222v.169h-.676v-.208a4.35,4.35,0,0,1,.26-1.619,1.883,1.883,0,0,1,.813-.962,2.826,2.826,0,0,1,1.424-.319,2.122,2.122,0,0,1,1.729.7,2.958,2.958,0,0,1,.585,1.95,3.509,3.509,0,0,1-.195,1.176,6.245,6.245,0,0,1-.494,1.066q-.3.514-.624,1.008L52.213-.585h3.861V0Zm8.749.143a2.344,2.344,0,0,1-1.281-.312,1.787,1.787,0,0,1-.708-.865,3.509,3.509,0,0,1-.221-1.307v-.195h.65v.208a3.262,3.262,0,0,0,.169,1.04,1.252,1.252,0,0,0,.5.65,1.624,1.624,0,0,0,.891.221,1.9,1.9,0,0,0,.884-.2,1.4,1.4,0,0,0,.618-.722A3.734,3.734,0,0,0,61.9-2.8a3.486,3.486,0,0,0-.377-1.723A1.4,1.4,0,0,0,60.208-5.2h-.3v-.611h.3a1.493,1.493,0,0,0,1.306-.54A2.994,2.994,0,0,0,61.9-8.06a2.786,2.786,0,0,0-.345-1.456,1.315,1.315,0,0,0-1.229-.572,1.713,1.713,0,0,0-1.274.436,2.1,2.1,0,0,0-.442,1.476v.156h-.65V-8.19a3.47,3.47,0,0,1,.221-1.293,1.706,1.706,0,0,1,.741-.858,2.736,2.736,0,0,1,1.391-.306,2.291,2.291,0,0,1,1.313.345,2.03,2.03,0,0,1,.748.929,3.424,3.424,0,0,1,.241,1.313,3.208,3.208,0,0,1-.429,1.82,1.691,1.691,0,0,1-1.066.754,1.673,1.673,0,0,1,.683.364,2.154,2.154,0,0,1,.578.845,3.859,3.859,0,0,1,.234,1.469,4.395,4.395,0,0,1-.247,1.528,2.157,2.157,0,0,1-.78,1.047A2.406,2.406,0,0,1,60.169.143Zm3.614,1.768V1.417A1.014,1.014,0,0,0,64.55.891a3.454,3.454,0,0,0,.39-1.235,13.91,13.91,0,0,0,.137-1.794q.02-1.02.02-2.2t-.02-2.2a13.74,13.74,0,0,0-.137-1.787,3.445,3.445,0,0,0-.39-1.229,1.014,1.014,0,0,0-.767-.526V-10.6a1.551,1.551,0,0,1,.962.345,2.1,2.1,0,0,1,.591.884,5.856,5.856,0,0,1,.312,1.333,16.273,16.273,0,0,1,.117,1.7q.02.936.02,1.989t-.02,1.963a16.178,16.178,0,0,1-.117,1.69A5.741,5.741,0,0,1,65.337.637a2.215,2.215,0,0,1-.591.891A1.632,1.632,0,0,1,63.783,1.911Z" transform="translate(174.808 806.037)" fill="#fff"/>
    <path id="Path_2808" data-name="Path 2808" d="M0,0H155V61.548H0Z" transform="translate(132.808 688.98)" fill="rgba(99,102,107,0.4)"/>
    <path id="Path_2811" data-name="Path 2811" d="M4.08.176A3.142,3.142,0,0,1,2.12-.352a2.677,2.677,0,0,1-.936-1.416,7.06,7.06,0,0,1-.256-1.96v-5.5A6.689,6.689,0,0,1,1.2-11.224,2.619,2.619,0,0,1,2.16-12.6a3.2,3.2,0,0,1,1.92-.5,3.058,3.058,0,0,1,1.776.448,2.427,2.427,0,0,1,.912,1.272A6.161,6.161,0,0,1,7.04-9.456V-8.8H6.208v-.656a6.09,6.09,0,0,0-.176-1.576,1.8,1.8,0,0,0-.64-1,2.133,2.133,0,0,0-1.312-.352A2.286,2.286,0,0,0,2.656-12a1.9,1.9,0,0,0-.672,1.072,6.5,6.5,0,0,0-.176,1.6V-3.6A6.1,6.1,0,0,0,2-1.96,1.9,1.9,0,0,0,2.688-.912,2.3,2.3,0,0,0,4.08-.544,2.094,2.094,0,0,0,5.408-.912,1.847,1.847,0,0,0,6.04-1.944a6.334,6.334,0,0,0,.168-1.544v-.784H7.04v.64a6.932,6.932,0,0,1-.256,1.968,2.556,2.556,0,0,1-.9,1.352A2.928,2.928,0,0,1,4.08.176ZM8.928,0V-12.96h3.136a3.1,3.1,0,0,1,1.768.424,2.151,2.151,0,0,1,.848,1.152,5.333,5.333,0,0,1,.232,1.624,6.079,6.079,0,0,1-.152,1.376,2.471,2.471,0,0,1-.56,1.112,1.963,1.963,0,0,1-1.192.584L15.088,0h-.864L12.208-6.528H9.792V0Zm.864-7.2h2.24A2.146,2.146,0,0,0,13.3-7.512a1.611,1.611,0,0,0,.6-.888,4.886,4.886,0,0,0,.168-1.36,3.508,3.508,0,0,0-.408-1.872,1.807,1.807,0,0,0-1.64-.64H9.792ZM21.536,0V-11.792a1.648,1.648,0,0,1-.4.392,3.465,3.465,0,0,1-.544.32q-.288.136-.536.232a3.5,3.5,0,0,1-.376.128v-.736a3.386,3.386,0,0,0,.472-.192,3.452,3.452,0,0,0,.536-.328,5.111,5.111,0,0,0,.528-.448,3.273,3.273,0,0,0,.448-.536H22.4V0ZM27.92.176a2.8,2.8,0,0,1-1.656-.448A2.569,2.569,0,0,1,25.336-1.6a6.9,6.9,0,0,1-.3-2.176V-9.424a5.862,5.862,0,0,1,.3-1.976,2.528,2.528,0,0,1,.928-1.264,2.811,2.811,0,0,1,1.64-.44,3.358,3.358,0,0,1,1.568.32,2,2,0,0,1,.9.96,3.9,3.9,0,0,1,.3,1.632q0,.016,0,.152t0,.152h-.816a3.193,3.193,0,0,0-.448-1.968,1.761,1.761,0,0,0-1.44-.544,2.279,2.279,0,0,0-1.048.24,1.7,1.7,0,0,0-.752.848,4.2,4.2,0,0,0-.28,1.712v2.736a5.5,5.5,0,0,1,.92-.448,3.436,3.436,0,0,1,1.288-.24,3.252,3.252,0,0,1,1.672.368A2.024,2.024,0,0,1,30.64-5.96,8.506,8.506,0,0,1,30.9-3.616a6.246,6.246,0,0,1-.3,2.048,2.534,2.534,0,0,1-.944,1.3A3,3,0,0,1,27.92.176Zm0-.72a2.422,2.422,0,0,0,1.152-.248,1.61,1.61,0,0,0,.712-.9A5.263,5.263,0,0,0,30.032-3.5a10.138,10.138,0,0,0-.152-1.968,1.674,1.674,0,0,0-.6-1.064,2.3,2.3,0,0,0-1.36-.328,2.9,2.9,0,0,0-.784.112,5.161,5.161,0,0,0-.736.264,3.012,3.012,0,0,0-.512.28v2.416a6.637,6.637,0,0,0,.232,1.976,1.733,1.733,0,0,0,.688.992A2.086,2.086,0,0,0,27.92-.544Zm8.888,2.455a1.632,1.632,0,0,1-.962-.383,2.162,2.162,0,0,1-.585-.891,5.986,5.986,0,0,1-.306-1.32,15.962,15.962,0,0,1-.117-1.684q-.02-.923-.02-1.963t.02-1.989a16.488,16.488,0,0,1,.117-1.709,6.118,6.118,0,0,1,.306-1.339,2.056,2.056,0,0,1,.585-.884,1.551,1.551,0,0,1,.962-.345v.507a1.014,1.014,0,0,0-.767.526,3.454,3.454,0,0,0-.39,1.235,13.911,13.911,0,0,0-.136,1.794q-.02,1.021-.02,2.2t.02,2.2a13.741,13.741,0,0,0,.136,1.788A3.54,3.54,0,0,0,36.035.891a1,1,0,0,0,.773.526ZM37.952,0V-7.514h.689v.806a2.891,2.891,0,0,1,.806-.67,1.972,1.972,0,0,1,.975-.253,1.138,1.138,0,0,1,.6.162,1.1,1.1,0,0,1,.423.52,2.427,2.427,0,0,1,.156.955V0h-.689V-5.915a1.48,1.48,0,0,0-.215-.936.727.727,0,0,0-.579-.247,1.482,1.482,0,0,0-.76.227,3.1,3.1,0,0,0-.722.6V0Zm4.979-5.863v-.572H46.74v.572Zm0,2.119v-.585H46.74v.585ZM49.548,0V-9.581a1.339,1.339,0,0,1-.325.318,2.815,2.815,0,0,1-.442.26q-.234.111-.435.189a2.844,2.844,0,0,1-.306.1v-.6a2.751,2.751,0,0,0,.383-.156,2.8,2.8,0,0,0,.436-.266,4.153,4.153,0,0,0,.429-.364,2.659,2.659,0,0,0,.364-.436h.6V0ZM54.1,0V-9.581a1.339,1.339,0,0,1-.325.318,2.815,2.815,0,0,1-.442.26q-.234.111-.435.189a2.844,2.844,0,0,1-.306.1v-.6a2.751,2.751,0,0,0,.383-.156,2.8,2.8,0,0,0,.436-.266,4.153,4.153,0,0,0,.429-.364,2.659,2.659,0,0,0,.364-.436h.6V0Zm2.795,1.911V1.417A1.014,1.014,0,0,0,57.66.891a3.454,3.454,0,0,0,.39-1.235,13.911,13.911,0,0,0,.136-1.794q.02-1.02.02-2.2t-.02-2.2a13.741,13.741,0,0,0-.136-1.787,3.445,3.445,0,0,0-.39-1.229,1.014,1.014,0,0,0-.767-.526V-10.6a1.551,1.551,0,0,1,.962.345,2.1,2.1,0,0,1,.591.884,5.856,5.856,0,0,1,.312,1.333,16.271,16.271,0,0,1,.117,1.7q.019.936.019,1.989t-.019,1.963a16.177,16.177,0,0,1-.117,1.69A5.74,5.74,0,0,1,58.447.637a2.216,2.216,0,0,1-.591.891A1.632,1.632,0,0,1,56.893,1.911Z" transform="translate(177.808 725.152)" fill="#fff"/>
    <path id="Path_2822" data-name="Path 2822" d="M1.2,0V-12.96H4.24a3.248,3.248,0,0,1,1.824.44,2.326,2.326,0,0,1,.92,1.192,5.152,5.152,0,0,1,.264,1.712,5.129,5.129,0,0,1-.264,1.648,2.615,2.615,0,0,1-.92,1.28,2.936,2.936,0,0,1-1.808.5H2.064V0Zm.864-6.864h2a2.7,2.7,0,0,0,1.288-.272A1.674,1.674,0,0,0,6.1-8.008a4.292,4.292,0,0,0,.248-1.608,4.687,4.687,0,0,0-.224-1.624,1.408,1.408,0,0,0-.72-.816,3.173,3.173,0,0,0-1.328-.232H2.064ZM9.056,0V-12.96h4.48v.7h-3.6v5.2H12.9v.672H9.936v5.7h3.648V0Zm6.3,0V-12.96H18.5a3.1,3.1,0,0,1,1.768.424,2.151,2.151,0,0,1,.848,1.152,5.333,5.333,0,0,1,.232,1.624,6.079,6.079,0,0,1-.152,1.376,2.471,2.471,0,0,1-.56,1.112,1.963,1.963,0,0,1-1.192.584L21.52,0h-.864L18.64-6.528H16.224V0Zm.864-7.2h2.24a2.146,2.146,0,0,0,1.264-.312,1.611,1.611,0,0,0,.6-.888A4.886,4.886,0,0,0,20.5-9.76a3.508,3.508,0,0,0-.408-1.872,1.807,1.807,0,0,0-1.64-.64H16.224ZM26.3.176a3.142,3.142,0,0,1-1.96-.528,2.677,2.677,0,0,1-.936-1.416,7.06,7.06,0,0,1-.256-1.96v-5.5a6.689,6.689,0,0,1,.272-1.992,2.619,2.619,0,0,1,.96-1.376,3.2,3.2,0,0,1,1.92-.5,3.058,3.058,0,0,1,1.776.448,2.427,2.427,0,0,1,.912,1.272,6.161,6.161,0,0,1,.272,1.928V-8.8h-.832v-.656a6.09,6.09,0,0,0-.176-1.576,1.8,1.8,0,0,0-.64-1,2.133,2.133,0,0,0-1.312-.352A2.286,2.286,0,0,0,24.88-12a1.9,1.9,0,0,0-.672,1.072,6.5,6.5,0,0,0-.176,1.6V-3.6a6.1,6.1,0,0,0,.192,1.64,1.9,1.9,0,0,0,.688,1.048A2.3,2.3,0,0,0,26.3-.544a2.094,2.094,0,0,0,1.328-.368,1.847,1.847,0,0,0,.632-1.032,6.334,6.334,0,0,0,.168-1.544v-.784h.832v.64a6.931,6.931,0,0,1-.256,1.968,2.556,2.556,0,0,1-.9,1.352A2.928,2.928,0,0,1,26.3.176ZM31.136,0V-12.96h4.48v.7h-3.6v5.2h2.96v.672h-2.96v5.7h3.648V0Zm6.32,0V-12.96h.688l4.4,10.944V-12.96h.768V0h-.688l-4.4-10.96V0ZM47.52,0V-12.256H44.928v-.7h5.984v.7H48.384V0Zm3.04,0,2.72-12.96h1.008L57.024,0h-.88l-.672-3.584h-3.36L51.424,0Zm1.68-4.224h3.12L53.792-11.9Zm9.248,4.4a3.123,3.123,0,0,1-1.9-.5,2.613,2.613,0,0,1-.936-1.4,7.191,7.191,0,0,1-.264-2.032v-5.5a6.858,6.858,0,0,1,.264-2,2.5,2.5,0,0,1,.952-1.352,3.308,3.308,0,0,1,1.936-.488,3.1,3.1,0,0,1,1.784.448,2.452,2.452,0,0,1,.928,1.28,6.187,6.187,0,0,1,.28,1.968v.448H63.7v-.5a5.744,5.744,0,0,0-.192-1.608,1.8,1.8,0,0,0-.656-.984,2.209,2.209,0,0,0-1.312-.336,2.282,2.282,0,0,0-1.44.392,1.906,1.906,0,0,0-.664,1.088A6.893,6.893,0,0,0,59.264-9.3v5.648a6.209,6.209,0,0,0,.192,1.64,1.984,1.984,0,0,0,.688,1.08,2.257,2.257,0,0,0,1.408.384,2.129,2.129,0,0,0,1.336-.368,1.916,1.916,0,0,0,.656-1.056A6.37,6.37,0,0,0,63.728-3.6V-5.5H61.664v-.672h2.88V0h-.56l-.128-1.456a2.42,2.42,0,0,1-.792,1.192A2.475,2.475,0,0,1,61.488.176ZM66.672,0V-12.96h4.48v.7h-3.6v5.2h2.96v.672h-2.96v5.7H71.2V0Z" transform="translate(39 1125.367) rotate(-90)" fill="#823695"/>
    <path id="Path_2831" data-name="Path 2831" d="M.448,0l2.38-11.34H3.71L6.1,0h-.77L4.746-3.136H1.806L1.2,0Zm1.47-3.7h2.73l-1.372-6.72ZM9.352.126A1.851,1.851,0,0,1,8.008-.3a2.088,2.088,0,0,1-.567-1.141,8.752,8.752,0,0,1-.133-1.6v-1.9A8.083,8.083,0,0,1,7.49-6.853,1.754,1.754,0,0,1,8.12-7.9a2.077,2.077,0,0,1,1.232-.322,1.992,1.992,0,0,1,1.267.343,1.643,1.643,0,0,1,.567.938,5.852,5.852,0,0,1,.14,1.337v.322h-.7V-5.6a4.629,4.629,0,0,0-.133-1.267,1.043,1.043,0,0,0-.413-.616,1.356,1.356,0,0,0-.728-.175,1.177,1.177,0,0,0-.826.259,1.433,1.433,0,0,0-.378.833,9.568,9.568,0,0,0-.1,1.54v2.1a5.085,5.085,0,0,0,.259,1.9,1.035,1.035,0,0,0,1.057.588,1.217,1.217,0,0,0,.819-.238,1.212,1.212,0,0,0,.357-.742,8.2,8.2,0,0,0,.084-1.3v-.308h.7v.294A7.623,7.623,0,0,1,11.2-1.274a1.79,1.79,0,0,1-.546,1.022A1.9,1.9,0,0,1,9.352.126ZM12.768,0V-11.34h.742v4.1a3.194,3.194,0,0,1,.882-.714,2.167,2.167,0,0,1,1.05-.266,1.225,1.225,0,0,1,.651.175,1.182,1.182,0,0,1,.455.56,2.614,2.614,0,0,1,.168,1.029V0H15.96V-6.37a1.632,1.632,0,0,0-.224-1.008.762.762,0,0,0-.616-.266,1.633,1.633,0,0,0-.826.245,3.27,3.27,0,0,0-.784.651V0ZM18.4,0V-8.092h.756V0Zm0-9.156v-1.288h.756v1.288ZM22.9.126A2.228,2.228,0,0,1,21.8-.133a1.661,1.661,0,0,1-.707-.938A5.913,5.913,0,0,1,20.846-3V-5.152A5.676,5.676,0,0,1,21.1-7.084a1.574,1.574,0,0,1,.721-.9,2.4,2.4,0,0,1,1.1-.238,1.958,1.958,0,0,1,1.19.322,1.777,1.777,0,0,1,.616,1.029A7.752,7.752,0,0,1,24.906-5v.77H21.588V-2.94a6.7,6.7,0,0,0,.133,1.512,1.326,1.326,0,0,0,.427.77,1.213,1.213,0,0,0,.756.224,1.85,1.85,0,0,0,.588-.1.9.9,0,0,0,.49-.462,2.5,2.5,0,0,0,.2-1.134v-.6h.728V-2.2a2.99,2.99,0,0,1-.427,1.68A1.752,1.752,0,0,1,22.9.126Zm-1.316-4.8h2.59v-.63A8.78,8.78,0,0,0,24.1-6.559a1.48,1.48,0,0,0-.343-.812,1.1,1.1,0,0,0-.84-.287,1.383,1.383,0,0,0-.749.189,1.137,1.137,0,0,0-.441.7,5.928,5.928,0,0,0-.14,1.477ZM27.776,0,25.914-8.092h.756L28.182-.938l1.484-7.154h.714L28.6,0Zm5.712.126a2.228,2.228,0,0,1-1.106-.259,1.661,1.661,0,0,1-.707-.938A5.913,5.913,0,0,1,31.43-3V-5.152a5.676,5.676,0,0,1,.252-1.932,1.574,1.574,0,0,1,.721-.9,2.4,2.4,0,0,1,1.1-.238,1.958,1.958,0,0,1,1.19.322,1.777,1.777,0,0,1,.616,1.029A7.752,7.752,0,0,1,35.49-5v.77H32.172V-2.94a6.7,6.7,0,0,0,.133,1.512,1.326,1.326,0,0,0,.427.77,1.213,1.213,0,0,0,.756.224,1.85,1.85,0,0,0,.588-.1.9.9,0,0,0,.49-.462,2.5,2.5,0,0,0,.2-1.134v-.6h.728V-2.2a2.99,2.99,0,0,1-.427,1.68A1.752,1.752,0,0,1,33.488.126Zm-1.316-4.8h2.59v-.63a8.779,8.779,0,0,0-.077-1.253,1.48,1.48,0,0,0-.343-.812,1.1,1.1,0,0,0-.84-.287,1.383,1.383,0,0,0-.749.189,1.137,1.137,0,0,0-.441.7,5.928,5.928,0,0,0-.14,1.477ZM38.78.126A1.531,1.531,0,0,1,37.3-.679a5.986,5.986,0,0,1-.427-2.639V-4.76a9.9,9.9,0,0,1,.154-1.911,2.153,2.153,0,0,1,.56-1.155,1.585,1.585,0,0,1,1.148-.392,1.613,1.613,0,0,1,.882.231,2.367,2.367,0,0,1,.588.511V-11.34h.742V0h-.742V-.616a2.737,2.737,0,0,1-.581.5A1.491,1.491,0,0,1,38.78.126Zm.1-.574a1.408,1.408,0,0,0,.749-.21,2.579,2.579,0,0,0,.581-.476v-5.81a4.147,4.147,0,0,0-.567-.462,1.33,1.33,0,0,0-.777-.238A.965.965,0,0,0,37.856-7a6.439,6.439,0,0,0-.238,2.058v1.68a9.969,9.969,0,0,0,.1,1.6,1.763,1.763,0,0,0,.378.917A1.008,1.008,0,0,0,38.878-.448ZM47.726.14a2.738,2.738,0,0,1-1.477-.364,2.305,2.305,0,0,1-.882-1.022A4.58,4.58,0,0,1,45-2.8l.658-.21a6.517,6.517,0,0,0,.3,1.316,1.844,1.844,0,0,0,.623.889A1.9,1.9,0,0,0,47.74-.49a1.948,1.948,0,0,0,1.323-.42,1.771,1.771,0,0,0,.483-1.4,2.408,2.408,0,0,0-.385-1.337,7.733,7.733,0,0,0-1.085-1.281L46-6.986a3.746,3.746,0,0,1-.756-1.064,2.648,2.648,0,0,1-.238-1.092,2.158,2.158,0,0,1,.693-1.722,2.645,2.645,0,0,1,1.8-.6,3.408,3.408,0,0,1,1.036.147,2.04,2.04,0,0,1,.805.476,2.234,2.234,0,0,1,.539.875,5.07,5.07,0,0,1,.252,1.344l-.644.154a4.52,4.52,0,0,0-.266-1.33,1.6,1.6,0,0,0-.616-.791,2.011,2.011,0,0,0-1.092-.259,2.073,2.073,0,0,0-1.288.392A1.478,1.478,0,0,0,45.71-9.2a2.1,2.1,0,0,0,.175.84,2.986,2.986,0,0,0,.651.882L48.58-5.46a8.513,8.513,0,0,1,1.183,1.435,3,3,0,0,1,.5,1.673,2.766,2.766,0,0,1-.322,1.407,1.977,1.977,0,0,1-.9.819A3.1,3.1,0,0,1,47.726.14ZM51.954,0V-11.34h2.478a3.08,3.08,0,0,1,1.764.434,2.278,2.278,0,0,1,.882,1.176,5.115,5.115,0,0,1,.252,1.652v4.7a5.5,5.5,0,0,1-.252,1.729,2.352,2.352,0,0,1-.861,1.2A2.885,2.885,0,0,1,54.5,0Zm.756-.6h1.75a2.04,2.04,0,0,0,1.372-.392,1.86,1.86,0,0,0,.588-1.043,6.761,6.761,0,0,0,.14-1.421V-8.022a5.433,5.433,0,0,0-.168-1.435,1.644,1.644,0,0,0-.63-.938,2.275,2.275,0,0,0-1.33-.329H52.71Z" transform="translate(174.613 1245.537)" fill="#63666b"/>
    <path id="Path_2857" data-name="Path 2857" d="M2.676,2.316a11.925,11.925,0,0,1-1.1-2.742,11.071,11.071,0,0,1-.336-2.73A11,11,0,0,1,1.572-5.88a12.182,12.182,0,0,1,1.1-2.748l.672.276A14.208,14.208,0,0,0,2.49-5.676a12.533,12.533,0,0,0-.258,2.52A12.533,12.533,0,0,0,2.49-.636,14.208,14.208,0,0,0,3.348,2.04ZM8.124.1A4.045,4.045,0,0,1,6.036-.426a3.424,3.424,0,0,1-1.362-1.5A5.245,5.245,0,0,1,4.2-4.236a5.206,5.206,0,0,1,.474-2.3A3.431,3.431,0,0,1,6.036-8.034a4.045,4.045,0,0,1,2.088-.522,4.614,4.614,0,0,1,1.608.27,3.556,3.556,0,0,1,1.272.8l-.372.756a4.307,4.307,0,0,0-1.2-.744,3.557,3.557,0,0,0-1.3-.228A2.659,2.659,0,0,0,5.982-6.8,3.87,3.87,0,0,0,5.22-4.236a3.89,3.89,0,0,0,.762,2.574,2.659,2.659,0,0,0,2.154.906,3.556,3.556,0,0,0,1.3-.228,4.307,4.307,0,0,0,1.2-.744L11-.972a3.556,3.556,0,0,1-1.272.8A4.614,4.614,0,0,1,8.124.1ZM19.152,0h-1.08l-1.44-2.712a1.565,1.565,0,0,0-.618-.678,2.1,2.1,0,0,0-.966-.186H13.464V0h-.972V-8.46h3.48a3.187,3.187,0,0,1,2.106.612,2.222,2.222,0,0,1,.726,1.8,2.255,2.255,0,0,1-.558,1.59,2.611,2.611,0,0,1-1.59.762,1.421,1.421,0,0,1,.57.324,2.291,2.291,0,0,1,.45.612ZM15.888-4.392a2.246,2.246,0,0,0,1.47-.408,1.523,1.523,0,0,0,.486-1.236,1.481,1.481,0,0,0-.48-1.212,2.291,2.291,0,0,0-1.476-.4H13.464v3.252Zm9.768,1.356H23.1V-.492h-.744V-3.036H19.8v-.756h2.556V-6.348H23.1v2.556h2.556ZM26.94-8.46h3.348a3.035,3.035,0,0,1,2.07.648A2.314,2.314,0,0,1,33.1-5.976a2.341,2.341,0,0,1-.744,1.848,3,3,0,0,1-2.064.66H27.924V0H26.94Zm3.252,4.176q1.932,0,1.932-1.692,0-1.668-1.932-1.668H27.924v3.36ZM41.112,0h-1.08l-1.44-2.712a1.565,1.565,0,0,0-.618-.678,2.1,2.1,0,0,0-.966-.186H35.424V0h-.972V-8.46h3.48a3.187,3.187,0,0,1,2.106.612,2.222,2.222,0,0,1,.726,1.8,2.255,2.255,0,0,1-.558,1.59,2.611,2.611,0,0,1-1.59.762,1.421,1.421,0,0,1,.57.324,2.291,2.291,0,0,1,.45.612ZM37.848-4.392a2.246,2.246,0,0,0,1.47-.408A1.523,1.523,0,0,0,39.8-6.036a1.481,1.481,0,0,0-.48-1.212,2.291,2.291,0,0,0-1.476-.4H35.424v3.252Zm9.768,1.356H45.06V-.492h-.744V-3.036H41.76v-.756h2.556V-6.348h.744v2.556h2.556ZM51.4.1A4.56,4.56,0,0,1,48.228-.972l.384-.756a4.058,4.058,0,0,0,1.278.756,4.608,4.608,0,0,0,1.518.228,2.669,2.669,0,0,0,1.572-.4,1.293,1.293,0,0,0,.552-1.116.925.925,0,0,0-.264-.684,1.86,1.86,0,0,0-.7-.42,10.45,10.45,0,0,0-1.164-.324,11.345,11.345,0,0,1-1.614-.48,2.513,2.513,0,0,1-1.02-.72,1.849,1.849,0,0,1-.39-1.224,2.225,2.225,0,0,1,.378-1.278,2.443,2.443,0,0,1,1.08-.864,4.038,4.038,0,0,1,1.626-.306,4.774,4.774,0,0,1,1.638.276,3.543,3.543,0,0,1,1.29.792l-.372.756a4.122,4.122,0,0,0-1.218-.75,3.748,3.748,0,0,0-1.338-.234,2.54,2.54,0,0,0-1.542.414,1.359,1.359,0,0,0-.558,1.158,1.075,1.075,0,0,0,.492.96,4.691,4.691,0,0,0,1.488.552q1.092.264,1.716.486A2.569,2.569,0,0,1,54.1-3.48a1.672,1.672,0,0,1,.414,1.188,2.142,2.142,0,0,1-.378,1.26A2.412,2.412,0,0,1,53.052-.2,4.3,4.3,0,0,1,51.4.1ZM56.04-8.46h2.844a4.271,4.271,0,0,1,3.138,1.1,4.2,4.2,0,0,1,1.11,3.126A4.223,4.223,0,0,1,62.022-1.1,4.257,4.257,0,0,1,58.884,0H56.04ZM58.824-.84q3.288,0,3.288-3.4T58.824-7.62h-1.8V-.84Zm5.16,2.88a14.208,14.208,0,0,0,.858-2.676,12.532,12.532,0,0,0,.258-2.52,12.532,12.532,0,0,0-.258-2.52,14.208,14.208,0,0,0-.858-2.676l.672-.276a12.182,12.182,0,0,1,1.1,2.748A11,11,0,0,1,66.1-3.156a11.071,11.071,0,0,1-.336,2.73,11.925,11.925,0,0,1-1.1,2.742Zm9.888-6.276H68.016v-.756h5.856Zm0,2.4H68.016v-.756h5.856Zm9.192-2.52a2.085,2.085,0,0,1,1.122.738,2.1,2.1,0,0,1,.39,1.29,2.071,2.071,0,0,1-.894,1.782A4.115,4.115,0,0,1,81.24.1,4.115,4.115,0,0,1,78.8-.546,2.071,2.071,0,0,1,77.9-2.328a2.112,2.112,0,0,1,.4-1.314,2,2,0,0,1,1.128-.714,1.975,1.975,0,0,1-.96-.738,2.042,2.042,0,0,1-.336-1.17,1.981,1.981,0,0,1,.84-1.686,3.748,3.748,0,0,1,2.268-.618,3.742,3.742,0,0,1,2.274.618,1.986,1.986,0,0,1,.834,1.686,2.086,2.086,0,0,1-.342,1.2A1.808,1.808,0,0,1,83.064-4.356ZM81.24-6.9a1.279,1.279,0,0,0-.8.21.815.815,0,0,0-.264.678.833.833,0,0,0,.264.684,1.253,1.253,0,0,0,.8.216,1.253,1.253,0,0,0,.8-.216.833.833,0,0,0,.264-.684.815.815,0,0,0-.264-.678A1.279,1.279,0,0,0,81.24-6.9Zm0,5.328q1.308,0,1.308-.936T81.24-3.444q-1.308,0-1.308.936T81.24-1.572Zm8.712-2.784a2.044,2.044,0,0,1,1.122.744,2.129,2.129,0,0,1,.4,1.308,2.058,2.058,0,0,1-.882,1.758A4.013,4.013,0,0,1,88.188.1,6.035,6.035,0,0,1,86.46-.15,3.7,3.7,0,0,1,85.14-.8l.684-1.56a4.029,4.029,0,0,0,2.256.756,1.837,1.837,0,0,0,1.026-.216.82.82,0,0,0,.306-.72.753.753,0,0,0-.3-.672,1.8,1.8,0,0,0-.984-.2H86.82v-1.7h1.092a1.837,1.837,0,0,0,.96-.192.673.673,0,0,0,.3-.612.867.867,0,0,0-.282-.69,1.176,1.176,0,0,0-.8-.246,3.227,3.227,0,0,0-1.068.2,4.472,4.472,0,0,0-1.08.558l-.684-1.56a3.839,3.839,0,0,1,1.326-.654,5.809,5.809,0,0,1,1.674-.246,4.011,4.011,0,0,1,1.578.288,2.388,2.388,0,0,1,1.05.816A2.071,2.071,0,0,1,91.26-6.24a1.988,1.988,0,0,1-.342,1.164A1.955,1.955,0,0,1,89.952-4.356ZM94.7-.408l4.9-8.436,1.344.792L96.048.384Zm-.06-3.024A2.106,2.106,0,0,1,92.988-4.1a2.808,2.808,0,0,1-.6-1.932,2.747,2.747,0,0,1,.6-1.9A2.116,2.116,0,0,1,94.644-8.6a2.116,2.116,0,0,1,1.656.666,2.766,2.766,0,0,1,.6,1.914A2.785,2.785,0,0,1,96.3-4.1,2.115,2.115,0,0,1,94.644-3.432Zm0-1.3a.42.42,0,0,0,.4-.294,2.8,2.8,0,0,0,.126-1A2.593,2.593,0,0,0,95.04-7a.424.424,0,0,0-.4-.294.42.42,0,0,0-.4.294,2.707,2.707,0,0,0-.126.978,2.8,2.8,0,0,0,.126,1A.42.42,0,0,0,94.644-4.728ZM100.992.084a2.106,2.106,0,0,1-1.656-.672,2.808,2.808,0,0,1-.6-1.932,2.747,2.747,0,0,1,.6-1.9,2.116,2.116,0,0,1,1.656-.666,2.116,2.116,0,0,1,1.656.666,2.766,2.766,0,0,1,.6,1.914,2.785,2.785,0,0,1-.6,1.926A2.116,2.116,0,0,1,100.992.084Zm0-1.3a.42.42,0,0,0,.4-.294,2.8,2.8,0,0,0,.126-1,2.644,2.644,0,0,0-.132-.984.425.425,0,0,0-.4-.3.42.42,0,0,0-.4.294,2.753,2.753,0,0,0-.126.99,2.8,2.8,0,0,0,.126,1A.42.42,0,0,0,100.992-1.212Z" transform="translate(152.808 1073.182)" fill="#505257"/>
    <path id="Path_2820" data-name="Path 2820" d="M1.2,0V-12.96H4.032a3.52,3.52,0,0,1,2.016.5A2.6,2.6,0,0,1,7.056-11.12a5.845,5.845,0,0,1,.288,1.888v5.376A6.287,6.287,0,0,1,7.056-1.88,2.688,2.688,0,0,1,6.072-.5a3.3,3.3,0,0,1-1.96.5Zm.864-.688h2a2.332,2.332,0,0,0,1.568-.448A2.126,2.126,0,0,0,6.3-2.328a7.727,7.727,0,0,0,.16-1.624V-9.168a6.209,6.209,0,0,0-.192-1.64,1.879,1.879,0,0,0-.72-1.072,2.6,2.6,0,0,0-1.52-.376H2.064ZM9.36,0V-12.96h.864V0Zm5.776.16a3.13,3.13,0,0,1-1.688-.416A2.634,2.634,0,0,1,12.44-1.424,5.234,5.234,0,0,1,12.016-3.2l.752-.24a7.448,7.448,0,0,0,.344,1.5A2.107,2.107,0,0,0,13.824-.92a2.17,2.17,0,0,0,1.328.36,2.227,2.227,0,0,0,1.512-.48,2.024,2.024,0,0,0,.552-1.6,2.752,2.752,0,0,0-.44-1.528,8.838,8.838,0,0,0-1.24-1.464L13.168-7.984A4.281,4.281,0,0,1,12.3-9.2a3.026,3.026,0,0,1-.272-1.248,2.466,2.466,0,0,1,.792-1.968A3.022,3.022,0,0,1,14.88-13.1a3.9,3.9,0,0,1,1.184.168,2.332,2.332,0,0,1,.92.544,2.553,2.553,0,0,1,.616,1,5.794,5.794,0,0,1,.288,1.536l-.736.176a5.166,5.166,0,0,0-.3-1.52,1.824,1.824,0,0,0-.7-.9,2.3,2.3,0,0,0-1.248-.3,2.369,2.369,0,0,0-1.472.448,1.69,1.69,0,0,0-.592,1.44,2.4,2.4,0,0,0,.2.96,3.413,3.413,0,0,0,.744,1.008l2.336,2.3A9.729,9.729,0,0,1,17.464-4.6a3.432,3.432,0,0,1,.568,1.912,3.161,3.161,0,0,1-.368,1.608,2.26,2.26,0,0,1-1.024.936A3.54,3.54,0,0,1,15.136.16ZM19.792,0V-12.96h4.48v.7h-3.6v5.2h2.96v.672h-2.96v5.7H24.32V0Zm5.984,0L28.5-12.96H29.5L32.24,0h-.88l-.672-3.584h-3.36L26.64,0Zm1.68-4.224h3.12L29.008-11.9ZM36.528.16A3.13,3.13,0,0,1,34.84-.256a2.634,2.634,0,0,1-1.008-1.168A5.234,5.234,0,0,1,33.408-3.2l.752-.24a7.448,7.448,0,0,0,.344,1.5A2.107,2.107,0,0,0,35.216-.92a2.17,2.17,0,0,0,1.328.36,2.227,2.227,0,0,0,1.512-.48,2.024,2.024,0,0,0,.552-1.6,2.752,2.752,0,0,0-.44-1.528,8.838,8.838,0,0,0-1.24-1.464L34.56-7.984A4.281,4.281,0,0,1,33.7-9.2a3.027,3.027,0,0,1-.272-1.248,2.466,2.466,0,0,1,.792-1.968,3.022,3.022,0,0,1,2.056-.688,3.9,3.9,0,0,1,1.184.168,2.332,2.332,0,0,1,.92.544,2.553,2.553,0,0,1,.616,1,5.794,5.794,0,0,1,.288,1.536l-.736.176a5.166,5.166,0,0,0-.3-1.52,1.824,1.824,0,0,0-.7-.9,2.3,2.3,0,0,0-1.248-.3,2.369,2.369,0,0,0-1.472.448,1.69,1.69,0,0,0-.592,1.44,2.4,2.4,0,0,0,.2.96,3.413,3.413,0,0,0,.744,1.008L37.5-6.24A9.729,9.729,0,0,1,38.856-4.6a3.432,3.432,0,0,1,.568,1.912,3.161,3.161,0,0,1-.368,1.608,2.26,2.26,0,0,1-1.024.936A3.54,3.54,0,0,1,36.528.16ZM41.184,0V-12.96h4.48v.7h-3.6v5.2h2.96v.672h-2.96v5.7h3.648V0ZM53.392.176a3.142,3.142,0,0,1-1.96-.528A2.677,2.677,0,0,1,50.5-1.768a7.06,7.06,0,0,1-.256-1.96v-5.5a6.689,6.689,0,0,1,.272-1.992,2.619,2.619,0,0,1,.96-1.376,3.2,3.2,0,0,1,1.92-.5,3.058,3.058,0,0,1,1.776.448,2.427,2.427,0,0,1,.912,1.272,6.161,6.161,0,0,1,.272,1.928V-8.8H55.52v-.656a6.09,6.09,0,0,0-.176-1.576,1.8,1.8,0,0,0-.64-1,2.133,2.133,0,0,0-1.312-.352A2.287,2.287,0,0,0,51.968-12a1.9,1.9,0,0,0-.672,1.072,6.5,6.5,0,0,0-.176,1.6V-3.6a6.1,6.1,0,0,0,.192,1.64A1.9,1.9,0,0,0,52-.912a2.3,2.3,0,0,0,1.392.368A2.094,2.094,0,0,0,54.72-.912a1.847,1.847,0,0,0,.632-1.032,6.334,6.334,0,0,0,.168-1.544v-.784h.832v.64A6.932,6.932,0,0,1,56.1-1.664a2.556,2.556,0,0,1-.9,1.352A2.928,2.928,0,0,1,53.392.176Zm7.872,0a3.3,3.3,0,0,1-1.96-.5A2.6,2.6,0,0,1,58.336-1.7a6.629,6.629,0,0,1-.272-1.976V-9.344a6.063,6.063,0,0,1,.288-1.952,2.565,2.565,0,0,1,.984-1.328,3.357,3.357,0,0,1,1.928-.48,3.357,3.357,0,0,1,1.928.48,2.565,2.565,0,0,1,.984,1.328,6.063,6.063,0,0,1,.288,1.952v5.68A6.55,6.55,0,0,1,64.192-1.7a2.6,2.6,0,0,1-.968,1.368A3.3,3.3,0,0,1,61.264.176Zm0-.72A2.4,2.4,0,0,0,62.7-.912a1.878,1.878,0,0,0,.7-1.032,5.58,5.58,0,0,0,.192-1.544V-9.472a5.493,5.493,0,0,0-.192-1.536,1.853,1.853,0,0,0-.688-1.016,2.432,2.432,0,0,0-1.44-.36,2.438,2.438,0,0,0-1.432.36,1.837,1.837,0,0,0-.7,1.016,5.493,5.493,0,0,0-.192,1.536v5.984a5.579,5.579,0,0,0,.192,1.544,1.878,1.878,0,0,0,.7,1.032A2.4,2.4,0,0,0,61.264-.544ZM66.512,0V-12.96H67.2L71.6-2.016V-12.96h.768V0H71.68l-4.4-10.96V0ZM76.576,0V-12.256H73.984v-.7h5.984v.7H77.44V0ZM81.6,0V-12.96h3.136a3.1,3.1,0,0,1,1.768.424,2.151,2.151,0,0,1,.848,1.152,5.333,5.333,0,0,1,.232,1.624,6.079,6.079,0,0,1-.152,1.376,2.471,2.471,0,0,1-.56,1.112,1.963,1.963,0,0,1-1.192.584L87.76,0H86.9L84.88-6.528H82.464V0Zm.864-7.2H84.7a2.146,2.146,0,0,0,1.264-.312,1.611,1.611,0,0,0,.6-.888,4.886,4.886,0,0,0,.168-1.36,3.508,3.508,0,0,0-.408-1.872,1.807,1.807,0,0,0-1.64-.64H82.464ZM92.592.176a3.3,3.3,0,0,1-1.96-.5A2.6,2.6,0,0,1,89.664-1.7a6.629,6.629,0,0,1-.272-1.976V-9.344A6.063,6.063,0,0,1,89.68-11.3a2.565,2.565,0,0,1,.984-1.328,3.357,3.357,0,0,1,1.928-.48,3.357,3.357,0,0,1,1.928.48A2.565,2.565,0,0,1,95.5-11.3a6.063,6.063,0,0,1,.288,1.952v5.68A6.55,6.55,0,0,1,95.52-1.7a2.6,2.6,0,0,1-.968,1.368A3.3,3.3,0,0,1,92.592.176Zm0-.72a2.4,2.4,0,0,0,1.432-.368,1.878,1.878,0,0,0,.7-1.032,5.58,5.58,0,0,0,.192-1.544V-9.472a5.493,5.493,0,0,0-.192-1.536,1.853,1.853,0,0,0-.688-1.016,2.432,2.432,0,0,0-1.44-.36,2.438,2.438,0,0,0-1.432.36,1.837,1.837,0,0,0-.7,1.016,5.493,5.493,0,0,0-.192,1.536v5.984a5.58,5.58,0,0,0,.192,1.544,1.878,1.878,0,0,0,.7,1.032A2.4,2.4,0,0,0,92.592-.544ZM97.84,0V-12.96H98.7V-.688h3.92V0Zm8.992,0V-12.96h3.136a3.1,3.1,0,0,1,1.768.424,2.151,2.151,0,0,1,.848,1.152,5.333,5.333,0,0,1,.232,1.624,6.079,6.079,0,0,1-.152,1.376,2.471,2.471,0,0,1-.56,1.112,1.963,1.963,0,0,1-1.192.584L112.992,0h-.864l-2.016-6.528H107.7V0Zm.864-7.2h2.24a2.146,2.146,0,0,0,1.264-.312,1.611,1.611,0,0,0,.6-.888,4.886,4.886,0,0,0,.168-1.36,3.508,3.508,0,0,0-.408-1.872,1.807,1.807,0,0,0-1.64-.64H107.7ZM114.544,0l2.72-12.96h1.008L121.008,0h-.88l-.672-3.584H116.1L115.408,0Zm1.68-4.224h3.12l-1.568-7.68ZM123.216,0V-12.256h-2.592v-.7h5.984v.7H124.08V0Zm5.008,0V-12.96h4.48v.7h-3.6v5.2h2.96v.672H129.1v5.7h3.648V0Z" transform="translate(139.808 1056.601)" fill="#823695"/>
    <path id="Path_2821" data-name="Path 2821" d="M0,0H155.215V48.3H0Z" transform="translate(131.863 1034.859)" fill="none" stroke="#ff8900" stroke-width="1"/>
    <path id="Path_2832" data-name="Path 2832" d="M-103.576,0l.384-12.96h.864l2.736,11.7,2.784-11.7h.9L-95.544,0H-96.3l-.32-10.864L-99.256,0h-.64L-102.5-10.848-102.824,0Zm10.048,0V-12.96h4.48v.7h-3.6v5.2h2.96v.672h-2.96v5.7H-89V0Zm6.1,0V-12.96H-84.6a3.52,3.52,0,0,1,2.016.5,2.6,2.6,0,0,1,1.008,1.344,5.845,5.845,0,0,1,.288,1.888v5.376a6.287,6.287,0,0,1-.288,1.976A2.688,2.688,0,0,1-82.56-.5a3.3,3.3,0,0,1-1.96.5Zm.864-.688h2A2.332,2.332,0,0,0-83-1.136a2.126,2.126,0,0,0,.672-1.192,7.727,7.727,0,0,0,.16-1.624V-9.168a6.209,6.209,0,0,0-.192-1.64,1.879,1.879,0,0,0-.72-1.072,2.6,2.6,0,0,0-1.52-.376h-1.968ZM-79.352,0V-12.96h.864V0Zm2.384,0,2.72-12.96h1.008L-70.5,0h-.88l-.672-3.584h-3.36L-76.1,0Zm1.68-4.224h3.12l-1.568-7.68ZM-69,0V-12.96h.688l4.4,10.944V-12.96h.768V0h-.688l-4.4-10.96V0Zm10.848,0V-12.96h4.464v.688h-3.6v5.216h3.1v.672h-3.1V0ZM-49.3.176a3.3,3.3,0,0,1-1.96-.5A2.6,2.6,0,0,1-52.232-1.7,6.629,6.629,0,0,1-52.5-3.68V-9.344a6.063,6.063,0,0,1,.288-1.952,2.565,2.565,0,0,1,.984-1.328A3.357,3.357,0,0,1-49.3-13.1a3.357,3.357,0,0,1,1.928.48,2.565,2.565,0,0,1,.984,1.328A6.063,6.063,0,0,1-46.1-9.344v5.68A6.55,6.55,0,0,1-46.376-1.7a2.6,2.6,0,0,1-.968,1.368A3.3,3.3,0,0,1-49.3.176Zm0-.72a2.4,2.4,0,0,0,1.432-.368,1.878,1.878,0,0,0,.7-1.032,5.58,5.58,0,0,0,.192-1.544V-9.472a5.493,5.493,0,0,0-.192-1.536,1.853,1.853,0,0,0-.688-1.016,2.432,2.432,0,0,0-1.44-.36,2.438,2.438,0,0,0-1.432.36,1.837,1.837,0,0,0-.7,1.016,5.493,5.493,0,0,0-.192,1.536v5.984a5.579,5.579,0,0,0,.192,1.544,1.878,1.878,0,0,0,.7,1.032A2.4,2.4,0,0,0-49.3-.544Zm5.12.544V-12.96h.864V-.688h3.92V0Zm5.76,0V-12.96h.864V-.688h3.92V0Zm8.656.176a3.3,3.3,0,0,1-1.96-.5A2.6,2.6,0,0,1-32.7-1.7a6.629,6.629,0,0,1-.272-1.976V-9.344A6.063,6.063,0,0,1-32.68-11.3a2.565,2.565,0,0,1,.984-1.328,3.357,3.357,0,0,1,1.928-.48,3.357,3.357,0,0,1,1.928.48,2.565,2.565,0,0,1,.984,1.328,6.063,6.063,0,0,1,.288,1.952v5.68A6.55,6.55,0,0,1-26.84-1.7a2.6,2.6,0,0,1-.968,1.368A3.3,3.3,0,0,1-29.768.176Zm0-.72a2.4,2.4,0,0,0,1.432-.368,1.878,1.878,0,0,0,.7-1.032,5.579,5.579,0,0,0,.192-1.544V-9.472a5.493,5.493,0,0,0-.192-1.536,1.853,1.853,0,0,0-.688-1.016,2.432,2.432,0,0,0-1.44-.36,2.438,2.438,0,0,0-1.432.36,1.837,1.837,0,0,0-.7,1.016,5.493,5.493,0,0,0-.192,1.536v5.984A5.579,5.579,0,0,0-31.9-1.944a1.878,1.878,0,0,0,.7,1.032A2.4,2.4,0,0,0-29.768-.544Zm6.72.544L-25.3-12.96h.768l1.9,11.248,2.08-10.96h.832l2.144,10.96,1.728-11.248h.752L-17.192,0h-.736l-2.208-11.344L-22.3,0Zm8.912-5.1v-.7h3.3v.7ZM-6.168.176A3.825,3.825,0,0,1-8.136-.248,2.272,2.272,0,0,1-9.12-1.4,4.54,4.54,0,0,1-9.4-3.04v-9.92h.864v9.936a3.812,3.812,0,0,0,.2,1.272,1.665,1.665,0,0,0,.72.888,2.763,2.763,0,0,0,1.448.32,2.6,2.6,0,0,0,1.4-.328,1.832,1.832,0,0,0,.744-.888A3.379,3.379,0,0,0-3.8-3.024V-12.96h.848v9.92a4.22,4.22,0,0,1-.3,1.64,2.411,2.411,0,0,1-1,1.152A3.669,3.669,0,0,1-6.168.176ZM-.92,0V-12.96H2.12a3.248,3.248,0,0,1,1.824.44,2.326,2.326,0,0,1,.92,1.192,5.152,5.152,0,0,1,.264,1.712,5.129,5.129,0,0,1-.264,1.648,2.615,2.615,0,0,1-.92,1.28,2.936,2.936,0,0,1-1.808.5H-.056V0Zm.864-6.864h2a2.7,2.7,0,0,0,1.288-.272,1.674,1.674,0,0,0,.752-.872,4.292,4.292,0,0,0,.248-1.608,4.687,4.687,0,0,0-.224-1.624,1.408,1.408,0,0,0-.72-.816,3.173,3.173,0,0,0-1.328-.232H-.056ZM12.376.176a3.3,3.3,0,0,1-1.96-.5A2.6,2.6,0,0,1,9.448-1.7,6.629,6.629,0,0,1,9.176-3.68V-9.344A6.063,6.063,0,0,1,9.464-11.3a2.565,2.565,0,0,1,.984-1.328,3.357,3.357,0,0,1,1.928-.48,3.357,3.357,0,0,1,1.928.48,2.565,2.565,0,0,1,.984,1.328,6.063,6.063,0,0,1,.288,1.952v5.68A6.55,6.55,0,0,1,15.3-1.7a2.6,2.6,0,0,1-.968,1.368A3.3,3.3,0,0,1,12.376.176Zm0-.72a2.4,2.4,0,0,0,1.432-.368,1.878,1.878,0,0,0,.7-1.032A5.58,5.58,0,0,0,14.7-3.488V-9.472a5.493,5.493,0,0,0-.192-1.536,1.853,1.853,0,0,0-.688-1.016,2.432,2.432,0,0,0-1.44-.36,2.438,2.438,0,0,0-1.432.36,1.837,1.837,0,0,0-.7,1.016,5.493,5.493,0,0,0-.192,1.536v5.984a5.58,5.58,0,0,0,.192,1.544,1.878,1.878,0,0,0,.7,1.032A2.4,2.4,0,0,0,12.376-.544ZM17.5,0V-12.96H21.96v.688h-3.6v5.216h3.1v.672h-3.1V0Zm8.4,0V-.64l3.6-5.472q.4-.608.752-1.192a6.214,6.214,0,0,0,.568-1.224,4.488,4.488,0,0,0,.216-1.44,2.8,2.8,0,0,0-.5-1.776,1.752,1.752,0,0,0-1.464-.64,2.292,2.292,0,0,0-1.4.368,1.87,1.87,0,0,0-.672,1.024,6.006,6.006,0,0,0-.2,1.5v.208H25.96v-.256a5.354,5.354,0,0,1,.32-1.992,2.318,2.318,0,0,1,1-1.184,3.478,3.478,0,0,1,1.752-.392,2.612,2.612,0,0,1,2.128.864,3.641,3.641,0,0,1,.72,2.4,4.319,4.319,0,0,1-.24,1.448,7.687,7.687,0,0,1-.608,1.312q-.368.632-.768,1.24L26.872-.72h4.752V0Zm10.88.176a3,3,0,0,1-1.84-.5,2.561,2.561,0,0,1-.912-1.36,6.932,6.932,0,0,1-.256-1.968V-9.312a6.452,6.452,0,0,1,.272-1.968,2.587,2.587,0,0,1,.936-1.336,2.978,2.978,0,0,1,1.8-.488,3.008,3.008,0,0,1,1.816.488,2.587,2.587,0,0,1,.936,1.336A6.452,6.452,0,0,1,39.8-9.312v5.664a6.932,6.932,0,0,1-.256,1.968,2.561,2.561,0,0,1-.912,1.36A3.025,3.025,0,0,1,36.776.176Zm0-.656a1.949,1.949,0,0,0,1.3-.392,2.11,2.11,0,0,0,.656-1.072A5.755,5.755,0,0,0,38.92-3.5V-9.44A5.755,5.755,0,0,0,38.728-11a2.064,2.064,0,0,0-.656-1.064,1.977,1.977,0,0,0-1.3-.384,1.95,1.95,0,0,0-1.28.384A2.11,2.11,0,0,0,34.832-11a5.538,5.538,0,0,0-.2,1.56V-3.5a5.538,5.538,0,0,0,.2,1.56A2.157,2.157,0,0,0,35.5-.872,1.923,1.923,0,0,0,36.776-.48ZM41.768,0V-1.664h.944V0Zm5.376.176a2.885,2.885,0,0,1-1.576-.384A2.2,2.2,0,0,1,44.7-1.272a4.319,4.319,0,0,1-.272-1.608v-.24h.8v.256a4.015,4.015,0,0,0,.208,1.28,1.54,1.54,0,0,0,.616.8,2,2,0,0,0,1.1.272A2.336,2.336,0,0,0,48.232-.76a1.722,1.722,0,0,0,.76-.888,4.6,4.6,0,0,0,.28-1.792,4.29,4.29,0,0,0-.464-2.12,1.727,1.727,0,0,0-1.616-.84h-.368v-.752h.368A1.837,1.837,0,0,0,48.8-7.816a3.685,3.685,0,0,0,.472-2.1,3.428,3.428,0,0,0-.424-1.792,1.618,1.618,0,0,0-1.512-.7,2.108,2.108,0,0,0-1.568.536,2.588,2.588,0,0,0-.544,1.816v.192h-.8v-.208a4.271,4.271,0,0,1,.272-1.592,2.1,2.1,0,0,1,.912-1.056A3.367,3.367,0,0,1,47.32-13.1a2.82,2.82,0,0,1,1.616.424,2.5,2.5,0,0,1,.92,1.144,4.215,4.215,0,0,1,.3,1.616,3.949,3.949,0,0,1-.528,2.24,2.081,2.081,0,0,1-1.312.928,2.059,2.059,0,0,1,.84.448,2.651,2.651,0,0,1,.712,1.04,4.749,4.749,0,0,1,.288,1.808,5.409,5.409,0,0,1-.3,1.88,2.655,2.655,0,0,1-.96,1.288A2.962,2.962,0,0,1,47.144.176ZM54.744,0l.384-12.96h.864l2.736,11.7,2.784-11.7h.9L62.776,0h-.752L61.7-10.864,59.064,0h-.64L55.816-10.848,55.5,0ZM67.736.176a3.3,3.3,0,0,1-1.96-.5A2.6,2.6,0,0,1,64.808-1.7a6.629,6.629,0,0,1-.272-1.976V-9.344a6.063,6.063,0,0,1,.288-1.952,2.565,2.565,0,0,1,.984-1.328,3.357,3.357,0,0,1,1.928-.48,3.357,3.357,0,0,1,1.928.48,2.565,2.565,0,0,1,.984,1.328,6.063,6.063,0,0,1,.288,1.952v5.68A6.55,6.55,0,0,1,70.664-1.7,2.6,2.6,0,0,1,69.7-.328,3.3,3.3,0,0,1,67.736.176Zm0-.72a2.4,2.4,0,0,0,1.432-.368,1.878,1.878,0,0,0,.7-1.032,5.58,5.58,0,0,0,.192-1.544V-9.472a5.493,5.493,0,0,0-.192-1.536,1.853,1.853,0,0,0-.688-1.016,2.432,2.432,0,0,0-1.44-.36,2.438,2.438,0,0,0-1.432.36,1.837,1.837,0,0,0-.7,1.016,5.493,5.493,0,0,0-.192,1.536v5.984a5.58,5.58,0,0,0,.192,1.544,1.878,1.878,0,0,0,.7,1.032A2.4,2.4,0,0,0,67.736-.544ZM72.856,0V-12.96h.688l4.4,10.944V-12.96h.768V0h-.688l-4.4-10.96V0ZM82.6,0V-12.256H80.008v-.7h5.984v.7H83.464V0Zm4.688,0V-12.96h.88v5.84h4.544v-5.84h.864V0h-.864V-6.448H88.168V0ZM98.36.16a3.13,3.13,0,0,1-1.688-.416,2.634,2.634,0,0,1-1.008-1.168A5.234,5.234,0,0,1,95.24-3.2l.752-.24a7.449,7.449,0,0,0,.344,1.5A2.107,2.107,0,0,0,97.048-.92a2.17,2.17,0,0,0,1.328.36,2.227,2.227,0,0,0,1.512-.48,2.024,2.024,0,0,0,.552-1.6A2.752,2.752,0,0,0,100-4.168a8.838,8.838,0,0,0-1.24-1.464L96.392-7.984A4.282,4.282,0,0,1,95.528-9.2a3.027,3.027,0,0,1-.272-1.248,2.466,2.466,0,0,1,.792-1.968A3.022,3.022,0,0,1,98.1-13.1a3.9,3.9,0,0,1,1.184.168,2.332,2.332,0,0,1,.92.544,2.553,2.553,0,0,1,.616,1,5.794,5.794,0,0,1,.288,1.536l-.736.176a5.166,5.166,0,0,0-.3-1.52,1.824,1.824,0,0,0-.7-.9,2.3,2.3,0,0,0-1.248-.3,2.369,2.369,0,0,0-1.472.448,1.69,1.69,0,0,0-.592,1.44,2.4,2.4,0,0,0,.2.96A3.413,3.413,0,0,0,97-8.544l2.336,2.3a9.729,9.729,0,0,1,1.352,1.64,3.432,3.432,0,0,1,.568,1.912,3.161,3.161,0,0,1-.368,1.608,2.26,2.26,0,0,1-1.024.936A3.54,3.54,0,0,1,98.36.16ZM-47.76,20.352a2.009,2.009,0,0,1-1.184-.472,2.66,2.66,0,0,1-.72-1.1,7.367,7.367,0,0,1-.376-1.624,19.647,19.647,0,0,1-.144-2.072q-.024-1.136-.024-2.416,0-1.3.024-2.448a20.293,20.293,0,0,1,.144-2.1,7.53,7.53,0,0,1,.376-1.648,2.53,2.53,0,0,1,.72-1.088A1.909,1.909,0,0,1-47.76,4.96v.624a1.247,1.247,0,0,0-.944.648,4.251,4.251,0,0,0-.48,1.52,17.122,17.122,0,0,0-.168,2.208q-.024,1.256-.024,2.712t.024,2.712a16.913,16.913,0,0,0,.168,2.2,4.357,4.357,0,0,0,.472,1.512,1.234,1.234,0,0,0,.952.648ZM-46.272,18V5.04h3.136a3.1,3.1,0,0,1,1.768.424,2.151,2.151,0,0,1,.848,1.152,5.333,5.333,0,0,1,.232,1.624,6.079,6.079,0,0,1-.152,1.376A2.471,2.471,0,0,1-41,10.728a1.963,1.963,0,0,1-1.192.584L-40.112,18h-.864l-2.016-6.528h-2.416V18Zm.864-7.2h2.24a2.146,2.146,0,0,0,1.264-.312,1.611,1.611,0,0,0,.6-.888,4.886,4.886,0,0,0,.168-1.36,3.508,3.508,0,0,0-.408-1.872,1.807,1.807,0,0,0-1.64-.64h-2.224ZM-39.04,18l2.72-12.96h1.008L-32.576,18h-.88l-.672-3.584h-3.36L-38.176,18Zm1.68-4.224h3.12L-35.808,6.1ZM-31.072,18V5.04h.688l4.4,10.944V5.04h.768V18H-25.9L-30.3,7.04V18Zm10.864.176a3.123,3.123,0,0,1-1.9-.5,2.613,2.613,0,0,1-.936-1.4,7.191,7.191,0,0,1-.264-2.032v-5.5a6.858,6.858,0,0,1,.264-2A2.5,2.5,0,0,1-22.1,5.384,3.308,3.308,0,0,1-20.16,4.9a3.1,3.1,0,0,1,1.784.448,2.452,2.452,0,0,1,.928,1.28,6.187,6.187,0,0,1,.28,1.968V9.04H-18v-.5a5.744,5.744,0,0,0-.192-1.608,1.8,1.8,0,0,0-.656-.984,2.209,2.209,0,0,0-1.312-.336,2.282,2.282,0,0,0-1.44.392A1.906,1.906,0,0,0-22.264,7.1,6.894,6.894,0,0,0-22.432,8.7v5.648a6.209,6.209,0,0,0,.192,1.64,1.984,1.984,0,0,0,.688,1.08,2.257,2.257,0,0,0,1.408.384,2.13,2.13,0,0,0,1.336-.368,1.916,1.916,0,0,0,.656-1.056,6.37,6.37,0,0,0,.184-1.632V12.5h-2.064v-.672h2.88V18h-.56l-.128-1.456a2.42,2.42,0,0,1-.792,1.192A2.475,2.475,0,0,1-20.208,18.176ZM-15.1,18V5.04h4.48v.7h-3.6v5.2h2.96v.672h-2.96v5.7h3.648V18Zm6,1.712-.224-.368a1.634,1.634,0,0,0,.544-.584A1.859,1.859,0,0,0-8.656,18h-.576V16.32h1.024v1.5A2.808,2.808,0,0,1-8.4,18.976,1.771,1.771,0,0,1-9.1,19.712ZM-2.112,18V6.208a1.648,1.648,0,0,1-.4.392,3.465,3.465,0,0,1-.544.32q-.288.136-.536.232a3.5,3.5,0,0,1-.376.128V6.544A3.386,3.386,0,0,0-3.5,6.352a3.452,3.452,0,0,0,.536-.328,5.111,5.111,0,0,0,.528-.448,3.273,3.273,0,0,0,.448-.536h.736V18Zm6.576.144a2.95,2.95,0,0,1-1.56-.368,2.135,2.135,0,0,1-.88-1.112,5.232,5.232,0,0,1-.28-1.832h.832a4.88,4.88,0,0,0,.192,1.5,1.567,1.567,0,0,0,.624.864,2.027,2.027,0,0,0,1.12.28,1.821,1.821,0,0,0,1.2-.36,2.028,2.028,0,0,0,.616-1.12,8.568,8.568,0,0,0,.184-1.96,8.121,8.121,0,0,0-.216-2.12,1.851,1.851,0,0,0-.656-1.064,1.883,1.883,0,0,0-1.1-.3,2.065,2.065,0,0,0-.96.24,2.4,2.4,0,0,0-.864.848H2.032V5.04h4.7l-.016.736H2.752l-.032,5.04a2.49,2.49,0,0,1,.768-.656,2.527,2.527,0,0,1,1.28-.288,2.265,2.265,0,0,1,1.48.464A2.674,2.674,0,0,1,7.08,11.7a8.145,8.145,0,0,1,.264,2.248,9.079,9.079,0,0,1-.168,1.864,3.6,3.6,0,0,1-.528,1.312,2.208,2.208,0,0,1-.9.768A3.049,3.049,0,0,1,4.464,18.144ZM9.1,18V16.336h.944V18Zm5.7.176a3,3,0,0,1-1.84-.5,2.561,2.561,0,0,1-.912-1.36,6.931,6.931,0,0,1-.256-1.968V8.688a6.452,6.452,0,0,1,.272-1.968A2.587,2.587,0,0,1,13,5.384,2.978,2.978,0,0,1,14.8,4.9a3.008,3.008,0,0,1,1.816.488,2.587,2.587,0,0,1,.936,1.336,6.452,6.452,0,0,1,.272,1.968v5.664a6.931,6.931,0,0,1-.256,1.968,2.561,2.561,0,0,1-.912,1.36A3.025,3.025,0,0,1,14.8,18.176Zm0-.656a1.949,1.949,0,0,0,1.3-.392,2.11,2.11,0,0,0,.656-1.072,5.755,5.755,0,0,0,.192-1.56V8.56A5.755,5.755,0,0,0,16.752,7,2.064,2.064,0,0,0,16.1,5.936a1.977,1.977,0,0,0-1.3-.384,1.95,1.95,0,0,0-1.28.384A2.11,2.11,0,0,0,12.856,7a5.538,5.538,0,0,0-.2,1.56V14.5a5.538,5.538,0,0,0,.2,1.56,2.157,2.157,0,0,0,.664,1.072A1.923,1.923,0,0,0,14.8,17.52ZM19.36,12.9v-.7h3.3v.7ZM23.92,18v-.64l3.6-5.472q.4-.608.752-1.192a6.214,6.214,0,0,0,.568-1.224,4.488,4.488,0,0,0,.216-1.44,2.8,2.8,0,0,0-.5-1.776,1.752,1.752,0,0,0-1.464-.64,2.292,2.292,0,0,0-1.4.368,1.87,1.87,0,0,0-.672,1.024,6.006,6.006,0,0,0-.2,1.5V8.72h-.832V8.464a5.354,5.354,0,0,1,.32-1.992,2.318,2.318,0,0,1,1-1.184A3.478,3.478,0,0,1,27.056,4.9a2.612,2.612,0,0,1,2.128.864,3.641,3.641,0,0,1,.72,2.4,4.319,4.319,0,0,1-.24,1.448,7.687,7.687,0,0,1-.608,1.312q-.368.632-.768,1.24L24.9,17.28h4.752V18Zm10.752.176a3,3,0,0,1-1.736-.448A2.5,2.5,0,0,1,32,16.48a5.47,5.47,0,0,1-.288-1.856,5.32,5.32,0,0,1,.192-1.568,2.708,2.708,0,0,1,.5-.968,2.424,2.424,0,0,1,.664-.552,7.29,7.29,0,0,1,.656-.32,2.518,2.518,0,0,1-1.392-1.024,3.65,3.65,0,0,1-.528-2.1,4.737,4.737,0,0,1,.264-1.624,2.292,2.292,0,0,1,.9-1.152,3.018,3.018,0,0,1,1.7-.424,2.9,2.9,0,0,1,1.688.432A2.362,2.362,0,0,1,37.24,6.5,4.856,4.856,0,0,1,37.5,8.144a3.542,3.542,0,0,1-.52,2.056A2.6,2.6,0,0,1,35.6,11.216a7.291,7.291,0,0,1,.656.32,2.321,2.321,0,0,1,.656.552,2.888,2.888,0,0,1,.5.968,5.12,5.12,0,0,1,.2,1.568,5.47,5.47,0,0,1-.288,1.856,2.5,2.5,0,0,1-.936,1.248A2.971,2.971,0,0,1,34.672,18.176Zm0-.688a2.189,2.189,0,0,0,1.112-.272,1.752,1.752,0,0,0,.728-.9,4.64,4.64,0,0,0,.256-1.7,5,5,0,0,0-.208-1.536,2.185,2.185,0,0,0-.664-1.024,2.209,2.209,0,0,0-1.224-.464,2.3,2.3,0,0,0-1.24.464,2.133,2.133,0,0,0-.68,1.024,5,5,0,0,0-.208,1.536,4.512,4.512,0,0,0,.264,1.7,1.776,1.776,0,0,0,.744.9A2.233,2.233,0,0,0,34.672,17.488Zm0-6.64a2.072,2.072,0,0,0,1.184-.392,1.916,1.916,0,0,0,.624-.944,4.543,4.543,0,0,0,.192-1.384,2.986,2.986,0,0,0-.5-1.912,1.839,1.839,0,0,0-1.5-.6,1.859,1.859,0,0,0-1.52.6,2.986,2.986,0,0,0-.5,1.912,4.727,4.727,0,0,0,.184,1.384,1.827,1.827,0,0,0,.632.944A2.155,2.155,0,0,0,34.672,10.848ZM39.5,18V16.336h.944V18Zm3.68,0,2.64-12.256H41.632v-.7H46.7v.432L44.016,18Zm4.752,2.352v-.608a1.247,1.247,0,0,0,.944-.648,4.251,4.251,0,0,0,.48-1.52,17.122,17.122,0,0,0,.168-2.208q.024-1.256.024-2.712t-.024-2.712a16.912,16.912,0,0,0-.168-2.2,4.24,4.24,0,0,0-.48-1.512,1.247,1.247,0,0,0-.944-.648V4.96a1.909,1.909,0,0,1,1.184.424,2.59,2.59,0,0,1,.728,1.088,7.207,7.207,0,0,1,.384,1.64,20.027,20.027,0,0,1,.144,2.1q.024,1.152.024,2.448,0,1.28-.024,2.416a19.911,19.911,0,0,1-.144,2.08,7.065,7.065,0,0,1-.384,1.632,2.727,2.727,0,0,1-.728,1.1A2.009,2.009,0,0,1,47.936,20.352Z" transform="translate(205.432 1279.908)" fill="#823695"/>
    <path id="Path_2824" data-name="Path 2824" d="M0,0H155V122.7H0Z" transform="translate(132.808 1099.129)" fill="#823695"/>
    <path id="Path_2830" data-name="Path 2830" d="M0,0V6.968" transform="translate(332.175 1221.756)" fill="none" stroke="#63666b" stroke-width="0.679"/>
    <path id="Path_2588-2" data-name="Path 2588" d="M0,0H254.261" transform="translate(77.94 1221.906)" fill="none" stroke="#63666b" stroke-width="0.679"/>
    <path id="Path_565-2" data-name="Path 565" d="M94.728,1784.34v0Z" transform="translate(236.041 -555.046)" fill="#464749"/>
    <path id="Path_2819" data-name="Path 2819" d="M2.43.08A2.1,2.1,0,0,1,1.27-.2a1.536,1.536,0,0,1-.615-.81A3.833,3.833,0,0,1,.47-2.27H1.54a4.107,4.107,0,0,0,.06.705A1.151,1.151,0,0,0,1.855-1,.745.745,0,0,0,2.45-.77a.735.735,0,0,0,.63-.255,1.409,1.409,0,0,0,.24-.69A8.7,8.7,0,0,0,3.37-2.7a6.194,6.194,0,0,0-.06-.935,1.1,1.1,0,0,0-.25-.59.783.783,0,0,0-.6-.2.812.812,0,0,0-.56.2,1.3,1.3,0,0,0-.34.465H.65V-8.1H4.14v1.07H1.62L1.55-4.79a1.4,1.4,0,0,1,.5-.33,1.78,1.78,0,0,1,.675-.12,1.578,1.578,0,0,1,1.035.31,1.663,1.663,0,0,1,.53.85A4.5,4.5,0,0,1,4.44-2.84a6.97,6.97,0,0,1-.09,1.155,2.806,2.806,0,0,1-.315.93A1.6,1.6,0,0,1,3.42-.14,2,2,0,0,1,2.43.08ZM7.35.09A1.941,1.941,0,0,1,6.215-.22a1.834,1.834,0,0,1-.66-.85A3.3,3.3,0,0,1,5.34-2.3V-5.79a3.394,3.394,0,0,1,.21-1.245A1.747,1.747,0,0,1,6.2-7.87a2.009,2.009,0,0,1,1.145-.3,1.984,1.984,0,0,1,1.14.3,1.758,1.758,0,0,1,.65.835A3.394,3.394,0,0,1,9.35-5.79V-2.3a3.333,3.333,0,0,1-.215,1.24,1.815,1.815,0,0,1-.655.845A1.941,1.941,0,0,1,7.35.09Zm0-.88a.728.728,0,0,0,.575-.22,1.226,1.226,0,0,0,.27-.565A3.357,3.357,0,0,0,8.27-2.29V-5.8a3.692,3.692,0,0,0-.07-.735,1.124,1.124,0,0,0-.265-.555A.76.76,0,0,0,7.35-7.3a.777.777,0,0,0-.59.21,1.1,1.1,0,0,0-.27.555,3.693,3.693,0,0,0-.07.735v3.51a3.357,3.357,0,0,0,.075.715,1.175,1.175,0,0,0,.28.565A.747.747,0,0,0,7.35-.79Z" transform="translate(62.445 1037.946)" fill="#63666b"/>
    <path id="Path_2823" data-name="Path 2823" d="M2.75,0V-2.17H.4V-3.29L2.51-8.1H3.77v4.98h.91v.95H3.77V0ZM1.43-3.12H2.75V-6.8ZM7.42.09A1.941,1.941,0,0,1,6.285-.22a1.834,1.834,0,0,1-.66-.85A3.3,3.3,0,0,1,5.41-2.3V-5.79a3.394,3.394,0,0,1,.21-1.245,1.747,1.747,0,0,1,.655-.835,2.009,2.009,0,0,1,1.145-.3,1.984,1.984,0,0,1,1.14.3,1.758,1.758,0,0,1,.65.835A3.394,3.394,0,0,1,9.42-5.79V-2.3A3.333,3.333,0,0,1,9.2-1.06a1.815,1.815,0,0,1-.655.845A1.941,1.941,0,0,1,7.42.09Zm0-.88a.728.728,0,0,0,.575-.22,1.226,1.226,0,0,0,.27-.565A3.357,3.357,0,0,0,8.34-2.29V-5.8a3.693,3.693,0,0,0-.07-.735,1.124,1.124,0,0,0-.265-.555A.76.76,0,0,0,7.42-7.3a.777.777,0,0,0-.59.21,1.1,1.1,0,0,0-.27.555,3.693,3.693,0,0,0-.07.735v3.51a3.357,3.357,0,0,0,.075.715,1.175,1.175,0,0,0,.28.565A.747.747,0,0,0,7.42-.79Z" transform="translate(62.445 1075.213)" fill="#63666b"/>
    <path id="Path_2825" data-name="Path 2825" d="M2.38.09a2.2,2.2,0,0,1-1.1-.25A1.573,1.573,0,0,1,.62-.88,2.6,2.6,0,0,1,.4-1.99v-.27H1.46q0,.04,0,.085t0,.1a2.925,2.925,0,0,0,.085.65.885.885,0,0,0,.27.46A.835.835,0,0,0,2.38-.8a.84.84,0,0,0,.59-.185.954.954,0,0,0,.27-.525,3.9,3.9,0,0,0,.07-.78,2.064,2.064,0,0,0-.235-1.045A.954.954,0,0,0,2.25-3.78a.24.24,0,0,0-.075-.01H2.1V-4.86h.14a1.106,1.106,0,0,0,.82-.3,1.386,1.386,0,0,0,.25-.93,1.8,1.8,0,0,0-.185-.88A.767.767,0,0,0,2.39-7.3a.733.733,0,0,0-.73.365A2.3,2.3,0,0,0,1.46-6q0,.04,0,.085t0,.085H.4V-6.1A2.555,2.555,0,0,1,.62-7.21a1.576,1.576,0,0,1,.665-.71A2.23,2.23,0,0,1,2.39-8.17a2.224,2.224,0,0,1,1.11.25,1.578,1.578,0,0,1,.66.715A2.588,2.588,0,0,1,4.38-6.09a1.969,1.969,0,0,1-.315,1.17,1.566,1.566,0,0,1-.845.6,1.386,1.386,0,0,1,.625.38,1.835,1.835,0,0,1,.395.685,3.02,3.02,0,0,1,.14.965,3.579,3.579,0,0,1-.2,1.255,1.673,1.673,0,0,1-.64.83A2.049,2.049,0,0,1,2.38.09Zm4.98,0A1.941,1.941,0,0,1,6.225-.22a1.834,1.834,0,0,1-.66-.85A3.3,3.3,0,0,1,5.35-2.3V-5.79a3.394,3.394,0,0,1,.21-1.245,1.747,1.747,0,0,1,.655-.835,2.009,2.009,0,0,1,1.145-.3,1.984,1.984,0,0,1,1.14.3,1.758,1.758,0,0,1,.65.835A3.394,3.394,0,0,1,9.36-5.79V-2.3a3.333,3.333,0,0,1-.215,1.24,1.815,1.815,0,0,1-.655.845A1.941,1.941,0,0,1,7.36.09Zm0-.88a.728.728,0,0,0,.575-.22,1.226,1.226,0,0,0,.27-.565A3.357,3.357,0,0,0,8.28-2.29V-5.8a3.692,3.692,0,0,0-.07-.735,1.124,1.124,0,0,0-.265-.555A.76.76,0,0,0,7.36-7.3a.777.777,0,0,0-.59.21,1.1,1.1,0,0,0-.27.555,3.693,3.693,0,0,0-.07.735v3.51a3.357,3.357,0,0,0,.075.715,1.175,1.175,0,0,0,.28.565A.747.747,0,0,0,7.36-.79Z" transform="translate(62.445 1112.479)" fill="#63666b"/>
    <path id="Path_2826" data-name="Path 2826" d="M.41,0V-.76L2.47-3.97q.23-.36.425-.67a3.405,3.405,0,0,0,.32-.655,2.328,2.328,0,0,0,.125-.8,1.8,1.8,0,0,0-.18-.88.661.661,0,0,0-.63-.32.8.8,0,0,0-.59.21,1.121,1.121,0,0,0-.29.55,3.182,3.182,0,0,0-.08.73v.27H.5v-.28A3.61,3.61,0,0,1,.7-7.065a1.632,1.632,0,0,1,.63-.815A2.051,2.051,0,0,1,2.48-8.17a1.827,1.827,0,0,1,1.46.555A2.27,2.27,0,0,1,4.42-6.08a2.988,2.988,0,0,1-.125.91,3.6,3.6,0,0,1-.325.73q-.2.34-.44.7L1.67-.9H4.23V0ZM7.37.09A1.941,1.941,0,0,1,6.235-.22a1.834,1.834,0,0,1-.66-.85A3.3,3.3,0,0,1,5.36-2.3V-5.79a3.394,3.394,0,0,1,.21-1.245,1.747,1.747,0,0,1,.655-.835,2.009,2.009,0,0,1,1.145-.3,1.984,1.984,0,0,1,1.14.3,1.758,1.758,0,0,1,.65.835A3.394,3.394,0,0,1,9.37-5.79V-2.3a3.333,3.333,0,0,1-.215,1.24A1.815,1.815,0,0,1,8.5-.215,1.941,1.941,0,0,1,7.37.09Zm0-.88a.728.728,0,0,0,.575-.22,1.226,1.226,0,0,0,.27-.565A3.357,3.357,0,0,0,8.29-2.29V-5.8a3.692,3.692,0,0,0-.07-.735,1.124,1.124,0,0,0-.265-.555A.76.76,0,0,0,7.37-7.3a.777.777,0,0,0-.59.21,1.1,1.1,0,0,0-.27.555,3.693,3.693,0,0,0-.07.735v3.51a3.357,3.357,0,0,0,.075.715,1.175,1.175,0,0,0,.28.565A.747.747,0,0,0,7.37-.79Z" transform="translate(62.445 1149.745)" fill="#63666b"/>
    <path id="Path_2828" data-name="Path 2828" d="M1.71,0V-6.7a1.533,1.533,0,0,1-.225.06q-.215.05-.485.1l-.48.09q-.21.04-.22.04v-.81q.17-.04.4-.11a4.875,4.875,0,0,0,.46-.17,2.487,2.487,0,0,0,.45-.25A1.587,1.587,0,0,0,1.97-8.1h.81V0ZM6.55.09A1.941,1.941,0,0,1,5.415-.22a1.834,1.834,0,0,1-.66-.85A3.3,3.3,0,0,1,4.54-2.3V-5.79a3.394,3.394,0,0,1,.21-1.245A1.747,1.747,0,0,1,5.4-7.87a2.009,2.009,0,0,1,1.145-.3,1.984,1.984,0,0,1,1.14.3,1.758,1.758,0,0,1,.65.835A3.394,3.394,0,0,1,8.55-5.79V-2.3a3.333,3.333,0,0,1-.215,1.24,1.815,1.815,0,0,1-.655.845A1.941,1.941,0,0,1,6.55.09Zm0-.88a.728.728,0,0,0,.575-.22,1.227,1.227,0,0,0,.27-.565A3.357,3.357,0,0,0,7.47-2.29V-5.8a3.692,3.692,0,0,0-.07-.735,1.124,1.124,0,0,0-.265-.555A.76.76,0,0,0,6.55-7.3a.777.777,0,0,0-.59.21,1.1,1.1,0,0,0-.27.555,3.693,3.693,0,0,0-.07.735v3.51a3.357,3.357,0,0,0,.075.715,1.175,1.175,0,0,0,.28.565A.747.747,0,0,0,6.55-.79Z" transform="translate(62.445 1187.011)" fill="#63666b"/>
    <path id="Path_2829" data-name="Path 2829" d="M2.59.09A1.941,1.941,0,0,1,1.455-.22,1.834,1.834,0,0,1,.8-1.07,3.3,3.3,0,0,1,.58-2.3V-5.79A3.394,3.394,0,0,1,.79-7.035a1.747,1.747,0,0,1,.655-.835,2.009,2.009,0,0,1,1.145-.3,1.984,1.984,0,0,1,1.14.3,1.758,1.758,0,0,1,.65.835A3.394,3.394,0,0,1,4.59-5.79V-2.3a3.333,3.333,0,0,1-.215,1.24,1.815,1.815,0,0,1-.655.845A1.941,1.941,0,0,1,2.59.09Zm0-.88a.728.728,0,0,0,.575-.22,1.226,1.226,0,0,0,.27-.565A3.357,3.357,0,0,0,3.51-2.29V-5.8a3.692,3.692,0,0,0-.07-.735,1.124,1.124,0,0,0-.265-.555A.76.76,0,0,0,2.59-7.3.777.777,0,0,0,2-7.09a1.1,1.1,0,0,0-.27.555,3.693,3.693,0,0,0-.07.735v3.51a3.357,3.357,0,0,0,.075.715,1.175,1.175,0,0,0,.28.565A.747.747,0,0,0,2.59-.79Z" transform="translate(67.403 1223.34)" fill="#63666b"/>
    <path id="Path_2816" data-name="Path 2816" d="M.93,0,2.39-7.26H.22V-8.1H3.46v.52L1.96,0ZM6.45.09A1.941,1.941,0,0,1,5.315-.22a1.834,1.834,0,0,1-.66-.85A3.3,3.3,0,0,1,4.44-2.3V-5.79a3.394,3.394,0,0,1,.21-1.245A1.747,1.747,0,0,1,5.3-7.87a2.009,2.009,0,0,1,1.145-.3,1.984,1.984,0,0,1,1.14.3,1.758,1.758,0,0,1,.65.835A3.394,3.394,0,0,1,8.45-5.79V-2.3a3.333,3.333,0,0,1-.215,1.24,1.815,1.815,0,0,1-.655.845A1.941,1.941,0,0,1,6.45.09Zm0-.88a.728.728,0,0,0,.575-.22,1.226,1.226,0,0,0,.27-.565A3.357,3.357,0,0,0,7.37-2.29V-5.8a3.693,3.693,0,0,0-.07-.735,1.124,1.124,0,0,0-.265-.555A.76.76,0,0,0,6.45-7.3a.777.777,0,0,0-.59.21,1.1,1.1,0,0,0-.27.555,3.693,3.693,0,0,0-.07.735v3.51a3.357,3.357,0,0,0,.075.715,1.175,1.175,0,0,0,.28.565A.747.747,0,0,0,6.45-.79Z" transform="translate(62.445 960.676)" fill="#63666b"/>
    <path id="Path_2818" data-name="Path 2818" d="M2.57.09A1.759,1.759,0,0,1,1.43-.265a2.039,2.039,0,0,1-.645-.96A4.172,4.172,0,0,1,.58-2.57V-5.3A5.389,5.389,0,0,1,.76-6.74a2.116,2.116,0,0,1,.615-1.04A1.726,1.726,0,0,1,2.57-8.17a2.256,2.256,0,0,1,1.065.23,1.585,1.585,0,0,1,.67.67A2.326,2.326,0,0,1,4.55-6.2a.413.413,0,0,0,.005.055.462.462,0,0,1,.005.065H3.48a1.739,1.739,0,0,0-.19-.9.776.776,0,0,0-.72-.31.731.731,0,0,0-.5.185,1.135,1.135,0,0,0-.315.565,3.774,3.774,0,0,0-.105.98v1.23a1.173,1.173,0,0,1,.455-.4A1.544,1.544,0,0,1,2.83-4.89a1.694,1.694,0,0,1,1.05.29,1.563,1.563,0,0,1,.54.815A4.255,4.255,0,0,1,4.58-2.55a4.187,4.187,0,0,1-.2,1.33,2.008,2.008,0,0,1-.64.955A1.808,1.808,0,0,1,2.57.09Zm0-.89A.746.746,0,0,0,3.13-1a1.167,1.167,0,0,0,.285-.545A3.047,3.047,0,0,0,3.5-2.29a8.185,8.185,0,0,0-.045-.89,1.277,1.277,0,0,0-.235-.655.775.775,0,0,0-.65-.245.974.974,0,0,0-.4.08,1.068,1.068,0,0,0-.31.2,1.184,1.184,0,0,0-.21.265v1.21a3.216,3.216,0,0,0,.085.76A1.172,1.172,0,0,0,2.02-1,.733.733,0,0,0,2.57-.8ZM7.62.09A1.941,1.941,0,0,1,6.485-.22a1.834,1.834,0,0,1-.66-.85A3.3,3.3,0,0,1,5.61-2.3V-5.79a3.394,3.394,0,0,1,.21-1.245,1.747,1.747,0,0,1,.655-.835,2.009,2.009,0,0,1,1.145-.3,1.984,1.984,0,0,1,1.14.3,1.758,1.758,0,0,1,.65.835A3.394,3.394,0,0,1,9.62-5.79V-2.3a3.333,3.333,0,0,1-.215,1.24,1.815,1.815,0,0,1-.655.845A1.941,1.941,0,0,1,7.62.09Zm0-.88a.728.728,0,0,0,.575-.22,1.226,1.226,0,0,0,.27-.565A3.357,3.357,0,0,0,8.54-2.29V-5.8a3.692,3.692,0,0,0-.07-.735A1.124,1.124,0,0,0,8.2-7.09.76.76,0,0,0,7.62-7.3a.777.777,0,0,0-.59.21,1.1,1.1,0,0,0-.27.555,3.693,3.693,0,0,0-.07.735v3.51a3.357,3.357,0,0,0,.075.715,1.175,1.175,0,0,0,.28.565A.747.747,0,0,0,7.62-.79Z" transform="translate(62.445 997.943)" fill="#63666b"/>
    <path id="Path_2850" data-name="Path 2850" d="M0,0H5.465" transform="translate(77.876 1149.158)" fill="none" stroke="#63666b" stroke-width="0.679"/>
    <path id="Path_2851" data-name="Path 2851" d="M0,0H5.465" transform="translate(77.876 1185.197)" fill="none" stroke="#63666b" stroke-width="0.679"/>
    <path id="Path_2852" data-name="Path 2852" d="M0,0H5.465" transform="translate(77.876 1073.112)" fill="none" stroke="#63666b" stroke-width="0.679"/>
    <path id="Path_2853" data-name="Path 2853" d="M0,0H5.465" transform="translate(77.876 1110.216)" fill="none" stroke="#63666b" stroke-width="0.679"/>
    <path id="Path_2854" data-name="Path 2854" d="M0,0H5.465" transform="translate(77.876 958.081)" fill="none" stroke="#63666b" stroke-width="0.679"/>
    <path id="Path_2855" data-name="Path 2855" d="M0,0H5.465" transform="translate(77.876 994.603)" fill="none" stroke="#63666b" stroke-width="0.679"/>
    <path id="Path_2856" data-name="Path 2856" d="M0,0H5.465" transform="translate(77.876 1035.15)" fill="none" stroke="#63666b" stroke-width="0.679"/>
    <path id="Path_2817" data-name="Path 2817" d="M0,269.49V0" transform="translate(83.273 958.082)" fill="none" stroke="#63666b" stroke-width="0.679"/>
    <path id="Path_2827" data-name="Path 2827" d="M3.792.16A3.13,3.13,0,0,1,2.1-.256,2.634,2.634,0,0,1,1.1-1.424,5.234,5.234,0,0,1,.672-3.2l.752-.24a7.448,7.448,0,0,0,.344,1.5A2.107,2.107,0,0,0,2.48-.92a2.17,2.17,0,0,0,1.328.36A2.227,2.227,0,0,0,5.32-1.04a2.024,2.024,0,0,0,.552-1.6,2.752,2.752,0,0,0-.44-1.528,8.838,8.838,0,0,0-1.24-1.464L1.824-7.984A4.281,4.281,0,0,1,.96-9.2a3.026,3.026,0,0,1-.272-1.248,2.466,2.466,0,0,1,.792-1.968A3.022,3.022,0,0,1,3.536-13.1a3.9,3.9,0,0,1,1.184.168,2.332,2.332,0,0,1,.92.544,2.553,2.553,0,0,1,.616,1,5.794,5.794,0,0,1,.288,1.536l-.736.176a5.166,5.166,0,0,0-.3-1.52,1.824,1.824,0,0,0-.7-.9,2.3,2.3,0,0,0-1.248-.3,2.369,2.369,0,0,0-1.472.448,1.69,1.69,0,0,0-.592,1.44,2.4,2.4,0,0,0,.2.96,3.413,3.413,0,0,0,.744,1.008l2.336,2.3A9.729,9.729,0,0,1,6.12-4.6a3.432,3.432,0,0,1,.568,1.912A3.161,3.161,0,0,1,6.32-1.08,2.26,2.26,0,0,1,5.3-.144,3.54,3.54,0,0,1,3.792.16ZM8.464,0V-12.96H11.3a3.52,3.52,0,0,1,2.016.5A2.6,2.6,0,0,1,14.32-11.12a5.845,5.845,0,0,1,.288,1.888v5.376A6.287,6.287,0,0,1,14.32-1.88,2.688,2.688,0,0,1,13.336-.5a3.3,3.3,0,0,1-1.96.5Zm.864-.688h2A2.332,2.332,0,0,0,12.9-1.136a2.126,2.126,0,0,0,.672-1.192,7.727,7.727,0,0,0,.16-1.624V-9.168a6.209,6.209,0,0,0-.192-1.64,1.879,1.879,0,0,0-.72-1.072,2.6,2.6,0,0,0-1.52-.376H9.328Zm13.04.864a2.885,2.885,0,0,1-1.576-.384,2.2,2.2,0,0,1-.872-1.064,4.319,4.319,0,0,1-.272-1.608v-.24h.8v.256a4.015,4.015,0,0,0,.208,1.28,1.54,1.54,0,0,0,.616.8,2,2,0,0,0,1.1.272A2.336,2.336,0,0,0,23.456-.76a1.722,1.722,0,0,0,.76-.888A4.6,4.6,0,0,0,24.5-3.44a4.29,4.29,0,0,0-.464-2.12,1.727,1.727,0,0,0-1.616-.84h-.368v-.752h.368a1.837,1.837,0,0,0,1.608-.664,3.685,3.685,0,0,0,.472-2.1,3.428,3.428,0,0,0-.424-1.792,1.618,1.618,0,0,0-1.512-.7,2.108,2.108,0,0,0-1.568.536,2.588,2.588,0,0,0-.544,1.816v.192h-.8v-.208a4.271,4.271,0,0,1,.272-1.592,2.1,2.1,0,0,1,.912-1.056,3.367,3.367,0,0,1,1.712-.376,2.82,2.82,0,0,1,1.616.424,2.5,2.5,0,0,1,.92,1.144,4.215,4.215,0,0,1,.3,1.616,3.949,3.949,0,0,1-.528,2.24,2.081,2.081,0,0,1-1.312.928,2.059,2.059,0,0,1,.84.448,2.651,2.651,0,0,1,.712,1.04,4.75,4.75,0,0,1,.288,1.808,5.409,5.409,0,0,1-.3,1.88,2.655,2.655,0,0,1-.96,1.288A2.962,2.962,0,0,1,22.368.176Zm7.872,0a2.885,2.885,0,0,1-1.576-.384,2.2,2.2,0,0,1-.872-1.064A4.319,4.319,0,0,1,27.52-2.88v-.24h.8v.256a4.015,4.015,0,0,0,.208,1.28,1.54,1.54,0,0,0,.616.8,2,2,0,0,0,1.1.272A2.336,2.336,0,0,0,31.328-.76a1.722,1.722,0,0,0,.76-.888,4.6,4.6,0,0,0,.28-1.792A4.29,4.29,0,0,0,31.9-5.56a1.727,1.727,0,0,0-1.616-.84H29.92v-.752h.368A1.837,1.837,0,0,0,31.9-7.816a3.685,3.685,0,0,0,.472-2.1,3.428,3.428,0,0,0-.424-1.792,1.618,1.618,0,0,0-1.512-.7,2.108,2.108,0,0,0-1.568.536,2.588,2.588,0,0,0-.544,1.816v.192h-.8v-.208a4.271,4.271,0,0,1,.272-1.592,2.1,2.1,0,0,1,.912-1.056,3.367,3.367,0,0,1,1.712-.376,2.82,2.82,0,0,1,1.616.424,2.5,2.5,0,0,1,.92,1.144,4.215,4.215,0,0,1,.3,1.616,3.949,3.949,0,0,1-.528,2.24,2.081,2.081,0,0,1-1.312.928,2.059,2.059,0,0,1,.84.448,2.651,2.651,0,0,1,.712,1.04,4.75,4.75,0,0,1,.288,1.808,5.409,5.409,0,0,1-.3,1.88,2.655,2.655,0,0,1-.96,1.288A2.962,2.962,0,0,1,30.24.176Zm9.04,1.588a1.507,1.507,0,0,1-.888-.354,2,2,0,0,1-.54-.822A5.526,5.526,0,0,1,37.57-.63a14.734,14.734,0,0,1-.108-1.554Q37.444-3.036,37.444-4t.018-1.836A15.219,15.219,0,0,1,37.57-7.41a5.647,5.647,0,0,1,.282-1.236,1.9,1.9,0,0,1,.54-.816,1.432,1.432,0,0,1,.888-.318v.468a.936.936,0,0,0-.708.486,3.188,3.188,0,0,0-.36,1.14,12.841,12.841,0,0,0-.126,1.656q-.018.942-.018,2.034t.018,2.034a12.684,12.684,0,0,0,.126,1.65A3.268,3.268,0,0,0,38.566.822a.926.926,0,0,0,.714.486ZM40.336,0V-6.936h.636v.744a2.668,2.668,0,0,1,.744-.618,1.82,1.82,0,0,1,.9-.234,1.05,1.05,0,0,1,.558.15,1.013,1.013,0,0,1,.39.48,2.241,2.241,0,0,1,.144.882V0h-.636V-5.46a1.366,1.366,0,0,0-.2-.864.671.671,0,0,0-.534-.228,1.368,1.368,0,0,0-.7.21,2.857,2.857,0,0,0-.666.558V0Zm4.6-5.412V-5.94h3.516v.528Zm0,1.956V-4h3.516v.54ZM49.7,0V-.48l2.7-4.1q.3-.456.564-.894a4.661,4.661,0,0,0,.426-.918,3.366,3.366,0,0,0,.162-1.08,2.1,2.1,0,0,0-.378-1.332,1.314,1.314,0,0,0-1.1-.48,1.719,1.719,0,0,0-1.05.276,1.4,1.4,0,0,0-.5.768,4.5,4.5,0,0,0-.15,1.128v.156h-.624v-.192a4.016,4.016,0,0,1,.24-1.494,1.739,1.739,0,0,1,.75-.888,2.609,2.609,0,0,1,1.314-.294,1.959,1.959,0,0,1,1.6.648,2.731,2.731,0,0,1,.54,1.8A3.239,3.239,0,0,1,54-6.294a5.765,5.765,0,0,1-.456.984q-.276.474-.576.93L50.428-.54h3.564V0Zm8.076.132A2.164,2.164,0,0,1,56.59-.156a1.649,1.649,0,0,1-.654-.8,3.239,3.239,0,0,1-.2-1.206v-.18h.6v.192a3.011,3.011,0,0,0,.156.96,1.155,1.155,0,0,0,.462.6,1.5,1.5,0,0,0,.822.2,1.752,1.752,0,0,0,.816-.186,1.291,1.291,0,0,0,.57-.666,3.446,3.446,0,0,0,.21-1.344,3.217,3.217,0,0,0-.348-1.59,1.3,1.3,0,0,0-1.212-.63h-.276v-.564h.276a1.378,1.378,0,0,0,1.206-.5,2.764,2.764,0,0,0,.354-1.578,2.571,2.571,0,0,0-.318-1.344,1.214,1.214,0,0,0-1.134-.528,1.581,1.581,0,0,0-1.176.4,1.941,1.941,0,0,0-.408,1.362V-7.4h-.6V-7.56a3.2,3.2,0,0,1,.2-1.194,1.575,1.575,0,0,1,.684-.792A2.525,2.525,0,0,1,57.9-9.828a2.115,2.115,0,0,1,1.212.318,1.873,1.873,0,0,1,.69.858,3.161,3.161,0,0,1,.222,1.212,2.962,2.962,0,0,1-.4,1.68,1.561,1.561,0,0,1-.984.7,1.544,1.544,0,0,1,.63.336,1.989,1.989,0,0,1,.534.78,3.562,3.562,0,0,1,.216,1.356,4.057,4.057,0,0,1-.228,1.41,1.991,1.991,0,0,1-.72.966A2.221,2.221,0,0,1,57.772.132Zm3.336,1.632V1.308a.936.936,0,0,0,.708-.486,3.188,3.188,0,0,0,.36-1.14A12.84,12.84,0,0,0,62.3-1.974q.018-.942.018-2.034T62.3-6.042a12.683,12.683,0,0,0-.126-1.65,3.18,3.18,0,0,0-.36-1.134.936.936,0,0,0-.708-.486V-9.78A1.432,1.432,0,0,1,62-9.462a1.943,1.943,0,0,1,.546.816,5.405,5.405,0,0,1,.288,1.23,15.018,15.018,0,0,1,.108,1.572q.018.864.018,1.836T62.938-2.2a14.931,14.931,0,0,1-.108,1.56A5.3,5.3,0,0,1,62.542.588,2.045,2.045,0,0,1,62,1.41,1.507,1.507,0,0,1,61.108,1.764Z" transform="translate(174.808 1161.037)" fill="#fff"/>
  </g>
</svg>
