<svg xmlns="http://www.w3.org/2000/svg" width="1297.68" height="512.653" viewBox="0 0 1297.68 512.653">
  <g id="Group_1793" data-name="Group 1793" transform="translate(-315.32 -1608.979)">
    <path id="Path_3178" data-name="Path 3178" d="M9.97,32V10.13H15.1a5.481,5.481,0,0,1,3.078.743,3.924,3.924,0,0,1,1.552,2.012,8.7,8.7,0,0,1,.445,2.889,8.656,8.656,0,0,1-.445,2.781,4.413,4.413,0,0,1-1.552,2.16,4.954,4.954,0,0,1-3.051.837h-3.7V32Zm1.458-11.583H14.8a4.551,4.551,0,0,0,2.174-.459,2.824,2.824,0,0,0,1.269-1.472,7.243,7.243,0,0,0,.419-2.714,7.909,7.909,0,0,0-.378-2.74,2.376,2.376,0,0,0-1.215-1.377,5.354,5.354,0,0,0-2.241-.391h-3.4ZM20.392,32l4.59-21.87h1.7L31.3,32H29.815l-1.134-6.048h-5.67L21.85,32Zm2.835-7.128h5.265l-2.646-12.96ZM35.7,32V11.318H31.327V10.13h10.1v1.188H37.159V32Zm7.965,0V10.13h1.458V32Zm5.157,0V10.13h7.56v1.188H50.308v8.775H55.3v1.134H50.308v9.612h6.156V32ZM59.11,32V10.13h1.161L67.7,28.6V10.13h1.3V32H67.831L60.406,13.5V32Zm16.443,0V11.318H71.179V10.13h10.1v1.188H77.011V32Zm12.312.27a5.281,5.281,0,0,1-2.849-.7,4.446,4.446,0,0,1-1.7-1.971,8.833,8.833,0,0,1-.715-3l1.269-.405a12.57,12.57,0,0,0,.58,2.538,3.555,3.555,0,0,0,1.2,1.715,3.663,3.663,0,0,0,2.241.608,3.757,3.757,0,0,0,2.551-.81,3.415,3.415,0,0,0,.931-2.7,4.644,4.644,0,0,0-.742-2.579A14.914,14.914,0,0,0,88.54,22.5l-4-3.969a7.225,7.225,0,0,1-1.458-2.052,5.107,5.107,0,0,1-.459-2.106,4.162,4.162,0,0,1,1.336-3.321,5.1,5.1,0,0,1,3.47-1.161,6.573,6.573,0,0,1,2,.283,3.935,3.935,0,0,1,1.552.918,4.308,4.308,0,0,1,1.039,1.688,9.777,9.777,0,0,1,.486,2.592l-1.242.3a8.718,8.718,0,0,0-.513-2.565,3.078,3.078,0,0,0-1.188-1.525,3.879,3.879,0,0,0-2.106-.5,4,4,0,0,0-2.484.756,2.851,2.851,0,0,0-1,2.43,4.053,4.053,0,0,0,.338,1.62,5.759,5.759,0,0,0,1.256,1.7l3.942,3.888a16.418,16.418,0,0,1,2.282,2.767,5.792,5.792,0,0,1,.959,3.227,5.334,5.334,0,0,1-.621,2.713,3.813,3.813,0,0,1-1.728,1.58A5.973,5.973,0,0,1,87.865,32.27Z" transform="translate(909 2089.361)" fill="#823695"/>
    <path id="Path_2679" data-name="Path 2679" d="M358.985,100.681h6.029V551.4h-6.029" transform="translate(83.351 1521.114)" fill="none" stroke="#63666b" stroke-linejoin="round" stroke-width="0.68"/>
    <path id="Path_2680" data-name="Path 2680" d="M358.985,100.681h6.029V551.4" transform="translate(83.351 1521.114)" fill="none" stroke="#63666b" stroke-linejoin="round" stroke-width="0.68"/>
    <path id="Path_3135" data-name="Path 3135" d="M0,0H13.36V218.942H0Z" transform="translate(460.534 1625.604)" fill="#823695"/>
    <path id="Path_3145" data-name="Path 3145" d="M0,0H13.36V28.949H0Z" transform="translate(495.791 1814.907)" fill="#823695"/>
    <path id="Path_3148" data-name="Path 3148" d="M0,0H13.36V5.285H0Z" transform="translate(583.954 1844.396)" fill="#823695"/>
    <path id="Path_3149" data-name="Path 3149" d="M0,0H13.36V17.957H0Z" transform="translate(601.571 1844.396)" fill="#823695"/>
    <path id="Path_3150" data-name="Path 3150" d="M0,0H13.36V30.785H0Z" transform="translate(619.211 1844.396)" fill="#823695"/>
    <path id="Path_3153" data-name="Path 3153" d="M0,0H13.36V38.612H0Z" transform="translate(636.847 1844.396)" fill="#823695"/>
    <path id="Path_3156" data-name="Path 3156" d="M0,0H13.36V47.172H0Z" transform="translate(672.1 1844.396)" fill="#823695"/>
    <path id="Path_3159" data-name="Path 3159" d="M0,0H13.36V54.8H0Z" transform="translate(707.355 1844.396)" fill="#823695"/>
    <path id="Path_3161" data-name="Path 3161" d="M0,0H13.36V56.97H0Z" transform="translate(723.986 1844.396)" fill="#823695"/>
    <path id="Path_3165" data-name="Path 3165" d="M0,0H13.36V60.4H0Z" transform="translate(759.128 1844.396)" fill="#823695"/>
    <path id="Path_3167" data-name="Path 3167" d="M0,0H13.36V72.449H0Z" transform="translate(776.713 1844.396)" fill="#823695"/>
    <path id="Path_3172" data-name="Path 3172" d="M0,0H13.36V84.479H0Z" transform="translate(829.436 1844.396)" fill="#823695"/>
    <path id="Path_3173" data-name="Path 3173" d="M0,0H13.36V86.537H0Z" transform="translate(847.018 1844.396)" fill="#823695"/>
    <path id="Path_3175" data-name="Path 3175" d="M0,0H13.36V87.378H0Z" transform="translate(864.581 1844.396)" fill="#823695"/>
    <path id="Path_3176" data-name="Path 3176" d="M0,0H13.36V91.733H0Z" transform="translate(882.161 1844.396)" fill="#823695"/>
    <path id="Path_3177" data-name="Path 3177" d="M0,0H13.36V91.8H0Z" transform="translate(899.744 1844.396)" fill="#823695"/>
    <path id="Path_3179" data-name="Path 3179" d="M0,0H13.36V93.945H0Z" transform="translate(917.306 1844.396)" fill="#823695"/>
    <path id="Path_3180" data-name="Path 3180" d="M0,0H13.36V95.957H0Z" transform="translate(934.888 1844.396)" fill="#823695"/>
    <path id="Path_3170" data-name="Path 3170" d="M0,0H13.36V81.672H0Z" transform="translate(811.854 1844.396)" fill="#823695"/>
    <path id="Path_3139" data-name="Path 3139" d="M0,0H13.36V135.494H0Z" transform="translate(478.653 1708.365)" fill="#823695"/>
    <path id="Path_3146" data-name="Path 3146" d="M0,0H13.36V19.727H0Z" transform="translate(513.425 1824.42)" fill="#823695"/>
    <path id="Path_3154" data-name="Path 3154" d="M0,0H13.36V40.072H0Z" transform="translate(654.466 1844.396)" fill="#823695"/>
    <path id="Path_3158" data-name="Path 3158" d="M0,0H13.36V50.07H0Z" transform="translate(689.738 1844.396)" fill="#823695"/>
    <path id="Path_3163" data-name="Path 3163" d="M0,0H13.36V57.633H0Z" transform="translate(741.568 1844.396)" fill="#823695"/>
    <path id="Path_3169" data-name="Path 3169" d="M0,0H13.36V81.583H0Z" transform="translate(794.293 1844.396)" fill="#823695"/>
    <path id="Path_3181" data-name="Path 3181" d="M0,0H13.36V98.9H0Z" transform="translate(952.466 1844.396)" fill="#823695"/>
    <path id="Path_3184" data-name="Path 3184" d="M0,0H13.36V110.62H0Z" transform="translate(1005.19 1844.396)" fill="#823695"/>
    <path id="Path_3185" data-name="Path 3185" d="M0,0H13.36V113.937H0Z" transform="translate(1022.754 1844.396)" fill="#823695"/>
    <path id="Path_3186" data-name="Path 3186" d="M0,0H13.36V116.06H0Z" transform="translate(1040.332 1844.396)" fill="#823695"/>
    <path id="Path_3182" data-name="Path 3182" d="M0,0H13.36V99.806H0Z" transform="translate(970.031 1844.396)" fill="#823695"/>
    <path id="Path_3183" data-name="Path 3183" d="M0,0H13.36V103.145H0Z" transform="translate(987.61 1844.396)" fill="#823695"/>
    <path id="Path_3188" data-name="Path 3188" d="M0,0H13.36V125.77H0Z" transform="translate(1075.477 1844.396)" fill="#823695"/>
    <path id="Path_3190" data-name="Path 3190" d="M0,0H13.36V128.468H0Z" transform="translate(1110.643 1844.396)" fill="#823695"/>
    <path id="Path_3194" data-name="Path 3194" d="M0,0H13.36V134.02H0Z" transform="translate(1180.929 1844.396)" fill="#823695"/>
    <path id="Path_3198" data-name="Path 3198" d="M0,0H13.36V149.587H0Z" transform="translate(1251.235 1844.396)" fill="#823695"/>
    <path id="Path_3199" data-name="Path 3199" d="M0,0H13.36V150.274H0Z" transform="translate(1268.793 1844.396)" fill="#823695"/>
    <path id="Path_3202" data-name="Path 3202" d="M0,0H13.36V160H0Z" transform="translate(1321.518 1844.396)" fill="#823695"/>
    <path id="Path_3203" data-name="Path 3203" d="M0,0H13.36V160.27H0Z" transform="translate(1339.102 1844.396)" fill="#823695"/>
    <path id="Path_3204" data-name="Path 3204" d="M0,0H13.36V160.756H0Z" transform="translate(1356.684 1844.396)" fill="#823695"/>
    <path id="Path_3205" data-name="Path 3205" d="M0,0H13.36V163.83H0Z" transform="translate(1374.244 1844.396)" fill="#823695"/>
    <path id="Path_3207" data-name="Path 3207" d="M0,0H13.36V168.674H0Z" transform="translate(1409.408 1844.396)" fill="#823695"/>
    <path id="Path_3212" data-name="Path 3212" d="M0,0H13.36V198.616H0Z" transform="translate(1497.278 1844.396)" fill="#823695"/>
    <path id="Path_3213" data-name="Path 3213" d="M0,0H13.36V230.078H0Z" transform="translate(1514.854 1844.396)" fill="#823695"/>
    <path id="Path_3215" data-name="Path 3215" d="M0,0H13.36V230.078H0Z" transform="translate(1549.997 1844.396)" fill="#823695"/>
    <path id="Path_3217" data-name="Path 3217" d="M0,0H13.36V230.078H0Z" transform="translate(1585.145 1844.396)" fill="#823695"/>
    <path id="Path_3187" data-name="Path 3187" d="M0,0H13.36V121.546H0Z" transform="translate(1057.916 1844.396)" fill="#823695"/>
    <path id="Path_3195" data-name="Path 3195" d="M0,0H13.36V138.75H0Z" transform="translate(1198.507 1844.396)" fill="#823695"/>
    <path id="Path_3206" data-name="Path 3206" d="M0,0H13.36V167.39H0Z" transform="translate(1391.824 1844.396)" fill="#823695"/>
    <path id="Path_3208" data-name="Path 3208" d="M0,0H13.36V179.331H0Z" transform="translate(1426.966 1844.396)" fill="#823695"/>
    <path id="Path_3209" data-name="Path 3209" d="M0,0H13.36V181.655H0Z" transform="translate(1444.549 1844.396)" fill="#823695"/>
    <path id="Path_3189" data-name="Path 3189" d="M0,0H13.36V125.9H0Z" transform="translate(1093.059 1844.396)" fill="#823695"/>
    <path id="Path_3191" data-name="Path 3191" d="M0,0H13.36V129.9H0Z" transform="translate(1128.2 1844.396)" fill="#823695"/>
    <path id="Path_3192" data-name="Path 3192" d="M0,0H13.36V131.121H0Z" transform="translate(1145.781 1844.396)" fill="#823695"/>
    <path id="Path_3193" data-name="Path 3193" d="M0,0H13.36V133.619H0Z" transform="translate(1163.363 1844.396)" fill="#823695"/>
    <path id="Path_3196" data-name="Path 3196" d="M0,0H13.36V141.537H0Z" transform="translate(1216.092 1844.396)" fill="#823695"/>
    <path id="Path_3197" data-name="Path 3197" d="M0,0H13.36V141.8H0Z" transform="translate(1233.649 1844.396)" fill="#823695"/>
    <path id="Path_3200" data-name="Path 3200" d="M0,0H13.36V152.572H0Z" transform="translate(1286.377 1844.396)" fill="#823695"/>
    <path id="Path_3201" data-name="Path 3201" d="M0,0H13.36V154.143H0Z" transform="translate(1303.958 1844.396)" fill="#823695"/>
    <path id="Path_3210" data-name="Path 3210" d="M0,0H13.36V184.131H0Z" transform="translate(1462.131 1844.396)" fill="#823695"/>
    <path id="Path_3211" data-name="Path 3211" d="M0,0H13.36V184.84H0Z" transform="translate(1479.69 1844.396)" fill="#823695"/>
    <path id="Path_3214" data-name="Path 3214" d="M0,0H13.36V230.078H0Z" transform="translate(1532.417 1844.396)" fill="#823695"/>
    <path id="Path_3216" data-name="Path 3216" d="M0,0H13.36V230.078H0Z" transform="translate(1567.579 1844.396)" fill="#823695"/>
    <path id="Path_3137" data-name="Path 3137" d="M0,0H6.029" transform="translate(442.338 1666.278)" fill="none" stroke="#63666b" stroke-width="0.68"/>
    <path id="Path_3140" data-name="Path 3140" d="M0,0H6.029" transform="translate(442.338 1712.203)" fill="none" stroke="#63666b" stroke-width="0.68"/>
    <path id="Path_3142" data-name="Path 3142" d="M0,0H6.029" transform="translate(442.338 1756.778)" fill="none" stroke="#63666b" stroke-width="0.68"/>
    <path id="Path_3144" data-name="Path 3144" d="M0,0H6.029" transform="translate(442.338 1801.135)" fill="none" stroke="#63666b" stroke-width="0.68"/>
    <path id="Path_3151" data-name="Path 3151" d="M0,0H6.029" transform="translate(442.338 1844.199)" fill="none" stroke="#63666b" stroke-width="0.68"/>
    <path id="Path_3157" data-name="Path 3157" d="M0,0H6.029" transform="translate(442.338 1890.976)" fill="none" stroke="#63666b" stroke-width="0.68"/>
    <path id="Path_3162" data-name="Path 3162" d="M0,0H6.029" transform="translate(442.338 1935.352)" fill="none" stroke="#63666b" stroke-width="0.68"/>
    <path id="Path_3166" data-name="Path 3166" d="M0,0H6.029" transform="translate(442.338 1979.728)" fill="none" stroke="#63666b" stroke-width="0.68"/>
    <path id="Path_3171" data-name="Path 3171" d="M0,0H6.029" transform="translate(442.338 2024.102)" fill="none" stroke="#63666b" stroke-width="0.68"/>
    <path id="Path_3134" data-name="Path 3134" d="M4.949,0H3.828V-8.47a2.6,2.6,0,0,1-.379.3,6.184,6.184,0,0,1-.561.332q-.311.164-.656.308a4.769,4.769,0,0,1-.673.226V-8.442a6.517,6.517,0,0,0,.783-.277q.414-.174.813-.39T3.91-9.56a6,6,0,0,0,.615-.461h.424Zm9.57-4.942A9.63,9.63,0,0,1,14.3-2.762a5.081,5.081,0,0,1-.643,1.6,2.892,2.892,0,0,1-1.032.991,2.826,2.826,0,0,1-1.391.338A2.639,2.639,0,0,1,9.916-.154,2.758,2.758,0,0,1,8.941-1.1a4.8,4.8,0,0,1-.6-1.528A9.447,9.447,0,0,1,8.135-4.7a10.694,10.694,0,0,1,.215-2.27,5.191,5.191,0,0,1,.632-1.651,2.814,2.814,0,0,1,1.036-1,2.908,2.908,0,0,1,1.418-.338Q14.52-9.967,14.52-4.942Zm-1.148.109q0-4.184-1.989-4.184-2.1,0-2.1,4.259,0,3.972,2.058,3.972Q13.371-.786,13.371-4.833Zm8.7-.109a9.63,9.63,0,0,1-.222,2.181,5.081,5.081,0,0,1-.643,1.6,2.892,2.892,0,0,1-1.032.991,2.826,2.826,0,0,1-1.391.338,2.639,2.639,0,0,1-1.316-.325,2.758,2.758,0,0,1-.974-.947,4.8,4.8,0,0,1-.6-1.528A9.447,9.447,0,0,1,15.682-4.7a10.694,10.694,0,0,1,.215-2.27,5.191,5.191,0,0,1,.632-1.651,2.814,2.814,0,0,1,1.036-1,2.908,2.908,0,0,1,1.418-.338Q22.066-9.967,22.066-4.942Zm-1.148.109q0-4.184-1.989-4.184-2.1,0-2.1,4.259,0,3.972,2.058,3.972Q20.918-.786,20.918-4.833Z" transform="translate(410.479 1619)" fill="#63666b"/>
    <path id="Path_3141" data-name="Path 3141" d="M6.226-10.5v6.936H7.573v1.1H6.226V0H5.039V-2.468H.1v-1.04q.688-.776,1.392-1.659T2.838-6.958q.641-.908,1.187-1.813A16.567,16.567,0,0,0,4.944-10.5ZM1.458-3.567H5.039V-8.708Q4.49-7.749,4-6.995t-.934,1.37q-.443.615-.846,1.113T1.458-3.567ZM15.557-5.3a10.318,10.318,0,0,1-.238,2.336,5.444,5.444,0,0,1-.688,1.718A3.1,3.1,0,0,1,13.524-.179a3.028,3.028,0,0,1-1.49.363,2.827,2.827,0,0,1-1.41-.348A2.955,2.955,0,0,1,9.58-1.179a5.141,5.141,0,0,1-.645-1.637,10.122,10.122,0,0,1-.22-2.223,11.458,11.458,0,0,1,.231-2.432A5.562,5.562,0,0,1,9.624-9.24a3.015,3.015,0,0,1,1.11-1.077,3.116,3.116,0,0,1,1.52-.363Q15.557-10.679,15.557-5.3Zm-1.23.117q0-4.482-2.131-4.482-2.249,0-2.249,4.563,0,4.255,2.2,4.255Q14.326-.842,14.326-5.178Z" transform="translate(417.354 1759.292)" fill="#63666b"/>
    <path id="Path_3143" data-name="Path 3143" d="M5.654-7.749a2.172,2.172,0,0,0-.15-.842,1.668,1.668,0,0,0-.41-.6,1.681,1.681,0,0,0-.612-.355,2.4,2.4,0,0,0-.762-.117,2.52,2.52,0,0,0-.688.1,3.347,3.347,0,0,0-.656.264,4.032,4.032,0,0,0-.615.4,4.444,4.444,0,0,0-.553.52V-9.668a3.591,3.591,0,0,1,1.132-.751,3.984,3.984,0,0,1,1.527-.26,3.687,3.687,0,0,1,1.194.187,2.737,2.737,0,0,1,.952.546,2.522,2.522,0,0,1,.634.886,2.989,2.989,0,0,1,.231,1.208,4.144,4.144,0,0,1-.143,1.128,3.488,3.488,0,0,1-.432.952,4.594,4.594,0,0,1-.729.857,10.323,10.323,0,0,1-1.033.835q-.74.527-1.219.9a5.391,5.391,0,0,0-.762.7,2.03,2.03,0,0,0-.4.652,2.279,2.279,0,0,0-.114.751H7.28V0H.8V-.52A4.333,4.333,0,0,1,.945-1.707a3.081,3.081,0,0,1,.483-.974A5.406,5.406,0,0,1,2.311-3.6q.546-.461,1.337-1.04A8.45,8.45,0,0,0,4.6-5.427a4.074,4.074,0,0,0,.619-.747,2.683,2.683,0,0,0,.333-.758A3.269,3.269,0,0,0,5.654-7.749Zm9.9,2.454a10.318,10.318,0,0,1-.238,2.336,5.444,5.444,0,0,1-.688,1.718A3.1,3.1,0,0,1,13.524-.179a3.028,3.028,0,0,1-1.49.363,2.827,2.827,0,0,1-1.41-.348A2.955,2.955,0,0,1,9.58-1.179a5.141,5.141,0,0,1-.645-1.637,10.122,10.122,0,0,1-.22-2.223,11.458,11.458,0,0,1,.231-2.432A5.562,5.562,0,0,1,9.624-9.24a3.015,3.015,0,0,1,1.11-1.077,3.116,3.116,0,0,1,1.52-.363Q15.557-10.679,15.557-5.3Zm-1.23.117q0-4.482-2.131-4.482-2.249,0-2.249,4.563,0,4.255,2.2,4.255Q14.326-.842,14.326-5.178Z" transform="translate(417.354 1802.141)" fill="#63666b"/>
    <path id="Path_3147" data-name="Path 3147" d="M6.475-4.589a8.942,8.942,0,0,1-.206,2.025,4.718,4.718,0,0,1-.6,1.489,2.685,2.685,0,0,1-.958.92A2.624,2.624,0,0,1,3.421.159,2.45,2.45,0,0,1,2.2-.143a2.561,2.561,0,0,1-.9-.879A4.456,4.456,0,0,1,.736-2.441a8.772,8.772,0,0,1-.19-1.927,9.93,9.93,0,0,1,.2-2.107,4.82,4.82,0,0,1,.587-1.533,2.613,2.613,0,0,1,.962-.933,2.7,2.7,0,0,1,1.317-.314Q6.475-9.255,6.475-4.589Zm-1.066.1q0-3.885-1.847-3.885-1.949,0-1.949,3.955Q1.612-.73,3.523-.73,5.408-.73,5.408-4.488Z" transform="translate(425.377 1842.988)" fill="#63666b"/>
    <path id="Path_3136" data-name="Path 3136" d="M.659-2.93a2.8,2.8,0,0,1,.132-.839,3.038,3.038,0,0,1,.377-.787,3.121,3.121,0,0,1,.608-.667A2.9,2.9,0,0,1,2.6-5.7a3.114,3.114,0,0,1-1.084-.978A2.312,2.312,0,0,1,1.113-8a2.55,2.55,0,0,1,.223-1.069,2.576,2.576,0,0,1,.619-.85,2.861,2.861,0,0,1,.938-.56,3.338,3.338,0,0,1,1.172-.2,3.306,3.306,0,0,1,1.179.205,2.912,2.912,0,0,1,.938.564,2.532,2.532,0,0,1,.615.85A2.569,2.569,0,0,1,7.017-8a2.312,2.312,0,0,1-.4,1.322A3.153,3.153,0,0,1,5.544-5.7a2.872,2.872,0,0,1,.813.476,3.167,3.167,0,0,1,.6.667,3.038,3.038,0,0,1,.377.787,2.8,2.8,0,0,1,.132.839,3.119,3.119,0,0,1-.249,1.26,2.815,2.815,0,0,1-.7.978,3.229,3.229,0,0,1-1.077.634A4.024,4.024,0,0,1,4.065.168,3.971,3.971,0,0,1,2.7-.059,3.279,3.279,0,0,1,1.619-.692,2.834,2.834,0,0,1,.912-1.67,3.08,3.08,0,0,1,.659-2.93Zm1.3-.1a2.481,2.481,0,0,0,.15.886,1.911,1.911,0,0,0,.425.674,1.854,1.854,0,0,0,.667.428,2.408,2.408,0,0,0,.868.15,2.286,2.286,0,0,0,.85-.154,1.98,1.98,0,0,0,.67-.432,1.943,1.943,0,0,0,.439-.674,2.357,2.357,0,0,0,.157-.879,2.245,2.245,0,0,0-.15-.824,2.063,2.063,0,0,0-.428-.677A2.013,2.013,0,0,0,4.944-5a2.168,2.168,0,0,0-.872-.168,2.192,2.192,0,0,0-.839.157,2.007,2.007,0,0,0-.667.439,2.035,2.035,0,0,0-.443.674A2.242,2.242,0,0,0,1.963-3.032ZM2.336-7.9a1.75,1.75,0,0,0,.135.692,1.744,1.744,0,0,0,.374.557,1.755,1.755,0,0,0,.553.374,1.687,1.687,0,0,0,.674.135,1.674,1.674,0,0,0,.677-.139A1.751,1.751,0,0,0,5.3-6.661a1.828,1.828,0,0,0,.374-.557A1.692,1.692,0,0,0,5.815-7.9a1.8,1.8,0,0,0-.135-.7,1.721,1.721,0,0,0-.37-.557,1.731,1.731,0,0,0-.553-.37,1.731,1.731,0,0,0-.685-.135,1.747,1.747,0,0,0-.707.139,1.708,1.708,0,0,0-.549.377,1.649,1.649,0,0,0-.355.56A1.894,1.894,0,0,0,2.336-7.9ZM15.557-5.3a10.318,10.318,0,0,1-.238,2.336,5.444,5.444,0,0,1-.688,1.718A3.1,3.1,0,0,1,13.524-.179a3.028,3.028,0,0,1-1.49.363,2.827,2.827,0,0,1-1.41-.348A2.955,2.955,0,0,1,9.58-1.179a5.141,5.141,0,0,1-.645-1.637,10.122,10.122,0,0,1-.22-2.223,11.458,11.458,0,0,1,.231-2.432A5.562,5.562,0,0,1,9.624-9.24a3.015,3.015,0,0,1,1.11-1.077,3.116,3.116,0,0,1,1.52-.363Q15.557-10.679,15.557-5.3Zm-1.23.117q0-4.482-2.131-4.482-2.249,0-2.249,4.563,0,4.255,2.2,4.255Q14.326-.842,14.326-5.178Z" transform="translate(417.354 1666.452)" fill="#63666b"/>
    <path id="Path_3138" data-name="Path 3138" d="M7.485-3.333a3.891,3.891,0,0,1-.249,1.414A3.4,3.4,0,0,1,6.548-.806,3.076,3.076,0,0,1,5.5-.077a3.317,3.317,0,0,1-1.318.26,3,3,0,0,1-1.417-.33A3,3,0,0,1,1.7-1.095,4.549,4.549,0,0,1,1.04-2.607,8.194,8.194,0,0,1,.813-4.622a9.465,9.465,0,0,1,.3-2.487A6.041,6.041,0,0,1,1.981-9.02a3.984,3.984,0,0,1,1.351-1.227A3.621,3.621,0,0,1,5.1-10.679a4.252,4.252,0,0,1,1.743.3v1.135a3.7,3.7,0,0,0-1.714-.417,2.554,2.554,0,0,0-1.267.315,2.91,2.91,0,0,0-.967.89,4.341,4.341,0,0,0-.619,1.388,7.042,7.042,0,0,0-.216,1.809h.029a2.522,2.522,0,0,1,2.4-1.311,3.152,3.152,0,0,1,1.241.234,2.68,2.68,0,0,1,.945.663,2.984,2.984,0,0,1,.6,1.022A3.889,3.889,0,0,1,7.485-3.333Zm-1.23.154a3.269,3.269,0,0,0-.139-.989,2.145,2.145,0,0,0-.4-.747,1.721,1.721,0,0,0-.641-.472,2.157,2.157,0,0,0-.864-.165,2.023,2.023,0,0,0-.828.168,2.061,2.061,0,0,0-.659.458,2.121,2.121,0,0,0-.436.674,2.134,2.134,0,0,0-.157.817,3.258,3.258,0,0,0,.154,1.014,2.62,2.62,0,0,0,.432.824,2.055,2.055,0,0,0,.663.553,1.811,1.811,0,0,0,.853.2,1.954,1.954,0,0,0,.828-.172,1.846,1.846,0,0,0,.637-.48,2.221,2.221,0,0,0,.41-.736A2.917,2.917,0,0,0,6.255-3.179Zm9.3-2.117a10.318,10.318,0,0,1-.238,2.336,5.444,5.444,0,0,1-.688,1.718A3.1,3.1,0,0,1,13.524-.179a3.028,3.028,0,0,1-1.49.363,2.827,2.827,0,0,1-1.41-.348A2.955,2.955,0,0,1,9.58-1.179a5.141,5.141,0,0,1-.645-1.637,10.122,10.122,0,0,1-.22-2.223,11.458,11.458,0,0,1,.231-2.432A5.562,5.562,0,0,1,9.624-9.24a3.015,3.015,0,0,1,1.11-1.077,3.116,3.116,0,0,1,1.52-.363Q15.557-10.679,15.557-5.3Zm-1.23.117q0-4.482-2.131-4.482-2.249,0-2.249,4.563,0,4.255,2.2,4.255Q14.326-.842,14.326-5.178Z" transform="translate(417.354 1712.661)" fill="#63666b"/>
    <path id="Path_3155" data-name="Path 3155" d="M5.054-3.706h-4v-.945h4Zm6.6-4.043a2.172,2.172,0,0,0-.15-.842,1.668,1.668,0,0,0-.41-.6,1.681,1.681,0,0,0-.612-.355,2.4,2.4,0,0,0-.762-.117,2.52,2.52,0,0,0-.688.1,3.347,3.347,0,0,0-.656.264,4.032,4.032,0,0,0-.615.4,4.444,4.444,0,0,0-.553.52V-9.668a3.591,3.591,0,0,1,1.132-.751,3.984,3.984,0,0,1,1.527-.26,3.687,3.687,0,0,1,1.194.187,2.737,2.737,0,0,1,.952.546,2.522,2.522,0,0,1,.634.886,2.989,2.989,0,0,1,.231,1.208,4.144,4.144,0,0,1-.143,1.128,3.488,3.488,0,0,1-.432.952,4.594,4.594,0,0,1-.729.857,10.323,10.323,0,0,1-1.033.835q-.74.527-1.219.9a5.391,5.391,0,0,0-.762.7,2.03,2.03,0,0,0-.4.652,2.279,2.279,0,0,0-.114.751h5.229V0H6.8V-.52a4.333,4.333,0,0,1,.146-1.187,3.081,3.081,0,0,1,.483-.974A5.406,5.406,0,0,1,8.309-3.6q.546-.461,1.337-1.04a8.45,8.45,0,0,0,.956-.784,4.074,4.074,0,0,0,.619-.747,2.683,2.683,0,0,0,.333-.758A3.269,3.269,0,0,0,11.653-7.749Zm9.9,2.454a10.318,10.318,0,0,1-.238,2.336,5.444,5.444,0,0,1-.688,1.718A3.1,3.1,0,0,1,19.523-.179a3.028,3.028,0,0,1-1.49.363,2.827,2.827,0,0,1-1.41-.348,2.955,2.955,0,0,1-1.044-1.014,5.141,5.141,0,0,1-.645-1.637,10.122,10.122,0,0,1-.22-2.223,11.458,11.458,0,0,1,.231-2.432,5.562,5.562,0,0,1,.677-1.769,3.015,3.015,0,0,1,1.11-1.077,3.116,3.116,0,0,1,1.52-.363Q21.555-10.679,21.555-5.3Zm-1.23.117q0-4.482-2.131-4.482-2.249,0-2.249,4.563,0,4.255,2.2,4.255Q20.325-.842,20.325-5.178Z" transform="translate(413.915 1891.598)" fill="#63666b"/>
    <path id="Path_3160" data-name="Path 3160" d="M5.054-3.706h-4v-.945h4Zm7.17-6.8v6.936h1.348v1.1H12.224V0H11.038V-2.468H6.1v-1.04q.688-.776,1.392-1.659T8.837-6.958q.641-.908,1.187-1.813a16.567,16.567,0,0,0,.919-1.732ZM7.456-3.567h3.582V-8.708q-.549.959-1.04,1.714t-.934,1.37q-.443.615-.846,1.113T7.456-3.567ZM21.555-5.3a10.318,10.318,0,0,1-.238,2.336,5.444,5.444,0,0,1-.688,1.718A3.1,3.1,0,0,1,19.523-.179a3.028,3.028,0,0,1-1.49.363,2.827,2.827,0,0,1-1.41-.348,2.955,2.955,0,0,1-1.044-1.014,5.141,5.141,0,0,1-.645-1.637,10.122,10.122,0,0,1-.22-2.223,11.458,11.458,0,0,1,.231-2.432,5.562,5.562,0,0,1,.677-1.769,3.015,3.015,0,0,1,1.11-1.077,3.116,3.116,0,0,1,1.52-.363Q21.555-10.679,21.555-5.3Zm-1.23.117q0-4.482-2.131-4.482-2.249,0-2.249,4.563,0,4.255,2.2,4.255Q20.325-.842,20.325-5.178Z" transform="translate(413.915 1936.327)" fill="#63666b"/>
    <path id="Path_3164" data-name="Path 3164" d="M5.054-3.706h-4v-.945h4Zm8.43.374a3.891,3.891,0,0,1-.249,1.414,3.4,3.4,0,0,1-.688,1.113A3.076,3.076,0,0,1,11.5-.077a3.317,3.317,0,0,1-1.318.26,3,3,0,0,1-1.417-.33A3,3,0,0,1,7.7-1.095a4.549,4.549,0,0,1-.663-1.512,8.194,8.194,0,0,1-.227-2.014,9.465,9.465,0,0,1,.3-2.487A6.041,6.041,0,0,1,7.98-9.02a3.984,3.984,0,0,1,1.351-1.227,3.621,3.621,0,0,1,1.765-.432,4.252,4.252,0,0,1,1.743.3v1.135a3.7,3.7,0,0,0-1.714-.417,2.554,2.554,0,0,0-1.267.315,2.91,2.91,0,0,0-.967.89,4.341,4.341,0,0,0-.619,1.388,7.042,7.042,0,0,0-.216,1.809h.029a2.522,2.522,0,0,1,2.4-1.311,3.152,3.152,0,0,1,1.241.234,2.68,2.68,0,0,1,.945.663,2.984,2.984,0,0,1,.6,1.022A3.889,3.889,0,0,1,13.484-3.333Zm-1.23.154a3.269,3.269,0,0,0-.139-.989,2.145,2.145,0,0,0-.4-.747,1.721,1.721,0,0,0-.641-.472,2.157,2.157,0,0,0-.864-.165,2.023,2.023,0,0,0-.828.168,2.061,2.061,0,0,0-.659.458,2.121,2.121,0,0,0-.436.674,2.134,2.134,0,0,0-.157.817,3.258,3.258,0,0,0,.154,1.014,2.62,2.62,0,0,0,.432.824,2.055,2.055,0,0,0,.663.553,1.811,1.811,0,0,0,.853.2,1.954,1.954,0,0,0,.828-.172,1.846,1.846,0,0,0,.637-.48,2.221,2.221,0,0,0,.41-.736A2.917,2.917,0,0,0,12.253-3.179Zm9.3-2.117a10.318,10.318,0,0,1-.238,2.336,5.444,5.444,0,0,1-.688,1.718A3.1,3.1,0,0,1,19.523-.179a3.028,3.028,0,0,1-1.49.363,2.827,2.827,0,0,1-1.41-.348,2.955,2.955,0,0,1-1.044-1.014,5.141,5.141,0,0,1-.645-1.637,10.122,10.122,0,0,1-.22-2.223,11.458,11.458,0,0,1,.231-2.432,5.562,5.562,0,0,1,.677-1.769,3.015,3.015,0,0,1,1.11-1.077,3.116,3.116,0,0,1,1.52-.363Q21.555-10.679,21.555-5.3Zm-1.23.117q0-4.482-2.131-4.482-2.249,0-2.249,4.563,0,4.255,2.2,4.255Q20.325-.842,20.325-5.178Z" transform="translate(413.915 1981.056)" fill="#63666b"/>
    <path id="Path_3168" data-name="Path 3168" d="M5.054-3.706h-4v-.945h4Zm1.6.776a2.8,2.8,0,0,1,.132-.839,3.038,3.038,0,0,1,.377-.787,3.121,3.121,0,0,1,.608-.667A2.9,2.9,0,0,1,8.6-5.7a3.114,3.114,0,0,1-1.084-.978A2.312,2.312,0,0,1,7.112-8a2.55,2.55,0,0,1,.223-1.069,2.576,2.576,0,0,1,.619-.85,2.861,2.861,0,0,1,.938-.56,3.338,3.338,0,0,1,1.172-.2,3.306,3.306,0,0,1,1.179.205,2.912,2.912,0,0,1,.938.564,2.532,2.532,0,0,1,.615.85A2.569,2.569,0,0,1,13.015-8a2.312,2.312,0,0,1-.4,1.322,3.153,3.153,0,0,1-1.069.978,2.872,2.872,0,0,1,.813.476,3.167,3.167,0,0,1,.6.667,3.038,3.038,0,0,1,.377.787,2.8,2.8,0,0,1,.132.839,3.119,3.119,0,0,1-.249,1.26,2.815,2.815,0,0,1-.7.978,3.229,3.229,0,0,1-1.077.634,4.024,4.024,0,0,1-1.381.227,3.971,3.971,0,0,1-1.37-.227A3.279,3.279,0,0,1,7.617-.692,2.834,2.834,0,0,1,6.91-1.67,3.08,3.08,0,0,1,6.658-2.93Zm1.3-.1a2.481,2.481,0,0,0,.15.886,1.911,1.911,0,0,0,.425.674,1.854,1.854,0,0,0,.667.428,2.408,2.408,0,0,0,.868.15,2.286,2.286,0,0,0,.85-.154,1.98,1.98,0,0,0,.67-.432,1.943,1.943,0,0,0,.439-.674,2.357,2.357,0,0,0,.157-.879,2.245,2.245,0,0,0-.15-.824,2.063,2.063,0,0,0-.428-.677A2.013,2.013,0,0,0,10.942-5a2.168,2.168,0,0,0-.872-.168,2.192,2.192,0,0,0-.839.157,2.007,2.007,0,0,0-.667.439,2.035,2.035,0,0,0-.443.674A2.242,2.242,0,0,0,7.961-3.032ZM8.335-7.9a1.75,1.75,0,0,0,.135.692,1.744,1.744,0,0,0,.374.557,1.755,1.755,0,0,0,.553.374,1.687,1.687,0,0,0,.674.135,1.674,1.674,0,0,0,.677-.139,1.751,1.751,0,0,0,.553-.377,1.828,1.828,0,0,0,.374-.557,1.692,1.692,0,0,0,.139-.685,1.8,1.8,0,0,0-.135-.7,1.721,1.721,0,0,0-.37-.557,1.731,1.731,0,0,0-.553-.37,1.731,1.731,0,0,0-.685-.135,1.747,1.747,0,0,0-.707.139,1.708,1.708,0,0,0-.549.377,1.649,1.649,0,0,0-.355.56A1.894,1.894,0,0,0,8.335-7.9ZM21.555-5.3a10.318,10.318,0,0,1-.238,2.336,5.444,5.444,0,0,1-.688,1.718A3.1,3.1,0,0,1,19.523-.179a3.028,3.028,0,0,1-1.49.363,2.827,2.827,0,0,1-1.41-.348,2.955,2.955,0,0,1-1.044-1.014,5.141,5.141,0,0,1-.645-1.637,10.122,10.122,0,0,1-.22-2.223,11.458,11.458,0,0,1,.231-2.432,5.562,5.562,0,0,1,.677-1.769,3.015,3.015,0,0,1,1.11-1.077,3.116,3.116,0,0,1,1.52-.363Q21.555-10.679,21.555-5.3Zm-1.23.117q0-4.482-2.131-4.482-2.249,0-2.249,4.563,0,4.255,2.2,4.255Q20.325-.842,20.325-5.178Z" transform="translate(413.915 2023.366)" fill="#63666b"/>
    <path id="Path_3174" data-name="Path 3174" d="M5.054-3.706h-4v-.945h4ZM11.3,0H10.1V-9.075a2.78,2.78,0,0,1-.406.319,6.626,6.626,0,0,1-.6.355q-.333.176-.7.33a5.11,5.11,0,0,1-.721.242V-9.045a6.983,6.983,0,0,0,.839-.3q.443-.187.872-.417t.809-.483a6.425,6.425,0,0,0,.659-.494H11.3ZM21.555-5.3a10.318,10.318,0,0,1-.238,2.336,5.444,5.444,0,0,1-.688,1.718A3.1,3.1,0,0,1,19.523-.179a3.028,3.028,0,0,1-1.49.363,2.827,2.827,0,0,1-1.41-.348,2.955,2.955,0,0,1-1.044-1.014,5.141,5.141,0,0,1-.645-1.637,10.122,10.122,0,0,1-.22-2.223,11.458,11.458,0,0,1,.231-2.432,5.562,5.562,0,0,1,.677-1.769,3.015,3.015,0,0,1,1.11-1.077,3.116,3.116,0,0,1,1.52-.363Q21.555-10.679,21.555-5.3Zm-1.23.117q0-4.482-2.131-4.482-2.249,0-2.249,4.563,0,4.255,2.2,4.255Q20.325-.842,20.325-5.178ZM29.641-5.3A10.318,10.318,0,0,1,29.4-2.959a5.444,5.444,0,0,1-.688,1.718A3.1,3.1,0,0,1,27.609-.179a3.028,3.028,0,0,1-1.49.363,2.827,2.827,0,0,1-1.41-.348,2.955,2.955,0,0,1-1.044-1.014,5.141,5.141,0,0,1-.645-1.637,10.122,10.122,0,0,1-.22-2.223,11.458,11.458,0,0,1,.231-2.432,5.562,5.562,0,0,1,.677-1.769,3.015,3.015,0,0,1,1.11-1.077,3.116,3.116,0,0,1,1.52-.363Q29.641-10.679,29.641-5.3Zm-1.23.117q0-4.482-2.131-4.482-2.249,0-2.249,4.563,0,4.255,2.2,4.255Q28.411-.842,28.411-5.178Z" transform="translate(407.042 2072.931)" fill="#63666b"/>
    <path id="Path_3152" data-name="Path 3152" d="M0,0H1164.635" transform="translate(448.365 1844.199)" fill="none" stroke="#63666b" stroke-width="0.68"/>
    <path id="Path_3133" data-name="Path 3133" d="M-114.38,0l.672-22.68h1.512l4.788,20.468,4.872-20.468h1.568L-100.324,0h-1.316l-.56-19.012L-106.82,0h-1.12L-112.5-18.984-113.064,0Zm19.824.252A3.193,3.193,0,0,1-96.264-.2,3.055,3.055,0,0,1-97.4-1.442,3.99,3.99,0,0,1-97.8-3.276a5.536,5.536,0,0,1,.266-1.806,3.673,3.673,0,0,1,.966-1.442,10.268,10.268,0,0,1,2-1.414q1.3-.742,3.374-1.722v-1.148a13.829,13.829,0,0,0-.21-2.744,2.325,2.325,0,0,0-.7-1.372,2.071,2.071,0,0,0-1.33-.392,3.431,3.431,0,0,0-1.232.224,1.9,1.9,0,0,0-.966.882,3.988,3.988,0,0,0-.378,1.946v.42h-1.456A5.348,5.348,0,0,1-96.53-15.3a3.877,3.877,0,0,1,3.15-1.134,3.108,3.108,0,0,1,2.856,1.288,8.116,8.116,0,0,1,.812,4.172v8.148q0,.224.014.854t.028,1.218A7.106,7.106,0,0,0-89.628,0h-1.288q-.056-.588-.14-1.232t-.112-.924a3.762,3.762,0,0,1-1.26,1.708A3.354,3.354,0,0,1-94.556.252Zm.364-1.232a2.482,2.482,0,0,0,1.26-.322,3.9,3.9,0,0,0,1.008-.84A4.924,4.924,0,0,0-91.2-3.248v-5.32q-1.484.784-2.478,1.344A9.4,9.4,0,0,0-95.242-6.16a2.981,2.981,0,0,0-.826,1.134A4.112,4.112,0,0,0-96.32-3.5a2.425,2.425,0,0,0,.672,1.988A2.3,2.3,0,0,0-94.192-.98ZM-88.06,0l3.948-8.428-3.7-7.756H-86.3l3.024,6.412,3-6.412h1.54l-3.836,7.9L-78.68,0h-1.4l-3.3-6.888L-86.6,0Zm11.4,0V-16.184h1.512V0Zm0-18.312v-2.576h1.512v2.576ZM-71.96,0V-16.184h1.4v1.708a5.8,5.8,0,0,1,1.764-1.47,4.317,4.317,0,0,1,2.044-.518,2.822,2.822,0,0,1,1.526.448,2.556,2.556,0,0,1,.994,1.708,6.069,6.069,0,0,1,1.82-1.6,4.318,4.318,0,0,1,2.128-.56A2.844,2.844,0,0,1-59-16.156a2.31,2.31,0,0,1,1.008,1.106A5.225,5.225,0,0,1-57.6-12.8V0h-1.428V-12.824a3.028,3.028,0,0,0-.5-2.072,1.676,1.676,0,0,0-1.232-.5,3.363,3.363,0,0,0-1.736.518A6.76,6.76,0,0,0-64.12-13.5a2.722,2.722,0,0,1,.042.322q.014.182.014.378V0h-1.428V-12.824A3.028,3.028,0,0,0-66-14.9a1.676,1.676,0,0,0-1.232-.5,3.32,3.32,0,0,0-1.708.518,7.062,7.062,0,0,0-1.624,1.358V0Zm19.488.252a2.451,2.451,0,0,1-1.3-.35,2.364,2.364,0,0,1-.91-1.12,5.228,5.228,0,0,1-.336-2.058V-16.184h1.484v12.74a3.187,3.187,0,0,0,.462,2.016A1.566,1.566,0,0,0-51.828-.9a3.238,3.238,0,0,0,1.736-.546,6.847,6.847,0,0,0,1.6-1.414V-16.184h1.456V0H-48.5V-1.9A6.382,6.382,0,0,1-50.3-.336,4.284,4.284,0,0,1-52.472.252ZM-44.184,0V-16.184h1.4v1.708a5.8,5.8,0,0,1,1.764-1.47,4.318,4.318,0,0,1,2.044-.518,2.821,2.821,0,0,1,1.526.448,2.556,2.556,0,0,1,.994,1.708,6.069,6.069,0,0,1,1.82-1.6,4.318,4.318,0,0,1,2.128-.56,2.844,2.844,0,0,1,1.288.308,2.31,2.31,0,0,1,1.008,1.106A5.225,5.225,0,0,1-29.82-12.8V0h-1.428V-12.824a3.028,3.028,0,0,0-.5-2.072,1.676,1.676,0,0,0-1.232-.5,3.363,3.363,0,0,0-1.736.518A6.76,6.76,0,0,0-36.344-13.5a2.722,2.722,0,0,1,.042.322q.014.182.014.378V0h-1.428V-12.824a3.028,3.028,0,0,0-.5-2.072,1.676,1.676,0,0,0-1.232-.5,3.32,3.32,0,0,0-1.708.518,7.062,7.062,0,0,0-1.624,1.358V0Zm22.008,5.32v-21.5h1.484v1.372a5.748,5.748,0,0,1,1.232-1.106,3.242,3.242,0,0,1,1.876-.518,3.32,3.32,0,0,1,1.834.462,3.087,3.087,0,0,1,1.12,1.344,7.19,7.19,0,0,1,.56,2.114,22.255,22.255,0,0,1,.154,2.744v3.108a17.52,17.52,0,0,1-.35,3.808A4.491,4.491,0,0,1-15.442-.532a3.181,3.181,0,0,1-2.282.784A2.97,2.97,0,0,1-19.5-.28a6.5,6.5,0,0,1-1.19-1.064V5.32ZM-17.892-.9a1.991,1.991,0,0,0,1.554-.6A3.574,3.574,0,0,0-15.6-3.374a21.924,21.924,0,0,0,.2-3.234V-9.772a22.086,22.086,0,0,0-.182-3.15,3.325,3.325,0,0,0-.714-1.792,2.072,2.072,0,0,0-1.6-.574,2.736,2.736,0,0,0-1.624.518,7.944,7.944,0,0,0-1.176.994V-2.352a5,5,0,0,0,1.2,1.008A2.987,2.987,0,0,0-17.892-.9ZM-7.532.252A4.456,4.456,0,0,1-9.744-.266a3.322,3.322,0,0,1-1.414-1.876,11.826,11.826,0,0,1-.49-3.85V-10.3a11.351,11.351,0,0,1,.5-3.864A3.148,3.148,0,0,1-9.7-15.96a4.8,4.8,0,0,1,2.2-.476,3.916,3.916,0,0,1,2.38.644,3.555,3.555,0,0,1,1.232,2.058A15.5,15.5,0,0,1-3.528-10v1.54h-6.636V-5.88A13.408,13.408,0,0,0-9.9-2.856a2.652,2.652,0,0,0,.854,1.54,2.426,2.426,0,0,0,1.512.448,3.7,3.7,0,0,0,1.176-.2,1.793,1.793,0,0,0,.98-.924,4.99,4.99,0,0,0,.392-2.268v-1.2h1.456V-4.4a5.979,5.979,0,0,1-.854,3.36A3.5,3.5,0,0,1-7.532.252Zm-2.632-9.6h5.18v-1.26a17.559,17.559,0,0,0-.154-2.506,2.961,2.961,0,0,0-.686-1.624,2.191,2.191,0,0,0-1.68-.574,2.767,2.767,0,0,0-1.5.378,2.274,2.274,0,0,0-.882,1.4,11.856,11.856,0,0,0-.28,2.954ZM-.9,0V-16.184H.588V-14a4.7,4.7,0,0,1,1.806-1.778,4.342,4.342,0,0,1,2.03-.574H4.55a.491.491,0,0,1,.154.028v1.54a.8.8,0,0,0-.294-.07q-.182-.014-.322-.014a3.8,3.8,0,0,0-2,.532,4.476,4.476,0,0,0-1.5,1.54V0ZM10.136.252A3.7,3.7,0,0,1,7.448-.6,4.177,4.177,0,0,1,6.314-2.884a17.5,17.5,0,0,1-.266-3.192V-9.884a16.165,16.165,0,0,1,.364-3.822,3.507,3.507,0,0,1,1.26-2.086,4.153,4.153,0,0,1,2.464-.644,3.983,3.983,0,0,1,2.534.686A3.286,3.286,0,0,1,13.8-13.874a11.7,11.7,0,0,1,.28,2.674v.644h-1.4V-11.2a9.258,9.258,0,0,0-.266-2.534,2.086,2.086,0,0,0-.826-1.232,2.712,2.712,0,0,0-1.456-.35,2.353,2.353,0,0,0-1.652.518,2.866,2.866,0,0,0-.756,1.666,19.137,19.137,0,0,0-.2,3.08v4.2A10.17,10.17,0,0,0,8.05-2.044,2.071,2.071,0,0,0,10.164-.868,2.434,2.434,0,0,0,11.8-1.344a2.425,2.425,0,0,0,.714-1.484,16.391,16.391,0,0,0,.168-2.6v-.616h1.4v.588a15.246,15.246,0,0,1-.252,2.912A3.581,3.581,0,0,1,12.74-.5,3.806,3.806,0,0,1,10.136.252ZM20.3.252a4.456,4.456,0,0,1-2.212-.518,3.322,3.322,0,0,1-1.414-1.876,11.826,11.826,0,0,1-.49-3.85V-10.3a11.351,11.351,0,0,1,.5-3.864A3.148,3.148,0,0,1,18.13-15.96a4.8,4.8,0,0,1,2.2-.476,3.916,3.916,0,0,1,2.38.644,3.555,3.555,0,0,1,1.232,2.058A15.5,15.5,0,0,1,24.3-10v1.54H17.668V-5.88a13.408,13.408,0,0,0,.266,3.024,2.652,2.652,0,0,0,.854,1.54A2.426,2.426,0,0,0,20.3-.868a3.7,3.7,0,0,0,1.176-.2,1.793,1.793,0,0,0,.98-.924,4.99,4.99,0,0,0,.392-2.268v-1.2H24.3V-4.4a5.979,5.979,0,0,1-.854,3.36A3.5,3.5,0,0,1,20.3.252Zm-2.632-9.6h5.18v-1.26a17.559,17.559,0,0,0-.154-2.506,2.961,2.961,0,0,0-.686-1.624,2.191,2.191,0,0,0-1.68-.574,2.767,2.767,0,0,0-1.5.378,2.274,2.274,0,0,0-.882,1.4,11.856,11.856,0,0,0-.28,2.954ZM26.74,0V-16.184h1.484v1.736A6.226,6.226,0,0,1,29.96-15.89a4.247,4.247,0,0,1,2.1-.546,2.451,2.451,0,0,1,1.3.35,2.364,2.364,0,0,1,.91,1.12,5.228,5.228,0,0,1,.336,2.058V0H33.124V-12.74a3.187,3.187,0,0,0-.462-2.016,1.566,1.566,0,0,0-1.246-.532,3.192,3.192,0,0,0-1.638.49,6.666,6.666,0,0,0-1.554,1.3V0ZM40.88.168A2.654,2.654,0,0,1,39.2-.28a2.061,2.061,0,0,1-.728-1.2A7.9,7.9,0,0,1,38.3-3.192V-15.2H36.176v-.98H38.3v-5.18h1.484v5.18h2.744v.98H39.788V-3.388A4.745,4.745,0,0,0,40.04-1.54q.252.532,1.148.532a4.67,4.67,0,0,0,.6-.042q.322-.042.6-.1V0a5.311,5.311,0,0,1-.756.126Q41.216.168,40.88.168ZM53.032.252A3.7,3.7,0,0,1,50.344-.6,4.177,4.177,0,0,1,49.21-2.884a17.5,17.5,0,0,1-.266-3.192V-9.884a16.165,16.165,0,0,1,.364-3.822,3.507,3.507,0,0,1,1.26-2.086,4.153,4.153,0,0,1,2.464-.644,3.983,3.983,0,0,1,2.534.686A3.286,3.286,0,0,1,56.7-13.874a11.7,11.7,0,0,1,.28,2.674v.644h-1.4V-11.2a9.258,9.258,0,0,0-.266-2.534,2.086,2.086,0,0,0-.826-1.232,2.712,2.712,0,0,0-1.456-.35,2.353,2.353,0,0,0-1.652.518,2.866,2.866,0,0,0-.756,1.666,19.137,19.137,0,0,0-.2,3.08v4.2a10.17,10.17,0,0,0,.518,3.808A2.071,2.071,0,0,0,53.06-.868,2.434,2.434,0,0,0,54.7-1.344a2.425,2.425,0,0,0,.714-1.484,16.391,16.391,0,0,0,.168-2.6v-.616h1.4v.588a15.245,15.245,0,0,1-.252,2.912A3.581,3.581,0,0,1,55.636-.5,3.806,3.806,0,0,1,53.032.252ZM59.388,0V-22.68h1.484v8.2A6.389,6.389,0,0,1,62.636-15.9a4.334,4.334,0,0,1,2.1-.532,2.451,2.451,0,0,1,1.3.35,2.364,2.364,0,0,1,.91,1.12,5.228,5.228,0,0,1,.336,2.058V0H65.772V-12.74a3.265,3.265,0,0,0-.448-2.016,1.525,1.525,0,0,0-1.232-.532,3.265,3.265,0,0,0-1.652.49,6.539,6.539,0,0,0-1.568,1.3V0ZM72.716.252A3.193,3.193,0,0,1,71.008-.2a3.055,3.055,0,0,1-1.134-1.246,3.99,3.99,0,0,1-.406-1.834,5.536,5.536,0,0,1,.266-1.806A3.673,3.673,0,0,1,70.7-6.524a10.268,10.268,0,0,1,2-1.414Q74-8.68,76.076-9.66v-1.148a13.829,13.829,0,0,0-.21-2.744,2.325,2.325,0,0,0-.7-1.372,2.071,2.071,0,0,0-1.33-.392,3.431,3.431,0,0,0-1.232.224,1.9,1.9,0,0,0-.966.882,3.988,3.988,0,0,0-.378,1.946v.42H69.8a5.348,5.348,0,0,1,.938-3.458,3.877,3.877,0,0,1,3.15-1.134,3.108,3.108,0,0,1,2.856,1.288,8.116,8.116,0,0,1,.812,4.172v8.148q0,.224.014.854T77.6-.756A7.106,7.106,0,0,0,77.644,0H76.356q-.056-.588-.14-1.232T76.1-2.156a3.762,3.762,0,0,1-1.26,1.708A3.354,3.354,0,0,1,72.716.252ZM73.08-.98A2.482,2.482,0,0,0,74.34-1.3a3.9,3.9,0,0,0,1.008-.84,4.924,4.924,0,0,0,.728-1.106v-5.32q-1.484.784-2.478,1.344A9.4,9.4,0,0,0,72.03-6.16,2.981,2.981,0,0,0,71.2-5.026,4.112,4.112,0,0,0,70.952-3.5a2.425,2.425,0,0,0,.672,1.988A2.3,2.3,0,0,0,73.08-.98ZM80.248,0V-16.184h1.484v1.736a6.226,6.226,0,0,1,1.736-1.442,4.247,4.247,0,0,1,2.1-.546,2.451,2.451,0,0,1,1.3.35,2.364,2.364,0,0,1,.91,1.12,5.228,5.228,0,0,1,.336,2.058V0H86.632V-12.74a3.187,3.187,0,0,0-.462-2.016,1.566,1.566,0,0,0-1.246-.532,3.192,3.192,0,0,0-1.638.49,6.666,6.666,0,0,0-1.554,1.3V0ZM94.892,5.488a11.422,11.422,0,0,1-2.856-.308,3.631,3.631,0,0,1-1.778-.952,2.248,2.248,0,0,1-.6-1.6,2.937,2.937,0,0,1,.434-1.554A5.486,5.486,0,0,1,91.182-.21a6.946,6.946,0,0,1,1.358-.938,3.807,3.807,0,0,1-1.5-.686A1.4,1.4,0,0,1,90.58-2.94a2.284,2.284,0,0,1,.56-1.47A11.214,11.214,0,0,1,92.6-5.852,4.485,4.485,0,0,1,90.93-8.036a8.478,8.478,0,0,1-.462-2.828,7.623,7.623,0,0,1,.462-2.618A4.9,4.9,0,0,1,92.386-15.6a3.876,3.876,0,0,1,2.59-.84,3.566,3.566,0,0,1,2.31.672A5.1,5.1,0,0,1,98.56-14.28a4.315,4.315,0,0,1,.9-1.106,3.544,3.544,0,0,1,1.288-.8l.392-.14.42,1.12a4.507,4.507,0,0,0-.98.364,5.712,5.712,0,0,0-.924.574,3.764,3.764,0,0,0-.7.686,6.727,6.727,0,0,1,.378,1.386,8.09,8.09,0,0,1,.154,1.358,8.74,8.74,0,0,1-.448,2.884,4.286,4.286,0,0,1-1.428,2.044,4.1,4.1,0,0,1-2.576.756,5.555,5.555,0,0,1-.938-.084,4.74,4.74,0,0,1-.8-.2,12.045,12.045,0,0,0-.98,1.106,1.82,1.82,0,0,0-.448,1.106.764.764,0,0,0,.322.672,2.819,2.819,0,0,0,1.022.364l2.632.476A7.481,7.481,0,0,1,98.966-.5,2.816,2.816,0,0,1,100.1,1.9a2.935,2.935,0,0,1-.728,2.058,4.19,4.19,0,0,1-1.9,1.162A8.678,8.678,0,0,1,94.892,5.488Zm0-1.2a6.345,6.345,0,0,0,2.8-.56A1.87,1.87,0,0,0,98.84,1.932,2.143,2.143,0,0,0,98.574.868a2.222,2.222,0,0,0-1.022-.84,8.858,8.858,0,0,0-2.268-.616L93.52-.9a12.25,12.25,0,0,0-1.078.728,5.09,5.09,0,0,0-1.05,1.05,2.26,2.26,0,0,0-.448,1.386,1.6,1.6,0,0,0,1.022,1.54A7.137,7.137,0,0,0,94.892,4.284Zm.14-10.528a2.69,2.69,0,0,0,1.652-.462,2.861,2.861,0,0,0,.924-1.176,5.484,5.484,0,0,0,.406-1.512,12.126,12.126,0,0,0,.1-1.47,8.808,8.808,0,0,0-.126-1.414,5.392,5.392,0,0,0-.462-1.47,3.053,3.053,0,0,0-.938-1.148A2.585,2.585,0,0,0,95-15.344a2.536,2.536,0,0,0-1.6.476,3.308,3.308,0,0,0-.966,1.2,5.5,5.5,0,0,0-.476,1.484,8.15,8.15,0,0,0-.126,1.316,10.466,10.466,0,0,0,.112,1.442A5.419,5.419,0,0,0,92.4-7.9a3.016,3.016,0,0,0,.966,1.19A2.753,2.753,0,0,0,95.032-6.244Zm11.032,6.5a4.456,4.456,0,0,1-2.212-.518,3.322,3.322,0,0,1-1.414-1.876,11.826,11.826,0,0,1-.49-3.85V-10.3a11.351,11.351,0,0,1,.5-3.864,3.148,3.148,0,0,1,1.442-1.792,4.8,4.8,0,0,1,2.2-.476,3.916,3.916,0,0,1,2.38.644,3.555,3.555,0,0,1,1.232,2.058A15.5,15.5,0,0,1,110.068-10v1.54h-6.636V-5.88a13.409,13.409,0,0,0,.266,3.024,2.652,2.652,0,0,0,.854,1.54,2.426,2.426,0,0,0,1.512.448,3.7,3.7,0,0,0,1.176-.2,1.793,1.793,0,0,0,.98-.924,4.99,4.99,0,0,0,.392-2.268v-1.2h1.456V-4.4a5.979,5.979,0,0,1-.854,3.36A3.5,3.5,0,0,1,106.064.252Zm-2.632-9.6h5.18v-1.26a17.559,17.559,0,0,0-.154-2.506,2.961,2.961,0,0,0-.686-1.624,2.191,2.191,0,0,0-1.68-.574,2.767,2.767,0,0,0-1.5.378,2.274,2.274,0,0,0-.882,1.4,11.856,11.856,0,0,0-.28,2.954ZM-96.95,34V18.852h-2.184V17.816h2.184V15.632A10.213,10.213,0,0,1-96.8,13.77a2.23,2.23,0,0,1,.714-1.316,2.637,2.637,0,0,1,1.764-.49,7.1,7.1,0,0,1,.756.042,3.465,3.465,0,0,1,.728.154v1.12a3.808,3.808,0,0,0-.6-.126,4.49,4.49,0,0,0-.574-.042q-.952,0-1.2.588a5.215,5.215,0,0,0-.252,1.9v2.212h2.716v1.036h-2.716V34Zm5.936,0V17.816h1.484V20a4.7,4.7,0,0,1,1.806-1.778,4.342,4.342,0,0,1,2.03-.574h.126a.491.491,0,0,1,.154.028v1.54a.8.8,0,0,0-.294-.07q-.182-.014-.322-.014a3.8,3.8,0,0,0-2,.532,4.476,4.476,0,0,0-1.5,1.54V34Zm11,.252a3.9,3.9,0,0,1-2.478-.7A3.715,3.715,0,0,1-83.72,31.48a13.942,13.942,0,0,1-.35-3.388V23.724a13.942,13.942,0,0,1,.35-3.388,3.715,3.715,0,0,1,1.232-2.072,3.9,3.9,0,0,1,2.478-.7,3.946,3.946,0,0,1,2.506.7,3.708,3.708,0,0,1,1.232,2.058,13.906,13.906,0,0,1,.35,3.4v4.368a13.942,13.942,0,0,1-.35,3.388A3.715,3.715,0,0,1-77.5,33.552,3.946,3.946,0,0,1-80.01,34.252Zm0-1.12a2.265,2.265,0,0,0,1.736-.6,3.08,3.08,0,0,0,.714-1.722,19.846,19.846,0,0,0,.154-2.66v-4.48a19.774,19.774,0,0,0-.154-2.674,3.063,3.063,0,0,0-.714-1.708,2.265,2.265,0,0,0-1.736-.6,2.218,2.218,0,0,0-1.722.6,3.123,3.123,0,0,0-.7,1.708,19.774,19.774,0,0,0-.154,2.674v4.48a19.844,19.844,0,0,0,.154,2.66,3.141,3.141,0,0,0,.7,1.722A2.218,2.218,0,0,0-80.01,33.132ZM-73.4,34V17.816H-72v1.708a5.8,5.8,0,0,1,1.764-1.47,4.317,4.317,0,0,1,2.044-.518,2.822,2.822,0,0,1,1.526.448,2.556,2.556,0,0,1,.994,1.708,6.069,6.069,0,0,1,1.82-1.6,4.318,4.318,0,0,1,2.128-.56,2.844,2.844,0,0,1,1.288.308A2.31,2.31,0,0,1-59.43,18.95a5.225,5.225,0,0,1,.392,2.254V34h-1.428V21.176a3.028,3.028,0,0,0-.5-2.072,1.676,1.676,0,0,0-1.232-.5,3.363,3.363,0,0,0-1.736.518A6.76,6.76,0,0,0-65.562,20.5a2.721,2.721,0,0,1,.042.322q.014.182.014.378V34h-1.428V21.176a3.028,3.028,0,0,0-.5-2.072,1.676,1.676,0,0,0-1.232-.5,3.32,3.32,0,0,0-1.708.518A7.062,7.062,0,0,0-72,20.476V34Zm26.46.252a2.97,2.97,0,0,1-1.778-.532,6.5,6.5,0,0,1-1.19-1.064V34h-1.484V11.32h1.484v7.868a5.061,5.061,0,0,1,1.218-1.106,3.309,3.309,0,0,1,1.89-.518,3.32,3.32,0,0,1,1.834.462,3.087,3.087,0,0,1,1.12,1.344,7.19,7.19,0,0,1,.56,2.114,22.256,22.256,0,0,1,.154,2.744v3.108a17.52,17.52,0,0,1-.35,3.808,4.491,4.491,0,0,1-1.176,2.324A3.181,3.181,0,0,1-46.942,34.252Zm-.2-1.148a1.982,1.982,0,0,0,1.568-.6,3.654,3.654,0,0,0,.728-1.876,21.925,21.925,0,0,0,.2-3.234V24.228a22.086,22.086,0,0,0-.182-3.15,3.4,3.4,0,0,0-.7-1.792,2.026,2.026,0,0,0-1.582-.574,2.736,2.736,0,0,0-1.624.518,7.944,7.944,0,0,0-1.176.994V31.648a5.106,5.106,0,0,0,1.19,1.008A2.917,2.917,0,0,0-47.138,33.1Zm9.212,1.148a3.193,3.193,0,0,1-1.708-.448,3.055,3.055,0,0,1-1.134-1.246,3.99,3.99,0,0,1-.406-1.834,5.536,5.536,0,0,1,.266-1.806,3.673,3.673,0,0,1,.966-1.442,10.268,10.268,0,0,1,2-1.414q1.3-.742,3.374-1.722V23.192a13.829,13.829,0,0,0-.21-2.744,2.325,2.325,0,0,0-.7-1.372,2.071,2.071,0,0,0-1.33-.392,3.431,3.431,0,0,0-1.232.224A1.9,1.9,0,0,0-39,19.79a3.988,3.988,0,0,0-.378,1.946v.42h-1.456A5.348,5.348,0,0,1-39.9,18.7a3.877,3.877,0,0,1,3.15-1.134,3.108,3.108,0,0,1,2.856,1.288,8.116,8.116,0,0,1,.812,4.172v8.148q0,.224.014.854t.028,1.218A7.107,7.107,0,0,0-33,34h-1.288q-.056-.588-.14-1.232t-.112-.924a3.762,3.762,0,0,1-1.26,1.708A3.354,3.354,0,0,1-37.926,34.252Zm.364-1.232A2.482,2.482,0,0,0-36.3,32.7a3.9,3.9,0,0,0,1.008-.84,4.924,4.924,0,0,0,.728-1.106v-5.32q-1.484.784-2.478,1.344a9.4,9.4,0,0,0-1.568,1.064,2.981,2.981,0,0,0-.826,1.134A4.112,4.112,0,0,0-39.69,30.5a2.425,2.425,0,0,0,.672,1.988A2.3,2.3,0,0,0-37.562,33.02Zm10.836,1.232a3.863,3.863,0,0,1-3.024-1.246,5.544,5.544,0,0,1-1.288-3.374l1.26-.364a4.976,4.976,0,0,0,.938,2.954,2.738,2.738,0,0,0,2.17.91,2.544,2.544,0,0,0,1.9-.686,2.665,2.665,0,0,0,.672-1.946,3.467,3.467,0,0,0-.574-1.806,8.509,8.509,0,0,0-1.806-1.974l-1.876-1.6a8.423,8.423,0,0,1-1.764-1.974,4.1,4.1,0,0,1-.56-2.142,3.538,3.538,0,0,1,.462-1.876,3.05,3.05,0,0,1,1.288-1.162,4.3,4.3,0,0,1,1.918-.406,3.232,3.232,0,0,1,2.716,1.148,5.126,5.126,0,0,1,.952,3.08l-1.092.336a5.551,5.551,0,0,0-.35-2.016,2.273,2.273,0,0,0-.868-1.092,2.381,2.381,0,0,0-1.274-.336,2.608,2.608,0,0,0-1.722.546,1.972,1.972,0,0,0-.658,1.61,3.264,3.264,0,0,0,.35,1.554,6.179,6.179,0,0,0,1.3,1.526l1.932,1.708a18.553,18.553,0,0,1,1.4,1.316A6.459,6.459,0,0,1-23.212,28.5a4.431,4.431,0,0,1,.434,2.03,3.858,3.858,0,0,1-.49,2A3.291,3.291,0,0,1-24.64,33.8,4.553,4.553,0,0,1-26.726,34.252Zm9.744,0a4.456,4.456,0,0,1-2.212-.518,3.322,3.322,0,0,1-1.414-1.876,11.826,11.826,0,0,1-.49-3.85V23.7a11.351,11.351,0,0,1,.5-3.864,3.148,3.148,0,0,1,1.442-1.792,4.8,4.8,0,0,1,2.2-.476,3.916,3.916,0,0,1,2.38.644,3.555,3.555,0,0,1,1.232,2.058A15.5,15.5,0,0,1-12.978,24v1.54h-6.636V28.12a13.408,13.408,0,0,0,.266,3.024,2.652,2.652,0,0,0,.854,1.54,2.426,2.426,0,0,0,1.512.448,3.7,3.7,0,0,0,1.176-.2,1.793,1.793,0,0,0,.98-.924,4.99,4.99,0,0,0,.392-2.268v-1.2h1.456V29.6a5.979,5.979,0,0,1-.854,3.36A3.5,3.5,0,0,1-16.982,34.252Zm-2.632-9.6h5.18v-1.26a17.56,17.56,0,0,0-.154-2.506,2.961,2.961,0,0,0-.686-1.624,2.191,2.191,0,0,0-1.68-.574,2.767,2.767,0,0,0-1.5.378,2.274,2.274,0,0,0-.882,1.4,11.856,11.856,0,0,0-.28,2.954ZM-10.262,34V11.32h1.484V34Zm4.788,0V17.816h1.512V34Zm0-18.312V13.112h1.512v2.576ZM-.77,34V17.816H.714v1.736A6.226,6.226,0,0,1,2.45,18.11a4.247,4.247,0,0,1,2.1-.546,2.451,2.451,0,0,1,1.3.35,2.364,2.364,0,0,1,.91,1.12A5.228,5.228,0,0,1,7.1,21.092V34H5.614V21.26a3.187,3.187,0,0,0-.462-2.016,1.566,1.566,0,0,0-1.246-.532,3.192,3.192,0,0,0-1.638.49A6.666,6.666,0,0,0,.714,20.5V34Zm14.392.252a4.456,4.456,0,0,1-2.212-.518A3.322,3.322,0,0,1,10,31.858a11.826,11.826,0,0,1-.49-3.85V23.7a11.351,11.351,0,0,1,.5-3.864,3.148,3.148,0,0,1,1.442-1.792,4.8,4.8,0,0,1,2.2-.476,3.916,3.916,0,0,1,2.38.644,3.555,3.555,0,0,1,1.232,2.058A15.5,15.5,0,0,1,17.626,24v1.54H10.99V28.12a13.408,13.408,0,0,0,.266,3.024,2.652,2.652,0,0,0,.854,1.54,2.426,2.426,0,0,0,1.512.448,3.7,3.7,0,0,0,1.176-.2,1.793,1.793,0,0,0,.98-.924,4.99,4.99,0,0,0,.392-2.268v-1.2h1.456V29.6a5.979,5.979,0,0,1-.854,3.36A3.5,3.5,0,0,1,13.622,34.252Zm-2.632-9.6h5.18v-1.26a17.559,17.559,0,0,0-.154-2.506,2.961,2.961,0,0,0-.686-1.624,2.191,2.191,0,0,0-1.68-.574,2.767,2.767,0,0,0-1.5.378,2.274,2.274,0,0,0-.882,1.4,11.856,11.856,0,0,0-.28,2.954ZM30.03,34.28a5.477,5.477,0,0,1-2.954-.728,4.61,4.61,0,0,1-1.764-2.044A9.16,9.16,0,0,1,24.57,28.4l1.316-.42a13.035,13.035,0,0,0,.6,2.632,3.687,3.687,0,0,0,1.246,1.778,3.8,3.8,0,0,0,2.324.63,3.9,3.9,0,0,0,2.646-.84,3.542,3.542,0,0,0,.966-2.8,4.816,4.816,0,0,0-.77-2.674,15.466,15.466,0,0,0-2.17-2.562l-4.144-4.116A7.493,7.493,0,0,1,25.074,17.9a5.3,5.3,0,0,1-.476-2.184,4.316,4.316,0,0,1,1.386-3.444,5.289,5.289,0,0,1,3.6-1.2,6.817,6.817,0,0,1,2.072.294,4.08,4.08,0,0,1,1.61.952,4.468,4.468,0,0,1,1.078,1.75,10.139,10.139,0,0,1,.5,2.688l-1.288.308a9.041,9.041,0,0,0-.532-2.66,3.192,3.192,0,0,0-1.232-1.582A4.023,4.023,0,0,0,29.61,12.3a4.146,4.146,0,0,0-2.576.784A2.957,2.957,0,0,0,26,15.6a4.2,4.2,0,0,0,.35,1.68,5.973,5.973,0,0,0,1.3,1.764l4.088,4.032A17.026,17.026,0,0,1,34.1,25.95,6.007,6.007,0,0,1,35.1,29.3a5.532,5.532,0,0,1-.644,2.814,3.954,3.954,0,0,1-1.792,1.638A6.194,6.194,0,0,1,30.03,34.28ZM37.786,34V11.32h5.32a5.684,5.684,0,0,1,3.192.77,4.07,4.07,0,0,1,1.61,2.086,9.017,9.017,0,0,1,.462,3,8.976,8.976,0,0,1-.462,2.884A4.576,4.576,0,0,1,46.3,22.3a5.138,5.138,0,0,1-3.164.868H39.3V34ZM39.3,21.988h3.5a4.72,4.72,0,0,0,2.254-.476,2.929,2.929,0,0,0,1.316-1.526,7.512,7.512,0,0,0,.434-2.814,8.2,8.2,0,0,0-.392-2.842A2.464,2.464,0,0,0,45.15,12.9a5.553,5.553,0,0,0-2.324-.406H39.3ZM51,34V11.32h4.956a6.16,6.16,0,0,1,3.528.868A4.557,4.557,0,0,1,61.25,14.54a10.229,10.229,0,0,1,.5,3.3v9.408a11,11,0,0,1-.5,3.458,4.7,4.7,0,0,1-1.722,2.408A5.77,5.77,0,0,1,56.1,34Zm1.512-1.2h3.5a4.081,4.081,0,0,0,2.744-.784,3.72,3.72,0,0,0,1.176-2.086,13.523,13.523,0,0,0,.28-2.842V17.956a10.865,10.865,0,0,0-.336-2.87,3.288,3.288,0,0,0-1.26-1.876,4.55,4.55,0,0,0-2.66-.658H52.514Zm22.008,5.32a3.515,3.515,0,0,1-2.072-.826,4.656,4.656,0,0,1-1.26-1.918,12.894,12.894,0,0,1-.658-2.842A34.379,34.379,0,0,1,70.28,28.9q-.042-1.988-.042-4.228,0-2.268.042-4.284a35.512,35.512,0,0,1,.252-3.682,13.177,13.177,0,0,1,.658-2.884,4.427,4.427,0,0,1,1.26-1.9,3.341,3.341,0,0,1,2.072-.742v1.092a2.183,2.183,0,0,0-1.652,1.134,7.439,7.439,0,0,0-.84,2.66,29.962,29.962,0,0,0-.294,3.864q-.042,2.2-.042,4.746t.042,4.746a29.6,29.6,0,0,0,.294,3.85,7.625,7.625,0,0,0,.826,2.646,2.16,2.16,0,0,0,1.666,1.134ZM79.394,34,87.15,11.04h1.344L80.794,34Zm-.308-11.676a2.379,2.379,0,0,1-2.254-1.092,5.426,5.426,0,0,1-.63-2.744V14.512a5.087,5.087,0,0,1,.644-2.716,2.426,2.426,0,0,1,2.24-1.036,2.362,2.362,0,0,1,2.2,1.036,5.116,5.116,0,0,1,.63,2.688v4.032a5.446,5.446,0,0,1-.616,2.73A2.327,2.327,0,0,1,79.086,22.324Zm0-1.176a1.192,1.192,0,0,0,.882-.322,1.859,1.859,0,0,0,.462-.9,5.786,5.786,0,0,0,.14-1.358V14.456a4.367,4.367,0,0,0-.322-1.834,1.172,1.172,0,0,0-1.162-.686,1.191,1.191,0,0,0-1.19.7,4.386,4.386,0,0,0-.322,1.82v4.116a5.786,5.786,0,0,0,.14,1.358,1.8,1.8,0,0,0,.476.9A1.241,1.241,0,0,0,79.086,21.148ZM88.8,34.168a2.355,2.355,0,0,1-2.24-1.078,5.446,5.446,0,0,1-.616-2.73V26.384a5.177,5.177,0,0,1,.63-2.716,2.907,2.907,0,0,1,4.438-.014,5.012,5.012,0,0,1,.644,2.7v4.032a5.366,5.366,0,0,1-.616,2.716A2.365,2.365,0,0,1,88.8,34.168Zm0-1.148a1.192,1.192,0,0,0,.882-.322,1.859,1.859,0,0,0,.462-.9,5.787,5.787,0,0,0,.14-1.358V26.328a4.367,4.367,0,0,0-.322-1.834,1.172,1.172,0,0,0-1.162-.686,1.194,1.194,0,0,0-1.19.686,4.367,4.367,0,0,0-.322,1.834v4.116a5.786,5.786,0,0,0,.14,1.358,1.8,1.8,0,0,0,.476.9A1.241,1.241,0,0,0,88.8,33.02Zm4.536,5.1V37.052a2.183,2.183,0,0,0,1.652-1.134,7.439,7.439,0,0,0,.84-2.66,29.962,29.962,0,0,0,.294-3.864q.042-2.2.042-4.746T96.124,19.9a29.6,29.6,0,0,0-.294-3.85,7.419,7.419,0,0,0-.84-2.646,2.183,2.183,0,0,0-1.652-1.134V11.18a3.341,3.341,0,0,1,2.072.742,4.533,4.533,0,0,1,1.274,1.9,12.612,12.612,0,0,1,.672,2.87,35.045,35.045,0,0,1,.252,3.668q.042,2.016.042,4.284,0,2.24-.042,4.228a34.842,34.842,0,0,1-.252,3.64,12.364,12.364,0,0,1-.672,2.856A4.772,4.772,0,0,1,95.41,37.29,3.515,3.515,0,0,1,93.338,38.116Z" transform="translate(338 1849.31) rotate(-90)" fill="#823695"/>
  </g>
</svg>
