<svg xmlns="http://www.w3.org/2000/svg" width="658.823" height="302.488" viewBox="0 0 658.823 302.488">
  <g id="Group_1794" data-name="Group 1794" transform="translate(-423 -2662)">
    <g id="Group_67" data-name="Group 67" transform="translate(-9341.178 -8099)">
      <path id="Path_571" data-name="Path 571" d="M636.839,232.309V266.9a116.782,116.782,0,1,1-107.985,68.135l-31.5-14.413a151.275,151.275,0,1,0,139.49-88.314" transform="translate(9280.522 10528.704)" fill="#823695"/>
      <path id="Path_572" data-name="Path 572" d="M624.037,232.3a151.222,151.222,0,0,0-133.993,84.857l31.5,14.408c.509-1.011,1.016-2.027,1.552-3.027.255-.473.516-.939.776-1.408q.894-1.611,1.838-3.193c.247-.416.49-.833.742-1.247q1.272-2.068,2.621-4.086c.235-.346.48-.687.716-1.031q1.081-1.571,2.212-3.106.479-.656.968-1.3,1.258-1.657,2.57-3.269c.178-.219.351-.444.531-.663,1.035-1.249,2.1-2.474,3.188-3.678.341-.38.689-.752,1.035-1.127q1.25-1.355,2.546-2.671c.341-.346.677-.694,1.021-1.035q1.73-1.715,3.529-3.365c.255-.231.519-.456.776-.687q1.492-1.337,3.024-2.621.605-.5,1.213-1,1.582-1.29,3.212-2.527c.252-.19.5-.387.75-.574,1.312-.98,2.65-1.927,4-2.851.392-.267.788-.524,1.184-.788q1.579-1.049,3.193-2.049c.406-.25.812-.507,1.22-.754,1.415-.85,2.847-1.682,4.3-2.472.224-.122.454-.238.68-.358q1.9-1.02,3.834-1.967c.454-.223.908-.44,1.364-.656q1.852-.879,3.74-1.694c.312-.135.622-.279.937-.411q2.31-.973,4.672-1.847c.408-.151.824-.291,1.235-.44q1.859-.667,3.747-1.271c.459-.147.917-.3,1.379-.437,1.624-.5,3.262-.973,4.915-1.4l.413-.1q2.3-.584,4.638-1.071c.488-.1.978-.2,1.468-.3q2.043-.4,4.11-.735c.375-.06.745-.127,1.119-.183q2.565-.389,5.167-.661c.411-.043.824-.074,1.232-.113q2.083-.195,4.187-.317c.5-.031.995-.06,1.494-.084,1.143-.053,2.294-.062,3.442-.086Z" transform="translate(9289.48 10528.696)" fill="rgba(99,102,107,0.4)"/>
      <rect id="Rectangle_230" data-name="Rectangle 230" width="658.821" height="302.487" transform="translate(9764.179 10761)" fill="none"/>
      <path id="Path_573" data-name="Path 573" d="M780.729,232.332A151.15,151.15,0,0,0,655.6,463.921l28.9-19.1a116.506,116.506,0,0,1,96.234-177.888Z" transform="translate(9489.092 10528.736)" fill="rgba(99,102,107,0.4)"/>
      <path id="Path_574" data-name="Path 574" d="M769.815,232.318v34.563a116.658,116.658,0,1,1-98,181.192l-28.889,19.1A150.879,150.879,0,1,0,769.815,232.318" transform="translate(9503.85 10528.717)" fill="#823695"/>
      <rect id="Rectangle_231" data-name="Rectangle 231" width="658.821" height="302.487" transform="translate(9764.179 10761)" fill="none"/>
    </g>
    <path id="Path_3219" data-name="Path 3219" d="M9.5.418A7.13,7.13,0,0,1,5.377-.646,5.935,5.935,0,0,1,3.154-3.61,12.992,12.992,0,0,1,2.47-8.018a12.634,12.634,0,0,1,.456-3.724,6.431,6.431,0,0,1,1.2-2.3A5.756,5.756,0,0,1,5.7-15.352a17.313,17.313,0,0,1,1.558-.76,5.98,5.98,0,0,1-3.306-2.432A8.669,8.669,0,0,1,2.7-23.522a11.25,11.25,0,0,1,.627-3.857,5.443,5.443,0,0,1,2.128-2.736A7.169,7.169,0,0,1,9.5-31.122,6.88,6.88,0,0,1,13.509-30.1a5.61,5.61,0,0,1,2.09,2.774,11.533,11.533,0,0,1,.627,3.914,8.413,8.413,0,0,1-1.235,4.883A6.167,6.167,0,0,1,11.7-16.112a17.314,17.314,0,0,1,1.558.76,5.512,5.512,0,0,1,1.558,1.311,6.86,6.86,0,0,1,1.2,2.3,12.159,12.159,0,0,1,.475,3.724,12.992,12.992,0,0,1-.684,4.408A5.935,5.935,0,0,1,13.585-.646,7.056,7.056,0,0,1,9.5.418Zm0-1.634a5.2,5.2,0,0,0,2.641-.646A4.162,4.162,0,0,0,13.87-4.009a11.019,11.019,0,0,0,.608-4.047,11.874,11.874,0,0,0-.494-3.648,5.19,5.19,0,0,0-1.577-2.432,5.246,5.246,0,0,0-2.907-1.1,5.453,5.453,0,0,0-2.945,1.1A5.067,5.067,0,0,0,4.94-11.7a11.874,11.874,0,0,0-.494,3.648,10.716,10.716,0,0,0,.627,4.047A4.219,4.219,0,0,0,6.84-1.862,5.3,5.3,0,0,0,9.5-1.216Zm0-15.77a4.921,4.921,0,0,0,2.812-.931,4.55,4.55,0,0,0,1.482-2.242,10.791,10.791,0,0,0,.456-3.287,7.092,7.092,0,0,0-1.178-4.541A4.367,4.367,0,0,0,9.5-29.412a4.414,4.414,0,0,0-3.61,1.425,7.092,7.092,0,0,0-1.178,4.541,11.228,11.228,0,0,0,.437,3.287,4.34,4.34,0,0,0,1.5,2.242A5.119,5.119,0,0,0,9.5-16.986ZM20.71,0V-1.52l8.55-13q.95-1.444,1.786-2.831A14.759,14.759,0,0,0,32.4-20.254a10.659,10.659,0,0,0,.513-3.42,6.657,6.657,0,0,0-1.2-4.218,4.161,4.161,0,0,0-3.477-1.52,5.443,5.443,0,0,0-3.325.874,4.441,4.441,0,0,0-1.6,2.432,14.263,14.263,0,0,0-.475,3.572v.494H20.862v-.608a12.716,12.716,0,0,1,.76-4.731A5.505,5.505,0,0,1,24-30.191a8.261,8.261,0,0,1,4.161-.931,6.2,6.2,0,0,1,5.054,2.052,8.648,8.648,0,0,1,1.71,5.7,10.258,10.258,0,0,1-.57,3.439,18.256,18.256,0,0,1-1.444,3.116q-.874,1.5-1.824,2.945L23.028-1.71H34.314V0ZM39.444,0V-3.952h2.242V0ZM45.41,0V-1.52l8.55-13q.95-1.444,1.786-2.831A14.759,14.759,0,0,0,57.1-20.254a10.659,10.659,0,0,0,.513-3.42,6.657,6.657,0,0,0-1.2-4.218,4.161,4.161,0,0,0-3.477-1.52,5.443,5.443,0,0,0-3.325.874,4.441,4.441,0,0,0-1.6,2.432,14.263,14.263,0,0,0-.475,3.572v.494H45.562v-.608a12.716,12.716,0,0,1,.76-4.731A5.505,5.505,0,0,1,48.7-30.191a8.261,8.261,0,0,1,4.161-.931,6.2,6.2,0,0,1,5.054,2.052,8.648,8.648,0,0,1,1.71,5.7,10.258,10.258,0,0,1-.57,3.439,18.255,18.255,0,0,1-1.444,3.116q-.874,1.5-1.824,2.945L47.728-1.71H59.014V0ZM67.564,0,78.09-31.16h1.824L69.464,0Zm-.418-15.846a3.228,3.228,0,0,1-3.059-1.482,7.364,7.364,0,0,1-.855-3.724v-5.4a6.9,6.9,0,0,1,.874-3.686,3.292,3.292,0,0,1,3.04-1.406,3.205,3.205,0,0,1,2.983,1.406,6.943,6.943,0,0,1,.855,3.648v5.472a7.391,7.391,0,0,1-.836,3.7A3.158,3.158,0,0,1,67.146-15.846Zm0-1.6a1.617,1.617,0,0,0,1.2-.437,2.523,2.523,0,0,0,.627-1.216,7.853,7.853,0,0,0,.19-1.843v-5.586a5.926,5.926,0,0,0-.437-2.489,1.59,1.59,0,0,0-1.577-.931,1.617,1.617,0,0,0-1.615.95,5.952,5.952,0,0,0-.437,2.47v5.586a7.853,7.853,0,0,0,.19,1.843,2.438,2.438,0,0,0,.646,1.216A1.684,1.684,0,0,0,67.146-17.442ZM80.332.228a3.2,3.2,0,0,1-3.04-1.463,7.391,7.391,0,0,1-.836-3.705v-5.4a7.026,7.026,0,0,1,.855-3.686,3.245,3.245,0,0,1,3.021-1.406,3.268,3.268,0,0,1,3,1.387,6.8,6.8,0,0,1,.874,3.667V-4.9a7.283,7.283,0,0,1-.836,3.686A3.209,3.209,0,0,1,80.332.228Zm0-1.558a1.617,1.617,0,0,0,1.2-.437,2.523,2.523,0,0,0,.627-1.216,7.853,7.853,0,0,0,.19-1.843v-5.586a5.927,5.927,0,0,0-.437-2.489,1.59,1.59,0,0,0-1.577-.931,1.621,1.621,0,0,0-1.615.931,5.927,5.927,0,0,0-.437,2.489v5.586a7.853,7.853,0,0,0,.19,1.843,2.438,2.438,0,0,0,.646,1.216A1.684,1.684,0,0,0,80.332-1.33Z" transform="translate(525 2839)" fill="#823695"/>
    <path id="Path_3220" data-name="Path 3220" d="M9.5.418A6.657,6.657,0,0,1,5.567-.646,6.1,6.1,0,0,1,3.363-3.8a16.379,16.379,0,0,1-.7-5.168V-22.382a13.923,13.923,0,0,1,.7-4.693,6,6,0,0,1,2.2-3,6.675,6.675,0,0,1,3.9-1.045,7.976,7.976,0,0,1,3.724.76,4.757,4.757,0,0,1,2.147,2.28,9.261,9.261,0,0,1,.7,3.876q0,.038,0,.361t0,.361H14.1q0-3.382-1.064-4.674a4.183,4.183,0,0,0-3.42-1.292,5.411,5.411,0,0,0-2.489.57,4.033,4.033,0,0,0-1.786,2.014A9.972,9.972,0,0,0,4.674-22.8v6.5a13.059,13.059,0,0,1,2.185-1.064,8.16,8.16,0,0,1,3.059-.57,7.724,7.724,0,0,1,3.971.874,4.808,4.808,0,0,1,2.071,2.907,20.2,20.2,0,0,1,.608,5.567,14.833,14.833,0,0,1-.7,4.864A6.017,6.017,0,0,1,13.623-.646,7.13,7.13,0,0,1,9.5.418Zm0-1.71a5.753,5.753,0,0,0,2.736-.589,3.824,3.824,0,0,0,1.691-2.128,12.5,12.5,0,0,0,.589-4.313A24.077,24.077,0,0,0,14.155-13a3.976,3.976,0,0,0-1.425-2.527A5.469,5.469,0,0,0,9.5-16.3a6.887,6.887,0,0,0-1.862.266,12.258,12.258,0,0,0-1.748.627,7.153,7.153,0,0,0-1.216.665v5.738a15.763,15.763,0,0,0,.551,4.693A4.117,4.117,0,0,0,6.859-1.957,4.955,4.955,0,0,0,9.5-1.292ZM27.664.342a7.006,7.006,0,0,1-3.7-.874,5.07,5.07,0,0,1-2.09-2.641A12.425,12.425,0,0,1,21.2-7.524H23.18a11.589,11.589,0,0,0,.456,3.553,3.723,3.723,0,0,0,1.482,2.052,4.814,4.814,0,0,0,2.66.665,4.324,4.324,0,0,0,2.85-.855,4.816,4.816,0,0,0,1.463-2.66,20.35,20.35,0,0,0,.437-4.655,19.288,19.288,0,0,0-.513-5.035,4.4,4.4,0,0,0-1.558-2.527,4.472,4.472,0,0,0-2.6-.722,4.9,4.9,0,0,0-2.28.57,5.71,5.71,0,0,0-2.052,2.014H21.888V-30.78H33.06l-.038,1.748H23.6l-.076,11.97a5.913,5.913,0,0,1,1.824-1.558,6,6,0,0,1,3.04-.684A5.379,5.379,0,0,1,31.9-18.2a6.351,6.351,0,0,1,1.976,3.249A19.343,19.343,0,0,1,34.5-9.614a21.563,21.563,0,0,1-.4,4.427,8.542,8.542,0,0,1-1.254,3.116A5.245,5.245,0,0,1,30.723-.247,7.241,7.241,0,0,1,27.664.342ZM38.874,0V-3.952h2.242V0ZM52.516.418a8.216,8.216,0,0,1-3.762-.76,4.785,4.785,0,0,1-2.2-2.318,9.207,9.207,0,0,1-.722-3.876V-7.22h1.938q0,3.382,1.064,4.674t3.724,1.292a4.931,4.931,0,0,0,2.432-.57,3.759,3.759,0,0,0,1.6-2.014,11.469,11.469,0,0,0,.57-4.066v-6.5a7.663,7.663,0,0,1-1.881,1.064,8.5,8.5,0,0,1-3.363.57,7.617,7.617,0,0,1-3.952-.874,4.916,4.916,0,0,1-2.071-2.926,19.828,19.828,0,0,1-.627-5.586A14.306,14.306,0,0,1,45.98-27a6.041,6.041,0,0,1,2.3-3.059A7.242,7.242,0,0,1,52.4-31.122a6.568,6.568,0,0,1,3.914,1.064,6.047,6.047,0,0,1,2.166,3.135,16.764,16.764,0,0,1,.684,5.187V-8.322A14.7,14.7,0,0,1,58.5-3.648,5.929,5.929,0,0,1,56.392-.627,6.478,6.478,0,0,1,52.516.418ZM52.364-14.4a7.352,7.352,0,0,0,2.983-.532,8.25,8.25,0,0,0,1.805-1.026V-21.7a16.261,16.261,0,0,0-.532-4.712,4.108,4.108,0,0,0-1.577-2.337,4.834,4.834,0,0,0-2.641-.665,5.465,5.465,0,0,0-2.736.646,4.044,4.044,0,0,0-1.729,2.185,12.08,12.08,0,0,0-.589,4.2,25.383,25.383,0,0,0,.342,4.674,3.869,3.869,0,0,0,1.425,2.527A5.562,5.562,0,0,0,52.364-14.4ZM67.45,0,77.976-31.16H79.8L69.35,0Zm-.418-15.846a3.228,3.228,0,0,1-3.059-1.482,7.364,7.364,0,0,1-.855-3.724v-5.4a6.9,6.9,0,0,1,.874-3.686,3.292,3.292,0,0,1,3.04-1.406,3.205,3.205,0,0,1,2.983,1.406,6.943,6.943,0,0,1,.855,3.648v5.472a7.391,7.391,0,0,1-.836,3.7A3.158,3.158,0,0,1,67.032-15.846Zm0-1.6a1.617,1.617,0,0,0,1.2-.437,2.523,2.523,0,0,0,.627-1.216,7.853,7.853,0,0,0,.19-1.843v-5.586a5.926,5.926,0,0,0-.437-2.489,1.59,1.59,0,0,0-1.577-.931,1.617,1.617,0,0,0-1.615.95,5.952,5.952,0,0,0-.437,2.47v5.586a7.853,7.853,0,0,0,.19,1.843,2.438,2.438,0,0,0,.646,1.216A1.684,1.684,0,0,0,67.032-17.442ZM80.218.228a3.2,3.2,0,0,1-3.04-1.463,7.391,7.391,0,0,1-.836-3.705v-5.4a7.026,7.026,0,0,1,.855-3.686,3.245,3.245,0,0,1,3.021-1.406,3.268,3.268,0,0,1,3,1.387,6.8,6.8,0,0,1,.874,3.667V-4.9a7.283,7.283,0,0,1-.836,3.686A3.209,3.209,0,0,1,80.218.228Zm0-1.558a1.617,1.617,0,0,0,1.2-.437,2.523,2.523,0,0,0,.627-1.216,7.853,7.853,0,0,0,.19-1.843v-5.586a5.927,5.927,0,0,0-.437-2.489,1.59,1.59,0,0,0-1.577-.931A1.621,1.621,0,0,0,78.6-12.9a5.927,5.927,0,0,0-.437,2.489v5.586a7.853,7.853,0,0,0,.19,1.843A2.438,2.438,0,0,0,79-1.767,1.684,1.684,0,0,0,80.218-1.33Z" transform="translate(880 2839)" fill="#823695"/>
    <path id="Path_3218" data-name="Path 3218" d="M4.5.2a3.153,3.153,0,0,1-1.863-.5A2.891,2.891,0,0,1,1.593-1.8,7.759,7.759,0,0,1,1.26-4.248V-10.6a6.6,6.6,0,0,1,.333-2.223,2.844,2.844,0,0,1,1.044-1.422,3.162,3.162,0,0,1,1.845-.5,3.778,3.778,0,0,1,1.764.36A2.253,2.253,0,0,1,7.263-13.3,4.387,4.387,0,0,1,7.6-11.466q0,.018,0,.171t0,.171H6.678a3.592,3.592,0,0,0-.5-2.214,1.981,1.981,0,0,0-1.62-.612,2.563,2.563,0,0,0-1.179.27,1.91,1.91,0,0,0-.846.954A4.724,4.724,0,0,0,2.214-10.8v3.078a6.186,6.186,0,0,1,1.035-.5A3.865,3.865,0,0,1,4.7-8.5a3.659,3.659,0,0,1,1.881.414A2.277,2.277,0,0,1,7.56-6.705a9.569,9.569,0,0,1,.288,2.637,7.026,7.026,0,0,1-.333,2.3A2.85,2.85,0,0,1,6.453-.306,3.377,3.377,0,0,1,4.5.2Zm0-.81A2.725,2.725,0,0,0,5.8-.891,1.811,1.811,0,0,0,6.6-1.9a5.921,5.921,0,0,0,.279-2.043,11.4,11.4,0,0,0-.171-2.214,1.883,1.883,0,0,0-.675-1.2A2.591,2.591,0,0,0,4.5-7.722a3.262,3.262,0,0,0-.882.126,5.807,5.807,0,0,0-.828.3,3.388,3.388,0,0,0-.576.315v2.718a7.467,7.467,0,0,0,.261,2.223A1.95,1.95,0,0,0,3.249-.927,2.347,2.347,0,0,0,4.5-.612Zm5.274-5.13v-.792h3.708v.792ZM15.336,0V-10.4h.9v1.1a3.727,3.727,0,0,1,1.134-.945,2.776,2.776,0,0,1,1.314-.333,1.814,1.814,0,0,1,.981.288A1.643,1.643,0,0,1,20.3-9.2a3.9,3.9,0,0,1,1.17-1.026,2.776,2.776,0,0,1,1.368-.36,1.829,1.829,0,0,1,.828.2,1.485,1.485,0,0,1,.648.711,3.359,3.359,0,0,1,.252,1.449V0h-.918V-8.244a1.946,1.946,0,0,0-.324-1.332,1.077,1.077,0,0,0-.792-.324,2.162,2.162,0,0,0-1.116.333,4.346,4.346,0,0,0-1.044.891,1.749,1.749,0,0,1,.027.207q.009.117.009.243V0h-.918V-8.244a1.946,1.946,0,0,0-.324-1.332,1.077,1.077,0,0,0-.792-.324,2.134,2.134,0,0,0-1.1.333,4.54,4.54,0,0,0-1.044.873V0Zm13.77.162a2.5,2.5,0,0,1-1.593-.45,2.388,2.388,0,0,1-.792-1.332A8.963,8.963,0,0,1,26.5-3.8V-6.606a8.963,8.963,0,0,1,.225-2.178,2.388,2.388,0,0,1,.792-1.332,2.5,2.5,0,0,1,1.593-.45,2.536,2.536,0,0,1,1.611.45,2.383,2.383,0,0,1,.792,1.323,8.94,8.94,0,0,1,.225,2.187V-3.8a8.963,8.963,0,0,1-.225,2.178,2.388,2.388,0,0,1-.792,1.332A2.536,2.536,0,0,1,29.106.162Zm0-.72a1.456,1.456,0,0,0,1.116-.387,1.98,1.98,0,0,0,.459-1.107,12.757,12.757,0,0,0,.1-1.71v-2.88a12.712,12.712,0,0,0-.1-1.719,1.969,1.969,0,0,0-.459-1.1,1.456,1.456,0,0,0-1.116-.387A1.426,1.426,0,0,0,28-9.459a2.008,2.008,0,0,0-.45,1.1,12.712,12.712,0,0,0-.1,1.719v2.88a12.757,12.757,0,0,0,.1,1.71A2.019,2.019,0,0,0,28-.945,1.426,1.426,0,0,0,29.106-.558ZM33.732,0V-10.4h.954v1.116a4,4,0,0,1,1.116-.927,2.73,2.73,0,0,1,1.35-.351,1.575,1.575,0,0,1,.837.225,1.52,1.52,0,0,1,.585.72A3.361,3.361,0,0,1,38.79-8.3V0h-.954V-8.19a2.049,2.049,0,0,0-.3-1.3,1.007,1.007,0,0,0-.8-.342,2.052,2.052,0,0,0-1.053.315,4.285,4.285,0,0,0-1,.837V0ZM43.2.108A1.706,1.706,0,0,1,42.12-.18a1.325,1.325,0,0,1-.468-.774,5.081,5.081,0,0,1-.108-1.1V-9.774H40.176v-.63h1.368v-3.33H42.5v3.33h1.764v.63H42.5v7.6A3.05,3.05,0,0,0,42.66-.99q.162.342.738.342a3,3,0,0,0,.387-.027q.207-.027.387-.063V0a3.414,3.414,0,0,1-.486.081Q43.416.108,43.2.108ZM45.792,0V-14.58h.954v5.274a4.107,4.107,0,0,1,1.134-.918,2.786,2.786,0,0,1,1.35-.342,1.575,1.575,0,0,1,.837.225,1.52,1.52,0,0,1,.585.72A3.361,3.361,0,0,1,50.868-8.3V0H49.9V-8.19a2.1,2.1,0,0,0-.288-1.3.98.98,0,0,0-.792-.342,2.1,2.1,0,0,0-1.062.315,4.2,4.2,0,0,0-1.008.837V0Zm11.07,0V-14.58h3.186a3.96,3.96,0,0,1,2.268.558A2.929,2.929,0,0,1,63.45-12.51a6.576,6.576,0,0,1,.324,2.124v6.048a7.073,7.073,0,0,1-.324,2.223A3.024,3.024,0,0,1,62.343-.567,3.709,3.709,0,0,1,60.138,0Zm.972-.774h2.25a2.623,2.623,0,0,0,1.764-.5A2.392,2.392,0,0,0,62.6-2.619a8.693,8.693,0,0,0,.18-1.827v-5.868a6.985,6.985,0,0,0-.216-1.845,2.114,2.114,0,0,0-.81-1.206,2.925,2.925,0,0,0-1.71-.423H57.834ZM69.606.2a3.709,3.709,0,0,1-2.2-.567,2.928,2.928,0,0,1-1.089-1.548,7.458,7.458,0,0,1-.306-2.223v-6.372a6.821,6.821,0,0,1,.324-2.2A2.886,2.886,0,0,1,67.437-14.2a3.777,3.777,0,0,1,2.169-.54,3.777,3.777,0,0,1,2.169.54,2.886,2.886,0,0,1,1.107,1.494,6.821,6.821,0,0,1,.324,2.2v6.39A7.368,7.368,0,0,1,72.9-1.908,2.929,2.929,0,0,1,71.811-.369,3.709,3.709,0,0,1,69.606.2Zm0-.81a2.7,2.7,0,0,0,1.611-.414A2.113,2.113,0,0,0,72-2.187a6.277,6.277,0,0,0,.216-1.737v-6.732A6.18,6.18,0,0,0,72-12.384a2.085,2.085,0,0,0-.774-1.143,2.736,2.736,0,0,0-1.62-.405,2.743,2.743,0,0,0-1.611.405,2.067,2.067,0,0,0-.783,1.143A6.18,6.18,0,0,0,67-10.656v6.732a6.277,6.277,0,0,0,.216,1.737,2.113,2.113,0,0,0,.783,1.161A2.7,2.7,0,0,0,69.606-.612ZM75.744,0V-14.58h3.528a3.491,3.491,0,0,1,1.989.477,2.42,2.42,0,0,1,.954,1.3,6,6,0,0,1,.261,1.827,6.839,6.839,0,0,1-.171,1.548,2.78,2.78,0,0,1-.63,1.251,2.209,2.209,0,0,1-1.341.657L82.674,0H81.7L79.434-7.344H76.716V0Zm.972-8.1h2.52a2.414,2.414,0,0,0,1.422-.351,1.812,1.812,0,0,0,.675-1,5.5,5.5,0,0,0,.189-1.53,3.947,3.947,0,0,0-.459-2.106,2.033,2.033,0,0,0-1.845-.72h-2.5ZM88.38,0V-10.4h.954V-9a3.024,3.024,0,0,1,1.161-1.143,2.791,2.791,0,0,1,1.305-.369h.081a.315.315,0,0,1,.1.018v.99a.514.514,0,0,0-.189-.045q-.117-.009-.207-.009a2.443,2.443,0,0,0-1.287.342,2.877,2.877,0,0,0-.963.99V0Zm6.786.162a2.053,2.053,0,0,1-1.1-.288,1.964,1.964,0,0,1-.729-.8,2.565,2.565,0,0,1-.261-1.179,3.559,3.559,0,0,1,.171-1.161,2.361,2.361,0,0,1,.621-.927A6.6,6.6,0,0,1,95.157-5.1q.837-.477,2.169-1.107v-.738a8.89,8.89,0,0,0-.135-1.764,1.494,1.494,0,0,0-.45-.882,1.331,1.331,0,0,0-.855-.252,2.206,2.206,0,0,0-.792.144,1.224,1.224,0,0,0-.621.567,2.564,2.564,0,0,0-.243,1.251v.27h-.936a3.438,3.438,0,0,1,.6-2.223,2.493,2.493,0,0,1,2.025-.729,2,2,0,0,1,1.836.828,5.218,5.218,0,0,1,.522,2.682v5.238q0,.144.009.549t.018.783A4.568,4.568,0,0,0,98.334,0h-.828q-.036-.378-.09-.792t-.072-.594a2.419,2.419,0,0,1-.81,1.1A2.156,2.156,0,0,1,95.166.162ZM95.4-.63a1.6,1.6,0,0,0,.81-.207,2.507,2.507,0,0,0,.648-.54,3.165,3.165,0,0,0,.468-.711v-3.42q-.954.5-1.593.864a6.045,6.045,0,0,0-1.008.684,1.917,1.917,0,0,0-.531.729,2.644,2.644,0,0,0-.162.981,1.559,1.559,0,0,0,.432,1.278A1.478,1.478,0,0,0,95.4-.63Zm7.236.738a1.706,1.706,0,0,1-1.08-.288,1.325,1.325,0,0,1-.468-.774,5.081,5.081,0,0,1-.108-1.1V-9.774H99.612v-.63h1.368v-3.33h.954v3.33H103.7v.63h-1.764v7.6A3.05,3.05,0,0,0,102.1-.99q.162.342.738.342a3,3,0,0,0,.387-.027q.207-.027.387-.063V0a3.414,3.414,0,0,1-.486.081Q102.852.108,102.636.108Zm5.04.054a2.864,2.864,0,0,1-1.422-.333,2.135,2.135,0,0,1-.909-1.206,7.6,7.6,0,0,1-.315-2.475V-6.624a7.3,7.3,0,0,1,.324-2.484,2.023,2.023,0,0,1,.927-1.152,3.084,3.084,0,0,1,1.413-.306,2.518,2.518,0,0,1,1.53.414,2.285,2.285,0,0,1,.792,1.323,9.966,9.966,0,0,1,.234,2.4v.99h-4.266V-3.78a8.619,8.619,0,0,0,.171,1.944,1.7,1.7,0,0,0,.549.99,1.559,1.559,0,0,0,.972.288,2.378,2.378,0,0,0,.756-.126,1.153,1.153,0,0,0,.63-.594,3.208,3.208,0,0,0,.252-1.458V-3.51h.936v.684a3.844,3.844,0,0,1-.549,2.16A2.253,2.253,0,0,1,107.676.162Zm-1.692-6.174h3.33v-.81a11.288,11.288,0,0,0-.1-1.611,1.9,1.9,0,0,0-.441-1.044,1.409,1.409,0,0,0-1.08-.369,1.779,1.779,0,0,0-.963.243,1.462,1.462,0,0,0-.567.9,7.622,7.622,0,0,0-.18,1.9Zm7.242.106a1.3,1.3,0,0,1-.782-.231,1.747,1.747,0,0,1-.52-.6,3.441,3.441,0,0,1-.3-.793l.43-.136a2.793,2.793,0,0,0,.241.646,1.522,1.522,0,0,0,.394.488.856.856,0,0,0,.551.189.983.983,0,0,0,.693-.241.861.861,0,0,0,.273-.64.963.963,0,0,0-.042-.336,1.7,1.7,0,0,0-.241-.451,5.7,5.7,0,0,0-.63-.714L112.123-9.8a2.1,2.1,0,0,1-.43-.535,1.181,1.181,0,0,1-.147-.567,1.023,1.023,0,0,1,.3-.772,1.809,1.809,0,0,1,.656-.415,4.214,4.214,0,0,1-.493-.567,1.1,1.1,0,0,1-.22-.661,1.252,1.252,0,0,1,.168-.651,1.206,1.206,0,0,1,.483-.451,1.586,1.586,0,0,1,.756-.168,1.131,1.131,0,0,1,.73.231,1.778,1.778,0,0,1,.467.572,4.1,4.1,0,0,1,.283.677l-.441.136a3.917,3.917,0,0,0-.2-.5,1.58,1.58,0,0,0-.336-.467.725.725,0,0,0-.52-.194.9.9,0,0,0-.6.21.8.8,0,0,0-.247.64.816.816,0,0,0,.1.373,1.84,1.84,0,0,0,.262.378q.163.184.352.362l1.081.9a3,3,0,0,1,.614.709,1.467,1.467,0,0,1,.184.9,1.061,1.061,0,0,1-.289.714,2.331,2.331,0,0,1-.562.409q.21.252.415.541a1.215,1.215,0,0,1,.215.688,1.256,1.256,0,0,1-.4,1.029A1.54,1.54,0,0,1,113.226-5.906Zm.514-2.94a1.873,1.873,0,0,0,.446-.31.818.818,0,0,0,.268-.509,1.035,1.035,0,0,0-.126-.651,2.559,2.559,0,0,0-.556-.63l-.955-.84a1.2,1.2,0,0,0-.535.31.756.756,0,0,0-.21.551.8.8,0,0,0,.1.378,1.793,1.793,0,0,0,.289.388Z" transform="translate(512 2793.715)" fill="#63666b"/>
    <path id="Path_3221" data-name="Path 3221" d="M2.988,0V-13.266a1.854,1.854,0,0,1-.45.441,3.9,3.9,0,0,1-.612.36q-.324.153-.6.261A3.937,3.937,0,0,1,.9-12.06v-.828a3.809,3.809,0,0,0,.531-.216,3.884,3.884,0,0,0,.6-.369,5.75,5.75,0,0,0,.594-.5,3.682,3.682,0,0,0,.5-.6H3.96V0ZM7.416,0V-.72l4.05-6.156q.45-.684.846-1.341a6.991,6.991,0,0,0,.639-1.377,5.049,5.049,0,0,0,.243-1.62,3.153,3.153,0,0,0-.567-2,1.971,1.971,0,0,0-1.647-.72,2.578,2.578,0,0,0-1.575.414,2.1,2.1,0,0,0-.756,1.152,6.756,6.756,0,0,0-.225,1.692v.234H7.488v-.288a6.023,6.023,0,0,1,.36-2.241A2.608,2.608,0,0,1,8.973-14.3a3.913,3.913,0,0,1,1.971-.441,2.938,2.938,0,0,1,2.394.972,4.1,4.1,0,0,1,.81,2.7,4.859,4.859,0,0,1-.27,1.629,8.647,8.647,0,0,1-.684,1.476q-.414.711-.864,1.4L8.514-.81H13.86V0Zm8.676-5.742v-.792H19.8v.792ZM21.654,0V-10.4h.9v1.1a3.727,3.727,0,0,1,1.134-.945A2.776,2.776,0,0,1,25-10.584a1.814,1.814,0,0,1,.981.288,1.643,1.643,0,0,1,.639,1.1,3.9,3.9,0,0,1,1.17-1.026,2.776,2.776,0,0,1,1.368-.36,1.829,1.829,0,0,1,.828.2,1.485,1.485,0,0,1,.648.711,3.359,3.359,0,0,1,.252,1.449V0H29.97V-8.244a1.946,1.946,0,0,0-.324-1.332,1.077,1.077,0,0,0-.792-.324,2.162,2.162,0,0,0-1.116.333,4.345,4.345,0,0,0-1.044.891,1.75,1.75,0,0,1,.027.207q.009.117.009.243V0h-.918V-8.244a1.946,1.946,0,0,0-.324-1.332A1.077,1.077,0,0,0,24.7-9.9a2.134,2.134,0,0,0-1.1.333,4.54,4.54,0,0,0-1.044.873V0Zm13.77.162a2.5,2.5,0,0,1-1.593-.45,2.388,2.388,0,0,1-.792-1.332A8.963,8.963,0,0,1,32.814-3.8V-6.606a8.963,8.963,0,0,1,.225-2.178,2.388,2.388,0,0,1,.792-1.332,2.5,2.5,0,0,1,1.593-.45,2.536,2.536,0,0,1,1.611.45,2.383,2.383,0,0,1,.792,1.323,8.94,8.94,0,0,1,.225,2.187V-3.8a8.963,8.963,0,0,1-.225,2.178,2.388,2.388,0,0,1-.792,1.332A2.536,2.536,0,0,1,35.424.162Zm0-.72A1.456,1.456,0,0,0,36.54-.945,1.98,1.98,0,0,0,37-2.052a12.757,12.757,0,0,0,.1-1.71v-2.88A12.713,12.713,0,0,0,37-8.361a1.969,1.969,0,0,0-.459-1.1,1.456,1.456,0,0,0-1.116-.387,1.426,1.426,0,0,0-1.107.387,2.008,2.008,0,0,0-.45,1.1,12.713,12.713,0,0,0-.1,1.719v2.88a12.757,12.757,0,0,0,.1,1.71,2.019,2.019,0,0,0,.45,1.107A1.426,1.426,0,0,0,35.424-.558ZM40.05,0V-10.4H41v1.116a4,4,0,0,1,1.116-.927,2.73,2.73,0,0,1,1.35-.351,1.575,1.575,0,0,1,.837.225,1.52,1.52,0,0,1,.585.72A3.361,3.361,0,0,1,45.108-8.3V0h-.954V-8.19a2.049,2.049,0,0,0-.3-1.3,1.007,1.007,0,0,0-.8-.342A2.052,2.052,0,0,0,42-9.513a4.285,4.285,0,0,0-1,.837V0Zm9.468.108a1.706,1.706,0,0,1-1.08-.288,1.325,1.325,0,0,1-.468-.774,5.081,5.081,0,0,1-.108-1.1V-9.774H46.494v-.63h1.368v-3.33h.954v3.33H50.58v.63H48.816v7.6A3.05,3.05,0,0,0,48.978-.99q.162.342.738.342A3,3,0,0,0,50.1-.675q.207-.027.387-.063V0A3.414,3.414,0,0,1,50,.081Q49.734.108,49.518.108ZM52.11,0V-14.58h.954v5.274a4.107,4.107,0,0,1,1.134-.918,2.786,2.786,0,0,1,1.35-.342,1.575,1.575,0,0,1,.837.225,1.52,1.52,0,0,1,.585.72A3.361,3.361,0,0,1,57.186-8.3V0h-.972V-8.19a2.1,2.1,0,0,0-.288-1.3.98.98,0,0,0-.792-.342,2.1,2.1,0,0,0-1.062.315,4.2,4.2,0,0,0-1.008.837V0ZM63.18,0V-14.58h3.186a3.96,3.96,0,0,1,2.268.558,2.929,2.929,0,0,1,1.134,1.512,6.576,6.576,0,0,1,.324,2.124v6.048a7.073,7.073,0,0,1-.324,2.223A3.024,3.024,0,0,1,68.661-.567a3.709,3.709,0,0,1-2.2.567Zm.972-.774H66.4a2.623,2.623,0,0,0,1.764-.5,2.392,2.392,0,0,0,.756-1.341,8.693,8.693,0,0,0,.18-1.827v-5.868a6.985,6.985,0,0,0-.216-1.845,2.114,2.114,0,0,0-.81-1.206,2.925,2.925,0,0,0-1.71-.423H64.152ZM75.924.2a3.709,3.709,0,0,1-2.2-.567A2.928,2.928,0,0,1,72.63-1.917a7.458,7.458,0,0,1-.306-2.223v-6.372a6.821,6.821,0,0,1,.324-2.2A2.886,2.886,0,0,1,73.755-14.2a3.777,3.777,0,0,1,2.169-.54,3.777,3.777,0,0,1,2.169.54A2.886,2.886,0,0,1,79.2-12.708a6.821,6.821,0,0,1,.324,2.2v6.39a7.368,7.368,0,0,1-.306,2.214A2.929,2.929,0,0,1,78.129-.369,3.709,3.709,0,0,1,75.924.2Zm0-.81a2.7,2.7,0,0,0,1.611-.414,2.113,2.113,0,0,0,.783-1.161,6.277,6.277,0,0,0,.216-1.737v-6.732a6.18,6.18,0,0,0-.216-1.728,2.085,2.085,0,0,0-.774-1.143,2.736,2.736,0,0,0-1.62-.405,2.743,2.743,0,0,0-1.611.405,2.067,2.067,0,0,0-.783,1.143,6.18,6.18,0,0,0-.216,1.728v6.732a6.277,6.277,0,0,0,.216,1.737,2.113,2.113,0,0,0,.783,1.161A2.7,2.7,0,0,0,75.924-.612ZM82.062,0V-14.58H85.59a3.491,3.491,0,0,1,1.989.477,2.42,2.42,0,0,1,.954,1.3,6,6,0,0,1,.261,1.827,6.839,6.839,0,0,1-.171,1.548,2.78,2.78,0,0,1-.63,1.251,2.209,2.209,0,0,1-1.341.657L88.992,0H88.02L85.752-7.344H83.034V0Zm.972-8.1h2.52a2.414,2.414,0,0,0,1.422-.351,1.812,1.812,0,0,0,.675-1,5.5,5.5,0,0,0,.189-1.53,3.947,3.947,0,0,0-.459-2.106,2.033,2.033,0,0,0-1.845-.72h-2.5ZM94.7,0V-10.4h.954V-9a3.024,3.024,0,0,1,1.161-1.143,2.791,2.791,0,0,1,1.305-.369H98.2a.315.315,0,0,1,.1.018v.99a.514.514,0,0,0-.189-.045q-.117-.009-.207-.009a2.443,2.443,0,0,0-1.287.342,2.877,2.877,0,0,0-.963.99V0Zm6.786.162a2.053,2.053,0,0,1-1.1-.288,1.964,1.964,0,0,1-.729-.8A2.565,2.565,0,0,1,99.4-2.106a3.559,3.559,0,0,1,.171-1.161,2.361,2.361,0,0,1,.621-.927,6.6,6.6,0,0,1,1.287-.909q.837-.477,2.169-1.107v-.738a8.89,8.89,0,0,0-.135-1.764,1.494,1.494,0,0,0-.45-.882,1.331,1.331,0,0,0-.855-.252,2.206,2.206,0,0,0-.792.144,1.224,1.224,0,0,0-.621.567,2.564,2.564,0,0,0-.243,1.251v.27h-.936a3.438,3.438,0,0,1,.6-2.223,2.493,2.493,0,0,1,2.025-.729,2,2,0,0,1,1.836.828,5.218,5.218,0,0,1,.522,2.682v5.238q0,.144.009.549t.018.783a4.568,4.568,0,0,0,.027.486h-.828q-.036-.378-.09-.792t-.072-.594a2.419,2.419,0,0,1-.81,1.1A2.156,2.156,0,0,1,101.484.162Zm.234-.792a1.6,1.6,0,0,0,.81-.207,2.507,2.507,0,0,0,.648-.54,3.165,3.165,0,0,0,.468-.711v-3.42q-.954.5-1.593.864a6.045,6.045,0,0,0-1.008.684,1.917,1.917,0,0,0-.531.729,2.644,2.644,0,0,0-.162.981,1.559,1.559,0,0,0,.432,1.278A1.478,1.478,0,0,0,101.718-.63Zm7.236.738a1.706,1.706,0,0,1-1.08-.288,1.325,1.325,0,0,1-.468-.774,5.081,5.081,0,0,1-.108-1.1V-9.774H105.93v-.63H107.3v-3.33h.954v3.33h1.764v.63h-1.764v7.6a3.05,3.05,0,0,0,.162,1.188q.162.342.738.342a3,3,0,0,0,.387-.027q.207-.027.387-.063V0a3.414,3.414,0,0,1-.486.081Q109.17.108,108.954.108Zm5.04.054a2.864,2.864,0,0,1-1.422-.333,2.135,2.135,0,0,1-.909-1.206,7.6,7.6,0,0,1-.315-2.475V-6.624a7.3,7.3,0,0,1,.324-2.484,2.023,2.023,0,0,1,.927-1.152,3.084,3.084,0,0,1,1.413-.306,2.518,2.518,0,0,1,1.53.414,2.285,2.285,0,0,1,.792,1.323,9.966,9.966,0,0,1,.234,2.4v.99H112.3V-3.78a8.619,8.619,0,0,0,.171,1.944,1.7,1.7,0,0,0,.549.99,1.559,1.559,0,0,0,.972.288,2.378,2.378,0,0,0,.756-.126,1.153,1.153,0,0,0,.63-.594,3.208,3.208,0,0,0,.252-1.458V-3.51h.936v.684a3.844,3.844,0,0,1-.549,2.16A2.253,2.253,0,0,1,113.994.162ZM112.3-6.012h3.33v-.81a11.288,11.288,0,0,0-.1-1.611,1.9,1.9,0,0,0-.441-1.044,1.409,1.409,0,0,0-1.08-.369,1.779,1.779,0,0,0-.963.243,1.462,1.462,0,0,0-.567.9,7.622,7.622,0,0,0-.18,1.9Zm7.242.106a1.3,1.3,0,0,1-.782-.231,1.747,1.747,0,0,1-.52-.6,3.441,3.441,0,0,1-.3-.793l.43-.136a2.793,2.793,0,0,0,.241.646,1.522,1.522,0,0,0,.394.488.856.856,0,0,0,.551.189.983.983,0,0,0,.693-.241.861.861,0,0,0,.273-.64.963.963,0,0,0-.042-.336,1.7,1.7,0,0,0-.241-.451,5.7,5.7,0,0,0-.63-.714L118.441-9.8a2.1,2.1,0,0,1-.43-.535,1.181,1.181,0,0,1-.147-.567,1.023,1.023,0,0,1,.3-.772,1.809,1.809,0,0,1,.656-.415,4.214,4.214,0,0,1-.493-.567,1.1,1.1,0,0,1-.22-.661,1.252,1.252,0,0,1,.168-.651,1.206,1.206,0,0,1,.483-.451,1.586,1.586,0,0,1,.756-.168,1.131,1.131,0,0,1,.73.231,1.778,1.778,0,0,1,.467.572,4.1,4.1,0,0,1,.283.677l-.441.136a3.917,3.917,0,0,0-.2-.5,1.58,1.58,0,0,0-.336-.467.725.725,0,0,0-.52-.194.9.9,0,0,0-.6.21.8.8,0,0,0-.247.64.816.816,0,0,0,.1.373,1.84,1.84,0,0,0,.262.378q.163.184.352.362l1.081.9a3,3,0,0,1,.614.709,1.467,1.467,0,0,1,.184.9,1.061,1.061,0,0,1-.289.714,2.331,2.331,0,0,1-.562.409q.21.252.415.541a1.215,1.215,0,0,1,.215.688,1.256,1.256,0,0,1-.4,1.029A1.54,1.54,0,0,1,119.544-5.906Zm.514-2.94a1.873,1.873,0,0,0,.446-.31.818.818,0,0,0,.268-.509,1.035,1.035,0,0,0-.126-.651,2.559,2.559,0,0,0-.556-.63l-.955-.84a1.2,1.2,0,0,0-.535.31.756.756,0,0,0-.21.551.8.8,0,0,0,.1.378,1.793,1.793,0,0,0,.289.388Z" transform="translate(864 2793.715)" fill="#63666b"/>
  </g>
</svg>
