<?xml version="1.0" encoding="utf-8"?>
<!-- Generator: Adobe Illustrator 25.2.1, SVG Export Plug-In . SVG Version: 6.00 Build 0)  -->
<svg version="1.1" id="Layer_1" xmlns="http://www.w3.org/2000/svg" xmlns:xlink="http://www.w3.org/1999/xlink" x="0px" y="0px"
	 viewBox="0 0 144 144" style="enable-background:new 0 0 144 144;" xml:space="preserve">
<style type="text/css">
	.st0{fill:#F99D20;}
	.st1{fill:#823795;}
</style>
<g id="Group_1394" transform="translate(0)">
	<g id="Group_1365" transform="translate(0 0)">
		<g id="check" transform="translate(16.905 15.476)">
			<path id="Path_2602" class="st0" d="M53.84,58.93V77.7c-0.96-0.01-1.88-0.4-2.56-1.08L25.41,50.77c-1.44-1.44-1.45-3.78,0-5.22
				c0,0,0,0,0,0l4.47-4.46c1.43-1.43,3.76-1.44,5.2-0.02L52.8,58.48C53.08,58.76,53.45,58.92,53.84,58.93z"/>
			<path id="Path_2603" class="st0" d="M104.33,24.98c1.05,1.06,1.04,2.77-0.01,3.83L56.5,76.62c-0.71,0.7-1.67,1.09-2.67,1.08
				V58.93c0.36,0.01,0.71-0.1,1-0.32c0.05-0.04,0.1-0.08,0.14-0.12l39.66-39.43c1.06-1.06,2.79-1.05,3.84,0.01c0,0,0,0,0.01,0.01
				L104.33,24.98z"/>
		</g>
		<g id="shield">
			<path id="Path_2604" class="st1" d="M113.8,62.86c0.26-0.26,0.69-0.26,0.95,0c0.15,0.15,0.22,0.37,0.19,0.59
				c-2.66,16.27-9.03,32.44-25.05,47.37c-4.33,4.02-12.46,10.47-18.47,12.78c-0.24,0.09-0.48,0.14-0.74,0.16v-10.72
				c0.31,0,0.62-0.06,0.91-0.18c6.93-2.84,16.81-11.97,19.94-16.22c6.28-8.49,9.95-15.59,12.13-23.24c0.1-0.36,0.3-0.7,0.57-0.96
				L113.8,62.86z"/>
			<path id="Path_2605" class="st1" d="M103.37,29.55c0.36,0.06,0.6,0.4,0.54,0.75c-0.02,0.14-0.09,0.26-0.18,0.36l-6.91,6.91
				c-0.48,0.48-1.17,0.7-1.84,0.58h-0.02c-8.7-1.77-15.63-4.7-23.55-8.6c-0.18-0.09-0.38-0.14-0.59-0.14c-0.05,0-0.09,0-0.14,0.01
				V18.25h0.03c0.27,0,0.53,0.06,0.77,0.18c10.71,5.15,19.1,8.63,30.13,10.83C101.67,29.28,102.33,29.38,103.37,29.55z"/>
			<path id="Path_2606" class="st1" d="M35.59,39.98c-0.59,0.1-1.03,0.62-1.02,1.22c0.07,6.94,0.83,19.5,1.24,22.7
				c1.05,6.03,2.74,11.93,5.04,17.6c7.94,18.77,24,29.3,28.94,31.35c0.29,0.12,0.59,0.18,0.9,0.18v10.71
				c-0.33,0.01-0.65-0.04-0.95-0.15c-5.85-2.22-27.43-15.57-38.25-41.72c-2.48-6.52-4.34-13.25-5.57-20.12
				c-0.53-4.06-1.5-19.92-1.59-28.62c-0.01-0.77,0.54-1.42,1.3-1.54l0,0c14.82-2.37,23.08-2.76,44.32-13.15
				c0.23-0.11,0.48-0.17,0.74-0.18v11.17c-0.17,0.02-0.33,0.06-0.48,0.14C53.55,37.83,47.09,38.11,35.59,39.98L35.59,39.98z"/>
		</g>
	</g>
</g>
</svg>
