<svg xmlns="http://www.w3.org/2000/svg" width="420.682" height="63.216" viewBox="0 0 420.682 63.216">
  <g id="Group_1442" data-name="Group 1442" transform="translate(-749 -1899.172)">
    <g id="Group_1357" data-name="Group 1357" transform="translate(95 348.89)">
      <g id="Group_7" data-name="Group 7" transform="translate(654 1572.886)">
        <path id="Path_533" data-name="Path 533" d="M390.2,320.519V343.3H384.67V320.519h-9.144v-4.887h23.8v4.887Z" transform="translate(-375.526 -315.207)" fill="#003476" fill-rule="evenodd"/>
        <path id="Path_534" data-name="Path 534" d="M416.87,343.777q-6.812,0-11.068-3.684-4.48-3.85-4.479-10.624a13.248,13.248,0,0,1,4.553-10.6,14.43,14.43,0,0,1,4.887-2.74,19.6,19.6,0,0,1,6.181-.907,18.971,18.971,0,0,1,5.516.768,17,17,0,0,1,4.719,2.268v5.571q-5.35-3.7-10.235-3.7a13.389,13.389,0,0,0-4.275.63,8.511,8.511,0,0,0-3.156,1.832,7.8,7.8,0,0,0-1.953,2.934,10.936,10.936,0,0,0-.665,3.95,11.155,11.155,0,0,0,.657,3.961,7.719,7.719,0,0,0,1.934,2.944,8.435,8.435,0,0,0,3.156,1.832,13.5,13.5,0,0,0,4.3.629,16.448,16.448,0,0,0,2.943-.25,13.735,13.735,0,0,0,2.591-.731v-5.571h-8.384v-4.923h13.7v13.308a19.574,19.574,0,0,1-10.92,3.11Z" transform="translate(-374.874 -315.218)" fill="#003476" fill-rule="evenodd"/>
      </g>
      <g id="Group_8" data-name="Group 8" transform="translate(715.568 1550.282)">
        <path id="Path_535" data-name="Path 535" d="M467.884,337.484l-10.9-6.526.116-25.423,21.938-12.364,21.822,13.059-.13,25.43-21.937,12.364.064-12.725,10.961-6.177.065-12.705-10.9-6.524-10.961,6.177,2.438,12.48Z" transform="translate(-435.035 -293.172)" fill="#003476" fill-rule="evenodd"/>
        <path id="Path_536" data-name="Path 536" d="M478.291,343.083l-1.43-6.448,1.493-6.277,2.455,11.305Z" transform="translate(-434.532 -292.231)" fill="#002575" fill-rule="evenodd"/>
        <path id="Path_537" data-name="Path 537" d="M468.552,311.77l10.9,6.526-.116,25.422L457.4,356.082l-21.822-13.059.13-25.43,21.937-12.363-.065,12.725-10.96,6.176-.066,12.706,10.9,6.524,10.96-6.177C468.452,328.675,468.51,320.269,468.552,311.77Z" transform="translate(-435.576 -292.867)" fill="#a4c422" fill-rule="evenodd"/>
        <path id="Path_538" data-name="Path 538" d="M457.16,305.23l-.063,12.724-2.455-11.305Z" transform="translate(-435.094 -292.867)" fill="#7eaf00" fill-rule="evenodd"/>
      </g>
      <g id="Group_9" data-name="Group 9" transform="translate(792.562 1573.802)">
        <path id="Path_539" data-name="Path 539" d="M510.67,343.717V316.85h11.389a7.646,7.646,0,0,1,3.425.775,8.857,8.857,0,0,1,2.706,2.044,9.638,9.638,0,0,1,1.778,2.875,8.666,8.666,0,0,1,.644,3.236,9.322,9.322,0,0,1-.606,3.312,9.178,9.178,0,0,1-1.7,2.856,8.363,8.363,0,0,1-2.648,2.006,7.669,7.669,0,0,1-3.406.757h-6.357v9.006Zm5.222-13.585h6.054a2.991,2.991,0,0,0,2.4-1.173,4.855,4.855,0,0,0,.965-3.178,5.207,5.207,0,0,0-.3-1.835,4.47,4.47,0,0,0-.794-1.381,3.168,3.168,0,0,0-1.154-.852,3.391,3.391,0,0,0-1.344-.283h-5.827Z" transform="translate(-510.67 -316.093)" fill="#a4c422"/>
        <path id="Path_540" data-name="Path 540" d="M538.443,343.93a7.511,7.511,0,0,1-2.686-.473,6.465,6.465,0,0,1-2.157-1.325,6.166,6.166,0,0,1-1.419-1.987,6.014,6.014,0,0,1-.511-2.5,5.509,5.509,0,0,1,.623-2.591,5.935,5.935,0,0,1,1.742-2.025,8.63,8.63,0,0,1,2.667-1.305,11.624,11.624,0,0,1,3.406-.474,14.655,14.655,0,0,1,2.593.228,10.578,10.578,0,0,1,2.25.643v-1.135a3.978,3.978,0,0,0-1.117-3.028,4.644,4.644,0,0,0-3.311-1.059,8.78,8.78,0,0,0-3.1.568,14.406,14.406,0,0,0-3.1,1.665l-1.551-3.217a14.644,14.644,0,0,1,8.25-2.536,9.662,9.662,0,0,1,6.641,2.1,7.693,7.693,0,0,1,2.365,6.073v6.169a1.78,1.78,0,0,0,.284,1.135,1.24,1.24,0,0,0,.927.378v4.313a11.314,11.314,0,0,1-2.233.266,3.381,3.381,0,0,1-2.214-.644,2.761,2.761,0,0,1-.964-1.7l-.115-1.1a8.782,8.782,0,0,1-3.215,2.648A9.235,9.235,0,0,1,538.443,343.93Zm1.438-3.708a6.6,6.6,0,0,0,2.441-.454,4.435,4.435,0,0,0,1.8-1.21,1.824,1.824,0,0,0,.831-1.438v-2.271a12.513,12.513,0,0,0-1.968-.549,10.706,10.706,0,0,0-2.043-.208,5.419,5.419,0,0,0-3.216.89,2.67,2.67,0,0,0-1.249,2.252,2.71,2.71,0,0,0,.983,2.138A3.575,3.575,0,0,0,539.882,340.221Z" transform="translate(-510.139 -315.928)" fill="#a4c422"/>
        <path id="Path_541" data-name="Path 541" d="M565.953,342.681a22.643,22.643,0,0,1-2.5.907,10.5,10.5,0,0,1-3.1.454,7.2,7.2,0,0,1-1.986-.264,4.346,4.346,0,0,1-1.627-.852,4.136,4.136,0,0,1-1.117-1.513,5.451,5.451,0,0,1-.416-2.252v-11.39H552.6v-3.9h2.611V317.44h5.07v6.434h4.163v3.9h-4.163v9.687a1.8,1.8,0,0,0,.548,1.495,2.091,2.091,0,0,0,1.344.436,4.652,4.652,0,0,0,1.551-.266q.757-.263,1.211-.453Z" transform="translate(-509.61 -316.078)" fill="#a4c422"/>
        <path id="Path_542" data-name="Path 542" d="M568.207,321.145v-5.033h5.071v5.033Zm0,22.59V323.907h5.071v19.828Z" transform="translate(-509.215 -316.112)" fill="#a4c422"/>
        <path id="Path_543" data-name="Path 543" d="M586.845,343.93a11.021,11.021,0,0,1-4.313-.813,9.73,9.73,0,0,1-5.393-5.469,10.455,10.455,0,0,1-.738-3.9,11.029,11.029,0,0,1,.72-3.991,9.713,9.713,0,0,1,2.081-3.292,9.945,9.945,0,0,1,3.311-2.253,11.027,11.027,0,0,1,4.371-.833,10.758,10.758,0,0,1,4.333.833,9.992,9.992,0,0,1,3.254,2.233,9.488,9.488,0,0,1,2.043,3.254,10.847,10.847,0,0,1,.7,3.86c0,.328-.007.643-.018.945a3.911,3.911,0,0,1-.1.758H581.775a5.847,5.847,0,0,0,.567,2.08,5.09,5.09,0,0,0,2.8,2.535,5.335,5.335,0,0,0,1.893.34,5.847,5.847,0,0,0,2.858-.738,3.9,3.9,0,0,0,1.834-1.948l4.352,1.211a8.846,8.846,0,0,1-3.5,3.727A10.856,10.856,0,0,1,586.845,343.93Zm5.147-11.957a5.276,5.276,0,0,0-1.647-3.576,5.169,5.169,0,0,0-7.02.018,5.249,5.249,0,0,0-1.116,1.551,5.488,5.488,0,0,0-.511,2.007Z" transform="translate(-509.008 -315.928)" fill="#a4c422"/>
        <path id="Path_544" data-name="Path 544" d="M618.154,343.551h-5.071V332.427a5.8,5.8,0,0,0-.833-3.482,2.737,2.737,0,0,0-2.308-1.1,4.33,4.33,0,0,0-1.551.3A5.729,5.729,0,0,0,606.9,329a6.982,6.982,0,0,0-1.268,1.306,5.152,5.152,0,0,0-.832,1.665v11.579h-5.071V323.723H604.3v3.671a7.513,7.513,0,0,1,3.18-2.952,10.205,10.205,0,0,1,4.692-1.06,5.973,5.973,0,0,1,3.028.682,4.927,4.927,0,0,1,1.817,1.778,7.47,7.47,0,0,1,.889,2.5,16.382,16.382,0,0,1,.246,2.838Z" transform="translate(-508.418 -315.928)" fill="#a4c422"/>
        <path id="Path_545" data-name="Path 545" d="M633.751,342.681a22.6,22.6,0,0,1-2.5.907,10.5,10.5,0,0,1-3.1.454,7.2,7.2,0,0,1-1.986-.264,4.348,4.348,0,0,1-1.627-.852,4.139,4.139,0,0,1-1.117-1.513,5.452,5.452,0,0,1-.417-2.252v-11.39h-2.61v-3.9H623V317.44h5.071v6.434h4.163v3.9h-4.163v9.687a1.8,1.8,0,0,0,.549,1.495,2.088,2.088,0,0,0,1.344.436,4.652,4.652,0,0,0,1.551-.266c.5-.175.908-.327,1.211-.453Z" transform="translate(-507.895 -316.078)" fill="#a4c422"/>
        <path id="Path_546" data-name="Path 546" d="M652.54,323.893a6.572,6.572,0,0,0-.965-.72,11.809,11.809,0,0,0-1.7-.889,14.817,14.817,0,0,0-2.176-.738,9.549,9.549,0,0,0-2.384-.3,5.356,5.356,0,0,0-3.217.795,2.632,2.632,0,0,0-1.059,2.232,2.29,2.29,0,0,0,.4,1.382,3.412,3.412,0,0,0,1.154.965,9.607,9.607,0,0,0,1.91.757q1.153.341,2.669.72,1.965.529,3.575,1.134a9.706,9.706,0,0,1,2.724,1.514,6.262,6.262,0,0,1,1.723,2.176,7.229,7.229,0,0,1,.6,3.122,7.793,7.793,0,0,1-.813,3.69,6.858,6.858,0,0,1-2.2,2.478,9.523,9.523,0,0,1-3.179,1.381,15.994,15.994,0,0,1-3.764.436,20.242,20.242,0,0,1-5.979-.908,18.478,18.478,0,0,1-5.3-2.573l2.309-4.5a7.314,7.314,0,0,0,1.23.889,18.69,18.69,0,0,0,2.1,1.1,16.428,16.428,0,0,0,2.687.927,12.14,12.14,0,0,0,3.027.378q4.314,0,4.314-2.762a2.267,2.267,0,0,0-.492-1.476,4.176,4.176,0,0,0-1.4-1.059,13.428,13.428,0,0,0-2.2-.833q-1.286-.378-2.875-.833a24.4,24.4,0,0,1-3.35-1.154,8.781,8.781,0,0,1-2.364-1.475,5.514,5.514,0,0,1-1.419-1.968,6.807,6.807,0,0,1-.474-2.668,8.351,8.351,0,0,1,.757-3.633,7.335,7.335,0,0,1,2.1-2.649,9.526,9.526,0,0,1,3.122-1.608,12.883,12.883,0,0,1,3.821-.549,14.833,14.833,0,0,1,5.222.889,19.482,19.482,0,0,1,4.164,2.1Z" transform="translate(-507.536 -316.098)" fill="#003476"/>
        <path id="GettyImages-1271562556" d="M664.688,343.921a5.63,5.63,0,0,1-4.654-1.968,9.121,9.121,0,0,1-1.59-5.828V323.715h5.072v11.314q0,4.58,3.292,4.579a5.213,5.213,0,0,0,2.856-.889,6.388,6.388,0,0,0,2.252-2.707v-12.3h5.07v14a1.78,1.78,0,0,0,.285,1.135,1.24,1.24,0,0,0,.927.378v4.313a10.653,10.653,0,0,1-1.268.189c-.34.026-.65.038-.927.038a3.652,3.652,0,0,1-2.214-.624,2.449,2.449,0,0,1-1-1.721l-.114-1.588a8.461,8.461,0,0,1-3.406,3.065A10.252,10.252,0,0,1,664.688,343.921Z" transform="translate(-506.933 -315.92)" fill="#003476"/>
        <path id="Path_548" data-name="Path 548" d="M693.32,343.93a7.806,7.806,0,0,1-4.086-1.041,7.4,7.4,0,0,1-2.724-2.819v11.541h-5.071V323.723h4.427v3.4a8.118,8.118,0,0,1,2.838-2.744,7.9,7.9,0,0,1,4.012-1,8.5,8.5,0,0,1,3.708.814,9.241,9.241,0,0,1,2.932,2.194,10.254,10.254,0,0,1,1.93,3.255,11.2,11.2,0,0,1,.7,3.955,12.5,12.5,0,0,1-.643,4.048,10.362,10.362,0,0,1-1.8,3.293,8.378,8.378,0,0,1-2.744,2.194A7.668,7.668,0,0,1,693.32,343.93Zm-1.7-4.313a4.55,4.55,0,0,0,2.1-.492,5.066,5.066,0,0,0,1.647-1.325,6.225,6.225,0,0,0,1.06-1.93,6.943,6.943,0,0,0,.377-2.27,6.421,6.421,0,0,0-.415-2.327,5.811,5.811,0,0,0-1.154-1.873,5.371,5.371,0,0,0-1.741-1.249,5.219,5.219,0,0,0-2.177-.454,4.754,4.754,0,0,0-1.474.246,5.168,5.168,0,0,0-1.4.7,6.151,6.151,0,0,0-1.155,1.059,4.412,4.412,0,0,0-.775,1.325v4.654a6.732,6.732,0,0,0,2.08,2.82A4.76,4.76,0,0,0,691.618,339.616Z" transform="translate(-506.351 -315.928)" fill="#003476"/>
        <path id="Path_549" data-name="Path 549" d="M716.719,343.93a7.807,7.807,0,0,1-4.087-1.041,7.414,7.414,0,0,1-2.724-2.819v11.541h-5.071V323.723h4.427v3.4a8.113,8.113,0,0,1,2.839-2.744,7.9,7.9,0,0,1,4.011-1,8.491,8.491,0,0,1,3.708.814,9.235,9.235,0,0,1,2.933,2.194,10.273,10.273,0,0,1,1.929,3.255,11.205,11.205,0,0,1,.7,3.955,12.5,12.5,0,0,1-.643,4.048,10.361,10.361,0,0,1-1.8,3.293,8.367,8.367,0,0,1-2.744,2.194A7.667,7.667,0,0,1,716.719,343.93Zm-1.7-4.313a4.553,4.553,0,0,0,2.1-.492,5.064,5.064,0,0,0,1.646-1.325,6.225,6.225,0,0,0,1.06-1.93,6.943,6.943,0,0,0,.377-2.27,6.4,6.4,0,0,0-.415-2.327,5.775,5.775,0,0,0-1.155-1.873,5.366,5.366,0,0,0-1.74-1.249,5.227,5.227,0,0,0-2.177-.454,4.76,4.76,0,0,0-1.475.246,5.17,5.17,0,0,0-1.4.7,6.146,6.146,0,0,0-1.154,1.059,4.407,4.407,0,0,0-.775,1.325v4.654a6.733,6.733,0,0,0,2.081,2.82A4.758,4.758,0,0,0,715.017,339.616Z" transform="translate(-505.759 -315.928)" fill="#003476"/>
        <path id="Path_550" data-name="Path 550" d="M737.424,343.93a10.89,10.89,0,0,1-4.351-.833,9.768,9.768,0,0,1-3.273-2.251,9.942,9.942,0,0,1-2.063-3.274,11.031,11.031,0,0,1,0-7.833,9.937,9.937,0,0,1,2.063-3.273,9.772,9.772,0,0,1,3.273-2.253,10.89,10.89,0,0,1,4.351-.833,10.766,10.766,0,0,1,4.334.833,9.836,9.836,0,0,1,3.253,2.253,9.952,9.952,0,0,1,2.063,3.273,11.028,11.028,0,0,1,0,7.833,10.127,10.127,0,0,1-2.043,3.274,9.569,9.569,0,0,1-3.254,2.251A10.9,10.9,0,0,1,737.424,343.93Zm-5.184-10.255a6.891,6.891,0,0,0,.4,2.4,5.855,5.855,0,0,0,1.1,1.873,4.9,4.9,0,0,0,1.647,1.23,5.018,5.018,0,0,0,4.086,0,4.917,4.917,0,0,0,1.647-1.23,5.834,5.834,0,0,0,1.1-1.892,7.058,7.058,0,0,0,.4-2.423,6.941,6.941,0,0,0-.4-2.384,5.823,5.823,0,0,0-1.1-1.892,4.9,4.9,0,0,0-1.647-1.23,4.843,4.843,0,0,0-2.043-.435,4.654,4.654,0,0,0-2.042.454,5.107,5.107,0,0,0-1.647,1.249,5.815,5.815,0,0,0-1.1,1.892A6.94,6.94,0,0,0,732.24,333.675Z" transform="translate(-505.198 -315.928)" fill="#003476"/>
        <path id="Path_551" data-name="Path 551" d="M762.408,328.111a10.018,10.018,0,0,0-4.125.889,5.208,5.208,0,0,0-2.611,2.554v12H750.6V323.721h4.655v4.238a9.078,9.078,0,0,1,1.248-1.835,9.6,9.6,0,0,1,1.552-1.419,7.218,7.218,0,0,1,1.684-.927,4.647,4.647,0,0,1,1.646-.321h.625a2.08,2.08,0,0,1,.4.037Z" transform="translate(-504.602 -315.926)" fill="#003476"/>
        <path id="Path_552" data-name="Path 552" d="M776.8,342.681a22.6,22.6,0,0,1-2.5.907,10.5,10.5,0,0,1-3.1.454,7.211,7.211,0,0,1-1.987-.264,4.355,4.355,0,0,1-1.627-.852,4.148,4.148,0,0,1-1.117-1.513,5.468,5.468,0,0,1-.416-2.252v-11.39h-2.611v-3.9h2.611V317.44h5.071v6.434h4.163v3.9h-4.163v9.687a1.8,1.8,0,0,0,.549,1.495,2.088,2.088,0,0,0,1.343.436,4.653,4.653,0,0,0,1.552-.266c.5-.175.908-.327,1.211-.453Z" transform="translate(-504.277 -316.078)" fill="#003476"/>
      </g>
      <g id="Group_10" data-name="Group 10" transform="translate(1064.003 1574.984)">
        <path id="Path_553" data-name="Path 553" d="M776.942,318.076h-1.526v-.812h4.011v.812H777.9v4.257h-.96Zm3.456-.812h1.465l1.366,3.888h.037l1.366-3.888H786.1v5.069h-.96V318.1h-.025l-1.476,4.232h-.775l-1.477-4.232h-.024v4.232H780.4Z" transform="translate(-775.416 -317.264)" fill="#003476"/>
      </g>
    </g>
  </g>
</svg>
