<svg xmlns="http://www.w3.org/2000/svg" width="1001.294" height="566.007" viewBox="0 0 1001.294 566.007">
  <g id="Group_1787" data-name="Group 1787" transform="translate(-727.52 -531.668)">
    <path id="Path_2908" data-name="Path 2908" d="M0,0H220.732V219.508H0Z" transform="translate(898 789.068)" fill="#823695"/>
    <path id="Path_2905" data-name="Path 2905" d="M0,0H220.153V219.508H0Z" transform="translate(1369 789.068)" fill="#823695"/>
    <path id="Path_2918" data-name="Path 2918" d="M0,0V12.465" transform="translate(1675.461 1008.453)" fill="none" stroke="#63666b" stroke-width="0.679"/>
    <path id="Path_2588" data-name="Path 2588" d="M0,0H399.508" transform="translate(1276 1008.722)" fill="none" stroke="#63666b" stroke-width="0.679"/>
    <g id="Group_1310" data-name="Group 1310" transform="translate(812.691 1008.453)">
      <line id="Line_626" data-name="Line 626" y2="12.465" transform="translate(385.301)" fill="none" stroke="#63666b" stroke-miterlimit="10" stroke-width="0.679"/>
      <path id="Path_2588-2" data-name="Path 2588" d="M0,0H385.348" transform="translate(0 0.269)" fill="none" stroke="#63666b" stroke-width="0.679"/>
    </g>
    <path id="Path_565" data-name="Path 565" d="M94.728,1790.168v0Z" transform="translate(1103.264 -768.229)" fill="#464749"/>
    <path id="Path_2935" data-name="Path 2935" d="M7.57-3.422a3.771,3.771,0,0,1-.281,1.484A3.245,3.245,0,0,1,6.488-.8a3.586,3.586,0,0,1-1.254.734A4.9,4.9,0,0,1,3.6.2a4.511,4.511,0,0,1-2.32-.469V-1.633A4.266,4.266,0,0,0,3.617-.9a3.161,3.161,0,0,0,1.1-.18,2.439,2.439,0,0,0,.832-.5,2.141,2.141,0,0,0,.527-.773,2.618,2.618,0,0,0,.184-.992,2.125,2.125,0,0,0-.734-1.715A3.221,3.221,0,0,0,3.391-5.68q-.227,0-.477.008t-.5.02q-.25.012-.488.027t-.434.039L1.875-11.2h5.18v1.156H2.984L2.758-6.758q.25-.016.531-.027t.5-.012a5.028,5.028,0,0,1,1.594.234,3.377,3.377,0,0,1,1.191.668,2.8,2.8,0,0,1,.742,1.063A3.737,3.737,0,0,1,7.57-3.422Zm9.023-2.227a11.005,11.005,0,0,1-.254,2.492,5.807,5.807,0,0,1-.734,1.832,3.305,3.305,0,0,1-1.18,1.133A3.23,3.23,0,0,1,12.836.2a3.016,3.016,0,0,1-1.5-.371,3.152,3.152,0,0,1-1.113-1.082A5.484,5.484,0,0,1,9.531-3,10.8,10.8,0,0,1,9.3-5.375a12.222,12.222,0,0,1,.246-2.594,5.933,5.933,0,0,1,.723-1.887A3.216,3.216,0,0,1,11.449-11a3.323,3.323,0,0,1,1.621-.387Q16.594-11.391,16.594-5.648Zm-1.312.125q0-4.781-2.273-4.781-2.4,0-2.4,4.867Q10.609-.9,12.961-.9,15.281-.9,15.281-5.523Z" transform="translate(783.909 681.297)" fill="#63666b"/>
    <path id="Path_2938" data-name="Path 2938" d="M6.641-11.2v7.4H8.078v1.172H6.641V0H5.375V-2.633H.109V-3.742q.734-.828,1.484-1.77t1.434-1.91q.684-.969,1.266-1.934a17.671,17.671,0,0,0,.98-1.848ZM1.555-3.8h3.82V-9.289Q4.789-8.266,4.266-7.461T3.27-6q-.473.656-.9,1.188T1.555-3.8ZM16.594-5.648a11.005,11.005,0,0,1-.254,2.492,5.807,5.807,0,0,1-.734,1.832,3.305,3.305,0,0,1-1.18,1.133A3.23,3.23,0,0,1,12.836.2a3.016,3.016,0,0,1-1.5-.371,3.152,3.152,0,0,1-1.113-1.082A5.484,5.484,0,0,1,9.531-3,10.8,10.8,0,0,1,9.3-5.375a12.222,12.222,0,0,1,.246-2.594,5.933,5.933,0,0,1,.723-1.887A3.216,3.216,0,0,1,11.449-11a3.323,3.323,0,0,1,1.621-.387Q16.594-11.391,16.594-5.648Zm-1.312.125q0-4.781-2.273-4.781-2.4,0-2.4,4.867Q10.609-.9,12.961-.9,15.281-.9,15.281-5.523Z" transform="translate(783.909 747.97)" fill="#63666b"/>
    <path id="Path_2939" data-name="Path 2939" d="M7.445-3.172A3.266,3.266,0,0,1,7.16-1.793a3.045,3.045,0,0,1-.8,1.063,3.714,3.714,0,0,1-1.246.684A5.04,5.04,0,0,1,3.508.2,4.654,4.654,0,0,1,.961-.414V-1.789A4.081,4.081,0,0,0,3.555-.9a3.525,3.525,0,0,0,1.059-.148,2.374,2.374,0,0,0,.813-.43,1.909,1.909,0,0,0,.523-.68,2.123,2.123,0,0,0,.184-.9q0-2.2-3.125-2.2h-.93V-6.336h.883q2.766,0,2.766-2.062,0-1.906-2.109-1.906a3.592,3.592,0,0,0-2.227.8V-10.75a4.868,4.868,0,0,1,2.547-.641,3.913,3.913,0,0,1,1.273.2,2.918,2.918,0,0,1,.977.547,2.423,2.423,0,0,1,.629.844,2.6,2.6,0,0,1,.223,1.086A2.735,2.735,0,0,1,4.8-5.875v.031a3.534,3.534,0,0,1,1.055.277,2.814,2.814,0,0,1,.836.559,2.49,2.49,0,0,1,.551.809A2.582,2.582,0,0,1,7.445-3.172Zm9.148-2.477a11.005,11.005,0,0,1-.254,2.492,5.807,5.807,0,0,1-.734,1.832,3.305,3.305,0,0,1-1.18,1.133A3.23,3.23,0,0,1,12.836.2a3.016,3.016,0,0,1-1.5-.371,3.152,3.152,0,0,1-1.113-1.082A5.484,5.484,0,0,1,9.531-3,10.8,10.8,0,0,1,9.3-5.375a12.222,12.222,0,0,1,.246-2.594,5.933,5.933,0,0,1,.723-1.887A3.216,3.216,0,0,1,11.449-11a3.323,3.323,0,0,1,1.621-.387Q16.594-11.391,16.594-5.648Zm-1.312.125q0-4.781-2.273-4.781-2.4,0-2.4,4.867Q10.609-.9,12.961-.9,15.281-.9,15.281-5.523Z" transform="translate(783.909 814.639)" fill="#63666b"/>
    <path id="Path_2940" data-name="Path 2940" d="M6.031-8.266a2.316,2.316,0,0,0-.16-.9A1.78,1.78,0,0,0,5.434-9.8a1.793,1.793,0,0,0-.652-.379,2.555,2.555,0,0,0-.812-.125,2.688,2.688,0,0,0-.734.1,3.57,3.57,0,0,0-.7.281,4.3,4.3,0,0,0-.656.43,4.74,4.74,0,0,0-.59.555v-1.375a3.831,3.831,0,0,1,1.207-.8,4.25,4.25,0,0,1,1.629-.277,3.932,3.932,0,0,1,1.273.2,2.92,2.92,0,0,1,1.016.582,2.691,2.691,0,0,1,.676.945,3.188,3.188,0,0,1,.246,1.289,4.42,4.42,0,0,1-.152,1.2,3.721,3.721,0,0,1-.461,1.016,4.9,4.9,0,0,1-.777.914,11.011,11.011,0,0,1-1.1.891q-.789.563-1.3.961a5.75,5.75,0,0,0-.812.746,2.165,2.165,0,0,0-.422.7,2.43,2.43,0,0,0-.121.8H7.766V0H.852V-.555A4.622,4.622,0,0,1,1.008-1.82a3.286,3.286,0,0,1,.516-1.039,5.767,5.767,0,0,1,.941-.984q.582-.492,1.426-1.109a9.014,9.014,0,0,0,1.02-.836,4.346,4.346,0,0,0,.66-.8,2.862,2.862,0,0,0,.355-.809A3.486,3.486,0,0,0,6.031-8.266ZM16.594-5.648a11.005,11.005,0,0,1-.254,2.492,5.807,5.807,0,0,1-.734,1.832,3.305,3.305,0,0,1-1.18,1.133A3.23,3.23,0,0,1,12.836.2a3.016,3.016,0,0,1-1.5-.371,3.152,3.152,0,0,1-1.113-1.082A5.484,5.484,0,0,1,9.531-3,10.8,10.8,0,0,1,9.3-5.375a12.222,12.222,0,0,1,.246-2.594,5.933,5.933,0,0,1,.723-1.887A3.216,3.216,0,0,1,11.449-11a3.323,3.323,0,0,1,1.621-.387Q16.594-11.391,16.594-5.648Zm-1.312.125q0-4.781-2.273-4.781-2.4,0-2.4,4.867Q10.609-.9,12.961-.9,15.281-.9,15.281-5.523Z" transform="translate(783.909 881.311)" fill="#63666b"/>
    <path id="Path_2941" data-name="Path 2941" d="M5.656,0H4.375V-9.68a2.966,2.966,0,0,1-.434.34,7.068,7.068,0,0,1-.641.379q-.355.188-.75.352a5.451,5.451,0,0,1-.77.258v-1.3a7.448,7.448,0,0,0,.895-.316q.473-.2.93-.445t.863-.516a6.854,6.854,0,0,0,.7-.527h.484ZM16.594-5.648a11.005,11.005,0,0,1-.254,2.492,5.807,5.807,0,0,1-.734,1.832,3.305,3.305,0,0,1-1.18,1.133A3.23,3.23,0,0,1,12.836.2a3.016,3.016,0,0,1-1.5-.371,3.152,3.152,0,0,1-1.113-1.082A5.484,5.484,0,0,1,9.531-3,10.8,10.8,0,0,1,9.3-5.375a12.222,12.222,0,0,1,.246-2.594,5.933,5.933,0,0,1,.723-1.887A3.216,3.216,0,0,1,11.449-11a3.323,3.323,0,0,1,1.621-.387Q16.594-11.391,16.594-5.648Zm-1.312.125q0-4.781-2.273-4.781-2.4,0-2.4,4.867Q10.609-.9,12.961-.9,15.281-.9,15.281-5.523Z" transform="translate(783.909 947.98)" fill="#63666b"/>
    <path id="Path_2942" data-name="Path 2942" d="M7.969-5.648a11.005,11.005,0,0,1-.254,2.492A5.807,5.807,0,0,1,6.98-1.324,3.305,3.305,0,0,1,5.8-.191,3.23,3.23,0,0,1,4.211.2a3.016,3.016,0,0,1-1.5-.371A3.152,3.152,0,0,1,1.594-1.258,5.484,5.484,0,0,1,.906-3,10.8,10.8,0,0,1,.672-5.375,12.222,12.222,0,0,1,.918-7.969a5.933,5.933,0,0,1,.723-1.887A3.216,3.216,0,0,1,2.824-11a3.323,3.323,0,0,1,1.621-.387Q7.969-11.391,7.969-5.648Zm-1.312.125q0-4.781-2.273-4.781-2.4,0-2.4,4.867Q1.984-.9,4.336-.9,6.656-.9,6.656-5.523Z" transform="translate(792.779 1012.975)" fill="#63666b"/>
    <path id="Path_2934" data-name="Path 2934" d="M7.891-10.461q-.258.445-.621,1.109T6.5-7.859q-.406.828-.828,1.781T4.883-4.109q-.367,1.016-.645,2.059A15.315,15.315,0,0,0,3.836,0H2.461a15.579,15.579,0,0,1,.434-2.043q.293-1.043.664-2.047t.785-1.934q.414-.93.8-1.711t.715-1.379q.324-.6.52-.934H.766V-11.2H7.891Zm8.7,4.813a11.005,11.005,0,0,1-.254,2.492,5.807,5.807,0,0,1-.734,1.832,3.305,3.305,0,0,1-1.18,1.133A3.23,3.23,0,0,1,12.836.2a3.016,3.016,0,0,1-1.5-.371,3.152,3.152,0,0,1-1.113-1.082A5.484,5.484,0,0,1,9.531-3,10.8,10.8,0,0,1,9.3-5.375a12.222,12.222,0,0,1,.246-2.594,5.933,5.933,0,0,1,.723-1.887A3.216,3.216,0,0,1,11.449-11a3.323,3.323,0,0,1,1.621-.387Q16.594-11.391,16.594-5.648Zm-1.312.125q0-4.781-2.273-4.781-2.4,0-2.4,4.867Q10.609-.9,12.961-.9,15.281-.9,15.281-5.523Z" transform="translate(783.909 543.059)" fill="#63666b"/>
    <path id="Path_2936" data-name="Path 2936" d="M7.984-3.555a4.15,4.15,0,0,1-.266,1.508A3.624,3.624,0,0,1,6.984-.859a3.281,3.281,0,0,1-1.117.777A3.538,3.538,0,0,1,4.461.2,3.2,3.2,0,0,1,2.949-.156,3.2,3.2,0,0,1,1.816-1.168a4.853,4.853,0,0,1-.707-1.613A8.74,8.74,0,0,1,.867-4.93a10.1,10.1,0,0,1,.324-2.652,6.444,6.444,0,0,1,.922-2.039A4.25,4.25,0,0,1,3.555-10.93a3.862,3.862,0,0,1,1.883-.461,4.535,4.535,0,0,1,1.859.32v1.211A3.949,3.949,0,0,0,5.469-10.3a2.724,2.724,0,0,0-1.352.336,3.1,3.1,0,0,0-1.031.949,4.63,4.63,0,0,0-.66,1.48,7.511,7.511,0,0,0-.23,1.93h.031a2.69,2.69,0,0,1,2.555-1.4,3.363,3.363,0,0,1,1.324.25,2.859,2.859,0,0,1,1.008.707,3.183,3.183,0,0,1,.645,1.09A4.148,4.148,0,0,1,7.984-3.555Zm-1.312.164a3.486,3.486,0,0,0-.148-1.055,2.288,2.288,0,0,0-.426-.8,1.836,1.836,0,0,0-.684-.5,2.3,2.3,0,0,0-.922-.176,2.158,2.158,0,0,0-.883.18,2.2,2.2,0,0,0-.7.488,2.262,2.262,0,0,0-.465.719,2.276,2.276,0,0,0-.168.871,3.475,3.475,0,0,0,.164,1.082A2.8,2.8,0,0,0,2.9-1.7a2.192,2.192,0,0,0,.707.59,1.931,1.931,0,0,0,.91.215A2.084,2.084,0,0,0,5.4-1.082a1.97,1.97,0,0,0,.68-.512,2.369,2.369,0,0,0,.438-.785A3.112,3.112,0,0,0,6.672-3.391Zm9.922-2.258a11.005,11.005,0,0,1-.254,2.492,5.807,5.807,0,0,1-.734,1.832,3.305,3.305,0,0,1-1.18,1.133A3.23,3.23,0,0,1,12.836.2a3.016,3.016,0,0,1-1.5-.371,3.152,3.152,0,0,1-1.113-1.082A5.484,5.484,0,0,1,9.531-3,10.8,10.8,0,0,1,9.3-5.375a12.222,12.222,0,0,1,.246-2.594,5.933,5.933,0,0,1,.723-1.887A3.216,3.216,0,0,1,11.449-11a3.323,3.323,0,0,1,1.621-.387Q16.594-11.391,16.594-5.648Zm-1.312.125q0-4.781-2.273-4.781-2.4,0-2.4,4.867Q10.609-.9,12.961-.9,15.281-.9,15.281-5.523Z" transform="translate(783.909 609.731)" fill="#63666b"/>
    <g id="Group_48" data-name="Group 48" transform="translate(815.095 536.728)">
      <line id="Line_627" data-name="Line 627" x2="9.778" transform="translate(0 341.845)" fill="none" stroke="#63666b" stroke-linejoin="round" stroke-width="0.679"/>
      <line id="Line_628" data-name="Line 628" x2="9.778" transform="translate(0 406.32)" fill="none" stroke="#63666b" stroke-linejoin="round" stroke-width="0.679"/>
      <line id="Line_629" data-name="Line 629" x2="9.778" transform="translate(0 205.796)" fill="none" stroke="#63666b" stroke-linejoin="round" stroke-width="0.679"/>
      <line id="Line_630" data-name="Line 630" x2="9.778" transform="translate(0 272.176)" fill="none" stroke="#63666b" stroke-linejoin="round" stroke-width="0.679"/>
      <line id="Line_631" data-name="Line 631" x2="9.778" fill="none" stroke="#63666b" stroke-linejoin="round" stroke-width="0.679"/>
      <line id="Line_632" data-name="Line 632" x2="9.778" transform="translate(0 65.338)" fill="none" stroke="#63666b" stroke-linejoin="round" stroke-width="0.679"/>
      <line id="Line_633" data-name="Line 633" x2="9.778" transform="translate(0 137.88)" fill="none" stroke="#63666b" stroke-linejoin="round" stroke-width="0.679"/>
    </g>
    <path id="Path_2937" data-name="Path 2937" d="M0,482.129V0" transform="translate(824.75 536.73)" fill="none" stroke="#63666b" stroke-width="0.679"/>
    <path id="Path_565-2" data-name="Path 565" d="M94.728,1790.168v0Z" transform="translate(1634.085 -768.229)" fill="#464749"/>
    <path id="Path_2924" data-name="Path 2924" d="M7.57-3.422a3.771,3.771,0,0,1-.281,1.484A3.245,3.245,0,0,1,6.488-.8a3.586,3.586,0,0,1-1.254.734A4.9,4.9,0,0,1,3.6.2a4.511,4.511,0,0,1-2.32-.469V-1.633A4.266,4.266,0,0,0,3.617-.9a3.161,3.161,0,0,0,1.1-.18,2.439,2.439,0,0,0,.832-.5,2.141,2.141,0,0,0,.527-.773,2.618,2.618,0,0,0,.184-.992,2.125,2.125,0,0,0-.734-1.715A3.221,3.221,0,0,0,3.391-5.68q-.227,0-.477.008t-.5.02q-.25.012-.488.027t-.434.039L1.875-11.2h5.18v1.156H2.984L2.758-6.758q.25-.016.531-.027t.5-.012a5.028,5.028,0,0,1,1.594.234,3.377,3.377,0,0,1,1.191.668,2.8,2.8,0,0,1,.742,1.063A3.737,3.737,0,0,1,7.57-3.422Zm9.023-2.227a11.005,11.005,0,0,1-.254,2.492,5.807,5.807,0,0,1-.734,1.832,3.305,3.305,0,0,1-1.18,1.133A3.23,3.23,0,0,1,12.836.2a3.016,3.016,0,0,1-1.5-.371,3.152,3.152,0,0,1-1.113-1.082A5.484,5.484,0,0,1,9.531-3,10.8,10.8,0,0,1,9.3-5.375a12.222,12.222,0,0,1,.246-2.594,5.933,5.933,0,0,1,.723-1.887A3.216,3.216,0,0,1,11.449-11a3.323,3.323,0,0,1,1.621-.387Q16.594-11.391,16.594-5.648Zm-1.312.125q0-4.781-2.273-4.781-2.4,0-2.4,4.867Q10.609-.9,12.961-.9,15.281-.9,15.281-5.523Z" transform="translate(1245.193 681.297)" fill="#63666b"/>
    <path id="Path_2925" data-name="Path 2925" d="M6.641-11.2v7.4H8.078v1.172H6.641V0H5.375V-2.633H.109V-3.742q.734-.828,1.484-1.77t1.434-1.91q.684-.969,1.266-1.934a17.671,17.671,0,0,0,.98-1.848ZM1.555-3.8h3.82V-9.289Q4.789-8.266,4.266-7.461T3.27-6q-.473.656-.9,1.188T1.555-3.8ZM16.594-5.648a11.005,11.005,0,0,1-.254,2.492,5.807,5.807,0,0,1-.734,1.832,3.305,3.305,0,0,1-1.18,1.133A3.23,3.23,0,0,1,12.836.2a3.016,3.016,0,0,1-1.5-.371,3.152,3.152,0,0,1-1.113-1.082A5.484,5.484,0,0,1,9.531-3,10.8,10.8,0,0,1,9.3-5.375a12.222,12.222,0,0,1,.246-2.594,5.933,5.933,0,0,1,.723-1.887A3.216,3.216,0,0,1,11.449-11a3.323,3.323,0,0,1,1.621-.387Q16.594-11.391,16.594-5.648Zm-1.312.125q0-4.781-2.273-4.781-2.4,0-2.4,4.867Q10.609-.9,12.961-.9,15.281-.9,15.281-5.523Z" transform="translate(1245.193 747.97)" fill="#63666b"/>
    <path id="Path_2926" data-name="Path 2926" d="M7.445-3.172A3.266,3.266,0,0,1,7.16-1.793a3.045,3.045,0,0,1-.8,1.063,3.714,3.714,0,0,1-1.246.684A5.04,5.04,0,0,1,3.508.2,4.654,4.654,0,0,1,.961-.414V-1.789A4.081,4.081,0,0,0,3.555-.9a3.525,3.525,0,0,0,1.059-.148,2.374,2.374,0,0,0,.813-.43,1.909,1.909,0,0,0,.523-.68,2.123,2.123,0,0,0,.184-.9q0-2.2-3.125-2.2h-.93V-6.336h.883q2.766,0,2.766-2.062,0-1.906-2.109-1.906a3.592,3.592,0,0,0-2.227.8V-10.75a4.868,4.868,0,0,1,2.547-.641,3.913,3.913,0,0,1,1.273.2,2.918,2.918,0,0,1,.977.547,2.423,2.423,0,0,1,.629.844,2.6,2.6,0,0,1,.223,1.086A2.735,2.735,0,0,1,4.8-5.875v.031a3.534,3.534,0,0,1,1.055.277,2.814,2.814,0,0,1,.836.559,2.49,2.49,0,0,1,.551.809A2.582,2.582,0,0,1,7.445-3.172Zm9.148-2.477a11.005,11.005,0,0,1-.254,2.492,5.807,5.807,0,0,1-.734,1.832,3.305,3.305,0,0,1-1.18,1.133A3.23,3.23,0,0,1,12.836.2a3.016,3.016,0,0,1-1.5-.371,3.152,3.152,0,0,1-1.113-1.082A5.484,5.484,0,0,1,9.531-3,10.8,10.8,0,0,1,9.3-5.375a12.222,12.222,0,0,1,.246-2.594,5.933,5.933,0,0,1,.723-1.887A3.216,3.216,0,0,1,11.449-11a3.323,3.323,0,0,1,1.621-.387Q16.594-11.391,16.594-5.648Zm-1.312.125q0-4.781-2.273-4.781-2.4,0-2.4,4.867Q10.609-.9,12.961-.9,15.281-.9,15.281-5.523Z" transform="translate(1245.193 814.639)" fill="#63666b"/>
    <path id="Path_2927" data-name="Path 2927" d="M6.031-8.266a2.316,2.316,0,0,0-.16-.9A1.78,1.78,0,0,0,5.434-9.8a1.793,1.793,0,0,0-.652-.379,2.555,2.555,0,0,0-.812-.125,2.688,2.688,0,0,0-.734.1,3.57,3.57,0,0,0-.7.281,4.3,4.3,0,0,0-.656.43,4.74,4.74,0,0,0-.59.555v-1.375a3.831,3.831,0,0,1,1.207-.8,4.25,4.25,0,0,1,1.629-.277,3.932,3.932,0,0,1,1.273.2,2.92,2.92,0,0,1,1.016.582,2.691,2.691,0,0,1,.676.945,3.188,3.188,0,0,1,.246,1.289,4.42,4.42,0,0,1-.152,1.2,3.721,3.721,0,0,1-.461,1.016,4.9,4.9,0,0,1-.777.914,11.011,11.011,0,0,1-1.1.891q-.789.563-1.3.961a5.75,5.75,0,0,0-.812.746,2.165,2.165,0,0,0-.422.7,2.43,2.43,0,0,0-.121.8H7.766V0H.852V-.555A4.622,4.622,0,0,1,1.008-1.82a3.286,3.286,0,0,1,.516-1.039,5.767,5.767,0,0,1,.941-.984q.582-.492,1.426-1.109a9.014,9.014,0,0,0,1.02-.836,4.346,4.346,0,0,0,.66-.8,2.862,2.862,0,0,0,.355-.809A3.486,3.486,0,0,0,6.031-8.266ZM16.594-5.648a11.005,11.005,0,0,1-.254,2.492,5.807,5.807,0,0,1-.734,1.832,3.305,3.305,0,0,1-1.18,1.133A3.23,3.23,0,0,1,12.836.2a3.016,3.016,0,0,1-1.5-.371,3.152,3.152,0,0,1-1.113-1.082A5.484,5.484,0,0,1,9.531-3,10.8,10.8,0,0,1,9.3-5.375a12.222,12.222,0,0,1,.246-2.594,5.933,5.933,0,0,1,.723-1.887A3.216,3.216,0,0,1,11.449-11a3.323,3.323,0,0,1,1.621-.387Q16.594-11.391,16.594-5.648Zm-1.312.125q0-4.781-2.273-4.781-2.4,0-2.4,4.867Q10.609-.9,12.961-.9,15.281-.9,15.281-5.523Z" transform="translate(1245.193 881.311)" fill="#63666b"/>
    <path id="Path_2928" data-name="Path 2928" d="M5.656,0H4.375V-9.68a2.966,2.966,0,0,1-.434.34,7.068,7.068,0,0,1-.641.379q-.355.188-.75.352a5.451,5.451,0,0,1-.77.258v-1.3a7.448,7.448,0,0,0,.895-.316q.473-.2.93-.445t.863-.516a6.854,6.854,0,0,0,.7-.527h.484ZM16.594-5.648a11.005,11.005,0,0,1-.254,2.492,5.807,5.807,0,0,1-.734,1.832,3.305,3.305,0,0,1-1.18,1.133A3.23,3.23,0,0,1,12.836.2a3.016,3.016,0,0,1-1.5-.371,3.152,3.152,0,0,1-1.113-1.082A5.484,5.484,0,0,1,9.531-3,10.8,10.8,0,0,1,9.3-5.375a12.222,12.222,0,0,1,.246-2.594,5.933,5.933,0,0,1,.723-1.887A3.216,3.216,0,0,1,11.449-11a3.323,3.323,0,0,1,1.621-.387Q16.594-11.391,16.594-5.648Zm-1.312.125q0-4.781-2.273-4.781-2.4,0-2.4,4.867Q10.609-.9,12.961-.9,15.281-.9,15.281-5.523Z" transform="translate(1245.193 947.98)" fill="#63666b"/>
    <path id="Path_2929" data-name="Path 2929" d="M7.969-5.648a11.005,11.005,0,0,1-.254,2.492A5.807,5.807,0,0,1,6.98-1.324,3.305,3.305,0,0,1,5.8-.191,3.23,3.23,0,0,1,4.211.2a3.016,3.016,0,0,1-1.5-.371A3.152,3.152,0,0,1,1.594-1.258,5.484,5.484,0,0,1,.906-3,10.8,10.8,0,0,1,.672-5.375,12.222,12.222,0,0,1,.918-7.969a5.933,5.933,0,0,1,.723-1.887A3.216,3.216,0,0,1,2.824-11a3.323,3.323,0,0,1,1.621-.387Q7.969-11.391,7.969-5.648Zm-1.312.125q0-4.781-2.273-4.781-2.4,0-2.4,4.867Q1.984-.9,4.336-.9,6.656-.9,6.656-5.523Z" transform="translate(1254.063 1012.975)" fill="#63666b"/>
    <path id="Path_2933" data-name="Path 2933" d="M7.891-10.461q-.258.445-.621,1.109T6.5-7.859q-.406.828-.828,1.781T4.883-4.109q-.367,1.016-.645,2.059A15.315,15.315,0,0,0,3.836,0H2.461a15.579,15.579,0,0,1,.434-2.043q.293-1.043.664-2.047t.785-1.934q.414-.93.8-1.711t.715-1.379q.324-.6.52-.934H.766V-11.2H7.891Zm8.7,4.813a11.005,11.005,0,0,1-.254,2.492,5.807,5.807,0,0,1-.734,1.832,3.305,3.305,0,0,1-1.18,1.133A3.23,3.23,0,0,1,12.836.2a3.016,3.016,0,0,1-1.5-.371,3.152,3.152,0,0,1-1.113-1.082A5.484,5.484,0,0,1,9.531-3,10.8,10.8,0,0,1,9.3-5.375a12.222,12.222,0,0,1,.246-2.594,5.933,5.933,0,0,1,.723-1.887A3.216,3.216,0,0,1,11.449-11a3.323,3.323,0,0,1,1.621-.387Q16.594-11.391,16.594-5.648Zm-1.312.125q0-4.781-2.273-4.781-2.4,0-2.4,4.867Q10.609-.9,12.961-.9,15.281-.9,15.281-5.523Z" transform="translate(1245.193 543.059)" fill="#63666b"/>
    <path id="Path_2931" data-name="Path 2931" d="M7.984-3.555a4.15,4.15,0,0,1-.266,1.508A3.624,3.624,0,0,1,6.984-.859a3.281,3.281,0,0,1-1.117.777A3.538,3.538,0,0,1,4.461.2,3.2,3.2,0,0,1,2.949-.156,3.2,3.2,0,0,1,1.816-1.168a4.853,4.853,0,0,1-.707-1.613A8.74,8.74,0,0,1,.867-4.93a10.1,10.1,0,0,1,.324-2.652,6.444,6.444,0,0,1,.922-2.039A4.25,4.25,0,0,1,3.555-10.93a3.862,3.862,0,0,1,1.883-.461,4.535,4.535,0,0,1,1.859.32v1.211A3.949,3.949,0,0,0,5.469-10.3a2.724,2.724,0,0,0-1.352.336,3.1,3.1,0,0,0-1.031.949,4.63,4.63,0,0,0-.66,1.48,7.511,7.511,0,0,0-.23,1.93h.031a2.69,2.69,0,0,1,2.555-1.4,3.363,3.363,0,0,1,1.324.25,2.859,2.859,0,0,1,1.008.707,3.183,3.183,0,0,1,.645,1.09A4.148,4.148,0,0,1,7.984-3.555Zm-1.312.164a3.486,3.486,0,0,0-.148-1.055,2.288,2.288,0,0,0-.426-.8,1.836,1.836,0,0,0-.684-.5,2.3,2.3,0,0,0-.922-.176,2.158,2.158,0,0,0-.883.18,2.2,2.2,0,0,0-.7.488,2.262,2.262,0,0,0-.465.719,2.276,2.276,0,0,0-.168.871,3.475,3.475,0,0,0,.164,1.082A2.8,2.8,0,0,0,2.9-1.7a2.192,2.192,0,0,0,.707.59,1.931,1.931,0,0,0,.91.215A2.084,2.084,0,0,0,5.4-1.082a1.97,1.97,0,0,0,.68-.512,2.369,2.369,0,0,0,.438-.785A3.112,3.112,0,0,0,6.672-3.391Zm9.922-2.258a11.005,11.005,0,0,1-.254,2.492,5.807,5.807,0,0,1-.734,1.832,3.305,3.305,0,0,1-1.18,1.133A3.23,3.23,0,0,1,12.836.2a3.016,3.016,0,0,1-1.5-.371,3.152,3.152,0,0,1-1.113-1.082A5.484,5.484,0,0,1,9.531-3,10.8,10.8,0,0,1,9.3-5.375a12.222,12.222,0,0,1,.246-2.594,5.933,5.933,0,0,1,.723-1.887A3.216,3.216,0,0,1,11.449-11a3.323,3.323,0,0,1,1.621-.387Q16.594-11.391,16.594-5.648Zm-1.312.125q0-4.781-2.273-4.781-2.4,0-2.4,4.867Q10.609-.9,12.961-.9,15.281-.9,15.281-5.523Z" transform="translate(1245.193 609.731)" fill="#63666b"/>
    <g id="Group_48-2" data-name="Group 48" transform="translate(1276.379 536.728)">
      <line id="Line_627-2" data-name="Line 627" x2="9.778" transform="translate(0 341.845)" fill="none" stroke="#63666b" stroke-linejoin="round" stroke-width="0.679"/>
      <line id="Line_628-2" data-name="Line 628" x2="9.778" transform="translate(0 406.32)" fill="none" stroke="#63666b" stroke-linejoin="round" stroke-width="0.679"/>
      <line id="Line_629-2" data-name="Line 629" x2="9.778" transform="translate(0 205.796)" fill="none" stroke="#63666b" stroke-linejoin="round" stroke-width="0.679"/>
      <line id="Line_630-2" data-name="Line 630" x2="9.778" transform="translate(0 272.176)" fill="none" stroke="#63666b" stroke-linejoin="round" stroke-width="0.679"/>
      <line id="Line_631-2" data-name="Line 631" x2="9.778" fill="none" stroke="#63666b" stroke-linejoin="round" stroke-width="0.679"/>
      <line id="Line_632-2" data-name="Line 632" x2="9.778" transform="translate(0 65.338)" fill="none" stroke="#63666b" stroke-linejoin="round" stroke-width="0.679"/>
      <line id="Line_633-2" data-name="Line 633" x2="9.778" transform="translate(0 137.88)" fill="none" stroke="#63666b" stroke-linejoin="round" stroke-width="0.679"/>
    </g>
    <path id="Path_2923" data-name="Path 2923" d="M0,482.129V0" transform="translate(1286.034 536.73)" fill="none" stroke="#63666b" stroke-width="0.679"/>
    <path id="Path_2906" data-name="Path 2906" d="M1.625,0l.6-20.25h1.35L7.85-1.975,12.2-20.25h1.4L14.175,0H13l-.5-16.975L8.375,0h-1L3.3-16.95,2.8,0Zm15.7,0V-20.25h7v1.1H18.7v8.125h4.625v1.05H18.7v8.9h5.7V0ZM27.2,0V-20.25h4.425a5.5,5.5,0,0,1,3.15.775,4.069,4.069,0,0,1,1.575,2.1,9.133,9.133,0,0,1,.45,2.95v8.4a9.823,9.823,0,0,1-.45,3.087,4.2,4.2,0,0,1-1.538,2.15A5.152,5.152,0,0,1,31.75,0Zm1.35-1.075h3.125a3.644,3.644,0,0,0,2.45-.7,3.322,3.322,0,0,0,1.05-1.862,12.074,12.074,0,0,0,.25-2.538v-8.15a9.7,9.7,0,0,0-.3-2.562A2.935,2.935,0,0,0,34-18.562a4.063,4.063,0,0,0-2.375-.588H28.55ZM39.95,0V-20.25H41.3V0Zm4.125,0,4.25-20.25H49.9L54.175,0H52.8L51.75-5.6H46.5L45.425,0ZM46.7-6.6h4.875l-2.45-12ZM57,0V-20.25h1.075L64.95-3.15v-17.1h1.2V0H65.075L58.2-17.125V0ZM74.6,0V-20.25h6.975v1.075H75.95v8.15H80.8v1.05H75.95V0ZM88.8.275a5.152,5.152,0,0,1-3.062-.788,4.067,4.067,0,0,1-1.512-2.15A10.358,10.358,0,0,1,83.8-5.75V-14.6a9.474,9.474,0,0,1,.45-3.05,4.008,4.008,0,0,1,1.537-2.075,5.246,5.246,0,0,1,3.012-.75,5.246,5.246,0,0,1,3.013.75A4.008,4.008,0,0,1,93.35-17.65a9.474,9.474,0,0,1,.45,3.05v8.875a10.234,10.234,0,0,1-.425,3.075A4.067,4.067,0,0,1,91.863-.512,5.152,5.152,0,0,1,88.8.275Zm0-1.125a3.746,3.746,0,0,0,2.238-.575,2.934,2.934,0,0,0,1.088-1.613,8.718,8.718,0,0,0,.3-2.413V-14.8a8.583,8.583,0,0,0-.3-2.4,2.9,2.9,0,0,0-1.075-1.587,3.8,3.8,0,0,0-2.25-.562,3.809,3.809,0,0,0-2.237.563A2.871,2.871,0,0,0,85.475-17.2a8.583,8.583,0,0,0-.3,2.4v9.35a8.718,8.718,0,0,0,.3,2.413,2.934,2.934,0,0,0,1.088,1.613A3.746,3.746,0,0,0,88.8-.85ZM97,0V-20.25h1.35V-1.075h6.125V0Zm9.525,0V-20.25h1.35V-1.075H114V0ZM120.45.275a5.152,5.152,0,0,1-3.062-.788,4.067,4.067,0,0,1-1.512-2.15,10.358,10.358,0,0,1-.425-3.087V-14.6a9.474,9.474,0,0,1,.45-3.05,4.008,4.008,0,0,1,1.537-2.075,5.246,5.246,0,0,1,3.012-.75,5.246,5.246,0,0,1,3.013.75A4.008,4.008,0,0,1,125-17.65a9.474,9.474,0,0,1,.45,3.05v8.875a10.234,10.234,0,0,1-.425,3.075,4.067,4.067,0,0,1-1.513,2.138A5.152,5.152,0,0,1,120.45.275Zm0-1.125a3.746,3.746,0,0,0,2.238-.575,2.934,2.934,0,0,0,1.088-1.613,8.718,8.718,0,0,0,.3-2.413V-14.8a8.583,8.583,0,0,0-.3-2.4,2.9,2.9,0,0,0-1.075-1.587,3.8,3.8,0,0,0-2.25-.562,3.809,3.809,0,0,0-2.237.563,2.871,2.871,0,0,0-1.088,1.587,8.583,8.583,0,0,0-.3,2.4v9.35a8.718,8.718,0,0,0,.3,2.413,2.934,2.934,0,0,0,1.088,1.613A3.746,3.746,0,0,0,120.45-.85Zm10.6.85-3.525-20.25h1.2L131.7-2.675,134.95-19.8h1.3L139.6-2.675l2.7-17.575h1.175L140.2,0h-1.15L135.6-17.725,132.225,0Zm13.475-7.975v-1.1h5.15v1.1Zm12.65,8.25A5.976,5.976,0,0,1,154.1-.388a3.55,3.55,0,0,1-1.538-1.8,7.093,7.093,0,0,1-.437-2.563v-15.5h1.35V-4.725a5.956,5.956,0,0,0,.313,1.988,2.6,2.6,0,0,0,1.125,1.388,4.317,4.317,0,0,0,2.262.5,4.066,4.066,0,0,0,2.188-.513,2.863,2.863,0,0,0,1.162-1.388,5.28,5.28,0,0,0,.35-1.975V-20.25H162.2v15.5a6.594,6.594,0,0,1-.475,2.563,3.767,3.767,0,0,1-1.562,1.8A5.732,5.732,0,0,1,157.175.275Zm8.3-.275V-20.25h4.75a5.075,5.075,0,0,1,2.85.688,3.634,3.634,0,0,1,1.438,1.862,8.051,8.051,0,0,1,.412,2.675,8.015,8.015,0,0,1-.412,2.575,4.086,4.086,0,0,1-1.437,2,4.587,4.587,0,0,1-2.825.775h-3.425V0Zm1.35-10.725h3.125a4.214,4.214,0,0,0,2.012-.425,2.615,2.615,0,0,0,1.175-1.363,6.707,6.707,0,0,0,.387-2.512,7.323,7.323,0,0,0-.35-2.538,2.2,2.2,0,0,0-1.125-1.275,4.958,4.958,0,0,0-2.075-.362h-3.15ZM186.9.275a5.152,5.152,0,0,1-3.062-.788,4.067,4.067,0,0,1-1.512-2.15A10.358,10.358,0,0,1,181.9-5.75V-14.6a9.474,9.474,0,0,1,.45-3.05,4.008,4.008,0,0,1,1.538-2.075,5.246,5.246,0,0,1,3.012-.75,5.246,5.246,0,0,1,3.012.75,4.008,4.008,0,0,1,1.538,2.075,9.474,9.474,0,0,1,.45,3.05v8.875a10.234,10.234,0,0,1-.425,3.075,4.067,4.067,0,0,1-1.512,2.138A5.152,5.152,0,0,1,186.9.275Zm0-1.125a3.746,3.746,0,0,0,2.238-.575,2.934,2.934,0,0,0,1.087-1.613,8.718,8.718,0,0,0,.3-2.413V-14.8a8.583,8.583,0,0,0-.3-2.4,2.9,2.9,0,0,0-1.075-1.587,3.8,3.8,0,0,0-2.25-.562,3.809,3.809,0,0,0-2.238.563,2.871,2.871,0,0,0-1.087,1.587,8.583,8.583,0,0,0-.3,2.4v9.35a8.718,8.718,0,0,0,.3,2.413,2.934,2.934,0,0,0,1.087,1.613A3.746,3.746,0,0,0,186.9-.85Zm8.2.85V-20.25h6.975v1.075H196.45v8.15h4.85v1.05h-4.85V0Zm13.775,0V-1L214.5-9.55q.625-.95,1.175-1.862a9.71,9.71,0,0,0,.888-1.913,7.013,7.013,0,0,0,.337-2.25,4.38,4.38,0,0,0-.788-2.775,2.738,2.738,0,0,0-2.287-1,3.581,3.581,0,0,0-2.187.575,2.922,2.922,0,0,0-1.05,1.6,9.383,9.383,0,0,0-.312,2.35v.325h-1.3v-.4a8.366,8.366,0,0,1,.5-3.113,3.622,3.622,0,0,1,1.563-1.85,5.435,5.435,0,0,1,2.738-.613,4.081,4.081,0,0,1,3.325,1.35,5.689,5.689,0,0,1,1.125,3.75,6.748,6.748,0,0,1-.375,2.262,12.01,12.01,0,0,1-.95,2.05q-.575.988-1.2,1.938l-5.3,8h7.425V0ZM226.2.275A4.68,4.68,0,0,1,223.325-.5,4,4,0,0,1,221.9-2.625a10.831,10.831,0,0,1-.4-3.075v-8.85a10.081,10.081,0,0,1,.425-3.075,4.042,4.042,0,0,1,1.462-2.087,4.653,4.653,0,0,1,2.813-.763,4.7,4.7,0,0,1,2.838.763,4.042,4.042,0,0,1,1.462,2.087,10.081,10.081,0,0,1,.425,3.075V-5.7a10.83,10.83,0,0,1-.4,3.075A4,4,0,0,1,229.1-.5,4.727,4.727,0,0,1,226.2.275Zm0-1.025a3.045,3.045,0,0,0,2.025-.613,3.3,3.3,0,0,0,1.025-1.675,8.992,8.992,0,0,0,.3-2.438V-14.75a8.992,8.992,0,0,0-.3-2.438,3.225,3.225,0,0,0-1.025-1.662,3.089,3.089,0,0,0-2.025-.6,3.047,3.047,0,0,0-2,.6,3.3,3.3,0,0,0-1.037,1.662,8.653,8.653,0,0,0-.312,2.438v9.275a8.653,8.653,0,0,0,.313,2.438A3.371,3.371,0,0,0,224.2-1.363,3,3,0,0,0,226.2-.75Zm7.825.75V-2.6H235.5V0Zm8.9.275a4.508,4.508,0,0,1-2.462-.6A3.436,3.436,0,0,1,239.1-1.988a6.748,6.748,0,0,1-.425-2.512v-.375h1.25v.4a6.274,6.274,0,0,0,.325,2,2.407,2.407,0,0,0,.963,1.25,3.123,3.123,0,0,0,1.712.425,3.649,3.649,0,0,0,1.7-.388,2.69,2.69,0,0,0,1.188-1.388,7.18,7.18,0,0,0,.438-2.8,6.7,6.7,0,0,0-.725-3.313A2.7,2.7,0,0,0,243-10h-.575v-1.175H243a2.87,2.87,0,0,0,2.513-1.037,5.759,5.759,0,0,0,.737-3.287,5.357,5.357,0,0,0-.662-2.8,2.529,2.529,0,0,0-2.363-1.1,3.294,3.294,0,0,0-2.45.838,4.043,4.043,0,0,0-.85,2.837v.3h-1.25v-.325a6.673,6.673,0,0,1,.425-2.488,3.28,3.28,0,0,1,1.425-1.65,5.261,5.261,0,0,1,2.675-.588,4.406,4.406,0,0,1,2.525.663,3.9,3.9,0,0,1,1.438,1.788,6.586,6.586,0,0,1,.462,2.525A6.17,6.17,0,0,1,246.8-12a3.252,3.252,0,0,1-2.05,1.45,3.217,3.217,0,0,1,1.313.7,4.143,4.143,0,0,1,1.113,1.625,7.421,7.421,0,0,1,.45,2.825,8.452,8.452,0,0,1-.475,2.937,4.148,4.148,0,0,1-1.5,2.013A4.628,4.628,0,0,1,242.925.275ZM255.45,0l.6-20.25h1.35l4.275,18.275,4.35-18.275h1.4L268,0h-1.175l-.5-16.975L262.2,0h-1l-4.075-16.95L256.625,0Zm20.4.275a5.152,5.152,0,0,1-3.062-.788,4.067,4.067,0,0,1-1.513-2.15,10.358,10.358,0,0,1-.425-3.087V-14.6a9.474,9.474,0,0,1,.45-3.05,4.008,4.008,0,0,1,1.538-2.075,5.246,5.246,0,0,1,3.013-.75,5.246,5.246,0,0,1,3.012.75A4.008,4.008,0,0,1,280.4-17.65a9.473,9.473,0,0,1,.45,3.05v8.875a10.233,10.233,0,0,1-.425,3.075,4.067,4.067,0,0,1-1.512,2.138A5.152,5.152,0,0,1,275.85.275Zm0-1.125a3.746,3.746,0,0,0,2.237-.575,2.934,2.934,0,0,0,1.087-1.613,8.717,8.717,0,0,0,.3-2.413V-14.8a8.583,8.583,0,0,0-.3-2.4,2.9,2.9,0,0,0-1.075-1.587,3.8,3.8,0,0,0-2.25-.562,3.809,3.809,0,0,0-2.238.563,2.871,2.871,0,0,0-1.087,1.587,8.584,8.584,0,0,0-.3,2.4v9.35a8.719,8.719,0,0,0,.3,2.413,2.934,2.934,0,0,0,1.087,1.613A3.746,3.746,0,0,0,275.85-.85Zm8.2.85V-20.25h1.075L292-3.15v-17.1h1.2V0h-1.075L285.25-17.125V0Zm15.725,0V-19.15h-4.05v-1.1h9.35v1.1h-3.95V0Zm7.85,0V-20.25H309v9.125h7.1V-20.25h1.35V0H316.1V-10.075H309V0ZM325.15.25a4.89,4.89,0,0,1-2.637-.65,4.116,4.116,0,0,1-1.575-1.825A8.179,8.179,0,0,1,320.275-5l1.175-.375a11.638,11.638,0,0,0,.538,2.35A3.292,3.292,0,0,0,323.1-1.437a3.391,3.391,0,0,0,2.075.563,3.479,3.479,0,0,0,2.362-.75,3.162,3.162,0,0,0,.862-2.5,4.3,4.3,0,0,0-.687-2.388A13.809,13.809,0,0,0,325.775-8.8l-3.7-3.675a6.69,6.69,0,0,1-1.35-1.9,4.729,4.729,0,0,1-.425-1.95,3.853,3.853,0,0,1,1.237-3.075,4.722,4.722,0,0,1,3.212-1.075,6.087,6.087,0,0,1,1.85.263,3.643,3.643,0,0,1,1.438.85A3.989,3.989,0,0,1,329-17.8a9.054,9.054,0,0,1,.45,2.4l-1.15.275a8.072,8.072,0,0,0-.475-2.375,2.85,2.85,0,0,0-1.1-1.413,3.592,3.592,0,0,0-1.95-.462,3.7,3.7,0,0,0-2.3.7,2.64,2.64,0,0,0-.925,2.25,3.752,3.752,0,0,0,.313,1.5,5.333,5.333,0,0,0,1.162,1.575l3.65,3.6a15.2,15.2,0,0,1,2.112,2.562,5.363,5.363,0,0,1,.888,2.988,4.939,4.939,0,0,1-.575,2.513,3.531,3.531,0,0,1-1.6,1.463A5.531,5.531,0,0,1,325.15.25Zm15.975,3.425a3.139,3.139,0,0,1-1.85-.737,4.157,4.157,0,0,1-1.125-1.713,11.512,11.512,0,0,1-.587-2.538,30.694,30.694,0,0,1-.225-3.238q-.037-1.775-.038-3.775,0-2.025.038-3.825a31.7,31.7,0,0,1,.225-3.287,11.765,11.765,0,0,1,.587-2.575,3.953,3.953,0,0,1,1.125-1.7,2.983,2.983,0,0,1,1.85-.663v.975a1.949,1.949,0,0,0-1.475,1.013,6.642,6.642,0,0,0-.75,2.375,26.752,26.752,0,0,0-.262,3.45Q338.6-10.6,338.6-8.325t.038,4.237A26.425,26.425,0,0,0,338.9-.65a6.808,6.808,0,0,0,.738,2.363,1.929,1.929,0,0,0,1.487,1.013ZM343.775,0V-20.25h4.9a4.849,4.849,0,0,1,2.763.663,3.361,3.361,0,0,1,1.325,1.8,8.332,8.332,0,0,1,.363,2.538,9.5,9.5,0,0,1-.238,2.15,3.861,3.861,0,0,1-.875,1.738,3.067,3.067,0,0,1-1.862.912L353.4,0h-1.35L348.9-10.2h-3.775V0Zm1.35-11.25h3.5a3.353,3.353,0,0,0,1.975-.488,2.517,2.517,0,0,0,.938-1.387,7.635,7.635,0,0,0,.262-2.125,5.482,5.482,0,0,0-.637-2.925,2.823,2.823,0,0,0-2.562-1h-3.475ZM355.4,0l4.25-20.25h1.575L365.5,0h-1.375l-1.05-5.6h-5.25L356.75,0Zm2.625-6.6H362.9l-2.45-12ZM368.175,0V-20.25h1.075l6.875,17.1v-17.1h1.2V0H376.25l-6.875-17.125V0Zm17.3.275A4.88,4.88,0,0,1,382.5-.512,4.083,4.083,0,0,1,381.038-2.7a11.236,11.236,0,0,1-.412-3.175v-8.6a10.716,10.716,0,0,1,.412-3.125,3.9,3.9,0,0,1,1.488-2.112,5.169,5.169,0,0,1,3.025-.763,4.84,4.84,0,0,1,2.788.7,3.83,3.83,0,0,1,1.45,2,9.668,9.668,0,0,1,.438,3.075v.7h-1.3v-.775a8.976,8.976,0,0,0-.3-2.512,2.808,2.808,0,0,0-1.025-1.538,3.451,3.451,0,0,0-2.05-.525,3.565,3.565,0,0,0-2.25.612,2.978,2.978,0,0,0-1.038,1.7A10.772,10.772,0,0,0,382-14.525V-5.7a9.7,9.7,0,0,0,.3,2.563,3.1,3.1,0,0,0,1.075,1.688,3.526,3.526,0,0,0,2.2.6,3.327,3.327,0,0,0,2.087-.575,2.994,2.994,0,0,0,1.025-1.65,9.954,9.954,0,0,0,.287-2.55V-8.6H385.75V-9.65h4.5V0h-.875l-.2-2.275a3.781,3.781,0,0,1-1.237,1.863A3.868,3.868,0,0,1,385.475.275Zm8.3-.275V-20.25h7v1.1H395.15v8.125h4.625v1.05H395.15v8.9h5.7V0Zm9.7,2.675-.35-.575a2.554,2.554,0,0,0,.85-.913,2.9,2.9,0,0,0,.2-1.188h-.9V-2.625h1.6v2.35a4.387,4.387,0,0,1-.3,1.8A2.767,2.767,0,0,1,403.475,2.675ZM415.05,0V-18.425a2.576,2.576,0,0,1-.625.613,5.413,5.413,0,0,1-.85.5q-.45.213-.837.363a5.469,5.469,0,0,1-.587.2V-17.9a5.29,5.29,0,0,0,.737-.3,5.4,5.4,0,0,0,.838-.513,7.986,7.986,0,0,0,.825-.7,5.115,5.115,0,0,0,.7-.838h1.15V0Zm10.6.225a4.609,4.609,0,0,1-2.437-.575,3.335,3.335,0,0,1-1.375-1.738A8.175,8.175,0,0,1,421.4-4.95h1.3a7.624,7.624,0,0,0,.3,2.338,2.449,2.449,0,0,0,.975,1.35,3.167,3.167,0,0,0,1.75.438,2.845,2.845,0,0,0,1.875-.563,3.169,3.169,0,0,0,.962-1.75A13.387,13.387,0,0,0,428.85-6.2a12.689,12.689,0,0,0-.338-3.313,2.891,2.891,0,0,0-1.025-1.663,2.942,2.942,0,0,0-1.712-.475,3.226,3.226,0,0,0-1.5.375,3.756,3.756,0,0,0-1.35,1.325H421.85v-10.3h7.35l-.025,1.15h-6.2l-.05,7.875a3.891,3.891,0,0,1,1.2-1.025,3.948,3.948,0,0,1,2-.45,3.539,3.539,0,0,1,2.313.725,4.178,4.178,0,0,1,1.3,2.137,12.726,12.726,0,0,1,.413,3.512,14.185,14.185,0,0,1-.263,2.913,5.619,5.619,0,0,1-.825,2.05,3.45,3.45,0,0,1-1.4,1.2A4.764,4.764,0,0,1,425.65.225ZM433.225,0V-2.6H434.7V0Zm9.225.275A4.68,4.68,0,0,1,439.575-.5a4,4,0,0,1-1.425-2.125,10.831,10.831,0,0,1-.4-3.075v-8.85a10.081,10.081,0,0,1,.425-3.075,4.042,4.042,0,0,1,1.463-2.087,4.653,4.653,0,0,1,2.813-.763,4.7,4.7,0,0,1,2.837.763,4.041,4.041,0,0,1,1.462,2.087,10.081,10.081,0,0,1,.425,3.075V-5.7a10.831,10.831,0,0,1-.4,3.075A4,4,0,0,1,445.35-.5,4.727,4.727,0,0,1,442.45.275Zm0-1.025a3.045,3.045,0,0,0,2.025-.613A3.3,3.3,0,0,0,445.5-3.038a8.992,8.992,0,0,0,.3-2.438V-14.75a8.992,8.992,0,0,0-.3-2.438,3.225,3.225,0,0,0-1.025-1.662,3.089,3.089,0,0,0-2.025-.6,3.047,3.047,0,0,0-2,.6,3.3,3.3,0,0,0-1.038,1.662,8.652,8.652,0,0,0-.312,2.438v9.275a8.652,8.652,0,0,0,.313,2.438,3.371,3.371,0,0,0,1.038,1.675A3,3,0,0,0,442.45-.75Zm7.45-7.225v-1.1h5.15v1.1ZM457.35,0V-1l5.625-8.55q.625-.95,1.175-1.862a9.71,9.71,0,0,0,.888-1.913,7.012,7.012,0,0,0,.337-2.25,4.38,4.38,0,0,0-.788-2.775,2.738,2.738,0,0,0-2.288-1,3.581,3.581,0,0,0-2.187.575,2.922,2.922,0,0,0-1.05,1.6,9.383,9.383,0,0,0-.312,2.35v.325h-1.3v-.4a8.366,8.366,0,0,1,.5-3.113,3.622,3.622,0,0,1,1.563-1.85,5.435,5.435,0,0,1,2.737-.613,4.081,4.081,0,0,1,3.325,1.35,5.689,5.689,0,0,1,1.125,3.75,6.748,6.748,0,0,1-.375,2.262,12.01,12.01,0,0,1-.95,2.05q-.575.988-1.2,1.938l-5.3,8H466.3V0Zm17.125.275a4.691,4.691,0,0,1-2.712-.7,3.9,3.9,0,0,1-1.462-1.95,8.547,8.547,0,0,1-.45-2.9,8.313,8.313,0,0,1,.3-2.45,4.231,4.231,0,0,1,.788-1.512,3.787,3.787,0,0,1,1.038-.863A11.388,11.388,0,0,1,473-10.6a3.934,3.934,0,0,1-2.175-1.6A5.7,5.7,0,0,1,470-15.475a7.4,7.4,0,0,1,.413-2.538,3.581,3.581,0,0,1,1.4-1.8,4.716,4.716,0,0,1,2.663-.663,4.527,4.527,0,0,1,2.638.675,3.691,3.691,0,0,1,1.375,1.825A7.588,7.588,0,0,1,478.9-15.4a5.535,5.535,0,0,1-.812,3.213,4.057,4.057,0,0,1-2.162,1.587,11.393,11.393,0,0,1,1.025.5,3.627,3.627,0,0,1,1.025.863,4.513,4.513,0,0,1,.788,1.512,8,8,0,0,1,.313,2.45,8.547,8.547,0,0,1-.45,2.9,3.9,3.9,0,0,1-1.462,1.95A4.642,4.642,0,0,1,474.475.275Zm0-1.075a3.42,3.42,0,0,0,1.737-.425,2.738,2.738,0,0,0,1.138-1.413,7.25,7.25,0,0,0,.4-2.663,7.812,7.812,0,0,0-.325-2.4,3.414,3.414,0,0,0-1.038-1.6,3.451,3.451,0,0,0-1.913-.725,3.587,3.587,0,0,0-1.937.725,3.333,3.333,0,0,0-1.062,1.6,7.811,7.811,0,0,0-.325,2.4,7.05,7.05,0,0,0,.413,2.663,2.775,2.775,0,0,0,1.163,1.413A3.489,3.489,0,0,0,474.475-.8Zm0-10.375a3.238,3.238,0,0,0,1.85-.612,2.994,2.994,0,0,0,.975-1.475,7.1,7.1,0,0,0,.3-2.162,4.666,4.666,0,0,0-.775-2.987,2.873,2.873,0,0,0-2.35-.937,2.9,2.9,0,0,0-2.375.938,4.666,4.666,0,0,0-.775,2.987,7.386,7.386,0,0,0,.288,2.162,2.855,2.855,0,0,0,.987,1.475A3.367,3.367,0,0,0,474.475-11.175ZM482.35,0V-2.6h1.475V0Zm6.075,0,4.125-19.15H486v-1.1h7.925v.675L489.725,0Zm7.75,3.675v-.95a1.949,1.949,0,0,0,1.475-1.013,6.642,6.642,0,0,0,.75-2.375,26.752,26.752,0,0,0,.263-3.45q.037-1.963.037-4.238t-.037-4.238a26.425,26.425,0,0,0-.263-3.437,6.624,6.624,0,0,0-.75-2.362,1.949,1.949,0,0,0-1.475-1.013v-.975a2.983,2.983,0,0,1,1.85.663,4.047,4.047,0,0,1,1.138,1.7,11.261,11.261,0,0,1,.6,2.563,31.289,31.289,0,0,1,.225,3.275q.037,1.8.038,3.825,0,2-.038,3.775a31.107,31.107,0,0,1-.225,3.25,11.04,11.04,0,0,1-.6,2.55,4.26,4.26,0,0,1-1.138,1.713A3.139,3.139,0,0,1,496.175,3.675Z" transform="translate(984 1094)" fill="#823695"/>
    <path id="Path_2916" data-name="Path 2916" d="M-53.676.462A8.655,8.655,0,0,1-58.821-.861a6.833,6.833,0,0,1-2.541-3.612,17.4,17.4,0,0,1-.714-5.187V-24.528a15.916,15.916,0,0,1,.756-5.124,6.734,6.734,0,0,1,2.583-3.486,8.813,8.813,0,0,1,5.061-1.26,8.813,8.813,0,0,1,5.061,1.26,6.734,6.734,0,0,1,2.583,3.486,15.916,15.916,0,0,1,.756,5.124v14.91a17.193,17.193,0,0,1-.714,5.166A6.833,6.833,0,0,1-48.531-.861,8.655,8.655,0,0,1-53.676.462Zm0-1.89a6.294,6.294,0,0,0,3.759-.966A4.93,4.93,0,0,0-48.09-5.1a14.646,14.646,0,0,0,.5-4.053V-24.864a14.419,14.419,0,0,0-.5-4.032A4.864,4.864,0,0,0-49.9-31.563a6.383,6.383,0,0,0-3.78-.945,6.4,6.4,0,0,0-3.759.945A4.823,4.823,0,0,0-59.262-28.9a14.419,14.419,0,0,0-.5,4.032V-9.156a14.646,14.646,0,0,0,.5,4.053,4.93,4.93,0,0,0,1.827,2.709A6.294,6.294,0,0,0-53.676-1.428ZM-40.026,0V-34.02h8.232a8.147,8.147,0,0,1,4.641,1.113,5.647,5.647,0,0,1,2.226,3.024,14,14,0,0,1,.609,4.263,15.957,15.957,0,0,1-.4,3.612,6.486,6.486,0,0,1-1.47,2.919,5.153,5.153,0,0,1-3.129,1.533L-23.856,0h-2.268l-5.292-17.136h-6.342V0Zm2.268-18.9h5.88a5.633,5.633,0,0,0,3.318-.819,4.229,4.229,0,0,0,1.575-2.331,12.826,12.826,0,0,0,.441-3.57,9.209,9.209,0,0,0-1.071-4.914q-1.071-1.68-4.305-1.68h-5.838ZM-18.942,0V-34.02h8.232a8.147,8.147,0,0,1,4.641,1.113,5.647,5.647,0,0,1,2.226,3.024,14,14,0,0,1,.609,4.263,15.957,15.957,0,0,1-.4,3.612A6.486,6.486,0,0,1-5.1-19.089a5.153,5.153,0,0,1-3.129,1.533L-2.772,0H-5.04l-5.292-17.136h-6.342V0Zm2.268-18.9h5.88a5.633,5.633,0,0,0,3.318-.819A4.229,4.229,0,0,0-5.9-22.05a12.826,12.826,0,0,0,.441-3.57,9.209,9.209,0,0,0-1.071-4.914q-1.071-1.68-4.305-1.68h-5.838ZM3.444-20.664l-1.428-.924,3.864-5.04L.462-28.812l.588-1.47,5.25,2.52-.252-6.216H7.854l-.336,6.216,5.166-2.52.588,1.47L7.9-26.628,11.76-21.5l-1.428.84L6.888-26.04ZM34.986,0V-10.458h-10.5V-12.6L34.608-34.02h2.6v21.5H41.16v2.058H37.212V0ZM26.838-12.516h8.148V-30.744ZM54.222.462a9.08,9.08,0,0,1-4.158-.84A5.289,5.289,0,0,1,47.628-2.94a10.176,10.176,0,0,1-.8-4.284V-7.98h2.142q0,3.738,1.176,5.166t4.116,1.428a5.45,5.45,0,0,0,2.688-.63,4.155,4.155,0,0,0,1.764-2.226,12.676,12.676,0,0,0,.63-4.494v-7.182a8.469,8.469,0,0,1-2.079,1.176,9.39,9.39,0,0,1-3.717.63,8.419,8.419,0,0,1-4.368-.966,5.434,5.434,0,0,1-2.289-3.234,21.915,21.915,0,0,1-.693-6.174,15.811,15.811,0,0,1,.8-5.355,6.677,6.677,0,0,1,2.541-3.381A8,8,0,0,1,54.1-34.4a7.26,7.26,0,0,1,4.326,1.176,6.684,6.684,0,0,1,2.394,3.465,18.529,18.529,0,0,1,.756,5.733V-9.2a16.241,16.241,0,0,1-.735,5.166A6.553,6.553,0,0,1,58.506-.693,7.16,7.16,0,0,1,54.222.462Zm-.168-16.38a8.126,8.126,0,0,0,3.3-.588,9.118,9.118,0,0,0,1.995-1.134v-6.342a17.973,17.973,0,0,0-.588-5.208,4.541,4.541,0,0,0-1.743-2.583,5.343,5.343,0,0,0-2.919-.735,6.04,6.04,0,0,0-3.024.714,4.47,4.47,0,0,0-1.911,2.415,13.352,13.352,0,0,0-.651,4.641,28.055,28.055,0,0,0,.378,5.166,4.276,4.276,0,0,0,1.575,2.793A6.148,6.148,0,0,0,54.054-15.918Z" transform="translate(1006 620.351)" fill="#823695"/>
    <path id="Path_2915" data-name="Path 2915" d="M4.935,3.087a2.637,2.637,0,0,1-1.554-.619,3.492,3.492,0,0,1-.945-1.439A9.67,9.67,0,0,1,1.942-1.1a25.784,25.784,0,0,1-.189-2.72q-.032-1.491-.032-3.171,0-1.7.032-3.213a26.633,26.633,0,0,1,.189-2.761,9.883,9.883,0,0,1,.494-2.163,3.321,3.321,0,0,1,.945-1.428,2.505,2.505,0,0,1,1.554-.557v.819a1.637,1.637,0,0,0-1.239.851,5.579,5.579,0,0,0-.63,1.995,22.472,22.472,0,0,0-.22,2.9Q2.814-8.9,2.814-6.993t.032,3.559a22.2,22.2,0,0,0,.22,2.888,5.719,5.719,0,0,0,.619,1.985,1.62,1.62,0,0,0,1.25.85ZM6.342,0V-12.138H7.455v1.3a4.67,4.67,0,0,1,1.3-1.082,3.185,3.185,0,0,1,1.575-.409,1.838,1.838,0,0,1,.976.262,1.773,1.773,0,0,1,.682.84,3.921,3.921,0,0,1,.252,1.543V0H11.13V-9.555a2.391,2.391,0,0,0-.347-1.512,1.175,1.175,0,0,0-.935-.4,2.394,2.394,0,0,0-1.228.367,5,5,0,0,0-1.166.976V0Zm7.6-9.471V-10.4H20.1v.924Zm0,3.423v-.945H20.1v.945ZM25.7.231a3.787,3.787,0,0,1-2.068-.5,2.886,2.886,0,0,1-1.145-1.4,5.669,5.669,0,0,1-.357-2.111V-4.1h1.05v.336a5.27,5.27,0,0,0,.273,1.68,2.022,2.022,0,0,0,.809,1.05A2.623,2.623,0,0,0,25.7-.672,3.065,3.065,0,0,0,27.132-1a2.26,2.26,0,0,0,1-1.166A6.031,6.031,0,0,0,28.5-4.515,5.63,5.63,0,0,0,27.888-7.3a2.267,2.267,0,0,0-2.121-1.1h-.483v-.987h.483a2.411,2.411,0,0,0,2.11-.872,4.837,4.837,0,0,0,.62-2.761,4.5,4.5,0,0,0-.557-2.352,2.124,2.124,0,0,0-1.984-.924,2.767,2.767,0,0,0-2.058.7,3.4,3.4,0,0,0-.714,2.383v.252h-1.05v-.273a5.605,5.605,0,0,1,.357-2.089,2.756,2.756,0,0,1,1.2-1.386,4.419,4.419,0,0,1,2.247-.493,3.7,3.7,0,0,1,2.121.557,3.278,3.278,0,0,1,1.208,1.5,5.532,5.532,0,0,1,.389,2.121,5.183,5.183,0,0,1-.693,2.94,2.732,2.732,0,0,1-1.722,1.218,2.7,2.7,0,0,1,1.1.588,3.48,3.48,0,0,1,.934,1.365,6.234,6.234,0,0,1,.378,2.373,7.1,7.1,0,0,1-.4,2.468,3.485,3.485,0,0,1-1.26,1.691A3.887,3.887,0,0,1,25.7.231ZM37.485,0V-5.229h-5.25V-6.3L37.3-17.01h1.3V-6.258h1.974v1.029H38.6V0ZM33.411-6.258h4.074v-9.114ZM43.155.357l-.294-.483a1.866,1.866,0,0,0,.724-.693,2.345,2.345,0,0,0,.158-.966h-.714V-3.822h1.323v1.785a3.748,3.748,0,0,1-.241,1.5A1.931,1.931,0,0,1,43.155.357ZM43.029-9.2v-2.184h1.239V-9.2ZM55.083.231A4.54,4.54,0,0,1,53-.189,2.644,2.644,0,0,1,51.786-1.47a5.088,5.088,0,0,1-.4-2.142V-3.99h1.071a4.191,4.191,0,0,0,.588,2.583A2.54,2.54,0,0,0,55.1-.693a2.725,2.725,0,0,0,1.344-.315,2.077,2.077,0,0,0,.882-1.113,6.338,6.338,0,0,0,.315-2.247V-7.959a4.235,4.235,0,0,1-1.04.588,4.7,4.7,0,0,1-1.858.315,4.21,4.21,0,0,1-2.184-.483,2.717,2.717,0,0,1-1.145-1.617,10.958,10.958,0,0,1-.346-3.087,7.906,7.906,0,0,1,.4-2.678,3.339,3.339,0,0,1,1.271-1.69A4,4,0,0,1,55.02-17.2a3.63,3.63,0,0,1,2.163.588,3.342,3.342,0,0,1,1.2,1.732,9.265,9.265,0,0,1,.378,2.866V-4.6a8.121,8.121,0,0,1-.368,2.583,3.277,3.277,0,0,1-1.166,1.67A3.58,3.58,0,0,1,55.083.231ZM55-7.959a4.063,4.063,0,0,0,1.648-.294,4.559,4.559,0,0,0,1-.567v-3.171a8.987,8.987,0,0,0-.294-2.6,2.27,2.27,0,0,0-.872-1.292,2.672,2.672,0,0,0-1.459-.368,3.02,3.02,0,0,0-1.512.357,2.235,2.235,0,0,0-.955,1.207,6.676,6.676,0,0,0-.326,2.32,14.027,14.027,0,0,0,.189,2.583,2.138,2.138,0,0,0,.787,1.4A3.074,3.074,0,0,0,55-7.959ZM65.184.189a3.871,3.871,0,0,1-2.047-.483,2.8,2.8,0,0,1-1.155-1.46,6.866,6.866,0,0,1-.368-2.4h1.092a6.4,6.4,0,0,0,.252,1.964,2.057,2.057,0,0,0,.819,1.134,2.66,2.66,0,0,0,1.47.368,2.39,2.39,0,0,0,1.575-.473,2.662,2.662,0,0,0,.809-1.47,11.246,11.246,0,0,0,.242-2.572,10.659,10.659,0,0,0-.284-2.783,2.429,2.429,0,0,0-.861-1.4,2.471,2.471,0,0,0-1.438-.4,2.71,2.71,0,0,0-1.26.315A3.155,3.155,0,0,0,62.9-8.358h-.9V-17.01h6.174l-.021.966H62.937L62.9-9.429A3.268,3.268,0,0,1,63.9-10.29a3.317,3.317,0,0,1,1.68-.378,2.973,2.973,0,0,1,1.942.609,3.51,3.51,0,0,1,1.092,1.8,10.69,10.69,0,0,1,.347,2.95,11.916,11.916,0,0,1-.221,2.447,4.72,4.72,0,0,1-.693,1.722A2.9,2.9,0,0,1,66.875-.137,4,4,0,0,1,65.184.189ZM73.4,0l5.817-17.22H80.22L74.445,0Zm-.231-8.757a1.784,1.784,0,0,1-1.69-.819A4.07,4.07,0,0,1,71-11.634v-2.982a3.815,3.815,0,0,1,.483-2.037,1.819,1.819,0,0,1,1.68-.777,1.771,1.771,0,0,1,1.648.777,3.837,3.837,0,0,1,.473,2.016v3.024a4.085,4.085,0,0,1-.462,2.047A1.745,1.745,0,0,1,73.164-8.757Zm0-.882a.894.894,0,0,0,.661-.241,1.394,1.394,0,0,0,.347-.672,4.34,4.34,0,0,0,.1-1.019v-3.087a3.275,3.275,0,0,0-.241-1.376.879.879,0,0,0-.872-.514.893.893,0,0,0-.893.525,3.289,3.289,0,0,0-.241,1.365v3.087a4.34,4.34,0,0,0,.1,1.019,1.347,1.347,0,0,0,.357.672A.931.931,0,0,0,73.164-9.639ZM80.451.126a1.766,1.766,0,0,1-1.68-.809,4.085,4.085,0,0,1-.462-2.048V-5.712a3.883,3.883,0,0,1,.472-2.037,1.793,1.793,0,0,1,1.67-.777,1.806,1.806,0,0,1,1.659.766,3.759,3.759,0,0,1,.483,2.027v3.024a4.025,4.025,0,0,1-.462,2.037A1.774,1.774,0,0,1,80.451.126Zm0-.861a.894.894,0,0,0,.661-.242,1.394,1.394,0,0,0,.346-.672,4.34,4.34,0,0,0,.105-1.018V-5.754a3.275,3.275,0,0,0-.242-1.376.879.879,0,0,0-.871-.515.9.9,0,0,0-.893.515,3.275,3.275,0,0,0-.242,1.376v3.087a4.34,4.34,0,0,0,.105,1.018,1.347,1.347,0,0,0,.357.672A.931.931,0,0,0,80.451-.735ZM92.8.231a4.124,4.124,0,0,1-2.573-.693A3.513,3.513,0,0,1,89-2.321a9.267,9.267,0,0,1-.336-2.572v-7.224a8.779,8.779,0,0,1,.357-2.615,3.438,3.438,0,0,1,1.26-1.806A4.2,4.2,0,0,1,92.8-17.2a4.014,4.014,0,0,1,2.331.588,3.185,3.185,0,0,1,1.2,1.669,8.087,8.087,0,0,1,.357,2.531v.861H95.592v-.861a7.993,7.993,0,0,0-.231-2.069,2.363,2.363,0,0,0-.84-1.312,2.8,2.8,0,0,0-1.722-.462,3,3,0,0,0-1.869.5,2.5,2.5,0,0,0-.882,1.407,8.525,8.525,0,0,0-.231,2.1v7.518a8,8,0,0,0,.252,2.153,2.491,2.491,0,0,0,.9,1.375A3.016,3.016,0,0,0,92.8-.714,2.749,2.749,0,0,0,94.542-1.2a2.424,2.424,0,0,0,.829-1.355,8.313,8.313,0,0,0,.221-2.026V-5.607h1.092v.84a9.1,9.1,0,0,1-.336,2.583A3.354,3.354,0,0,1,95.172-.41,3.843,3.843,0,0,1,92.8.231ZM99.141,0V-17.01h1.134V0Zm4.116,2.247-.294-.483A2.145,2.145,0,0,0,103.677,1a2.44,2.44,0,0,0,.168-1h-.756V-2.205h1.344V-.231a3.685,3.685,0,0,1-.252,1.512A2.324,2.324,0,0,1,103.257,2.247ZM114.492.231a3.787,3.787,0,0,1-2.069-.5,2.886,2.886,0,0,1-1.144-1.4,5.669,5.669,0,0,1-.357-2.111V-4.1h1.05v.336a5.27,5.27,0,0,0,.273,1.68,2.022,2.022,0,0,0,.809,1.05,2.623,2.623,0,0,0,1.438.357A3.065,3.065,0,0,0,115.92-1a2.26,2.26,0,0,0,1-1.166,6.031,6.031,0,0,0,.368-2.352,5.63,5.63,0,0,0-.609-2.783,2.267,2.267,0,0,0-2.121-1.1h-.483v-.987h.483a2.411,2.411,0,0,0,2.111-.872,4.837,4.837,0,0,0,.619-2.761,4.5,4.5,0,0,0-.557-2.352,2.124,2.124,0,0,0-1.984-.924,2.767,2.767,0,0,0-2.058.7,3.4,3.4,0,0,0-.714,2.383v.252h-1.05v-.273a5.605,5.605,0,0,1,.357-2.089,2.756,2.756,0,0,1,1.2-1.386,4.419,4.419,0,0,1,2.247-.493,3.7,3.7,0,0,1,2.121.557,3.279,3.279,0,0,1,1.208,1.5,5.532,5.532,0,0,1,.388,2.121,5.183,5.183,0,0,1-.693,2.94,2.732,2.732,0,0,1-1.722,1.218,2.7,2.7,0,0,1,1.1.588,3.48,3.48,0,0,1,.935,1.365,6.234,6.234,0,0,1,.378,2.373,7.1,7.1,0,0,1-.4,2.468,3.485,3.485,0,0,1-1.26,1.691A3.887,3.887,0,0,1,114.492.231ZM122.619,0l3.465-16.086h-5.5v-.924h6.657v.567L123.711,0Zm6.048,0V-2.184h1.239V0Zm7.686.231a3.931,3.931,0,0,1-2.415-.651,3.362,3.362,0,0,1-1.2-1.785,9.1,9.1,0,0,1-.336-2.583v-7.434a8.468,8.468,0,0,1,.357-2.583,3.4,3.4,0,0,1,1.229-1.753,3.909,3.909,0,0,1,2.363-.641,3.948,3.948,0,0,1,2.383.641,3.4,3.4,0,0,1,1.229,1.753,8.468,8.468,0,0,1,.357,2.583v7.434a9.1,9.1,0,0,1-.336,2.583,3.362,3.362,0,0,1-1.2,1.785A3.971,3.971,0,0,1,136.353.231Zm0-.861a2.558,2.558,0,0,0,1.7-.515,2.77,2.77,0,0,0,.861-1.407,7.553,7.553,0,0,0,.252-2.048V-12.39a7.553,7.553,0,0,0-.252-2.048,2.709,2.709,0,0,0-.861-1.4,2.6,2.6,0,0,0-1.7-.5,2.559,2.559,0,0,0-1.68.5,2.769,2.769,0,0,0-.872,1.4,7.268,7.268,0,0,0-.262,2.048V-4.6a7.268,7.268,0,0,0,.262,2.048,2.832,2.832,0,0,0,.872,1.407A2.523,2.523,0,0,0,136.353-.63ZM142.506-6.7v-.924h4.326V-6.7ZM152.775.231A3.679,3.679,0,0,1,150.6-.357,3.372,3.372,0,0,1,149.383-2.1a9.052,9.052,0,0,1-.389-2.856v-7.413a7.694,7.694,0,0,1,.389-2.593,3.317,3.317,0,0,1,1.218-1.659,3.689,3.689,0,0,1,2.152-.578,4.408,4.408,0,0,1,2.058.42A2.629,2.629,0,0,1,156-15.519a5.118,5.118,0,0,1,.389,2.142v.4h-1.071a4.191,4.191,0,0,0-.588-2.583,2.312,2.312,0,0,0-1.89-.714,2.991,2.991,0,0,0-1.376.315,2.229,2.229,0,0,0-.987,1.113,5.511,5.511,0,0,0-.367,2.247v3.591a7.217,7.217,0,0,1,1.207-.588,4.509,4.509,0,0,1,1.691-.315,4.269,4.269,0,0,1,2.195.483,2.657,2.657,0,0,1,1.145,1.607,11.164,11.164,0,0,1,.336,3.077,8.2,8.2,0,0,1-.389,2.688,3.325,3.325,0,0,1-1.239,1.7A3.94,3.94,0,0,1,152.775.231Zm0-.945a3.179,3.179,0,0,0,1.512-.326,2.113,2.113,0,0,0,.935-1.176,6.908,6.908,0,0,0,.326-2.384,13.3,13.3,0,0,0-.2-2.583,2.2,2.2,0,0,0-.787-1.4,3.022,3.022,0,0,0-1.785-.431,3.806,3.806,0,0,0-1.029.147,6.774,6.774,0,0,0-.966.347,3.952,3.952,0,0,0-.672.367v3.171a8.711,8.711,0,0,0,.3,2.594,2.275,2.275,0,0,0,.9,1.3A2.738,2.738,0,0,0,152.775-.714ZM161.6,0V-15.477a2.164,2.164,0,0,1-.525.515,4.548,4.548,0,0,1-.714.42q-.378.179-.7.3a4.593,4.593,0,0,1-.493.168v-.966a4.445,4.445,0,0,0,.619-.252,4.531,4.531,0,0,0,.7-.431,6.709,6.709,0,0,0,.693-.588,4.3,4.3,0,0,0,.588-.7h.966V0Zm4.6,0V-2.184h1.239V0Zm7.5.231a3.679,3.679,0,0,1-2.173-.588A3.372,3.372,0,0,1,170.3-2.1a9.052,9.052,0,0,1-.389-2.856v-7.413a7.694,7.694,0,0,1,.389-2.593,3.317,3.317,0,0,1,1.218-1.659,3.689,3.689,0,0,1,2.152-.578,4.408,4.408,0,0,1,2.058.42,2.629,2.629,0,0,1,1.186,1.26,5.118,5.118,0,0,1,.389,2.142v.4h-1.071a4.191,4.191,0,0,0-.588-2.583,2.312,2.312,0,0,0-1.89-.714,2.991,2.991,0,0,0-1.376.315,2.229,2.229,0,0,0-.987,1.113,5.511,5.511,0,0,0-.368,2.247v3.591a7.218,7.218,0,0,1,1.208-.588,4.509,4.509,0,0,1,1.691-.315,4.269,4.269,0,0,1,2.195.483,2.657,2.657,0,0,1,1.145,1.607,11.164,11.164,0,0,1,.336,3.077,8.2,8.2,0,0,1-.389,2.688,3.325,3.325,0,0,1-1.239,1.7A3.94,3.94,0,0,1,173.691.231Zm0-.945A3.179,3.179,0,0,0,175.2-1.04a2.113,2.113,0,0,0,.935-1.176,6.908,6.908,0,0,0,.326-2.384,13.3,13.3,0,0,0-.2-2.583,2.2,2.2,0,0,0-.787-1.4,3.022,3.022,0,0,0-1.785-.431,3.806,3.806,0,0,0-1.029.147,6.774,6.774,0,0,0-.966.347,3.953,3.953,0,0,0-.672.367v3.171a8.711,8.711,0,0,0,.3,2.594,2.275,2.275,0,0,0,.9,1.3A2.738,2.738,0,0,0,173.691-.714Zm5.754,3.8v-.8a1.637,1.637,0,0,0,1.239-.85,5.58,5.58,0,0,0,.63-2,22.473,22.473,0,0,0,.22-2.9q.032-1.648.032-3.56t-.032-3.56a22.2,22.2,0,0,0-.22-2.887,5.565,5.565,0,0,0-.63-1.984,1.637,1.637,0,0,0-1.239-.851v-.819a2.505,2.505,0,0,1,1.554.557,3.4,3.4,0,0,1,.956,1.428,9.459,9.459,0,0,1,.5,2.153,26.284,26.284,0,0,1,.189,2.751q.031,1.512.031,3.213,0,1.68-.031,3.171a26.132,26.132,0,0,1-.189,2.73,9.273,9.273,0,0,1-.5,2.142A3.579,3.579,0,0,1,181,2.468,2.637,2.637,0,0,1,179.445,3.087Z" transform="translate(909 650.403)" fill="#823695"/>
    <path id="Path_2912" data-name="Path 2912" d="M2.25,0V-24.3h5.7a6.09,6.09,0,0,1,3.42.825A4.36,4.36,0,0,1,13.1-21.24a9.661,9.661,0,0,1,.495,3.21,9.617,9.617,0,0,1-.495,3.09,4.9,4.9,0,0,1-1.725,2.4,5.5,5.5,0,0,1-3.39.93H3.87V0ZM3.87-12.87H7.62a5.057,5.057,0,0,0,2.415-.51,3.138,3.138,0,0,0,1.41-1.635,8.048,8.048,0,0,0,.465-3.015,8.788,8.788,0,0,0-.42-3.045,2.64,2.64,0,0,0-1.35-1.53,5.949,5.949,0,0,0-2.49-.435H3.87ZM17.01,0V-24.3h5.88a5.819,5.819,0,0,1,3.315.8,4.034,4.034,0,0,1,1.59,2.16A10,10,0,0,1,28.23-18.3a11.4,11.4,0,0,1-.285,2.58,4.633,4.633,0,0,1-1.05,2.085,3.681,3.681,0,0,1-2.235,1.1L28.56,0H26.94L23.16-12.24H18.63V0Zm1.62-13.5h4.2a4.023,4.023,0,0,0,2.37-.585,3.02,3.02,0,0,0,1.125-1.665,9.161,9.161,0,0,0,.315-2.55,6.578,6.578,0,0,0-.765-3.51q-.765-1.2-3.075-1.2H18.63ZM42.81.33a5.41,5.41,0,0,1-2.955-.72,4.123,4.123,0,0,1-1.635-2A8.1,8.1,0,0,1,37.71-5.4v-.45h1.5v.48a7.528,7.528,0,0,0,.39,2.4,2.888,2.888,0,0,0,1.155,1.5,3.747,3.747,0,0,0,2.055.51,4.379,4.379,0,0,0,2.04-.465A3.228,3.228,0,0,0,46.275-3.09,8.616,8.616,0,0,0,46.8-6.45a8.044,8.044,0,0,0-.87-3.975A3.238,3.238,0,0,0,42.9-12h-.69v-1.41h.69a3.444,3.444,0,0,0,3.015-1.245A6.91,6.91,0,0,0,46.8-18.6a6.428,6.428,0,0,0-.8-3.36,3.034,3.034,0,0,0-2.835-1.32,3.953,3.953,0,0,0-2.94,1.005,4.852,4.852,0,0,0-1.02,3.4v.36h-1.5v-.39a8.008,8.008,0,0,1,.51-2.985,3.937,3.937,0,0,1,1.71-1.98,6.313,6.313,0,0,1,3.21-.7,5.288,5.288,0,0,1,3.03.8,4.684,4.684,0,0,1,1.725,2.145,7.9,7.9,0,0,1,.555,3.03,7.4,7.4,0,0,1-.99,4.2A3.9,3.9,0,0,1,45-12.66a3.861,3.861,0,0,1,1.575.84A4.971,4.971,0,0,1,47.91-9.87a8.9,8.9,0,0,1,.54,3.39,10.142,10.142,0,0,1-.57,3.525A4.978,4.978,0,0,1,46.08-.54,5.553,5.553,0,0,1,42.81.33Zm14.76,0a5.41,5.41,0,0,1-2.955-.72,4.123,4.123,0,0,1-1.635-2A8.1,8.1,0,0,1,52.47-5.4v-.45h1.5v.48a7.528,7.528,0,0,0,.39,2.4,2.888,2.888,0,0,0,1.155,1.5,3.747,3.747,0,0,0,2.055.51,4.379,4.379,0,0,0,2.04-.465A3.228,3.228,0,0,0,61.035-3.09a8.616,8.616,0,0,0,.525-3.36,8.044,8.044,0,0,0-.87-3.975A3.238,3.238,0,0,0,57.66-12h-.69v-1.41h.69a3.444,3.444,0,0,0,3.015-1.245A6.91,6.91,0,0,0,61.56-18.6a6.428,6.428,0,0,0-.8-3.36,3.034,3.034,0,0,0-2.835-1.32,3.953,3.953,0,0,0-2.94,1.005,4.852,4.852,0,0,0-1.02,3.4v.36h-1.5v-.39a8.008,8.008,0,0,1,.51-2.985,3.937,3.937,0,0,1,1.71-1.98,6.313,6.313,0,0,1,3.21-.7,5.288,5.288,0,0,1,3.03.8,4.684,4.684,0,0,1,1.725,2.145,7.9,7.9,0,0,1,.555,3.03,7.4,7.4,0,0,1-.99,4.2,3.9,3.9,0,0,1-2.46,1.74,3.861,3.861,0,0,1,1.575.84A4.971,4.971,0,0,1,62.67-9.87a8.9,8.9,0,0,1,.54,3.39,10.142,10.142,0,0,1-.57,3.525A4.978,4.978,0,0,1,60.84-.54,5.553,5.553,0,0,1,57.57.33Z" transform="translate(952 896.144)" fill="#fff"/>
    <path id="Path_2910" data-name="Path 2910" d="M4.23,2.646A2.26,2.26,0,0,1,2.9,2.115,2.993,2.993,0,0,1,2.088.882,8.288,8.288,0,0,1,1.665-.945,22.1,22.1,0,0,1,1.5-3.276q-.027-1.278-.027-2.718,0-1.458.027-2.754a22.829,22.829,0,0,1,.162-2.367,8.471,8.471,0,0,1,.423-1.854,2.846,2.846,0,0,1,.81-1.224A2.148,2.148,0,0,1,4.23-14.67v.7a1.4,1.4,0,0,0-1.062.729,4.782,4.782,0,0,0-.54,1.71,19.261,19.261,0,0,0-.189,2.484q-.027,1.413-.027,3.051t.027,3.051A19.026,19.026,0,0,0,2.628-.468a4.9,4.9,0,0,0,.531,1.7,1.389,1.389,0,0,0,1.071.729ZM5.526,0V-10.4H6.48v1.116A4,4,0,0,1,7.6-10.215a2.73,2.73,0,0,1,1.35-.351,1.575,1.575,0,0,1,.837.225,1.52,1.52,0,0,1,.585.72A3.361,3.361,0,0,1,10.584-8.3V0H9.63V-8.19a2.049,2.049,0,0,0-.3-1.3,1.007,1.007,0,0,0-.8-.342,2.052,2.052,0,0,0-1.053.315,4.285,4.285,0,0,0-1,.837V0ZM12.6-8.118V-8.91h5.274v.792Zm0,2.934v-.81h5.274v.81ZM19.764,0V-.72l4.05-6.156q.45-.684.846-1.341A6.991,6.991,0,0,0,25.3-9.594a5.049,5.049,0,0,0,.243-1.62,3.153,3.153,0,0,0-.567-2,1.971,1.971,0,0,0-1.647-.72,2.578,2.578,0,0,0-1.575.414A2.1,2.1,0,0,0,21-12.366a6.756,6.756,0,0,0-.225,1.692v.234h-.936v-.288a6.023,6.023,0,0,1,.36-2.241A2.608,2.608,0,0,1,21.321-14.3a3.913,3.913,0,0,1,1.971-.441,2.938,2.938,0,0,1,2.394.972,4.1,4.1,0,0,1,.81,2.7,4.859,4.859,0,0,1-.27,1.629,8.647,8.647,0,0,1-.684,1.476q-.414.711-.864,1.4L20.862-.81h5.346V0Zm12.51.2A3.246,3.246,0,0,1,30.5-.234a2.474,2.474,0,0,1-.981-1.2,4.859,4.859,0,0,1-.306-1.809v-.27h.9v.288a4.517,4.517,0,0,0,.234,1.44,1.733,1.733,0,0,0,.693.9,2.248,2.248,0,0,0,1.233.306A2.627,2.627,0,0,0,33.5-.855a1.937,1.937,0,0,0,.855-1,5.169,5.169,0,0,0,.315-2.016,4.826,4.826,0,0,0-.522-2.385A1.943,1.943,0,0,0,32.328-7.2h-.414v-.846h.414a2.067,2.067,0,0,0,1.809-.747,4.146,4.146,0,0,0,.531-2.367,3.857,3.857,0,0,0-.477-2.016,1.821,1.821,0,0,0-1.7-.792,2.372,2.372,0,0,0-1.764.6,2.911,2.911,0,0,0-.612,2.043v.216h-.9v-.234a4.8,4.8,0,0,1,.306-1.791,2.362,2.362,0,0,1,1.026-1.188,3.788,3.788,0,0,1,1.926-.423,3.173,3.173,0,0,1,1.818.477,2.81,2.81,0,0,1,1.035,1.287,4.742,4.742,0,0,1,.333,1.818,4.442,4.442,0,0,1-.594,2.52A2.341,2.341,0,0,1,33.588-7.6a2.316,2.316,0,0,1,.945.5,2.983,2.983,0,0,1,.8,1.17,5.343,5.343,0,0,1,.324,2.034,6.085,6.085,0,0,1-.342,2.115,2.987,2.987,0,0,1-1.08,1.449A3.332,3.332,0,0,1,32.274.2Zm5.238,2.448V1.962a1.4,1.4,0,0,0,1.062-.729,4.782,4.782,0,0,0,.54-1.71A19.262,19.262,0,0,0,39.3-2.961q.027-1.413.027-3.051T39.3-9.063a19.027,19.027,0,0,0-.189-2.475,4.77,4.77,0,0,0-.54-1.7,1.4,1.4,0,0,0-1.062-.729v-.7a2.148,2.148,0,0,1,1.332.477,2.914,2.914,0,0,1,.819,1.224,8.108,8.108,0,0,1,.432,1.845,22.529,22.529,0,0,1,.162,2.358q.027,1.3.027,2.754,0,1.44-.027,2.718a22.4,22.4,0,0,1-.162,2.34A7.948,7.948,0,0,1,39.663.882a3.068,3.068,0,0,1-.819,1.233A2.26,2.26,0,0,1,37.512,2.646Z" transform="translate(1025.881 893.504)" fill="#fff"/>
    <path id="Path_2920" data-name="Path 2920" d="M7.11.3A5.868,5.868,0,0,1,3.945-.48a4.94,4.94,0,0,1-1.89-2.19A9.814,9.814,0,0,1,1.26-6l1.41-.45a13.966,13.966,0,0,0,.645,2.82A3.95,3.95,0,0,0,4.65-1.725a4.07,4.07,0,0,0,2.49.675,4.175,4.175,0,0,0,2.835-.9,3.8,3.8,0,0,0,1.035-3,5.16,5.16,0,0,0-.825-2.865A16.571,16.571,0,0,0,7.86-10.56L3.42-14.97A8.028,8.028,0,0,1,1.8-17.25a5.675,5.675,0,0,1-.51-2.34,4.624,4.624,0,0,1,1.485-3.69A5.667,5.667,0,0,1,6.63-24.57a7.3,7.3,0,0,1,2.22.315,4.372,4.372,0,0,1,1.725,1.02A4.787,4.787,0,0,1,11.73-21.36a10.864,10.864,0,0,1,.54,2.88l-1.38.33A9.686,9.686,0,0,0,10.32-21,3.42,3.42,0,0,0,9-22.7a4.31,4.31,0,0,0-2.34-.555,4.442,4.442,0,0,0-2.76.84,3.168,3.168,0,0,0-1.11,2.7,4.5,4.5,0,0,0,.375,1.8,6.4,6.4,0,0,0,1.4,1.89L8.94-11.7a18.242,18.242,0,0,1,2.535,3.075A6.436,6.436,0,0,1,12.54-5.04a5.927,5.927,0,0,1-.69,3.015A4.237,4.237,0,0,1,9.93-.27,6.637,6.637,0,0,1,7.11.3ZM15.87,0V-24.3h5.31a6.6,6.6,0,0,1,3.78.93,4.882,4.882,0,0,1,1.89,2.52,10.96,10.96,0,0,1,.54,3.54V-7.23a11.788,11.788,0,0,1-.54,3.705,5.041,5.041,0,0,1-1.845,2.58A6.182,6.182,0,0,1,21.33,0Zm1.62-1.29h3.75a4.372,4.372,0,0,0,2.94-.84,3.986,3.986,0,0,0,1.26-2.235,14.488,14.488,0,0,0,.3-3.045v-9.78a11.641,11.641,0,0,0-.36-3.075,3.523,3.523,0,0,0-1.35-2.01,4.875,4.875,0,0,0-2.85-.705H17.49ZM41.94.33a5.41,5.41,0,0,1-2.955-.72,4.123,4.123,0,0,1-1.635-2A8.1,8.1,0,0,1,36.84-5.4v-.45h1.5v.48a7.528,7.528,0,0,0,.39,2.4,2.888,2.888,0,0,0,1.155,1.5,3.747,3.747,0,0,0,2.055.51,4.379,4.379,0,0,0,2.04-.465A3.228,3.228,0,0,0,45.4-3.09a8.616,8.616,0,0,0,.525-3.36,8.044,8.044,0,0,0-.87-3.975A3.238,3.238,0,0,0,42.03-12h-.69v-1.41h.69a3.444,3.444,0,0,0,3.015-1.245A6.91,6.91,0,0,0,45.93-18.6a6.428,6.428,0,0,0-.8-3.36A3.034,3.034,0,0,0,42.3-23.28a3.953,3.953,0,0,0-2.94,1.005,4.852,4.852,0,0,0-1.02,3.4v.36h-1.5v-.39a8.008,8.008,0,0,1,.51-2.985,3.937,3.937,0,0,1,1.71-1.98,6.313,6.313,0,0,1,3.21-.7,5.288,5.288,0,0,1,3.03.8,4.684,4.684,0,0,1,1.725,2.145,7.9,7.9,0,0,1,.555,3.03,7.4,7.4,0,0,1-.99,4.2,3.9,3.9,0,0,1-2.46,1.74,3.861,3.861,0,0,1,1.575.84A4.971,4.971,0,0,1,47.04-9.87a8.9,8.9,0,0,1,.54,3.39,10.142,10.142,0,0,1-.57,3.525A4.978,4.978,0,0,1,45.21-.54,5.553,5.553,0,0,1,41.94.33ZM56.7.33a5.41,5.41,0,0,1-2.955-.72,4.123,4.123,0,0,1-1.635-2A8.1,8.1,0,0,1,51.6-5.4v-.45h1.5v.48a7.528,7.528,0,0,0,.39,2.4,2.888,2.888,0,0,0,1.155,1.5A3.747,3.747,0,0,0,56.7-.96a4.379,4.379,0,0,0,2.04-.465A3.228,3.228,0,0,0,60.165-3.09a8.616,8.616,0,0,0,.525-3.36,8.044,8.044,0,0,0-.87-3.975A3.238,3.238,0,0,0,56.79-12H56.1v-1.41h.69a3.444,3.444,0,0,0,3.015-1.245A6.91,6.91,0,0,0,60.69-18.6a6.428,6.428,0,0,0-.8-3.36,3.034,3.034,0,0,0-2.835-1.32,3.953,3.953,0,0,0-2.94,1.005,4.852,4.852,0,0,0-1.02,3.4v.36H51.6v-.39a8.008,8.008,0,0,1,.51-2.985,3.937,3.937,0,0,1,1.71-1.98,6.313,6.313,0,0,1,3.21-.7,5.288,5.288,0,0,1,3.03.8,4.684,4.684,0,0,1,1.725,2.145,7.9,7.9,0,0,1,.555,3.03,7.4,7.4,0,0,1-.99,4.2,3.9,3.9,0,0,1-2.46,1.74,3.861,3.861,0,0,1,1.575.84A4.971,4.971,0,0,1,61.8-9.87a8.9,8.9,0,0,1,.54,3.39,10.142,10.142,0,0,1-.57,3.525A4.978,4.978,0,0,1,59.97-.54,5.553,5.553,0,0,1,56.7.33Z" transform="translate(1432 895.144)" fill="#fff"/>
    <path id="Path_2919" data-name="Path 2919" d="M4.23,2.646A2.26,2.26,0,0,1,2.9,2.115,2.993,2.993,0,0,1,2.088.882,8.288,8.288,0,0,1,1.665-.945,22.1,22.1,0,0,1,1.5-3.276q-.027-1.278-.027-2.718,0-1.458.027-2.754a22.829,22.829,0,0,1,.162-2.367,8.471,8.471,0,0,1,.423-1.854,2.846,2.846,0,0,1,.81-1.224A2.148,2.148,0,0,1,4.23-14.67v.7a1.4,1.4,0,0,0-1.062.729,4.782,4.782,0,0,0-.54,1.71,19.261,19.261,0,0,0-.189,2.484q-.027,1.413-.027,3.051t.027,3.051A19.026,19.026,0,0,0,2.628-.468a4.9,4.9,0,0,0,.531,1.7,1.389,1.389,0,0,0,1.071.729ZM5.526,0V-10.4H6.48v1.116A4,4,0,0,1,7.6-10.215a2.73,2.73,0,0,1,1.35-.351,1.575,1.575,0,0,1,.837.225,1.52,1.52,0,0,1,.585.72A3.361,3.361,0,0,1,10.584-8.3V0H9.63V-8.19a2.049,2.049,0,0,0-.3-1.3,1.007,1.007,0,0,0-.8-.342,2.052,2.052,0,0,0-1.053.315,4.285,4.285,0,0,0-1,.837V0ZM12.6-8.118V-8.91h5.274v.792Zm0,2.934v-.81h5.274v.81ZM19.764,0V-.72l4.05-6.156q.45-.684.846-1.341A6.991,6.991,0,0,0,25.3-9.594a5.049,5.049,0,0,0,.243-1.62,3.153,3.153,0,0,0-.567-2,1.971,1.971,0,0,0-1.647-.72,2.578,2.578,0,0,0-1.575.414A2.1,2.1,0,0,0,21-12.366a6.756,6.756,0,0,0-.225,1.692v.234h-.936v-.288a6.023,6.023,0,0,1,.36-2.241A2.608,2.608,0,0,1,21.321-14.3a3.913,3.913,0,0,1,1.971-.441,2.938,2.938,0,0,1,2.394.972,4.1,4.1,0,0,1,.81,2.7,4.859,4.859,0,0,1-.27,1.629,8.647,8.647,0,0,1-.684,1.476q-.414.711-.864,1.4L20.862-.81h5.346V0Zm12.51.2A3.246,3.246,0,0,1,30.5-.234a2.474,2.474,0,0,1-.981-1.2,4.859,4.859,0,0,1-.306-1.809v-.27h.9v.288a4.517,4.517,0,0,0,.234,1.44,1.733,1.733,0,0,0,.693.9,2.248,2.248,0,0,0,1.233.306A2.627,2.627,0,0,0,33.5-.855a1.937,1.937,0,0,0,.855-1,5.169,5.169,0,0,0,.315-2.016,4.826,4.826,0,0,0-.522-2.385A1.943,1.943,0,0,0,32.328-7.2h-.414v-.846h.414a2.067,2.067,0,0,0,1.809-.747,4.146,4.146,0,0,0,.531-2.367,3.857,3.857,0,0,0-.477-2.016,1.821,1.821,0,0,0-1.7-.792,2.372,2.372,0,0,0-1.764.6,2.911,2.911,0,0,0-.612,2.043v.216h-.9v-.234a4.8,4.8,0,0,1,.306-1.791,2.362,2.362,0,0,1,1.026-1.188,3.788,3.788,0,0,1,1.926-.423,3.173,3.173,0,0,1,1.818.477,2.81,2.81,0,0,1,1.035,1.287,4.742,4.742,0,0,1,.333,1.818,4.442,4.442,0,0,1-.594,2.52A2.341,2.341,0,0,1,33.588-7.6a2.316,2.316,0,0,1,.945.5,2.983,2.983,0,0,1,.8,1.17,5.343,5.343,0,0,1,.324,2.034,6.085,6.085,0,0,1-.342,2.115,2.987,2.987,0,0,1-1.08,1.449A3.332,3.332,0,0,1,32.274.2Zm5.238,2.448V1.962a1.4,1.4,0,0,0,1.062-.729,4.782,4.782,0,0,0,.54-1.71A19.262,19.262,0,0,0,39.3-2.961q.027-1.413.027-3.051T39.3-9.063a19.027,19.027,0,0,0-.189-2.475,4.77,4.77,0,0,0-.54-1.7,1.4,1.4,0,0,0-1.062-.729v-.7a2.148,2.148,0,0,1,1.332.477,2.914,2.914,0,0,1,.819,1.224,8.108,8.108,0,0,1,.432,1.845,22.529,22.529,0,0,1,.162,2.358q.027,1.3.027,2.754,0,1.44-.027,2.718a22.4,22.4,0,0,1-.162,2.34A7.948,7.948,0,0,1,39.663.882a3.068,3.068,0,0,1-.819,1.233A2.26,2.26,0,0,1,37.512,2.646Z" transform="translate(1504.79 894.504)" fill="#fff"/>
    <path id="Path_2921" data-name="Path 2921" d="M5.04-14.04q-.64,1.02-1.13,1.98a15.013,15.013,0,0,0-.83,1.95,12.291,12.291,0,0,0-.51,2.05,14.552,14.552,0,0,0-.17,2.3,14.173,14.173,0,0,0,.17,2.28,12.889,12.889,0,0,0,.49,2,13.708,13.708,0,0,0,.8,1.9q.48.94,1.1,1.98L3.9,3.2A15.074,15.074,0,0,1,1.82-1a15.571,15.571,0,0,1-.74-4.76,15.578,15.578,0,0,1,.73-4.66,14.509,14.509,0,0,1,2.17-4.3ZM18.46-2.24a5.486,5.486,0,0,1-.89,1.02,5.628,5.628,0,0,1-1.21.83,6.9,6.9,0,0,1-1.47.55,6.782,6.782,0,0,1-1.67.2A7.571,7.571,0,0,1,10.29-.2,7.137,7.137,0,0,1,7.95-1.75,7.111,7.111,0,0,1,6.4-4.1a7.752,7.752,0,0,1-.56-2.98,7.752,7.752,0,0,1,.56-2.98,7.111,7.111,0,0,1,1.55-2.35,7.137,7.137,0,0,1,2.34-1.55,7.571,7.571,0,0,1,2.93-.56,7.157,7.157,0,0,1,2.64.52,5.324,5.324,0,0,1,2.26,1.72l-1.26.94a3.431,3.431,0,0,0-.6-.68,4.367,4.367,0,0,0-.87-.6,5.4,5.4,0,0,0-1.05-.42,4.06,4.06,0,0,0-1.12-.16,5.742,5.742,0,0,0-2.44.5,5.539,5.539,0,0,0-1.83,1.34A5.9,5.9,0,0,0,7.8-9.41a6.82,6.82,0,0,0-.4,2.33,6.82,6.82,0,0,0,.4,2.33A5.9,5.9,0,0,0,8.95-2.8a5.539,5.539,0,0,0,1.83,1.34,5.742,5.742,0,0,0,2.44.5,6.193,6.193,0,0,0,1.11-.1,4.61,4.61,0,0,0,1.08-.34,4.079,4.079,0,0,0,1-.65,4.824,4.824,0,0,0,.87-1.03ZM22.08-7.9h2.56a5.759,5.759,0,0,0,1.63-.2,3.028,3.028,0,0,0,1.07-.53,1.934,1.934,0,0,0,.58-.78,2.588,2.588,0,0,0,.18-.97,2.534,2.534,0,0,0-.18-.95,2.01,2.01,0,0,0-.58-.79,2.821,2.821,0,0,0-1.07-.53,6.046,6.046,0,0,0-1.63-.19H22.08Zm0,7.9H20.64V-14.16H25a5.552,5.552,0,0,1,3.41.94,3.326,3.326,0,0,1,1.25,2.84,3.539,3.539,0,0,1-.93,2.49,3.994,3.994,0,0,1-2.69,1.17L30.12,0H28.36L24.48-6.58h-2.4ZM36.92-6.66h4.5v1.2h-4.5v4.5h-1.2v-4.5h-4.5v-1.2h4.5v-4.5h1.2Zm8.7-1.24h2.32a5.759,5.759,0,0,0,1.63-.2,3.028,3.028,0,0,0,1.07-.53,1.934,1.934,0,0,0,.58-.78,2.588,2.588,0,0,0,.18-.97,2.534,2.534,0,0,0-.18-.95,2.01,2.01,0,0,0-.58-.79,2.821,2.821,0,0,0-1.07-.53,6.046,6.046,0,0,0-1.63-.19H45.62Zm-1.44-6.26H48.3a5.552,5.552,0,0,1,3.41.94,3.326,3.326,0,0,1,1.25,2.84,3.354,3.354,0,0,1-1.25,2.85,5.51,5.51,0,0,1-3.41.95H45.62V0H44.18ZM56.72-7.9h2.56a5.759,5.759,0,0,0,1.63-.2,3.028,3.028,0,0,0,1.07-.53,1.934,1.934,0,0,0,.58-.78,2.588,2.588,0,0,0,.18-.97,2.534,2.534,0,0,0-.18-.95,2.01,2.01,0,0,0-.58-.79,2.821,2.821,0,0,0-1.07-.53,6.046,6.046,0,0,0-1.63-.19H56.72Zm0,7.9H55.28V-14.16h4.36a5.552,5.552,0,0,1,3.41.94,3.326,3.326,0,0,1,1.25,2.84,3.539,3.539,0,0,1-.93,2.49,3.994,3.994,0,0,1-2.69,1.17L64.76,0H63L59.12-6.58h-2.4ZM71.56-6.66h4.5v1.2h-4.5v4.5h-1.2v-4.5h-4.5v-1.2h4.5v-4.5h1.2ZM85.2-11.82a3.107,3.107,0,0,0-2.74-1.38,4.091,4.091,0,0,0-1.1.15,3.029,3.029,0,0,0-.97.46,2.3,2.3,0,0,0-.69.8,2.419,2.419,0,0,0-.26,1.15,1.993,1.993,0,0,0,.54,1.49,4.273,4.273,0,0,0,1.34.87,14.871,14.871,0,0,0,1.75.61,8.035,8.035,0,0,1,1.75.72,4.172,4.172,0,0,1,1.34,1.19,3.363,3.363,0,0,1,.54,2.02,3.623,3.623,0,0,1-.41,1.73A3.978,3.978,0,0,1,85.21-.72a5.069,5.069,0,0,1-1.5.8,5.2,5.2,0,0,1-1.67.28,6.33,6.33,0,0,1-2.47-.49,4.7,4.7,0,0,1-1.99-1.61l1.32-.94a3.433,3.433,0,0,0,1.276,1.25,3.814,3.814,0,0,0,1.934.47,3.558,3.558,0,0,0,1.077-.17,3.1,3.1,0,0,0,.967-.5,2.764,2.764,0,0,0,.708-.81,2.148,2.148,0,0,0,.279-1.1,2.26,2.26,0,0,0-.31-1.23,2.673,2.673,0,0,0-.82-.82,5.186,5.186,0,0,0-1.16-.55q-.65-.22-1.34-.44t-1.34-.5a4.625,4.625,0,0,1-1.16-.71,3.18,3.18,0,0,1-.82-1.08,3.781,3.781,0,0,1-.31-1.63,3.849,3.849,0,0,1,.39-1.78,3.692,3.692,0,0,1,1.04-1.26,4.425,4.425,0,0,1,1.47-.74,5.95,5.95,0,0,1,1.68-.24,5.985,5.985,0,0,1,2.18.38,4.7,4.7,0,0,1,1.82,1.34Zm5.54,10.5h2.8a7.353,7.353,0,0,0,2.81-.49,5.814,5.814,0,0,0,1.98-1.3A5.181,5.181,0,0,0,99.5-4.95a6.106,6.106,0,0,0,.38-2.13,6.106,6.106,0,0,0-.38-2.13,5.181,5.181,0,0,0-1.17-1.84,5.814,5.814,0,0,0-1.98-1.3,7.353,7.353,0,0,0-2.81-.49h-2.8ZM89.3-14.16H94a8.4,8.4,0,0,1,2.65.44,7.31,7.31,0,0,1,2.4,1.33,6.742,6.742,0,0,1,1.73,2.22,6.868,6.868,0,0,1,.66,3.09,6.852,6.852,0,0,1-.66,3.1,6.771,6.771,0,0,1-1.73,2.21,7.309,7.309,0,0,1-2.4,1.33A8.4,8.4,0,0,1,94,0H89.3ZM102.24,2.52q.64-1.02,1.13-1.98a15.013,15.013,0,0,0,.83-1.95,12.291,12.291,0,0,0,.51-2.05,14.552,14.552,0,0,0,.17-2.3,14.173,14.173,0,0,0-.17-2.28,12.889,12.889,0,0,0-.49-2,13.708,13.708,0,0,0-.8-1.9q-.48-.94-1.1-1.98l1.06-.8a15.074,15.074,0,0,1,2.08,4.2,15.571,15.571,0,0,1,.74,4.76,15.578,15.578,0,0,1-.73,4.66,14.509,14.509,0,0,1-2.17,4.3Zm16.82-7.68v1.2h-10.2v-1.2Zm0-3v1.2h-10.2v-1.2Z" transform="translate(1389 706.336)" fill="#505257"/>
    <path id="Path_2922" data-name="Path 2922" d="M1.18-10.5a3.736,3.736,0,0,1,.37-1.71,3.475,3.475,0,0,1,1.02-1.22,4.481,4.481,0,0,1,1.51-.73,6.819,6.819,0,0,1,1.84-.24,6.819,6.819,0,0,1,1.84.24,4.371,4.371,0,0,1,1.5.73,3.622,3.622,0,0,1,1.02,1.22,3.654,3.654,0,0,1,.38,1.71,3.154,3.154,0,0,1-.63,1.98A3.369,3.369,0,0,1,8.26-7.36v.04a3.5,3.5,0,0,1,1.96,1.23,3.533,3.533,0,0,1,.68,2.21,3.812,3.812,0,0,1-.41,1.8A3.75,3.75,0,0,1,9.39-.79,4.967,4.967,0,0,1,7.8-.02,6.74,6.74,0,0,1,5.92.24,6.74,6.74,0,0,1,4.04-.02,4.967,4.967,0,0,1,2.45-.79a3.75,3.75,0,0,1-1.1-1.29,3.812,3.812,0,0,1-.41-1.8,3.533,3.533,0,0,1,.68-2.21A3.5,3.5,0,0,1,3.58-7.32v-.04A3.369,3.369,0,0,1,1.81-8.52,3.154,3.154,0,0,1,1.18-10.5Zm3,.42a1.493,1.493,0,0,0,.48,1.12,1.745,1.745,0,0,0,1.26.46,1.745,1.745,0,0,0,1.26-.46,1.493,1.493,0,0,0,.48-1.12,1.471,1.471,0,0,0-.48-1.1,1.745,1.745,0,0,0-1.26-.46,1.745,1.745,0,0,0-1.26.46A1.471,1.471,0,0,0,4.18-10.08ZM3.94-4.3a1.685,1.685,0,0,0,.54,1.26,1.989,1.989,0,0,0,1.44.52,1.989,1.989,0,0,0,1.44-.52A1.685,1.685,0,0,0,7.9-4.3a1.707,1.707,0,0,0-.54-1.28A1.989,1.989,0,0,0,5.92-6.1a1.989,1.989,0,0,0-1.44.52A1.707,1.707,0,0,0,3.94-4.3ZM15.98-8.58h.98a5.521,5.521,0,0,0,.82-.06,2.34,2.34,0,0,0,.73-.23,1.362,1.362,0,0,0,.53-.48,1.473,1.473,0,0,0,.2-.81,1.316,1.316,0,0,0-.51-1.06,1.9,1.9,0,0,0-1.25-.42,1.761,1.761,0,0,0-1.16.38,1.742,1.742,0,0,0-.6.94L12.42-11a4.544,4.544,0,0,1,.72-1.57,3.965,3.965,0,0,1,1.14-1.05,5.032,5.032,0,0,1,1.47-.59,7.468,7.468,0,0,1,1.71-.19,7.052,7.052,0,0,1,1.81.23,4.442,4.442,0,0,1,1.53.72,3.6,3.6,0,0,1,1.05,1.23,3.727,3.727,0,0,1,.39,1.76,3.307,3.307,0,0,1-.62,2.02,2.841,2.841,0,0,1-1.8,1.08v.06a2.8,2.8,0,0,1,1.13.38,3.051,3.051,0,0,1,.83.74,3.243,3.243,0,0,1,.52,1A3.833,3.833,0,0,1,22.48-4a4.024,4.024,0,0,1-.41,1.86,3.889,3.889,0,0,1-1.1,1.33,4.709,4.709,0,0,1-1.62.79,7.286,7.286,0,0,1-1.97.26,5.92,5.92,0,0,1-3.27-.88A4.275,4.275,0,0,1,12.3-3.42l3.16-.74a2.155,2.155,0,0,0,.65,1.2,2.107,2.107,0,0,0,1.45.44,1.881,1.881,0,0,0,1.45-.51,1.857,1.857,0,0,0,.47-1.31,1.513,1.513,0,0,0-.25-.93,1.494,1.494,0,0,0-.65-.49,2.876,2.876,0,0,0-.9-.19q-.5-.03-1-.03h-.7Zm17.5,4.84a3.852,3.852,0,0,1,.31-1.54,4.088,4.088,0,0,1,.84-1.26,3.883,3.883,0,0,1,1.25-.85,3.852,3.852,0,0,1,1.54-.31,3.852,3.852,0,0,1,1.54.31,3.883,3.883,0,0,1,1.25.85,4.088,4.088,0,0,1,.84,1.26,3.852,3.852,0,0,1,.31,1.54,3.924,3.924,0,0,1-.31,1.55,4.056,4.056,0,0,1-.84,1.27,3.883,3.883,0,0,1-1.25.85,3.852,3.852,0,0,1-1.54.31,3.852,3.852,0,0,1-1.54-.31,3.883,3.883,0,0,1-1.25-.85,4.056,4.056,0,0,1-.84-1.27A3.924,3.924,0,0,1,33.48-3.74Zm5.84,0a1.869,1.869,0,0,0-.55-1.36,1.819,1.819,0,0,0-1.35-.56,1.819,1.819,0,0,0-1.35.56,1.869,1.869,0,0,0-.55,1.36,1.893,1.893,0,0,0,.55,1.38,1.819,1.819,0,0,0,1.35.56,1.819,1.819,0,0,0,1.35-.56A1.893,1.893,0,0,0,39.32-3.74Zm-15.9-6.7a3.852,3.852,0,0,1,.31-1.54,4.088,4.088,0,0,1,.84-1.26,3.883,3.883,0,0,1,1.25-.85,3.852,3.852,0,0,1,1.54-.31,3.852,3.852,0,0,1,1.54.31,3.883,3.883,0,0,1,1.25.85,4.088,4.088,0,0,1,.84,1.26,3.852,3.852,0,0,1,.31,1.54,3.852,3.852,0,0,1-.31,1.54,4.088,4.088,0,0,1-.84,1.26,3.883,3.883,0,0,1-1.25.85,3.852,3.852,0,0,1-1.54.31,3.852,3.852,0,0,1-1.54-.31,3.883,3.883,0,0,1-1.25-.85,4.088,4.088,0,0,1-.84-1.26A3.852,3.852,0,0,1,23.42-10.44Zm5.84,0a1.869,1.869,0,0,0-.55-1.36,1.819,1.819,0,0,0-1.35-.56,1.819,1.819,0,0,0-1.35.56,1.869,1.869,0,0,0-.55,1.36,1.869,1.869,0,0,0,.55,1.36,1.819,1.819,0,0,0,1.35.56,1.819,1.819,0,0,0,1.35-.56A1.869,1.869,0,0,0,29.26-10.44Zm6.36-4.36,1.68.94L29.04.64,27.52-.22Z" transform="translate(1509.845 706.336)" fill="#505257"/>
    <path id="Path_2914" data-name="Path 2914" d="M1.95,0V-21.06h4.6a5.72,5.72,0,0,1,3.276.806,4.231,4.231,0,0,1,1.638,2.184A9.5,9.5,0,0,1,11.934-15v8.736a10.216,10.216,0,0,1-.468,3.211,4.368,4.368,0,0,1-1.6,2.236A5.358,5.358,0,0,1,6.682,0Zm1.4-1.118H6.6a3.789,3.789,0,0,0,2.548-.728,3.455,3.455,0,0,0,1.092-1.937,12.557,12.557,0,0,0,.26-2.639V-14.9a10.089,10.089,0,0,0-.312-2.665,3.053,3.053,0,0,0-1.17-1.742,4.225,4.225,0,0,0-2.47-.611h-3.2ZM15.21,0V-21.06h1.4V0ZM24.6.26a5.086,5.086,0,0,1-2.743-.676,4.281,4.281,0,0,1-1.638-1.9A8.506,8.506,0,0,1,19.526-5.2l1.222-.39a12.1,12.1,0,0,0,.559,2.444A3.424,3.424,0,0,0,22.464-1.5a3.527,3.527,0,0,0,2.158.585,3.618,3.618,0,0,0,2.457-.78,3.289,3.289,0,0,0,.9-2.6,4.472,4.472,0,0,0-.715-2.483,14.361,14.361,0,0,0-2.015-2.379L21.4-12.974a6.957,6.957,0,0,1-1.4-1.976,4.918,4.918,0,0,1-.442-2.028,4.008,4.008,0,0,1,1.287-3.2,4.911,4.911,0,0,1,3.341-1.118,6.33,6.33,0,0,1,1.924.273,3.789,3.789,0,0,1,1.5.884,4.148,4.148,0,0,1,1,1.625,9.415,9.415,0,0,1,.468,2.5l-1.2.286a8.4,8.4,0,0,0-.494-2.47,2.964,2.964,0,0,0-1.144-1.469,3.736,3.736,0,0,0-2.028-.481,3.85,3.85,0,0,0-2.392.728,2.746,2.746,0,0,0-.962,2.34,3.9,3.9,0,0,0,.325,1.56,5.546,5.546,0,0,0,1.209,1.638l3.8,3.744a15.81,15.81,0,0,1,2.2,2.665A5.578,5.578,0,0,1,29.3-4.368a5.137,5.137,0,0,1-.6,2.613A3.672,3.672,0,0,1,27.04-.234,5.752,5.752,0,0,1,24.6.26ZM32.162,0V-21.06h7.28v1.144h-5.85v8.45H38.4v1.092h-4.81v9.256H39.52V0Zm9.724,0,4.42-21.06h1.638L52.39,0H50.96L49.868-5.824h-5.46L43.29,0Zm2.73-6.864h5.07l-2.548-12.48ZM59.358.26a5.086,5.086,0,0,1-2.743-.676,4.281,4.281,0,0,1-1.638-1.9A8.506,8.506,0,0,1,54.288-5.2l1.222-.39a12.1,12.1,0,0,0,.559,2.444A3.424,3.424,0,0,0,57.226-1.5a3.527,3.527,0,0,0,2.158.585,3.618,3.618,0,0,0,2.457-.78,3.289,3.289,0,0,0,.9-2.6,4.472,4.472,0,0,0-.715-2.483,14.361,14.361,0,0,0-2.015-2.379L56.16-12.974a6.957,6.957,0,0,1-1.4-1.976,4.918,4.918,0,0,1-.442-2.028,4.008,4.008,0,0,1,1.287-3.2,4.911,4.911,0,0,1,3.341-1.118,6.33,6.33,0,0,1,1.924.273,3.789,3.789,0,0,1,1.495.884,4.148,4.148,0,0,1,1,1.625,9.415,9.415,0,0,1,.468,2.5l-1.2.286a8.4,8.4,0,0,0-.494-2.47A2.964,2.964,0,0,0,61-19.669a3.736,3.736,0,0,0-2.028-.481,3.85,3.85,0,0,0-2.392.728,2.746,2.746,0,0,0-.962,2.34,3.9,3.9,0,0,0,.325,1.56,5.546,5.546,0,0,0,1.209,1.638l3.8,3.744a15.81,15.81,0,0,1,2.2,2.665,5.578,5.578,0,0,1,.923,3.107,5.137,5.137,0,0,1-.6,2.613A3.672,3.672,0,0,1,61.8-.234,5.752,5.752,0,0,1,59.358.26ZM66.924,0V-21.06H74.2v1.144h-5.85v8.45h4.81v1.092h-4.81v9.256h5.928V0ZM86.762.286a5.106,5.106,0,0,1-3.185-.858,4.35,4.35,0,0,1-1.521-2.3,11.473,11.473,0,0,1-.416-3.185V-15a10.87,10.87,0,0,1,.442-3.237,4.256,4.256,0,0,1,1.56-2.236,5.2,5.2,0,0,1,3.12-.819,4.97,4.97,0,0,1,2.886.728A3.943,3.943,0,0,1,91.13-18.5a10.012,10.012,0,0,1,.442,3.133V-14.3H90.22v-1.066a9.9,9.9,0,0,0-.286-2.561,2.926,2.926,0,0,0-1.04-1.625,3.466,3.466,0,0,0-2.132-.572,3.716,3.716,0,0,0-2.314.624,3.091,3.091,0,0,0-1.092,1.742,10.554,10.554,0,0,0-.286,2.6V-5.85a9.909,9.909,0,0,0,.312,2.665,3.085,3.085,0,0,0,1.118,1.7,3.735,3.735,0,0,0,2.262.6,3.4,3.4,0,0,0,2.158-.6,3,3,0,0,0,1.027-1.677,10.292,10.292,0,0,0,.273-2.509V-6.942h1.352V-5.9a11.264,11.264,0,0,1-.416,3.2A4.153,4.153,0,0,1,89.7-.507,4.758,4.758,0,0,1,86.762.286Zm12.792,0a5.358,5.358,0,0,1-3.185-.819A4.23,4.23,0,0,1,94.8-2.769a10.773,10.773,0,0,1-.442-3.211v-9.2a9.853,9.853,0,0,1,.468-3.172,4.169,4.169,0,0,1,1.6-2.158,5.456,5.456,0,0,1,3.133-.78,5.456,5.456,0,0,1,3.133.78,4.169,4.169,0,0,1,1.6,2.158,9.853,9.853,0,0,1,.468,3.172v9.23a10.643,10.643,0,0,1-.442,3.2,4.23,4.23,0,0,1-1.573,2.223A5.358,5.358,0,0,1,99.554.286Zm0-1.17a3.9,3.9,0,0,0,2.327-.6,3.052,3.052,0,0,0,1.131-1.677,9.067,9.067,0,0,0,.312-2.509v-9.724a8.927,8.927,0,0,0-.312-2.5,3.011,3.011,0,0,0-1.118-1.651,3.951,3.951,0,0,0-2.34-.585,3.962,3.962,0,0,0-2.327.585A2.986,2.986,0,0,0,96.1-17.888a8.926,8.926,0,0,0-.312,2.5v9.724A9.067,9.067,0,0,0,96.1-3.159a3.052,3.052,0,0,0,1.131,1.677A3.9,3.9,0,0,0,99.554-.884ZM108.082,0V-21.06H109.2l7.15,17.784V-21.06H117.6V0H116.48l-7.15-17.81V0Zm16.354,0V-19.916h-4.212V-21.06h9.724v1.144H125.84V0ZM132.6,0V-21.06h5.1a5.043,5.043,0,0,1,2.873.689,3.5,3.5,0,0,1,1.378,1.872,8.666,8.666,0,0,1,.377,2.639,9.878,9.878,0,0,1-.247,2.236,4.015,4.015,0,0,1-.91,1.807,3.19,3.19,0,0,1-1.937.949L142.61,0h-1.4L137.93-10.608H134V0ZM134-11.7h3.64a3.487,3.487,0,0,0,2.054-.507,2.618,2.618,0,0,0,.975-1.443,7.94,7.94,0,0,0,.273-2.21,5.7,5.7,0,0,0-.663-3.042,2.936,2.936,0,0,0-2.665-1.04H134ZM150.462.286a5.358,5.358,0,0,1-3.185-.819A4.23,4.23,0,0,1,145.7-2.769a10.773,10.773,0,0,1-.442-3.211v-9.2a9.853,9.853,0,0,1,.468-3.172,4.169,4.169,0,0,1,1.6-2.158,5.456,5.456,0,0,1,3.133-.78,5.456,5.456,0,0,1,3.133.78,4.169,4.169,0,0,1,1.6,2.158,9.853,9.853,0,0,1,.468,3.172v9.23a10.643,10.643,0,0,1-.442,3.2,4.23,4.23,0,0,1-1.573,2.223A5.358,5.358,0,0,1,150.462.286Zm0-1.17a3.9,3.9,0,0,0,2.327-.6,3.052,3.052,0,0,0,1.131-1.677,9.067,9.067,0,0,0,.312-2.509v-9.724a8.927,8.927,0,0,0-.312-2.5,3.011,3.011,0,0,0-1.118-1.651,3.951,3.951,0,0,0-2.34-.585,3.962,3.962,0,0,0-2.327.585A2.986,2.986,0,0,0,147-17.888a8.927,8.927,0,0,0-.312,2.5v9.724A9.067,9.067,0,0,0,147-3.159a3.052,3.052,0,0,0,1.131,1.677A3.9,3.9,0,0,0,150.462-.884ZM158.99,0V-21.06h1.4V-1.118h6.37V0ZM173.6,0V-21.06h5.1a5.043,5.043,0,0,1,2.873.689,3.5,3.5,0,0,1,1.378,1.872,8.666,8.666,0,0,1,.377,2.639,9.878,9.878,0,0,1-.247,2.236,4.015,4.015,0,0,1-.91,1.807,3.19,3.19,0,0,1-1.937.949L183.612,0h-1.4l-3.276-10.608h-3.926V0Zm1.4-11.7h3.64a3.487,3.487,0,0,0,2.054-.507,2.618,2.618,0,0,0,.975-1.443,7.94,7.94,0,0,0,.273-2.21,5.7,5.7,0,0,0-.663-3.042,2.936,2.936,0,0,0-2.665-1.04h-3.614ZM186.134,0l4.42-21.06h1.638L196.638,0h-1.43l-1.092-5.824h-5.46L187.538,0Zm2.73-6.864h5.07l-2.548-12.48ZM200.226,0V-19.916h-4.212V-21.06h9.724v1.144H201.63V0Zm8.138,0V-21.06h7.28v1.144h-5.85v8.45h4.81v1.092h-4.81v9.256h5.928V0Z" transform="translate(1366 684.357)" fill="#823695"/>
    <path id="Path_2913" data-name="Path 2913" d="M0,0H277.754V82.237H0Z" transform="translate(1340.5 641.379)" fill="none" stroke="#ff9e18" stroke-width="2"/>
    <path id="Path_2917" data-name="Path 2917" d="M1.8,0V-19.44H6.36a4.872,4.872,0,0,1,2.736.66,3.488,3.488,0,0,1,1.38,1.788,7.729,7.729,0,0,1,.4,2.568,7.694,7.694,0,0,1-.4,2.472,3.923,3.923,0,0,1-1.38,1.92,4.4,4.4,0,0,1-2.712.744H3.1V0ZM3.1-10.3h3A4.046,4.046,0,0,0,8.028-10.7a2.511,2.511,0,0,0,1.128-1.308,6.439,6.439,0,0,0,.372-2.412,7.03,7.03,0,0,0-.336-2.436,2.112,2.112,0,0,0-1.08-1.224,4.759,4.759,0,0,0-1.992-.348H3.1ZM13.1,0V-19.44h6.72v1.056h-5.4v7.8h4.44v1.008h-4.44v8.544H19.9V0Zm9.144,0V-19.44h4.7A4.655,4.655,0,0,1,29.6-18.8a3.227,3.227,0,0,1,1.272,1.728,8,8,0,0,1,.348,2.436A9.118,9.118,0,0,1,31-12.576a3.707,3.707,0,0,1-.84,1.668,2.945,2.945,0,0,1-1.788.876L31.488,0h-1.3L27.168-9.792H23.544V0Zm1.3-10.8H26.9a3.219,3.219,0,0,0,1.9-.468,2.416,2.416,0,0,0,.9-1.332,7.329,7.329,0,0,0,.252-2.04,5.262,5.262,0,0,0-.612-2.808,2.71,2.71,0,0,0-2.46-.96H23.544ZM38.448.264a4.714,4.714,0,0,1-2.94-.792,4.015,4.015,0,0,1-1.4-2.124,10.59,10.59,0,0,1-.384-2.94v-8.256a10.034,10.034,0,0,1,.408-2.988,3.929,3.929,0,0,1,1.44-2.064,4.8,4.8,0,0,1,2.88-.756,4.588,4.588,0,0,1,2.664.672,3.64,3.64,0,0,1,1.368,1.908,9.242,9.242,0,0,1,.408,2.892v.984H41.64v-.984a9.134,9.134,0,0,0-.264-2.364,2.7,2.7,0,0,0-.96-1.5,3.2,3.2,0,0,0-1.968-.528A3.43,3.43,0,0,0,36.312-18,2.853,2.853,0,0,0,35.3-16.392a9.742,9.742,0,0,0-.264,2.4V-5.4a9.147,9.147,0,0,0,.288,2.46A2.847,2.847,0,0,0,36.36-1.368a3.447,3.447,0,0,0,2.088.552,3.141,3.141,0,0,0,1.992-.552,2.771,2.771,0,0,0,.948-1.548,9.5,9.5,0,0,0,.252-2.316V-6.408h1.248v.96A10.4,10.4,0,0,1,42.5-2.5,3.834,3.834,0,0,1,41.16-.468,4.392,4.392,0,0,1,38.448.264ZM45.528,0V-19.44h6.72v1.056h-5.4v7.8h4.44v1.008h-4.44v8.544H52.32V0Zm9.144,0V-19.44H55.7L62.3-3.024V-19.44h1.152V0H62.424l-6.6-16.44V0ZM69.288,0V-18.384H65.4V-19.44h8.976v1.056H70.584V0ZM74.4,0l4.08-19.44h1.512L84.1,0h-1.32L81.768-5.376h-5.04L75.7,0Zm2.52-6.336H81.6l-2.352-11.52ZM90.6.264a4.685,4.685,0,0,1-2.856-.756,3.92,3.92,0,0,1-1.4-2.1,10.786,10.786,0,0,1-.4-3.048V-13.9a10.287,10.287,0,0,1,.4-3,3.746,3.746,0,0,1,1.428-2.028,4.962,4.962,0,0,1,2.9-.732,4.646,4.646,0,0,1,2.676.672,3.677,3.677,0,0,1,1.392,1.92,9.281,9.281,0,0,1,.42,2.952v.672H93.912v-.744a8.616,8.616,0,0,0-.288-2.412,2.7,2.7,0,0,0-.984-1.476,3.313,3.313,0,0,0-1.968-.5,3.423,3.423,0,0,0-2.16.588,2.859,2.859,0,0,0-1,1.632,10.341,10.341,0,0,0-.252,2.412v8.472a9.313,9.313,0,0,0,.288,2.46,2.976,2.976,0,0,0,1.032,1.62A3.385,3.385,0,0,0,90.7-.816a3.194,3.194,0,0,0,2-.552,2.875,2.875,0,0,0,.984-1.584A9.556,9.556,0,0,0,93.96-5.4V-8.256h-3.1V-9.264h4.32V0h-.84l-.192-2.184A3.629,3.629,0,0,1,92.964-.4,3.713,3.713,0,0,1,90.6.264ZM98.256,0V-19.44h6.72v1.056h-5.4v7.8h4.44v1.008h-4.44v8.544h5.472V0Z" transform="translate(747.176 840.732) rotate(-90)" fill="#823695"/>
    <path id="Path_2909" data-name="Path 2909" d="M0,0H220.732V110.111H0Z" transform="translate(898 679.672)" fill="rgba(99,102,107,0.4)"/>
    <path id="Path_2932" data-name="Path 2932" d="M7.65.33A5.892,5.892,0,0,1,3.975-.66,5.019,5.019,0,0,1,2.22-3.315,13.238,13.238,0,0,1,1.74-6.99V-17.31a12.542,12.542,0,0,1,.51-3.735,4.911,4.911,0,0,1,1.8-2.58,6,6,0,0,1,3.6-.945,5.735,5.735,0,0,1,3.33.84,4.55,4.55,0,0,1,1.71,2.385,11.552,11.552,0,0,1,.51,3.615v1.23H11.64v-1.23a11.418,11.418,0,0,0-.33-2.955,3.376,3.376,0,0,0-1.2-1.875,4,4,0,0,0-2.46-.66,4.287,4.287,0,0,0-2.67.72,3.567,3.567,0,0,0-1.26,2.01,12.178,12.178,0,0,0-.33,3V-6.75a11.433,11.433,0,0,0,.36,3.075A3.559,3.559,0,0,0,5.04-1.71a4.309,4.309,0,0,0,2.61.69,3.927,3.927,0,0,0,2.49-.69,3.463,3.463,0,0,0,1.185-1.935,11.876,11.876,0,0,0,.315-2.9V-8.01H13.2v1.2a13,13,0,0,1-.48,3.69A4.792,4.792,0,0,1,11.04-.585,5.49,5.49,0,0,1,7.65.33ZM16.74,0V-24.3h5.88a5.819,5.819,0,0,1,3.315.8,4.034,4.034,0,0,1,1.59,2.16A10,10,0,0,1,27.96-18.3a11.4,11.4,0,0,1-.285,2.58,4.633,4.633,0,0,1-1.05,2.085,3.681,3.681,0,0,1-2.235,1.1L28.29,0H26.67L22.89-12.24H18.36V0Zm1.62-13.5h4.2a4.023,4.023,0,0,0,2.37-.585,3.02,3.02,0,0,0,1.125-1.665,9.161,9.161,0,0,0,.315-2.55,6.578,6.578,0,0,0-.765-3.51q-.765-1.2-3.075-1.2H18.36ZM40.38,0V-22.11a3.091,3.091,0,0,1-.75.735,6.5,6.5,0,0,1-1.02.6q-.54.255-1,.435a6.562,6.562,0,0,1-.705.24v-1.38a6.349,6.349,0,0,0,.885-.36,6.473,6.473,0,0,0,1-.615,9.583,9.583,0,0,0,.99-.84,6.137,6.137,0,0,0,.84-1H42V0ZM52.35.33a5.256,5.256,0,0,1-3.1-.84A4.818,4.818,0,0,1,47.505-3a12.931,12.931,0,0,1-.555-4.08V-17.67a10.992,10.992,0,0,1,.555-3.7,4.739,4.739,0,0,1,1.74-2.37,5.27,5.27,0,0,1,3.075-.825,6.3,6.3,0,0,1,2.94.6,3.755,3.755,0,0,1,1.695,1.8,7.311,7.311,0,0,1,.555,3.06v.57H55.98a5.987,5.987,0,0,0-.84-3.69,3.3,3.3,0,0,0-2.7-1.02,4.272,4.272,0,0,0-1.965.45,3.184,3.184,0,0,0-1.41,1.59A7.873,7.873,0,0,0,48.54-18v5.13a10.31,10.31,0,0,1,1.725-.84,6.442,6.442,0,0,1,2.415-.45,6.1,6.1,0,0,1,3.135.69,3.8,3.8,0,0,1,1.635,2.3,15.949,15.949,0,0,1,.48,4.4,11.71,11.71,0,0,1-.555,3.84,4.751,4.751,0,0,1-1.77,2.43A5.629,5.629,0,0,1,52.35.33Zm0-1.35a4.541,4.541,0,0,0,2.16-.465,3.019,3.019,0,0,0,1.335-1.68,9.869,9.869,0,0,0,.465-3.4,19.009,19.009,0,0,0-.285-3.69A3.139,3.139,0,0,0,54.9-12.255a4.318,4.318,0,0,0-2.55-.615,5.437,5.437,0,0,0-1.47.21,9.678,9.678,0,0,0-1.38.495,5.647,5.647,0,0,0-.96.525v4.53a12.444,12.444,0,0,0,.435,3.705,3.25,3.25,0,0,0,1.29,1.86A3.912,3.912,0,0,0,52.35-1.02Z" transform="translate(953 746.856)" fill="#fff"/>
    <path id="Path_2930" data-name="Path 2930" d="M4.23,2.646A2.26,2.26,0,0,1,2.9,2.115,2.993,2.993,0,0,1,2.088.882,8.288,8.288,0,0,1,1.665-.945,22.1,22.1,0,0,1,1.5-3.276q-.027-1.278-.027-2.718,0-1.458.027-2.754a22.829,22.829,0,0,1,.162-2.367,8.471,8.471,0,0,1,.423-1.854,2.846,2.846,0,0,1,.81-1.224A2.148,2.148,0,0,1,4.23-14.67v.7a1.4,1.4,0,0,0-1.062.729,4.782,4.782,0,0,0-.54,1.71,19.261,19.261,0,0,0-.189,2.484q-.027,1.413-.027,3.051t.027,3.051A19.026,19.026,0,0,0,2.628-.468a4.9,4.9,0,0,0,.531,1.7,1.389,1.389,0,0,0,1.071.729ZM5.526,0V-10.4H6.48v1.116A4,4,0,0,1,7.6-10.215a2.73,2.73,0,0,1,1.35-.351,1.575,1.575,0,0,1,.837.225,1.52,1.52,0,0,1,.585.72A3.361,3.361,0,0,1,10.584-8.3V0H9.63V-8.19a2.049,2.049,0,0,0-.3-1.3,1.007,1.007,0,0,0-.8-.342,2.052,2.052,0,0,0-1.053.315,4.285,4.285,0,0,0-1,.837V0Zm6.606-8.118V-8.91h5.274v.792Zm0,2.934v-.81h5.274v.81ZM21.006,0V-13.266a1.854,1.854,0,0,1-.45.441,3.9,3.9,0,0,1-.612.36q-.324.153-.6.261a3.937,3.937,0,0,1-.423.144v-.828a3.809,3.809,0,0,0,.531-.216,3.884,3.884,0,0,0,.6-.369,5.75,5.75,0,0,0,.594-.5,3.682,3.682,0,0,0,.5-.6h.828V0Zm6.012,0V-13.266a1.854,1.854,0,0,1-.45.441,3.9,3.9,0,0,1-.612.36q-.324.153-.6.261a3.937,3.937,0,0,1-.423.144v-.828a3.809,3.809,0,0,0,.531-.216,3.884,3.884,0,0,0,.6-.369,5.75,5.75,0,0,0,.594-.5,3.682,3.682,0,0,0,.5-.6h.828V0ZM30.6,2.646V1.962a1.4,1.4,0,0,0,1.062-.729,4.782,4.782,0,0,0,.54-1.71,19.262,19.262,0,0,0,.189-2.484q.027-1.413.027-3.051t-.027-3.051a19.027,19.027,0,0,0-.189-2.475,4.77,4.77,0,0,0-.54-1.7,1.4,1.4,0,0,0-1.062-.729v-.7a2.148,2.148,0,0,1,1.332.477,2.914,2.914,0,0,1,.819,1.224,8.108,8.108,0,0,1,.432,1.845,22.529,22.529,0,0,1,.162,2.358q.027,1.3.027,2.754,0,1.44-.027,2.718a22.4,22.4,0,0,1-.162,2.34A7.948,7.948,0,0,1,32.751.882a3.068,3.068,0,0,1-.819,1.233A2.26,2.26,0,0,1,30.6,2.646Z" transform="translate(1025.67 743.26)" fill="#fff"/>
    <path id="Path_2911" data-name="Path 2911" d="M.576,0l3.06-14.58H4.77L7.848,0h-.99L6.1-4.032H2.322L1.548,0Zm1.89-4.752h3.51l-1.764-8.64ZM12.024.162A2.38,2.38,0,0,1,10.3-.387a2.685,2.685,0,0,1-.729-1.467A11.253,11.253,0,0,1,9.4-3.906V-6.354A10.392,10.392,0,0,1,9.63-8.811a2.255,2.255,0,0,1,.81-1.341,2.67,2.67,0,0,1,1.584-.414,2.561,2.561,0,0,1,1.629.441,2.113,2.113,0,0,1,.729,1.206,7.524,7.524,0,0,1,.18,1.719v.414h-.9V-7.2a5.952,5.952,0,0,0-.171-1.629,1.341,1.341,0,0,0-.531-.792,1.744,1.744,0,0,0-.936-.225,1.513,1.513,0,0,0-1.062.333,1.842,1.842,0,0,0-.486,1.071,12.3,12.3,0,0,0-.126,1.98v2.7a6.538,6.538,0,0,0,.333,2.448,1.331,1.331,0,0,0,1.359.756A1.565,1.565,0,0,0,13.1-.864a1.559,1.559,0,0,0,.459-.954,10.537,10.537,0,0,0,.108-1.674v-.4h.9v.378A9.8,9.8,0,0,1,14.4-1.638a2.3,2.3,0,0,1-.7,1.314A2.447,2.447,0,0,1,12.024.162ZM16.434,0V-14.58h.954v5.274a4.107,4.107,0,0,1,1.134-.918,2.786,2.786,0,0,1,1.35-.342,1.575,1.575,0,0,1,.837.225,1.52,1.52,0,0,1,.585.72A3.361,3.361,0,0,1,21.51-8.3V0h-.972V-8.19a2.1,2.1,0,0,0-.288-1.3.98.98,0,0,0-.792-.342,2.1,2.1,0,0,0-1.062.315,4.2,4.2,0,0,0-1.008.837V0ZM23.67,0V-10.4h.972V0Zm0-11.772v-1.656h.972v1.656ZM29.466.162a2.864,2.864,0,0,1-1.422-.333,2.135,2.135,0,0,1-.909-1.206,7.6,7.6,0,0,1-.315-2.475V-6.624a7.3,7.3,0,0,1,.324-2.484,2.023,2.023,0,0,1,.927-1.152,3.084,3.084,0,0,1,1.413-.306,2.518,2.518,0,0,1,1.53.414,2.285,2.285,0,0,1,.792,1.323,9.966,9.966,0,0,1,.234,2.4v.99H27.774V-3.78a8.62,8.62,0,0,0,.171,1.944,1.7,1.7,0,0,0,.549.99,1.559,1.559,0,0,0,.972.288,2.378,2.378,0,0,0,.756-.126,1.153,1.153,0,0,0,.63-.594A3.208,3.208,0,0,0,31.1-2.736V-3.51h.936v.684a3.844,3.844,0,0,1-.549,2.16A2.253,2.253,0,0,1,29.466.162ZM27.774-6.012H31.1v-.81A11.288,11.288,0,0,0,31-8.433a1.9,1.9,0,0,0-.441-1.044,1.409,1.409,0,0,0-1.08-.369,1.779,1.779,0,0,0-.963.243,1.462,1.462,0,0,0-.567.9,7.622,7.622,0,0,0-.18,1.9ZM35.712,0,33.318-10.4h.972l1.944,9.2,1.908-9.2h.918L36.774,0Zm7.344.162a2.864,2.864,0,0,1-1.422-.333,2.135,2.135,0,0,1-.909-1.206,7.6,7.6,0,0,1-.315-2.475V-6.624a7.3,7.3,0,0,1,.324-2.484,2.023,2.023,0,0,1,.927-1.152,3.084,3.084,0,0,1,1.413-.306,2.517,2.517,0,0,1,1.53.414A2.285,2.285,0,0,1,45.4-8.829a9.966,9.966,0,0,1,.234,2.4v.99H41.364V-3.78a8.62,8.62,0,0,0,.171,1.944,1.7,1.7,0,0,0,.549.99,1.559,1.559,0,0,0,.972.288,2.378,2.378,0,0,0,.756-.126,1.153,1.153,0,0,0,.63-.594,3.208,3.208,0,0,0,.252-1.458V-3.51h.936v.684a3.844,3.844,0,0,1-.549,2.16A2.253,2.253,0,0,1,43.056.162ZM41.364-6.012h3.33v-.81a11.288,11.288,0,0,0-.1-1.611,1.9,1.9,0,0,0-.441-1.044,1.409,1.409,0,0,0-1.08-.369,1.779,1.779,0,0,0-.963.243,1.462,1.462,0,0,0-.567.9,7.622,7.622,0,0,0-.18,1.9ZM49.86.162a1.968,1.968,0,0,1-1.9-1.035,7.7,7.7,0,0,1-.549-3.393V-6.12a12.722,12.722,0,0,1,.2-2.457,2.768,2.768,0,0,1,.72-1.485,2.038,2.038,0,0,1,1.476-.5,2.073,2.073,0,0,1,1.134.3,3.043,3.043,0,0,1,.756.657V-14.58h.954V0H51.7V-.792a3.519,3.519,0,0,1-.747.648A1.917,1.917,0,0,1,49.86.162Zm.126-.738a1.81,1.81,0,0,0,.963-.27,3.316,3.316,0,0,0,.747-.612v-7.47a5.332,5.332,0,0,0-.729-.594,1.711,1.711,0,0,0-1-.306,1.241,1.241,0,0,0-1.3.828,8.279,8.279,0,0,0-.306,2.646v2.16A12.818,12.818,0,0,0,48.5-2.133a2.266,2.266,0,0,0,.486,1.179A1.3,1.3,0,0,0,49.986-.576ZM61.74.2a3.709,3.709,0,0,1-2.205-.567,2.928,2.928,0,0,1-1.089-1.548A7.458,7.458,0,0,1,58.14-4.14v-6.372a6.821,6.821,0,0,1,.324-2.2A2.886,2.886,0,0,1,59.571-14.2a3.777,3.777,0,0,1,2.169-.54,3.777,3.777,0,0,1,2.169.54,2.886,2.886,0,0,1,1.107,1.494,6.821,6.821,0,0,1,.324,2.2v6.39a7.368,7.368,0,0,1-.306,2.214A2.929,2.929,0,0,1,63.945-.369,3.709,3.709,0,0,1,61.74.2Zm0-.81a2.7,2.7,0,0,0,1.611-.414,2.113,2.113,0,0,0,.783-1.161,6.277,6.277,0,0,0,.216-1.737v-6.732a6.18,6.18,0,0,0-.216-1.728,2.085,2.085,0,0,0-.774-1.143,2.736,2.736,0,0,0-1.62-.405,2.743,2.743,0,0,0-1.611.405,2.067,2.067,0,0,0-.783,1.143,6.18,6.18,0,0,0-.216,1.728v6.732a6.277,6.277,0,0,0,.216,1.737,2.113,2.113,0,0,0,.783,1.161A2.7,2.7,0,0,0,61.74-.612ZM67.788,0V-14.58h3.528A3.491,3.491,0,0,1,73.3-14.1a2.42,2.42,0,0,1,.954,1.3,6,6,0,0,1,.261,1.827,6.839,6.839,0,0,1-.171,1.548,2.78,2.78,0,0,1-.63,1.251,2.209,2.209,0,0,1-1.341.657L74.718,0h-.972L71.478-7.344H68.76V0Zm.972-8.1h2.52A2.414,2.414,0,0,0,72.7-8.451a1.812,1.812,0,0,0,.675-1,5.5,5.5,0,0,0,.189-1.53,3.947,3.947,0,0,0-.459-2.106,2.033,2.033,0,0,0-1.845-.72h-2.5ZM77.022,0V-14.58H80.55a3.491,3.491,0,0,1,1.989.477,2.42,2.42,0,0,1,.954,1.3,6,6,0,0,1,.261,1.827,6.839,6.839,0,0,1-.171,1.548,2.78,2.78,0,0,1-.63,1.251,2.209,2.209,0,0,1-1.341.657L83.952,0H82.98L80.712-7.344H77.994V0Zm.972-8.1h2.52a2.414,2.414,0,0,0,1.422-.351,1.812,1.812,0,0,0,.675-1,5.5,5.5,0,0,0,.189-1.53,3.947,3.947,0,0,0-.459-2.106,2.033,2.033,0,0,0-1.845-.72h-2.5Z" transform="translate(963 1043.043)" fill="#63666b"/>
    <path id="Path_2907" data-name="Path 2907" d="M.576,0l3.06-14.58H4.77L7.848,0h-.99L6.1-4.032H2.322L1.548,0Zm1.89-4.752h3.51l-1.764-8.64ZM12.024.162A2.38,2.38,0,0,1,10.3-.387a2.685,2.685,0,0,1-.729-1.467A11.253,11.253,0,0,1,9.4-3.906V-6.354A10.392,10.392,0,0,1,9.63-8.811a2.255,2.255,0,0,1,.81-1.341,2.67,2.67,0,0,1,1.584-.414,2.561,2.561,0,0,1,1.629.441,2.113,2.113,0,0,1,.729,1.206,7.524,7.524,0,0,1,.18,1.719v.414h-.9V-7.2a5.952,5.952,0,0,0-.171-1.629,1.341,1.341,0,0,0-.531-.792,1.744,1.744,0,0,0-.936-.225,1.513,1.513,0,0,0-1.062.333,1.842,1.842,0,0,0-.486,1.071,12.3,12.3,0,0,0-.126,1.98v2.7a6.538,6.538,0,0,0,.333,2.448,1.331,1.331,0,0,0,1.359.756A1.565,1.565,0,0,0,13.1-.864a1.559,1.559,0,0,0,.459-.954,10.537,10.537,0,0,0,.108-1.674v-.4h.9v.378A9.8,9.8,0,0,1,14.4-1.638a2.3,2.3,0,0,1-.7,1.314A2.447,2.447,0,0,1,12.024.162ZM16.416,0V-14.58h.954v5.274a4.107,4.107,0,0,1,1.134-.918,2.786,2.786,0,0,1,1.35-.342,1.575,1.575,0,0,1,.837.225,1.52,1.52,0,0,1,.585.72A3.361,3.361,0,0,1,21.492-8.3V0H20.52V-8.19a2.1,2.1,0,0,0-.288-1.3.98.98,0,0,0-.792-.342,2.1,2.1,0,0,0-1.062.315,4.2,4.2,0,0,0-1.008.837V0Zm7.236,0V-10.4h.972V0Zm0-11.772v-1.656h.972v1.656ZM29.448.162a2.864,2.864,0,0,1-1.422-.333,2.135,2.135,0,0,1-.909-1.206A7.6,7.6,0,0,1,26.8-3.852V-6.624a7.3,7.3,0,0,1,.324-2.484,2.023,2.023,0,0,1,.927-1.152,3.084,3.084,0,0,1,1.413-.306,2.517,2.517,0,0,1,1.53.414,2.285,2.285,0,0,1,.792,1.323,9.966,9.966,0,0,1,.234,2.4v.99H27.756V-3.78a8.62,8.62,0,0,0,.171,1.944,1.7,1.7,0,0,0,.549.99,1.559,1.559,0,0,0,.972.288A2.378,2.378,0,0,0,30.2-.684a1.153,1.153,0,0,0,.63-.594,3.208,3.208,0,0,0,.252-1.458V-3.51h.936v.684a3.844,3.844,0,0,1-.549,2.16A2.253,2.253,0,0,1,29.448.162ZM27.756-6.012h3.33v-.81a11.288,11.288,0,0,0-.1-1.611,1.9,1.9,0,0,0-.441-1.044,1.409,1.409,0,0,0-1.08-.369A1.779,1.779,0,0,0,28.5-9.6a1.462,1.462,0,0,0-.567.9,7.622,7.622,0,0,0-.18,1.9ZM35.712,0,33.318-10.4h.972l1.944,9.2,1.908-9.2h.918L36.774,0Zm7.344.162a2.864,2.864,0,0,1-1.422-.333,2.135,2.135,0,0,1-.909-1.206,7.6,7.6,0,0,1-.315-2.475V-6.624a7.3,7.3,0,0,1,.324-2.484,2.023,2.023,0,0,1,.927-1.152,3.084,3.084,0,0,1,1.413-.306,2.517,2.517,0,0,1,1.53.414A2.285,2.285,0,0,1,45.4-8.829a9.966,9.966,0,0,1,.234,2.4v.99H41.364V-3.78a8.62,8.62,0,0,0,.171,1.944,1.7,1.7,0,0,0,.549.99,1.559,1.559,0,0,0,.972.288,2.378,2.378,0,0,0,.756-.126,1.153,1.153,0,0,0,.63-.594,3.208,3.208,0,0,0,.252-1.458V-3.51h.936v.684a3.844,3.844,0,0,1-.549,2.16A2.253,2.253,0,0,1,43.056.162ZM41.364-6.012h3.33v-.81a11.288,11.288,0,0,0-.1-1.611,1.9,1.9,0,0,0-.441-1.044,1.409,1.409,0,0,0-1.08-.369,1.779,1.779,0,0,0-.963.243,1.462,1.462,0,0,0-.567.9,7.622,7.622,0,0,0-.18,1.9ZM49.86.162a1.968,1.968,0,0,1-1.9-1.035,7.7,7.7,0,0,1-.549-3.393V-6.12a12.722,12.722,0,0,1,.2-2.457,2.768,2.768,0,0,1,.72-1.485,2.038,2.038,0,0,1,1.476-.5,2.073,2.073,0,0,1,1.134.3,3.043,3.043,0,0,1,.756.657V-14.58h.954V0H51.7V-.792a3.519,3.519,0,0,1-.747.648A1.917,1.917,0,0,1,49.86.162Zm.126-.738a1.81,1.81,0,0,0,.963-.27,3.316,3.316,0,0,0,.747-.612v-7.47a5.332,5.332,0,0,0-.729-.594,1.711,1.711,0,0,0-1-.306,1.241,1.241,0,0,0-1.3.828,8.279,8.279,0,0,0-.306,2.646v2.16A12.818,12.818,0,0,0,48.5-2.133a2.266,2.266,0,0,0,.486,1.179A1.3,1.3,0,0,0,49.986-.576ZM61.362.18a3.521,3.521,0,0,1-1.9-.468A2.964,2.964,0,0,1,58.329-1.6a5.889,5.889,0,0,1-.477-2l.846-.27a8.379,8.379,0,0,0,.387,1.692,2.37,2.37,0,0,0,.8,1.143,2.442,2.442,0,0,0,1.494.4,2.5,2.5,0,0,0,1.7-.54,2.277,2.277,0,0,0,.621-1.8,3.1,3.1,0,0,0-.495-1.719,9.942,9.942,0,0,0-1.4-1.647L59.148-8.982a4.817,4.817,0,0,1-.972-1.368,3.4,3.4,0,0,1-.306-1.4,2.774,2.774,0,0,1,.891-2.214,3.4,3.4,0,0,1,2.313-.774,4.382,4.382,0,0,1,1.332.189,2.623,2.623,0,0,1,1.035.612,2.872,2.872,0,0,1,.693,1.125,6.518,6.518,0,0,1,.324,1.728l-.828.2a5.812,5.812,0,0,0-.342-1.71,2.052,2.052,0,0,0-.792-1.017,2.586,2.586,0,0,0-1.4-.333,2.665,2.665,0,0,0-1.656.5,1.9,1.9,0,0,0-.666,1.62,2.7,2.7,0,0,0,.225,1.08,3.84,3.84,0,0,0,.837,1.134L62.46-7.02a10.945,10.945,0,0,1,1.521,1.845,3.861,3.861,0,0,1,.639,2.151,3.556,3.556,0,0,1-.414,1.809A2.542,2.542,0,0,1,63.054-.162,3.982,3.982,0,0,1,61.362.18ZM66.8,0V-14.58h3.186a3.96,3.96,0,0,1,2.268.558,2.929,2.929,0,0,1,1.134,1.512,6.576,6.576,0,0,1,.324,2.124v6.048a7.073,7.073,0,0,1-.324,2.223A3.024,3.024,0,0,1,72.279-.567,3.709,3.709,0,0,1,70.074,0Zm.972-.774h2.25a2.623,2.623,0,0,0,1.764-.5,2.392,2.392,0,0,0,.756-1.341,8.693,8.693,0,0,0,.18-1.827v-5.868a6.985,6.985,0,0,0-.216-1.845,2.114,2.114,0,0,0-.81-1.206,2.925,2.925,0,0,0-1.71-.423H67.77Z" transform="translate(1438 1043.043)" fill="#63666b"/>
  </g>
</svg>
